<?xml version="1.0" encoding="UTF-8" standalone="no"?>
<!-- Created with Inkscape (http://www.inkscape.org/) -->

<svg
   version="1.1"
   id="svg1"
   width="816"
   height="1056"
   viewBox="0 0 816 1056"
   sodipodi:docname="car.eps"
   xmlns:inkscape="http://www.inkscape.org/namespaces/inkscape"
   xmlns:sodipodi="http://sodipodi.sourceforge.net/DTD/sodipodi-0.dtd"
   xmlns="http://www.w3.org/2000/svg"
   xmlns:svg="http://www.w3.org/2000/svg">
  <defs
     id="defs1" />
  <sodipodi:namedview
     id="namedview1"
     pagecolor="#505050"
     bordercolor="#eeeeee"
     borderopacity="1"
     inkscape:showpageshadow="0"
     inkscape:pageopacity="0"
     inkscape:pagecheckerboard="0"
     inkscape:deskcolor="#d1d1d1">
    <inkscape:page
       x="0"
       y="0"
       inkscape:label="1"
       id="page1"
       width="816"
       height="1056"
       margin="527.38611 384.13547 504.27667 386.75519"
       bleed="0" />
  </sodipodi:namedview>
  <g
     id="g1"
     inkscape:groupmode="layer"
     inkscape:label="1">
    <g
       id="group-R8">
      <path
         id="path2"
         d="m 3233.65,3973.88 v 159.63 l -16.01,-14.06 v -159.63 z"
         style="fill:#02709f;fill-opacity:1;fill-rule:nonzero;stroke:#ffffff;stroke-width:3.9999;stroke-linecap:butt;stroke-linejoin:miter;stroke-miterlimit:4;stroke-dasharray:none;stroke-opacity:1"
         transform="matrix(0.13333333,0,0,-0.13333333,0,1056)" />
      <path
         id="path3"
         d="m 3217.29,3960.09 v 159.06 H 2906 v -159.06 z"
         style="fill:#02709f;fill-opacity:1;fill-rule:nonzero;stroke:#ffffff;stroke-width:3.9999;stroke-linecap:butt;stroke-linejoin:miter;stroke-miterlimit:4;stroke-dasharray:none;stroke-opacity:1"
         transform="matrix(0.13333333,0,0,-0.13333333,0,1056)" />
      <path
         id="path4"
         d="m 3233.65,4133.45 h -311.29 l -16.36,-14.3 h 311.29 z"
         style="fill:#02709f;fill-opacity:1;fill-rule:nonzero;stroke:#ffffff;stroke-width:3.9999;stroke-linecap:butt;stroke-linejoin:miter;stroke-miterlimit:4;stroke-dasharray:none;stroke-opacity:1"
         transform="matrix(0.13333333,0,0,-0.13333333,0,1056)" />
      <path
         id="path5"
         d="m 3233.65,4133.45 -16.36,-14.3"
         style="fill:#02709f;fill-opacity:1;fill-rule:nonzero;stroke:#ffffff;stroke-width:3.9999;stroke-linecap:butt;stroke-linejoin:miter;stroke-miterlimit:4;stroke-dasharray:none;stroke-opacity:1"
         transform="matrix(0.13333333,0,0,-0.13333333,0,1056)" />
      <path
         id="path6"
         d="m 3088.34,4090.75 16.37,14.3 c 57.79,-67.55 13.32,-120.1 13.32,-120.1 h 76.66"
         style="fill:none;stroke:#ffffff;stroke-width:3.9999;stroke-linecap:butt;stroke-linejoin:miter;stroke-miterlimit:4;stroke-dasharray:none;stroke-opacity:1"
         transform="matrix(0.13333333,0,0,-0.13333333,0,1056)" />
      <path
         id="path7"
         d="m 2964.65,4092.51 -16.37,14.3 3.09,-121.86 h -35.3"
         style="fill:none;stroke:#ffffff;stroke-width:3.9999;stroke-linecap:butt;stroke-linejoin:miter;stroke-miterlimit:4;stroke-dasharray:none;stroke-opacity:1"
         transform="matrix(0.13333333,0,0,-0.13333333,0,1056)" />
      <path
         id="path8"
         d="m 2964.65,4074.19 c 0,15.96 16.56,18.32 16.56,18.32 0,0 82.46,0 97.83,0 20.08,0 19.5,-18.92 19.5,-18.92 0,0 0,-67.97 0,-79.2 0,-11.23 -15.38,-15.96 -15.38,-15.96 0,0 -85.41,0 -99.59,0 -14.19,0 -18.92,14.77 -18.92,14.77 z"
         style="fill:#02709f;fill-opacity:1;fill-rule:nonzero;stroke:#ffffff;stroke-width:3.9999;stroke-linecap:butt;stroke-linejoin:miter;stroke-miterlimit:4;stroke-dasharray:none;stroke-opacity:1"
         transform="matrix(0.13333333,0,0,-0.13333333,0,1056)" />
      <path
         id="path9"
         d="m 3194.69,4084.95 h -76.66"
         style="fill:#02709f;fill-opacity:1;fill-rule:nonzero;stroke:#ffffff;stroke-width:3.9999;stroke-linecap:butt;stroke-linejoin:miter;stroke-miterlimit:4;stroke-dasharray:none;stroke-opacity:1"
         transform="matrix(0.13333333,0,0,-0.13333333,0,1056)" />
      <path
         id="path10"
         d="m 2951.37,4084.95 h -35.3"
         style="fill:#02709f;fill-opacity:1;fill-rule:nonzero;stroke:#ffffff;stroke-width:3.9999;stroke-linecap:butt;stroke-linejoin:miter;stroke-miterlimit:4;stroke-dasharray:none;stroke-opacity:1"
         transform="matrix(0.13333333,0,0,-0.13333333,0,1056)" />
      <path
         id="path11"
         d="M 2948.28,4106.81 H 3097.5"
         style="fill:none;stroke:#ffffff;stroke-width:3.9999;stroke-linecap:butt;stroke-linejoin:miter;stroke-miterlimit:4;stroke-dasharray:none;stroke-opacity:1"
         transform="matrix(0.13333333,0,0,-0.13333333,0,1056)" />
    </g>
  </g>
</svg>
