<?xml version="1.0" encoding="UTF-8" standalone="no"?>
<!-- Created with Inkscape (http://www.inkscape.org/) -->

<svg
   version="1.1"
   id="svg1"
   width="33.946667"
   height="42.32"
   viewBox="0 0 33.946667 42.32"
   sodipodi:docname="Service Module.eps"
   xmlns:inkscape="http://www.inkscape.org/namespaces/inkscape"
   xmlns:sodipodi="http://sodipodi.sourceforge.net/DTD/sodipodi-0.dtd"
   xmlns="http://www.w3.org/2000/svg"
   xmlns:svg="http://www.w3.org/2000/svg">
  <defs
     id="defs1" />
  <sodipodi:namedview
     id="namedview1"
     pagecolor="#505050"
     bordercolor="#eeeeee"
     borderopacity="1"
     inkscape:showpageshadow="0"
     inkscape:pageopacity="0"
     inkscape:pagecheckerboard="0"
     inkscape:deskcolor="#d1d1d1">
    <inkscape:page
       x="0"
       y="0"
       inkscape:label="1"
       id="page1"
       width="33.946667"
       height="42.32"
       margin="0"
       bleed="0" />
  </sodipodi:namedview>
  <g
     id="g1"
     inkscape:groupmode="layer"
     inkscape:label="1">
    <g
       id="group-R5">
      <path
         id="path2"
         d="m 250.121,314.559 -27.5,-31.114 H 5.32813 L 40.9414,314.559 H 250.121"
         style="fill:#087bbb;fill-opacity:1;fill-rule:nonzero;stroke:none"
         transform="matrix(0.13333333,0,0,-0.13333333,0,42.32)" />
      <path
         id="path3"
         d="m 250.121,314.559 -27.5,-31.114 H 5.32813 l 35.61327,31.114 z"
         style="fill:none;stroke:#ffffff;stroke-width:4;stroke-linecap:butt;stroke-linejoin:miter;stroke-miterlimit:4;stroke-dasharray:none;stroke-opacity:1"
         transform="matrix(0.13333333,0,0,-0.13333333,0,42.32)" />
      <path
         id="path4"
         d="M 222.621,283.445 V 175.438 l 27.453,28.925 v 108.028 l -27.453,-28.946"
         style="fill:#087bbb;fill-opacity:1;fill-rule:nonzero;stroke:none"
         transform="matrix(0.13333333,0,0,-0.13333333,0,42.32)" />
      <path
         id="path5"
         d="M 222.621,283.445 V 175.438 l 27.453,28.925 v 108.028 z"
         style="fill:none;stroke:#ffffff;stroke-width:4;stroke-linecap:butt;stroke-linejoin:miter;stroke-miterlimit:4;stroke-dasharray:none;stroke-opacity:1"
         transform="matrix(0.13333333,0,0,-0.13333333,0,42.32)" />
      <path
         id="path6"
         d="m 5.32813,5.01172 h 217.293 v 172.156 H 5.32813 Z"
         style="fill:#087bbb;fill-opacity:1;fill-rule:nonzero;stroke:none"
         transform="matrix(0.13333333,0,0,-0.13333333,0,42.32)" />
      <path
         id="path7"
         d="M 222.621,5.01172 V 177.168 H 5.32813 V 5.01172"
         style="fill:none;stroke:#ffffff;stroke-width:4;stroke-linecap:butt;stroke-linejoin:miter;stroke-miterlimit:4;stroke-dasharray:none;stroke-opacity:1"
         transform="matrix(0.13333333,0,0,-0.13333333,0,42.32)" />
      <path
         id="path8"
         d="M 5.32813,283.445 V 176.785 H 222.621 v 106.66 H 5.32813"
         style="fill:#087bbb;fill-opacity:1;fill-rule:nonzero;stroke:none"
         transform="matrix(0.13333333,0,0,-0.13333333,0,42.32)" />
      <path
         id="path9"
         d="M 5.32813,283.445 V 176.785 H 222.621 v 106.66 z"
         style="fill:none;stroke:#ffffff;stroke-width:4;stroke-linecap:butt;stroke-linejoin:miter;stroke-miterlimit:4;stroke-dasharray:none;stroke-opacity:1"
         transform="matrix(0.13333333,0,0,-0.13333333,0,42.32)" />
      <path
         id="path10"
         d="M 250.074,33.9336 V 205.461 l -27.453,-28.93 V 5.01172 l 27.453,28.92188"
         style="fill:#087bbb;fill-opacity:1;fill-rule:nonzero;stroke:none"
         transform="matrix(0.13333333,0,0,-0.13333333,0,42.32)" />
      <path
         id="path11"
         d="M 250.074,33.9336 V 205.461 l -27.453,-28.93 V 5.01172 Z"
         style="fill:none;stroke:#ffffff;stroke-width:4;stroke-linecap:butt;stroke-linejoin:miter;stroke-miterlimit:4;stroke-dasharray:none;stroke-opacity:1"
         transform="matrix(0.13333333,0,0,-0.13333333,0,42.32)" />
      <path
         id="path12"
         d="M 117.555,70.9844 V 33.4063 h 6.367 l -9.395,-14.1797 -9.414,14.1797 h 6.375 v 37.5781 h 6.067"
         style="fill:#ffffff;fill-opacity:1;fill-rule:nonzero;stroke:none"
         transform="matrix(0.13333333,0,0,-0.13333333,0,42.32)" />
      <path
         id="path13"
         d="m 98.3828,76.4141 -26.5703,-26.5782 4.5117,-4.4921 -16.6797,-3.379 3.3672,16.6758 4.5117,-4.5078 26.5625,26.582 4.2969,-4.3007"
         style="fill:#ffffff;fill-opacity:1;fill-rule:nonzero;stroke:none"
         transform="matrix(0.13333333,0,0,-0.13333333,0,42.32)" />
      <path
         id="path14"
         d="M 88.668,93.8164 H 51.0898 v -6.3867 l -14.1796,9.4141 14.1796,9.4182 V 99.8711 H 88.668 v -6.0547"
         style="fill:#ffffff;fill-opacity:1;fill-rule:nonzero;stroke:none"
         transform="matrix(0.13333333,0,0,-0.13333333,0,42.32)" />
      <path
         id="path15"
         d="m 94.0859,112.977 -26.5625,26.562 -4.5117,-4.488 -3.3672,16.676 16.6797,-3.379 -4.5117,-4.508 26.5703,-26.567 -4.2969,-4.296"
         style="fill:#ffffff;fill-opacity:1;fill-rule:nonzero;stroke:none"
         transform="matrix(0.13333333,0,0,-0.13333333,0,42.32)" />
      <path
         id="path16"
         d="m 111.488,109.539 v 72.539 h -6.375 l 9.414,14.184 9.395,-14.184 h -6.367 v -72.539 h -6.067"
         style="fill:#ffffff;fill-opacity:1;fill-rule:nonzero;stroke:none"
         transform="matrix(0.13333333,0,0,-0.13333333,0,42.32)" />
      <path
         id="path17"
         d="m 130.66,117.273 26.57,26.567 -4.5,4.508 16.68,3.379 -3.379,-16.676 -4.504,4.488 -26.582,-26.562 -4.285,4.296"
         style="fill:#ffffff;fill-opacity:1;fill-rule:nonzero;stroke:none"
         transform="matrix(0.13333333,0,0,-0.13333333,0,42.32)" />
      <path
         id="path18"
         d="m 140.375,99.8711 h 37.578 v 6.3909 l 14.192,-9.4182 -14.192,-9.4141 v 6.3867 h -37.578 v 6.0547"
         style="fill:#ffffff;fill-opacity:1;fill-rule:nonzero;stroke:none"
         transform="matrix(0.13333333,0,0,-0.13333333,0,42.32)" />
      <path
         id="path19"
         d="m 134.945,80.7148 26.582,-26.582 4.504,4.5078 3.379,-16.6758 -16.68,3.379 4.5,4.4921 -26.57,26.5782 4.285,4.3007"
         style="fill:#ffffff;fill-opacity:1;fill-rule:nonzero;stroke:none"
         transform="matrix(0.13333333,0,0,-0.13333333,0,42.32)" />
      <path
         id="path20"
         d="m 137.516,128.328 c 17.597,-12.32 21.875,-36.5819 9.558,-54.1796 C 134.742,56.5547 110.473,52.2578 92.875,64.5977 75.2773,76.9258 71,101.18 83.3242,118.777 c 12.3242,17.602 36.5818,21.875 54.1918,9.551"
         style="fill:#ffffff;fill-opacity:1;fill-rule:nonzero;stroke:none"
         transform="matrix(0.13333333,0,0,-0.13333333,0,42.32)" />
      <path
         id="path21"
         d="m 112.191,249.031 h 57.207 v 5.664 l 18.723,-11.347 -18.723,-11.66 v 5.664 h -57.207 v 11.679"
         style="fill:#ffffff;fill-opacity:1;fill-rule:nonzero;stroke:none"
         transform="matrix(0.13333333,0,0,-0.13333333,0,42.32)" />
      <path
         id="path22"
         d="m 112.191,213.445 h 57.207 v 5.684 l 18.723,-11.367 -18.723,-11.66 v 5.683 h -57.207 v 11.66"
         style="fill:#ffffff;fill-opacity:1;fill-rule:nonzero;stroke:none"
         transform="matrix(0.13333333,0,0,-0.13333333,0,42.32)" />
      <path
         id="path23"
         d="M 113.473,266.043 H 56.2656 v 5.684 l -18.7304,-11.368 18.7304,-11.64 v 5.664 h 57.2074 v 11.66"
         style="fill:#ffffff;fill-opacity:1;fill-rule:nonzero;stroke:none"
         transform="matrix(0.13333333,0,0,-0.13333333,0,42.32)" />
      <path
         id="path24"
         d="M 113.473,230.477 H 56.2656 v 5.664 L 37.5352,224.793 56.2656,213.137 v 5.66 h 57.2074 v 11.68"
         style="fill:#ffffff;fill-opacity:1;fill-rule:nonzero;stroke:none"
         transform="matrix(0.13333333,0,0,-0.13333333,0,42.32)" />
      <path
         id="path25"
         d="M 221.559,5.38281 H 6.42188"
         style="fill:none;stroke:#ffffff;stroke-width:4;stroke-linecap:round;stroke-linejoin:round;stroke-miterlimit:4;stroke-dasharray:none;stroke-opacity:1"
         transform="matrix(0.13333333,0,0,-0.13333333,0,42.32)" />
      <path
         id="path26"
         d="M 250.707,314.031 223.324,284.07"
         style="fill:none;stroke:#ffffff;stroke-width:4;stroke-linecap:round;stroke-linejoin:round;stroke-miterlimit:4;stroke-dasharray:none;stroke-opacity:1"
         transform="matrix(0.13333333,0,0,-0.13333333,0,42.32)" />
      <path
         id="path27"
         d="M 221.559,176.633 H 6.42188"
         style="fill:none;stroke:#ffffff;stroke-width:4;stroke-linecap:round;stroke-linejoin:round;stroke-miterlimit:4;stroke-dasharray:none;stroke-opacity:1"
         transform="matrix(0.13333333,0,0,-0.13333333,0,42.32)" />
      <path
         id="path28"
         d="M 249.273,204.07 224.039,177.684"
         style="fill:none;stroke:#ffffff;stroke-width:4;stroke-linecap:round;stroke-linejoin:round;stroke-miterlimit:4;stroke-dasharray:none;stroke-opacity:1"
         transform="matrix(0.13333333,0,0,-0.13333333,0,42.32)" />
    </g>
  </g>
</svg>
