<?xml version="1.0" encoding="UTF-8" standalone="no"?>
<!-- Created with Inkscape (http://www.inkscape.org/) -->

<svg
   version="1.1"
   id="svg1"
   width="45.733334"
   height="55.866669"
   viewBox="0 0 45.733334 55.866669"
   sodipodi:docname="TP MCU.eps"
   xmlns:inkscape="http://www.inkscape.org/namespaces/inkscape"
   xmlns:sodipodi="http://sodipodi.sourceforge.net/DTD/sodipodi-0.dtd"
   xmlns="http://www.w3.org/2000/svg"
   xmlns:svg="http://www.w3.org/2000/svg">
  <defs
     id="defs1" />
  <sodipodi:namedview
     id="namedview1"
     pagecolor="#505050"
     bordercolor="#eeeeee"
     borderopacity="1"
     inkscape:showpageshadow="0"
     inkscape:pageopacity="0"
     inkscape:pagecheckerboard="0"
     inkscape:deskcolor="#d1d1d1">
    <inkscape:page
       x="0"
       y="0"
       inkscape:label="1"
       id="page1"
       width="45.733334"
       height="55.866669"
       margin="0"
       bleed="0" />
  </sodipodi:namedview>
  <g
     id="g1"
     inkscape:groupmode="layer"
     inkscape:label="1">
    <g
       id="group-R5">
      <path
         id="path2"
         d="M 48.3594,314.309 H 2 v -38.286 l 40.8086,0.098 h 4.8477"
         style="fill:#ffffff;fill-opacity:1;fill-rule:nonzero;stroke:#231f20;stroke-width:4;stroke-linecap:butt;stroke-linejoin:miter;stroke-miterlimit:4;stroke-dasharray:none;stroke-opacity:1"
         transform="matrix(0.13333333,0,0,-0.13333333,0,55.866667)" />
      <path
         id="path3"
         d="m 288.148,274.641 h 5.461 c 40.879,0 47.403,-36.758 47.403,-36.758 v 38.18 c 0,0 -6.504,36.781 -47.403,36.781 h -8.996"
         style="fill:#ffffff;fill-opacity:1;fill-rule:nonzero;stroke:#231f20;stroke-width:4;stroke-linecap:butt;stroke-linejoin:miter;stroke-miterlimit:4;stroke-dasharray:none;stroke-opacity:1"
         transform="matrix(0.13333333,0,0,-0.13333333,0,55.866667)" />
      <path
         id="path4"
         d="M 257.105,5.63672 V 380.773 H 41.9688 V 5.63672 H 257.105 v 0"
         style="fill:#0881c1;fill-opacity:1;fill-rule:nonzero;stroke:none"
         transform="matrix(0.13333333,0,0,-0.13333333,0,55.866667)" />
      <path
         id="path5"
         d="M 257.105,5.63672 V 380.773 H 41.9688 V 5.63672 H 257.105 Z"
         style="fill:none;stroke:#ffffff;stroke-width:4;stroke-linecap:butt;stroke-linejoin:miter;stroke-miterlimit:4;stroke-dasharray:none;stroke-opacity:1"
         transform="matrix(0.13333333,0,0,-0.13333333,0,55.866667)" />
      <path
         id="path6"
         d="m 41.9688,380.773 41.1015,33.395 H 290.492 L 257.105,380.773 H 41.9688 v 0"
         style="fill:#0881c1;fill-opacity:1;fill-rule:nonzero;stroke:none"
         transform="matrix(0.13333333,0,0,-0.13333333,0,55.866667)" />
      <path
         id="path7"
         d="m 41.9688,380.773 41.1015,33.395 H 290.492 L 257.105,380.773 H 41.9688 Z"
         style="fill:none;stroke:#ffffff;stroke-width:4;stroke-linecap:butt;stroke-linejoin:miter;stroke-miterlimit:4;stroke-dasharray:none;stroke-opacity:1"
         transform="matrix(0.13333333,0,0,-0.13333333,0,55.866667)" />
      <path
         id="path8"
         d="M 257.105,5.63672 290.492,46.7266 V 414.168 L 257.105,380.773 V 5.63672 v 0"
         style="fill:#0881c1;fill-opacity:1;fill-rule:nonzero;stroke:none"
         transform="matrix(0.13333333,0,0,-0.13333333,0,55.866667)" />
      <path
         id="path9"
         d="M 257.105,5.63672 290.492,46.7266 V 414.168 L 257.105,380.773 V 5.63672 Z"
         style="fill:none;stroke:#ffffff;stroke-width:4;stroke-linecap:butt;stroke-linejoin:miter;stroke-miterlimit:4;stroke-dasharray:none;stroke-opacity:1"
         transform="matrix(0.13333333,0,0,-0.13333333,0,55.866667)" />
      <path
         id="path10"
         d="m 341.031,264.016 v -45.254 c -4.445,-53.735 -99.718,-50.918 -99.718,-50.918 v -2.817 -36.773 l -62.227,62.223 62.227,62.226 v -39.605 c 0,0 96.894,-2.832 99.718,50.918"
         style="fill:#ffffff;fill-opacity:1;fill-rule:nonzero;stroke:#231f20;stroke-width:4;stroke-linecap:butt;stroke-linejoin:miter;stroke-miterlimit:4;stroke-dasharray:none;stroke-opacity:1"
         transform="matrix(0.13333333,0,0,-0.13333333,0,55.866667)" />
      <path
         id="path11"
         d="m 72.9648,319.48 -10.4492,-10.171 0.0078,48.062 h 48.0586 l -10.6093,-10.894 -2.0547,-2.172 71.531,-71.367 -23.355,-23.36 -71.4377,71.465 -1.6915,-1.563 v 0"
         style="fill:#ffffff;fill-opacity:1;fill-rule:nonzero;stroke:none"
         transform="matrix(0.13333333,0,0,-0.13333333,0,55.866667)" />
      <path
         id="path12"
         d="M 77.3711,66.7695 66.9219,76.9414 66.9336,28.8789 h 48.0504 l -10.609,10.8945 -2.047,2.1524 71.524,71.4022 -23.356,23.344 -71.4335,-71.4689 -1.6914,1.5664 v 0"
         style="fill:#ffffff;fill-opacity:1;fill-rule:nonzero;stroke:none"
         transform="matrix(0.13333333,0,0,-0.13333333,0,55.866667)" />
      <path
         id="path13"
         d="M 108.785,200.984 V 152.688 H 57.543 v 48.296 c 25.625,15.371 51.242,0 51.242,0 v 0"
         style="fill:#ffffff;fill-opacity:1;fill-rule:nonzero;stroke:none"
         transform="matrix(0.13333333,0,0,-0.13333333,0,55.866667)" />
      <path
         id="path14"
         d="m 99.0234,221.98 c 0,-8.496 -6.8789,-15.371 -15.3671,-15.371 -8.4961,0 -15.3711,6.875 -15.3711,15.371 0,8.497 6.875,15.372 15.3711,15.372 8.4882,0 15.3671,-6.875 15.3671,-15.372 v 0"
         style="fill:#ffffff;fill-opacity:1;fill-rule:nonzero;stroke:none"
         transform="matrix(0.13333333,0,0,-0.13333333,0,55.866667)" />
      <path
         id="path15"
         d="m 171.273,200.984 v -48.296 h -51.25 v 48.296 c 25.622,15.371 51.25,0 51.25,0 v 0"
         style="fill:#ffffff;fill-opacity:1;fill-rule:nonzero;stroke:none"
         transform="matrix(0.13333333,0,0,-0.13333333,0,55.866667)" />
      <path
         id="path16"
         d="m 161.508,221.98 c 0,-8.496 -6.879,-15.371 -15.363,-15.371 -8.504,0 -15.383,6.875 -15.383,15.371 0,8.497 6.879,15.372 15.383,15.372 8.484,0 15.363,-6.875 15.363,-15.372 v 0"
         style="fill:#ffffff;fill-opacity:1;fill-rule:nonzero;stroke:none"
         transform="matrix(0.13333333,0,0,-0.13333333,0,55.866667)" />
    </g>
  </g>
</svg>
