<?xml version="1.0" encoding="UTF-8" standalone="no"?>
<!-- Created with Inkscape (http://www.inkscape.org/) -->

<svg
   version="1.1"
   id="svg1"
   width="51.066666"
   height="33.986668"
   viewBox="0 0 51.066666 33.986668"
   sodipodi:docname="ups.eps"
   xmlns:inkscape="http://www.inkscape.org/namespaces/inkscape"
   xmlns:sodipodi="http://sodipodi.sourceforge.net/DTD/sodipodi-0.dtd"
   xmlns="http://www.w3.org/2000/svg"
   xmlns:svg="http://www.w3.org/2000/svg">
  <defs
     id="defs1">
    <clipPath
       clipPathUnits="userSpaceOnUse"
       id="clipPath2">
      <path
         d="M 0,4 V 255 H 380 V 4 Z"
         id="path2" />
    </clipPath>
    <clipPath
       clipPathUnits="userSpaceOnUse"
       id="clipPath4">
      <path
         d="M 0,4 V 255 H 380 V 4 Z"
         id="path4" />
    </clipPath>
    <clipPath
       clipPathUnits="userSpaceOnUse"
       id="clipPath6">
      <path
         d="M 0,4 V 255 H 380 V 4 Z"
         id="path6" />
    </clipPath>
    <clipPath
       clipPathUnits="userSpaceOnUse"
       id="clipPath8">
      <path
         d="M 0,4 V 255 H 380 V 4 Z"
         id="path8" />
    </clipPath>
    <clipPath
       clipPathUnits="userSpaceOnUse"
       id="clipPath10">
      <path
         d="M 0,4 V 255 H 380 V 4 Z"
         id="path10" />
    </clipPath>
    <clipPath
       clipPathUnits="userSpaceOnUse"
       id="clipPath12">
      <path
         d="M 0,4 V 255 H 380 V 4 Z"
         id="path12" />
    </clipPath>
    <clipPath
       clipPathUnits="userSpaceOnUse"
       id="clipPath14">
      <path
         d="M 0,4 V 255 H 380 V 4 Z"
         transform="matrix(0.1,0,0,-0.1,-10.0867,12.4727)"
         id="path14" />
    </clipPath>
    <clipPath
       clipPathUnits="userSpaceOnUse"
       id="clipPath16">
      <path
         d="M 0,4 V 255 H 380 V 4 Z"
         id="path16" />
    </clipPath>
  </defs>
  <sodipodi:namedview
     id="namedview1"
     pagecolor="#505050"
     bordercolor="#eeeeee"
     borderopacity="1"
     inkscape:showpageshadow="0"
     inkscape:pageopacity="0"
     inkscape:pagecheckerboard="0"
     inkscape:deskcolor="#d1d1d1">
    <inkscape:page
       x="0"
       y="0"
       inkscape:label="1"
       id="page1"
       width="51.066666"
       height="33.986668"
       margin="0"
       bleed="0" />
  </sodipodi:namedview>
  <g
     id="g1"
     inkscape:groupmode="layer"
     inkscape:label="1">
    <path
       id="path1"
       d="m 5.65625,6.46484 h 333.156 v 194.512 H 5.65625 Z"
       style="fill:#036998;fill-opacity:1;fill-rule:nonzero;stroke:none"
       transform="matrix(0.13333333,0,0,-0.13333333,0,33.986667)"
       clip-path="url(#clipPath2)" />
    <path
       id="path3"
       d="M 5.65625,6.46484 H 338.813 V 200.977 H 5.65625 Z"
       style="fill:none;stroke:#ffffff;stroke-width:3.99994;stroke-linecap:butt;stroke-linejoin:miter;stroke-miterlimit:4;stroke-dasharray:none;stroke-opacity:1"
       transform="matrix(0.13333333,0,0,-0.13333333,0,33.986667)"
       clip-path="url(#clipPath4)" />
    <path
       id="path5"
       d="M 378.715,64.8242 338.813,6.46484 V 200.977 l 39.902,48.378 V 64.8242"
       style="fill:#036998;fill-opacity:1;fill-rule:nonzero;stroke:none"
       transform="matrix(0.13333333,0,0,-0.13333333,0,33.986667)"
       clip-path="url(#clipPath6)" />
    <path
       id="path7"
       d="M 378.715,64.8242 338.813,6.46484 V 200.977 l 39.902,48.378 z"
       style="fill:none;stroke:#ffffff;stroke-width:3.99994;stroke-linecap:butt;stroke-linejoin:miter;stroke-miterlimit:4;stroke-dasharray:none;stroke-opacity:1"
       transform="matrix(0.13333333,0,0,-0.13333333,0,33.986667)"
       clip-path="url(#clipPath8)" />
    <path
       id="path9"
       d="M 65.5078,249.355 H 378.715 L 338.813,200.977 H 5.65625 l 59.85155,48.378"
       style="fill:#036998;fill-opacity:1;fill-rule:nonzero;stroke:none"
       transform="matrix(0.13333333,0,0,-0.13333333,0,33.986667)"
       clip-path="url(#clipPath10)" />
    <path
       id="path11"
       d="M 65.5078,249.355 H 378.715 L 338.813,200.977 H 5.65625 Z"
       style="fill:none;stroke:#ffffff;stroke-width:3.99994;stroke-linecap:butt;stroke-linejoin:miter;stroke-miterlimit:4;stroke-dasharray:none;stroke-opacity:1"
       transform="matrix(0.13333333,0,0,-0.13333333,0,33.986667)"
       clip-path="url(#clipPath12)" />
    <path
       id="path13"
       d="m 3.5275578,-5.0983547 v 3.4570313 c 0,0.609375 -0.3164062,0.90234371 -0.9726562,0.90234371 -0.65625,0 -0.9726563,-0.29296871 -0.9726563,-0.90234371 V -5.0983547 H 0.52755781 v 3.4570313 c 0,0.5742187 0.1640625,0.97265621 0.50390629,1.28906246 0.3632812,0.328125 0.9023437,0.515625 1.5234375,0.515625 0.609375,0 1.1484375,-0.1875 1.5234375,-0.515625 0.3398437,-0.31640625 0.4921875,-0.71484376 0.4921875,-1.28906246 v -3.4570313 z m 3.1083984,3.28125 h 1.3125 c 0.9375001,0 1.5351563,-0.6679687 1.5351563,-1.6992187 0,-1.0195313 -0.5859375,-1.5820313 -1.640625,-1.5820313 H 5.5812687 v 5.0976562625 h 1.0546875 z m 0,-0.8789062 v -1.5351563 h 0.984375 c 0.5507813,0 0.8085938,0.2460938 0.8085938,0.7617188 0,0.5273437 -0.2578125,0.7734375 -0.8085938,0.7734375 z m 7.3300778,-0.8554688 c 0,-1.0546875 -0.714843,-1.6289062 -1.992187,-1.6289062 -1.230469,0 -1.933594,0.5742187 -1.933594,1.5585937 0,0.796875 0.398438,1.1835938 1.429688,1.3710938 l 0.714843,0.140625 c 0.703125,0.140625 0.960938,0.328125 0.960938,0.75 0,0.42187496 -0.386719,0.67968746 -1.03125,0.67968746 -0.714844,0 -1.113281,-0.3046875 -1.148438,-0.84374996 H 9.9465031 c 0.058594,1.08984371 0.8085939,1.68749996 2.1093749,1.68749996 1.324219,0 2.097656,-0.609375 2.097656,-1.65234376 0,-0.8085937 -0.410156,-1.2304687 -1.347656,-1.40625 l -0.796875,-0.1523437 c -0.75,-0.1523438 -0.972656,-0.2929688 -0.972656,-0.6679688 0,-0.3867187 0.339844,-0.6328125 0.878906,-0.6328125 0.667969,0 1.042969,0.28125 1.078125,0.796875 z m 0,0"
       style="fill:#ffffff;fill-opacity:1;fill-rule:nonzero;stroke:none"
       aria-label="UPS"
       transform="matrix(1.3333333,0,0,1.3333333,13.448933,17.3564)"
       clip-path="url(#clipPath14)" />
    <path
       id="path15"
       d="m 170.23,64.707 c 0.04,0.0196 43.243,2.3633 43.243,2.3633 0,0 -53.125,20.2344 -63.145,23.7813 0.664,0.2812 48.418,0.8672 48.418,0.8672 L 54.0078,131.68 149.164,96.7188 c -0.476,-0.2032 -35,-2.5 -35,-2.5 0,0 35.149,-17.1954 44.934,-20.6641 -1.465,-0.6055 -32.02,-9.3359 -32.02,-9.3359 L 298.871,16.4258 170.23,64.707"
       style="fill:#ffffff;fill-opacity:1;fill-rule:nonzero;stroke:none"
       transform="matrix(0.13333333,0,0,-0.13333333,0,33.986667)"
       clip-path="url(#clipPath16)" />
  </g>
</svg>
