<?xml version="1.0" encoding="UTF-8" standalone="no"?>
<!-- Created with Inkscape (http://www.inkscape.org/) -->

<svg
   version="1.1"
   id="svg1"
   width="62.759998"
   height="76.32"
   viewBox="0 0 62.759998 76.32"
   sodipodi:docname="Ground terminal.eps"
   xmlns:inkscape="http://www.inkscape.org/namespaces/inkscape"
   xmlns:sodipodi="http://sodipodi.sourceforge.net/DTD/sodipodi-0.dtd"
   xmlns="http://www.w3.org/2000/svg"
   xmlns:svg="http://www.w3.org/2000/svg">
  <defs
     id="defs1" />
  <sodipodi:namedview
     id="namedview1"
     pagecolor="#505050"
     bordercolor="#eeeeee"
     borderopacity="1"
     inkscape:showpageshadow="0"
     inkscape:pageopacity="0"
     inkscape:pagecheckerboard="0"
     inkscape:deskcolor="#d1d1d1">
    <inkscape:page
       x="0"
       y="0"
       inkscape:label="1"
       id="page1"
       width="62.759998"
       height="76.32"
       margin="0"
       bleed="0" />
  </sodipodi:namedview>
  <g
     id="g1"
     inkscape:groupmode="layer"
     inkscape:label="1">
    <g
       id="group-R5">
      <path
         id="path2"
         d="m 205.613,327.895 h 69.465 V 237.59 c 0,0 -70.691,-21.934 -69.465,-21.934 1.223,0 0,112.239 0,112.239"
         style="fill:#2b669e;fill-opacity:1;fill-rule:nonzero;stroke:none"
         transform="matrix(0.13333333,0,0,-0.13333333,0,76.32)" />
      <path
         id="path3"
         d="m 235.344,398.199 c 128.867,0 233.34,19.785 233.34,44.196 0,24.406 -104.473,44.191 -233.34,44.191 C 106.477,486.586 2,466.801 2,442.395 2,417.984 106.477,398.199 235.344,398.199"
         style="fill:#ffffff;fill-opacity:1;fill-rule:nonzero;stroke:#231f20;stroke-width:1.5;stroke-linecap:butt;stroke-linejoin:miter;stroke-miterlimit:4;stroke-dasharray:none;stroke-opacity:1"
         transform="matrix(0.13333333,0,0,-0.13333333,0,76.32)" />
      <path
         id="path4"
         d="m 236.594,320.695 c 128.867,0 232.09,97.289 232.09,121.7 0,24.406 -104.473,44.191 -233.34,44.191 C 106.477,486.586 2,466.801 2,442.395 c 0,-24.411 105.727,-121.7 234.594,-121.7"
         style="fill:#2b669e;fill-opacity:1;fill-rule:nonzero;stroke:none"
         transform="matrix(0.13333333,0,0,-0.13333333,0,76.32)" />
      <path
         id="path5"
         d="m 235.344,398.199 c 128.867,0 233.34,19.785 233.34,44.196 0,24.406 -104.473,44.191 -233.34,44.191 C 106.477,486.586 2,466.801 2,442.395 2,417.984 106.477,398.199 235.344,398.199"
         style="fill:#ffffff;fill-opacity:1;fill-rule:nonzero;stroke:#2b669e;stroke-width:4;stroke-linecap:butt;stroke-linejoin:miter;stroke-miterlimit:4;stroke-dasharray:none;stroke-opacity:1"
         transform="matrix(0.13333333,0,0,-0.13333333,0,76.32)" />
      <path
         id="path6"
         d="m 174.68,475.473 c -36.821,-2.235 -69.492,-6.524 -95.012,-12.235"
         style="fill:none;stroke:#2b669e;stroke-width:3.75;stroke-linecap:butt;stroke-linejoin:miter;stroke-miterlimit:4;stroke-dasharray:none;stroke-opacity:1"
         transform="matrix(0.13333333,0,0,-0.13333333,0,76.32)" />
      <path
         id="path7"
         d="m 177.156,466.242 c -35.718,-2.609 -66.992,-7.379 -90.6208,-13.613"
         style="fill:none;stroke:#2b669e;stroke-width:3.75;stroke-linecap:butt;stroke-linejoin:miter;stroke-miterlimit:4;stroke-dasharray:none;stroke-opacity:1"
         transform="matrix(0.13333333,0,0,-0.13333333,0,76.32)" />
      <path
         id="path8"
         d="m 179.695,456.324 c -34.961,-3.023 -65.078,-8.375 -86.8356,-15.238"
         style="fill:none;stroke:#2b669e;stroke-width:3.75;stroke-linecap:butt;stroke-linejoin:miter;stroke-miterlimit:4;stroke-dasharray:none;stroke-opacity:1"
         transform="matrix(0.13333333,0,0,-0.13333333,0,76.32)" />
      <path
         id="path9"
         d="m 184.727,444.766 c -34.153,-3.297 -63.211,-9.067 -83.477,-16.414"
         style="fill:none;stroke:#2b669e;stroke-width:3.75;stroke-linecap:butt;stroke-linejoin:miter;stroke-miterlimit:4;stroke-dasharray:none;stroke-opacity:1"
         transform="matrix(0.13333333,0,0,-0.13333333,0,76.32)" />
      <path
         id="path10"
         d="m 187.18,434.004 c -32.395,-3.734 -59.477,-9.981 -77.5,-17.777"
         style="fill:none;stroke:#2b669e;stroke-width:3.75;stroke-linecap:butt;stroke-linejoin:miter;stroke-miterlimit:4;stroke-dasharray:none;stroke-opacity:1"
         transform="matrix(0.13333333,0,0,-0.13333333,0,76.32)" />
      <path
         id="path11"
         d="m 191.57,421.27 c -25.679,-3.504 -47.476,-8.797 -63.164,-15.278"
         style="fill:none;stroke:#2b669e;stroke-width:3.75;stroke-linecap:butt;stroke-linejoin:miter;stroke-miterlimit:4;stroke-dasharray:none;stroke-opacity:1"
         transform="matrix(0.13333333,0,0,-0.13333333,0,76.32)" />
      <path
         id="path12"
         d="m 193.066,409.418 c -10.363,-1.875 -19.89,-4.094 -28.386,-6.602"
         style="fill:none;stroke:#2b669e;stroke-width:3.75;stroke-linecap:butt;stroke-linejoin:miter;stroke-miterlimit:4;stroke-dasharray:none;stroke-opacity:1"
         transform="matrix(0.13333333,0,0,-0.13333333,0,76.32)" />
      <path
         id="path13"
         d="m 1.375,438.188 235.219,117.957 232.09,-113.75"
         style="fill:none;stroke:#2b669e;stroke-width:4;stroke-linecap:butt;stroke-linejoin:miter;stroke-miterlimit:4;stroke-dasharray:none;stroke-opacity:1"
         transform="matrix(0.13333333,0,0,-0.13333333,0,76.32)" />
      <path
         id="path14"
         d="m 237.844,526.313 c 8.789,0 15.906,3.562 15.906,7.957 0,4.394 -7.117,7.953 -15.906,7.953 -8.789,0 -15.91,-3.559 -15.91,-7.953 0,-4.395 7.121,-7.957 15.91,-7.957"
         style="fill:#2b669e;fill-opacity:1;fill-rule:nonzero;stroke:none"
         transform="matrix(0.13333333,0,0,-0.13333333,0,76.32)" />
      <path
         id="path15"
         d="m 237.844,572.395 -5,-163.75 h 11.25 z"
         style="fill:#2b669e;fill-opacity:1;fill-rule:nonzero;stroke:none"
         transform="matrix(0.13333333,0,0,-0.13333333,0,76.32)" />
      <path
         id="path16"
         d="m 290.461,265.496 v 44.664 h -112.5 v -44.664 h 112.5"
         style="fill:#2b669e;fill-opacity:1;fill-rule:nonzero;stroke:none"
         transform="matrix(0.13333333,0,0,-0.13333333,0,76.32)" />
      <path
         id="path17"
         d="m 229.863,280.969 h -34.621 v 10.023 h 34.621 v -10.023"
         style="fill:#ffffff;fill-opacity:1;fill-rule:nonzero;stroke:none"
         transform="matrix(0.13333333,0,0,-0.13333333,0,76.32)" />
      <path
         id="path18"
         d="m 275.422,280.969 h -34.621 v 10.023 h 34.621 v -10.023"
         style="fill:#ffffff;fill-opacity:1;fill-rule:nonzero;stroke:none"
         transform="matrix(0.13333333,0,0,-0.13333333,0,76.32)" />
      <path
         id="path19"
         d="m 419.23,178.293 c 0,-39.504 -82.343,-71.523 -183.925,-71.523 -101.582,0 -183.9261,32.019 -183.9261,71.523 V 73.5273 c 0,-39.5039 82.3441,-71.52339 183.9261,-71.52339 101.582,0 183.925,32.01949 183.925,71.52339 V 178.293"
         style="fill:#2b669e;fill-opacity:1;fill-rule:nonzero;stroke:none"
         transform="matrix(0.13333333,0,0,-0.13333333,0,76.32)" />
      <path
         id="path20"
         d="m 419.23,178.293 c 0,-39.504 -82.343,-71.523 -183.925,-71.523 -101.582,0 -183.9261,32.019 -183.9261,71.523 V 73.5273 c 0,-39.5039 82.3441,-71.52339 183.9261,-71.52339 101.582,0 183.925,32.01949 183.925,71.52339 z"
         style="fill:none;stroke:#ffffff;stroke-width:4;stroke-linecap:butt;stroke-linejoin:miter;stroke-miterlimit:4;stroke-dasharray:none;stroke-opacity:1"
         transform="matrix(0.13333333,0,0,-0.13333333,0,76.32)" />
      <path
         id="path21"
         d="m 235.305,106.77 c 101.582,0 183.925,32.019 183.925,71.523 0,39.512 -82.343,71.523 -183.925,71.523 -101.582,0 -183.9261,-32.011 -183.9261,-71.523 0,-39.504 82.3441,-71.523 183.9261,-71.523"
         style="fill:#2b669e;fill-opacity:1;fill-rule:nonzero;stroke:none"
         transform="matrix(0.13333333,0,0,-0.13333333,0,76.32)" />
      <path
         id="path22"
         d="m 235.305,106.77 c 101.582,0 183.925,32.019 183.925,71.523 0,39.512 -82.343,71.523 -183.925,71.523 -101.582,0 -183.9261,-32.011 -183.9261,-71.523 0,-39.504 82.3441,-71.523 183.9261,-71.523 z"
         style="fill:none;stroke:#ffffff;stroke-width:4;stroke-linecap:butt;stroke-linejoin:miter;stroke-miterlimit:4;stroke-dasharray:none;stroke-opacity:1"
         transform="matrix(0.13333333,0,0,-0.13333333,0,76.32)" />
      <path
         id="path23"
         d="m 193.301,206.262 15.183,-22.785 -57.421,-13.274 12.55,10.453 -88.7497,15.164 22.2656,16.692 85.6371,-14.504 10.535,8.254"
         style="fill:#ffffff;fill-opacity:1;fill-rule:nonzero;stroke:none"
         transform="matrix(0.13333333,0,0,-0.13333333,0,76.32)" />
      <path
         id="path24"
         d="m 274.102,151.016 -10.364,23.488 51.797,10.351 -8.98,-8.046 86.328,-14.746 -20.715,-16.575 -85.813,16.114 -12.253,-10.586"
         style="fill:#ffffff;fill-opacity:1;fill-rule:nonzero;stroke:none"
         transform="matrix(0.13333333,0,0,-0.13333333,0,76.32)" />
      <path
         id="path25"
         d="m 245.781,218.703 58.02,15.875 0.679,-24.859 -14.5,2.761 -28.308,-23.484 -27.024,3.945 29.231,22.969 -18.098,2.793"
         style="fill:#ffffff;fill-opacity:1;fill-rule:nonzero;stroke:none"
         transform="matrix(0.13333333,0,0,-0.13333333,0,76.32)" />
      <path
         id="path26"
         d="m 220.918,129.602 -55.242,-10.356 -2.071,25.551 15.875,-3.449 30.415,25.968 26.914,-4.55 -32.461,-28.321 16.57,-4.843"
         style="fill:#ffffff;fill-opacity:1;fill-rule:nonzero;stroke:none"
         transform="matrix(0.13333333,0,0,-0.13333333,0,76.32)" />
    </g>
  </g>
</svg>
