<?xml version="1.0" encoding="UTF-8" standalone="no"?>
<!-- Created with Inkscape (http://www.inkscape.org/) -->

<svg
   version="1.1"
   id="svg1"
   width="52.84"
   height="62.959999"
   viewBox="0 0 52.84 62.959999"
   sodipodi:docname="supercomputer.eps"
   xmlns:inkscape="http://www.inkscape.org/namespaces/inkscape"
   xmlns:sodipodi="http://sodipodi.sourceforge.net/DTD/sodipodi-0.dtd"
   xmlns="http://www.w3.org/2000/svg"
   xmlns:svg="http://www.w3.org/2000/svg">
  <defs
     id="defs1">
    <clipPath
       clipPathUnits="userSpaceOnUse"
       id="clipPath2">
      <path
         d="M 0,2 V 472 H 396 V 2 Z"
         id="path2" />
    </clipPath>
    <clipPath
       clipPathUnits="userSpaceOnUse"
       id="clipPath4">
      <path
         d="M 0,2 V 472 H 396 V 2 Z"
         id="path4" />
    </clipPath>
    <clipPath
       clipPathUnits="userSpaceOnUse"
       id="clipPath6">
      <path
         d="M 0,2 V 472 H 396 V 2 Z"
         id="path6" />
    </clipPath>
    <clipPath
       clipPathUnits="userSpaceOnUse"
       id="clipPath8">
      <path
         d="M 0,2 V 472 H 396 V 2 Z"
         id="path8" />
    </clipPath>
    <clipPath
       clipPathUnits="userSpaceOnUse"
       id="clipPath10">
      <path
         d="M 0,2 V 472 H 396 V 2 Z"
         id="path10" />
    </clipPath>
    <clipPath
       clipPathUnits="userSpaceOnUse"
       id="clipPath12">
      <path
         d="M 0,2 V 472 H 396 V 2 Z"
         id="path12" />
    </clipPath>
    <clipPath
       clipPathUnits="userSpaceOnUse"
       id="clipPath14">
      <path
         d="M 0,2 V 472 H 396 V 2 Z"
         id="path14" />
    </clipPath>
    <clipPath
       clipPathUnits="userSpaceOnUse"
       id="clipPath16">
      <path
         d="M 0,2 V 472 H 396 V 2 Z"
         id="path16" />
    </clipPath>
    <clipPath
       clipPathUnits="userSpaceOnUse"
       id="clipPath18">
      <path
         d="M 0,2 V 472 H 396 V 2 Z"
         id="path18" />
    </clipPath>
    <clipPath
       clipPathUnits="userSpaceOnUse"
       id="clipPath20">
      <path
         d="M 0,2 V 472 H 396 V 2 Z"
         id="path20" />
    </clipPath>
    <clipPath
       clipPathUnits="userSpaceOnUse"
       id="clipPath22">
      <path
         d="M 0,2 V 472 H 396 V 2 Z"
         id="path22" />
    </clipPath>
    <clipPath
       clipPathUnits="userSpaceOnUse"
       id="clipPath24">
      <path
         d="M 0,2 V 472 H 396 V 2 Z"
         id="path24" />
    </clipPath>
    <clipPath
       clipPathUnits="userSpaceOnUse"
       id="clipPath26">
      <path
         d="M 0,2 V 472 H 396 V 2 Z"
         id="path26" />
    </clipPath>
    <clipPath
       clipPathUnits="userSpaceOnUse"
       id="clipPath28">
      <path
         d="M 0,2 V 472 H 396 V 2 Z"
         id="path28" />
    </clipPath>
    <clipPath
       clipPathUnits="userSpaceOnUse"
       id="clipPath30">
      <path
         d="M 0,2 V 472 H 396 V 2 Z"
         id="path30" />
    </clipPath>
    <clipPath
       clipPathUnits="userSpaceOnUse"
       id="clipPath32">
      <path
         d="M 0,2 V 472 H 396 V 2 Z"
         id="path32" />
    </clipPath>
    <clipPath
       clipPathUnits="userSpaceOnUse"
       id="clipPath34">
      <path
         d="M 0,2 V 472 H 396 V 2 Z"
         id="path34" />
    </clipPath>
    <clipPath
       clipPathUnits="userSpaceOnUse"
       id="clipPath36">
      <path
         d="M 0,2 V 472 H 396 V 2 Z"
         id="path36" />
    </clipPath>
    <clipPath
       clipPathUnits="userSpaceOnUse"
       id="clipPath38">
      <path
         d="M 0,2 V 472 H 396 V 2 Z"
         id="path38" />
    </clipPath>
    <clipPath
       clipPathUnits="userSpaceOnUse"
       id="clipPath40">
      <path
         d="M 0,2 V 472 H 396 V 2 Z"
         id="path40" />
    </clipPath>
    <clipPath
       clipPathUnits="userSpaceOnUse"
       id="clipPath42">
      <path
         d="M 0,2 V 472 H 396 V 2 Z"
         id="path42" />
    </clipPath>
    <clipPath
       clipPathUnits="userSpaceOnUse"
       id="clipPath44">
      <path
         d="M 0,2 V 472 H 396 V 2 Z"
         id="path44" />
    </clipPath>
    <clipPath
       clipPathUnits="userSpaceOnUse"
       id="clipPath46">
      <path
         d="M 0,2 V 472 H 396 V 2 Z"
         id="path46" />
    </clipPath>
    <clipPath
       clipPathUnits="userSpaceOnUse"
       id="clipPath48">
      <path
         d="M 0,2 V 472 H 396 V 2 Z"
         id="path48" />
    </clipPath>
    <clipPath
       clipPathUnits="userSpaceOnUse"
       id="clipPath50">
      <path
         d="M 0,2 V 472 H 396 V 2 Z"
         id="path50" />
    </clipPath>
    <clipPath
       clipPathUnits="userSpaceOnUse"
       id="clipPath52">
      <path
         d="M 0,2 V 472 H 396 V 2 Z"
         id="path52" />
    </clipPath>
    <clipPath
       clipPathUnits="userSpaceOnUse"
       id="clipPath54">
      <path
         d="M 0,2 V 472 H 396 V 2 Z"
         id="path54" />
    </clipPath>
    <clipPath
       clipPathUnits="userSpaceOnUse"
       id="clipPath56">
      <path
         d="M 0,2 V 472 H 396 V 2 Z"
         id="path56" />
    </clipPath>
    <clipPath
       clipPathUnits="userSpaceOnUse"
       id="clipPath58">
      <path
         d="M 0,2 V 472 H 396 V 2 Z"
         id="path58" />
    </clipPath>
  </defs>
  <sodipodi:namedview
     id="namedview1"
     pagecolor="#505050"
     bordercolor="#eeeeee"
     borderopacity="1"
     inkscape:showpageshadow="0"
     inkscape:pageopacity="0"
     inkscape:pagecheckerboard="0"
     inkscape:deskcolor="#d1d1d1">
    <inkscape:page
       x="0"
       y="0"
       inkscape:label="1"
       id="page1"
       width="52.84"
       height="62.959999"
       margin="0"
       bleed="0" />
  </sodipodi:namedview>
  <g
     id="g1"
     inkscape:groupmode="layer"
     inkscape:label="1">
    <path
       id="path1"
       d="m 198.605,133.625 c 108.067,0 195.68,25.086 195.68,56.035 0,30.945 -87.613,56.035 -195.68,56.035 -108.0777,0 -195.68703,-25.09 -195.68703,-56.035 0,-30.949 87.60933,-56.035 195.68703,-56.035"
       style="fill:#036998;fill-opacity:1;fill-rule:nonzero;stroke:none"
       transform="matrix(0.13333333,0,0,-0.13333333,0,62.96)"
       clip-path="url(#clipPath2)" />
    <path
       id="path3"
       d="m 198.605,133.625 c 108.067,0 195.68,25.086 195.68,56.035 0,30.945 -87.613,56.035 -195.68,56.035 -108.0777,0 -195.68703,-25.09 -195.68703,-56.035 0,-30.949 87.60933,-56.035 195.68703,-56.035 z"
       style="fill:none;stroke:#ffffff;stroke-width:3.99994;stroke-linecap:butt;stroke-linejoin:miter;stroke-miterlimit:4;stroke-dasharray:none;stroke-opacity:1"
       transform="matrix(0.13333333,0,0,-0.13333333,0,62.96)"
       clip-path="url(#clipPath4)" />
    <path
       id="path5"
       d="m 195.73,392.375 c 75.059,0 135.903,17.422 135.903,38.914 0,21.488 -60.844,38.91 -135.903,38.91 -75.054,0 -135.8941,-17.422 -135.8941,-38.91 0,-21.492 60.8401,-38.914 135.8941,-38.914"
       style="fill:#036998;fill-opacity:1;fill-rule:nonzero;stroke:none"
       transform="matrix(0.13333333,0,0,-0.13333333,0,62.96)"
       clip-path="url(#clipPath6)" />
    <path
       id="path7"
       d="m 195.73,392.375 c 75.059,0 135.903,17.422 135.903,38.914 0,21.488 -60.844,38.91 -135.903,38.91 -75.054,0 -135.8941,-17.422 -135.8941,-38.91 0,-21.492 60.8401,-38.914 135.8941,-38.914 z"
       style="fill:none;stroke:#ffffff;stroke-width:3.99994;stroke-linecap:butt;stroke-linejoin:miter;stroke-miterlimit:4;stroke-dasharray:none;stroke-opacity:1"
       transform="matrix(0.13333333,0,0,-0.13333333,0,62.96)"
       clip-path="url(#clipPath8)" />
    <path
       id="path9"
       d="m 196.105,220.609 -0.375,-43.601 c -75.054,0 -135.8941,17.422 -135.8941,38.914 v 215.367 c 0,-21.492 60.8401,-38.914 135.8941,-38.914 75.059,0 135.903,17.422 135.903,38.914 V 215.922 c 0,-13.781 -27.863,-26.488 -65.61,-33.402"
       style="fill:#036998;fill-opacity:1;fill-rule:nonzero;stroke:#ffffff;stroke-width:3.99994;stroke-linecap:butt;stroke-linejoin:miter;stroke-miterlimit:4;stroke-dasharray:none;stroke-opacity:1"
       transform="matrix(0.13333333,0,0,-0.13333333,0,62.96)"
       clip-path="url(#clipPath10)" />
    <path
       id="path11"
       d="M 363.605,60.7617 V 159.063 L 311.426,195.25 V 410.621"
       style="fill:none;stroke:#ffffff;stroke-width:3.99994;stroke-linecap:butt;stroke-linejoin:miter;stroke-miterlimit:4;stroke-dasharray:none;stroke-opacity:1"
       transform="matrix(0.13333333,0,0,-0.13333333,0,62.96)"
       clip-path="url(#clipPath12)" />
    <path
       id="path13"
       d="m 91.8555,42.4609 v 98.3121 l 30.8475,42.364 v 215.371"
       style="fill:none;stroke:#ffffff;stroke-width:3.99994;stroke-linecap:butt;stroke-linejoin:miter;stroke-miterlimit:4;stroke-dasharray:none;stroke-opacity:1"
       transform="matrix(0.13333333,0,0,-0.13333333,0,62.96)"
       clip-path="url(#clipPath14)" />
    <path
       id="path15"
       d="M 30.4102,61.3594 V 159.66 l 49.6289,36.781 v 215.368"
       style="fill:none;stroke:#ffffff;stroke-width:3.99994;stroke-linecap:butt;stroke-linejoin:miter;stroke-miterlimit:4;stroke-dasharray:none;stroke-opacity:1"
       transform="matrix(0.13333333,0,0,-0.13333333,0,62.96)"
       clip-path="url(#clipPath16)" />
    <path
       id="path17"
       d="M 195.73,392.375 V 177.008"
       style="fill:none;stroke:#ffffff;stroke-width:3.99994;stroke-linecap:butt;stroke-linejoin:miter;stroke-miterlimit:4;stroke-dasharray:none;stroke-opacity:1"
       transform="matrix(0.13333333,0,0,-0.13333333,0,62.96)"
       clip-path="url(#clipPath18)" />
    <path
       id="path19"
       d="M 265.09,182.512 V 398.023"
       style="fill:#000000;fill-opacity:1;fill-rule:nonzero;stroke:#ffffff;stroke-width:3.99994;stroke-linecap:butt;stroke-linejoin:miter;stroke-miterlimit:4;stroke-dasharray:none;stroke-opacity:1"
       transform="matrix(0.13333333,0,0,-0.13333333,0,62.96)"
       clip-path="url(#clipPath20)" />
    <path
       id="path21"
       d="m 394.285,90.4023 c -2.5,-19.746 -38.648,-37.9687 -92.515,-47.9492 l 0.125,99.5389 c 53.718,9.992 89.89,27.317 92.39,47.028 V 90.4023"
       style="fill:#036998;fill-opacity:1;fill-rule:nonzero;stroke:none"
       transform="matrix(0.13333333,0,0,-0.13333333,0,62.96)"
       clip-path="url(#clipPath22)" />
    <path
       id="path23"
       d="m 394.285,90.4023 c -2.5,-19.746 -38.648,-37.9687 -92.515,-47.9492 l 0.125,99.5389 c 53.718,9.992 89.89,27.317 92.39,47.028 z"
       style="fill:none;stroke:#ffffff;stroke-width:3.99994;stroke-linecap:butt;stroke-linejoin:miter;stroke-miterlimit:4;stroke-dasharray:none;stroke-opacity:1"
       transform="matrix(0.13333333,0,0,-0.13333333,0,62.96)"
       clip-path="url(#clipPath24)" />
    <path
       id="path25"
       d="M 1.66797,91.8867 C 0.421875,58.4375 93.1719,34.0547 201.238,34.0547 V 133.879 C 91.2813,133.273 0.421875,157.656 1.66797,191.109 V 91.8867"
       style="fill:#036998;fill-opacity:1;fill-rule:nonzero;stroke:none"
       transform="matrix(0.13333333,0,0,-0.13333333,0,62.96)"
       clip-path="url(#clipPath26)" />
    <path
       id="path27"
       d="M 1.66797,91.8867 C 0.421875,58.4375 93.1719,34.0547 201.238,34.0547 V 133.879 C 91.2813,133.273 0.421875,157.656 1.66797,191.109 Z"
       style="fill:none;stroke:#ffffff;stroke-width:3.99994;stroke-linecap:butt;stroke-linejoin:miter;stroke-miterlimit:4;stroke-dasharray:none;stroke-opacity:1"
       transform="matrix(0.13333333,0,0,-0.13333333,0,62.96)"
       clip-path="url(#clipPath28)" />
    <path
       id="path29"
       d="m 196.105,393.258 -0.644,25.625 c 8.477,0 16.973,0.703 23.484,1.375 L 265.09,398.023 V 182.512 l 36.851,-39.883 V 41.9063 L 217.844,80 c -2.832,0 -16.074,-1.7852 -17.016,-1.7852 v 55.4882 l -4.723,43.445 v 216.11"
       style="fill:#036998;fill-opacity:1;fill-rule:nonzero;stroke:none"
       transform="matrix(0.13333333,0,0,-0.13333333,0,62.96)"
       clip-path="url(#clipPath30)" />
    <path
       id="path31"
       d="m 196.105,393.258 -0.644,25.625 c 8.477,0 16.973,0.703 23.484,1.375 L 265.09,398.023 V 182.512 l 36.851,-39.883 V 41.9063 L 217.844,80 c -2.832,0 -16.074,-1.7852 -17.016,-1.7852 v 55.4882 l -4.723,43.445 z"
       style="fill:none;stroke:#ffffff;stroke-width:3.99994;stroke-linecap:butt;stroke-linejoin:miter;stroke-miterlimit:4;stroke-dasharray:none;stroke-opacity:1"
       transform="matrix(0.13333333,0,0,-0.13333333,0,62.96)"
       clip-path="url(#clipPath32)" />
    <path
       id="path33"
       d="M 217.844,420.051 V 80"
       style="fill:none;stroke:#ffffff;stroke-width:3.99994;stroke-linecap:butt;stroke-linejoin:miter;stroke-miterlimit:4;stroke-dasharray:none;stroke-opacity:1"
       transform="matrix(0.13333333,0,0,-0.13333333,0,62.96)"
       clip-path="url(#clipPath34)" />
    <path
       id="path35"
       d="m 3.60547,192.883 54.99613,20"
       style="fill:#000000;fill-opacity:1;fill-rule:nonzero;stroke:#ffffff;stroke-width:3.99994;stroke-linecap:butt;stroke-linejoin:miter;stroke-miterlimit:4;stroke-dasharray:none;stroke-opacity:1"
       transform="matrix(0.13333333,0,0,-0.13333333,0,62.96)"
       clip-path="url(#clipPath36)" />
    <path
       id="path37"
       d="m 392.355,195.383 -60,17.5"
       style="fill:#000000;fill-opacity:1;fill-rule:nonzero;stroke:#ffffff;stroke-width:3.99994;stroke-linecap:butt;stroke-linejoin:bevel;stroke-miterlimit:4;stroke-dasharray:none;stroke-opacity:1"
       transform="matrix(0.13333333,0,0,-0.13333333,0,62.96)"
       clip-path="url(#clipPath38)" />
    <path
       id="path39"
       d="m 229.23,385.332 22.5,3.051 46.875,-20.664 c -17.5,-4.668 -58.75,-9.953 -66.875,-8.504 l -2.5,26.117"
       style="fill:#036998;fill-opacity:1;fill-rule:nonzero;stroke:none"
       transform="matrix(0.13333333,0,0,-0.13333333,0,62.96)"
       clip-path="url(#clipPath40)" />
    <path
       id="path41"
       d="m 229.23,385.332 22.5,3.051 46.875,-20.664 c -17.5,-4.668 -58.75,-9.953 -66.875,-8.504 z"
       style="fill:none;stroke:#ffffff;stroke-width:3.99994;stroke-linecap:butt;stroke-linejoin:miter;stroke-miterlimit:4;stroke-dasharray:none;stroke-opacity:1"
       transform="matrix(0.13333333,0,0,-0.13333333,0,62.96)"
       clip-path="url(#clipPath42)" />
    <path
       id="path43"
       d="m 228.605,385.297 3.125,-26.082 V 144.211 l 5,-43.477 V 1.35938 L 228.605,43.4297 V 385.297"
       style="fill:#036998;fill-opacity:1;fill-rule:nonzero;stroke:none"
       transform="matrix(0.13333333,0,0,-0.13333333,0,62.96)"
       clip-path="url(#clipPath44)" />
    <path
       id="path45"
       d="m 228.605,385.297 3.125,-26.082 V 144.211 l 5,-43.477 V 1.35938 l -8.125,42.07032 z"
       style="fill:none;stroke:#ffffff;stroke-width:3.99994;stroke-linecap:butt;stroke-linejoin:miter;stroke-miterlimit:4;stroke-dasharray:none;stroke-opacity:1"
       transform="matrix(0.13333333,0,0,-0.13333333,0,62.96)"
       clip-path="url(#clipPath46)" />
    <path
       id="path47"
       d="m 231.73,359.215 c 12.5,-0.598 56.875,4.851 66.875,9.129 V 152.102 C 280.48,148.645 246.73,143.75 231.73,144.836 v 214.379"
       style="fill:#036998;fill-opacity:1;fill-rule:nonzero;stroke:none"
       transform="matrix(0.13333333,0,0,-0.13333333,0,62.96)"
       clip-path="url(#clipPath48)" />
    <path
       id="path49"
       d="m 231.73,359.215 c 12.5,-0.598 56.875,4.851 66.875,9.129 V 152.102 C 280.48,148.645 246.73,143.75 231.73,144.836 Z"
       style="fill:none;stroke:#ffffff;stroke-width:3.99994;stroke-linecap:butt;stroke-linejoin:miter;stroke-miterlimit:4;stroke-dasharray:none;stroke-opacity:1"
       transform="matrix(0.13333333,0,0,-0.13333333,0,62.96)"
       clip-path="url(#clipPath50)" />
    <path
       id="path51"
       d="m 298.605,152.102 37.5,-38.047 c -20,-5.422 -86.875,-12.676 -99.375,-12.696 l -5,43.477 c 7.5,-0.859 63.75,5.84 66.875,7.266"
       style="fill:#036998;fill-opacity:1;fill-rule:nonzero;stroke:none"
       transform="matrix(0.13333333,0,0,-0.13333333,0,62.96)"
       clip-path="url(#clipPath52)" />
    <path
       id="path53"
       d="m 298.605,152.102 37.5,-38.047 c -20,-5.422 -86.875,-12.676 -99.375,-12.696 l -5,43.477 c 7.5,-0.859 63.75,5.84 66.875,7.266 z"
       style="fill:none;stroke:#ffffff;stroke-width:3.99994;stroke-linecap:butt;stroke-linejoin:miter;stroke-miterlimit:4;stroke-dasharray:none;stroke-opacity:1"
       transform="matrix(0.13333333,0,0,-0.13333333,0,62.96)"
       clip-path="url(#clipPath54)" />
    <path
       id="path55"
       d="M 335.48,114.648 V 14.6484 C 322.355,10.832 252.98,1.57422 236.73,1.98438 V 100.734 c 12.5,0.02 73.75,7.606 98.75,13.914"
       style="fill:#036998;fill-opacity:1;fill-rule:nonzero;stroke:none"
       transform="matrix(0.13333333,0,0,-0.13333333,0,62.96)"
       clip-path="url(#clipPath56)" />
    <path
       id="path57"
       d="M 335.48,114.648 V 14.6484 C 322.355,10.832 252.98,1.57422 236.73,1.98438 V 100.734 c 12.5,0.02 73.75,7.606 98.75,13.914 z"
       style="fill:none;stroke:#ffffff;stroke-width:3.99994;stroke-linecap:butt;stroke-linejoin:miter;stroke-miterlimit:4;stroke-dasharray:none;stroke-opacity:1"
       transform="matrix(0.13333333,0,0,-0.13333333,0,62.96)"
       clip-path="url(#clipPath58)" />
  </g>
</svg>
