<?xml version="1.0" encoding="UTF-8" standalone="no"?>
<!-- Created with Inkscape (http://www.inkscape.org/) -->

<svg
   version="1.1"
   id="svg1"
   width="54.106667"
   height="43.360001"
   viewBox="0 0 54.106667 43.360001"
   sodipodi:docname="ciscoworks.eps"
   xmlns:inkscape="http://www.inkscape.org/namespaces/inkscape"
   xmlns:sodipodi="http://sodipodi.sourceforge.net/DTD/sodipodi-0.dtd"
   xmlns="http://www.w3.org/2000/svg"
   xmlns:svg="http://www.w3.org/2000/svg">
  <defs
     id="defs1" />
  <sodipodi:namedview
     id="namedview1"
     pagecolor="#505050"
     bordercolor="#eeeeee"
     borderopacity="1"
     inkscape:showpageshadow="0"
     inkscape:pageopacity="0"
     inkscape:pagecheckerboard="0"
     inkscape:deskcolor="#d1d1d1">
    <inkscape:page
       x="0"
       y="0"
       inkscape:label="1"
       id="page1"
       width="54.106667"
       height="43.360001"
       margin="0"
       bleed="0" />
  </sodipodi:namedview>
  <g
     id="g1"
     inkscape:groupmode="layer"
     inkscape:label="1">
    <path
       id="path1"
       d="m 50.6016,68.0469 h 228.574 v 43.2539 H 50.6016 Z"
       style="fill:#087bbb;fill-opacity:1;fill-rule:nonzero;stroke:none"
       transform="matrix(0.13333333,0,0,-0.13333333,0,43.36)" />
    <path
       id="path2"
       d="M 50.6016,68.0469 V 111.301 H 279.176 V 68.0469 Z"
       style="fill:none;stroke:#ffffff;stroke-width:3.99994;stroke-linecap:butt;stroke-linejoin:miter;stroke-miterlimit:4;stroke-dasharray:none;stroke-opacity:1"
       transform="matrix(0.13333333,0,0,-0.13333333,0,43.36)" />
    <path
       id="path3"
       d="m 317.875,150.156 v -43.39 L 279.176,68.0469 V 111.301 H 50.6016"
       style="fill:#087bbb;fill-opacity:1;fill-rule:nonzero;stroke:#ffffff;stroke-width:3.99994;stroke-linecap:butt;stroke-linejoin:miter;stroke-miterlimit:4;stroke-dasharray:none;stroke-opacity:1"
       transform="matrix(0.13333333,0,0,-0.13333333,0,43.36)" />
    <path
       id="path4"
       d="M 50.6016,150.156 H 317.875"
       style="fill:#231f20;fill-opacity:1;fill-rule:nonzero;stroke:#ffffff;stroke-width:3.99994;stroke-linecap:butt;stroke-linejoin:bevel;stroke-miterlimit:4;stroke-dasharray:none;stroke-opacity:1"
       transform="matrix(0.13333333,0,0,-0.13333333,0,43.36)" />
    <path
       id="path5"
       d="m 279.176,111.301 38.699,38.855"
       style="fill:#231f20;fill-opacity:1;fill-rule:nonzero;stroke:#ffffff;stroke-width:3.99994;stroke-linecap:butt;stroke-linejoin:bevel;stroke-miterlimit:4;stroke-dasharray:none;stroke-opacity:1"
       transform="matrix(0.13333333,0,0,-0.13333333,0,43.36)" />
    <path
       id="path6"
       d="M 267.875,36.9258 V 62.2734 H 4.82813 L 34.7617,92.207 H 297.809 V 66.8555 L 267.875,36.9258"
       style="fill:#087bbb;fill-opacity:1;fill-rule:nonzero;stroke:none"
       transform="matrix(0.13333333,0,0,-0.13333333,0,43.36)" />
    <path
       id="path7"
       d="M 267.875,36.9258 V 62.2734 H 4.82813 L 34.7617,92.207 H 297.809 V 66.8555 Z"
       style="fill:none;stroke:#ffffff;stroke-width:3.99994;stroke-linecap:butt;stroke-linejoin:miter;stroke-miterlimit:4;stroke-dasharray:none;stroke-opacity:1"
       transform="matrix(0.13333333,0,0,-0.13333333,0,43.36)" />
    <path
       id="path8"
       d="m 4.82813,36.9258 h 263.047 V 62.2735 H 4.82813 Z"
       style="fill:#087bbb;fill-opacity:1;fill-rule:nonzero;stroke:none"
       transform="matrix(0.13333333,0,0,-0.13333333,0,43.36)" />
    <path
       id="path9"
       d="M 267.875,62.2734 V 36.9258 H 4.82813 v 25.3476 z"
       style="fill:none;stroke:#ffffff;stroke-width:3.99994;stroke-linecap:butt;stroke-linejoin:miter;stroke-miterlimit:4;stroke-dasharray:none;stroke-opacity:1"
       transform="matrix(0.13333333,0,0,-0.13333333,0,43.36)" />
    <path
       id="path10"
       d="M 267.875,62.2734 297.809,92.207"
       style="fill:#231f20;fill-opacity:1;fill-rule:nonzero;stroke:#ffffff;stroke-width:3.99994;stroke-linecap:butt;stroke-linejoin:bevel;stroke-miterlimit:4;stroke-dasharray:none;stroke-opacity:1"
       transform="matrix(0.13333333,0,0,-0.13333333,0,43.36)" />
    <path
       id="path11"
       d="m 50.6016,111.301 h 228.27 v 172.887 h -228.27 z"
       style="fill:#087bbb;fill-opacity:1;fill-rule:nonzero;stroke:none"
       transform="matrix(0.13333333,0,0,-0.13333333,0,43.36)" />
    <path
       id="path12"
       d="M 278.871,111.301 V 284.188 H 50.6016 V 111.301 Z"
       style="fill:none;stroke:#ffffff;stroke-width:3.99994;stroke-linecap:butt;stroke-linejoin:miter;stroke-miterlimit:4;stroke-dasharray:none;stroke-opacity:1"
       transform="matrix(0.13333333,0,0,-0.13333333,0,43.36)" />
    <path
       id="path13"
       d="m 278.871,111.301 39.004,38.855 V 323.191 H 89.3008 L 50.6016,284.188 H 278.871 V 111.301"
       style="fill:#087bbb;fill-opacity:1;fill-rule:nonzero;stroke:none"
       transform="matrix(0.13333333,0,0,-0.13333333,0,43.36)" />
    <path
       id="path14"
       d="m 278.871,111.301 39.004,38.855 V 323.191 H 89.3008 L 50.6016,284.188 H 278.871 Z"
       style="fill:none;stroke:#ffffff;stroke-width:3.99994;stroke-linecap:butt;stroke-linejoin:miter;stroke-miterlimit:4;stroke-dasharray:none;stroke-opacity:1"
       transform="matrix(0.13333333,0,0,-0.13333333,0,43.36)" />
    <path
       id="path15"
       d="M 70.25,131.805 H 258.922 V 264.227 H 70.25 Z"
       style="fill:#087bbb;fill-opacity:1;fill-rule:nonzero;stroke:none"
       transform="matrix(0.13333333,0,0,-0.13333333,0,43.36)" />
    <path
       id="path16"
       d="M 258.922,131.805 V 264.227 H 70.25 V 131.805 Z"
       style="fill:none;stroke:#ffffff;stroke-width:3.99994;stroke-linecap:butt;stroke-linejoin:miter;stroke-miterlimit:4;stroke-dasharray:none;stroke-opacity:1"
       transform="matrix(0.13333333,0,0,-0.13333333,0,43.36)" />
    <path
       id="path17"
       d="m 278.871,284.188 39.004,39.003"
       style="fill:#231f20;fill-opacity:1;fill-rule:nonzero;stroke:#ffffff;stroke-width:3.99994;stroke-linecap:butt;stroke-linejoin:bevel;stroke-miterlimit:4;stroke-dasharray:none;stroke-opacity:1"
       transform="matrix(0.13333333,0,0,-0.13333333,0,43.36)" />
    <path
       id="path18"
       d="M 402.984,29.7734 363.512,84.5195 326.098,57.5391 365.57,2.79297 402.984,29.7734"
       style="fill:#087bbb;fill-opacity:1;fill-rule:nonzero;stroke:#ffffff;stroke-width:3.99994;stroke-linecap:butt;stroke-linejoin:miter;stroke-miterlimit:4;stroke-dasharray:none;stroke-opacity:1"
       transform="matrix(0.13333333,0,0,-0.13333333,0,43.36)" />
    <path
       id="path19"
       d="m 345.523,71.7188 c -6.75,11.25 -18.878,4.3359 -16.308,23.0546 2.637,19.2576 -10.293,31.9926 -33.75,21.3866"
       style="fill:none;stroke:#087bbb;stroke-width:3.99994;stroke-linecap:butt;stroke-linejoin:miter;stroke-miterlimit:4;stroke-dasharray:none;stroke-opacity:1"
       transform="matrix(0.13333333,0,0,-0.13333333,0,43.36)" />
    <path
       id="path20"
       d="m 125.523,207.578 c 11.844,0 21.454,9.598 21.454,21.453 0,11.848 -9.61,21.446 -21.454,21.446 -11.847,0 -21.457,-9.598 -21.457,-21.446 0,-11.855 9.61,-21.453 21.457,-21.453 z"
       style="fill:none;stroke:#ffffff;stroke-width:3.99994;stroke-linecap:butt;stroke-linejoin:miter;stroke-miterlimit:4;stroke-dasharray:none;stroke-opacity:1"
       transform="matrix(0.13333333,0,0,-0.13333333,0,43.36)" />
    <path
       id="path21"
       d="m 202.73,207.578 c 11.844,0 21.454,9.598 21.454,21.453 0,11.848 -9.61,21.446 -21.454,21.446 -11.847,0 -21.445,-9.598 -21.445,-21.446 0,-11.855 9.598,-21.453 21.445,-21.453 z"
       style="fill:none;stroke:#ffffff;stroke-width:3.99994;stroke-linecap:butt;stroke-linejoin:miter;stroke-miterlimit:4;stroke-dasharray:none;stroke-opacity:1"
       transform="matrix(0.13333333,0,0,-0.13333333,0,43.36)" />
    <path
       id="path22"
       d="m 164.125,140.887 c 11.848,0 21.457,9.609 21.457,21.465 0,11.836 -9.609,21.449 -21.457,21.449 -11.844,0 -21.453,-9.613 -21.453,-21.449 0,-11.856 9.609,-21.465 21.453,-21.465 z"
       style="fill:none;stroke:#ffffff;stroke-width:3.99994;stroke-linecap:butt;stroke-linejoin:miter;stroke-miterlimit:4;stroke-dasharray:none;stroke-opacity:1"
       transform="matrix(0.13333333,0,0,-0.13333333,0,43.36)" />
    <path
       id="path23"
       d="m 125.523,207.578 12,-20.43 4.786,12.774 11.972,-18.359"
       style="fill:none;stroke:#ffffff;stroke-width:3.99994;stroke-linecap:butt;stroke-linejoin:miter;stroke-miterlimit:4;stroke-dasharray:none;stroke-opacity:1"
       transform="matrix(0.13333333,0,0,-0.13333333,0,43.36)" />
    <path
       id="path24"
       d="m 175.844,179.969 8.781,19.164 7.188,-11.184 10.917,19.629"
       style="fill:none;stroke:#ffffff;stroke-width:3.99994;stroke-linecap:butt;stroke-linejoin:miter;stroke-miterlimit:4;stroke-dasharray:none;stroke-opacity:1"
       transform="matrix(0.13333333,0,0,-0.13333333,0,43.36)" />
    <path
       id="path25"
       d="m 181.285,229.031 -19.015,-5.957 3.996,11.172 -19.289,-5.215"
       style="fill:none;stroke:#ffffff;stroke-width:3.99994;stroke-linecap:butt;stroke-linejoin:miter;stroke-miterlimit:4;stroke-dasharray:none;stroke-opacity:1"
       transform="matrix(0.13333333,0,0,-0.13333333,0,43.36)" />
  </g>
</svg>
