<?xml version="1.0" encoding="UTF-8" standalone="no"?>
<!-- Created with Inkscape (http://www.inkscape.org/) -->

<svg
   version="1.1"
   id="svg1"
   width="65.613335"
   height="30.213333"
   viewBox="0 0 65.613335 30.213333"
   sodipodi:docname="csu_dsu.eps"
   xmlns:inkscape="http://www.inkscape.org/namespaces/inkscape"
   xmlns:sodipodi="http://sodipodi.sourceforge.net/DTD/sodipodi-0.dtd"
   xmlns="http://www.w3.org/2000/svg"
   xmlns:svg="http://www.w3.org/2000/svg">
  <defs
     id="defs1">
    <clipPath
       clipPathUnits="userSpaceOnUse"
       id="clipPath2">
      <path
         d="M 0,227 H 490 V 0 H 0 Z"
         id="path2" />
    </clipPath>
    <clipPath
       clipPathUnits="userSpaceOnUse"
       id="clipPath4">
      <path
         d="M 0,227 H 490 V 0 H 0 Z"
         id="path4" />
    </clipPath>
    <clipPath
       clipPathUnits="userSpaceOnUse"
       id="clipPath6">
      <path
         d="M 0,227 H 490 V 0 H 0 Z"
         id="path6" />
    </clipPath>
    <clipPath
       clipPathUnits="userSpaceOnUse"
       id="clipPath8">
      <path
         d="M 0,227 H 490 V 0 H 0 Z"
         id="path8" />
    </clipPath>
    <clipPath
       clipPathUnits="userSpaceOnUse"
       id="clipPath10">
      <path
         d="M 0,227 H 490 V 0 H 0 Z"
         id="path10" />
    </clipPath>
    <clipPath
       clipPathUnits="userSpaceOnUse"
       id="clipPath12">
      <path
         d="M 0,227 H 490 V 0 H 0 Z"
         id="path12" />
    </clipPath>
    <clipPath
       clipPathUnits="userSpaceOnUse"
       id="clipPath14">
      <path
         d="M 0,227 H 490 V 0 H 0 Z"
         transform="matrix(0.1,0,0,-0.1,-5.3496101,6.4089799)"
         id="path14" />
    </clipPath>
  </defs>
  <sodipodi:namedview
     id="namedview1"
     pagecolor="#505050"
     bordercolor="#eeeeee"
     borderopacity="1"
     inkscape:showpageshadow="0"
     inkscape:pageopacity="0"
     inkscape:pagecheckerboard="0"
     inkscape:deskcolor="#d1d1d1">
    <inkscape:page
       x="0"
       y="0"
       inkscape:label="1"
       id="page1"
       width="65.613335"
       height="30.213333"
       margin="0"
       bleed="0" />
  </sodipodi:namedview>
  <g
     id="g1"
     inkscape:groupmode="layer"
     inkscape:label="1">
    <path
       id="path1"
       d="m 4.74219,4.91016 h 438.75 v 171.738 h -438.75 z"
       style="fill:#087fbf;fill-opacity:1;fill-rule:nonzero;stroke:none"
       transform="matrix(0.13333333,0,0,-0.13333333,0,30.213333)"
       clip-path="url(#clipPath2)" />
    <path
       id="path3"
       d="M 4.74219,4.91016 V 176.648 H 443.492 V 4.91016 Z"
       style="fill:none;stroke:#ffffff;stroke-width:4;stroke-linecap:butt;stroke-linejoin:miter;stroke-miterlimit:4;stroke-dasharray:none;stroke-opacity:1"
       transform="matrix(0.13333333,0,0,-0.13333333,0,30.213333)"
       clip-path="url(#clipPath4)" />
    <path
       id="path5"
       d="m 48.6172,221.648 -43.87501,-45 H 443.492 l 43.875,45 H 48.6172"
       style="fill:#087fbf;fill-opacity:1;fill-rule:nonzero;stroke:none"
       transform="matrix(0.13333333,0,0,-0.13333333,0,30.213333)"
       clip-path="url(#clipPath6)" />
    <path
       id="path7"
       d="m 48.6172,221.648 -43.87501,-45 H 443.492 l 43.875,45 z"
       style="fill:none;stroke:#ffffff;stroke-width:4;stroke-linecap:butt;stroke-linejoin:miter;stroke-miterlimit:4;stroke-dasharray:none;stroke-opacity:1"
       transform="matrix(0.13333333,0,0,-0.13333333,0,30.213333)"
       clip-path="url(#clipPath8)" />
    <path
       id="path9"
       d="M 487.367,49.9102 V 221.648 l -43.875,-45 V 4.91016 l 43.875,45.00004"
       style="fill:#087fbf;fill-opacity:1;fill-rule:nonzero;stroke:none"
       transform="matrix(0.13333333,0,0,-0.13333333,0,30.213333)"
       clip-path="url(#clipPath10)" />
    <path
       id="path11"
       d="M 487.367,49.9102 V 221.648 l -43.875,-45 V 4.91016 Z"
       style="fill:none;stroke:#ffffff;stroke-width:4;stroke-linecap:butt;stroke-linejoin:miter;stroke-miterlimit:4;stroke-dasharray:none;stroke-opacity:1"
       transform="matrix(0.13333333,0,0,-0.13333333,0,30.213333)"
       clip-path="url(#clipPath12)" />
    <path
       id="path13"
       d="M 0.71484312,-4.34375e-5 H 2.9648431 c 1.4648438,0 2.3789063,-1.1015624625 2.3789063,-2.9179687625 0,-1.8164062 -0.9023438,-2.9179687 -2.3789063,-2.9179687 H 0.71484312 Z M 1.4531244,-0.65629344 V -5.1797309 h 1.3828125 c 1.1484375,0 1.7578125,0.7734375 1.7578125,2.2617187 0,1.4882813 -0.609375,2.26171876 -1.7578125,2.26171876 z M 10.546874,-4.1250434 c 0,-0.3984375 -0.02344,-0.5039063 -0.152343,-0.7851563 -0.316407,-0.6679687 -0.9960941,-1.0195312 -1.9804691,-1.0195312 -1.2890625,0 -2.0742188,0.65625 -2.0742188,1.7109375 0,0.7148437 0.375,1.1601562 1.1367188,1.359375 l 1.453125,0.3867187 c 0.75,0.1875 1.0781251,0.4921875 1.0781251,0.9492188 0,0.3046875 -0.1757814,0.63281246 -0.4218751,0.80859371 -0.234375,0.1640625 -0.5976563,0.24609375 -1.0664063,0.24609375 -0.6445312,0 -1.0664062,-0.15234375 -1.3476562,-0.4921875 C 6.9492181,-1.2187934 6.8554681,-1.5000434 6.8671869,-1.8516059 h -0.703125 c 0,0.5273437 0.1054687,0.87890621 0.3398437,1.20703121 0.3984375,0.55078125 1.078125,0.83203125 1.9570313,0.83203125 0.703125,0 1.265625,-0.1640625 1.6523441,-0.45703125 0.386718,-0.3046875 0.632812,-0.83203121 0.632812,-1.33593751 0,-0.7148437 -0.445312,-1.2421875 -1.2421874,-1.4648437 L 8.0390619,-3.4570747 c -0.703125,-0.1875 -0.9609375,-0.421875 -0.9609375,-0.8671875 0,-0.5859375 0.5273437,-0.984375 1.3125,-0.984375 0.9257812,0 1.4414062,0.421875 1.453125,1.1835938 z m 4.983399,-1.7109375 v 4.1015625 c 0,0.78515621 -0.5625,1.26562496 -1.5,1.26562496 -0.433594,0 -0.785156,-0.10546875 -1.066406,-0.3046875 -0.292969,-0.22265625 -0.421875,-0.52734376 -0.421875,-0.96093746 v -4.1015625 h -0.75 v 4.1015625 c 0,1.18359371 0.84375,1.92187496 2.238281,1.92187496 1.359375,0 2.25,-0.75 2.25,-1.92187496 v -4.1015625 z m 3.18457,0 -1.886719,5.99999996 h 0.433594 l 1.898438,-5.99999996 z m 5.695313,1.8046875 c -0.234375,-1.2773438 -0.960938,-1.8984375 -2.25,-1.8984375 -0.785157,0 -1.417969,0.2460937 -1.851563,0.7265625 -0.527344,0.5742187 -0.808594,1.40625 -0.808594,2.3554687 0,0.9609375 0.292969,1.78125 0.832032,2.35546876 0.457031,0.45703125 1.042968,0.6796875 1.792968,0.6796875 1.429688,0 2.226563,-0.7734375 2.402344,-2.32031246 h -0.761719 c -0.07031,0.3984375 -0.140625,0.6796875 -0.269531,0.9140625 -0.234375,0.46874996 -0.738281,0.74999996 -1.359375,0.74999996 -1.160156,0 -1.898437,-0.93749996 -1.898437,-2.39062496 0,-1.5 0.703125,-2.4140625 1.839843,-2.4140625 0.46875,0 0.914063,0.140625 1.148438,0.3632812 0.222656,0.1992188 0.339844,0.4453125 0.421875,0.8789063 z m 5.24707,-0.09375 c 0,-0.3984375 -0.02344,-0.5039063 -0.152344,-0.7851563 -0.316406,-0.6679687 -0.996094,-1.0195312 -1.980469,-1.0195312 -1.289062,0 -2.074218,0.65625 -2.074218,1.7109375 0,0.7148437 0.375,1.1601562 1.136718,1.359375 l 1.453125,0.3867187 c 0.75,0.1875 1.078125,0.4921875 1.078125,0.9492188 0,0.3046875 -0.175781,0.63281246 -0.421875,0.80859371 -0.234375,0.1640625 -0.597656,0.24609375 -1.066406,0.24609375 -0.644531,0 -1.066406,-0.15234375 -1.347656,-0.4921875 C 26.05957,-1.2187934 25.96582,-1.5000434 25.977538,-1.8516059 h -0.703125 c 0,0.5273437 0.105469,0.87890621 0.339844,1.20703121 0.398438,0.55078125 1.078125,0.83203125 1.957031,0.83203125 0.703125,0 1.265625,-0.1640625 1.652344,-0.45703125 0.386719,-0.3046875 0.632813,-0.83203121 0.632813,-1.33593751 0,-0.7148437 -0.445313,-1.2421875 -1.242188,-1.4648437 l -1.464844,-0.3867188 c -0.703125,-0.1875 -0.960937,-0.421875 -0.960937,-0.8671875 0,-0.5859375 0.527344,-0.984375 1.3125,-0.984375 0.925781,0 1.441406,0.421875 1.453125,1.1835938 z m 4.983398,-1.7109375 v 4.1015625 c 0,0.78515621 -0.5625,1.26562496 -1.5,1.26562496 -0.433593,0 -0.785156,-0.10546875 -1.066406,-0.3046875 -0.292969,-0.22265625 -0.421875,-0.52734376 -0.421875,-0.96093746 v -4.1015625 h -0.75 v 4.1015625 c 0,1.18359371 0.84375,1.92187496 2.238281,1.92187496 1.359375,0 2.25,-0.75 2.25,-1.92187496 v -4.1015625 z m 0,0"
       style="fill:#ffffff;fill-opacity:1;fill-rule:nonzero;stroke:none"
       aria-label="DSU/CSU"
       transform="matrix(1.3333333,0,0,1.3333333,7.1328133,21.668027)"
       clip-path="url(#clipPath14)" />
  </g>
</svg>
