<?xml version="1.0" encoding="UTF-8" standalone="no"?>
<!-- Created with Inkscape (http://www.inkscape.org/) -->

<svg
   version="1.1"
   id="svg1"
   width="33.493332"
   height="44.226665"
   viewBox="0 0 33.493332 44.226665"
   sodipodi:docname="director-class fibre channel director.eps"
   xmlns:inkscape="http://www.inkscape.org/namespaces/inkscape"
   xmlns:sodipodi="http://sodipodi.sourceforge.net/DTD/sodipodi-0.dtd"
   xmlns="http://www.w3.org/2000/svg"
   xmlns:svg="http://www.w3.org/2000/svg">
  <defs
     id="defs1">
    <clipPath
       clipPathUnits="userSpaceOnUse"
       id="clipPath2">
      <path
         d="M 0,1 V 332 H 250 V 1 Z"
         id="path2" />
    </clipPath>
    <clipPath
       clipPathUnits="userSpaceOnUse"
       id="clipPath4">
      <path
         d="M 0,1 V 332 H 250 V 1 Z"
         id="path4" />
    </clipPath>
    <clipPath
       clipPathUnits="userSpaceOnUse"
       id="clipPath6">
      <path
         d="M 0,1 V 332 H 250 V 1 Z"
         id="path6" />
    </clipPath>
    <clipPath
       clipPathUnits="userSpaceOnUse"
       id="clipPath8">
      <path
         d="M 0,1 V 332 H 250 V 1 Z"
         id="path8" />
    </clipPath>
    <clipPath
       clipPathUnits="userSpaceOnUse"
       id="clipPath10">
      <path
         d="M 0,1 V 332 H 250 V 1 Z"
         id="path10" />
    </clipPath>
    <clipPath
       clipPathUnits="userSpaceOnUse"
       id="clipPath12">
      <path
         d="M 0,1 V 332 H 250 V 1 Z"
         id="path12" />
    </clipPath>
    <clipPath
       clipPathUnits="userSpaceOnUse"
       id="clipPath14">
      <path
         d="M 0,1 V 332 H 250 V 1 Z"
         id="path14" />
    </clipPath>
    <clipPath
       clipPathUnits="userSpaceOnUse"
       id="clipPath16">
      <path
         d="M 0,1 V 332 H 250 V 1 Z"
         id="path16" />
    </clipPath>
    <clipPath
       clipPathUnits="userSpaceOnUse"
       id="clipPath18">
      <path
         d="M 0,1 V 332 H 250 V 1 Z"
         id="path18" />
    </clipPath>
    <clipPath
       clipPathUnits="userSpaceOnUse"
       id="clipPath20">
      <path
         d="M 0,1 V 332 H 250 V 1 Z"
         id="path20" />
    </clipPath>
    <clipPath
       clipPathUnits="userSpaceOnUse"
       id="clipPath22">
      <path
         d="M 0,1 V 332 H 250 V 1 Z"
         id="path22" />
    </clipPath>
    <clipPath
       clipPathUnits="userSpaceOnUse"
       id="clipPath24">
      <path
         d="M 0,1 V 332 H 250 V 1 Z"
         id="path24" />
    </clipPath>
    <clipPath
       clipPathUnits="userSpaceOnUse"
       id="clipPath26">
      <path
         d="M 0,1 V 332 H 250 V 1 Z"
         id="path26" />
    </clipPath>
    <clipPath
       clipPathUnits="userSpaceOnUse"
       id="clipPath28">
      <path
         d="M 0,1 V 332 H 250 V 1 Z"
         id="path28" />
    </clipPath>
    <clipPath
       clipPathUnits="userSpaceOnUse"
       id="clipPath30">
      <path
         d="M 0,1 V 332 H 250 V 1 Z"
         id="path30" />
    </clipPath>
    <clipPath
       clipPathUnits="userSpaceOnUse"
       id="clipPath32">
      <path
         d="M 0,1 V 332 H 250 V 1 Z"
         id="path32" />
    </clipPath>
    <clipPath
       clipPathUnits="userSpaceOnUse"
       id="clipPath34">
      <path
         d="M 0,1 V 332 H 250 V 1 Z"
         id="path34" />
    </clipPath>
    <clipPath
       clipPathUnits="userSpaceOnUse"
       id="clipPath36">
      <path
         d="M 0,1 V 332 H 250 V 1 Z"
         id="path36" />
    </clipPath>
    <clipPath
       clipPathUnits="userSpaceOnUse"
       id="clipPath38">
      <path
         d="M 0,1 V 332 H 250 V 1 Z"
         id="path38" />
    </clipPath>
    <clipPath
       clipPathUnits="userSpaceOnUse"
       id="clipPath40">
      <path
         d="M 0,1 V 332 H 250 V 1 Z"
         id="path40" />
    </clipPath>
    <clipPath
       clipPathUnits="userSpaceOnUse"
       id="clipPath42">
      <path
         d="M 0,1 V 332 H 250 V 1 Z"
         id="path42" />
    </clipPath>
    <clipPath
       clipPathUnits="userSpaceOnUse"
       id="clipPath44">
      <path
         d="M 0,1 V 332 H 250 V 1 Z"
         id="path44" />
    </clipPath>
  </defs>
  <sodipodi:namedview
     id="namedview1"
     pagecolor="#505050"
     bordercolor="#eeeeee"
     borderopacity="1"
     inkscape:showpageshadow="0"
     inkscape:pageopacity="0"
     inkscape:pagecheckerboard="0"
     inkscape:deskcolor="#d1d1d1">
    <inkscape:page
       x="0"
       y="0"
       inkscape:label="1"
       id="page1"
       width="33.493332"
       height="44.226665"
       margin="0"
       bleed="0" />
  </sodipodi:namedview>
  <g
     id="g1"
     inkscape:groupmode="layer"
     inkscape:label="1">
    <path
       id="path1"
       d="M 246.234,327.012 205.16,288.02 H 5.96094 L 57.5625,327.012 H 246.234"
       style="fill:#087fbf;fill-opacity:1;fill-rule:nonzero;stroke:none"
       transform="matrix(0.13333333,0,0,-0.13333333,0,44.226667)"
       clip-path="url(#clipPath2)" />
    <path
       id="path3"
       d="M 246.234,327.012 205.16,288.02 H 5.96094 l 51.60156,38.992 z"
       style="fill:none;stroke:#ffffff;stroke-width:4;stroke-linecap:butt;stroke-linejoin:miter;stroke-miterlimit:4;stroke-dasharray:none;stroke-opacity:1"
       transform="matrix(0.13333333,0,0,-0.13333333,0,44.226667)"
       clip-path="url(#clipPath4)" />
    <path
       id="path5"
       d="m 5.96094,91.0078 h 199.199 v 197.012 H 5.96094 Z"
       style="fill:#087fbf;fill-opacity:1;fill-rule:nonzero;stroke:none"
       transform="matrix(0.13333333,0,0,-0.13333333,0,44.226667)"
       clip-path="url(#clipPath6)" />
    <path
       id="path7"
       d="m 5.96094,91.0078 h 199.199 v 197.012 H 5.96094 Z"
       style="fill:#087fbf;fill-opacity:1;fill-rule:nonzero;stroke:none"
       transform="matrix(0.13333333,0,0,-0.13333333,0,44.226667)"
       clip-path="url(#clipPath8)" />
    <path
       id="path9"
       d="M 205.16,91.0078 V 288.02 H 5.96094 V 91.0078 Z"
       style="fill:none;stroke:#ffffff;stroke-width:4;stroke-linecap:butt;stroke-linejoin:miter;stroke-miterlimit:4;stroke-dasharray:none;stroke-opacity:1"
       transform="matrix(0.13333333,0,0,-0.13333333,0,44.226667)"
       clip-path="url(#clipPath10)" />
    <path
       id="path11"
       d="M 205.16,91.0078 V 288.02 H 5.96094 V 91.0078 Z"
       style="fill:none;stroke:#ffffff;stroke-width:4;stroke-linecap:butt;stroke-linejoin:miter;stroke-miterlimit:4;stroke-dasharray:none;stroke-opacity:1"
       transform="matrix(0.13333333,0,0,-0.13333333,0,44.226667)"
       clip-path="url(#clipPath12)" />
    <path
       id="path13"
       d="m 5.96094,7.00391 h 199.199 v 86.0156 H 5.96094 Z"
       style="fill:#087fbf;fill-opacity:1;fill-rule:nonzero;stroke:none"
       transform="matrix(0.13333333,0,0,-0.13333333,0,44.226667)"
       clip-path="url(#clipPath14)" />
    <path
       id="path15"
       d="M 205.16,7.00391 V 93.0195 H 5.96094 V 7.00391 Z"
       style="fill:none;stroke:#ffffff;stroke-width:4;stroke-linecap:butt;stroke-linejoin:miter;stroke-miterlimit:4;stroke-dasharray:none;stroke-opacity:1"
       transform="matrix(0.13333333,0,0,-0.13333333,0,44.226667)"
       clip-path="url(#clipPath16)" />
    <path
       id="path17"
       d="M 242.164,128.02 V 325 L 203.969,288.02 V 91.0078 l 38.195,37.0122"
       style="fill:#087fbf;fill-opacity:1;fill-rule:nonzero;stroke:none"
       transform="matrix(0.13333333,0,0,-0.13333333,0,44.226667)"
       clip-path="url(#clipPath18)" />
    <path
       id="path19"
       d="M 242.164,128.02 V 325 L 203.969,288.02 V 91.0078 l 38.195,37.0122"
       style="fill:#087fbf;fill-opacity:1;fill-rule:nonzero;stroke:none"
       transform="matrix(0.13333333,0,0,-0.13333333,0,44.226667)"
       clip-path="url(#clipPath20)" />
    <path
       id="path21"
       d="M 242.164,128.02 V 325 L 203.969,288.02 V 91.0078 Z"
       style="fill:none;stroke:#ffffff;stroke-width:4;stroke-linecap:butt;stroke-linejoin:miter;stroke-miterlimit:4;stroke-dasharray:none;stroke-opacity:1"
       transform="matrix(0.13333333,0,0,-0.13333333,0,44.226667)"
       clip-path="url(#clipPath22)" />
    <path
       id="path23"
       d="M 242.164,128.02 V 325 L 203.969,288.02 V 91.0078 Z"
       style="fill:none;stroke:#ffffff;stroke-width:4;stroke-linecap:butt;stroke-linejoin:miter;stroke-miterlimit:4;stroke-dasharray:none;stroke-opacity:1"
       transform="matrix(0.13333333,0,0,-0.13333333,0,44.226667)"
       clip-path="url(#clipPath24)" />
    <path
       id="path25"
       d="M 242.164,44.0156 V 130.012 L 203.969,93.0195 V 7.00391 l 38.195,37.01169"
       style="fill:#087fbf;fill-opacity:1;fill-rule:nonzero;stroke:none"
       transform="matrix(0.13333333,0,0,-0.13333333,0,44.226667)"
       clip-path="url(#clipPath26)" />
    <path
       id="path27"
       d="M 242.164,44.0156 V 130.012 L 203.969,93.0195 V 7.00391 Z"
       style="fill:none;stroke:#ffffff;stroke-width:4;stroke-linecap:butt;stroke-linejoin:miter;stroke-miterlimit:4;stroke-dasharray:none;stroke-opacity:1"
       transform="matrix(0.13333333,0,0,-0.13333333,0,44.226667)"
       clip-path="url(#clipPath28)" />
    <path
       id="path29"
       d="M 76.7227,194.816 H 33.8516 v 11.075 L 17.6797,189.563 33.8516,173.254 v 11.055 h 42.8711 v 10.507"
       style="fill:#ffffff;fill-opacity:1;fill-rule:nonzero;stroke:none"
       transform="matrix(0.13333333,0,0,-0.13333333,0,44.226667)"
       clip-path="url(#clipPath30)" />
    <path
       id="path31"
       d="M 100.961,160.07 V 117.219 H 89.8867 l 16.3203,-16.192 16.328,16.192 h -11.066 v 42.851 h -10.508"
       style="fill:#ffffff;fill-opacity:1;fill-rule:nonzero;stroke:none"
       transform="matrix(0.13333333,0,0,-0.13333333,0,44.226667)"
       clip-path="url(#clipPath32)" />
    <path
       id="path33"
       d="m 100.961,217.824 v 42.852 H 89.8867 l 16.3203,16.191 16.328,-16.191 h -11.066 v -42.852 h -10.508"
       style="fill:#ffffff;fill-opacity:1;fill-rule:nonzero;stroke:none"
       transform="matrix(0.13333333,0,0,-0.13333333,0,44.226667)"
       clip-path="url(#clipPath34)" />
    <path
       id="path35"
       d="m 135.699,184.309 h 42.871 v -11.055 l 16.18,16.309 -16.18,16.328 v -11.075 h -42.871 v -10.507"
       style="fill:#ffffff;fill-opacity:1;fill-rule:nonzero;stroke:none"
       transform="matrix(0.13333333,0,0,-0.13333333,0,44.226667)"
       clip-path="url(#clipPath36)" />
    <path
       id="path37"
       d="m 175.18,120.734 c -8.047,-8.496 -45.02,14.864 -82.5472,52.168 -37.5508,37.301 -61.4453,74.414 -53.3984,82.911 8.0469,8.496 45.0195,-14.844 82.5586,-52.153 37.539,-37.301 61.434,-74.43 53.387,-82.926 z"
       style="fill:none;stroke:#ffffff;stroke-width:4;stroke-linecap:butt;stroke-linejoin:miter;stroke-miterlimit:4;stroke-dasharray:none;stroke-opacity:1"
       transform="matrix(0.13333333,0,0,-0.13333333,0,44.226667)"
       clip-path="url(#clipPath38)" />
    <path
       id="path39"
       d="m 173.043,256.457 c 8.496,-8.047 -14.863,-45.019 -52.16,-82.543 -37.3049,-37.555 -74.4221,-61.461 -82.9182,-53.418 -8.496,8.07 14.8516,45.024 52.1563,82.563 37.2969,37.539 74.4139,61.445 82.9219,53.398 z"
       style="fill:none;stroke:#ffffff;stroke-width:4;stroke-linecap:butt;stroke-linejoin:miter;stroke-miterlimit:4;stroke-dasharray:none;stroke-opacity:1"
       transform="matrix(0.13333333,0,0,-0.13333333,0,44.226667)"
       clip-path="url(#clipPath40)" />
    <path
       id="path41"
       d="M 6.09766,280.52 V 2.00391"
       style="fill:none;stroke:#ffffff;stroke-width:4;stroke-linecap:round;stroke-linejoin:round;stroke-miterlimit:4;stroke-dasharray:none;stroke-opacity:1"
       transform="matrix(0.13333333,0,0,-0.13333333,0,44.226667)"
       clip-path="url(#clipPath42)" />
    <path
       id="path43"
       d="m 123.793,164.66 c 14.16,9.903 17.598,29.414 7.687,43.574 -9.921,14.161 -29.425,17.594 -43.5855,7.676 -14.1601,-9.902 -17.5976,-29.414 -7.6757,-43.574 9.9023,-14.16 29.4142,-17.598 43.5742,-7.676"
       style="fill:#bfbebe;fill-opacity:1;fill-rule:nonzero;stroke:none"
       transform="matrix(0.13333333,0,0,-0.13333333,0,44.226667)"
       clip-path="url(#clipPath44)" />
  </g>
</svg>
