<?xml version="1.0" encoding="UTF-8" standalone="no"?>
<!-- Created with Inkscape (http://www.inkscape.org/) -->

<svg
   version="1.1"
   id="svg1"
   width="58.040001"
   height="42.119999"
   viewBox="0 0 58.040001 42.119999"
   sodipodi:docname="distributed director.eps"
   xmlns:inkscape="http://www.inkscape.org/namespaces/inkscape"
   xmlns:sodipodi="http://sodipodi.sourceforge.net/DTD/sodipodi-0.dtd"
   xmlns="http://www.w3.org/2000/svg"
   xmlns:svg="http://www.w3.org/2000/svg">
  <defs
     id="defs1" />
  <sodipodi:namedview
     id="namedview1"
     pagecolor="#505050"
     bordercolor="#eeeeee"
     borderopacity="1"
     inkscape:showpageshadow="0"
     inkscape:pageopacity="0"
     inkscape:pagecheckerboard="0"
     inkscape:deskcolor="#d1d1d1">
    <inkscape:page
       x="0"
       y="0"
       inkscape:label="1"
       id="page1"
       width="58.040001"
       height="42.119999"
       margin="0"
       bleed="0" />
  </sodipodi:namedview>
  <g
     id="g1"
     inkscape:groupmode="layer"
     inkscape:label="1">
    <path
       id="path1"
       d="m 5.65625,6.46484 h 381.484 v 250.637 H 5.65625 Z"
       style="fill:#087fbf;fill-opacity:1;fill-rule:nonzero;stroke:none"
       transform="matrix(0.13333333,0,0,-0.13333333,0,42.12)" />
    <path
       id="path2"
       d="M 5.65625,6.46484 H 387.141 V 257.102 H 5.65625 Z"
       style="fill:none;stroke:#ffffff;stroke-width:4;stroke-linecap:butt;stroke-linejoin:miter;stroke-miterlimit:4;stroke-dasharray:none;stroke-opacity:1"
       transform="matrix(0.13333333,0,0,-0.13333333,0,42.12)" />
    <path
       id="path3"
       d="M 431.023,70.6523 387.141,6.46484 V 257.102 l 43.882,53.211 V 70.6523"
       style="fill:#087fbf;fill-opacity:1;fill-rule:nonzero;stroke:none"
       transform="matrix(0.13333333,0,0,-0.13333333,0,42.12)" />
    <path
       id="path4"
       d="M 431.023,70.6523 387.141,6.46484 V 257.102 l 43.882,53.211 z"
       style="fill:none;stroke:#ffffff;stroke-width:4;stroke-linecap:butt;stroke-linejoin:miter;stroke-miterlimit:4;stroke-dasharray:none;stroke-opacity:1"
       transform="matrix(0.13333333,0,0,-0.13333333,0,42.12)" />
    <path
       id="path5"
       d="M 71.4844,310.313 H 431.023 L 387.141,257.102 H 5.65625 l 65.82815,53.211"
       style="fill:#087fbf;fill-opacity:1;fill-rule:nonzero;stroke:none"
       transform="matrix(0.13333333,0,0,-0.13333333,0,42.12)" />
    <path
       id="path6"
       d="M 71.4844,310.313 H 431.023 L 387.141,257.102 H 5.65625 Z"
       style="fill:none;stroke:#ffffff;stroke-width:4;stroke-linecap:butt;stroke-linejoin:miter;stroke-miterlimit:4;stroke-dasharray:none;stroke-opacity:1"
       transform="matrix(0.13333333,0,0,-0.13333333,0,42.12)" />
    <path
       id="path7"
       d="m 123.059,121.223 -63.8793,-0.051 v 10.144 l 63.8793,0.043 0.027,15.86 37.004,-20.942 -37.004,-20.933 -0.027,15.879"
       style="fill:#ffffff;fill-opacity:1;fill-rule:nonzero;stroke:none"
       transform="matrix(0.13333333,0,0,-0.13333333,0,42.12)" />
    <path
       id="path8"
       d="m 255.969,121.223 -63.891,-0.051 v 10.144 l 63.891,0.043 0.015,15.86 37.004,-20.942 -37.004,-20.933 -0.015,15.879"
       style="fill:#ffffff;fill-opacity:1;fill-rule:nonzero;stroke:none"
       transform="matrix(0.13333333,0,0,-0.13333333,0,42.12)" />
    <path
       id="path9"
       d="m 244.941,172.395 -53.554,-34.829 -5.528,8.52 53.555,34.82 -8.613,13.313 42.429,2.59 -19.617,-37.715 -8.672,13.301"
       style="fill:#ffffff;fill-opacity:1;fill-rule:nonzero;stroke:none"
       transform="matrix(0.13333333,0,0,-0.13333333,0,42.12)" />
    <path
       id="path10"
       d="m 244.941,80.7891 -53.554,34.8479 -5.528,-8.528 53.555,-34.8238 -8.613,-13.3086 42.429,-2.5899 -19.617,37.7149 -8.672,-13.3125"
       style="fill:#ffffff;fill-opacity:1;fill-rule:nonzero;stroke:none"
       transform="matrix(0.13333333,0,0,-0.13333333,0,42.12)" />
    <path
       id="path11"
       d="M 141.953,208.859 C 80.3906,221.145 47.9023,189.617 53.0352,162.371 l 0.414,-1.48 C 5.48047,152.727 18.0469,96.1055 41.0664,96.1055 l 2.2656,0.0781 C 37.5313,69.5781 93.5938,42.5117 124.855,56.0234 l 2.008,2.211 c 11.145,-23.9258 50.742,-27.9297 89.907,-28.9258 33.933,-0.8633 53.738,1.8125 68.289,16.6992 l 2.246,-0.664 c 54.316,-4.3672 79.05,33.1523 67.175,60.0972 l 2.93,0.821 c 18.52,4.898 20.656,47.644 -11.109,53.965 l 0.601,1.66 c 13.801,27.808 -18.726,54.043 -63.875,49.109 l -3.132,1.633 c -32.305,29.258 -125.317,24.492 -136.086,-4.453 z"
       style="fill:none;stroke:#ffffff;stroke-width:4;stroke-linecap:butt;stroke-linejoin:miter;stroke-miterlimit:4;stroke-dasharray:none;stroke-opacity:1"
       transform="matrix(0.13333333,0,0,-0.13333333,0,42.12)" />
  </g>
</svg>
