<?xml version="1.0" encoding="UTF-8" standalone="no"?>
<!-- Created with Inkscape (http://www.inkscape.org/) -->

<svg
   version="1.1"
   id="svg1"
   width="23.559999"
   height="2.72"
   viewBox="0 0 23.559999 2.72"
   sodipodi:docname="dot-dot.eps"
   xmlns:inkscape="http://www.inkscape.org/namespaces/inkscape"
   xmlns:sodipodi="http://sodipodi.sourceforge.net/DTD/sodipodi-0.dtd"
   xmlns="http://www.w3.org/2000/svg"
   xmlns:svg="http://www.w3.org/2000/svg">
  <defs
     id="defs1" />
  <sodipodi:namedview
     id="namedview1"
     pagecolor="#505050"
     bordercolor="#eeeeee"
     borderopacity="1"
     inkscape:showpageshadow="0"
     inkscape:pageopacity="0"
     inkscape:pagecheckerboard="0"
     inkscape:deskcolor="#d1d1d1">
    <inkscape:page
       x="0"
       y="0"
       inkscape:label="1"
       id="page1"
       width="23.559999"
       height="2.72"
       margin="0"
       bleed="0" />
  </sodipodi:namedview>
  <g
     id="g1"
     inkscape:groupmode="layer"
     inkscape:label="1">
    <path
       id="path1"
       d="M 10.1758,0 C 4.54297,0 0,4.47266 0,10.1758 0,15.8164 4.47266,20.418 10.1758,20.418 15.8086,20.418 20.418,15.8164 20.418,10.1758 20.418,4.53516 15.8086,0 10.1758,0"
       style="fill:#02709f;fill-opacity:1;fill-rule:nonzero;stroke:none"
       transform="matrix(0.13333333,0,0,-0.13333333,0,2.72)" />
    <path
       id="path2"
       d="m 61.2969,0 c -5.6406,0 -10.1758,4.47266 -10.1758,10.1758 0,5.6406 4.4727,10.2422 10.1758,10.2422 5.6367,0 10.2344,-4.6016 10.2344,-10.2422 C 71.5313,4.53516 66.9336,0 61.2969,0"
       style="fill:#02709f;fill-opacity:1;fill-rule:nonzero;stroke:none"
       transform="matrix(0.13333333,0,0,-0.13333333,0,2.72)" />
    <path
       id="path3"
       d="m 112.41,0 c -5.633,0 -10.176,4.47266 -10.176,10.1758 0,5.6406 4.477,10.2422 10.176,10.2422 5.649,0 10.254,-4.6016 10.254,-10.2422 C 122.664,4.53516 118.059,0 112.41,0"
       style="fill:#02709f;fill-opacity:1;fill-rule:nonzero;stroke:none"
       transform="matrix(0.13333333,0,0,-0.13333333,0,2.72)" />
    <path
       id="path4"
       d="m 166.414,0 c -5.633,0 -10.176,4.47266 -10.176,10.1758 0,5.6406 4.477,10.2422 10.176,10.2422 5.649,0 10.246,-4.6016 10.246,-10.2422 C 176.66,4.53516 172.063,0 166.414,0"
       style="fill:#02709f;fill-opacity:1;fill-rule:nonzero;stroke:none"
       transform="matrix(0.13333333,0,0,-0.13333333,0,2.72)" />
  </g>
</svg>
