<?xml version="1.0" encoding="UTF-8" standalone="no"?>
<!-- Created with Inkscape (http://www.inkscape.org/) -->

<svg
   version="1.1"
   id="svg1"
   width="63.786667"
   height="32.066666"
   viewBox="0 0 63.786667 32.066666"
   sodipodi:docname="dpt.eps"
   xmlns:inkscape="http://www.inkscape.org/namespaces/inkscape"
   xmlns:sodipodi="http://sodipodi.sourceforge.net/DTD/sodipodi-0.dtd"
   xmlns="http://www.w3.org/2000/svg"
   xmlns:svg="http://www.w3.org/2000/svg">
  <defs
     id="defs1" />
  <sodipodi:namedview
     id="namedview1"
     pagecolor="#505050"
     bordercolor="#eeeeee"
     borderopacity="1"
     inkscape:showpageshadow="0"
     inkscape:pageopacity="0"
     inkscape:pagecheckerboard="0"
     inkscape:deskcolor="#d1d1d1">
    <inkscape:page
       x="0"
       y="0"
       inkscape:label="1"
       id="page1"
       width="63.786667"
       height="32.066666"
       margin="0"
       bleed="0" />
  </sodipodi:namedview>
  <g
     id="g1"
     inkscape:groupmode="layer"
     inkscape:label="1">
    <path
       id="path1"
       d="m 239.188,28.0625 c 111.984,0 202.765,41.2578 202.765,92.1565 0,50.898 -90.781,92.168 -202.765,92.168 -111.981,0 -202.7622,-41.27 -202.7622,-92.168 0,-50.8987 90.7812,-92.1565 202.7622,-92.1565 z"
       style="fill:none;stroke:#91c2e3;stroke-width:15;stroke-linecap:butt;stroke-linejoin:miter;stroke-miterlimit:4;stroke-dasharray:none;stroke-opacity:1"
       transform="matrix(0.13333333,0,0,-0.13333333,0,32.066667)" />
    <path
       id="path2"
       d="m 239.188,7.46094 c 128.046,0 231.859,50.48436 231.859,112.75806 0,62.277 -103.813,112.765 -231.859,112.765 C 111.145,232.984 7.34375,182.496 7.34375,120.219 7.34375,57.9453 111.145,7.46094 239.188,7.46094 Z"
       style="fill:none;stroke:#087fbf;stroke-width:15;stroke-linecap:butt;stroke-linejoin:miter;stroke-miterlimit:4;stroke-dasharray:none;stroke-opacity:1"
       transform="matrix(0.13333333,0,0,-0.13333333,0,32.066667)" />
    <path
       id="path3"
       d="M 0.62010781,-5.903125e-4 H 2.8935453 c 0.890625,0 1.453125,-0.2109374975 1.8515625,-0.6796874975 0.4570313,-0.53906249 0.703125,-1.32421879 0.703125,-2.23828129 0,-0.9023437 -0.2460937,-1.6875 -0.703125,-2.25 -0.3984375,-0.46875 -0.9492187,-0.6679687 -1.8515625,-0.6679687 H 0.62010781 Z M 1.8154203,-0.99668406 V -4.8404341 h 1.078125 c 0.9023438,0 1.359375,0.6328125 1.359375,1.921875 0,1.2890625 -0.4570312,1.92187504 -1.359375,1.92187504 z m 5.765625,-1.08984374 h 1.5 c 1.0781247,0 1.7578127,-0.75 1.7578127,-1.9453125 0,-1.1601563 -0.65625,-1.8046875 -1.8750002,-1.8046875 h -2.578125 v 5.8359374875 h 1.1953125 z m 0,-0.9960938 v -1.7578125 h 1.125 c 0.6445313,0 0.9375,0.28125 0.9375,0.8789063 0,0.5976562 -0.2929687,0.8789062 -0.9375,0.8789062 z M 14.19335,-4.8404341 h 1.699219 v -0.9960937 h -4.664063 v 0.9960937 h 1.769532 v 4.8398437875 h 1.195312 z m 0,0"
       style="fill:#231f20;fill-opacity:1;fill-rule:nonzero;stroke:none"
       aria-label="DPT"
       transform="matrix(1.3333333,0,0,1.3333333,21.700533,19.754693)" />
  </g>
</svg>
