<?xml version="1.0" encoding="UTF-8" standalone="no"?>
<!-- Created with Inkscape (http://www.inkscape.org/) -->

<svg
   version="1.1"
   id="svg1"
   width="49.173332"
   height="34.773335"
   viewBox="0 0 49.173332 34.773335"
   sodipodi:docname="dual mode ap.eps"
   xmlns:inkscape="http://www.inkscape.org/namespaces/inkscape"
   xmlns:sodipodi="http://sodipodi.sourceforge.net/DTD/sodipodi-0.dtd"
   xmlns="http://www.w3.org/2000/svg"
   xmlns:svg="http://www.w3.org/2000/svg">
  <defs
     id="defs1" />
  <sodipodi:namedview
     id="namedview1"
     pagecolor="#505050"
     bordercolor="#eeeeee"
     borderopacity="1"
     inkscape:showpageshadow="0"
     inkscape:pageopacity="0"
     inkscape:pagecheckerboard="0"
     inkscape:deskcolor="#d1d1d1">
    <inkscape:page
       x="0"
       y="0"
       inkscape:label="1"
       id="page1"
       width="49.173332"
       height="34.773335"
       margin="0"
       bleed="0" />
  </sodipodi:namedview>
  <g
     id="g1"
     inkscape:groupmode="layer"
     inkscape:label="1">
    <path
       id="path1"
       d="m 284.133,52.9961 c 0,0 -19.57,-50.3086 -43.11,0.1406 -23.496,50.4293 -43.101,0.1172 -43.101,0.1172 0,0 -19.559,-50.35156 -43.063,0.0977 -23.496,50.4254 -43,-0.3164 -43,-0.3164 0,0 -19.5192,-50.3477 -43.0348,0.1015 -23.5156,50.4293 -43.0078,0.1524 -43.0078,0.1524"
       style="fill:none;stroke:#ffffff;stroke-width:4.49997;stroke-linecap:round;stroke-linejoin:miter;stroke-miterlimit:1;stroke-dasharray:none;stroke-opacity:1"
       transform="matrix(0.13333333,0,0,-0.13333333,0,34.773333)" />
    <path
       id="path2"
       d="m 25.8164,52.9961 c 0,0 19.5703,-50.3086 43.0859,0.1406 23.5157,50.4293 43.1137,0.1172 43.1137,0.1172 0,0 19.562,-50.35156 43.058,0.0977 23.504,50.4254 43,-0.3164 43,-0.3164 0,0 19.516,-50.3477 43.047,0.1015 23.496,50.4293 43.012,0.1524 43.012,0.1524"
       style="fill:none;stroke:#ffffff;stroke-width:8.99994;stroke-linecap:round;stroke-linejoin:miter;stroke-miterlimit:1;stroke-dasharray:none;stroke-opacity:1"
       transform="matrix(0.13333333,0,0,-0.13333333,0,34.773333)" />
    <path
       id="path3"
       d="m 288.66,52.9961 c 0,0 -19.566,-50.3086 -43.101,0.1406 -23.496,50.4293 -43.11,0.1172 -43.11,0.1172 0,0 -19.551,-50.35156 -43.058,0.0977 -23.496,50.4254 -43,-0.3164 -43,-0.3164 0,0 -19.5199,-50.3477 -43.0355,0.1015 -23.5157,50.4293 -43.0078,0.1367 -43.0078,0.1367"
       style="fill:none;stroke:#000000;stroke-width:4.49997;stroke-linecap:round;stroke-linejoin:miter;stroke-miterlimit:1;stroke-dasharray:none;stroke-opacity:1"
       transform="matrix(0.13333333,0,0,-0.13333333,0,34.773333)" />
    <path
       id="path4"
       d="m 30.3477,52.9961 c 0,0 19.5703,-50.3086 43.0859,0.1406 23.5156,50.4293 43.1134,0.1172 43.1134,0.1172 0,0 19.562,-50.35156 43.058,0.0977 23.508,50.4254 43,-0.3164 43,-0.3164 0,0 19.512,-50.3477 43.047,0.1015 23.496,50.4293 43.008,0.1367 43.008,0.1367"
       style="fill:none;stroke:#000000;stroke-width:8.99994;stroke-linecap:round;stroke-linejoin:miter;stroke-miterlimit:1;stroke-dasharray:none;stroke-opacity:1"
       transform="matrix(0.13333333,0,0,-0.13333333,0,34.773333)" />
    <path
       id="path5"
       d="m 284.133,52.9961 c 0,0 -19.57,-50.3086 -43.11,0.1406 -23.496,50.4293 -43.101,0.1172 -43.101,0.1172 0,0 -19.559,-50.35156 -43.063,0.0977 -23.496,50.4254 -43,-0.3164 -43,-0.3164 0,0 -19.5192,-50.3477 -43.0348,0.1015 -23.5156,50.4293 -43.0078,0.1524 -43.0078,0.1524"
       style="fill:none;stroke:#ffffff;stroke-width:4.49997;stroke-linecap:round;stroke-linejoin:miter;stroke-miterlimit:1;stroke-dasharray:none;stroke-opacity:1"
       transform="matrix(0.13333333,0,0,-0.13333333,0,34.773333)" />
    <path
       id="path6"
       d="m 25.8164,52.9961 c 0,0 19.5703,-50.3086 43.0859,0.1406 23.5157,50.4293 43.1137,0.1172 43.1137,0.1172 0,0 19.562,-50.35156 43.058,0.0977 23.504,50.4254 43,-0.3164 43,-0.3164 0,0 19.516,-50.3477 43.047,0.1015 23.496,50.4293 43.012,0.1524 43.012,0.1524"
       style="fill:none;stroke:#ffffff;stroke-width:8.99994;stroke-linecap:round;stroke-linejoin:miter;stroke-miterlimit:1;stroke-dasharray:none;stroke-opacity:1"
       transform="matrix(0.13333333,0,0,-0.13333333,0,34.773333)" />
    <path
       id="path7"
       d="M 6.07031,199.277 83.0039,256.145 H 364.055 L 308.113,199.277 H 6.07031"
       style="fill:#02709f;fill-opacity:1;fill-rule:nonzero;stroke:none"
       transform="matrix(0.13333333,0,0,-0.13333333,0,34.773333)" />
    <path
       id="path8"
       d="M 6.07031,199.277 83.0039,256.145 H 364.055 l -55.942,-56.868 z"
       style="fill:none;stroke:#ffffff;stroke-width:3.99994;stroke-linecap:butt;stroke-linejoin:miter;stroke-miterlimit:4;stroke-dasharray:none;stroke-opacity:1"
       transform="matrix(0.13333333,0,0,-0.13333333,0,34.773333)" />
    <path
       id="path9"
       d="M 308.113,4.87109 364.055,61.5313 V 255.969 L 308.113,199.277 V 4.87109"
       style="fill:#02709f;fill-opacity:1;fill-rule:nonzero;stroke:none"
       transform="matrix(0.13333333,0,0,-0.13333333,0,34.773333)" />
    <path
       id="path10"
       d="M 308.113,4.87109 364.055,61.5313 V 255.969 l -55.942,-56.692 z"
       style="fill:none;stroke:#ffffff;stroke-width:3.99994;stroke-linecap:butt;stroke-linejoin:miter;stroke-miterlimit:4;stroke-dasharray:none;stroke-opacity:1"
       transform="matrix(0.13333333,0,0,-0.13333333,0,34.773333)" />
    <path
       id="path11"
       d="m 6.48828,4.77734 h 301.625 v 194.5 H 6.48828 Z"
       style="fill:#02709f;fill-opacity:1;fill-rule:nonzero;stroke:none"
       transform="matrix(0.13333333,0,0,-0.13333333,0,34.773333)" />
    <path
       id="path12"
       d="M 308.113,4.77734 V 199.277 H 6.48828 V 4.77734 Z"
       style="fill:none;stroke:#ffffff;stroke-width:3.99994;stroke-linecap:butt;stroke-linejoin:miter;stroke-miterlimit:4;stroke-dasharray:none;stroke-opacity:1"
       transform="matrix(0.13333333,0,0,-0.13333333,0,34.773333)" />
    <path
       id="path13"
       d="m 284.133,149.563 c 0,0 -19.57,-50.3169 -43.11,0.156 -23.496,50.418 -43.101,0.097 -43.101,0.097 0,0 -19.559,-50.3512 -43.063,0.094 -23.496,50.442 -43,-0.308 -43,-0.308 0,0 -19.5192,-50.3559 -43.0348,0.117 -23.5156,50.418 -43.0078,0.136 -43.0078,0.136"
       style="fill:none;stroke:#ffffff;stroke-width:4.49997;stroke-linecap:round;stroke-linejoin:miter;stroke-miterlimit:1;stroke-dasharray:none;stroke-opacity:1"
       transform="matrix(0.13333333,0,0,-0.13333333,0,34.773333)" />
    <path
       id="path14"
       d="m 25.8164,149.563 c 0,0 19.5703,-50.3169 43.0859,0.156 23.5157,50.418 43.1137,0.097 43.1137,0.097 0,0 19.562,-50.3512 43.058,0.094 23.504,50.442 43,-0.308 43,-0.308 0,0 19.516,-50.3559 43.047,0.117 23.496,50.418 43.012,0.136 43.012,0.136"
       style="fill:none;stroke:#ffffff;stroke-width:8.99994;stroke-linecap:round;stroke-linejoin:miter;stroke-miterlimit:1;stroke-dasharray:none;stroke-opacity:1"
       transform="matrix(0.13333333,0,0,-0.13333333,0,34.773333)" />
    <path
       id="path15"
       d="m 288.66,149.563 c 0,0 -19.566,-50.3169 -43.101,0.156 -23.496,50.418 -43.11,0.097 -43.11,0.097 0,0 -19.551,-50.3512 -43.058,0.094 -23.496,50.442 -43,-0.308 -43,-0.308 0,0 -19.5199,-50.3559 -43.0355,0.117 -23.5157,50.418 -43.0078,0.136 -43.0078,0.136"
       style="fill:none;stroke:#000000;stroke-width:4.49997;stroke-linecap:round;stroke-linejoin:miter;stroke-miterlimit:1;stroke-dasharray:none;stroke-opacity:1"
       transform="matrix(0.13333333,0,0,-0.13333333,0,34.773333)" />
    <path
       id="path16"
       d="m 30.3477,149.563 c 0,0 19.5703,-50.3169 43.0859,0.156 23.5156,50.418 43.1134,0.097 43.1134,0.097 0,0 19.562,-50.3512 43.058,0.094 23.508,50.442 43,-0.308 43,-0.308 0,0 19.512,-50.3559 43.047,0.117 23.496,50.418 43.008,0.136 43.008,0.136"
       style="fill:none;stroke:#000000;stroke-width:8.99994;stroke-linecap:round;stroke-linejoin:miter;stroke-miterlimit:1;stroke-dasharray:none;stroke-opacity:1"
       transform="matrix(0.13333333,0,0,-0.13333333,0,34.773333)" />
    <path
       id="path17"
       d="m 284.133,149.563 c 0,0 -19.57,-50.3169 -43.11,0.156 -23.496,50.418 -43.101,0.097 -43.101,0.097 0,0 -19.559,-50.3512 -43.063,0.094 -23.496,50.442 -43,-0.308 -43,-0.308 0,0 -19.5192,-50.3559 -43.0348,0.117 -23.5156,50.418 -43.0078,0.136 -43.0078,0.136"
       style="fill:none;stroke:#ffffff;stroke-width:4.49997;stroke-linecap:round;stroke-linejoin:miter;stroke-miterlimit:1;stroke-dasharray:none;stroke-opacity:1"
       transform="matrix(0.13333333,0,0,-0.13333333,0,34.773333)" />
    <path
       id="path18"
       d="m 25.8164,149.563 c 0,0 19.5703,-50.3169 43.0859,0.156 23.5157,50.418 43.1137,0.097 43.1137,0.097 0,0 19.562,-50.3512 43.058,0.094 23.504,50.442 43,-0.308 43,-0.308 0,0 19.516,-50.3559 43.047,0.117 23.496,50.418 43.012,0.136 43.012,0.136"
       style="fill:none;stroke:#ffffff;stroke-width:8.99994;stroke-linecap:round;stroke-linejoin:miter;stroke-miterlimit:1;stroke-dasharray:none;stroke-opacity:1"
       transform="matrix(0.13333333,0,0,-0.13333333,0,34.773333)" />
    <path
       id="path19"
       d="m 288.66,149.563 c 0,0 -19.566,-50.3169 -43.101,0.156 -23.496,50.418 -43.11,0.097 -43.11,0.097 0,0 -19.551,-50.3512 -43.058,0.094 -23.496,50.442 -43,-0.308 -43,-0.308 0,0 -19.5199,-50.3559 -43.0355,0.117 -23.5157,50.418 -43.0078,0.136 -43.0078,0.136"
       style="fill:none;stroke:#000000;stroke-width:4.49997;stroke-linecap:round;stroke-linejoin:miter;stroke-miterlimit:1;stroke-dasharray:none;stroke-opacity:1"
       transform="matrix(0.13333333,0,0,-0.13333333,0,34.773333)" />
    <path
       id="path20"
       d="m 30.3477,149.563 c 0,0 19.5703,-50.3169 43.0859,0.156 23.5156,50.418 43.1134,0.097 43.1134,0.097 0,0 19.562,-50.3512 43.058,0.094 23.508,50.442 43,-0.308 43,-0.308 0,0 19.512,-50.3559 43.047,0.117 23.496,50.418 43.008,0.136 43.008,0.136"
       style="fill:none;stroke:#000000;stroke-width:8.99994;stroke-linecap:round;stroke-linejoin:miter;stroke-miterlimit:1;stroke-dasharray:none;stroke-opacity:1"
       transform="matrix(0.13333333,0,0,-0.13333333,0,34.773333)" />
    <path
       id="path21"
       d="m 284.133,149.563 c 0,0 -19.57,-50.3169 -43.11,0.156 -23.496,50.418 -43.101,0.097 -43.101,0.097 0,0 -19.559,-50.3512 -43.063,0.094 -23.496,50.442 -43,-0.308 -43,-0.308 0,0 -19.5192,-50.3559 -43.0348,0.117 -23.5156,50.418 -43.0078,0.136 -43.0078,0.136"
       style="fill:none;stroke:#ffffff;stroke-width:4.49997;stroke-linecap:round;stroke-linejoin:miter;stroke-miterlimit:1;stroke-dasharray:none;stroke-opacity:1"
       transform="matrix(0.13333333,0,0,-0.13333333,0,34.773333)" />
    <path
       id="path22"
       d="m 25.8164,149.563 c 0,0 19.5703,-50.3169 43.0859,0.156 23.5157,50.418 43.1137,0.097 43.1137,0.097 0,0 19.562,-50.3512 43.058,0.094 23.504,50.442 43,-0.308 43,-0.308 0,0 19.516,-50.3559 43.047,0.117 23.496,50.418 43.012,0.136 43.012,0.136"
       style="fill:none;stroke:#ffffff;stroke-width:8.99994;stroke-linecap:round;stroke-linejoin:miter;stroke-miterlimit:1;stroke-dasharray:none;stroke-opacity:1"
       transform="matrix(0.13333333,0,0,-0.13333333,0,34.773333)" />
    <path
       id="path23"
       d="m 288.66,52.9961 c 0,0 -19.566,-50.3086 -43.101,0.1406 -23.496,50.4293 -43.11,0.1172 -43.11,0.1172 0,0 -19.551,-50.35156 -43.058,0.0977 -23.496,50.4254 -43,-0.3164 -43,-0.3164 0,0 -19.5199,-50.3477 -43.0355,0.1015 -23.5157,50.4293 -43.0078,0.1367 -43.0078,0.1367"
       style="fill:none;stroke:#000000;stroke-width:4.49997;stroke-linecap:round;stroke-linejoin:miter;stroke-miterlimit:1;stroke-dasharray:none;stroke-opacity:1"
       transform="matrix(0.13333333,0,0,-0.13333333,0,34.773333)" />
    <path
       id="path24"
       d="m 30.3477,52.9961 c 0,0 19.5703,-50.3086 43.0859,0.1406 23.5156,50.4293 43.1134,0.1172 43.1134,0.1172 0,0 19.562,-50.35156 43.058,0.0977 23.508,50.4254 43,-0.3164 43,-0.3164 0,0 19.512,-50.3477 43.047,0.1015 23.496,50.4293 43.008,0.1367 43.008,0.1367"
       style="fill:none;stroke:#000000;stroke-width:8.99994;stroke-linecap:round;stroke-linejoin:miter;stroke-miterlimit:1;stroke-dasharray:none;stroke-opacity:1"
       transform="matrix(0.13333333,0,0,-0.13333333,0,34.773333)" />
    <path
       id="path25"
       d="m 284.133,52.9961 c 0,0 -19.57,-50.3086 -43.11,0.1406 -23.496,50.4293 -43.101,0.1172 -43.101,0.1172 0,0 -19.559,-50.35156 -43.063,0.0977 -23.496,50.4254 -43,-0.3164 -43,-0.3164 0,0 -19.5192,-50.3477 -43.0348,0.1015 -23.5156,50.4293 -43.0078,0.1524 -43.0078,0.1524"
       style="fill:none;stroke:#ffffff;stroke-width:4.49997;stroke-linecap:round;stroke-linejoin:miter;stroke-miterlimit:1;stroke-dasharray:none;stroke-opacity:1"
       transform="matrix(0.13333333,0,0,-0.13333333,0,34.773333)" />
    <path
       id="path26"
       d="m 25.8164,52.9961 c 0,0 19.5703,-50.3086 43.0859,0.1406 23.5157,50.4293 43.1137,0.1172 43.1137,0.1172 0,0 19.562,-50.35156 43.058,0.0977 23.504,50.4254 43,-0.3164 43,-0.3164 0,0 19.516,-50.3477 43.047,0.1015 23.496,50.4293 43.012,0.1524 43.012,0.1524"
       style="fill:none;stroke:#ffffff;stroke-width:8.99994;stroke-linecap:round;stroke-linejoin:miter;stroke-miterlimit:1;stroke-dasharray:none;stroke-opacity:1"
       transform="matrix(0.13333333,0,0,-0.13333333,0,34.773333)" />
  </g>
</svg>
