<?xml version="1.0" encoding="UTF-8" standalone="no"?>
<!-- Created with Inkscape (http://www.inkscape.org/) -->

<svg
   version="1.1"
   id="svg1"
   width="50.826668"
   height="36.48"
   viewBox="0 0 50.826668 36.48"
   sodipodi:docname="gatekeeper.eps"
   xmlns:inkscape="http://www.inkscape.org/namespaces/inkscape"
   xmlns:sodipodi="http://sodipodi.sourceforge.net/DTD/sodipodi-0.dtd"
   xmlns="http://www.w3.org/2000/svg"
   xmlns:svg="http://www.w3.org/2000/svg">
  <defs
     id="defs1" />
  <sodipodi:namedview
     id="namedview1"
     pagecolor="#505050"
     bordercolor="#eeeeee"
     borderopacity="1"
     inkscape:showpageshadow="0"
     inkscape:pageopacity="0"
     inkscape:pagecheckerboard="0"
     inkscape:deskcolor="#d1d1d1">
    <inkscape:page
       x="0"
       y="0"
       inkscape:label="1"
       id="page1"
       width="50.826668"
       height="36.48"
       margin="0"
       bleed="0" />
  </sodipodi:namedview>
  <g
     id="g1"
     inkscape:groupmode="layer"
     inkscape:label="1">
    <path
       id="path1"
       d="M 132.641,246.391 C 66.293,259.641 31.293,225.656 36.8203,196.277 l 0.4492,-1.597 C -14.4453,185.875 -0.894531,124.855 23.9102,124.855 l 2.4414,0.079 C 20.1133,96.2617 80.5117,67.0703 114.203,81.6563 l 2.168,2.375 c 12.012,-25.793 54.699,-30.1016 96.906,-31.1797 36.582,-0.9375 57.93,1.9648 73.621,17.9922 l 2.415,-0.7071 c 58.554,-4.7109 85.222,35.7383 72.421,64.7773 l 3.145,0.883 c 19.961,5.277 22.266,51.363 -11.973,58.18 l 0.645,1.777 c 14.871,29.984 -20.188,58.25 -68.84,52.945 l -3.379,1.758 C 246.5,281.992 146.246,276.852 134.645,245.66 l -2.004,0.731"
       style="fill:#ffffff;fill-opacity:1;fill-rule:nonzero;stroke:none"
       transform="matrix(0.13333333,0,0,-0.13333333,0,36.48)" />
    <path
       id="path2"
       d="M 132.641,246.391 C 66.293,259.641 31.293,225.656 36.8203,196.277 l 0.4492,-1.597 C -14.4453,185.875 -0.894531,124.855 23.9102,124.855 l 2.4414,0.079 C 20.1133,96.2617 80.5117,67.0703 114.203,81.6563 l 2.168,2.375 c 12.012,-25.793 54.699,-30.1016 96.906,-31.1797 36.582,-0.9375 57.93,1.9648 73.621,17.9922 l 2.415,-0.7071 c 58.554,-4.7109 85.222,35.7383 72.421,64.7773 l 3.145,0.883 c 19.961,5.277 22.266,51.363 -11.973,58.18 l 0.645,1.777 c 14.871,29.984 -20.188,58.25 -68.84,52.945 l -3.379,1.758 C 246.5,281.992 146.246,276.852 134.645,245.66 Z"
       style="fill:none;stroke:#026c9b;stroke-width:4;stroke-linecap:butt;stroke-linejoin:miter;stroke-miterlimit:4;stroke-dasharray:none;stroke-opacity:1"
       transform="matrix(0.13333333,0,0,-0.13333333,0,36.48)" />
    <path
       id="path3"
       d="M 160.953,198.168 V 29.0195 H 322.008 V 199.875 Z"
       style="fill:none;stroke:#026c9b;stroke-width:20;stroke-linecap:butt;stroke-linejoin:miter;stroke-miterlimit:4;stroke-dasharray:none;stroke-opacity:1"
       transform="matrix(0.13333333,0,0,-0.13333333,0,36.48)" />
    <path
       id="path4"
       d="M 160.953,198.168 322.008,29.0195"
       style="fill:none;stroke:#026c9b;stroke-width:20;stroke-linecap:butt;stroke-linejoin:miter;stroke-miterlimit:4;stroke-dasharray:none;stroke-opacity:1"
       transform="matrix(0.13333333,0,0,-0.13333333,0,36.48)" />
    <path
       id="path5"
       d="M 160.953,29.0195 322.008,199.875"
       style="fill:none;stroke:#026c9b;stroke-width:20;stroke-linecap:butt;stroke-linejoin:miter;stroke-miterlimit:4;stroke-dasharray:none;stroke-opacity:1"
       transform="matrix(0.13333333,0,0,-0.13333333,0,36.48)" />
    <path
       id="path6"
       d="m 187.738,174 v 52.75 H 135.961 V 174 h 51.777"
       style="fill:#ffffff;fill-opacity:1;fill-rule:nonzero;stroke:none"
       transform="matrix(0.13333333,0,0,-0.13333333,0,36.48)" />
    <path
       id="path7"
       d="m 187.738,174 v 52.75 H 135.961 V 174 Z"
       style="fill:none;stroke:#026c9b;stroke-width:4;stroke-linecap:butt;stroke-linejoin:miter;stroke-miterlimit:4;stroke-dasharray:none;stroke-opacity:1"
       transform="matrix(0.13333333,0,0,-0.13333333,0,36.48)" />
    <path
       id="path8"
       d="m 347.738,174 v 52.75 H 295.961 V 174 h 51.777"
       style="fill:#ffffff;fill-opacity:1;fill-rule:nonzero;stroke:none"
       transform="matrix(0.13333333,0,0,-0.13333333,0,36.48)" />
    <path
       id="path9"
       d="m 347.738,174 v 52.75 H 295.961 V 174 Z"
       style="fill:none;stroke:#026c9b;stroke-width:4;stroke-linecap:butt;stroke-linejoin:miter;stroke-miterlimit:4;stroke-dasharray:none;stroke-opacity:1"
       transform="matrix(0.13333333,0,0,-0.13333333,0,36.48)" />
    <path
       id="path10"
       d="M 187.738,2.00391 V 54.7461 H 135.961 V 2.00391 h 51.777"
       style="fill:#ffffff;fill-opacity:1;fill-rule:nonzero;stroke:none"
       transform="matrix(0.13333333,0,0,-0.13333333,0,36.48)" />
    <path
       id="path11"
       d="M 187.738,2.00391 V 54.7461 H 135.961 V 2.00391 Z"
       style="fill:none;stroke:#026c9b;stroke-width:4;stroke-linecap:butt;stroke-linejoin:miter;stroke-miterlimit:4;stroke-dasharray:none;stroke-opacity:1"
       transform="matrix(0.13333333,0,0,-0.13333333,0,36.48)" />
    <path
       id="path12"
       d="M 347.738,2.00391 V 54.7461 H 295.961 V 2.00391 h 51.777"
       style="fill:#ffffff;fill-opacity:1;fill-rule:nonzero;stroke:none"
       transform="matrix(0.13333333,0,0,-0.13333333,0,36.48)" />
    <path
       id="path13"
       d="M 347.738,2.00391 V 54.7461 H 295.961 V 2.00391 Z"
       style="fill:none;stroke:#026c9b;stroke-width:4;stroke-linecap:butt;stroke-linejoin:miter;stroke-miterlimit:4;stroke-dasharray:none;stroke-opacity:1"
       transform="matrix(0.13333333,0,0,-0.13333333,0,36.48)" />
    <path
       id="path14"
       d="M 266.363,88.0039 V 140.75 H 214.586 V 88.0039 h 51.777"
       style="fill:#ffffff;fill-opacity:1;fill-rule:nonzero;stroke:none"
       transform="matrix(0.13333333,0,0,-0.13333333,0,36.48)" />
    <path
       id="path15"
       d="M 266.363,88.0039 V 140.75 H 214.586 V 88.0039 Z"
       style="fill:none;stroke:#026c9b;stroke-width:4;stroke-linecap:butt;stroke-linejoin:miter;stroke-miterlimit:4;stroke-dasharray:none;stroke-opacity:1"
       transform="matrix(0.13333333,0,0,-0.13333333,0,36.48)" />
  </g>
</svg>
