<?xml version="1.0" encoding="UTF-8" standalone="no"?>
<!-- Created with Inkscape (http://www.inkscape.org/) -->

<svg
   version="1.1"
   id="svg1"
   width="43.759998"
   height="24.333332"
   viewBox="0 0 43.759998 24.333332"
   sodipodi:docname="handheld.eps"
   xmlns:inkscape="http://www.inkscape.org/namespaces/inkscape"
   xmlns:sodipodi="http://sodipodi.sourceforge.net/DTD/sodipodi-0.dtd"
   xmlns="http://www.w3.org/2000/svg"
   xmlns:svg="http://www.w3.org/2000/svg">
  <defs
     id="defs1">
    <clipPath
       clipPathUnits="userSpaceOnUse"
       id="clipPath2">
      <path
         d="M 0,2 V 183 H 328 V 2 Z"
         id="path2" />
    </clipPath>
    <clipPath
       clipPathUnits="userSpaceOnUse"
       id="clipPath4">
      <path
         d="M 0,2 V 183 H 328 V 2 Z"
         id="path4" />
    </clipPath>
    <clipPath
       clipPathUnits="userSpaceOnUse"
       id="clipPath6">
      <path
         d="M 0,2 V 183 H 328 V 2 Z"
         id="path6" />
    </clipPath>
    <clipPath
       clipPathUnits="userSpaceOnUse"
       id="clipPath8">
      <path
         d="M 0,2 V 183 H 328 V 2 Z"
         id="path8" />
    </clipPath>
    <clipPath
       clipPathUnits="userSpaceOnUse"
       id="clipPath10">
      <path
         d="M 0,2 V 183 H 328 V 2 Z"
         id="path10" />
    </clipPath>
    <clipPath
       clipPathUnits="userSpaceOnUse"
       id="clipPath12">
      <path
         d="M 0,2 V 183 H 328 V 2 Z"
         id="path12" />
    </clipPath>
    <clipPath
       clipPathUnits="userSpaceOnUse"
       id="clipPath14">
      <path
         d="M 0,2 V 183 H 328 V 2 Z"
         id="path14" />
    </clipPath>
    <clipPath
       clipPathUnits="userSpaceOnUse"
       id="clipPath16">
      <path
         d="M 0,2 V 183 H 328 V 2 Z"
         id="path16" />
    </clipPath>
    <clipPath
       clipPathUnits="userSpaceOnUse"
       id="clipPath18">
      <path
         d="M 0,2 V 183 H 328 V 2 Z"
         id="path18" />
    </clipPath>
    <clipPath
       clipPathUnits="userSpaceOnUse"
       id="clipPath20">
      <path
         d="M 0,2 V 183 H 328 V 2 Z"
         id="path20" />
    </clipPath>
    <clipPath
       clipPathUnits="userSpaceOnUse"
       id="clipPath22">
      <path
         d="M 0,2 V 183 H 328 V 2 Z"
         id="path22" />
    </clipPath>
    <clipPath
       clipPathUnits="userSpaceOnUse"
       id="clipPath24">
      <path
         d="M 0,2 V 183 H 328 V 2 Z"
         id="path24" />
    </clipPath>
    <clipPath
       clipPathUnits="userSpaceOnUse"
       id="clipPath26">
      <path
         d="M 0,2 V 183 H 328 V 2 Z"
         id="path26" />
    </clipPath>
    <clipPath
       clipPathUnits="userSpaceOnUse"
       id="clipPath28">
      <path
         d="M 0,2 V 183 H 328 V 2 Z"
         id="path28" />
    </clipPath>
    <clipPath
       clipPathUnits="userSpaceOnUse"
       id="clipPath30">
      <path
         d="M 0,2 V 183 H 328 V 2 Z"
         id="path30" />
    </clipPath>
    <clipPath
       clipPathUnits="userSpaceOnUse"
       id="clipPath32">
      <path
         d="M 0,2 V 183 H 328 V 2 Z"
         id="path32" />
    </clipPath>
  </defs>
  <sodipodi:namedview
     id="namedview1"
     pagecolor="#505050"
     bordercolor="#eeeeee"
     borderopacity="1"
     inkscape:showpageshadow="0"
     inkscape:pageopacity="0"
     inkscape:pagecheckerboard="0"
     inkscape:deskcolor="#d1d1d1">
    <inkscape:page
       x="0"
       y="0"
       inkscape:label="1"
       id="page1"
       width="43.759998"
       height="24.333332"
       margin="0"
       bleed="0" />
  </sodipodi:namedview>
  <g
     id="g1"
     inkscape:groupmode="layer"
     inkscape:label="1">
    <path
       id="path1"
       d="M 322.91,18.4805 V 178.109 L 306.895,164.047 V 4.41797 L 322.91,18.4805"
       style="fill:#02709f;fill-opacity:1;fill-rule:nonzero;stroke:none"
       transform="matrix(0.13333333,0,0,-0.13333333,0,24.333333)"
       clip-path="url(#clipPath2)" />
    <path
       id="path3"
       d="M 322.91,18.4805 V 178.109 L 306.895,164.047 V 4.41797 Z"
       style="fill:none;stroke:#ffffff;stroke-width:3.99994;stroke-linecap:butt;stroke-linejoin:miter;stroke-miterlimit:4;stroke-dasharray:none;stroke-opacity:1"
       transform="matrix(0.13333333,0,0,-0.13333333,0,24.333333)"
       clip-path="url(#clipPath4)" />
    <path
       id="path5"
       d="m 5.32813,4.67188 h 301.215 v 159.074 H 5.32813 Z"
       style="fill:#02709f;fill-opacity:1;fill-rule:nonzero;stroke:none"
       transform="matrix(0.13333333,0,0,-0.13333333,0,24.333333)"
       clip-path="url(#clipPath6)" />
    <path
       id="path7"
       d="M 306.543,4.67188 V 163.746 H 5.32813 V 4.67188 Z"
       style="fill:none;stroke:#ffffff;stroke-width:3.99994;stroke-linecap:butt;stroke-linejoin:miter;stroke-miterlimit:4;stroke-dasharray:none;stroke-opacity:1"
       transform="matrix(0.13333333,0,0,-0.13333333,0,24.333333)"
       clip-path="url(#clipPath8)" />
    <path
       id="path9"
       d="m 23.6563,128.863 c 0,15.965 16.5625,18.328 16.5625,18.328 0,0 173.1602,0 188.5312,0 20.098,0 19.512,-18.925 19.512,-18.925 0,0 0,-78.0472 0,-89.2972 0,-11.2305 -15.371,-15.9571 -15.371,-15.9571 0,0 -176.1176,0 -190.309,0 -14.1992,0 -18.9257,14.7852 -18.9257,14.7852 v 91.0661"
       style="fill:#02709f;fill-opacity:1;fill-rule:nonzero;stroke:none"
       transform="matrix(0.13333333,0,0,-0.13333333,0,24.333333)"
       clip-path="url(#clipPath10)" />
    <path
       id="path11"
       d="m 23.6563,128.863 c 0,15.965 16.5625,18.328 16.5625,18.328 0,0 173.1602,0 188.5312,0 20.098,0 19.512,-18.925 19.512,-18.925 0,0 0,-78.0472 0,-89.2972 0,-11.2305 -15.371,-15.9571 -15.371,-15.9571 0,0 -176.1176,0 -190.309,0 -14.1992,0 -18.9257,14.7852 -18.9257,14.7852 z"
       style="fill:none;stroke:#ffffff;stroke-width:3.99994;stroke-linecap:butt;stroke-linejoin:miter;stroke-miterlimit:4;stroke-dasharray:none;stroke-opacity:1"
       transform="matrix(0.13333333,0,0,-0.13333333,0,24.333333)"
       clip-path="url(#clipPath12)" />
    <path
       id="path13"
       d="M 322.91,178.043 H 21.6836 L 5.32813,163.746 H 306.543 l 16.367,14.297"
       style="fill:#02709f;fill-opacity:1;fill-rule:nonzero;stroke:none"
       transform="matrix(0.13333333,0,0,-0.13333333,0,24.333333)"
       clip-path="url(#clipPath14)" />
    <path
       id="path15"
       d="M 322.91,178.043 H 21.6836 L 5.32813,163.746 H 306.543 Z"
       style="fill:none;stroke:#ffffff;stroke-width:3.99994;stroke-linecap:butt;stroke-linejoin:miter;stroke-miterlimit:4;stroke-dasharray:none;stroke-opacity:1"
       transform="matrix(0.13333333,0,0,-0.13333333,0,24.333333)"
       clip-path="url(#clipPath16)" />
    <path
       id="path17"
       d="m 285.254,130.973 c 0,-2.532 -3.731,-4.582 -8.34,-4.582 -4.59,0 -8.32,2.05 -8.32,4.582 0,2.527 3.73,4.578 8.32,4.578 4.609,0 8.34,-2.051 8.34,-4.578"
       style="fill:#02709f;fill-opacity:1;fill-rule:nonzero;stroke:none"
       transform="matrix(0.13333333,0,0,-0.13333333,0,24.333333)"
       clip-path="url(#clipPath18)" />
    <path
       id="path19"
       d="m 285.254,130.973 c 0,-2.532 -3.731,-4.582 -8.34,-4.582 -4.59,0 -8.32,2.05 -8.32,4.582 0,2.527 3.73,4.578 8.32,4.578 4.609,0 8.34,-2.051 8.34,-4.578 z"
       style="fill:none;stroke:#ffffff;stroke-width:3.99994;stroke-linecap:butt;stroke-linejoin:miter;stroke-miterlimit:4;stroke-dasharray:none;stroke-opacity:1"
       transform="matrix(0.13333333,0,0,-0.13333333,0,24.333333)"
       clip-path="url(#clipPath20)" />
    <path
       id="path21"
       d="m 285.254,97.6406 c 0,-2.539 -3.731,-4.5898 -8.34,-4.5898 -4.59,0 -8.32,2.0508 -8.32,4.5898 0,2.5394 3.73,4.5894 8.32,4.5894 4.609,0 8.34,-2.05 8.34,-4.5894"
       style="fill:#02709f;fill-opacity:1;fill-rule:nonzero;stroke:none"
       transform="matrix(0.13333333,0,0,-0.13333333,0,24.333333)"
       clip-path="url(#clipPath22)" />
    <path
       id="path23"
       d="m 285.254,97.6406 c 0,-2.539 -3.731,-4.5898 -8.34,-4.5898 -4.59,0 -8.32,2.0508 -8.32,4.5898 0,2.5394 3.73,4.5894 8.32,4.5894 4.609,0 8.34,-2.05 8.34,-4.5894 z"
       style="fill:none;stroke:#ffffff;stroke-width:3.99994;stroke-linecap:butt;stroke-linejoin:miter;stroke-miterlimit:4;stroke-dasharray:none;stroke-opacity:1"
       transform="matrix(0.13333333,0,0,-0.13333333,0,24.333333)"
       clip-path="url(#clipPath24)" />
    <path
       id="path25"
       d="m 285.254,64.3008 c 0,-2.5195 -3.731,-4.5703 -8.34,-4.5703 -4.59,0 -8.32,2.0508 -8.32,4.5703 0,2.539 3.73,4.5898 8.32,4.5898 4.609,0 8.34,-2.0508 8.34,-4.5898"
       style="fill:#02709f;fill-opacity:1;fill-rule:nonzero;stroke:none"
       transform="matrix(0.13333333,0,0,-0.13333333,0,24.333333)"
       clip-path="url(#clipPath26)" />
    <path
       id="path27"
       d="m 285.254,64.3008 c 0,-2.5195 -3.731,-4.5703 -8.34,-4.5703 -4.59,0 -8.32,2.0508 -8.32,4.5703 0,2.539 3.73,4.5898 8.32,4.5898 4.609,0 8.34,-2.0508 8.34,-4.5898 z"
       style="fill:none;stroke:#ffffff;stroke-width:3.99994;stroke-linecap:butt;stroke-linejoin:miter;stroke-miterlimit:4;stroke-dasharray:none;stroke-opacity:1"
       transform="matrix(0.13333333,0,0,-0.13333333,0,24.333333)"
       clip-path="url(#clipPath28)" />
    <path
       id="path29"
       d="m 285.254,30.9805 c 0,-2.5391 -3.731,-4.5899 -8.34,-4.5899 -4.59,0 -8.32,2.0508 -8.32,4.5899 0,2.539 3.73,4.5898 8.32,4.5898 4.609,0 8.34,-2.0508 8.34,-4.5898"
       style="fill:#02709f;fill-opacity:1;fill-rule:nonzero;stroke:none"
       transform="matrix(0.13333333,0,0,-0.13333333,0,24.333333)"
       clip-path="url(#clipPath30)" />
    <path
       id="path31"
       d="m 285.254,30.9805 c 0,-2.5391 -3.731,-4.5899 -8.34,-4.5899 -4.59,0 -8.32,2.0508 -8.32,4.5899 0,2.539 3.73,4.5898 8.32,4.5898 4.609,0 8.34,-2.0508 8.34,-4.5898 z"
       style="fill:none;stroke:#ffffff;stroke-width:3.99994;stroke-linecap:butt;stroke-linejoin:miter;stroke-miterlimit:4;stroke-dasharray:none;stroke-opacity:1"
       transform="matrix(0.13333333,0,0,-0.13333333,0,24.333333)"
       clip-path="url(#clipPath32)" />
  </g>
</svg>
