<?xml version="1.0" encoding="UTF-8" standalone="no"?>
<!-- Created with Inkscape (http://www.inkscape.org/) -->

<svg
   version="1.1"
   id="svg1"
   width="66.360001"
   height="34.080002"
   viewBox="0 0 66.360001 34.080002"
   sodipodi:docname="host.eps"
   xmlns:inkscape="http://www.inkscape.org/namespaces/inkscape"
   xmlns:sodipodi="http://sodipodi.sourceforge.net/DTD/sodipodi-0.dtd"
   xmlns="http://www.w3.org/2000/svg"
   xmlns:svg="http://www.w3.org/2000/svg">
  <defs
     id="defs1" />
  <sodipodi:namedview
     id="namedview1"
     pagecolor="#505050"
     bordercolor="#eeeeee"
     borderopacity="1"
     inkscape:showpageshadow="0"
     inkscape:pageopacity="0"
     inkscape:pagecheckerboard="0"
     inkscape:deskcolor="#d1d1d1">
    <inkscape:page
       x="0"
       y="0"
       inkscape:label="1"
       id="page1"
       width="66.360001"
       height="34.080002"
       margin="0"
       bleed="0" />
  </sodipodi:namedview>
  <g
     id="g1"
     inkscape:groupmode="layer"
     inkscape:label="1">
    <path
       id="path1"
       d="M 492.906,50.4297 V 250.703 L 448.531,205.184 V 4.91016 l 44.375,45.51954"
       style="fill:#087fbf;fill-opacity:1;fill-rule:nonzero;stroke:none"
       transform="matrix(0.13333333,0,0,-0.13333333,0,34.08)" />
    <path
       id="path2"
       d="M 492.906,50.4297 V 250.703 L 448.531,205.184 V 4.91016 Z"
       style="fill:none;stroke:#ffffff;stroke-width:4;stroke-linecap:butt;stroke-linejoin:miter;stroke-miterlimit:4;stroke-dasharray:none;stroke-opacity:1"
       transform="matrix(0.13333333,0,0,-0.13333333,0,34.08)" />
    <path
       id="path3"
       d="m 4.74219,4.91016 h 443.789 v 200.273 H 4.74219 Z"
       style="fill:#087fbf;fill-opacity:1;fill-rule:nonzero;stroke:none"
       transform="matrix(0.13333333,0,0,-0.13333333,0,34.08)" />
    <path
       id="path4"
       d="M 4.74219,4.91016 V 205.184 H 448.531 V 4.91016 Z"
       style="fill:none;stroke:#ffffff;stroke-width:4;stroke-linecap:butt;stroke-linejoin:miter;stroke-miterlimit:4;stroke-dasharray:none;stroke-opacity:1"
       transform="matrix(0.13333333,0,0,-0.13333333,0,34.08)" />
    <path
       id="path5"
       d="m 2.3775391,-2.273285 1.4882812,-2.15625 H 3.1861328 L 2.0494141,-2.6834412 0.91269531,-4.429535 H 0.23300781 L 1.6978516,-2.273285 0.12753906,1.525e-4 H 0.81894531 L 2.0376953,-1.8396912 3.2447266,1.525e-4 H 3.9361328 Z M 5.2076172,-0.63266 H 4.5748047 V 1.525e-4 h 0.6328125 z m 3.5976562,0.10546875 H 6.5435547 C 6.6021484,-0.8904725 6.7896484,-1.1248475 7.3169922,-1.4412537 l 0.609375,-0.3398438 c 0.5976562,-0.3398437 0.9140625,-0.7851562 0.9140625,-1.3242187 0,-0.3632813 -0.1523438,-0.703125 -0.3984375,-0.9492188 -0.2578125,-0.2226562 -0.5742188,-0.3398437 -0.984375,-0.3398437 -0.5507813,0 -0.9492188,0.1992187 -1.1835938,0.5742187 -0.1523437,0.234375 -0.2226562,0.5039063 -0.234375,0.9492188 h 0.5273438 c 0.023437,-0.2929688 0.058594,-0.46875 0.1289062,-0.6210938 0.140625,-0.2695312 0.421875,-0.4335937 0.75,-0.4335937 0.4804688,0 0.84375,0.3515625 0.84375,0.8320312 0,0.3515625 -0.1992187,0.65625 -0.5859375,0.8671875 l -0.5507812,0.328125 c -0.9023438,0.515625 -1.1601563,0.9375 -1.2070313,1.88671875 h 2.859375 z M 12.004492,-4.3006287 H 9.7779297 l -0.3164063,2.34375 h 0.4804688 c 0.2578128,-0.3046875 0.4570308,-0.4101563 0.7968748,-0.4101563 0.585938,0 0.9375,0.3984375 0.9375,1.0429688 0,0.60937495 -0.351562,0.9960937 -0.9375,0.9960937 -0.46875,0 -0.7499998,-0.24609375 -0.8789061,-0.7265625 H 9.3208984 c 0.070312,0.3515625 0.140625,0.515625 0.2578125,0.6796875 0.2460938,0.328125 0.6796871,0.515625 1.1718751,0.515625 0.867187,0 1.476562,-0.6328125 1.476562,-1.546875 0,-0.84375 -0.5625,-1.4296875 -1.394531,-1.4296875 -0.304687,0 -0.550781,0.082031 -0.796875,0.2578125 l 0.175781,-1.1953125 h 1.792969 z m 5.507813,2.2851562 v 2.015625 h 0.574218 V -4.429535 h -0.574218 v 1.921875 h -2.273438 v -1.921875 h -0.5625 V 1.525e-4 h 0.5625 v -2.015625 z m 2.692383,-1.2539062 c -0.902344,0 -1.429688,0.6328125 -1.429688,1.6992187 0,1.078125 0.527344,1.7109375 1.429688,1.7109375 0.902343,0 1.441406,-0.6328125 1.441406,-1.6875 0,-1.1015625 -0.515625,-1.7226562 -1.441406,-1.7226562 z m 0,0.46875 c 0.574218,0 0.914062,0.46875 0.914062,1.2539062 0,0.75 -0.351562,1.21875 -0.914062,1.21875 -0.5625,0 -0.902344,-0.46875 -0.902344,-1.2421875 0,-0.7617187 0.339844,-1.2304687 0.902344,-1.2304687 z m 4.382812,0.5039062 c -0.01172,-0.6210937 -0.421875,-0.9726562 -1.160156,-0.9726562 -0.738281,0 -1.21875,0.375 -1.21875,0.9726562 0,0.4921875 0.257812,0.7265625 1.007812,0.9140625 l 0.480469,0.1171875 c 0.351563,0.082031 0.492188,0.2109375 0.492188,0.43359375 0,0.3046875 -0.304688,0.50390625 -0.738282,0.50390625 -0.28125,0 -0.503906,-0.0820313 -0.632812,-0.2109375 -0.08203,-0.09375 -0.117188,-0.1875 -0.152344,-0.41015625 h -0.527344 c 0.02344,0.73828125 0.433594,1.08984375 1.265625,1.08984375 0.796875,0 1.3125,-0.3984375 1.3125,-1.0078125 0,-0.46875 -0.269531,-0.7382812 -0.902343,-0.890625 l -0.480469,-0.1171875 c -0.421875,-0.09375 -0.597656,-0.2226562 -0.597656,-0.4453125 0,-0.3046875 0.269531,-0.4804687 0.679687,-0.4804687 0.410156,0 0.621094,0.1757812 0.632813,0.5039062 z m 1.921875,-0.8789062 H 25.982031 V -4.054535 h -0.503906 v 0.8789063 h -0.433594 v 0.4101562 h 0.433594 v 2.40234375 c 0,0.328125 0.222656,0.50390625 0.609375,0.50390625 0.140625,0 0.246094,-0.0117188 0.421875,-0.046875 v -0.421875 c -0.08203,0.0234375 -0.140625,0.0234375 -0.246094,0.0234375 -0.222656,0 -0.28125,-0.0585938 -0.28125,-0.28125 v -2.1796875 h 0.527344 z m 0,0"
       style="fill:#ffffff;fill-opacity:1;fill-rule:nonzero;stroke:none"
       aria-label="X.25 Host"
       transform="matrix(1.3333333,0,0,1.3333333,13.716667,24.093547)" />
    <path
       id="path6"
       d="M 49.1172,250.703 4.74219,205.184 H 448.531 l 44.375,45.519 H 49.1172"
       style="fill:#087fbf;fill-opacity:1;fill-rule:nonzero;stroke:none"
       transform="matrix(0.13333333,0,0,-0.13333333,0,34.08)" />
    <path
       id="path7"
       d="M 49.1172,250.703 4.74219,205.184 H 448.531 l 44.375,45.519 z"
       style="fill:none;stroke:#ffffff;stroke-width:4;stroke-linecap:butt;stroke-linejoin:miter;stroke-miterlimit:4;stroke-dasharray:none;stroke-opacity:1"
       transform="matrix(0.13333333,0,0,-0.13333333,0,34.08)" />
  </g>
</svg>
