<?xml version="1.0" encoding="UTF-8" standalone="no"?>
<!-- Created with Inkscape (http://www.inkscape.org/) -->

<svg
   version="1.1"
   id="svg1"
   width="24.559999"
   height="49.506668"
   viewBox="0 0 24.559999 49.506668"
   sodipodi:docname="icm.eps"
   xmlns:inkscape="http://www.inkscape.org/namespaces/inkscape"
   xmlns:sodipodi="http://sodipodi.sourceforge.net/DTD/sodipodi-0.dtd"
   xmlns="http://www.w3.org/2000/svg"
   xmlns:svg="http://www.w3.org/2000/svg">
  <defs
     id="defs1">
    <clipPath
       clipPathUnits="userSpaceOnUse"
       id="clipPath2">
      <path
         d="M 0,1 V 371 H 180 V 1 Z"
         id="path2" />
    </clipPath>
    <clipPath
       clipPathUnits="userSpaceOnUse"
       id="clipPath4">
      <path
         d="M 0,1 V 371 H 180 V 1 Z"
         id="path4" />
    </clipPath>
    <clipPath
       clipPathUnits="userSpaceOnUse"
       id="clipPath6">
      <path
         d="M 0,1 V 371 H 180 V 1 Z"
         id="path6" />
    </clipPath>
    <clipPath
       clipPathUnits="userSpaceOnUse"
       id="clipPath8">
      <path
         d="M 0,1 V 371 H 180 V 1 Z"
         id="path8" />
    </clipPath>
    <clipPath
       clipPathUnits="userSpaceOnUse"
       id="clipPath10">
      <path
         d="M 0,1 V 371 H 180 V 1 Z"
         id="path10" />
    </clipPath>
    <clipPath
       clipPathUnits="userSpaceOnUse"
       id="clipPath12">
      <path
         d="M 0,1 V 371 H 180 V 1 Z"
         id="path12" />
    </clipPath>
    <clipPath
       clipPathUnits="userSpaceOnUse"
       id="clipPath14">
      <path
         d="M 0,1 V 371 H 180 V 1 Z"
         id="path14" />
    </clipPath>
    <clipPath
       clipPathUnits="userSpaceOnUse"
       id="clipPath16">
      <path
         d="M 0,1 V 371 H 180 V 1 Z"
         id="path16" />
    </clipPath>
    <clipPath
       clipPathUnits="userSpaceOnUse"
       id="clipPath18">
      <path
         d="M 0,1 V 371 H 180 V 1 Z"
         id="path18" />
    </clipPath>
    <clipPath
       clipPathUnits="userSpaceOnUse"
       id="clipPath20">
      <path
         d="M 0,1 V 371 H 180 V 1 Z"
         id="path20" />
    </clipPath>
    <clipPath
       clipPathUnits="userSpaceOnUse"
       id="clipPath22">
      <path
         d="M 0,1 V 371 H 180 V 1 Z"
         id="path22" />
    </clipPath>
    <clipPath
       clipPathUnits="userSpaceOnUse"
       id="clipPath24">
      <path
         d="M 0,1 V 371 H 180 V 1 Z"
         id="path24" />
    </clipPath>
    <clipPath
       clipPathUnits="userSpaceOnUse"
       id="clipPath26">
      <path
         d="M 0,1 V 371 H 180 V 1 Z"
         id="path26" />
    </clipPath>
    <clipPath
       clipPathUnits="userSpaceOnUse"
       id="clipPath28">
      <path
         d="M 0,1 V 371 H 180 V 1 Z"
         id="path28" />
    </clipPath>
    <clipPath
       clipPathUnits="userSpaceOnUse"
       id="clipPath30">
      <path
         d="M 0,1 V 371 H 180 V 1 Z"
         id="path30" />
    </clipPath>
    <clipPath
       clipPathUnits="userSpaceOnUse"
       id="clipPath32">
      <path
         d="M 0,1 V 371 H 180 V 1 Z"
         id="path32" />
    </clipPath>
    <clipPath
       clipPathUnits="userSpaceOnUse"
       id="clipPath34">
      <path
         d="M 0,1 V 371 H 180 V 1 Z"
         id="path34" />
    </clipPath>
    <clipPath
       clipPathUnits="userSpaceOnUse"
       id="clipPath36">
      <path
         d="M 0,1 V 371 H 180 V 1 Z"
         id="path36" />
    </clipPath>
    <clipPath
       clipPathUnits="userSpaceOnUse"
       id="clipPath38">
      <path
         d="M 0,1 V 371 H 180 V 1 Z"
         id="path38" />
    </clipPath>
    <clipPath
       clipPathUnits="userSpaceOnUse"
       id="clipPath40">
      <path
         d="M 0,1 V 371 H 180 V 1 Z"
         id="path40" />
    </clipPath>
    <clipPath
       clipPathUnits="userSpaceOnUse"
       id="clipPath42">
      <path
         d="M 0,1 V 371 H 180 V 1 Z"
         id="path42" />
    </clipPath>
    <clipPath
       clipPathUnits="userSpaceOnUse"
       id="clipPath44">
      <path
         d="M 0,1 V 371 H 180 V 1 Z"
         id="path44" />
    </clipPath>
    <clipPath
       clipPathUnits="userSpaceOnUse"
       id="clipPath46">
      <path
         d="M 0,1 V 371 H 180 V 1 Z"
         id="path46" />
    </clipPath>
    <clipPath
       clipPathUnits="userSpaceOnUse"
       id="clipPath48">
      <path
         d="M 0,1 V 371 H 180 V 1 Z"
         id="path48" />
    </clipPath>
    <clipPath
       clipPathUnits="userSpaceOnUse"
       id="clipPath50">
      <path
         d="M 0,1 V 371 H 180 V 1 Z"
         id="path50" />
    </clipPath>
    <clipPath
       clipPathUnits="userSpaceOnUse"
       id="clipPath52">
      <path
         d="M 0,1 V 371 H 180 V 1 Z"
         id="path52" />
    </clipPath>
    <clipPath
       clipPathUnits="userSpaceOnUse"
       id="clipPath54">
      <path
         d="M 0,1 V 371 H 180 V 1 Z"
         id="path54" />
    </clipPath>
    <clipPath
       clipPathUnits="userSpaceOnUse"
       id="clipPath56">
      <path
         d="M 0,1 V 371 H 180 V 1 Z"
         id="path56" />
    </clipPath>
    <clipPath
       clipPathUnits="userSpaceOnUse"
       id="clipPath58">
      <path
         d="M 0,1 V 371 H 180 V 1 Z"
         id="path58" />
    </clipPath>
    <clipPath
       clipPathUnits="userSpaceOnUse"
       id="clipPath60">
      <path
         d="M 0,1 V 371 H 180 V 1 Z"
         id="path60" />
    </clipPath>
    <clipPath
       clipPathUnits="userSpaceOnUse"
       id="clipPath62">
      <path
         d="M 0,1 V 371 H 180 V 1 Z"
         id="path62" />
    </clipPath>
    <clipPath
       clipPathUnits="userSpaceOnUse"
       id="clipPath64">
      <path
         d="M 0,1 V 371 H 180 V 1 Z"
         id="path64" />
    </clipPath>
    <clipPath
       clipPathUnits="userSpaceOnUse"
       id="clipPath66">
      <path
         d="M 0,1 V 371 H 180 V 1 Z"
         id="path66" />
    </clipPath>
    <clipPath
       clipPathUnits="userSpaceOnUse"
       id="clipPath68">
      <path
         d="M 0,1 V 371 H 180 V 1 Z"
         id="path68" />
    </clipPath>
    <clipPath
       clipPathUnits="userSpaceOnUse"
       id="clipPath70">
      <path
         d="M 0,1 V 371 H 180 V 1 Z"
         id="path70" />
    </clipPath>
    <clipPath
       clipPathUnits="userSpaceOnUse"
       id="clipPath72">
      <path
         d="M 0,1 V 371 H 180 V 1 Z"
         id="path72" />
    </clipPath>
    <clipPath
       clipPathUnits="userSpaceOnUse"
       id="clipPath74">
      <path
         d="M 0,1 V 371 H 180 V 1 Z"
         id="path74" />
    </clipPath>
    <clipPath
       clipPathUnits="userSpaceOnUse"
       id="clipPath76">
      <path
         d="M 0,1 V 371 H 180 V 1 Z"
         id="path76" />
    </clipPath>
    <clipPath
       clipPathUnits="userSpaceOnUse"
       id="clipPath78">
      <path
         d="M 0,1 V 371 H 180 V 1 Z"
         id="path78" />
    </clipPath>
    <clipPath
       clipPathUnits="userSpaceOnUse"
       id="clipPath80">
      <path
         d="M 0,1 V 371 H 180 V 1 Z"
         id="path80" />
    </clipPath>
    <clipPath
       clipPathUnits="userSpaceOnUse"
       id="clipPath82">
      <path
         d="M 0,1 V 371 H 180 V 1 Z"
         id="path82" />
    </clipPath>
    <clipPath
       clipPathUnits="userSpaceOnUse"
       id="clipPath84">
      <path
         d="M 0,1 V 371 H 180 V 1 Z"
         id="path84" />
    </clipPath>
    <clipPath
       clipPathUnits="userSpaceOnUse"
       id="clipPath86">
      <path
         d="M 0,1 V 371 H 180 V 1 Z"
         id="path86" />
    </clipPath>
    <clipPath
       clipPathUnits="userSpaceOnUse"
       id="clipPath88">
      <path
         d="M 0,1 V 371 H 180 V 1 Z"
         id="path88" />
    </clipPath>
  </defs>
  <sodipodi:namedview
     id="namedview1"
     pagecolor="#505050"
     bordercolor="#eeeeee"
     borderopacity="1"
     inkscape:showpageshadow="0"
     inkscape:pageopacity="0"
     inkscape:pagecheckerboard="0"
     inkscape:deskcolor="#d1d1d1">
    <inkscape:page
       x="0"
       y="0"
       inkscape:label="1"
       id="page1"
       width="24.559999"
       height="49.506668"
       margin="0"
       bleed="0" />
  </sodipodi:namedview>
  <g
     id="g1"
     inkscape:groupmode="layer"
     inkscape:label="1">
    <path
       id="path1"
       d="M 16.6406,3.76953 34.1992,2.00391 h 73.3598 l 17.968,1.9414 9.981,7.74219 0.957,4.1641 0.293,285.4184 H 5.68359 L 5.45703,11.9805 16.6406,3.76953"
       style="fill:#087fbf;fill-opacity:1;fill-rule:nonzero;stroke:#ffffff;stroke-width:4;stroke-linecap:butt;stroke-linejoin:miter;stroke-miterlimit:4;stroke-dasharray:none;stroke-opacity:1"
       transform="matrix(0.13333333,0,0,-0.13333333,0,49.506667)"
       clip-path="url(#clipPath2)" />
    <path
       id="path3"
       d="M 179.199,366.66 136.887,326.816 136.582,16.7969 179.395,65.7695 179.199,366.66"
       style="fill:#087fbf;fill-opacity:1;fill-rule:nonzero;stroke:#ffffff;stroke-width:4;stroke-linecap:butt;stroke-linejoin:miter;stroke-miterlimit:4;stroke-dasharray:none;stroke-opacity:1"
       transform="matrix(0.13333333,0,0,-0.13333333,0,49.506667)"
       clip-path="url(#clipPath4)" />
    <path
       id="path5"
       d="m 137.129,301.961 41.914,40.644"
       style="fill:#087fbf;fill-opacity:1;fill-rule:nonzero;stroke:#ffffff;stroke-width:4;stroke-linecap:butt;stroke-linejoin:miter;stroke-miterlimit:4;stroke-dasharray:none;stroke-opacity:1"
       transform="matrix(0.13333333,0,0,-0.13333333,0,49.506667)"
       clip-path="url(#clipPath6)" />
    <path
       id="path7"
       d="m 129.855,275.906 v 5.801"
       style="fill:#087fbf;fill-opacity:1;fill-rule:nonzero;stroke:#ffffff;stroke-width:4;stroke-linecap:butt;stroke-linejoin:miter;stroke-miterlimit:4;stroke-dasharray:none;stroke-opacity:1"
       transform="matrix(0.13333333,0,0,-0.13333333,0,49.506667)"
       clip-path="url(#clipPath8)" />
    <path
       id="path9"
       d="m 129.855,275.906 v 5.801"
       style="fill:#087fbf;fill-opacity:1;fill-rule:nonzero;stroke:#ffffff;stroke-width:4;stroke-linecap:butt;stroke-linejoin:miter;stroke-miterlimit:4;stroke-dasharray:none;stroke-opacity:1"
       transform="matrix(0.13333333,0,0,-0.13333333,0,49.506667)"
       clip-path="url(#clipPath10)" />
    <path
       id="path11"
       d="m 136.582,39.5039 41.555,45.3789"
       style="fill:#087fbf;fill-opacity:1;fill-rule:nonzero;stroke:#ffffff;stroke-width:4;stroke-linecap:butt;stroke-linejoin:miter;stroke-miterlimit:4;stroke-dasharray:none;stroke-opacity:1"
       transform="matrix(0.13333333,0,0,-0.13333333,0,49.506667)"
       clip-path="url(#clipPath12)" />
    <path
       id="path13"
       d="M 43.5156,366.766 179.199,366.66 136.887,326.816 c 0,0 -54.2112,-19.55 -132.96122,1.825 l 39.58982,38.125"
       style="fill:#087fbf;fill-opacity:1;fill-rule:nonzero;stroke:none"
       transform="matrix(0.13333333,0,0,-0.13333333,0,49.506667)"
       clip-path="url(#clipPath14)" />
    <path
       id="path15"
       d="M 43.5156,366.766 179.199,366.66 136.887,326.816 c 0,0 -54.2112,-19.55 -132.96122,1.825 z"
       style="fill:none;stroke:#ffffff;stroke-width:4;stroke-linecap:butt;stroke-linejoin:miter;stroke-miterlimit:4;stroke-dasharray:none;stroke-opacity:1"
       transform="matrix(0.13333333,0,0,-0.13333333,0,49.506667)"
       clip-path="url(#clipPath16)" />
    <path
       id="path17"
       d="M 3.92578,328.641 C 82.6758,307.266 136.887,326.816 136.887,326.816 l -0.012,-24.347 c 0,0 -54.2773,-20 -133.04687,1.379 l 0.09765,24.793"
       style="fill:#087fbf;fill-opacity:1;fill-rule:nonzero;stroke:none"
       transform="matrix(0.13333333,0,0,-0.13333333,0,49.506667)"
       clip-path="url(#clipPath18)" />
    <path
       id="path19"
       d="M 3.92578,328.641 C 82.6758,307.266 136.887,326.816 136.887,326.816 l -0.012,-24.347 c 0,0 -54.2773,-20 -133.04687,1.379 z"
       style="fill:none;stroke:#ffffff;stroke-width:4;stroke-linecap:butt;stroke-linejoin:miter;stroke-miterlimit:4;stroke-dasharray:none;stroke-opacity:1"
       transform="matrix(0.13333333,0,0,-0.13333333,0,49.506667)"
       clip-path="url(#clipPath20)" />
    <path
       id="path21"
       d="M 135.664,209.973 H 5.91797 v -3.879"
       style="fill:#087fbf;fill-opacity:1;fill-rule:nonzero;stroke:#ffffff;stroke-width:4;stroke-linecap:butt;stroke-linejoin:miter;stroke-miterlimit:4;stroke-dasharray:none;stroke-opacity:1"
       transform="matrix(0.13333333,0,0,-0.13333333,0,49.506667)"
       clip-path="url(#clipPath22)" />
    <path
       id="path23"
       d="M 6.28906,256.543 H 136.047"
       style="fill:#087fbf;fill-opacity:1;fill-rule:nonzero;stroke:#ffffff;stroke-width:4;stroke-linecap:butt;stroke-linejoin:miter;stroke-miterlimit:4;stroke-dasharray:none;stroke-opacity:1"
       transform="matrix(0.13333333,0,0,-0.13333333,0,49.506667)"
       clip-path="url(#clipPath24)" />
    <path
       id="path25"
       d="M 6.28906,236.113 136.047,236.152"
       style="fill:#087fbf;fill-opacity:1;fill-rule:nonzero;stroke:#ffffff;stroke-width:4;stroke-linecap:butt;stroke-linejoin:miter;stroke-miterlimit:4;stroke-dasharray:none;stroke-opacity:1"
       transform="matrix(0.13333333,0,0,-0.13333333,0,49.506667)"
       clip-path="url(#clipPath26)" />
    <path
       id="path27"
       d="M 6.28906,256.543 H 136.047"
       style="fill:#087fbf;fill-opacity:1;fill-rule:nonzero;stroke:#ffffff;stroke-width:4;stroke-linecap:butt;stroke-linejoin:miter;stroke-miterlimit:4;stroke-dasharray:none;stroke-opacity:1"
       transform="matrix(0.13333333,0,0,-0.13333333,0,49.506667)"
       clip-path="url(#clipPath28)" />
    <path
       id="path29"
       d="m 6.42578,195.809 9.98052,-7.743 17.9687,-1.945"
       style="fill:#087fbf;fill-opacity:1;fill-rule:nonzero;stroke:#ffffff;stroke-width:4;stroke-linecap:butt;stroke-linejoin:miter;stroke-miterlimit:4;stroke-dasharray:none;stroke-opacity:1"
       transform="matrix(0.13333333,0,0,-0.13333333,0,49.506667)"
       clip-path="url(#clipPath30)" />
    <path
       id="path31"
       d="m 13.7188,266.223 h 116.254 v 15.8359 H 13.7188 Z"
       style="fill:#087fbf;fill-opacity:1;fill-rule:nonzero;stroke:none"
       transform="matrix(0.13333333,0,0,-0.13333333,0,49.506667)"
       clip-path="url(#clipPath32)" />
    <path
       id="path33"
       d="M 129.973,266.223 H 13.7188 v 15.836 H 129.973 Z"
       style="fill:none;stroke:#ffffff;stroke-width:4;stroke-linecap:butt;stroke-linejoin:miter;stroke-miterlimit:4;stroke-dasharray:none;stroke-opacity:1"
       transform="matrix(0.13333333,0,0,-0.13333333,0,49.506667)"
       clip-path="url(#clipPath34)" />
    <path
       id="path35"
       d="m 34.1992,199.871 h 73.3598 l 17.968,1.945 9.981,7.743"
       style="fill:#087fbf;fill-opacity:1;fill-rule:nonzero;stroke:#ffffff;stroke-width:4;stroke-linecap:butt;stroke-linejoin:miter;stroke-miterlimit:4;stroke-dasharray:none;stroke-opacity:1"
       transform="matrix(0.13333333,0,0,-0.13333333,0,49.506667)"
       clip-path="url(#clipPath36)" />
    <path
       id="path37"
       d="m 34.1992,186.172 h 73.3598 l 17.968,1.941 9.981,7.739"
       style="fill:#087fbf;fill-opacity:1;fill-rule:nonzero;stroke:#ffffff;stroke-width:4;stroke-linecap:butt;stroke-linejoin:miter;stroke-miterlimit:4;stroke-dasharray:none;stroke-opacity:1"
       transform="matrix(0.13333333,0,0,-0.13333333,0,49.506667)"
       clip-path="url(#clipPath38)" />
    <path
       id="path39"
       d="m 6.25,209.559 9.9805,-7.743 17.9687,-1.945"
       style="fill:#087fbf;fill-opacity:1;fill-rule:nonzero;stroke:#ffffff;stroke-width:4;stroke-linecap:butt;stroke-linejoin:miter;stroke-miterlimit:4;stroke-dasharray:none;stroke-opacity:1"
       transform="matrix(0.13333333,0,0,-0.13333333,0,49.506667)"
       clip-path="url(#clipPath40)" />
    <path
       id="path41"
       d="m 6.42578,167.371 9.98052,-7.742 17.9687,-1.945"
       style="fill:#087fbf;fill-opacity:1;fill-rule:nonzero;stroke:#ffffff;stroke-width:4;stroke-linecap:butt;stroke-linejoin:miter;stroke-miterlimit:4;stroke-dasharray:none;stroke-opacity:1"
       transform="matrix(0.13333333,0,0,-0.13333333,0,49.506667)"
       clip-path="url(#clipPath42)" />
    <path
       id="path43"
       d="m 34.1992,171.434 h 73.3598 l 17.968,1.945 9.981,7.742"
       style="fill:#087fbf;fill-opacity:1;fill-rule:nonzero;stroke:#ffffff;stroke-width:4;stroke-linecap:butt;stroke-linejoin:miter;stroke-miterlimit:4;stroke-dasharray:none;stroke-opacity:1"
       transform="matrix(0.13333333,0,0,-0.13333333,0,49.506667)"
       clip-path="url(#clipPath44)" />
    <path
       id="path45"
       d="m 34.1992,157.734 h 73.3598 l 17.968,1.946 9.981,7.73"
       style="fill:#087fbf;fill-opacity:1;fill-rule:nonzero;stroke:#ffffff;stroke-width:4;stroke-linecap:butt;stroke-linejoin:miter;stroke-miterlimit:4;stroke-dasharray:none;stroke-opacity:1"
       transform="matrix(0.13333333,0,0,-0.13333333,0,49.506667)"
       clip-path="url(#clipPath46)" />
    <path
       id="path47"
       d="m 6.25,181.121 9.9805,-7.742 17.9687,-1.945"
       style="fill:#087fbf;fill-opacity:1;fill-rule:nonzero;stroke:#ffffff;stroke-width:4;stroke-linecap:butt;stroke-linejoin:miter;stroke-miterlimit:4;stroke-dasharray:none;stroke-opacity:1"
       transform="matrix(0.13333333,0,0,-0.13333333,0,49.506667)"
       clip-path="url(#clipPath48)" />
    <path
       id="path49"
       d="m 6.42578,138.934 9.98052,-7.743 17.9687,-1.945"
       style="fill:#087fbf;fill-opacity:1;fill-rule:nonzero;stroke:#ffffff;stroke-width:4;stroke-linecap:butt;stroke-linejoin:miter;stroke-miterlimit:4;stroke-dasharray:none;stroke-opacity:1"
       transform="matrix(0.13333333,0,0,-0.13333333,0,49.506667)"
       clip-path="url(#clipPath50)" />
    <path
       id="path51"
       d="m 34.1992,142.996 h 73.3598 l 17.968,1.945 9.981,7.743"
       style="fill:#087fbf;fill-opacity:1;fill-rule:nonzero;stroke:#ffffff;stroke-width:4;stroke-linecap:butt;stroke-linejoin:miter;stroke-miterlimit:4;stroke-dasharray:none;stroke-opacity:1"
       transform="matrix(0.13333333,0,0,-0.13333333,0,49.506667)"
       clip-path="url(#clipPath52)" />
    <path
       id="path53"
       d="m 34.1992,129.297 h 73.3598 l 17.968,1.941 9.981,7.739"
       style="fill:#087fbf;fill-opacity:1;fill-rule:nonzero;stroke:#ffffff;stroke-width:4;stroke-linecap:butt;stroke-linejoin:miter;stroke-miterlimit:4;stroke-dasharray:none;stroke-opacity:1"
       transform="matrix(0.13333333,0,0,-0.13333333,0,49.506667)"
       clip-path="url(#clipPath54)" />
    <path
       id="path55"
       d="m 6.25,152.684 9.9805,-7.743 17.9687,-1.945"
       style="fill:#087fbf;fill-opacity:1;fill-rule:nonzero;stroke:#ffffff;stroke-width:4;stroke-linecap:butt;stroke-linejoin:miter;stroke-miterlimit:4;stroke-dasharray:none;stroke-opacity:1"
       transform="matrix(0.13333333,0,0,-0.13333333,0,49.506667)"
       clip-path="url(#clipPath56)" />
    <path
       id="path57"
       d="m 6.42578,110.496 9.98052,-7.742 17.9687,-1.945"
       style="fill:#087fbf;fill-opacity:1;fill-rule:nonzero;stroke:#ffffff;stroke-width:4;stroke-linecap:butt;stroke-linejoin:miter;stroke-miterlimit:4;stroke-dasharray:none;stroke-opacity:1"
       transform="matrix(0.13333333,0,0,-0.13333333,0,49.506667)"
       clip-path="url(#clipPath58)" />
    <path
       id="path59"
       d="m 34.1992,114.559 h 73.3598 l 17.968,1.945 9.981,7.742"
       style="fill:#087fbf;fill-opacity:1;fill-rule:nonzero;stroke:#ffffff;stroke-width:4;stroke-linecap:butt;stroke-linejoin:miter;stroke-miterlimit:4;stroke-dasharray:none;stroke-opacity:1"
       transform="matrix(0.13333333,0,0,-0.13333333,0,49.506667)"
       clip-path="url(#clipPath60)" />
    <path
       id="path61"
       d="m 34.1992,100.859 h 73.3598 l 17.968,1.946 9.981,7.73"
       style="fill:#087fbf;fill-opacity:1;fill-rule:nonzero;stroke:#ffffff;stroke-width:4;stroke-linecap:butt;stroke-linejoin:miter;stroke-miterlimit:4;stroke-dasharray:none;stroke-opacity:1"
       transform="matrix(0.13333333,0,0,-0.13333333,0,49.506667)"
       clip-path="url(#clipPath62)" />
    <path
       id="path63"
       d="m 6.25,124.246 9.9805,-7.742 17.9687,-1.945"
       style="fill:#087fbf;fill-opacity:1;fill-rule:nonzero;stroke:#ffffff;stroke-width:4;stroke-linecap:butt;stroke-linejoin:miter;stroke-miterlimit:4;stroke-dasharray:none;stroke-opacity:1"
       transform="matrix(0.13333333,0,0,-0.13333333,0,49.506667)"
       clip-path="url(#clipPath64)" />
    <path
       id="path65"
       d="M 6.42578,82.0586 16.4063,74.3164 34.375,72.3711"
       style="fill:#087fbf;fill-opacity:1;fill-rule:nonzero;stroke:#ffffff;stroke-width:4;stroke-linecap:butt;stroke-linejoin:miter;stroke-miterlimit:4;stroke-dasharray:none;stroke-opacity:1"
       transform="matrix(0.13333333,0,0,-0.13333333,0,49.506667)"
       clip-path="url(#clipPath66)" />
    <path
       id="path67"
       d="m 34.1992,86.1211 h 73.3598 l 17.968,1.9453 9.981,7.7422"
       style="fill:#087fbf;fill-opacity:1;fill-rule:nonzero;stroke:#ffffff;stroke-width:4;stroke-linecap:butt;stroke-linejoin:miter;stroke-miterlimit:4;stroke-dasharray:none;stroke-opacity:1"
       transform="matrix(0.13333333,0,0,-0.13333333,0,49.506667)"
       clip-path="url(#clipPath68)" />
    <path
       id="path69"
       d="m 34.1992,72.4219 h 73.3598 l 17.968,1.9414 9.981,7.7383"
       style="fill:#087fbf;fill-opacity:1;fill-rule:nonzero;stroke:#ffffff;stroke-width:4;stroke-linecap:butt;stroke-linejoin:miter;stroke-miterlimit:4;stroke-dasharray:none;stroke-opacity:1"
       transform="matrix(0.13333333,0,0,-0.13333333,0,49.506667)"
       clip-path="url(#clipPath70)" />
    <path
       id="path71"
       d="m 6.25,95.8086 9.9805,-7.7422 17.9687,-1.9453"
       style="fill:#087fbf;fill-opacity:1;fill-rule:nonzero;stroke:#ffffff;stroke-width:4;stroke-linecap:butt;stroke-linejoin:miter;stroke-miterlimit:4;stroke-dasharray:none;stroke-opacity:1"
       transform="matrix(0.13333333,0,0,-0.13333333,0,49.506667)"
       clip-path="url(#clipPath72)" />
    <path
       id="path73"
       d="M 6.42578,53.6211 16.4063,45.8789 34.375,43.9336"
       style="fill:#087fbf;fill-opacity:1;fill-rule:nonzero;stroke:#ffffff;stroke-width:4;stroke-linecap:butt;stroke-linejoin:miter;stroke-miterlimit:4;stroke-dasharray:none;stroke-opacity:1"
       transform="matrix(0.13333333,0,0,-0.13333333,0,49.506667)"
       clip-path="url(#clipPath74)" />
    <path
       id="path75"
       d="m 34.1992,57.6836 h 73.3598 l 17.968,1.9453 9.981,7.7422"
       style="fill:#087fbf;fill-opacity:1;fill-rule:nonzero;stroke:#ffffff;stroke-width:4;stroke-linecap:butt;stroke-linejoin:miter;stroke-miterlimit:4;stroke-dasharray:none;stroke-opacity:1"
       transform="matrix(0.13333333,0,0,-0.13333333,0,49.506667)"
       clip-path="url(#clipPath76)" />
    <path
       id="path77"
       d="m 34.1992,43.9844 h 73.3598 l 17.968,1.9453 9.981,7.7305"
       style="fill:#087fbf;fill-opacity:1;fill-rule:nonzero;stroke:#ffffff;stroke-width:4;stroke-linecap:butt;stroke-linejoin:miter;stroke-miterlimit:4;stroke-dasharray:none;stroke-opacity:1"
       transform="matrix(0.13333333,0,0,-0.13333333,0,49.506667)"
       clip-path="url(#clipPath78)" />
    <path
       id="path79"
       d="m 6.25,67.3711 9.9805,-7.7422 17.9687,-1.9453"
       style="fill:#087fbf;fill-opacity:1;fill-rule:nonzero;stroke:#ffffff;stroke-width:4;stroke-linecap:butt;stroke-linejoin:miter;stroke-miterlimit:4;stroke-dasharray:none;stroke-opacity:1"
       transform="matrix(0.13333333,0,0,-0.13333333,0,49.506667)"
       clip-path="url(#clipPath80)" />
    <path
       id="path81"
       d="M 6.42578,25.1836 16.4063,17.4414 34.375,15.4961"
       style="fill:#087fbf;fill-opacity:1;fill-rule:nonzero;stroke:#ffffff;stroke-width:4;stroke-linecap:butt;stroke-linejoin:miter;stroke-miterlimit:4;stroke-dasharray:none;stroke-opacity:1"
       transform="matrix(0.13333333,0,0,-0.13333333,0,49.506667)"
       clip-path="url(#clipPath82)" />
    <path
       id="path83"
       d="m 34.1992,29.2461 h 73.3598 l 17.968,1.9453 9.981,7.7422"
       style="fill:#087fbf;fill-opacity:1;fill-rule:nonzero;stroke:#ffffff;stroke-width:4;stroke-linecap:butt;stroke-linejoin:miter;stroke-miterlimit:4;stroke-dasharray:none;stroke-opacity:1"
       transform="matrix(0.13333333,0,0,-0.13333333,0,49.506667)"
       clip-path="url(#clipPath84)" />
    <path
       id="path85"
       d="m 34.1992,15.5469 h 73.3598 l 17.968,1.9414 9.981,7.7383"
       style="fill:#087fbf;fill-opacity:1;fill-rule:nonzero;stroke:#ffffff;stroke-width:4;stroke-linecap:butt;stroke-linejoin:miter;stroke-miterlimit:4;stroke-dasharray:none;stroke-opacity:1"
       transform="matrix(0.13333333,0,0,-0.13333333,0,49.506667)"
       clip-path="url(#clipPath86)" />
    <path
       id="path87"
       d="m 6.25,38.9336 9.9805,-7.7422 17.9687,-1.9453"
       style="fill:#087fbf;fill-opacity:1;fill-rule:nonzero;stroke:#ffffff;stroke-width:4;stroke-linecap:butt;stroke-linejoin:miter;stroke-miterlimit:4;stroke-dasharray:none;stroke-opacity:1"
       transform="matrix(0.13333333,0,0,-0.13333333,0,49.506667)"
       clip-path="url(#clipPath88)" />
  </g>
</svg>
