<?xml version="1.0" encoding="UTF-8" standalone="no"?>
<!-- Created with Inkscape (http://www.inkscape.org/) -->

<svg
   version="1.1"
   id="svg1"
   width="45.639999"
   height="48.973331"
   viewBox="0 0 45.639999 48.973331"
   sodipodi:docname="ics.eps"
   xmlns:inkscape="http://www.inkscape.org/namespaces/inkscape"
   xmlns:sodipodi="http://sodipodi.sourceforge.net/DTD/sodipodi-0.dtd"
   xmlns="http://www.w3.org/2000/svg"
   xmlns:svg="http://www.w3.org/2000/svg">
  <defs
     id="defs1">
    <clipPath
       clipPathUnits="userSpaceOnUse"
       id="clipPath2">
      <path
         d="M 0,367 H 340 V 0 H 0 Z"
         id="path2" />
    </clipPath>
    <clipPath
       clipPathUnits="userSpaceOnUse"
       id="clipPath4">
      <path
         d="M 0,367 H 340 V 0 H 0 Z"
         id="path4" />
    </clipPath>
    <clipPath
       clipPathUnits="userSpaceOnUse"
       id="clipPath6">
      <path
         d="M 0,367 H 340 V 0 H 0 Z"
         id="path6" />
    </clipPath>
    <clipPath
       clipPathUnits="userSpaceOnUse"
       id="clipPath8">
      <path
         d="M 0,367 H 340 V 0 H 0 Z"
         id="path8" />
    </clipPath>
    <clipPath
       clipPathUnits="userSpaceOnUse"
       id="clipPath10">
      <path
         d="M 0,367 H 340 V 0 H 0 Z"
         id="path10" />
    </clipPath>
    <clipPath
       clipPathUnits="userSpaceOnUse"
       id="clipPath12">
      <path
         d="M 0,367 H 340 V 0 H 0 Z"
         id="path12" />
    </clipPath>
    <clipPath
       clipPathUnits="userSpaceOnUse"
       id="clipPath14">
      <path
         d="M 0,367 H 340 V 0 H 0 Z"
         id="path14" />
    </clipPath>
    <clipPath
       clipPathUnits="userSpaceOnUse"
       id="clipPath16">
      <path
         d="M 0,367 H 340 V 0 H 0 Z"
         id="path16" />
    </clipPath>
    <clipPath
       clipPathUnits="userSpaceOnUse"
       id="clipPath18">
      <path
         d="M 0,367 H 340 V 0 H 0 Z"
         id="path18" />
    </clipPath>
    <clipPath
       clipPathUnits="userSpaceOnUse"
       id="clipPath20">
      <path
         d="M 0,367 H 340 V 0 H 0 Z"
         id="path20" />
    </clipPath>
    <clipPath
       clipPathUnits="userSpaceOnUse"
       id="clipPath22">
      <path
         d="M 0,367 H 340 V 0 H 0 Z"
         id="path22" />
    </clipPath>
    <clipPath
       clipPathUnits="userSpaceOnUse"
       id="clipPath24">
      <path
         d="M 0,367 H 340 V 0 H 0 Z"
         id="path24" />
    </clipPath>
    <clipPath
       clipPathUnits="userSpaceOnUse"
       id="clipPath26">
      <path
         d="M 0,367 H 340 V 0 H 0 Z"
         id="path26" />
    </clipPath>
    <clipPath
       clipPathUnits="userSpaceOnUse"
       id="clipPath28">
      <path
         d="M 0,367 H 340 V 0 H 0 Z"
         id="path28" />
    </clipPath>
    <clipPath
       clipPathUnits="userSpaceOnUse"
       id="clipPath30">
      <path
         d="M 0,367 H 340 V 0 H 0 Z"
         id="path30" />
    </clipPath>
    <clipPath
       clipPathUnits="userSpaceOnUse"
       id="clipPath32">
      <path
         d="M 0,367 H 340 V 0 H 0 Z"
         id="path32" />
    </clipPath>
    <clipPath
       clipPathUnits="userSpaceOnUse"
       id="clipPath34">
      <path
         d="M 0,367 H 340 V 0 H 0 Z"
         id="path34" />
    </clipPath>
    <clipPath
       clipPathUnits="userSpaceOnUse"
       id="clipPath36">
      <path
         d="M 0,367 H 340 V 0 H 0 Z"
         id="path36" />
    </clipPath>
    <clipPath
       clipPathUnits="userSpaceOnUse"
       id="clipPath38">
      <path
         d="M 0,367 H 340 V 0 H 0 Z"
         id="path38" />
    </clipPath>
    <clipPath
       clipPathUnits="userSpaceOnUse"
       id="clipPath40">
      <path
         d="M 0,367 H 340 V 0 H 0 Z"
         id="path40" />
    </clipPath>
    <clipPath
       clipPathUnits="userSpaceOnUse"
       id="clipPath42">
      <path
         d="M 0,367 H 340 V 0 H 0 Z"
         id="path42" />
    </clipPath>
    <clipPath
       clipPathUnits="userSpaceOnUse"
       id="clipPath44">
      <path
         d="M 0,367 H 340 V 0 H 0 Z"
         id="path44" />
    </clipPath>
    <clipPath
       clipPathUnits="userSpaceOnUse"
       id="clipPath46">
      <path
         d="M 0,367 H 340 V 0 H 0 Z"
         id="path46" />
    </clipPath>
    <clipPath
       clipPathUnits="userSpaceOnUse"
       id="clipPath48">
      <path
         d="M 0,367 H 340 V 0 H 0 Z"
         id="path48" />
    </clipPath>
    <clipPath
       clipPathUnits="userSpaceOnUse"
       id="clipPath50">
      <path
         d="M 0,367 H 340 V 0 H 0 Z"
         id="path50" />
    </clipPath>
    <clipPath
       clipPathUnits="userSpaceOnUse"
       id="clipPath52">
      <path
         d="M 0,367 H 340 V 0 H 0 Z"
         id="path52" />
    </clipPath>
    <clipPath
       clipPathUnits="userSpaceOnUse"
       id="clipPath54">
      <path
         d="M 0,367 H 340 V 0 H 0 Z"
         id="path54" />
    </clipPath>
    <clipPath
       clipPathUnits="userSpaceOnUse"
       id="clipPath56">
      <path
         d="M 0,367 H 340 V 0 H 0 Z"
         id="path56" />
    </clipPath>
    <clipPath
       clipPathUnits="userSpaceOnUse"
       id="clipPath58">
      <path
         d="M 0,367 H 340 V 0 H 0 Z"
         id="path58" />
    </clipPath>
    <clipPath
       clipPathUnits="userSpaceOnUse"
       id="clipPath60">
      <path
         d="M 0,367 H 340 V 0 H 0 Z"
         id="path60" />
    </clipPath>
    <clipPath
       clipPathUnits="userSpaceOnUse"
       id="clipPath62">
      <path
         d="M 0,367 H 340 V 0 H 0 Z"
         id="path62" />
    </clipPath>
    <clipPath
       clipPathUnits="userSpaceOnUse"
       id="clipPath64">
      <path
         d="M 0,367 H 340 V 0 H 0 Z"
         id="path64" />
    </clipPath>
    <clipPath
       clipPathUnits="userSpaceOnUse"
       id="clipPath66">
      <path
         d="M 0,367 H 340 V 0 H 0 Z"
         id="path66" />
    </clipPath>
    <clipPath
       clipPathUnits="userSpaceOnUse"
       id="clipPath68">
      <path
         d="M 0,367 H 340 V 0 H 0 Z"
         id="path68" />
    </clipPath>
    <clipPath
       clipPathUnits="userSpaceOnUse"
       id="clipPath70">
      <path
         d="M 0,367 H 340 V 0 H 0 Z"
         id="path70" />
    </clipPath>
    <clipPath
       clipPathUnits="userSpaceOnUse"
       id="clipPath72">
      <path
         d="M 0,367 H 340 V 0 H 0 Z"
         id="path72" />
    </clipPath>
    <clipPath
       clipPathUnits="userSpaceOnUse"
       id="clipPath74">
      <path
         d="M 0,367 H 340 V 0 H 0 Z"
         id="path74" />
    </clipPath>
    <clipPath
       clipPathUnits="userSpaceOnUse"
       id="clipPath76">
      <path
         d="M 0,367 H 340 V 0 H 0 Z"
         id="path76" />
    </clipPath>
    <clipPath
       clipPathUnits="userSpaceOnUse"
       id="clipPath78">
      <path
         d="M 0,367 H 340 V 0 H 0 Z"
         id="path78" />
    </clipPath>
    <clipPath
       clipPathUnits="userSpaceOnUse"
       id="clipPath80">
      <path
         d="M 0,367 H 340 V 0 H 0 Z"
         id="path80" />
    </clipPath>
    <clipPath
       clipPathUnits="userSpaceOnUse"
       id="clipPath82">
      <path
         d="M 0,367 H 340 V 0 H 0 Z"
         id="path82" />
    </clipPath>
    <clipPath
       clipPathUnits="userSpaceOnUse"
       id="clipPath84">
      <path
         d="M 0,367 H 340 V 0 H 0 Z"
         id="path84" />
    </clipPath>
    <clipPath
       clipPathUnits="userSpaceOnUse"
       id="clipPath86">
      <path
         d="M 0,367 H 340 V 0 H 0 Z"
         id="path86" />
    </clipPath>
    <clipPath
       clipPathUnits="userSpaceOnUse"
       id="clipPath88">
      <path
         d="M 0,367 H 340 V 0 H 0 Z"
         id="path88" />
    </clipPath>
  </defs>
  <sodipodi:namedview
     id="namedview1"
     pagecolor="#505050"
     bordercolor="#eeeeee"
     borderopacity="1"
     inkscape:showpageshadow="0"
     inkscape:pageopacity="0"
     inkscape:pagecheckerboard="0"
     inkscape:deskcolor="#d1d1d1">
    <inkscape:page
       x="0"
       y="0"
       inkscape:label="1"
       id="page1"
       width="45.639999"
       height="48.973331"
       margin="0"
       bleed="0" />
  </sodipodi:namedview>
  <g
     id="g1"
     inkscape:groupmode="layer"
     inkscape:label="1">
    <path
       id="path1"
       d="M 171.156,3.32031 4.30078,90.9063 V 277.422 L 171.156,189.844 V 3.32031"
       style="fill:#087fbf;fill-opacity:1;fill-rule:nonzero;stroke:none"
       transform="matrix(0.13333333,0,0,-0.13333333,0,48.973333)"
       clip-path="url(#clipPath2)" />
    <path
       id="path3"
       d="M 171.156,3.32031 4.30078,90.9063 V 277.422 L 171.156,189.844 Z"
       style="fill:none;stroke:#ffffff;stroke-width:4;stroke-linecap:butt;stroke-linejoin:miter;stroke-miterlimit:4;stroke-dasharray:none;stroke-opacity:1"
       transform="matrix(0.13333333,0,0,-0.13333333,0,48.973333)"
       clip-path="url(#clipPath4)" />
    <path
       id="path5"
       d="M 171.156,3.32031 338.031,90.9063 V 277.422 L 171.156,189.844 V 3.32031"
       style="fill:#087fbf;fill-opacity:1;fill-rule:nonzero;stroke:none"
       transform="matrix(0.13333333,0,0,-0.13333333,0,48.973333)"
       clip-path="url(#clipPath6)" />
    <path
       id="path7"
       d="M 171.156,3.32031 338.031,90.9063 V 277.422 L 171.156,189.844 Z"
       style="fill:none;stroke:#ffffff;stroke-width:4;stroke-linecap:butt;stroke-linejoin:miter;stroke-miterlimit:4;stroke-dasharray:none;stroke-opacity:1"
       transform="matrix(0.13333333,0,0,-0.13333333,0,48.973333)"
       clip-path="url(#clipPath8)" />
    <path
       id="path9"
       d="M 171.156,189.844 338.031,277.422 171.156,365 4.30078,277.422 171.156,189.844"
       style="fill:#087fbf;fill-opacity:1;fill-rule:nonzero;stroke:#ffffff;stroke-width:4;stroke-linecap:butt;stroke-linejoin:miter;stroke-miterlimit:4;stroke-dasharray:none;stroke-opacity:1"
       transform="matrix(0.13333333,0,0,-0.13333333,0,48.973333)"
       clip-path="url(#clipPath10)" />
    <path
       id="path11"
       d="M 338.031,91.5938 171.156,3.32031 V 189.152 l 166.875,88.27 V 91.5938"
       style="fill:#087fbf;fill-opacity:1;fill-rule:nonzero;stroke:none"
       transform="matrix(0.13333333,0,0,-0.13333333,0,48.973333)"
       clip-path="url(#clipPath12)" />
    <path
       id="path13"
       d="M 338.031,91.5938 171.156,3.32031 V 189.152 l 166.875,88.27 z"
       style="fill:none;stroke:#ffffff;stroke-width:4;stroke-linecap:butt;stroke-linejoin:miter;stroke-miterlimit:4;stroke-dasharray:none;stroke-opacity:1"
       transform="matrix(0.13333333,0,0,-0.13333333,0,48.973333)"
       clip-path="url(#clipPath14)" />
    <path
       id="path15"
       d="m 171.156,267.199 35.078,-18.793 H 185.18 v -35.054 h -28.047 v 35.054 h -21.035 l 35.058,18.793"
       style="fill:#ffffff;fill-opacity:1;fill-rule:nonzero;stroke:none"
       transform="matrix(0.13333333,0,0,-0.13333333,0,48.973333)"
       clip-path="url(#clipPath16)" />
    <path
       id="path17"
       d="M 298.559,277.375 263.5,258.586 v 11.277 h -65.449 v 15.02 H 263.5 v 11.269 l 35.059,-18.777"
       style="fill:#ffffff;fill-opacity:1;fill-rule:nonzero;stroke:none"
       transform="matrix(0.13333333,0,0,-0.13333333,0,48.973333)"
       clip-path="url(#clipPath18)" />
    <path
       id="path19"
       d="m 171.156,286.289 -35.058,18.781 h 21.035 v 35.067 H 185.18 V 305.07 h 21.054 l -35.078,-18.781"
       style="fill:#ffffff;fill-opacity:1;fill-rule:nonzero;stroke:none"
       transform="matrix(0.13333333,0,0,-0.13333333,0,48.973333)"
       clip-path="url(#clipPath20)" />
    <path
       id="path21"
       d="m 43.7656,277.375 35.0664,18.777 v -11.269 h 65.449 v -15.02 H 78.832 v -11.277 l -35.0664,18.789"
       style="fill:#ffffff;fill-opacity:1;fill-rule:nonzero;stroke:none"
       transform="matrix(0.13333333,0,0,-0.13333333,0,48.973333)"
       clip-path="url(#clipPath22)" />
    <path
       id="path23"
       d="M 322.465,145.078 V 251.066 L 194.145,183.137 V 77.1484 l 128.32,67.9296"
       style="fill:#ffffff;fill-opacity:1;fill-rule:nonzero;stroke:none"
       transform="matrix(0.13333333,0,0,-0.13333333,0,48.973333)"
       clip-path="url(#clipPath24)" />
    <path
       id="path25"
       d="M 322.465,145.078 V 251.066 L 194.145,183.137 V 77.1484 Z"
       style="fill:none;stroke:#087fbf;stroke-width:4;stroke-linecap:round;stroke-linejoin:round;stroke-miterlimit:4;stroke-dasharray:none;stroke-opacity:1"
       transform="matrix(0.13333333,0,0,-0.13333333,0,48.973333)"
       clip-path="url(#clipPath26)" />
    <path
       id="path27"
       d="m 212.777,181.945 90.137,47.703 c 5.879,3.094 10.625,0.411 10.625,-6.015 V 161.27 c 0,-6.426 -4.746,-14.153 -10.625,-17.254 L 212.777,96.3086 c -5.859,-3.1055 -10.605,-0.418 -10.605,6.0074 v 62.364 c 0,6.433 4.746,14.16 10.605,17.265"
       style="fill:#ffffff;fill-opacity:1;fill-rule:nonzero;stroke:none"
       transform="matrix(0.13333333,0,0,-0.13333333,0,48.973333)"
       clip-path="url(#clipPath28)" />
    <path
       id="path29"
       d="m 212.777,181.945 90.137,47.703 c 5.879,3.094 10.625,0.411 10.625,-6.015 V 161.27 c 0,-6.426 -4.746,-14.153 -10.625,-17.254 L 212.777,96.3086 c -5.859,-3.1055 -10.605,-0.418 -10.605,6.0074 v 62.364 c 0,6.433 4.746,14.16 10.605,17.265 z"
       style="fill:none;stroke:#087fbf;stroke-width:4;stroke-linecap:round;stroke-linejoin:round;stroke-miterlimit:4;stroke-dasharray:none;stroke-opacity:1"
       transform="matrix(0.13333333,0,0,-0.13333333,0,48.973333)"
       clip-path="url(#clipPath30)" />
    <path
       id="path31"
       d="M 294.164,117.004 222.445,79.0313 v 13.1093 l 71.719,37.9684 v -13.105"
       style="fill:#ffffff;fill-opacity:1;fill-rule:nonzero;stroke:none"
       transform="matrix(0.13333333,0,0,-0.13333333,0,48.973333)"
       clip-path="url(#clipPath32)" />
    <path
       id="path33"
       d="M 294.164,117.004 222.445,79.0313 v 13.1093 l 71.719,37.9684 z"
       style="fill:none;stroke:#087fbf;stroke-width:4;stroke-linecap:round;stroke-linejoin:round;stroke-miterlimit:4;stroke-dasharray:none;stroke-opacity:1"
       transform="matrix(0.13333333,0,0,-0.13333333,0,48.973333)"
       clip-path="url(#clipPath34)" />
    <path
       id="path35"
       d="M 322.465,101.008 194.145,33.0742 v 30.8125 l 128.32,67.9293 v -30.808"
       style="fill:#ffffff;fill-opacity:1;fill-rule:nonzero;stroke:none"
       transform="matrix(0.13333333,0,0,-0.13333333,0,48.973333)"
       clip-path="url(#clipPath36)" />
    <path
       id="path37"
       d="M 322.465,101.008 194.145,33.0742 v 30.8125 l 128.32,67.9293 z"
       style="fill:none;stroke:#087fbf;stroke-width:4;stroke-linecap:round;stroke-linejoin:round;stroke-miterlimit:4;stroke-dasharray:none;stroke-opacity:1"
       transform="matrix(0.13333333,0,0,-0.13333333,0,48.973333)"
       clip-path="url(#clipPath38)" />
    <path
       id="path39"
       d="M 326.527,96.8242 190.102,24.6172 V 37.7266 L 326.527,109.934 V 96.8242"
       style="fill:#ffffff;fill-opacity:1;fill-rule:nonzero;stroke:none"
       transform="matrix(0.13333333,0,0,-0.13333333,0,48.973333)"
       clip-path="url(#clipPath40)" />
    <path
       id="path41"
       d="M 326.527,96.8242 190.102,24.6172 v 13.1094 l 136.425,72.2074 z"
       style="fill:none;stroke:#087fbf;stroke-width:4;stroke-linecap:round;stroke-linejoin:round;stroke-miterlimit:4;stroke-dasharray:none;stroke-opacity:1"
       transform="matrix(0.13333333,0,0,-0.13333333,0,48.973333)"
       clip-path="url(#clipPath42)" />
    <path
       id="path43"
       d="m 261.645,156.145 -15.079,-24.231 v 54.207 l 36.153,-19.91 -21.074,-10.066"
       style="fill:#087fbf;fill-opacity:1;fill-rule:nonzero;stroke:none"
       transform="matrix(0.13333333,0,0,-0.13333333,0,48.973333)"
       clip-path="url(#clipPath44)" />
    <path
       id="path45"
       d="m 260.258,154.766 10.312,-20.496 2.774,2.742 -10.313,20.5 -2.773,-2.746"
       style="fill:#747272;fill-opacity:1;fill-rule:nonzero;stroke:none"
       transform="matrix(0.13333333,0,0,-0.13333333,0,48.973333)"
       clip-path="url(#clipPath46)" />
    <path
       id="path47"
       d="M 159.438,60.7344 V 102.102 L 134.516,95.1875 159.438,60.7344"
       style="fill:#ffffff;fill-opacity:1;fill-rule:nonzero;stroke:none"
       transform="matrix(0.13333333,0,0,-0.13333333,0,48.973333)"
       clip-path="url(#clipPath48)" />
    <path
       id="path49"
       d="M 159.438,60.7344 V 102.102 L 134.516,95.1875 Z"
       style="fill:none;stroke:#ffffff;stroke-width:0.76;stroke-linecap:butt;stroke-linejoin:miter;stroke-miterlimit:4;stroke-dasharray:none;stroke-opacity:1"
       transform="matrix(0.13333333,0,0,-0.13333333,0,48.973333)"
       clip-path="url(#clipPath50)" />
    <path
       id="path51"
       d="m 17.3203,134.922 v 41.359 l 24.9024,-32.793 -24.9024,-8.566"
       style="fill:#ffffff;fill-opacity:1;fill-rule:nonzero;stroke:none"
       transform="matrix(0.13333333,0,0,-0.13333333,0,48.973333)"
       clip-path="url(#clipPath52)" />
    <path
       id="path53"
       d="m 17.3203,134.922 v 41.359 l 24.9024,-32.793 z"
       style="fill:none;stroke:#ffffff;stroke-width:0.76;stroke-linecap:butt;stroke-linejoin:miter;stroke-miterlimit:4;stroke-dasharray:none;stroke-opacity:1"
       transform="matrix(0.13333333,0,0,-0.13333333,0,48.973333)"
       clip-path="url(#clipPath54)" />
    <path
       id="path55"
       d="M 34.0273,208.34 V 166.973 L 9.10547,199.797 34.0273,208.34"
       style="fill:#ffffff;fill-opacity:1;fill-rule:nonzero;stroke:none"
       transform="matrix(0.13333333,0,0,-0.13333333,0,48.973333)"
       clip-path="url(#clipPath56)" />
    <path
       id="path57"
       d="M 34.0273,208.34 V 166.973 L 9.10547,199.797 Z"
       style="fill:none;stroke:#ffffff;stroke-width:0.76;stroke-linecap:butt;stroke-linejoin:miter;stroke-miterlimit:4;stroke-dasharray:none;stroke-opacity:1"
       transform="matrix(0.13333333,0,0,-0.13333333,0,48.973333)"
       clip-path="url(#clipPath58)" />
    <path
       id="path59"
       d="m 140.824,152.52 v -41.36 l 24.922,6.899 -24.922,34.461"
       style="fill:#ffffff;fill-opacity:1;fill-rule:nonzero;stroke:none"
       transform="matrix(0.13333333,0,0,-0.13333333,0,48.973333)"
       clip-path="url(#clipPath60)" />
    <path
       id="path61"
       d="m 140.824,152.52 v -41.36 l 24.922,6.899 z"
       style="fill:none;stroke:#ffffff;stroke-width:0.76;stroke-linecap:butt;stroke-linejoin:miter;stroke-miterlimit:4;stroke-dasharray:none;stroke-opacity:1"
       transform="matrix(0.13333333,0,0,-0.13333333,0,48.973333)"
       clip-path="url(#clipPath62)" />
    <path
       id="path63"
       d="m 146.234,129.563 -15.039,7.808"
       style="fill:#ffffff;fill-opacity:1;fill-rule:nonzero;stroke:none"
       transform="matrix(0.13333333,0,0,-0.13333333,0,48.973333)"
       clip-path="url(#clipPath64)" />
    <path
       id="path65"
       d="m 129.555,131.504 15.058,-7.813 3.262,6.731 -17.793,9.219 -0.527,-8.137"
       style="fill:#ffffff;fill-opacity:1;fill-rule:nonzero;stroke:none"
       transform="matrix(0.13333333,0,0,-0.13333333,0,48.973333)"
       clip-path="url(#clipPath66)" />
    <path
       id="path67"
       d="m 151.488,86.6992 18.828,-9.7851"
       style="fill:#ffffff;fill-opacity:1;fill-rule:nonzero;stroke:#ffffff;stroke-width:7.6;stroke-linecap:butt;stroke-linejoin:miter;stroke-miterlimit:4;stroke-dasharray:none;stroke-opacity:1"
       transform="matrix(0.13333333,0,0,-0.13333333,0,48.973333)"
       clip-path="url(#clipPath68)" />
    <path
       id="path69"
       d="M 23.9805,153.281 3.92188,163.711"
       style="fill:#ffffff;fill-opacity:1;fill-rule:nonzero;stroke:#ffffff;stroke-width:7.6;stroke-linecap:butt;stroke-linejoin:miter;stroke-miterlimit:4;stroke-dasharray:none;stroke-opacity:1"
       transform="matrix(0.13333333,0,0,-0.13333333,0,48.973333)"
       clip-path="url(#clipPath70)" />
    <path
       id="path71"
       d="M 24.8398,191.73 43.668,181.926"
       style="fill:#ffffff;fill-opacity:1;fill-rule:nonzero;stroke:none"
       transform="matrix(0.13333333,0,0,-0.13333333,0,48.973333)"
       clip-path="url(#clipPath72)" />
    <path
       id="path73"
       d="m 23.207,188.367 21.8672,-11.168 0.2227,8.094 -18.8281,9.785 -3.2618,-6.711"
       style="fill:#ffffff;fill-opacity:1;fill-rule:nonzero;stroke:none"
       transform="matrix(0.13333333,0,0,-0.13333333,0,48.973333)"
       clip-path="url(#clipPath74)" />
    <path
       id="path75"
       d="M 117.777,144.656 117.641,61.2383 58.6758,92.2461 58.5586,175.801 117.777,144.656"
       style="fill:#ffffff;fill-opacity:1;fill-rule:nonzero;stroke:none"
       transform="matrix(0.13333333,0,0,-0.13333333,0,48.973333)"
       clip-path="url(#clipPath76)" />
    <path
       id="path77"
       d="m 107.426,126.121 -38.2424,20.238 v 15.204 l 38.2424,-20.235 v -15.207"
       style="fill:#ffffff;fill-opacity:1;fill-rule:nonzero;stroke:none"
       transform="matrix(0.13333333,0,0,-0.13333333,0,48.973333)"
       clip-path="url(#clipPath78)" />
    <path
       id="path79"
       d="m 107.426,126.121 -38.2424,20.238 v 15.204 l 38.2424,-20.235 z"
       style="fill:none;stroke:#087fbf;stroke-width:4;stroke-linecap:butt;stroke-linejoin:miter;stroke-miterlimit:4;stroke-dasharray:none;stroke-opacity:1"
       transform="matrix(0.13333333,0,0,-0.13333333,0,48.973333)"
       clip-path="url(#clipPath80)" />
    <path
       id="path81"
       d="M 107.426,74.5703 69.1836,94.8047 V 132.805 L 107.426,112.57 V 74.5703"
       style="fill:#ffffff;fill-opacity:1;fill-rule:nonzero;stroke:none"
       transform="matrix(0.13333333,0,0,-0.13333333,0,48.973333)"
       clip-path="url(#clipPath82)" />
    <path
       id="path83"
       d="M 107.426,74.5703 69.1836,94.8047 V 132.805 L 107.426,112.57 Z"
       style="fill:none;stroke:#087fbf;stroke-width:4;stroke-linecap:butt;stroke-linejoin:miter;stroke-miterlimit:4;stroke-dasharray:none;stroke-opacity:1"
       transform="matrix(0.13333333,0,0,-0.13333333,0,48.973333)"
       clip-path="url(#clipPath84)" />
    <path
       id="path85"
       d="m 101.578,177.52 c 0,0 1.981,-0.547 3.32,-6.055 l 0.321,-9.324 25.508,-15.93 2.793,5.48 -7.442,16.778 C 103.336,185 97.9336,187.781 97.9336,187.781 l -7.0508,3.891 c 0,0 -19.5898,8.125 -30.0586,11.016 l -12.1679,-5.11 -1.5313,-7.961 26.668,-10.039 0.2929,7.395 c 0.793,4.375 5.6172,1.347 5.6172,1.347 l 21.8749,-10.8"
       style="fill:#ffffff;fill-opacity:1;fill-rule:nonzero;stroke:none"
       transform="matrix(0.13333333,0,0,-0.13333333,0,48.973333)"
       clip-path="url(#clipPath86)" />
    <path
       id="path87"
       d="M 107.426,119.473 69.1836,139.707"
       style="fill:#ffffff;fill-opacity:1;fill-rule:nonzero;stroke:#087fbf;stroke-width:4;stroke-linecap:butt;stroke-linejoin:miter;stroke-miterlimit:4;stroke-dasharray:none;stroke-opacity:1"
       transform="matrix(0.13333333,0,0,-0.13333333,0,48.973333)"
       clip-path="url(#clipPath88)" />
  </g>
</svg>
