<?xml version="1.0" encoding="UTF-8" standalone="no"?>
<!-- Created with Inkscape (http://www.inkscape.org/) -->

<svg
   version="1.1"
   id="svg1"
   width="85.440002"
   height="47.133331"
   viewBox="0 0 85.440002 47.133331"
   sodipodi:docname="ip communicator.eps"
   xmlns:inkscape="http://www.inkscape.org/namespaces/inkscape"
   xmlns:sodipodi="http://sodipodi.sourceforge.net/DTD/sodipodi-0.dtd"
   xmlns="http://www.w3.org/2000/svg"
   xmlns:svg="http://www.w3.org/2000/svg">
  <defs
     id="defs1" />
  <sodipodi:namedview
     id="namedview1"
     pagecolor="#505050"
     bordercolor="#eeeeee"
     borderopacity="1"
     inkscape:showpageshadow="0"
     inkscape:pageopacity="0"
     inkscape:pagecheckerboard="0"
     inkscape:deskcolor="#d1d1d1">
    <inkscape:page
       x="0"
       y="0"
       inkscape:label="1"
       id="page1"
       width="85.440002"
       height="47.133331"
       margin="0"
       bleed="0" />
  </sodipodi:namedview>
  <g
     id="g1"
     inkscape:groupmode="layer"
     inkscape:label="1">
    <path
       id="path1"
       d="M 391.113,165.168 426.055,348.77 H 159.633 L 120.395,165.168 h 270.718"
       style="fill:#087fbf;fill-opacity:1;fill-rule:nonzero;stroke:none"
       transform="matrix(0.13333333,0,0,-0.13333333,0,47.133333)" />
    <path
       id="path2"
       d="M 391.113,165.168 426.055,348.77 H 159.633 L 120.395,165.168 Z"
       style="fill:none;stroke:#ffffff;stroke-width:4;stroke-linecap:butt;stroke-linejoin:miter;stroke-miterlimit:4;stroke-dasharray:none;stroke-opacity:1"
       transform="matrix(0.13333333,0,0,-0.13333333,0,47.133333)" />
    <path
       id="path3"
       d="m 426.055,348.77 10.41,-13.477 -32.481,-178.086 -12.871,7.961 34.942,183.602"
       style="fill:#087fbf;fill-opacity:1;fill-rule:nonzero;stroke:none"
       transform="matrix(0.13333333,0,0,-0.13333333,0,47.133333)" />
    <path
       id="path4"
       d="m 426.055,348.77 10.41,-13.477 -32.481,-178.086 -12.871,7.961 z"
       style="fill:none;stroke:#ffffff;stroke-width:4;stroke-linecap:butt;stroke-linejoin:miter;stroke-miterlimit:4;stroke-dasharray:none;stroke-opacity:1"
       transform="matrix(0.13333333,0,0,-0.13333333,0,47.133333)" />
    <path
       id="path5"
       d="m 120.395,165.168 11.64,-7.961 h 271.949 l -12.871,7.961 H 120.395"
       style="fill:#087fbf;fill-opacity:1;fill-rule:nonzero;stroke:none"
       transform="matrix(0.13333333,0,0,-0.13333333,0,47.133333)" />
    <path
       id="path6"
       d="m 120.395,165.168 11.64,-7.961 h 271.949 l -12.871,7.961 z"
       style="fill:none;stroke:#ffffff;stroke-width:4;stroke-linecap:butt;stroke-linejoin:miter;stroke-miterlimit:4;stroke-dasharray:none;stroke-opacity:1"
       transform="matrix(0.13333333,0,0,-0.13333333,0,47.133333)" />
    <path
       id="path7"
       d="m 393.574,152.605 v -27.246 l -7.051,-6.132 c 0,0 -16.543,-4.891 -12.871,-14.684 L 299.863,35.9258 v 30.0234 l 93.711,86.6558"
       style="fill:#087fbf;fill-opacity:1;fill-rule:nonzero;stroke:none"
       transform="matrix(0.13333333,0,0,-0.13333333,0,47.133333)" />
    <path
       id="path8"
       d="m 393.574,152.605 v -27.246 l -7.051,-6.132 c 0,0 -16.543,-4.891 -12.871,-14.684 L 299.863,35.9258 v 30.0234 z"
       style="fill:none;stroke:#ffffff;stroke-width:4;stroke-linecap:butt;stroke-linejoin:miter;stroke-miterlimit:4;stroke-dasharray:none;stroke-opacity:1"
       transform="matrix(0.13333333,0,0,-0.13333333,0,47.133333)" />
    <path
       id="path9"
       d="m 6.17578,35.9258 h 293.688 V 65.9492 H 6.17578 Z"
       style="fill:#087fbf;fill-opacity:1;fill-rule:nonzero;stroke:none"
       transform="matrix(0.13333333,0,0,-0.13333333,0,47.133333)" />
    <path
       id="path10"
       d="M 6.17578,65.9492 V 35.9258 H 299.863 V 65.9492 H 6.17578"
       style="fill:none;stroke:#ffffff;stroke-width:4;stroke-linecap:butt;stroke-linejoin:miter;stroke-miterlimit:4;stroke-dasharray:none;stroke-opacity:1"
       transform="matrix(0.13333333,0,0,-0.13333333,0,47.133333)" />
    <path
       id="path11"
       d="m 123.461,150.77 270.113,1.835 -93.711,-86.6558 H 6.17578 L 123.461,150.77"
       style="fill:#087fbf;fill-opacity:1;fill-rule:nonzero;stroke:#ffffff;stroke-width:4;stroke-linecap:butt;stroke-linejoin:miter;stroke-miterlimit:4;stroke-dasharray:none;stroke-opacity:1"
       transform="matrix(0.13333333,0,0,-0.13333333,0,47.133333)" />
    <path
       id="path12"
       d="m 368.516,183.055 27.89,143.789 H 179.77 L 151.879,183.055 h 216.637"
       style="fill:#087fbf;fill-opacity:1;fill-rule:nonzero;stroke:none"
       transform="matrix(0.13333333,0,0,-0.13333333,0,47.133333)" />
    <path
       id="path13"
       d="m 368.516,183.055 27.89,143.789 H 179.77 L 151.879,183.055 Z"
       style="fill:none;stroke:#ffffff;stroke-width:4;stroke-linecap:butt;stroke-linejoin:miter;stroke-miterlimit:4;stroke-dasharray:none;stroke-opacity:1"
       transform="matrix(0.13333333,0,0,-0.13333333,0,47.133333)" />
    <path
       id="path14"
       d="M 129.809,148.855 61.6836,93.8477"
       style="fill:none;stroke:#ffffff;stroke-width:1;stroke-linecap:butt;stroke-linejoin:round;stroke-miterlimit:4;stroke-dasharray:none;stroke-opacity:1"
       transform="matrix(0.13333333,0,0,-0.13333333,0,47.133333)" />
    <path
       id="path15"
       d="M 151.684,148.855 83.5586,93.8477"
       style="fill:none;stroke:#ffffff;stroke-width:1;stroke-linecap:butt;stroke-linejoin:round;stroke-miterlimit:4;stroke-dasharray:none;stroke-opacity:1"
       transform="matrix(0.13333333,0,0,-0.13333333,0,47.133333)" />
    <path
       id="path16"
       d="M 173.559,148.855 105.434,93.8477"
       style="fill:none;stroke:#ffffff;stroke-width:1;stroke-linecap:butt;stroke-linejoin:round;stroke-miterlimit:4;stroke-dasharray:none;stroke-opacity:1"
       transform="matrix(0.13333333,0,0,-0.13333333,0,47.133333)" />
    <path
       id="path17"
       d="M 195.434,148.855 127.309,93.8477"
       style="fill:none;stroke:#ffffff;stroke-width:1;stroke-linecap:butt;stroke-linejoin:round;stroke-miterlimit:4;stroke-dasharray:none;stroke-opacity:1"
       transform="matrix(0.13333333,0,0,-0.13333333,0,47.133333)" />
    <path
       id="path18"
       d="M 217.305,148.855 149.184,93.8477"
       style="fill:none;stroke:#ffffff;stroke-width:1;stroke-linecap:butt;stroke-linejoin:round;stroke-miterlimit:4;stroke-dasharray:none;stroke-opacity:1"
       transform="matrix(0.13333333,0,0,-0.13333333,0,47.133333)" />
    <path
       id="path19"
       d="M 239.18,148.855 171.059,93.8477"
       style="fill:none;stroke:#ffffff;stroke-width:1;stroke-linecap:butt;stroke-linejoin:round;stroke-miterlimit:4;stroke-dasharray:none;stroke-opacity:1"
       transform="matrix(0.13333333,0,0,-0.13333333,0,47.133333)" />
    <path
       id="path20"
       d="M 261.055,148.855 192.934,93.8477"
       style="fill:none;stroke:#ffffff;stroke-width:1;stroke-linecap:butt;stroke-linejoin:round;stroke-miterlimit:4;stroke-dasharray:none;stroke-opacity:1"
       transform="matrix(0.13333333,0,0,-0.13333333,0,47.133333)" />
    <path
       id="path21"
       d="M 282.93,148.855 214.805,93.8477"
       style="fill:none;stroke:#ffffff;stroke-width:1;stroke-linecap:butt;stroke-linejoin:round;stroke-miterlimit:4;stroke-dasharray:none;stroke-opacity:1"
       transform="matrix(0.13333333,0,0,-0.13333333,0,47.133333)" />
    <path
       id="path22"
       d="M 304.805,148.855 236.68,93.8477"
       style="fill:none;stroke:#ffffff;stroke-width:1;stroke-linecap:butt;stroke-linejoin:round;stroke-miterlimit:4;stroke-dasharray:none;stroke-opacity:1"
       transform="matrix(0.13333333,0,0,-0.13333333,0,47.133333)" />
    <path
       id="path23"
       d="M 326.68,148.855 258.555,93.8477"
       style="fill:none;stroke:#ffffff;stroke-width:1;stroke-linecap:butt;stroke-linejoin:round;stroke-miterlimit:4;stroke-dasharray:none;stroke-opacity:1"
       transform="matrix(0.13333333,0,0,-0.13333333,0,47.133333)" />
    <path
       id="path24"
       d="M 348.555,148.855 280.43,93.8477"
       style="fill:none;stroke:#ffffff;stroke-width:1;stroke-linecap:butt;stroke-linejoin:round;stroke-miterlimit:4;stroke-dasharray:none;stroke-opacity:1"
       transform="matrix(0.13333333,0,0,-0.13333333,0,47.133333)" />
    <path
       id="path25"
       d="M 370.43,148.855 302.305,93.8477"
       style="fill:none;stroke:#ffffff;stroke-width:1;stroke-linecap:butt;stroke-linejoin:round;stroke-miterlimit:4;stroke-dasharray:none;stroke-opacity:1"
       transform="matrix(0.13333333,0,0,-0.13333333,0,47.133333)" />
    <path
       id="path26"
       d="M 69.3008,99.6484 H 311.816"
       style="fill:none;stroke:#ffffff;stroke-width:1;stroke-linecap:butt;stroke-linejoin:round;stroke-miterlimit:4;stroke-dasharray:none;stroke-opacity:1"
       transform="matrix(0.13333333,0,0,-0.13333333,0,47.133333)" />
    <path
       id="path27"
       d="M 85.6094,112.254 H 324.375"
       style="fill:none;stroke:#ffffff;stroke-width:1;stroke-linecap:butt;stroke-linejoin:round;stroke-miterlimit:4;stroke-dasharray:none;stroke-opacity:1"
       transform="matrix(0.13333333,0,0,-0.13333333,0,47.133333)" />
    <path
       id="path28"
       d="M 102.523,124.852 H 340.664"
       style="fill:none;stroke:#ffffff;stroke-width:1;stroke-linecap:butt;stroke-linejoin:round;stroke-miterlimit:4;stroke-dasharray:none;stroke-opacity:1"
       transform="matrix(0.13333333,0,0,-0.13333333,0,47.133333)" />
    <path
       id="path29"
       d="M 117.582,137.469 H 357.598"
       style="fill:none;stroke:#ffffff;stroke-width:1;stroke-linecap:butt;stroke-linejoin:round;stroke-miterlimit:4;stroke-dasharray:none;stroke-opacity:1"
       transform="matrix(0.13333333,0,0,-0.13333333,0,47.133333)" />
    <path
       id="path30"
       d="m 265.289,280.223 h 39.137 c 9.496,-2.887 8.539,-10.489 8.539,-10.489 0,-7.586 -6.641,-9.539 -6.641,-9.539 h -71.312 c -13.293,1.008 -8.489,12.391 -8.489,12.391 l 30.235,34.766 c 4.82,4.824 15.824,0 15.824,0 6.941,-6.93 3.856,-13.114 3.856,-13.114 l -11.149,-14.015"
       style="fill:#ffffff;fill-opacity:1;fill-rule:nonzero;stroke:none"
       transform="matrix(0.13333333,0,0,-0.13333333,0,47.133333)" />
    <path
       id="path31"
       d="m 293.375,225.301 h -39.137 c -9.496,2.902 -8.535,10.492 -8.535,10.492 0,7.594 6.645,9.547 6.645,9.547 h 71.304 c 13.301,-1.004 8.496,-12.391 8.496,-12.391 L 301.91,198.172 c -4.832,-4.824 -15.824,0 -15.824,0 -6.949,6.957 -3.859,13.125 -3.859,13.125 l 11.148,14.004"
       style="fill:#ffffff;fill-opacity:1;fill-rule:nonzero;stroke:none"
       transform="matrix(0.13333333,0,0,-0.13333333,0,47.133333)" />
    <path
       id="path32"
       d="m 375.156,41.8047 c 0,-6.1524 -4.968,-11.1211 -11.133,-11.1211 -6.132,0 -11.121,4.9687 -11.121,11.1211 0,6.1328 4.989,11.1172 11.121,11.1172 6.165,0 11.133,-4.9844 11.133,-11.1172"
       style="fill:#231f20;fill-opacity:1;fill-rule:nonzero;stroke:none"
       transform="matrix(0.13333333,0,0,-0.13333333,0,47.133333)" />
    <path
       id="path33"
       d="M 570.48,23.2695 C 536.563,11.5625 474.23,8.65234 423.418,17.1602 389.922,22.7461 368.984,32.043 364.043,41.8047"
       style="fill:none;stroke:#000000;stroke-width:4;stroke-linecap:butt;stroke-linejoin:round;stroke-miterlimit:4;stroke-dasharray:none;stroke-opacity:1"
       transform="matrix(0.13333333,0,0,-0.13333333,0,47.133333)" />
    <path
       id="path34"
       d="m 439.348,79.8906 c 7.527,17.9336 21.199,36.1134 40.3,51.8364 47.383,39.043 110.215,48.214 140.34,20.48 30.129,-27.727 16.164,-81.8476 -31.218,-120.8906 -4.493,-3.7109 -9.122,-7.1289 -13.848,-10.2812"
       style="fill:none;stroke:#000000;stroke-width:10;stroke-linecap:butt;stroke-linejoin:round;stroke-miterlimit:4;stroke-dasharray:none;stroke-opacity:1"
       transform="matrix(0.13333333,0,0,-0.13333333,0,47.133333)" />
    <path
       id="path35"
       d="m 594.121,21.0352 c 0,-10.6133 -8.594,-19.19145 -19.199,-19.19145 -10.598,0 -19.199,8.57815 -19.199,19.19145 0,10.6054 8.601,19.1992 19.199,19.1992 10.605,0 19.199,-8.5938 19.199,-19.1992"
       style="fill:#231f20;fill-opacity:1;fill-rule:nonzero;stroke:none"
       transform="matrix(0.13333333,0,0,-0.13333333,0,47.133333)" />
    <path
       id="path36"
       d="m 594.121,21.0352 c 0,-10.6133 -8.594,-19.19145 -19.199,-19.19145 -10.598,0 -19.199,8.57815 -19.199,19.19145 0,10.6054 8.601,19.1992 19.199,19.1992 10.605,0 19.199,-8.5938 19.199,-19.1992 z"
       style="fill:none;stroke:#ffffff;stroke-width:4;stroke-linecap:butt;stroke-linejoin:miter;stroke-miterlimit:4;stroke-dasharray:none;stroke-opacity:1"
       transform="matrix(0.13333333,0,0,-0.13333333,0,47.133333)" />
    <path
       id="path37"
       d="m 450.266,80.0078 c 0,-6.1406 -4.993,-11.1211 -11.125,-11.1211 -6.145,0 -11.114,4.9805 -11.114,11.1211 0,6.1328 4.969,11.1172 11.114,11.1172 6.132,0 11.125,-4.9844 11.125,-11.1172"
       style="fill:#231f20;fill-opacity:1;fill-rule:nonzero;stroke:none"
       transform="matrix(0.13333333,0,0,-0.13333333,0,47.133333)" />
  </g>
</svg>
