<?xml version="1.0" encoding="UTF-8" standalone="no"?>
<!-- Created with Inkscape (http://www.inkscape.org/) -->

<svg
   version="1.1"
   id="svg1"
   width="41.546665"
   height="47.080002"
   viewBox="0 0 41.546665 47.080002"
   sodipodi:docname="ip.eps"
   xmlns:inkscape="http://www.inkscape.org/namespaces/inkscape"
   xmlns:sodipodi="http://sodipodi.sourceforge.net/DTD/sodipodi-0.dtd"
   xmlns="http://www.w3.org/2000/svg"
   xmlns:svg="http://www.w3.org/2000/svg">
  <defs
     id="defs1">
    <clipPath
       clipPathUnits="userSpaceOnUse"
       id="clipPath2">
      <path
         d="M 0,3 V 353 H 310 V 3 Z"
         id="path2" />
    </clipPath>
    <clipPath
       clipPathUnits="userSpaceOnUse"
       id="clipPath4">
      <path
         d="M 0,3 V 353 H 310 V 3 Z"
         id="path4" />
    </clipPath>
    <clipPath
       clipPathUnits="userSpaceOnUse"
       id="clipPath6">
      <path
         d="M 0,3 V 353 H 310 V 3 Z"
         id="path6" />
    </clipPath>
    <clipPath
       clipPathUnits="userSpaceOnUse"
       id="clipPath8">
      <path
         d="M 0,3 V 353 H 310 V 3 Z"
         id="path8" />
    </clipPath>
    <clipPath
       clipPathUnits="userSpaceOnUse"
       id="clipPath10">
      <path
         d="M 0,3 V 353 H 310 V 3 Z"
         id="path10" />
    </clipPath>
    <clipPath
       clipPathUnits="userSpaceOnUse"
       id="clipPath12">
      <path
         d="M 0,3 V 353 H 310 V 3 Z"
         id="path12" />
    </clipPath>
    <clipPath
       clipPathUnits="userSpaceOnUse"
       id="clipPath14">
      <path
         d="M 0,3 V 353 H 310 V 3 Z"
         id="path14" />
    </clipPath>
    <clipPath
       clipPathUnits="userSpaceOnUse"
       id="clipPath16">
      <path
         d="M 0,3 V 353 H 310 V 3 Z"
         id="path16" />
    </clipPath>
    <clipPath
       clipPathUnits="userSpaceOnUse"
       id="clipPath18">
      <path
         d="M 0,3 V 353 H 310 V 3 Z"
         id="path18" />
    </clipPath>
  </defs>
  <sodipodi:namedview
     id="namedview1"
     pagecolor="#505050"
     bordercolor="#eeeeee"
     borderopacity="1"
     inkscape:showpageshadow="0"
     inkscape:pageopacity="0"
     inkscape:pagecheckerboard="0"
     inkscape:deskcolor="#d1d1d1">
    <inkscape:page
       x="0"
       y="0"
       inkscape:label="1"
       id="page1"
       width="41.546665"
       height="47.080002"
       margin="0"
       bleed="0" />
  </sodipodi:namedview>
  <g
     id="g1"
     inkscape:groupmode="layer"
     inkscape:label="1">
    <path
       id="path1"
       d="M 255.449,4.66797 306.582,53.418 v 295 l -51.133,-48.75 V 4.66797"
       style="fill:#087fbf;fill-opacity:1;fill-rule:nonzero;stroke:none"
       transform="matrix(0.13333333,0,0,-0.13333333,0,47.08)"
       clip-path="url(#clipPath2)" />
    <path
       id="path3"
       d="M 255.449,4.66797 306.582,53.418 v 295 l -51.133,-48.75 z"
       style="fill:none;stroke:#ffffff;stroke-width:4;stroke-linecap:butt;stroke-linejoin:miter;stroke-miterlimit:4;stroke-dasharray:none;stroke-opacity:1"
       transform="matrix(0.13333333,0,0,-0.13333333,0,47.08)"
       clip-path="url(#clipPath4)" />
    <path
       id="path5"
       d="m 306.582,348.418 -51.133,-48.75 H 6 l 65,48.75 h 235.582"
       style="fill:#087fbf;fill-opacity:1;fill-rule:nonzero;stroke:none"
       transform="matrix(0.13333333,0,0,-0.13333333,0,47.08)"
       clip-path="url(#clipPath6)" />
    <path
       id="path7"
       d="m 306.582,348.418 -51.133,-48.75 H 6 l 65,48.75 z"
       style="fill:none;stroke:#ffffff;stroke-width:4;stroke-linecap:butt;stroke-linejoin:miter;stroke-miterlimit:4;stroke-dasharray:none;stroke-opacity:1"
       transform="matrix(0.13333333,0,0,-0.13333333,0,47.08)"
       clip-path="url(#clipPath8)" />
    <path
       id="path9"
       d="m 6.625,4.66797 h 248.824 v 295 H 6.625 Z"
       style="fill:#087fbf;fill-opacity:1;fill-rule:nonzero;stroke:none"
       transform="matrix(0.13333333,0,0,-0.13333333,0,47.08)"
       clip-path="url(#clipPath10)" />
    <path
       id="path11"
       d="M 255.449,4.66797 V 299.668 H 6.625 V 4.66797 Z"
       style="fill:none;stroke:#ffffff;stroke-width:4;stroke-linecap:butt;stroke-linejoin:miter;stroke-miterlimit:4;stroke-dasharray:none;stroke-opacity:1"
       transform="matrix(0.13333333,0,0,-0.13333333,0,47.08)"
       clip-path="url(#clipPath12)" />
    <path
       id="path13"
       d="m 136.078,256.809 h 9.133 l -13.41,20.222 -13.418,-20.222 h 9.043 V 42.1172 h -9.141 l 13.418,-20.2227 13.41,20.2227 h -9.035 V 256.809"
       style="fill:#ffffff;fill-opacity:1;fill-rule:nonzero;stroke:none"
       transform="matrix(0.13333333,0,0,-0.13333333,0,47.08)"
       clip-path="url(#clipPath14)" />
    <path
       id="path15"
       d="m 66.8125,256.809 h 9.1289 L 62.5352,277.031 49.125,256.809 h 9.043 V 42.1172 H 49.0273 L 62.4375,21.8945 75.8438,42.1172 H 66.8125 V 256.809"
       style="fill:#ffffff;fill-opacity:1;fill-rule:nonzero;stroke:none"
       transform="matrix(0.13333333,0,0,-0.13333333,0,47.08)"
       clip-path="url(#clipPath16)" />
    <path
       id="path17"
       d="m 202.285,256.809 h 9.121 l -13.398,20.222 -13.418,-20.222 h 9.043 V 42.1172 h -9.141 l 13.418,-20.2227 13.399,20.2227 h -9.024 V 256.809"
       style="fill:#ffffff;fill-opacity:1;fill-rule:nonzero;stroke:none"
       transform="matrix(0.13333333,0,0,-0.13333333,0,47.08)"
       clip-path="url(#clipPath18)" />
  </g>
</svg>
