<?xml version="1.0" encoding="UTF-8" standalone="no"?>
<!-- Created with Inkscape (http://www.inkscape.org/) -->

<svg
   version="1.1"
   id="svg1"
   width="65.053329"
   height="36.666668"
   viewBox="0 0 65.053329 36.666668"
   sodipodi:docname="iptc.eps"
   xmlns:inkscape="http://www.inkscape.org/namespaces/inkscape"
   xmlns:sodipodi="http://sodipodi.sourceforge.net/DTD/sodipodi-0.dtd"
   xmlns="http://www.w3.org/2000/svg"
   xmlns:svg="http://www.w3.org/2000/svg">
  <defs
     id="defs1" />
  <sodipodi:namedview
     id="namedview1"
     pagecolor="#505050"
     bordercolor="#eeeeee"
     borderopacity="1"
     inkscape:showpageshadow="0"
     inkscape:pageopacity="0"
     inkscape:pagecheckerboard="0"
     inkscape:deskcolor="#d1d1d1">
    <inkscape:page
       x="0"
       y="0"
       inkscape:label="1"
       id="page1"
       width="65.053329"
       height="36.666668"
       margin="0"
       bleed="0" />
  </sodipodi:namedview>
  <g
     id="g1"
     inkscape:groupmode="layer"
     inkscape:label="1">
    <path
       id="path1"
       d="M 5.65625,153.809 149.941,270.488 H 483.035 L 363.621,153.809 H 5.65625"
       style="fill:#087fbf;fill-opacity:1;fill-rule:nonzero;stroke:none"
       transform="matrix(0.13333333,0,0,-0.13333333,0,36.666667)" />
    <path
       id="path2"
       d="M 5.65625,153.809 149.941,270.488 H 483.035 L 363.621,153.809 Z"
       style="fill:none;stroke:#ffffff;stroke-width:4;stroke-linecap:butt;stroke-linejoin:miter;stroke-miterlimit:4;stroke-dasharray:none;stroke-opacity:1"
       transform="matrix(0.13333333,0,0,-0.13333333,0,36.666667)" />
    <path
       id="path3"
       d="M 363.621,4.89453 483.035,126.574 V 270.273 L 363.621,153.809 V 4.89453"
       style="fill:#087fbf;fill-opacity:1;fill-rule:nonzero;stroke:none"
       transform="matrix(0.13333333,0,0,-0.13333333,0,36.666667)" />
    <path
       id="path4"
       d="M 363.621,4.89453 483.035,126.574 V 270.273 L 363.621,153.809 Z"
       style="fill:none;stroke:#ffffff;stroke-width:4;stroke-linecap:butt;stroke-linejoin:miter;stroke-miterlimit:4;stroke-dasharray:none;stroke-opacity:1"
       transform="matrix(0.13333333,0,0,-0.13333333,0,36.666667)" />
    <path
       id="path5"
       d="m 6.14453,4.78516 h 357.477 v 149.023 H 6.14453 Z"
       style="fill:#087fbf;fill-opacity:1;fill-rule:nonzero;stroke:none"
       transform="matrix(0.13333333,0,0,-0.13333333,0,36.666667)" />
    <path
       id="path6"
       d="M 363.621,4.78516 V 153.809 H 6.14453 V 4.78516 Z"
       style="fill:none;stroke:#ffffff;stroke-width:4;stroke-linecap:butt;stroke-linejoin:miter;stroke-miterlimit:4;stroke-dasharray:none;stroke-opacity:1"
       transform="matrix(0.13333333,0,0,-0.13333333,0,36.666667)" />
    <path
       id="path7"
       d="m 66.9336,98.332 h 54.0898 v 28.1523 H 66.9336 Z"
       style="fill:#ffffff;fill-opacity:1;fill-rule:nonzero;stroke:none"
       transform="matrix(0.13333333,0,0,-0.13333333,0,36.666667)" />
    <path
       id="path8"
       d="m 244.641,98.332 h 54.082 v 28.1523 h -54.082 z"
       style="fill:#ffffff;fill-opacity:1;fill-rule:nonzero;stroke:none"
       transform="matrix(0.13333333,0,0,-0.13333333,0,36.666667)" />
    <path
       id="path9"
       d="m 66.9336,27.9609 h 54.0898 V 56.1054 H 66.9336 Z"
       style="fill:#ffffff;fill-opacity:1;fill-rule:nonzero;stroke:none"
       transform="matrix(0.13333333,0,0,-0.13333333,0,36.666667)" />
    <path
       id="path10"
       d="m 244.641,27.9609 h 54.082 v 28.1445 h -54.082 z"
       style="fill:#ffffff;fill-opacity:1;fill-rule:nonzero;stroke:none"
       transform="matrix(0.13333333,0,0,-0.13333333,0,36.666667)" />
    <path
       id="path11"
       d="M 103.645,112.414 H 269.758"
       style="fill:none;stroke:#ffffff;stroke-width:4;stroke-linecap:butt;stroke-linejoin:miter;stroke-miterlimit:4;stroke-dasharray:none;stroke-opacity:1"
       transform="matrix(0.13333333,0,0,-0.13333333,0,36.666667)" />
    <path
       id="path12"
       d="M 103.645,42.4141 H 269.758"
       style="fill:none;stroke:#ffffff;stroke-width:4;stroke-linecap:butt;stroke-linejoin:miter;stroke-miterlimit:4;stroke-dasharray:none;stroke-opacity:1"
       transform="matrix(0.13333333,0,0,-0.13333333,0,36.666667)" />
    <path
       id="path13"
       d="M 93.9922,42.043 269.758,112.414"
       style="fill:none;stroke:#ffffff;stroke-width:4;stroke-linecap:butt;stroke-linejoin:miter;stroke-miterlimit:4;stroke-dasharray:none;stroke-opacity:1"
       transform="matrix(0.13333333,0,0,-0.13333333,0,36.666667)" />
    <path
       id="path14"
       d="M 93.9922,112.414 269.758,42.043"
       style="fill:none;stroke:#ffffff;stroke-width:4;stroke-linecap:butt;stroke-linejoin:miter;stroke-miterlimit:4;stroke-dasharray:none;stroke-opacity:1"
       transform="matrix(0.13333333,0,0,-0.13333333,0,36.666667)" />
    <path
       id="path15"
       d="m 210.461,247.746 74.297,7.254 -14.297,-23.75 -18.984,3.664 -111.196,-41.992 -19.898,5.469 108.887,41.414 -18.809,7.941"
       style="fill:#ffffff;fill-opacity:1;fill-rule:nonzero;stroke:none"
       transform="matrix(0.13333333,0,0,-0.13333333,0,36.666667)" />
    <path
       id="path16"
       d="m 296.477,221.406 74.293,7.258 -14.293,-23.75 -19.004,3.672 -111.196,-42.004 -19.882,5.469 108.871,41.418 -18.789,7.937"
       style="fill:#ffffff;fill-opacity:1;fill-rule:nonzero;stroke:none"
       transform="matrix(0.13333333,0,0,-0.13333333,0,36.666667)" />
  </g>
</svg>
