<?xml version="1.0" encoding="UTF-8" standalone="no"?>
<!-- Created with Inkscape (http://www.inkscape.org/) -->

<svg
   version="1.1"
   id="svg1"
   width="49.586666"
   height="33.573334"
   viewBox="0 0 49.586666 33.573334"
   sodipodi:docname="itp.eps"
   xmlns:inkscape="http://www.inkscape.org/namespaces/inkscape"
   xmlns:sodipodi="http://sodipodi.sourceforge.net/DTD/sodipodi-0.dtd"
   xmlns="http://www.w3.org/2000/svg"
   xmlns:svg="http://www.w3.org/2000/svg">
  <defs
     id="defs1" />
  <sodipodi:namedview
     id="namedview1"
     pagecolor="#505050"
     bordercolor="#eeeeee"
     borderopacity="1"
     inkscape:showpageshadow="0"
     inkscape:pageopacity="0"
     inkscape:pagecheckerboard="0"
     inkscape:deskcolor="#d1d1d1">
    <inkscape:page
       x="0"
       y="0"
       inkscape:label="1"
       id="page1"
       width="49.586666"
       height="33.573334"
       margin="0"
       bleed="0" />
  </sodipodi:namedview>
  <g
     id="g1"
     inkscape:groupmode="layer"
     inkscape:label="1">
    <path
       id="path1"
       d="M 116.555,112.023 C 49.3633,122.676 2.00391,148.332 2.00391,178.293 V 73.5273 C 2.00391,43.8984 50.4805,18.4766 116.492,7.61719 l 0.063,104.40581"
       style="fill:#026c9b;fill-opacity:1;fill-rule:nonzero;stroke:none"
       transform="matrix(0.13333333,0,0,-0.13333333,0,33.573333)" />
    <path
       id="path2"
       d="M 116.555,112.023 C 49.3633,122.676 2.00391,148.332 2.00391,178.293 V 73.5273 C 2.00391,43.8984 50.4805,18.4766 116.492,7.61719 Z"
       style="fill:none;stroke:#ffffff;stroke-width:4;stroke-linecap:butt;stroke-linejoin:miter;stroke-miterlimit:4;stroke-dasharray:none;stroke-opacity:1"
       transform="matrix(0.13333333,0,0,-0.13333333,0,33.573333)" />
    <path
       id="path3"
       d="m 116.492,7.61719 c 22.016,-3.6211 44.043,-5.625 69.446,-5.625 101.574,0 183.917,32.02341 183.917,71.53511 V 178.293 c 0,-39.512 -82.343,-71.523 -183.917,-71.523 -24.551,0 -47.977,1.863 -69.383,5.253 L 116.492,7.61719"
       style="fill:#014c6c;fill-opacity:1;fill-rule:nonzero;stroke:#ffffff;stroke-width:4;stroke-linecap:butt;stroke-linejoin:miter;stroke-miterlimit:4;stroke-dasharray:none;stroke-opacity:1"
       transform="matrix(0.13333333,0,0,-0.13333333,0,33.573333)" />
    <path
       id="path4"
       d="m 257.52,244.191 c -22,3.622 -46.192,5.625 -71.582,5.625 -101.5903,0 -183.93409,-32.023 -183.93409,-71.523 0,-29.395 45.58589,-54.641 110.76209,-65.637 L 257.52,244.191"
       style="fill:#026c9b;fill-opacity:1;fill-rule:nonzero;stroke:#ffffff;stroke-width:4;stroke-linecap:butt;stroke-linejoin:miter;stroke-miterlimit:4;stroke-dasharray:none;stroke-opacity:1"
       transform="matrix(0.13333333,0,0,-0.13333333,0,33.573333)" />
    <path
       id="path5"
       d="m 112.766,112.656 c 22.422,-3.789 47.168,-5.886 73.172,-5.886 101.574,0 183.917,32.011 183.917,71.523 0,29.629 -46.32,55.047 -112.335,65.898 L 112.766,112.656"
       style="fill:#014c6c;fill-opacity:1;fill-rule:nonzero;stroke:#ffffff;stroke-width:4;stroke-linecap:butt;stroke-linejoin:miter;stroke-miterlimit:4;stroke-dasharray:none;stroke-opacity:1"
       transform="matrix(0.13333333,0,0,-0.13333333,0,33.573333)" />
    <path
       id="path6"
       d="m 141.457,205.148 15.184,-22.785 -57.4222,-13.269 12.5512,10.449 -88.7505,15.164 22.2618,16.691 85.6367,-14.503 10.539,8.253"
       style="fill:#ffffff;fill-opacity:1;fill-rule:nonzero;stroke:none"
       transform="matrix(0.13333333,0,0,-0.13333333,0,33.573333)" />
    <path
       id="path7"
       d="m 222.258,149.902 -10.363,23.489 51.796,10.347 -8.984,-8.043 86.328,-14.746 -20.715,-16.574 -85.808,16.113 -12.254,-10.586"
       style="fill:#ffffff;fill-opacity:1;fill-rule:nonzero;stroke:none"
       transform="matrix(0.13333333,0,0,-0.13333333,0,33.573333)" />
    <path
       id="path8"
       d="m 193.938,217.59 58.015,15.879 0.684,-24.864 -14.5,2.762 -28.313,-23.484 -27.019,3.941 29.226,22.973 -18.093,2.793"
       style="fill:#ffffff;fill-opacity:1;fill-rule:nonzero;stroke:none"
       transform="matrix(0.13333333,0,0,-0.13333333,0,33.573333)" />
    <path
       id="path9"
       d="m 169.07,128.488 -55.242,-10.351 -2.07,25.547 15.879,-3.45 30.41,25.965 26.914,-4.547 -32.461,-28.32 16.57,-4.844"
       style="fill:#ffffff;fill-opacity:1;fill-rule:nonzero;stroke:none"
       transform="matrix(0.13333333,0,0,-0.13333333,0,33.573333)" />
    <path
       id="path10"
       d="M 1.6984375,-5.8372284 H 0.503125 v 5.83593746 h 1.1953125 z m 3.6064453,0.9960937 H 7.0041016 V -5.8372284 H 2.3400391 v 0.9960937 h 1.7695312 v 4.83984376 h 1.1953125 z m 3.6123047,2.7539063 h 1.5000005 c 1.078125,0 1.757812,-0.75 1.757812,-1.9453125 0,-1.1601563 -0.65625,-1.8046875 -1.875,-1.8046875 H 7.721875 v 5.83593746 h 1.1953125 z m 0,-0.9960938 v -1.7578125 h 1.1250005 c 0.644531,0 0.9375,0.28125 0.9375,0.8789063 0,0.5976562 -0.292969,0.8789062 -0.9375,0.8789062 z m 0,0"
       style="fill:#ffffff;fill-opacity:1;fill-rule:nonzero;stroke:none"
       aria-label="ITP"
       transform="matrix(1.3333333,0,0,1.3333333,16.516667,29.88844)" />
  </g>
</svg>
