<?xml version="1.0" encoding="UTF-8" standalone="no"?>
<!-- Created with Inkscape (http://www.inkscape.org/) -->

<svg
   version="1.1"
   id="svg1"
   width="20.186666"
   height="40.68"
   viewBox="0 0 20.186666 40.68"
   sodipodi:docname="jbod.eps"
   xmlns:inkscape="http://www.inkscape.org/namespaces/inkscape"
   xmlns:sodipodi="http://sodipodi.sourceforge.net/DTD/sodipodi-0.dtd"
   xmlns="http://www.w3.org/2000/svg"
   xmlns:svg="http://www.w3.org/2000/svg">
  <defs
     id="defs1">
    <clipPath
       clipPathUnits="userSpaceOnUse"
       id="clipPath2">
      <path
         d="M 0,305 H 150 V 0 H 0 Z"
         id="path2" />
    </clipPath>
    <clipPath
       clipPathUnits="userSpaceOnUse"
       id="clipPath4">
      <path
         d="M 0,305 H 150 V 0 H 0 Z"
         id="path4" />
    </clipPath>
    <clipPath
       clipPathUnits="userSpaceOnUse"
       id="clipPath6">
      <path
         d="M 0,305 H 150 V 0 H 0 Z"
         id="path6" />
    </clipPath>
    <clipPath
       clipPathUnits="userSpaceOnUse"
       id="clipPath8">
      <path
         d="M 0,305 H 150 V 0 H 0 Z"
         id="path8" />
    </clipPath>
    <clipPath
       clipPathUnits="userSpaceOnUse"
       id="clipPath10">
      <path
         d="M 0,305 H 150 V 0 H 0 Z"
         id="path10" />
    </clipPath>
    <clipPath
       clipPathUnits="userSpaceOnUse"
       id="clipPath12">
      <path
         d="M 0,305 H 150 V 0 H 0 Z"
         id="path12" />
    </clipPath>
    <clipPath
       clipPathUnits="userSpaceOnUse"
       id="clipPath14">
      <path
         d="M 0,305 H 150 V 0 H 0 Z"
         id="path14" />
    </clipPath>
    <clipPath
       clipPathUnits="userSpaceOnUse"
       id="clipPath16">
      <path
         d="M 0,305 H 150 V 0 H 0 Z"
         id="path16" />
    </clipPath>
    <clipPath
       clipPathUnits="userSpaceOnUse"
       id="clipPath18">
      <path
         d="M 0,305 H 150 V 0 H 0 Z"
         id="path18" />
    </clipPath>
    <clipPath
       clipPathUnits="userSpaceOnUse"
       id="clipPath20">
      <path
         d="M 0,305 H 150 V 0 H 0 Z"
         id="path20" />
    </clipPath>
    <clipPath
       clipPathUnits="userSpaceOnUse"
       id="clipPath22">
      <path
         d="M 0,305 H 150 V 0 H 0 Z"
         id="path22" />
    </clipPath>
    <clipPath
       clipPathUnits="userSpaceOnUse"
       id="clipPath24">
      <path
         d="M 0,305 H 150 V 0 H 0 Z"
         id="path24" />
    </clipPath>
    <clipPath
       clipPathUnits="userSpaceOnUse"
       id="clipPath26">
      <path
         d="M 0,305 H 150 V 0 H 0 Z"
         id="path26" />
    </clipPath>
    <clipPath
       clipPathUnits="userSpaceOnUse"
       id="clipPath28">
      <path
         d="M 0,305 H 150 V 0 H 0 Z"
         id="path28" />
    </clipPath>
    <clipPath
       clipPathUnits="userSpaceOnUse"
       id="clipPath30">
      <path
         d="M 0,305 H 150 V 0 H 0 Z"
         id="path30" />
    </clipPath>
    <clipPath
       clipPathUnits="userSpaceOnUse"
       id="clipPath32">
      <path
         d="M 0,305 H 150 V 0 H 0 Z"
         id="path32" />
    </clipPath>
    <clipPath
       clipPathUnits="userSpaceOnUse"
       id="clipPath34">
      <path
         d="M 0,305 H 150 V 0 H 0 Z"
         id="path34" />
    </clipPath>
    <clipPath
       clipPathUnits="userSpaceOnUse"
       id="clipPath36">
      <path
         d="M 0,305 H 150 V 0 H 0 Z"
         id="path36" />
    </clipPath>
    <clipPath
       clipPathUnits="userSpaceOnUse"
       id="clipPath38">
      <path
         d="M 0,305 H 150 V 0 H 0 Z"
         id="path38" />
    </clipPath>
    <clipPath
       clipPathUnits="userSpaceOnUse"
       id="clipPath40">
      <path
         d="M 0,305 H 150 V 0 H 0 Z"
         id="path40" />
    </clipPath>
    <clipPath
       clipPathUnits="userSpaceOnUse"
       id="clipPath42">
      <path
         d="M 0,305 H 150 V 0 H 0 Z"
         id="path42" />
    </clipPath>
    <clipPath
       clipPathUnits="userSpaceOnUse"
       id="clipPath44">
      <path
         d="M 0,305 H 150 V 0 H 0 Z"
         id="path44" />
    </clipPath>
    <clipPath
       clipPathUnits="userSpaceOnUse"
       id="clipPath46">
      <path
         d="M 0,305 H 150 V 0 H 0 Z"
         id="path46" />
    </clipPath>
    <clipPath
       clipPathUnits="userSpaceOnUse"
       id="clipPath48">
      <path
         d="M 0,305 H 150 V 0 H 0 Z"
         id="path48" />
    </clipPath>
    <clipPath
       clipPathUnits="userSpaceOnUse"
       id="clipPath50">
      <path
         d="M 0,305 H 150 V 0 H 0 Z"
         id="path50" />
    </clipPath>
    <clipPath
       clipPathUnits="userSpaceOnUse"
       id="clipPath52">
      <path
         d="M 0,305 H 150 V 0 H 0 Z"
         id="path52" />
    </clipPath>
    <clipPath
       clipPathUnits="userSpaceOnUse"
       id="clipPath54">
      <path
         d="M 0,305 H 150 V 0 H 0 Z"
         id="path54" />
    </clipPath>
    <clipPath
       clipPathUnits="userSpaceOnUse"
       id="clipPath56">
      <path
         d="M 0,305 H 150 V 0 H 0 Z"
         id="path56" />
    </clipPath>
    <clipPath
       clipPathUnits="userSpaceOnUse"
       id="clipPath58">
      <path
         d="M 0,305 H 150 V 0 H 0 Z"
         id="path58" />
    </clipPath>
    <clipPath
       clipPathUnits="userSpaceOnUse"
       id="clipPath60">
      <path
         d="M 0,305 H 150 V 0 H 0 Z"
         id="path60" />
    </clipPath>
    <clipPath
       clipPathUnits="userSpaceOnUse"
       id="clipPath62">
      <path
         d="M 0,305 H 150 V 0 H 0 Z"
         id="path62" />
    </clipPath>
    <clipPath
       clipPathUnits="userSpaceOnUse"
       id="clipPath64">
      <path
         d="M 0,305 H 150 V 0 H 0 Z"
         id="path64" />
    </clipPath>
    <clipPath
       clipPathUnits="userSpaceOnUse"
       id="clipPath66">
      <path
         d="M 0,305 H 150 V 0 H 0 Z"
         id="path66" />
    </clipPath>
    <clipPath
       clipPathUnits="userSpaceOnUse"
       id="clipPath68">
      <path
         d="M 0,305 H 150 V 0 H 0 Z"
         id="path68" />
    </clipPath>
    <clipPath
       clipPathUnits="userSpaceOnUse"
       id="clipPath70">
      <path
         d="M 0,305 H 150 V 0 H 0 Z"
         id="path70" />
    </clipPath>
    <clipPath
       clipPathUnits="userSpaceOnUse"
       id="clipPath72">
      <path
         d="M 0,305 H 150 V 0 H 0 Z"
         id="path72" />
    </clipPath>
    <clipPath
       clipPathUnits="userSpaceOnUse"
       id="clipPath74">
      <path
         d="M 0,305 H 150 V 0 H 0 Z"
         id="path74" />
    </clipPath>
    <clipPath
       clipPathUnits="userSpaceOnUse"
       id="clipPath76">
      <path
         d="M 0,305 H 150 V 0 H 0 Z"
         id="path76" />
    </clipPath>
    <clipPath
       clipPathUnits="userSpaceOnUse"
       id="clipPath78">
      <path
         d="M 0,305 H 150 V 0 H 0 Z"
         id="path78" />
    </clipPath>
    <clipPath
       clipPathUnits="userSpaceOnUse"
       id="clipPath80">
      <path
         d="M 0,305 H 150 V 0 H 0 Z"
         id="path80" />
    </clipPath>
    <clipPath
       clipPathUnits="userSpaceOnUse"
       id="clipPath82">
      <path
         d="M 0,305 H 150 V 0 H 0 Z"
         id="path82" />
    </clipPath>
    <clipPath
       clipPathUnits="userSpaceOnUse"
       id="clipPath84">
      <path
         d="M 0,305 H 150 V 0 H 0 Z"
         id="path84" />
    </clipPath>
    <clipPath
       clipPathUnits="userSpaceOnUse"
       id="clipPath86">
      <path
         d="M 0,305 H 150 V 0 H 0 Z"
         id="path86" />
    </clipPath>
    <clipPath
       clipPathUnits="userSpaceOnUse"
       id="clipPath88">
      <path
         d="M 0,305 H 150 V 0 H 0 Z"
         id="path88" />
    </clipPath>
  </defs>
  <sodipodi:namedview
     id="namedview1"
     pagecolor="#505050"
     bordercolor="#eeeeee"
     borderopacity="1"
     inkscape:showpageshadow="0"
     inkscape:pageopacity="0"
     inkscape:pagecheckerboard="0"
     inkscape:deskcolor="#d1d1d1">
    <inkscape:page
       x="0"
       y="0"
       inkscape:label="1"
       id="page1"
       width="20.186666"
       height="40.68"
       margin="0"
       bleed="0" />
  </sodipodi:namedview>
  <g
     id="g1"
     inkscape:groupmode="layer"
     inkscape:label="1">
    <path
       id="path1"
       d="m 6.83203,6.82422 h 91.3672 v 245.109 H 6.83203 Z"
       style="fill:#087fbf;fill-opacity:1;fill-rule:nonzero;stroke:none"
       transform="matrix(0.13333333,0,0,-0.13333333,0,40.68)"
       clip-path="url(#clipPath2)" />
    <path
       id="path3"
       d="M 98.1992,6.82422 147.359,55.9688 V 301.074 H 55.9727 L 6.83203,251.934 H 98.1992 V 6.82422"
       style="fill:#087fbf;fill-opacity:1;fill-rule:nonzero;stroke:none"
       transform="matrix(0.13333333,0,0,-0.13333333,0,40.68)"
       clip-path="url(#clipPath4)" />
    <path
       id="path5"
       d="m 98.1992,251.934 49.1598,49.14"
       style="fill:#087fbf;fill-opacity:1;fill-rule:nonzero;stroke:none"
       transform="matrix(0.13333333,0,0,-0.13333333,0,40.68)"
       clip-path="url(#clipPath6)" />
    <path
       id="path7"
       d="m 6.83203,6.82422 h 91.3672 v 245.109 H 6.83203 Z"
       style="fill:#087fbf;fill-opacity:1;fill-rule:nonzero;stroke:none"
       transform="matrix(0.13333333,0,0,-0.13333333,0,40.68)"
       clip-path="url(#clipPath8)" />
    <path
       id="path9"
       d="M 98.1992,251.934 H 6.83203 V 6.82422 H 98.1992"
       style="fill:none;stroke:#ffffff;stroke-width:4;stroke-linecap:butt;stroke-linejoin:miter;stroke-miterlimit:4;stroke-dasharray:none;stroke-opacity:1"
       transform="matrix(0.13333333,0,0,-0.13333333,0,40.68)"
       clip-path="url(#clipPath10)" />
    <path
       id="path11"
       d="M 98.1992,6.82422 147.359,55.9688 V 301.074 H 55.9727 L 6.83203,251.934 H 98.1992 V 6.82422"
       style="fill:#087fbf;fill-opacity:1;fill-rule:nonzero;stroke:none"
       transform="matrix(0.13333333,0,0,-0.13333333,0,40.68)"
       clip-path="url(#clipPath12)" />
    <path
       id="path13"
       d="M 98.1992,6.82422 147.359,55.9688 V 301.074 H 55.9727 L 6.83203,251.934 H 98.1992 Z"
       style="fill:none;stroke:#ffffff;stroke-width:4;stroke-linecap:butt;stroke-linejoin:miter;stroke-miterlimit:4;stroke-dasharray:none;stroke-opacity:1"
       transform="matrix(0.13333333,0,0,-0.13333333,0,40.68)"
       clip-path="url(#clipPath14)" />
    <path
       id="path15"
       d="m 98.1992,251.934 49.1598,49.14"
       style="fill:#231f20;fill-opacity:1;fill-rule:nonzero;stroke:#ffffff;stroke-width:4;stroke-linecap:round;stroke-linejoin:round;stroke-miterlimit:4;stroke-dasharray:none;stroke-opacity:1"
       transform="matrix(0.13333333,0,0,-0.13333333,0,40.68)"
       clip-path="url(#clipPath16)" />
    <path
       id="path17"
       d="M 98.1992,251.934 H 6.83203 V 6.82422 H 98.1992"
       style="fill:none;stroke:#ffffff;stroke-width:4;stroke-linecap:butt;stroke-linejoin:miter;stroke-miterlimit:4;stroke-dasharray:none;stroke-opacity:1"
       transform="matrix(0.13333333,0,0,-0.13333333,0,40.68)"
       clip-path="url(#clipPath18)" />
    <path
       id="path19"
       d="M 98.1992,6.82422 147.359,55.9688 V 301.074 H 55.9727 L 6.83203,251.934 H 98.1992 Z"
       style="fill:none;stroke:#ffffff;stroke-width:4;stroke-linecap:butt;stroke-linejoin:miter;stroke-miterlimit:4;stroke-dasharray:none;stroke-opacity:1"
       transform="matrix(0.13333333,0,0,-0.13333333,0,40.68)"
       clip-path="url(#clipPath20)" />
    <path
       id="path21"
       d="m 98.1992,251.934 49.1598,49.14"
       style="fill:none;stroke:#ffffff;stroke-width:4;stroke-linecap:butt;stroke-linejoin:miter;stroke-miterlimit:4;stroke-dasharray:none;stroke-opacity:1"
       transform="matrix(0.13333333,0,0,-0.13333333,0,40.68)"
       clip-path="url(#clipPath22)" />
    <path
       id="path23"
       d="m 82.3203,66.0469 c 0,-6.0586 -13.0469,-10.9805 -29.1601,-10.9805 -16.1133,0 -29.1797,4.9219 -29.1797,10.9805 0,6.0937 13.0664,11.0117 29.1797,11.0117 16.1132,0 29.1601,-4.918 29.1601,-11.0117"
       style="fill:#ffffff;fill-opacity:1;fill-rule:nonzero;stroke:none"
       transform="matrix(0.13333333,0,0,-0.13333333,0,40.68)"
       clip-path="url(#clipPath24)" />
    <path
       id="path25"
       d="m 82.3203,66.0469 c 0,-6.0586 -13.0469,-10.9805 -29.1601,-10.9805 -16.1133,0 -29.1797,4.9219 -29.1797,10.9805 0,6.0937 13.0664,11.0117 29.1797,11.0117 16.1132,0 29.1601,-4.918 29.1601,-11.0117 z"
       style="fill:none;stroke:#231f20;stroke-width:3.5;stroke-linecap:round;stroke-linejoin:round;stroke-miterlimit:4;stroke-dasharray:none;stroke-opacity:1"
       transform="matrix(0.13333333,0,0,-0.13333333,0,40.68)"
       clip-path="url(#clipPath26)" />
    <path
       id="path27"
       d="m 61.7734,66.6484 c 0,-1.8125 -3.9257,-3.3007 -8.75,-3.3007 -4.8437,0 -8.75,1.4882 -8.75,3.3007 0,1.836 3.9063,3.3008 8.75,3.3008 4.8243,0 8.75,-1.4648 8.75,-3.3008"
       style="fill:#231f20;fill-opacity:1;fill-rule:nonzero;stroke:none"
       transform="matrix(0.13333333,0,0,-0.13333333,0,40.68)"
       clip-path="url(#clipPath28)" />
    <path
       id="path29"
       d="m 61.7734,72.6445 c 0,-1.8164 -3.9257,-3.2812 -8.75,-3.2812 -4.8437,0 -8.75,1.4648 -8.75,3.2812 0,1.836 3.9063,3.3008 8.75,3.3008 4.8243,0 8.75,-1.4648 8.75,-3.3008"
       style="fill:#231f20;fill-opacity:1;fill-rule:nonzero;stroke:none"
       transform="matrix(0.13333333,0,0,-0.13333333,0,40.68)"
       clip-path="url(#clipPath30)" />
    <path
       id="path31"
       d="m 82.3203,78.0586 c 0,-6.0781 -13.0469,-11 -29.1601,-11 -16.1133,0 -29.1797,4.9219 -29.1797,11 0,6.0742 13.0664,10.9961 29.1797,10.9961 16.1132,0 29.1601,-4.9219 29.1601,-10.9961"
       style="fill:#ffffff;fill-opacity:1;fill-rule:nonzero;stroke:none"
       transform="matrix(0.13333333,0,0,-0.13333333,0,40.68)"
       clip-path="url(#clipPath32)" />
    <path
       id="path33"
       d="m 82.3203,78.0586 c 0,-6.0781 -13.0469,-11 -29.1601,-11 -16.1133,0 -29.1797,4.9219 -29.1797,11 0,6.0742 13.0664,10.9961 29.1797,10.9961 16.1132,0 29.1601,-4.9219 29.1601,-10.9961 z"
       style="fill:none;stroke:#231f20;stroke-width:3.5;stroke-linecap:round;stroke-linejoin:round;stroke-miterlimit:4;stroke-dasharray:none;stroke-opacity:1"
       transform="matrix(0.13333333,0,0,-0.13333333,0,40.68)"
       clip-path="url(#clipPath34)" />
    <path
       id="path35"
       d="m 61.7734,78.6406 c 0,-1.8164 -3.9257,-3.2812 -8.75,-3.2812 -4.8437,0 -8.75,1.4648 -8.75,3.2812 0,1.836 3.9063,3.3242 8.75,3.3242 4.8243,0 8.75,-1.4882 8.75,-3.3242"
       style="fill:#231f20;fill-opacity:1;fill-rule:nonzero;stroke:none"
       transform="matrix(0.13333333,0,0,-0.13333333,0,40.68)"
       clip-path="url(#clipPath36)" />
    <path
       id="path37"
       d="m 61.7734,84.6563 c 0,-1.8125 -3.9257,-3.3008 -8.75,-3.3008 -4.8437,0 -8.75,1.4883 -8.75,3.3008 0,1.8164 3.9063,3.3046 8.75,3.3046 4.8243,0 8.75,-1.4882 8.75,-3.3046"
       style="fill:#231f20;fill-opacity:1;fill-rule:nonzero;stroke:none"
       transform="matrix(0.13333333,0,0,-0.13333333,0,40.68)"
       clip-path="url(#clipPath38)" />
    <path
       id="path39"
       d="m 82.3203,90.0508 c 0,-6.0781 -13.0469,-10.9961 -29.1601,-10.9961 -16.1133,0 -29.1797,4.918 -29.1797,10.9961 0,6.0898 13.0664,11.0122 29.1797,11.0122 16.1132,0 29.1601,-4.9224 29.1601,-11.0122"
       style="fill:#ffffff;fill-opacity:1;fill-rule:nonzero;stroke:none"
       transform="matrix(0.13333333,0,0,-0.13333333,0,40.68)"
       clip-path="url(#clipPath40)" />
    <path
       id="path41"
       d="m 82.3203,90.0508 c 0,-6.0781 -13.0469,-10.9961 -29.1601,-10.9961 -16.1133,0 -29.1797,4.918 -29.1797,10.9961 0,6.0898 13.0664,11.0122 29.1797,11.0122 16.1132,0 29.1601,-4.9224 29.1601,-11.0122 z"
       style="fill:none;stroke:#231f20;stroke-width:3.5;stroke-linecap:round;stroke-linejoin:round;stroke-miterlimit:4;stroke-dasharray:none;stroke-opacity:1"
       transform="matrix(0.13333333,0,0,-0.13333333,0,40.68)"
       clip-path="url(#clipPath42)" />
    <path
       id="path43"
       d="m 61.7734,90.6523 c 0,-1.8125 -3.9257,-3.3007 -8.75,-3.3007 -4.8437,0 -8.75,1.4882 -8.75,3.3007 0,1.8204 3.9063,3.3008 8.75,3.3008 4.8243,0 8.75,-1.4804 8.75,-3.3008"
       style="fill:#231f20;fill-opacity:1;fill-rule:nonzero;stroke:none"
       transform="matrix(0.13333333,0,0,-0.13333333,0,40.68)"
       clip-path="url(#clipPath44)" />
    <path
       id="path45"
       d="m 82.3203,114.055 c 0,-6.078 -13.0469,-10.996 -29.1601,-10.996 -16.1133,0 -29.1797,4.918 -29.1797,10.996 0,6.074 13.0664,10.996 29.1797,10.996 16.1132,0 29.1601,-4.922 29.1601,-10.996"
       style="fill:#ffffff;fill-opacity:1;fill-rule:nonzero;stroke:none"
       transform="matrix(0.13333333,0,0,-0.13333333,0,40.68)"
       clip-path="url(#clipPath46)" />
    <path
       id="path47"
       d="m 82.3203,114.055 c 0,-6.078 -13.0469,-10.996 -29.1601,-10.996 -16.1133,0 -29.1797,4.918 -29.1797,10.996 0,6.074 13.0664,10.996 29.1797,10.996 16.1132,0 29.1601,-4.922 29.1601,-10.996 z"
       style="fill:none;stroke:#231f20;stroke-width:3.5;stroke-linecap:round;stroke-linejoin:round;stroke-miterlimit:4;stroke-dasharray:none;stroke-opacity:1"
       transform="matrix(0.13333333,0,0,-0.13333333,0,40.68)"
       clip-path="url(#clipPath48)" />
    <path
       id="path49"
       d="m 61.7734,114.656 c 0,-1.812 -3.9257,-3.301 -8.75,-3.301 -4.8437,0 -8.75,1.489 -8.75,3.301 0,1.817 3.9063,3.305 8.75,3.305 4.8243,0 8.75,-1.488 8.75,-3.305"
       style="fill:#231f20;fill-opacity:1;fill-rule:nonzero;stroke:none"
       transform="matrix(0.13333333,0,0,-0.13333333,0,40.68)"
       clip-path="url(#clipPath50)" />
    <path
       id="path51"
       d="m 61.7734,120.652 c 0,-1.812 -3.9257,-3.3 -8.75,-3.3 -4.8437,0 -8.75,1.488 -8.75,3.3 0,1.821 3.9063,3.301 8.75,3.301 4.8243,0 8.75,-1.48 8.75,-3.301"
       style="fill:#231f20;fill-opacity:1;fill-rule:nonzero;stroke:none"
       transform="matrix(0.13333333,0,0,-0.13333333,0,40.68)"
       clip-path="url(#clipPath52)" />
    <path
       id="path53"
       d="m 82.3203,126.047 c 0,-6.059 -13.0469,-10.981 -29.1601,-10.981 -16.1133,0 -29.1797,4.922 -29.1797,10.981 0,6.094 13.0664,11.012 29.1797,11.012 16.1132,0 29.1601,-4.918 29.1601,-11.012"
       style="fill:#ffffff;fill-opacity:1;fill-rule:nonzero;stroke:none"
       transform="matrix(0.13333333,0,0,-0.13333333,0,40.68)"
       clip-path="url(#clipPath54)" />
    <path
       id="path55"
       d="m 82.3203,126.047 c 0,-6.059 -13.0469,-10.981 -29.1601,-10.981 -16.1133,0 -29.1797,4.922 -29.1797,10.981 0,6.094 13.0664,11.012 29.1797,11.012 16.1132,0 29.1601,-4.918 29.1601,-11.012 z"
       style="fill:none;stroke:#231f20;stroke-width:3.5;stroke-linecap:round;stroke-linejoin:round;stroke-miterlimit:4;stroke-dasharray:none;stroke-opacity:1"
       transform="matrix(0.13333333,0,0,-0.13333333,0,40.68)"
       clip-path="url(#clipPath56)" />
    <path
       id="path57"
       d="m 61.7734,126.648 c 0,-1.812 -3.9257,-3.3 -8.75,-3.3 -4.8437,0 -8.75,1.488 -8.75,3.3 0,1.836 3.9063,3.301 8.75,3.301 4.8243,0 8.75,-1.465 8.75,-3.301"
       style="fill:#231f20;fill-opacity:1;fill-rule:nonzero;stroke:none"
       transform="matrix(0.13333333,0,0,-0.13333333,0,40.68)"
       clip-path="url(#clipPath58)" />
    <path
       id="path59"
       d="m 61.7734,132.645 c 0,-1.817 -3.9257,-3.282 -8.75,-3.282 -4.8437,0 -8.75,1.465 -8.75,3.282 0,1.835 3.9063,3.3 8.75,3.3 4.8243,0 8.75,-1.465 8.75,-3.3"
       style="fill:#231f20;fill-opacity:1;fill-rule:nonzero;stroke:none"
       transform="matrix(0.13333333,0,0,-0.13333333,0,40.68)"
       clip-path="url(#clipPath60)" />
    <path
       id="path61"
       d="m 82.3203,138.059 c 0,-6.079 -13.0469,-11 -29.1601,-11 -16.1133,0 -29.1797,4.921 -29.1797,11 0,6.074 13.0664,10.996 29.1797,10.996 16.1132,0 29.1601,-4.922 29.1601,-10.996"
       style="fill:#ffffff;fill-opacity:1;fill-rule:nonzero;stroke:none"
       transform="matrix(0.13333333,0,0,-0.13333333,0,40.68)"
       clip-path="url(#clipPath62)" />
    <path
       id="path63"
       d="m 82.3203,138.059 c 0,-6.079 -13.0469,-11 -29.1601,-11 -16.1133,0 -29.1797,4.921 -29.1797,11 0,6.074 13.0664,10.996 29.1797,10.996 16.1132,0 29.1601,-4.922 29.1601,-10.996 z"
       style="fill:none;stroke:#231f20;stroke-width:3.5;stroke-linecap:round;stroke-linejoin:round;stroke-miterlimit:4;stroke-dasharray:none;stroke-opacity:1"
       transform="matrix(0.13333333,0,0,-0.13333333,0,40.68)"
       clip-path="url(#clipPath64)" />
    <path
       id="path65"
       d="m 61.7734,138.641 c 0,-1.817 -3.9257,-3.282 -8.75,-3.282 -4.8437,0 -8.75,1.465 -8.75,3.282 0,1.836 3.9063,3.324 8.75,3.324 4.8243,0 8.75,-1.488 8.75,-3.324"
       style="fill:#231f20;fill-opacity:1;fill-rule:nonzero;stroke:none"
       transform="matrix(0.13333333,0,0,-0.13333333,0,40.68)"
       clip-path="url(#clipPath66)" />
    <path
       id="path67"
       d="m 82.3203,162.059 c 0,-6.075 -13.0469,-10.996 -29.1601,-10.996 -16.1133,0 -29.1797,4.921 -29.1797,10.996 0,6.078 13.0664,11 29.1797,11 16.1132,0 29.1601,-4.922 29.1601,-11"
       style="fill:#ffffff;fill-opacity:1;fill-rule:nonzero;stroke:none"
       transform="matrix(0.13333333,0,0,-0.13333333,0,40.68)"
       clip-path="url(#clipPath68)" />
    <path
       id="path69"
       d="m 82.3203,162.059 c 0,-6.075 -13.0469,-10.996 -29.1601,-10.996 -16.1133,0 -29.1797,4.921 -29.1797,10.996 0,6.078 13.0664,11 29.1797,11 16.1132,0 29.1601,-4.922 29.1601,-11 z"
       style="fill:none;stroke:#231f20;stroke-width:3.5;stroke-linecap:round;stroke-linejoin:round;stroke-miterlimit:4;stroke-dasharray:none;stroke-opacity:1"
       transform="matrix(0.13333333,0,0,-0.13333333,0,40.68)"
       clip-path="url(#clipPath70)" />
    <path
       id="path71"
       d="m 61.7734,162.645 c 0,-1.817 -3.9257,-3.282 -8.75,-3.282 -4.8437,0 -8.75,1.465 -8.75,3.282 0,1.835 3.9063,3.3 8.75,3.3 4.8243,0 8.75,-1.465 8.75,-3.3"
       style="fill:#231f20;fill-opacity:1;fill-rule:nonzero;stroke:none"
       transform="matrix(0.13333333,0,0,-0.13333333,0,40.68)"
       clip-path="url(#clipPath72)" />
    <path
       id="path73"
       d="m 61.7734,168.641 c 0,-1.817 -3.9257,-3.282 -8.75,-3.282 -4.8437,0 -8.75,1.465 -8.75,3.282 0,1.836 3.9063,3.324 8.75,3.324 4.8243,0 8.75,-1.488 8.75,-3.324"
       style="fill:#231f20;fill-opacity:1;fill-rule:nonzero;stroke:none"
       transform="matrix(0.13333333,0,0,-0.13333333,0,40.68)"
       clip-path="url(#clipPath74)" />
    <path
       id="path75"
       d="m 82.3203,174.055 c 0,-6.078 -13.0469,-10.996 -29.1601,-10.996 -16.1133,0 -29.1797,4.918 -29.1797,10.996 0,6.082 13.0664,11.004 29.1797,11.004 16.1132,0 29.1601,-4.922 29.1601,-11.004"
       style="fill:#ffffff;fill-opacity:1;fill-rule:nonzero;stroke:none"
       transform="matrix(0.13333333,0,0,-0.13333333,0,40.68)"
       clip-path="url(#clipPath76)" />
    <path
       id="path77"
       d="m 82.3203,174.055 c 0,-6.078 -13.0469,-10.996 -29.1601,-10.996 -16.1133,0 -29.1797,4.918 -29.1797,10.996 0,6.082 13.0664,11.004 29.1797,11.004 16.1132,0 29.1601,-4.922 29.1601,-11.004 z"
       style="fill:none;stroke:#231f20;stroke-width:3.5;stroke-linecap:round;stroke-linejoin:round;stroke-miterlimit:4;stroke-dasharray:none;stroke-opacity:1"
       transform="matrix(0.13333333,0,0,-0.13333333,0,40.68)"
       clip-path="url(#clipPath78)" />
    <path
       id="path79"
       d="m 61.7734,174.656 c 0,-1.812 -3.9257,-3.301 -8.75,-3.301 -4.8437,0 -8.75,1.489 -8.75,3.301 0,1.828 3.9063,3.293 8.75,3.293 4.8243,0 8.75,-1.465 8.75,-3.293"
       style="fill:#231f20;fill-opacity:1;fill-rule:nonzero;stroke:none"
       transform="matrix(0.13333333,0,0,-0.13333333,0,40.68)"
       clip-path="url(#clipPath80)" />
    <path
       id="path81"
       d="m 61.7734,180.645 c 0,-1.817 -3.9257,-3.282 -8.75,-3.282 -4.8437,0 -8.75,1.465 -8.75,3.282 0,1.835 3.9063,3.3 8.75,3.3 4.8243,0 8.75,-1.465 8.75,-3.3"
       style="fill:#231f20;fill-opacity:1;fill-rule:nonzero;stroke:none"
       transform="matrix(0.13333333,0,0,-0.13333333,0,40.68)"
       clip-path="url(#clipPath82)" />
    <path
       id="path83"
       d="m 82.3203,186.055 c 0,-6.075 -13.0469,-10.989 -29.1601,-10.989 -16.1133,0 -29.1797,4.914 -29.1797,10.989 0,6.074 13.0664,10.996 29.1797,10.996 16.1132,0 29.1601,-4.922 29.1601,-10.996"
       style="fill:#ffffff;fill-opacity:1;fill-rule:nonzero;stroke:none"
       transform="matrix(0.13333333,0,0,-0.13333333,0,40.68)"
       clip-path="url(#clipPath84)" />
    <path
       id="path85"
       d="m 82.3203,186.055 c 0,-6.075 -13.0469,-10.989 -29.1601,-10.989 -16.1133,0 -29.1797,4.914 -29.1797,10.989 0,6.074 13.0664,10.996 29.1797,10.996 16.1132,0 29.1601,-4.922 29.1601,-10.996 z"
       style="fill:none;stroke:#231f20;stroke-width:3.5;stroke-linecap:round;stroke-linejoin:round;stroke-miterlimit:4;stroke-dasharray:none;stroke-opacity:1"
       transform="matrix(0.13333333,0,0,-0.13333333,0,40.68)"
       clip-path="url(#clipPath86)" />
    <path
       id="path87"
       d="m 61.7734,186.641 c 0,-1.817 -3.9257,-3.282 -8.75,-3.282 -4.8437,0 -8.75,1.465 -8.75,3.282 0,1.836 3.9063,3.32 8.75,3.32 4.8243,0 8.75,-1.484 8.75,-3.32"
       style="fill:#231f20;fill-opacity:1;fill-rule:nonzero;stroke:none"
       transform="matrix(0.13333333,0,0,-0.13333333,0,40.68)"
       clip-path="url(#clipPath88)" />
  </g>
</svg>
