<?xml version="1.0" encoding="UTF-8" standalone="no"?>
<!-- Created with Inkscape (http://www.inkscape.org/) -->

<svg
   version="1.1"
   id="svg1"
   width="38.706669"
   height="39.106667"
   viewBox="0 0 38.706669 39.106667"
   sodipodi:docname="lan to lan.eps"
   xmlns:inkscape="http://www.inkscape.org/namespaces/inkscape"
   xmlns:sodipodi="http://sodipodi.sourceforge.net/DTD/sodipodi-0.dtd"
   xmlns="http://www.w3.org/2000/svg"
   xmlns:svg="http://www.w3.org/2000/svg">
  <defs
     id="defs1">
    <clipPath
       clipPathUnits="userSpaceOnUse"
       id="clipPath2">
      <path
         d="M 0,3 V 293 H 290 V 3 Z"
         id="path2" />
    </clipPath>
    <clipPath
       clipPathUnits="userSpaceOnUse"
       id="clipPath4">
      <path
         d="M 0,3 V 293 H 290 V 3 Z"
         id="path4" />
    </clipPath>
    <clipPath
       clipPathUnits="userSpaceOnUse"
       id="clipPath6">
      <path
         d="M 0,3 V 293 H 290 V 3 Z"
         id="path6" />
    </clipPath>
    <clipPath
       clipPathUnits="userSpaceOnUse"
       id="clipPath8">
      <path
         d="M 0,3 V 293 H 290 V 3 Z"
         id="path8" />
    </clipPath>
    <clipPath
       clipPathUnits="userSpaceOnUse"
       id="clipPath10">
      <path
         d="M 0,3 V 293 H 290 V 3 Z"
         id="path10" />
    </clipPath>
    <clipPath
       clipPathUnits="userSpaceOnUse"
       id="clipPath12">
      <path
         d="M 0,3 V 293 H 290 V 3 Z"
         id="path12" />
    </clipPath>
    <clipPath
       clipPathUnits="userSpaceOnUse"
       id="clipPath14">
      <path
         d="M 0,3 V 293 H 290 V 3 Z"
         id="path14" />
    </clipPath>
    <clipPath
       clipPathUnits="userSpaceOnUse"
       id="clipPath16">
      <path
         d="M 0,3 V 293 H 290 V 3 Z"
         id="path16" />
    </clipPath>
    <clipPath
       clipPathUnits="userSpaceOnUse"
       id="clipPath18">
      <path
         d="M 0,3 V 293 H 290 V 3 Z"
         id="path18" />
    </clipPath>
    <clipPath
       clipPathUnits="userSpaceOnUse"
       id="clipPath20">
      <path
         d="M 0,3 V 293 H 290 V 3 Z"
         id="path20" />
    </clipPath>
    <clipPath
       clipPathUnits="userSpaceOnUse"
       id="clipPath22">
      <path
         d="M 0,3 V 293 H 290 V 3 Z"
         id="path22" />
    </clipPath>
    <clipPath
       clipPathUnits="userSpaceOnUse"
       id="clipPath24">
      <path
         d="M 0,3 V 293 H 290 V 3 Z"
         id="path24" />
    </clipPath>
    <clipPath
       clipPathUnits="userSpaceOnUse"
       id="clipPath26">
      <path
         d="M 0,3 V 293 H 290 V 3 Z"
         id="path26" />
    </clipPath>
    <clipPath
       clipPathUnits="userSpaceOnUse"
       id="clipPath28">
      <path
         d="M 0,3 V 293 H 290 V 3 Z"
         id="path28" />
    </clipPath>
    <clipPath
       clipPathUnits="userSpaceOnUse"
       id="clipPath30">
      <path
         d="M 0,3 V 293 H 290 V 3 Z"
         id="path30" />
    </clipPath>
    <clipPath
       clipPathUnits="userSpaceOnUse"
       id="clipPath32">
      <path
         d="M 0,3 V 293 H 290 V 3 Z"
         id="path32" />
    </clipPath>
    <clipPath
       clipPathUnits="userSpaceOnUse"
       id="clipPath34">
      <path
         d="M 0,3 V 293 H 290 V 3 Z"
         id="path34" />
    </clipPath>
    <clipPath
       clipPathUnits="userSpaceOnUse"
       id="clipPath36">
      <path
         d="M 0,3 V 293 H 290 V 3 Z"
         id="path36" />
    </clipPath>
    <clipPath
       clipPathUnits="userSpaceOnUse"
       id="clipPath38">
      <path
         d="M 0,3 V 293 H 290 V 3 Z"
         id="path38" />
    </clipPath>
    <clipPath
       clipPathUnits="userSpaceOnUse"
       id="clipPath40">
      <path
         d="M 0,3 V 293 H 290 V 3 Z"
         id="path40" />
    </clipPath>
    <clipPath
       clipPathUnits="userSpaceOnUse"
       id="clipPath42">
      <path
         d="M 0,3 V 293 H 290 V 3 Z"
         id="path42" />
    </clipPath>
    <clipPath
       clipPathUnits="userSpaceOnUse"
       id="clipPath44">
      <path
         d="M 0,3 V 293 H 290 V 3 Z"
         id="path44" />
    </clipPath>
    <clipPath
       clipPathUnits="userSpaceOnUse"
       id="clipPath46">
      <path
         d="M 0,3 V 293 H 290 V 3 Z"
         id="path46" />
    </clipPath>
    <clipPath
       clipPathUnits="userSpaceOnUse"
       id="clipPath48">
      <path
         d="M 0,3 V 293 H 290 V 3 Z"
         id="path48" />
    </clipPath>
    <clipPath
       clipPathUnits="userSpaceOnUse"
       id="clipPath50">
      <path
         d="M 0,3 V 293 H 290 V 3 Z"
         id="path50" />
    </clipPath>
    <clipPath
       clipPathUnits="userSpaceOnUse"
       id="clipPath52">
      <path
         d="M 0,3 V 293 H 290 V 3 Z"
         id="path52" />
    </clipPath>
    <clipPath
       clipPathUnits="userSpaceOnUse"
       id="clipPath54">
      <path
         d="M 0,3 V 293 H 290 V 3 Z"
         id="path54" />
    </clipPath>
    <clipPath
       clipPathUnits="userSpaceOnUse"
       id="clipPath56">
      <path
         d="M 0,3 V 293 H 290 V 3 Z"
         id="path56" />
    </clipPath>
    <clipPath
       clipPathUnits="userSpaceOnUse"
       id="clipPath58">
      <path
         d="M 0,3 V 293 H 290 V 3 Z"
         id="path58" />
    </clipPath>
    <clipPath
       clipPathUnits="userSpaceOnUse"
       id="clipPath60">
      <path
         d="M 0,3 V 293 H 290 V 3 Z"
         id="path60" />
    </clipPath>
  </defs>
  <sodipodi:namedview
     id="namedview1"
     pagecolor="#505050"
     bordercolor="#eeeeee"
     borderopacity="1"
     inkscape:showpageshadow="0"
     inkscape:pageopacity="0"
     inkscape:pagecheckerboard="0"
     inkscape:deskcolor="#d1d1d1">
    <inkscape:page
       x="0"
       y="0"
       inkscape:label="1"
       id="page1"
       width="38.706669"
       height="39.106667"
       margin="0"
       bleed="0" />
  </sodipodi:namedview>
  <g
     id="g1"
     inkscape:groupmode="layer"
     inkscape:label="1">
    <path
       id="path1"
       d="m 1.99609,1.75781 h 255.094 v 258.457 H 1.99609 Z"
       style="fill:#026b9a;fill-opacity:1;fill-rule:nonzero;stroke:none"
       transform="matrix(0.13333333,0,0,-0.13333333,0,39.106667)"
       clip-path="url(#clipPath2)" />
    <path
       id="path3"
       d="M 257.09,1.75781 V 260.215 H 1.99609 V 1.75781 Z"
       style="fill:none;stroke:#ffffff;stroke-width:1.51993;stroke-linecap:butt;stroke-linejoin:miter;stroke-miterlimit:4;stroke-dasharray:none;stroke-opacity:1"
       transform="matrix(0.13333333,0,0,-0.13333333,0,39.106667)"
       clip-path="url(#clipPath4)" />
    <path
       id="path5"
       d="m 150.996,221.164 h 61.25"
       style="fill:none;stroke:#ffffff;stroke-width:15.2;stroke-linecap:butt;stroke-linejoin:miter;stroke-miterlimit:4;stroke-dasharray:none;stroke-opacity:1"
       transform="matrix(0.13333333,0,0,-0.13333333,0,39.106667)"
       clip-path="url(#clipPath6)" />
    <path
       id="path7"
       d="m 212.578,233.938 v -24.649 l 25.82,11.836 -25.82,12.813"
       style="fill:#ffffff;fill-opacity:1;fill-rule:nonzero;stroke:none"
       transform="matrix(0.13333333,0,0,-0.13333333,0,39.106667)"
       clip-path="url(#clipPath8)" />
    <path
       id="path9"
       d="m 212.578,233.938 v -24.649 l 25.82,11.836 z"
       style="fill:none;stroke:#ffffff;stroke-width:3.80005;stroke-linecap:butt;stroke-linejoin:miter;stroke-miterlimit:4;stroke-dasharray:none;stroke-opacity:1"
       transform="matrix(0.13333333,0,0,-0.13333333,0,39.106667)"
       clip-path="url(#clipPath10)" />
    <path
       id="path11"
       d="m 150.996,110.969 h 61.25"
       style="fill:none;stroke:#ffffff;stroke-width:15.2;stroke-linecap:butt;stroke-linejoin:miter;stroke-miterlimit:4;stroke-dasharray:none;stroke-opacity:1"
       transform="matrix(0.13333333,0,0,-0.13333333,0,39.106667)"
       clip-path="url(#clipPath12)" />
    <path
       id="path13"
       d="M 212.578,123.742 V 99.0938 l 25.82,11.8362 -25.82,12.812"
       style="fill:#ffffff;fill-opacity:1;fill-rule:nonzero;stroke:none"
       transform="matrix(0.13333333,0,0,-0.13333333,0,39.106667)"
       clip-path="url(#clipPath14)" />
    <path
       id="path15"
       d="M 212.578,123.742 V 99.0938 l 25.82,11.8362 z"
       style="fill:none;stroke:#ffffff;stroke-width:3.80005;stroke-linecap:butt;stroke-linejoin:miter;stroke-miterlimit:4;stroke-dasharray:none;stroke-opacity:1"
       transform="matrix(0.13333333,0,0,-0.13333333,0,39.106667)"
       clip-path="url(#clipPath16)" />
    <path
       id="path17"
       d="m 240.293,53.1758 h -61.23"
       style="fill:none;stroke:#ffffff;stroke-width:15.2;stroke-linecap:butt;stroke-linejoin:miter;stroke-miterlimit:4;stroke-dasharray:none;stroke-opacity:1"
       transform="matrix(0.13333333,0,0,-0.13333333,0,39.106667)"
       clip-path="url(#clipPath18)" />
    <path
       id="path19"
       d="m 178.711,40.4023 v 24.6485 l -25.82,-11.836 25.82,-12.8125"
       style="fill:#ffffff;fill-opacity:1;fill-rule:nonzero;stroke:none"
       transform="matrix(0.13333333,0,0,-0.13333333,0,39.106667)"
       clip-path="url(#clipPath20)" />
    <path
       id="path21"
       d="m 178.711,40.4023 v 24.6485 l -25.82,-11.836 z"
       style="fill:none;stroke:#ffffff;stroke-width:3.80005;stroke-linecap:butt;stroke-linejoin:miter;stroke-miterlimit:4;stroke-dasharray:none;stroke-opacity:1"
       transform="matrix(0.13333333,0,0,-0.13333333,0,39.106667)"
       clip-path="url(#clipPath22)" />
    <path
       id="path23"
       d="m 240.293,163.379 h -61.23"
       style="fill:none;stroke:#ffffff;stroke-width:15.2;stroke-linecap:butt;stroke-linejoin:miter;stroke-miterlimit:4;stroke-dasharray:none;stroke-opacity:1"
       transform="matrix(0.13333333,0,0,-0.13333333,0,39.106667)"
       clip-path="url(#clipPath24)" />
    <path
       id="path25"
       d="m 178.711,150.605 v 24.637 l -25.82,-11.836 25.82,-12.801"
       style="fill:#ffffff;fill-opacity:1;fill-rule:nonzero;stroke:none"
       transform="matrix(0.13333333,0,0,-0.13333333,0,39.106667)"
       clip-path="url(#clipPath26)" />
    <path
       id="path27"
       d="m 178.711,150.605 v 24.637 l -25.82,-11.836 z"
       style="fill:none;stroke:#ffffff;stroke-width:3.80005;stroke-linecap:butt;stroke-linejoin:miter;stroke-miterlimit:4;stroke-dasharray:none;stroke-opacity:1"
       transform="matrix(0.13333333,0,0,-0.13333333,0,39.106667)"
       clip-path="url(#clipPath28)" />
    <path
       id="path29"
       d="M 115.512,160.574 H 41.3516"
       style="fill:none;stroke:#ffffff;stroke-width:7.59995;stroke-linecap:butt;stroke-linejoin:miter;stroke-miterlimit:4;stroke-dasharray:none;stroke-opacity:1"
       transform="matrix(0.13333333,0,0,-0.13333333,0,39.106667)"
       clip-path="url(#clipPath30)" />
    <path
       id="path31"
       d="m 44.2813,152.156 v 15.785 l -17.5,-7.578 17.5,-8.207"
       style="fill:#ffffff;fill-opacity:1;fill-rule:nonzero;stroke:none"
       transform="matrix(0.13333333,0,0,-0.13333333,0,39.106667)"
       clip-path="url(#clipPath32)" />
    <path
       id="path33"
       d="m 44.2813,152.156 v 15.785 l -17.5,-7.578 z"
       style="fill:none;stroke:#ffffff;stroke-width:3.80005;stroke-linecap:butt;stroke-linejoin:miter;stroke-miterlimit:4;stroke-dasharray:none;stroke-opacity:1"
       transform="matrix(0.13333333,0,0,-0.13333333,0,39.106667)"
       clip-path="url(#clipPath34)" />
    <path
       id="path35"
       d="M 115.512,52.2773 H 41.3516"
       style="fill:none;stroke:#ffffff;stroke-width:7.59995;stroke-linecap:butt;stroke-linejoin:miter;stroke-miterlimit:4;stroke-dasharray:none;stroke-opacity:1"
       transform="matrix(0.13333333,0,0,-0.13333333,0,39.106667)"
       clip-path="url(#clipPath36)" />
    <path
       id="path37"
       d="m 44.2813,43.8594 v 15.7812 l -17.5,-7.5781 17.5,-8.2031"
       style="fill:#ffffff;fill-opacity:1;fill-rule:nonzero;stroke:none"
       transform="matrix(0.13333333,0,0,-0.13333333,0,39.106667)"
       clip-path="url(#clipPath38)" />
    <path
       id="path39"
       d="m 44.2813,43.8594 v 15.7812 l -17.5,-7.5781 z"
       style="fill:none;stroke:#ffffff;stroke-width:3.80005;stroke-linecap:butt;stroke-linejoin:miter;stroke-miterlimit:4;stroke-dasharray:none;stroke-opacity:1"
       transform="matrix(0.13333333,0,0,-0.13333333,0,39.106667)"
       clip-path="url(#clipPath40)" />
    <path
       id="path41"
       d="M 20.5117,110.031 H 92.1328"
       style="fill:none;stroke:#ffffff;stroke-width:7.59995;stroke-linecap:butt;stroke-linejoin:miter;stroke-miterlimit:4;stroke-dasharray:none;stroke-opacity:1"
       transform="matrix(0.13333333,0,0,-0.13333333,0,39.106667)"
       clip-path="url(#clipPath42)" />
    <path
       id="path43"
       d="m 91.7422,118.449 v -15.761 l 17.4998,7.554 -17.4998,8.207"
       style="fill:#ffffff;fill-opacity:1;fill-rule:nonzero;stroke:none"
       transform="matrix(0.13333333,0,0,-0.13333333,0,39.106667)"
       clip-path="url(#clipPath44)" />
    <path
       id="path45"
       d="m 91.7422,118.449 v -15.761 l 17.4998,7.554 z"
       style="fill:none;stroke:#ffffff;stroke-width:3.80005;stroke-linecap:butt;stroke-linejoin:miter;stroke-miterlimit:4;stroke-dasharray:none;stroke-opacity:1"
       transform="matrix(0.13333333,0,0,-0.13333333,0,39.106667)"
       clip-path="url(#clipPath46)" />
    <path
       id="path47"
       d="M 20.5117,218.34 H 92.1328"
       style="fill:none;stroke:#ffffff;stroke-width:7.59995;stroke-linecap:butt;stroke-linejoin:miter;stroke-miterlimit:4;stroke-dasharray:none;stroke-opacity:1"
       transform="matrix(0.13333333,0,0,-0.13333333,0,39.106667)"
       clip-path="url(#clipPath48)" />
    <path
       id="path49"
       d="m 91.7422,226.75 v -15.762 l 17.4998,7.567 -17.4998,8.195"
       style="fill:#ffffff;fill-opacity:1;fill-rule:nonzero;stroke:none"
       transform="matrix(0.13333333,0,0,-0.13333333,0,39.106667)"
       clip-path="url(#clipPath50)" />
    <path
       id="path51"
       d="m 91.7422,226.75 v -15.762 l 17.4998,7.567 z"
       style="fill:none;stroke:#ffffff;stroke-width:3.80005;stroke-linecap:butt;stroke-linejoin:miter;stroke-miterlimit:4;stroke-dasharray:none;stroke-opacity:1"
       transform="matrix(0.13333333,0,0,-0.13333333,0,39.106667)"
       clip-path="url(#clipPath52)" />
    <path
       id="path53"
       d="M 256.543,260.402 H 2.17188 L 42.0938,292.258 H 289.492 V 292.07 34.8164 L 256.895,1.84766 V 259.484 l -0.352,0.918"
       style="fill:#026b9a;fill-opacity:1;fill-rule:nonzero;stroke:none"
       transform="matrix(0.13333333,0,0,-0.13333333,0,39.106667)"
       clip-path="url(#clipPath54)" />
    <path
       id="path55"
       d="M 256.543,260.402 H 2.17188 L 42.0938,292.258 H 289.492 V 292.07 34.8164 L 256.895,1.84766 V 259.484 Z"
       style="fill:none;stroke:#ffffff;stroke-width:1.51993;stroke-linecap:butt;stroke-linejoin:miter;stroke-miterlimit:4;stroke-dasharray:none;stroke-opacity:1"
       transform="matrix(0.13333333,0,0,-0.13333333,0,39.106667)"
       clip-path="url(#clipPath56)" />
    <path
       id="path57"
       d="m 256.816,260.664 32.969,32.051"
       style="fill:#026b9a;fill-opacity:1;fill-rule:nonzero;stroke:#ffffff;stroke-width:1.51993;stroke-linecap:butt;stroke-linejoin:miter;stroke-miterlimit:4;stroke-dasharray:none;stroke-opacity:1"
       transform="matrix(0.13333333,0,0,-0.13333333,0,39.106667)"
       clip-path="url(#clipPath58)" />
    <path
       id="path59"
       d="M 131.488,1.84766 V 259.484"
       style="fill:#000000;fill-opacity:1;fill-rule:nonzero;stroke:#ffffff;stroke-width:1.51993;stroke-linecap:butt;stroke-linejoin:miter;stroke-miterlimit:4;stroke-dasharray:none;stroke-opacity:1"
       transform="matrix(0.13333333,0,0,-0.13333333,0,39.106667)"
       clip-path="url(#clipPath60)" />
  </g>
</svg>
