<?xml version="1.0" encoding="UTF-8" standalone="no"?>
<!-- Created with Inkscape (http://www.inkscape.org/) -->

<svg
   version="1.1"
   id="svg1"
   width="65.066666"
   height="36.666668"
   viewBox="0 0 65.066666 36.666668"
   sodipodi:docname="lightweight ap.eps"
   xmlns:inkscape="http://www.inkscape.org/namespaces/inkscape"
   xmlns:sodipodi="http://sodipodi.sourceforge.net/DTD/sodipodi-0.dtd"
   xmlns="http://www.w3.org/2000/svg"
   xmlns:svg="http://www.w3.org/2000/svg">
  <defs
     id="defs1" />
  <sodipodi:namedview
     id="namedview1"
     pagecolor="#505050"
     bordercolor="#eeeeee"
     borderopacity="1"
     inkscape:showpageshadow="0"
     inkscape:pageopacity="0"
     inkscape:pagecheckerboard="0"
     inkscape:deskcolor="#d1d1d1">
    <inkscape:page
       x="0"
       y="0"
       inkscape:label="1"
       id="page1"
       width="65.066666"
       height="36.666668"
       margin="0"
       bleed="0" />
  </sodipodi:namedview>
  <g
     id="g1"
     inkscape:groupmode="layer"
     inkscape:label="1">
    <path
       id="path1"
       d="M 5.65234,153.793 149.938,270.473 H 483.047 L 363.633,153.793 H 5.65234"
       style="fill:#087bbb;fill-opacity:1;fill-rule:nonzero;stroke:none"
       transform="matrix(0.13333333,0,0,-0.13333333,0,36.666667)" />
    <path
       id="path2"
       d="M 5.65234,153.793 149.938,270.473 H 483.047 L 363.633,153.793 Z"
       style="fill:none;stroke:#ffffff;stroke-width:4;stroke-linecap:butt;stroke-linejoin:miter;stroke-miterlimit:4;stroke-dasharray:none;stroke-opacity:1"
       transform="matrix(0.13333333,0,0,-0.13333333,0,36.666667)" />
    <path
       id="path3"
       d="M 363.633,4.89453 483.047,126.574 V 270.258 L 363.633,153.793 V 4.89453"
       style="fill:#087bbb;fill-opacity:1;fill-rule:nonzero;stroke:none"
       transform="matrix(0.13333333,0,0,-0.13333333,0,36.666667)" />
    <path
       id="path4"
       d="M 363.633,4.89453 483.047,126.574 V 270.258 L 363.633,153.793 Z"
       style="fill:none;stroke:#ffffff;stroke-width:4;stroke-linecap:butt;stroke-linejoin:miter;stroke-miterlimit:4;stroke-dasharray:none;stroke-opacity:1"
       transform="matrix(0.13333333,0,0,-0.13333333,0,36.666667)" />
    <path
       id="path5"
       d="M 363.633,4.77734 V 153.793 H 6.14063 V 4.77734 H 363.633"
       style="fill:#087bbb;fill-opacity:1;fill-rule:nonzero;stroke:none"
       transform="matrix(0.13333333,0,0,-0.13333333,0,36.666667)" />
    <path
       id="path6"
       d="M 363.633,4.77734 V 153.793 H 6.14063 V 4.77734 Z"
       style="fill:none;stroke:#ffffff;stroke-width:4;stroke-linecap:butt;stroke-linejoin:miter;stroke-miterlimit:4;stroke-dasharray:none;stroke-opacity:1"
       transform="matrix(0.13333333,0,0,-0.13333333,0,36.666667)" />
    <path
       id="path7"
       d="m 343.477,75.1094 c 0,0 -23.789,-61.1719 -52.383,0.1758 -28.574,61.2888 -52.414,0.1171 -52.414,0.1171 0,0 -23.762,-61.1914 -52.336,0.1368 -28.563,61.3089 -52.262,-0.3907 -52.262,-0.3907 0,0 -23.723,-61.2109 -52.3203,0.1368 -28.5625,61.2888 -52.2734,0.1757 -52.2734,0.1757"
       style="fill:none;stroke:#ffffff;stroke-width:4.5;stroke-linecap:round;stroke-linejoin:miter;stroke-miterlimit:1;stroke-dasharray:none;stroke-opacity:1"
       transform="matrix(0.13333333,0,0,-0.13333333,0,36.666667)" />
    <path
       id="path8"
       d="m 29.4883,75.1094 c 0,0 23.793,-61.1719 52.3828,0.1758 28.5669,61.2888 52.4059,0.1171 52.4059,0.1171 0,0 23.758,-61.1914 52.332,0.1368 28.571,61.3089 52.262,-0.3907 52.262,-0.3907 0,0 23.727,-61.2109 52.32,0.1368 28.575,61.2888 52.286,0.1757 52.286,0.1757"
       style="fill:none;stroke:#ffffff;stroke-width:9;stroke-linecap:round;stroke-linejoin:miter;stroke-miterlimit:1;stroke-dasharray:none;stroke-opacity:1"
       transform="matrix(0.13333333,0,0,-0.13333333,0,36.666667)" />
    <path
       id="path9"
       d="m 348.984,75.0898 c 0,0 -23.789,-61.1523 -52.382,0.1954 -28.575,61.2888 -52.414,0.1171 -52.414,0.1171 0,0 -23.758,-61.1914 -52.333,0.1172 -28.57,61.3285 -52.265,-0.3906 -52.265,-0.3906 0,0 -23.723,-61.1914 -52.3205,0.1563 -28.5625,61.2888 -52.2734,0.1367 -52.2734,0.1367"
       style="fill:none;stroke:#231f20;stroke-width:4.5;stroke-linecap:round;stroke-linejoin:miter;stroke-miterlimit:1;stroke-dasharray:none;stroke-opacity:1"
       transform="matrix(0.13333333,0,0,-0.13333333,0,36.666667)" />
    <path
       id="path10"
       d="m 34.9961,75.0898 c 0,0 23.7891,-61.1523 52.3828,0.1954 28.5741,61.2888 52.4021,0.1171 52.4021,0.1171 0,0 23.77,-61.1914 52.336,0.1172 28.571,61.3285 52.258,-0.3906 52.258,-0.3906 0,0 23.73,-61.1914 52.324,0.1563 28.574,61.2888 52.285,0.1367 52.285,0.1367"
       style="fill:none;stroke:#231f20;stroke-width:9;stroke-linecap:round;stroke-linejoin:miter;stroke-miterlimit:1;stroke-dasharray:none;stroke-opacity:1"
       transform="matrix(0.13333333,0,0,-0.13333333,0,36.666667)" />
    <path
       id="path11"
       d="m 343.477,75.1094 c 0,0 -23.789,-61.1719 -52.383,0.1758 -28.574,61.2888 -52.414,0.1171 -52.414,0.1171 0,0 -23.762,-61.1914 -52.336,0.1368 -28.563,61.3089 -52.262,-0.3907 -52.262,-0.3907 0,0 -23.723,-61.2109 -52.3203,0.1368 -28.5625,61.2888 -52.2734,0.1757 -52.2734,0.1757"
       style="fill:none;stroke:#ffffff;stroke-width:4.5;stroke-linecap:round;stroke-linejoin:miter;stroke-miterlimit:1;stroke-dasharray:none;stroke-opacity:1"
       transform="matrix(0.13333333,0,0,-0.13333333,0,36.666667)" />
    <path
       id="path12"
       d="m 29.4883,75.1094 c 0,0 23.793,-61.1719 52.3828,0.1758 28.5669,61.2888 52.4059,0.1171 52.4059,0.1171 0,0 23.758,-61.1914 52.332,0.1368 28.571,61.3089 52.262,-0.3907 52.262,-0.3907 0,0 23.727,-61.2109 52.32,0.1368 28.575,61.2888 52.286,0.1757 52.286,0.1757"
       style="fill:none;stroke:#ffffff;stroke-width:9;stroke-linecap:round;stroke-linejoin:miter;stroke-miterlimit:1;stroke-dasharray:none;stroke-opacity:1"
       transform="matrix(0.13333333,0,0,-0.13333333,0,36.666667)" />
    <path
       id="path13"
       d="m 348.984,75.0898 c 0,0 -23.789,-61.1523 -52.382,0.1954 -28.575,61.2888 -52.414,0.1171 -52.414,0.1171 0,0 -23.758,-61.1914 -52.333,0.1172 -28.57,61.3285 -52.265,-0.3906 -52.265,-0.3906 0,0 -23.723,-61.1914 -52.3205,0.1563 -28.5625,61.2888 -52.2734,0.1367 -52.2734,0.1367"
       style="fill:none;stroke:#231f20;stroke-width:4.5;stroke-linecap:round;stroke-linejoin:miter;stroke-miterlimit:1;stroke-dasharray:none;stroke-opacity:1"
       transform="matrix(0.13333333,0,0,-0.13333333,0,36.666667)" />
    <path
       id="path14"
       d="m 34.9961,75.0898 c 0,0 23.7891,-61.1523 52.3828,0.1954 28.5741,61.2888 52.4021,0.1171 52.4021,0.1171 0,0 23.77,-61.1914 52.336,0.1172 28.571,61.3285 52.258,-0.3906 52.258,-0.3906 0,0 23.73,-61.1914 52.324,0.1563 28.574,61.2888 52.285,0.1367 52.285,0.1367"
       style="fill:none;stroke:#231f20;stroke-width:9;stroke-linecap:round;stroke-linejoin:miter;stroke-miterlimit:1;stroke-dasharray:none;stroke-opacity:1"
       transform="matrix(0.13333333,0,0,-0.13333333,0,36.666667)" />
    <path
       id="path15"
       d="m 343.477,75.1094 c 0,0 -23.789,-61.1719 -52.383,0.1758 -28.574,61.2888 -52.414,0.1171 -52.414,0.1171 0,0 -23.762,-61.1914 -52.336,0.1368 -28.563,61.3089 -52.262,-0.3907 -52.262,-0.3907 0,0 -23.723,-61.2109 -52.3203,0.1368 -28.5625,61.2888 -52.2734,0.1757 -52.2734,0.1757"
       style="fill:none;stroke:#ffffff;stroke-width:4.5;stroke-linecap:round;stroke-linejoin:miter;stroke-miterlimit:1;stroke-dasharray:none;stroke-opacity:1"
       transform="matrix(0.13333333,0,0,-0.13333333,0,36.666667)" />
    <path
       id="path16"
       d="m 29.4883,75.1094 c 0,0 23.793,-61.1719 52.3828,0.1758 28.5669,61.2888 52.4059,0.1171 52.4059,0.1171 0,0 23.758,-61.1914 52.332,0.1368 28.571,61.3089 52.262,-0.3907 52.262,-0.3907 0,0 23.727,-61.2109 52.32,0.1368 28.575,61.2888 52.286,0.1757 52.286,0.1757"
       style="fill:none;stroke:#ffffff;stroke-width:9;stroke-linecap:round;stroke-linejoin:miter;stroke-miterlimit:1;stroke-dasharray:none;stroke-opacity:1"
       transform="matrix(0.13333333,0,0,-0.13333333,0,36.666667)" />
    <path
       id="path17"
       d="M 1.9972248,-6.3206764 H 0.69644356 l -0.005599,6.31896089 H 5.0150633 l 0.00525,-1.08107519 H 1.9968759 Z m 8.9182292,6.31896089 1.763411,-6.31896089 H 11.296053 L 10.353877,-1.5852623 9.3273029,-6.3206764 H 8.0499592 L 7.072627,-1.5852623 6.0929279,-6.3206764 H 4.7218342 l 1.775651,6.31896089 h 1.171875 l 1.0345765,-4.93335739 1.051361,4.93335739 z m 5.681635,-1.27901859 0.417974,1.27901859 h 1.335938 L 16.165194,-6.3206764 h -1.429688 l -2.255599,6.31896089 h 1.324219 l 0.425775,-1.27901859 z m -0.358031,-1.0810752 h -1.640625 l 0.827835,-2.4666787 z m 4.229167,0.1065849 h 1.617187 c 1.160157,0 1.912664,-0.8222263 1.916565,-2.1012449 -0.0059,-1.2637921 -0.726432,-1.9642071 -2.038932,-1.9642071 h -2.789062 l -0.0056,6.31896089 h 1.300781 z m 0.0053,-1.0810753 -0.004,-1.9033014 h 1.207031 c 0.703125,0 1.022509,0.3045282 1.020559,0.9440375 -4.4e-5,0.6547357 -0.313473,0.9592639 -1.016598,0.9592639 z m 5.772094,1.0810753 h 1.617187 c 1.160156,0 1.912664,-0.8222263 1.916565,-2.1012449 -0.0059,-1.2637921 -0.726432,-1.9642071 -2.038932,-1.9642071 h -2.789063 l -0.0056,6.31896089 h 1.300782 z m 0.0053,-1.0810753 -0.004,-1.9033014 h 1.207031 c 0.703125,0 1.022509,0.3045282 1.020558,0.9440375 -4.3e-5,0.6547357 -0.313472,0.9592639 -1.016597,0.9592639 z m 0,0"
       style="fill:#ffffff;fill-opacity:1;fill-rule:nonzero;stroke:none"
       aria-label="LWAPP"
       transform="matrix(1.3333333,0,-1.1931407,1.0261774,8.5807333,11.630667)" />
  </g>
</svg>
