<?xml version="1.0" encoding="UTF-8" standalone="no"?>
<!-- Created with Inkscape (http://www.inkscape.org/) -->

<svg
   version="1.1"
   id="svg1"
   width="57.400002"
   height="40.973331"
   viewBox="0 0 57.400002 40.973331"
   sodipodi:docname="macintosh.eps"
   xmlns:inkscape="http://www.inkscape.org/namespaces/inkscape"
   xmlns:sodipodi="http://sodipodi.sourceforge.net/DTD/sodipodi-0.dtd"
   xmlns="http://www.w3.org/2000/svg"
   xmlns:svg="http://www.w3.org/2000/svg">
  <defs
     id="defs1" />
  <sodipodi:namedview
     id="namedview1"
     pagecolor="#505050"
     bordercolor="#eeeeee"
     borderopacity="1"
     inkscape:showpageshadow="0"
     inkscape:pageopacity="0"
     inkscape:pagecheckerboard="0"
     inkscape:deskcolor="#d1d1d1">
    <inkscape:page
       x="0"
       y="0"
       inkscape:label="1"
       id="page1"
       width="57.400002"
       height="40.973331"
       margin="0"
       bleed="0" />
  </sodipodi:namedview>
  <g
     id="g1"
     inkscape:groupmode="layer"
     inkscape:label="1">
    <path
       id="path1"
       d="M 93.3359,289.332 H 6.95313 V 44.1992 l 81.38277,0.7344"
       style="fill:#02709f;fill-opacity:1;fill-rule:nonzero;stroke:#ffffff;stroke-width:3.99994;stroke-linecap:butt;stroke-linejoin:miter;stroke-miterlimit:4;stroke-dasharray:none;stroke-opacity:1"
       transform="matrix(0.13333333,0,0,-0.13333333,0,40.973333)" />
    <path
       id="path2"
       d="M 88.3359,289.332 V 44.1992 l 6.6446,4.9805 V 290.977 l -6.6446,-1.645"
       style="fill:#02709f;fill-opacity:1;fill-rule:nonzero;stroke:none"
       transform="matrix(0.13333333,0,0,-0.13333333,0,40.973333)" />
    <path
       id="path3"
       d="M 88.3359,289.332 V 44.1992 l 6.6446,4.9805 V 290.977 Z"
       style="fill:none;stroke:#ffffff;stroke-width:3.99994;stroke-linecap:butt;stroke-linejoin:miter;stroke-miterlimit:4;stroke-dasharray:none;stroke-opacity:1"
       transform="matrix(0.13333333,0,0,-0.13333333,0,40.973333)" />
    <path
       id="path4"
       d="M 112.5,289.766 V 46.8086 l 37.48,32.4766 V 304.414 L 112.5,289.766"
       style="fill:#02709f;fill-opacity:1;fill-rule:nonzero;stroke:none"
       transform="matrix(0.13333333,0,0,-0.13333333,0,40.973333)" />
    <path
       id="path5"
       d="M 112.5,289.766 V 46.8086 l 37.48,32.4766 V 304.414 Z"
       style="fill:none;stroke:#ffffff;stroke-width:3.99994;stroke-linecap:butt;stroke-linejoin:miter;stroke-miterlimit:4;stroke-dasharray:none;stroke-opacity:1"
       transform="matrix(0.13333333,0,0,-0.13333333,0,40.973333)" />
    <path
       id="path6"
       d="m 80.5195,274.258 h -68.75"
       style="fill:#02709f;fill-opacity:1;fill-rule:nonzero;stroke:#ffffff;stroke-width:3.99994;stroke-linecap:butt;stroke-linejoin:miter;stroke-miterlimit:4;stroke-dasharray:none;stroke-opacity:1"
       transform="matrix(0.13333333,0,0,-0.13333333,0,40.973333)" />
    <path
       id="path7"
       d="m 73.8516,249.258 h -56.25"
       style="fill:#02709f;fill-opacity:1;fill-rule:nonzero;stroke:#ffffff;stroke-width:3.99994;stroke-linecap:butt;stroke-linejoin:miter;stroke-miterlimit:4;stroke-dasharray:none;stroke-opacity:1"
       transform="matrix(0.13333333,0,0,-0.13333333,0,40.973333)" />
    <path
       id="path8"
       d="m 94.4531,47.5313 h 17.2188 v 242.957 H 94.4531 Z"
       style="fill:#02709f;fill-opacity:1;fill-rule:nonzero;stroke:none"
       transform="matrix(0.13333333,0,0,-0.13333333,0,40.973333)" />
    <path
       id="path9"
       d="M 111.672,290.488 H 94.4531 V 47.5313 h 17.2189"
       style="fill:none;stroke:#ffffff;stroke-width:3.99994;stroke-linecap:butt;stroke-linejoin:miter;stroke-miterlimit:4;stroke-dasharray:none;stroke-opacity:1"
       transform="matrix(0.13333333,0,0,-0.13333333,0,40.973333)" />
    <path
       id="path10"
       d="M 2.83203,262.168 H 88.6602"
       style="fill:#02709f;fill-opacity:1;fill-rule:nonzero;stroke:#ffffff;stroke-width:3.99994;stroke-linecap:butt;stroke-linejoin:miter;stroke-miterlimit:4;stroke-dasharray:none;stroke-opacity:1"
       transform="matrix(0.13333333,0,0,-0.13333333,0,40.973333)" />
    <path
       id="path11"
       d="M 2.83203,238.008 H 88.6602"
       style="fill:#02709f;fill-opacity:1;fill-rule:nonzero;stroke:#ffffff;stroke-width:3.99994;stroke-linecap:butt;stroke-linejoin:miter;stroke-miterlimit:4;stroke-dasharray:none;stroke-opacity:1"
       transform="matrix(0.13333333,0,0,-0.13333333,0,40.973333)" />
    <path
       id="path12"
       d="m 103.688,73.9922 c 1.609,0 2.914,1.3125 2.914,2.9219 0,1.6132 -1.305,2.9101 -2.914,2.9101 -1.61,0 -2.911,-1.2969 -2.911,-2.9101 0,-1.6094 1.301,-2.9219 2.911,-2.9219"
       style="fill:#02709f;fill-opacity:1;fill-rule:nonzero;stroke:none"
       transform="matrix(0.13333333,0,0,-0.13333333,0,40.973333)" />
    <path
       id="path13"
       d="m 103.688,73.9922 c 1.609,0 2.914,1.3125 2.914,2.9219 0,1.6132 -1.305,2.9101 -2.914,2.9101 -1.61,0 -2.911,-1.2969 -2.911,-2.9101 0,-1.6094 1.301,-2.9219 2.911,-2.9219 z"
       style="fill:none;stroke:#ffffff;stroke-width:3.99994;stroke-linecap:butt;stroke-linejoin:miter;stroke-miterlimit:4;stroke-dasharray:none;stroke-opacity:1"
       transform="matrix(0.13333333,0,0,-0.13333333,0,40.973333)" />
    <path
       id="path14"
       d="m 103.688,54.0547 c 1.609,0 2.914,1.3086 2.914,2.9101 0,1.6094 -1.305,2.918 -2.914,2.918 -1.61,0 -2.911,-1.3086 -2.911,-2.918 0,-1.6015 1.301,-2.9101 2.911,-2.9101"
       style="fill:#02709f;fill-opacity:1;fill-rule:nonzero;stroke:none"
       transform="matrix(0.13333333,0,0,-0.13333333,0,40.973333)" />
    <path
       id="path15"
       d="m 103.688,54.0547 c 1.609,0 2.914,1.3086 2.914,2.9101 0,1.6094 -1.305,2.918 -2.914,2.918 -1.61,0 -2.911,-1.3086 -2.911,-2.918 0,-1.6015 1.301,-2.9101 2.911,-2.9101 z"
       style="fill:none;stroke:#ffffff;stroke-width:3.99994;stroke-linecap:butt;stroke-linejoin:miter;stroke-miterlimit:4;stroke-dasharray:none;stroke-opacity:1"
       transform="matrix(0.13333333,0,0,-0.13333333,0,40.973333)" />
    <path
       id="path16"
       d="m 114.688,290.352 38.089,14.898 H 64.6445 L 0.503906,288.605 H 86.8867 l 5.4297,1.024 22.3716,0.723"
       style="fill:#02709f;fill-opacity:1;fill-rule:nonzero;stroke:none"
       transform="matrix(0.13333333,0,0,-0.13333333,0,40.973333)" />
    <path
       id="path17"
       d="m 114.688,290.352 38.089,14.898 H 64.6445 L 0.503906,288.605 H 86.8867 l 5.4297,1.024 z"
       style="fill:none;stroke:#ffffff;stroke-width:3.99994;stroke-linecap:butt;stroke-linejoin:miter;stroke-miterlimit:4;stroke-dasharray:none;stroke-opacity:1"
       transform="matrix(0.13333333,0,0,-0.13333333,0,40.973333)" />
    <path
       id="path18"
       d="M 368.633,103.074 H 139.758"
       style="fill:#02709f;fill-opacity:1;fill-rule:nonzero;stroke:#ffffff;stroke-width:3.99994;stroke-linecap:butt;stroke-linejoin:miter;stroke-miterlimit:4;stroke-dasharray:none;stroke-opacity:1"
       transform="matrix(0.13333333,0,0,-0.13333333,0,40.973333)" />
    <path
       id="path19"
       d="m 139.758,103.945 h 228.57 v 172.344 h -228.57 z"
       style="fill:#02709f;fill-opacity:1;fill-rule:nonzero;stroke:none"
       transform="matrix(0.13333333,0,0,-0.13333333,0,40.973333)" />
    <path
       id="path20"
       d="M 368.328,103.945 V 276.289 H 139.758 V 103.945"
       style="fill:none;stroke:#ffffff;stroke-width:3.99994;stroke-linecap:butt;stroke-linejoin:miter;stroke-miterlimit:4;stroke-dasharray:none;stroke-opacity:1"
       transform="matrix(0.13333333,0,0,-0.13333333,0,40.973333)" />
    <path
       id="path21"
       d="m 368.328,103.32 26.508,47.129 v 151.09 H 227.512 l -87.754,-25.25 h 228.57 V 103.32"
       style="fill:#02709f;fill-opacity:1;fill-rule:nonzero;stroke:none"
       transform="matrix(0.13333333,0,0,-0.13333333,0,40.973333)" />
    <path
       id="path22"
       d="m 368.328,103.32 26.508,47.129 v 151.09 H 227.512 l -87.754,-25.25 h 228.57 z"
       style="fill:none;stroke:#ffffff;stroke-width:3.99994;stroke-linecap:butt;stroke-linejoin:miter;stroke-miterlimit:4;stroke-dasharray:none;stroke-opacity:1"
       transform="matrix(0.13333333,0,0,-0.13333333,0,40.973333)" />
    <path
       id="path23"
       d="m 159.711,123.898 h 188.668 v 132.43 H 159.711 Z"
       style="fill:#02709f;fill-opacity:1;fill-rule:nonzero;stroke:none"
       transform="matrix(0.13333333,0,0,-0.13333333,0,40.973333)" />
    <path
       id="path24"
       d="m 348.379,123.898 v 132.43 H 159.711 v -132.43 z"
       style="fill:none;stroke:#ffffff;stroke-width:3.99994;stroke-linecap:butt;stroke-linejoin:miter;stroke-miterlimit:4;stroke-dasharray:none;stroke-opacity:1"
       transform="matrix(0.13333333,0,0,-0.13333333,0,40.973333)" />
    <path
       id="path25"
       d="m 368.328,276.289 26.508,25.25"
       style="fill:#02709f;fill-opacity:1;fill-rule:nonzero;stroke:#ffffff;stroke-width:3.99994;stroke-linecap:butt;stroke-linejoin:miter;stroke-miterlimit:4;stroke-dasharray:none;stroke-opacity:1"
       transform="matrix(0.13333333,0,0,-0.13333333,0,40.973333)" />
    <path
       id="path26"
       d="M 353.586,5.26563 V 30.6133 H 90.5352 L 134.223,60.5586 H 383.516 V 38.9531 L 353.586,5.26563"
       style="fill:#02709f;fill-opacity:1;fill-rule:nonzero;stroke:none"
       transform="matrix(0.13333333,0,0,-0.13333333,0,40.973333)" />
    <path
       id="path27"
       d="M 353.586,5.26563 V 30.6133 H 90.5352 L 134.223,60.5586 H 383.516 V 38.9531 Z"
       style="fill:none;stroke:#ffffff;stroke-width:3.99994;stroke-linecap:butt;stroke-linejoin:miter;stroke-miterlimit:4;stroke-dasharray:none;stroke-opacity:1"
       transform="matrix(0.13333333,0,0,-0.13333333,0,40.973333)" />
    <path
       id="path28"
       d="m 90.5352,5.26563 h 263.051 v 25.3477 H 90.5352 Z"
       style="fill:#02709f;fill-opacity:1;fill-rule:nonzero;stroke:none"
       transform="matrix(0.13333333,0,0,-0.13333333,0,40.973333)" />
    <path
       id="path29"
       d="M 353.586,30.6133 V 5.26563 H 90.5352 V 30.6133 Z"
       style="fill:none;stroke:#ffffff;stroke-width:3.99994;stroke-linecap:butt;stroke-linejoin:miter;stroke-miterlimit:4;stroke-dasharray:none;stroke-opacity:1"
       transform="matrix(0.13333333,0,0,-0.13333333,0,40.973333)" />
    <path
       id="path30"
       d="m 353.586,30.6133 29.93,29.9453"
       style="fill:#02709f;fill-opacity:1;fill-rule:nonzero;stroke:#ffffff;stroke-width:3.99994;stroke-linecap:butt;stroke-linejoin:miter;stroke-miterlimit:4;stroke-dasharray:none;stroke-opacity:1"
       transform="matrix(0.13333333,0,0,-0.13333333,0,40.973333)" />
    <path
       id="path31"
       d="M 370.09,17.4727 366.023,5.32422 h 44.043 l -2.007,12.14848"
       style="fill:#02709f;fill-opacity:1;fill-rule:nonzero;stroke:#ffffff;stroke-width:3.99994;stroke-linecap:butt;stroke-linejoin:miter;stroke-miterlimit:4;stroke-dasharray:none;stroke-opacity:1"
       transform="matrix(0.13333333,0,0,-0.13333333,0,40.973333)" />
    <path
       id="path32"
       d="m 408.059,17.4727 -1.016,16.1875 H 387.805 L 369.578,17.4727 h 38.481"
       style="fill:#02709f;fill-opacity:1;fill-rule:nonzero;stroke:none"
       transform="matrix(0.13333333,0,0,-0.13333333,0,40.973333)" />
    <path
       id="path33"
       d="m 408.059,17.4727 -1.016,16.1875 H 387.805 L 369.578,17.4727 Z"
       style="fill:none;stroke:#ffffff;stroke-width:3.99994;stroke-linecap:butt;stroke-linejoin:miter;stroke-miterlimit:4;stroke-dasharray:none;stroke-opacity:1"
       transform="matrix(0.13333333,0,0,-0.13333333,0,40.973333)" />
    <path
       id="path34"
       d="m 332.117,83.2148 9.375,-21.875 26.25,28.75 -3.125,10.6252"
       style="fill:#02709f;fill-opacity:1;fill-rule:nonzero;stroke:#ffffff;stroke-width:3.99994;stroke-linecap:butt;stroke-linejoin:miter;stroke-miterlimit:4;stroke-dasharray:none;stroke-opacity:1"
       transform="matrix(0.13333333,0,0,-0.13333333,0,40.973333)" />
    <path
       id="path35"
       d="m 332.117,83.2148 36.25,20.0002 h -228.75 l 50.625,-20.0002 h 141.875"
       style="fill:#02709f;fill-opacity:1;fill-rule:nonzero;stroke:none"
       transform="matrix(0.13333333,0,0,-0.13333333,0,40.973333)" />
    <path
       id="path36"
       d="m 332.117,83.2148 36.25,20.0002 h -228.75 l 50.625,-20.0002 z"
       style="fill:none;stroke:#ffffff;stroke-width:3.99994;stroke-linecap:butt;stroke-linejoin:miter;stroke-miterlimit:4;stroke-dasharray:none;stroke-opacity:1"
       transform="matrix(0.13333333,0,0,-0.13333333,0,40.973333)" />
    <path
       id="path37"
       d="m 342.117,60.7148 -10,22.5 H 190.242 l -13.125,-22.5 h 165"
       style="fill:#02709f;fill-opacity:1;fill-rule:nonzero;stroke:none"
       transform="matrix(0.13333333,0,0,-0.13333333,0,40.973333)" />
    <path
       id="path38"
       d="m 342.117,60.7148 -10,22.5 H 190.242 l -13.125,-22.5 z"
       style="fill:none;stroke:#ffffff;stroke-width:3.99994;stroke-linecap:butt;stroke-linejoin:miter;stroke-miterlimit:4;stroke-dasharray:none;stroke-opacity:1"
       transform="matrix(0.13333333,0,0,-0.13333333,0,40.973333)" />
    <path
       id="path39"
       d="m 398.484,32.0117 c 4.075,4.8946 -18.152,11.5156 6.875,15.625 15.981,2.6289 64.387,31.086 -49.136,32.5664"
       style="fill:none;stroke:#02709f;stroke-width:3.99994;stroke-linecap:butt;stroke-linejoin:miter;stroke-miterlimit:4;stroke-dasharray:none;stroke-opacity:1"
       transform="matrix(0.13333333,0,0,-0.13333333,0,40.973333)" />
  </g>
</svg>
