<?xml version="1.0" encoding="UTF-8" standalone="no"?>
<!-- Created with Inkscape (http://www.inkscape.org/) -->

<svg
   version="1.1"
   id="svg1"
   width="52.799999"
   height="17.200001"
   viewBox="0 0 52.799999 17.200001"
   sodipodi:docname="mau.eps"
   xmlns:inkscape="http://www.inkscape.org/namespaces/inkscape"
   xmlns:sodipodi="http://sodipodi.sourceforge.net/DTD/sodipodi-0.dtd"
   xmlns="http://www.w3.org/2000/svg"
   xmlns:svg="http://www.w3.org/2000/svg">
  <defs
     id="defs1" />
  <sodipodi:namedview
     id="namedview1"
     pagecolor="#505050"
     bordercolor="#eeeeee"
     borderopacity="1"
     inkscape:showpageshadow="0"
     inkscape:pageopacity="0"
     inkscape:pagecheckerboard="0"
     inkscape:deskcolor="#d1d1d1">
    <inkscape:page
       x="0"
       y="0"
       inkscape:label="1"
       id="page1"
       width="52.799999"
       height="17.200001"
       margin="0"
       bleed="0" />
  </sodipodi:namedview>
  <g
     id="g1"
     inkscape:groupmode="layer"
     inkscape:label="1">
    <path
       id="path1"
       d="m 5.91406,4.41797 h 333.152 v 83.0664 H 5.91406 Z"
       style="fill:#02709f;fill-opacity:1;fill-rule:nonzero;stroke:none"
       transform="matrix(0.13333333,0,0,-0.13333333,0,17.2)" />
    <path
       id="path2"
       d="M 5.91406,4.41797 V 87.4844 H 339.066 V 4.41797 Z"
       style="fill:none;stroke:#ffffff;stroke-width:3.99994;stroke-linecap:butt;stroke-linejoin:miter;stroke-miterlimit:4;stroke-dasharray:none;stroke-opacity:1"
       transform="matrix(0.13333333,0,0,-0.13333333,0,17.2)" />
    <path
       id="path3"
       d="M 27.4648,47.6016 H 86.2734 V 58.6368 H 27.4648 Z"
       style="fill:#02709f;fill-opacity:1;fill-rule:nonzero;stroke:none"
       transform="matrix(0.13333333,0,0,-0.13333333,0,17.2)" />
    <path
       id="path4"
       d="M 86.2734,47.6016 V 58.6367 H 27.4648 V 47.6016 Z"
       style="fill:none;stroke:#ffffff;stroke-width:3.99994;stroke-linecap:butt;stroke-linejoin:miter;stroke-miterlimit:4;stroke-dasharray:none;stroke-opacity:1"
       transform="matrix(0.13333333,0,0,-0.13333333,0,17.2)" />
    <path
       id="path5"
       d="m 102.809,47.6016 h 58.8086 V 58.6368 H 102.809 Z"
       style="fill:#02709f;fill-opacity:1;fill-rule:nonzero;stroke:none"
       transform="matrix(0.13333333,0,0,-0.13333333,0,17.2)" />
    <path
       id="path6"
       d="M 161.617,47.6016 V 58.6367 H 102.809 V 47.6016 Z"
       style="fill:none;stroke:#ffffff;stroke-width:3.99994;stroke-linecap:butt;stroke-linejoin:miter;stroke-miterlimit:4;stroke-dasharray:none;stroke-opacity:1"
       transform="matrix(0.13333333,0,0,-0.13333333,0,17.2)" />
    <path
       id="path7"
       d="m 178.16,47.6016 h 58.8086 V 58.6368 H 178.16 Z"
       style="fill:#02709f;fill-opacity:1;fill-rule:nonzero;stroke:none"
       transform="matrix(0.13333333,0,0,-0.13333333,0,17.2)" />
    <path
       id="path8"
       d="M 236.969,47.6016 V 58.6367 H 178.16 V 47.6016 Z"
       style="fill:none;stroke:#ffffff;stroke-width:3.99994;stroke-linecap:butt;stroke-linejoin:miter;stroke-miterlimit:4;stroke-dasharray:none;stroke-opacity:1"
       transform="matrix(0.13333333,0,0,-0.13333333,0,17.2)" />
    <path
       id="path9"
       d="m 253.5,47.6016 h 58.8203 V 58.6368 H 253.5 Z"
       style="fill:#02709f;fill-opacity:1;fill-rule:nonzero;stroke:none"
       transform="matrix(0.13333333,0,0,-0.13333333,0,17.2)" />
    <path
       id="path10"
       d="M 312.32,47.6016 V 58.6367 H 253.5 V 47.6016 Z"
       style="fill:none;stroke:#ffffff;stroke-width:3.99994;stroke-linecap:butt;stroke-linejoin:miter;stroke-miterlimit:4;stroke-dasharray:none;stroke-opacity:1"
       transform="matrix(0.13333333,0,0,-0.13333333,0,17.2)" />
    <path
       id="path11"
       d="m 339.066,87.4844 v 0 H 5.91406 L 55.0742,125.043 H 389.879 L 339.066,87.4844"
       style="fill:#02709f;fill-opacity:1;fill-rule:nonzero;stroke:none"
       transform="matrix(0.13333333,0,0,-0.13333333,0,17.2)" />
    <path
       id="path12"
       d="m 339.066,87.4844 v 0 H 5.91406 L 55.0742,125.043 H 389.879 Z"
       style="fill:none;stroke:#ffffff;stroke-width:3.99994;stroke-linecap:butt;stroke-linejoin:miter;stroke-miterlimit:4;stroke-dasharray:none;stroke-opacity:1"
       transform="matrix(0.13333333,0,0,-0.13333333,0,17.2)" />
    <path
       id="path13"
       d="M 339.066,4.41797 V 87.4844 l 50.813,37.5586 V 49.0469 L 339.066,4.41797"
       style="fill:#02709f;fill-opacity:1;fill-rule:nonzero;stroke:none"
       transform="matrix(0.13333333,0,0,-0.13333333,0,17.2)" />
    <path
       id="path14"
       d="M 339.066,4.41797 V 87.4844 l 50.813,37.5586 V 49.0469 Z"
       style="fill:none;stroke:#ffffff;stroke-width:3.99994;stroke-linecap:butt;stroke-linejoin:miter;stroke-miterlimit:4;stroke-dasharray:none;stroke-opacity:1"
       transform="matrix(0.13333333,0,0,-0.13333333,0,17.2)" />
  </g>
</svg>
