<?xml version="1.0" encoding="UTF-8" standalone="no"?>
<!-- Created with Inkscape (http://www.inkscape.org/) -->

<svg
   version="1.1"
   id="svg1"
   width="35.48"
   height="42.32"
   viewBox="0 0 35.48 42.32"
   sodipodi:docname="mcu.eps"
   xmlns:inkscape="http://www.inkscape.org/namespaces/inkscape"
   xmlns:sodipodi="http://sodipodi.sourceforge.net/DTD/sodipodi-0.dtd"
   xmlns="http://www.w3.org/2000/svg"
   xmlns:svg="http://www.w3.org/2000/svg">
  <defs
     id="defs1" />
  <sodipodi:namedview
     id="namedview1"
     pagecolor="#505050"
     bordercolor="#eeeeee"
     borderopacity="1"
     inkscape:showpageshadow="0"
     inkscape:pageopacity="0"
     inkscape:pagecheckerboard="0"
     inkscape:deskcolor="#d1d1d1">
    <inkscape:page
       x="0"
       y="0"
       inkscape:label="1"
       id="page1"
       width="35.48"
       height="42.32"
       margin="0"
       bleed="0" />
  </sodipodi:namedview>
  <g
     id="g1"
     inkscape:groupmode="layer"
     inkscape:label="1">
    <path
       id="path1"
       d="M 42.9766,239.727 H 2.00391 v -33.836 l 36.06249,0.086 h 4.2852"
       style="fill:#ffffff;fill-opacity:1;fill-rule:nonzero;stroke:#0881c1;stroke-width:4;stroke-linecap:butt;stroke-linejoin:miter;stroke-miterlimit:4;stroke-dasharray:none;stroke-opacity:1"
       transform="matrix(0.13333333,0,0,-0.13333333,0,42.32)" />
    <path
       id="path2"
       d="m 217.352,205.977 h 4.828 c 36.14,0 41.894,-32.5 41.894,-32.5 v 33.75 c 0,0 -5.742,32.5 -41.894,32.5 h -7.953"
       style="fill:#ffffff;fill-opacity:1;fill-rule:nonzero;stroke:#0881c1;stroke-width:4;stroke-linecap:butt;stroke-linejoin:miter;stroke-miterlimit:4;stroke-dasharray:none;stroke-opacity:1"
       transform="matrix(0.13333333,0,0,-0.13333333,0,42.32)" />
    <path
       id="path3"
       d="M 198.152,5.63672 V 287.48 H 36.5234 V 5.63672 H 198.152"
       style="fill:#0881c1;fill-opacity:1;fill-rule:nonzero;stroke:none"
       transform="matrix(0.13333333,0,0,-0.13333333,0,42.32)" />
    <path
       id="path4"
       d="M 198.152,5.63672 V 287.48 H 36.5234 V 5.63672 Z"
       style="fill:none;stroke:#ffffff;stroke-width:4;stroke-linecap:butt;stroke-linejoin:miter;stroke-miterlimit:4;stroke-dasharray:none;stroke-opacity:1"
       transform="matrix(0.13333333,0,0,-0.13333333,0,42.32)" />
    <path
       id="path5"
       d="m 36.5234,287.48 30.8789,25.098 H 223.242 L 198.152,287.48 H 36.5234"
       style="fill:#0881c1;fill-opacity:1;fill-rule:nonzero;stroke:none"
       transform="matrix(0.13333333,0,0,-0.13333333,0,42.32)" />
    <path
       id="path6"
       d="m 36.5234,287.48 30.8789,25.098 H 223.242 l -25.09,-25.098 z"
       style="fill:none;stroke:#ffffff;stroke-width:4;stroke-linecap:butt;stroke-linejoin:miter;stroke-miterlimit:4;stroke-dasharray:none;stroke-opacity:1"
       transform="matrix(0.13333333,0,0,-0.13333333,0,42.32)" />
    <path
       id="path7"
       d="m 198.152,5.63672 25.09,30.87888 V 312.578 L 198.152,287.48 V 5.63672"
       style="fill:#0881c1;fill-opacity:1;fill-rule:nonzero;stroke:none"
       transform="matrix(0.13333333,0,0,-0.13333333,0,42.32)" />
    <path
       id="path8"
       d="m 198.152,5.63672 25.09,30.87888 V 312.578 l -25.09,-25.098 z"
       style="fill:none;stroke:#ffffff;stroke-width:4;stroke-linecap:butt;stroke-linejoin:miter;stroke-miterlimit:4;stroke-dasharray:none;stroke-opacity:1"
       transform="matrix(0.13333333,0,0,-0.13333333,0,42.32)" />
    <path
       id="path9"
       d="m 264.074,209.102 v -40 c -3.929,-47.5 -88.144,-45 -88.144,-45 v -2.5 -32.5004 l -55,55.0004 55,55 v -35 c 0,0 85.644,-2.5 88.144,45"
       style="fill:#ffffff;fill-opacity:1;fill-rule:nonzero;stroke:#0881c1;stroke-width:4;stroke-linecap:butt;stroke-linejoin:miter;stroke-miterlimit:4;stroke-dasharray:none;stroke-opacity:1"
       transform="matrix(0.13333333,0,0,-0.13333333,0,42.32)" />
    <path
       id="path10"
       d="m 64.7266,232.832 -9.2383,-8.984 0.0117,42.468 h 42.4688 l -9.375,-9.617 -1.8047,-1.914 L 150,191.691 129.367,171.055 66.2227,234.211 64.7266,232.832"
       style="fill:#ffffff;fill-opacity:1;fill-rule:nonzero;stroke:none"
       transform="matrix(0.13333333,0,0,-0.13333333,0,42.32)" />
    <path
       id="path11"
       d="M 64.7266,55.3711 55.4883,64.3555 55.5,21.875 H 97.9688 L 88.5938,31.5039 86.7891,33.418 150,96.5156 129.367,117.148 66.2227,53.9922 64.7266,55.3711"
       style="fill:#ffffff;fill-opacity:1;fill-rule:nonzero;stroke:none"
       transform="matrix(0.13333333,0,0,-0.13333333,0,42.32)" />
  </g>
</svg>
