<?xml version="1.0" encoding="UTF-8" standalone="no"?>
<!-- Created with Inkscape (http://www.inkscape.org/) -->

<svg
   version="1.1"
   id="svg1"
   width="58.373333"
   height="31.386667"
   viewBox="0 0 58.373333 31.386667"
   sodipodi:docname="me 1100.eps"
   xmlns:inkscape="http://www.inkscape.org/namespaces/inkscape"
   xmlns:sodipodi="http://sodipodi.sourceforge.net/DTD/sodipodi-0.dtd"
   xmlns="http://www.w3.org/2000/svg"
   xmlns:svg="http://www.w3.org/2000/svg">
  <defs
     id="defs1" />
  <sodipodi:namedview
     id="namedview1"
     pagecolor="#505050"
     bordercolor="#eeeeee"
     borderopacity="1"
     inkscape:showpageshadow="0"
     inkscape:pageopacity="0"
     inkscape:pagecheckerboard="0"
     inkscape:deskcolor="#d1d1d1">
    <inkscape:page
       x="0"
       y="0"
       inkscape:label="1"
       id="page1"
       width="58.373333"
       height="31.386667"
       margin="0"
       bleed="0" />
  </sodipodi:namedview>
  <g
     id="g1"
     inkscape:groupmode="layer"
     inkscape:label="1">
    <path
       id="path1"
       d="M 5.65625,149.094 106.66,230.754 h 326.262 l -83.586,-81.66 H 5.65625"
       style="fill:#087fbf;fill-opacity:1;fill-rule:nonzero;stroke:none"
       transform="matrix(0.13333333,0,0,-0.13333333,0,31.386667)" />
    <path
       id="path2"
       d="M 5.65625,149.094 106.66,230.754 h 326.262 l -83.586,-81.66 z"
       style="fill:none;stroke:#ffffff;stroke-width:4;stroke-linecap:butt;stroke-linejoin:miter;stroke-miterlimit:4;stroke-dasharray:none;stroke-opacity:1"
       transform="matrix(0.13333333,0,0,-0.13333333,0,31.386667)" />
    <path
       id="path3"
       d="M 349.336,4.89453 432.922,90.0703 V 230.605 L 349.336,149.094 V 4.89453"
       style="fill:#087fbf;fill-opacity:1;fill-rule:nonzero;stroke:none"
       transform="matrix(0.13333333,0,0,-0.13333333,0,31.386667)" />
    <path
       id="path4"
       d="M 349.336,4.89453 432.922,90.0703 V 230.605 l -83.586,-81.511 z"
       style="fill:none;stroke:#ffffff;stroke-width:4;stroke-linecap:butt;stroke-linejoin:miter;stroke-miterlimit:4;stroke-dasharray:none;stroke-opacity:1"
       transform="matrix(0.13333333,0,0,-0.13333333,0,31.386667)" />
    <path
       id="path5"
       d="m 5.99609,4.81641 h 343.34 v 144.277 h -343.34 z"
       style="fill:#087fbf;fill-opacity:1;fill-rule:nonzero;stroke:none"
       transform="matrix(0.13333333,0,0,-0.13333333,0,31.386667)" />
    <path
       id="path6"
       d="M 349.336,4.81641 V 149.094 H 5.99609 V 4.81641 Z"
       style="fill:none;stroke:#ffffff;stroke-width:4;stroke-linecap:butt;stroke-linejoin:miter;stroke-miterlimit:4;stroke-dasharray:none;stroke-opacity:1"
       transform="matrix(0.13333333,0,0,-0.13333333,0,31.386667)" />
    <path
       id="path7"
       d="m 249.219,96.4375 c 0,-13.8281 -28.821,-25.0391 -64.364,-25.0391 -35.558,0 -64.375,11.211 -64.375,25.0391 V 59.7656 c 0,-13.8164 28.817,-25.0273 64.375,-25.0273 35.543,0 64.364,11.2109 64.364,25.0273 v 36.6719"
       style="fill:#087fbf;fill-opacity:1;fill-rule:nonzero;stroke:none"
       transform="matrix(0.13333333,0,0,-0.13333333,0,31.386667)" />
    <path
       id="path8"
       d="m 249.219,96.4375 c 0,-13.8281 -28.821,-25.0391 -64.364,-25.0391 -35.558,0 -64.375,11.211 -64.375,25.0391 V 59.7656 c 0,-13.8164 28.817,-25.0273 64.375,-25.0273 35.543,0 64.364,11.2109 64.364,25.0273 z"
       style="fill:none;stroke:#ffffff;stroke-width:4;stroke-linecap:butt;stroke-linejoin:miter;stroke-miterlimit:4;stroke-dasharray:none;stroke-opacity:1"
       transform="matrix(0.13333333,0,0,-0.13333333,0,31.386667)" />
    <path
       id="path9"
       d="m 184.855,71.3984 c 35.543,0 64.364,11.211 64.364,25.0391 0,13.8285 -28.821,25.0395 -64.364,25.0395 -35.558,0 -64.375,-11.211 -64.375,-25.0395 0,-13.8281 28.817,-25.0391 64.375,-25.0391"
       style="fill:#087fbf;fill-opacity:1;fill-rule:nonzero;stroke:none"
       transform="matrix(0.13333333,0,0,-0.13333333,0,31.386667)" />
    <path
       id="path10"
       d="m 184.855,71.3984 c 35.543,0 64.364,11.211 64.364,25.0391 0,13.8285 -28.821,25.0395 -64.364,25.0395 -35.558,0 -64.375,-11.211 -64.375,-25.0395 0,-13.8281 28.817,-25.0391 64.375,-25.0391 z"
       style="fill:none;stroke:#ffffff;stroke-width:4;stroke-linecap:butt;stroke-linejoin:miter;stroke-miterlimit:4;stroke-dasharray:none;stroke-opacity:1"
       transform="matrix(0.13333333,0,0,-0.13333333,0,31.386667)" />
    <path
       id="path11"
       d="M 85.6719,120.313 H 7.5"
       style="fill:none;stroke:#ffffff;stroke-width:8;stroke-linecap:butt;stroke-linejoin:miter;stroke-miterlimit:4;stroke-dasharray:none;stroke-opacity:1"
       transform="matrix(0.13333333,0,0,-0.13333333,0,31.386667)" />
    <path
       id="path12"
       d="M 113.672,120.313 66.2109,100.93 77.4805,120.313 66.2109,139.699 113.672,120.313"
       style="fill:#ffffff;fill-opacity:1;fill-rule:nonzero;stroke:none"
       transform="matrix(0.13333333,0,0,-0.13333333,0,31.386667)" />
    <path
       id="path13"
       d="M 85.6719,78.3125 H 7.5"
       style="fill:none;stroke:#ffffff;stroke-width:8;stroke-linecap:butt;stroke-linejoin:miter;stroke-miterlimit:4;stroke-dasharray:none;stroke-opacity:1"
       transform="matrix(0.13333333,0,0,-0.13333333,0,31.386667)" />
    <path
       id="path14"
       d="M 113.672,78.3125 66.2109,58.9375 77.4805,78.3125 66.2109,97.707 113.672,78.3125"
       style="fill:#ffffff;fill-opacity:1;fill-rule:nonzero;stroke:none"
       transform="matrix(0.13333333,0,0,-0.13333333,0,31.386667)" />
    <path
       id="path15"
       d="m 321.105,78.3125 h -36.41"
       style="fill:none;stroke:#ffffff;stroke-width:8;stroke-linecap:butt;stroke-linejoin:miter;stroke-miterlimit:4;stroke-dasharray:none;stroke-opacity:1"
       transform="matrix(0.13333333,0,0,-0.13333333,0,31.386667)" />
    <path
       id="path16"
       d="m 343.508,78.3125 -37.973,-15.5078 9.016,15.5078 -9.016,15.5078 37.973,-15.5078"
       style="fill:#ffffff;fill-opacity:1;fill-rule:nonzero;stroke:none"
       transform="matrix(0.13333333,0,0,-0.13333333,0,31.386667)" />
    <path
       id="path17"
       d="M 85.6719,36.3203 H 7.5"
       style="fill:none;stroke:#ffffff;stroke-width:8;stroke-linecap:butt;stroke-linejoin:miter;stroke-miterlimit:4;stroke-dasharray:none;stroke-opacity:1"
       transform="matrix(0.13333333,0,0,-0.13333333,0,31.386667)" />
    <path
       id="path18"
       d="M 113.672,36.3203 66.2109,16.9336 77.4805,36.3203 66.2109,55.6953 113.672,36.3203"
       style="fill:#ffffff;fill-opacity:1;fill-rule:nonzero;stroke:none"
       transform="matrix(0.13333333,0,0,-0.13333333,0,31.386667)" />
    <path
       id="path19"
       d="M 292.488,93.457 283.477,77.9492 292.488,62.4531 254.52,77.9492 292.488,93.457"
       style="fill:#ffffff;fill-opacity:1;fill-rule:nonzero;stroke:none"
       transform="matrix(0.13333333,0,0,-0.13333333,0,31.386667)" />
  </g>
</svg>
