<?xml version="1.0" encoding="UTF-8" standalone="no"?>
<!-- Created with Inkscape (http://www.inkscape.org/) -->

<svg
   version="1.1"
   id="svg1"
   width="45.400002"
   height="34.333332"
   viewBox="0 0 45.400002 34.333332"
   sodipodi:docname="mux.eps"
   xmlns:inkscape="http://www.inkscape.org/namespaces/inkscape"
   xmlns:sodipodi="http://sodipodi.sourceforge.net/DTD/sodipodi-0.dtd"
   xmlns="http://www.w3.org/2000/svg"
   xmlns:svg="http://www.w3.org/2000/svg">
  <defs
     id="defs1" />
  <sodipodi:namedview
     id="namedview1"
     pagecolor="#505050"
     bordercolor="#eeeeee"
     borderopacity="1"
     inkscape:showpageshadow="0"
     inkscape:pageopacity="0"
     inkscape:pagecheckerboard="0"
     inkscape:deskcolor="#d1d1d1">
    <inkscape:page
       x="0"
       y="0"
       inkscape:label="1"
       id="page1"
       width="45.400002"
       height="34.333332"
       margin="0"
       bleed="0" />
  </sodipodi:namedview>
  <g
     id="g1"
     inkscape:groupmode="layer"
     inkscape:label="1">
    <path
       id="path1"
       d="m 4.82813,4.82422 h 47.4023 v 201.523 H 4.82813 Z"
       style="fill:#02709f;fill-opacity:1;fill-rule:nonzero;stroke:none"
       transform="matrix(0.13333333,0,0,-0.13333333,0,34.333333)" />
    <path
       id="path2"
       d="M 52.2305,4.82422 V 206.348 H 4.82813 V 4.82422 Z"
       style="fill:none;stroke:#ffffff;stroke-width:3.99994;stroke-linecap:butt;stroke-linejoin:miter;stroke-miterlimit:4;stroke-dasharray:none;stroke-opacity:1"
       transform="matrix(0.13333333,0,0,-0.13333333,0,34.333333)" />
    <path
       id="path3"
       d="m 52.2305,4.82422 h 47.4219 v 201.523 H 52.2305 Z"
       style="fill:#02709f;fill-opacity:1;fill-rule:nonzero;stroke:none"
       transform="matrix(0.13333333,0,0,-0.13333333,0,34.333333)" />
    <path
       id="path4"
       d="M 99.6523,4.82422 V 206.348 H 52.2305 V 4.82422 Z"
       style="fill:none;stroke:#ffffff;stroke-width:3.99994;stroke-linecap:butt;stroke-linejoin:miter;stroke-miterlimit:4;stroke-dasharray:none;stroke-opacity:1"
       transform="matrix(0.13333333,0,0,-0.13333333,0,34.333333)" />
    <path
       id="path5"
       d="m 99.6523,4.82422 h 47.4219 v 201.523 H 99.6523 Z"
       style="fill:#02709f;fill-opacity:1;fill-rule:nonzero;stroke:none"
       transform="matrix(0.13333333,0,0,-0.13333333,0,34.333333)" />
    <path
       id="path6"
       d="M 147.074,4.82422 V 206.348 H 99.6523 V 4.82422 Z"
       style="fill:none;stroke:#ffffff;stroke-width:3.99994;stroke-linecap:butt;stroke-linejoin:miter;stroke-miterlimit:4;stroke-dasharray:none;stroke-opacity:1"
       transform="matrix(0.13333333,0,0,-0.13333333,0,34.333333)" />
    <path
       id="path7"
       d="m 147.074,4.82422 h 47.4063 v 201.523 H 147.074 Z"
       style="fill:#02709f;fill-opacity:1;fill-rule:nonzero;stroke:none"
       transform="matrix(0.13333333,0,0,-0.13333333,0,34.333333)" />
    <path
       id="path8"
       d="M 194.48,4.82422 V 206.348 H 147.074 V 4.82422 Z"
       style="fill:none;stroke:#ffffff;stroke-width:3.99994;stroke-linecap:butt;stroke-linejoin:miter;stroke-miterlimit:4;stroke-dasharray:none;stroke-opacity:1"
       transform="matrix(0.13333333,0,0,-0.13333333,0,34.333333)" />
    <path
       id="path9"
       d="m 194.48,4.82422 h 47.4219 v 201.523 H 194.48 Z"
       style="fill:#02709f;fill-opacity:1;fill-rule:nonzero;stroke:none"
       transform="matrix(0.13333333,0,0,-0.13333333,0,34.333333)" />
    <path
       id="path10"
       d="M 241.902,4.82422 V 206.348 H 194.48 V 4.82422 Z"
       style="fill:none;stroke:#ffffff;stroke-width:3.99994;stroke-linecap:butt;stroke-linejoin:miter;stroke-miterlimit:4;stroke-dasharray:none;stroke-opacity:1"
       transform="matrix(0.13333333,0,0,-0.13333333,0,34.333333)" />
    <path
       id="path11"
       d="m 241.902,4.82422 h 47.4219 v 201.523 H 241.902 Z"
       style="fill:#02709f;fill-opacity:1;fill-rule:nonzero;stroke:none"
       transform="matrix(0.13333333,0,0,-0.13333333,0,34.333333)" />
    <path
       id="path12"
       d="M 289.324,4.82422 V 206.348 H 241.902 V 4.82422 Z"
       style="fill:none;stroke:#ffffff;stroke-width:3.99994;stroke-linecap:butt;stroke-linejoin:miter;stroke-miterlimit:4;stroke-dasharray:none;stroke-opacity:1"
       transform="matrix(0.13333333,0,0,-0.13333333,0,34.333333)" />
    <path
       id="path13"
       d="M 289.324,4.82422 338.469,53.9648 V 255.5 H 53.9688 L 4.82813,206.348 H 289.324 V 4.82422"
       style="fill:#02709f;fill-opacity:1;fill-rule:nonzero;stroke:none"
       transform="matrix(0.13333333,0,0,-0.13333333,0,34.333333)" />
    <path
       id="path14"
       d="M 289.324,4.82422 338.469,53.9648 V 255.5 H 53.9688 L 4.82813,206.348 H 289.324 Z"
       style="fill:none;stroke:#ffffff;stroke-width:3.99994;stroke-linecap:butt;stroke-linejoin:miter;stroke-miterlimit:4;stroke-dasharray:none;stroke-opacity:1"
       transform="matrix(0.13333333,0,0,-0.13333333,0,34.333333)" />
    <path
       id="path15"
       d="M 289.324,206.348 338.469,255.5"
       style="fill:#02709f;fill-opacity:1;fill-rule:nonzero;stroke:#ffffff;stroke-width:3.99994;stroke-linecap:butt;stroke-linejoin:miter;stroke-miterlimit:4;stroke-dasharray:none;stroke-opacity:1"
       transform="matrix(0.13333333,0,0,-0.13333333,0,34.333333)" />
    <path
       id="path16"
       d="M 289.324,105.586 H 4.82813"
       style="fill:#02709f;fill-opacity:1;fill-rule:nonzero;stroke:#ffffff;stroke-width:3.99994;stroke-linecap:butt;stroke-linejoin:miter;stroke-miterlimit:4;stroke-dasharray:none;stroke-opacity:1"
       transform="matrix(0.13333333,0,0,-0.13333333,0,34.333333)" />
    <path
       id="path17"
       d="M 13.1289,90.4883 H 43.9297"
       style="fill:#02709f;fill-opacity:1;fill-rule:nonzero;stroke:#ffffff;stroke-width:3.99994;stroke-linecap:butt;stroke-linejoin:miter;stroke-miterlimit:4;stroke-dasharray:none;stroke-opacity:1"
       transform="matrix(0.13333333,0,0,-0.13333333,0,34.333333)" />
    <path
       id="path18"
       d="M 13.1289,78.6133 H 43.9297"
       style="fill:#02709f;fill-opacity:1;fill-rule:nonzero;stroke:#ffffff;stroke-width:3.99994;stroke-linecap:butt;stroke-linejoin:miter;stroke-miterlimit:4;stroke-dasharray:none;stroke-opacity:1"
       transform="matrix(0.13333333,0,0,-0.13333333,0,34.333333)" />
    <path
       id="path19"
       d="M 13.1289,66.7383 H 43.9297"
       style="fill:#02709f;fill-opacity:1;fill-rule:nonzero;stroke:#ffffff;stroke-width:3.99994;stroke-linecap:butt;stroke-linejoin:miter;stroke-miterlimit:4;stroke-dasharray:none;stroke-opacity:1"
       transform="matrix(0.13333333,0,0,-0.13333333,0,34.333333)" />
    <path
       id="path20"
       d="M 13.1289,54.8633 H 43.9297"
       style="fill:#02709f;fill-opacity:1;fill-rule:nonzero;stroke:#ffffff;stroke-width:3.99994;stroke-linecap:butt;stroke-linejoin:miter;stroke-miterlimit:4;stroke-dasharray:none;stroke-opacity:1"
       transform="matrix(0.13333333,0,0,-0.13333333,0,34.333333)" />
    <path
       id="path21"
       d="M 13.1289,42.9883 H 43.9297"
       style="fill:#02709f;fill-opacity:1;fill-rule:nonzero;stroke:#ffffff;stroke-width:3.99994;stroke-linecap:butt;stroke-linejoin:miter;stroke-miterlimit:4;stroke-dasharray:none;stroke-opacity:1"
       transform="matrix(0.13333333,0,0,-0.13333333,0,34.333333)" />
    <path
       id="path22"
       d="M 60.543,90.4883 H 91.3516"
       style="fill:#02709f;fill-opacity:1;fill-rule:nonzero;stroke:#ffffff;stroke-width:3.99994;stroke-linecap:butt;stroke-linejoin:miter;stroke-miterlimit:4;stroke-dasharray:none;stroke-opacity:1"
       transform="matrix(0.13333333,0,0,-0.13333333,0,34.333333)" />
    <path
       id="path23"
       d="M 60.543,78.6133 H 91.3516"
       style="fill:#02709f;fill-opacity:1;fill-rule:nonzero;stroke:#ffffff;stroke-width:3.99994;stroke-linecap:butt;stroke-linejoin:miter;stroke-miterlimit:4;stroke-dasharray:none;stroke-opacity:1"
       transform="matrix(0.13333333,0,0,-0.13333333,0,34.333333)" />
    <path
       id="path24"
       d="M 60.543,66.7383 H 91.3516"
       style="fill:#02709f;fill-opacity:1;fill-rule:nonzero;stroke:#ffffff;stroke-width:3.99994;stroke-linecap:butt;stroke-linejoin:miter;stroke-miterlimit:4;stroke-dasharray:none;stroke-opacity:1"
       transform="matrix(0.13333333,0,0,-0.13333333,0,34.333333)" />
    <path
       id="path25"
       d="M 60.543,54.8633 H 91.3516"
       style="fill:#02709f;fill-opacity:1;fill-rule:nonzero;stroke:#ffffff;stroke-width:3.99994;stroke-linecap:butt;stroke-linejoin:miter;stroke-miterlimit:4;stroke-dasharray:none;stroke-opacity:1"
       transform="matrix(0.13333333,0,0,-0.13333333,0,34.333333)" />
    <path
       id="path26"
       d="M 60.543,42.9883 H 91.3516"
       style="fill:#02709f;fill-opacity:1;fill-rule:nonzero;stroke:#ffffff;stroke-width:3.99994;stroke-linecap:butt;stroke-linejoin:miter;stroke-miterlimit:4;stroke-dasharray:none;stroke-opacity:1"
       transform="matrix(0.13333333,0,0,-0.13333333,0,34.333333)" />
  </g>
</svg>
