<?xml version="1.0" encoding="UTF-8" standalone="no"?>
<!-- Created with Inkscape (http://www.inkscape.org/) -->

<svg
   version="1.1"
   id="svg1"
   width="58.040001"
   height="42.119999"
   viewBox="0 0 58.040001 42.119999"
   sodipodi:docname="NCE.eps"
   xmlns:inkscape="http://www.inkscape.org/namespaces/inkscape"
   xmlns:sodipodi="http://sodipodi.sourceforge.net/DTD/sodipodi-0.dtd"
   xmlns="http://www.w3.org/2000/svg"
   xmlns:svg="http://www.w3.org/2000/svg">
  <defs
     id="defs1" />
  <sodipodi:namedview
     id="namedview1"
     pagecolor="#505050"
     bordercolor="#eeeeee"
     borderopacity="1"
     inkscape:showpageshadow="0"
     inkscape:pageopacity="0"
     inkscape:pagecheckerboard="0"
     inkscape:deskcolor="#d1d1d1">
    <inkscape:page
       x="0"
       y="0"
       inkscape:label="1"
       id="page1"
       width="58.040001"
       height="42.119999"
       margin="0"
       bleed="0" />
  </sodipodi:namedview>
  <g
     id="g1"
     inkscape:groupmode="layer"
     inkscape:label="1">
    <g
       id="group-R5">
      <path
         id="path2"
         d="M 5.65625,6.47656 H 387.141 V 257.109 H 5.65625 V 6.47656"
         style="fill:#2c6aa2;fill-opacity:1;fill-rule:nonzero;stroke:none"
         transform="matrix(0.13333333,0,0,-0.13333333,0,42.12)" />
      <path
         id="path3"
         d="M 5.65625,6.47656 H 387.141 V 257.109 H 5.65625 Z"
         style="fill:none;stroke:#ffffff;stroke-width:4;stroke-linecap:butt;stroke-linejoin:miter;stroke-miterlimit:4;stroke-dasharray:none;stroke-opacity:1"
         transform="matrix(0.13333333,0,0,-0.13333333,0,42.12)" />
      <path
         id="path4"
         d="M 431.023,70.6641 387.141,6.47656 V 257.109 l 43.882,53.215 V 70.6641"
         style="fill:#2c6aa2;fill-opacity:1;fill-rule:nonzero;stroke:none"
         transform="matrix(0.13333333,0,0,-0.13333333,0,42.12)" />
      <path
         id="path5"
         d="M 431.023,70.6641 387.141,6.47656 V 257.109 l 43.882,53.215 z"
         style="fill:none;stroke:#ffffff;stroke-width:4;stroke-linecap:butt;stroke-linejoin:miter;stroke-miterlimit:4;stroke-dasharray:none;stroke-opacity:1"
         transform="matrix(0.13333333,0,0,-0.13333333,0,42.12)" />
      <path
         id="path6"
         d="M 71.4844,310.324 H 431.023 L 387.141,257.109 H 5.65625 l 65.82815,53.215"
         style="fill:#2c6aa2;fill-opacity:1;fill-rule:nonzero;stroke:none"
         transform="matrix(0.13333333,0,0,-0.13333333,0,42.12)" />
      <path
         id="path7"
         d="M 71.4844,310.324 H 431.023 L 387.141,257.109 H 5.65625 Z"
         style="fill:none;stroke:#ffffff;stroke-width:4;stroke-linecap:butt;stroke-linejoin:miter;stroke-miterlimit:4;stroke-dasharray:none;stroke-opacity:1"
         transform="matrix(0.13333333,0,0,-0.13333333,0,42.12)" />
      <path
         id="path8"
         d="m 72.4609,185.137 -0.0312,-16.016 -37.2656,21.145 37.2968,21.113 v -16.035 l -0.3125,0.742 64.3826,0.019 0.024,15.973 37.3,-21.129 -37.324,-21.094 -0.008,16.012 -64.3746,-0.015 0.3125,-0.715"
         style="fill:#ffffff;fill-opacity:1;fill-rule:nonzero;stroke:none"
         transform="matrix(0.13333333,0,0,-0.13333333,0,42.12)" />
      <path
         id="path9"
         d="M 72.4609,68.9063 72.4297,52.8906 35.1641,74.043 72.4609,95.1484 V 79.1211 l -0.3125,0.7344 64.3826,0.0156 0.024,15.9805 37.3,-21.125 -37.324,-21.0938 -0.008,16.0156 -64.3746,-0.0195 0.3125,-0.7226"
         style="fill:#ffffff;fill-opacity:1;fill-rule:nonzero;stroke:none"
         transform="matrix(0.13333333,0,0,-0.13333333,0,42.12)" />
      <path
         id="path10"
         d="m 72.4609,125.723 -0.0312,-16.016 -37.2656,21.145 37.2968,21.113 V 135.93 l -0.3125,0.742 44.8716,0.019 0.019,15.977 37.309,-21.133 -37.328,-21.094 -0.008,16.012 -44.8636,-0.015 0.3125,-0.715"
         style="fill:#ffffff;fill-opacity:1;fill-rule:nonzero;stroke:none"
         transform="matrix(0.13333333,0,0,-0.13333333,0,42.12)" />
      <path
         id="path11"
         d="m 361.836,85.2734 c -6.328,0.0508 -11.316,18.2226 -11.121,40.6056 0.176,22.375 5.457,40.461 11.805,40.43 l -47.461,0.382 c -6.348,0.055 -11.602,-18.031 -11.797,-40.429 -0.176,-22.375 4.785,-40.5472 11.133,-40.6175 l 47.441,-0.3711"
         style="fill:#ffffff;fill-opacity:1;fill-rule:nonzero;stroke:none"
         transform="matrix(0.13333333,0,0,-0.13333333,0,42.12)" />
      <path
         id="path12"
         d="m 350.715,125.859 c -0.18,-20.898 4.812,-37.8785 11.16,-37.9293 6.328,-0.0586 11.602,16.8553 11.777,37.7343 0.176,20.938 -4.824,37.922 -11.164,37.969 -6.343,0.058 -11.597,-16.836 -11.773,-37.774"
         style="fill:#2c6aa2;fill-opacity:1;fill-rule:nonzero;stroke:none"
         transform="matrix(0.13333333,0,0,-0.13333333,0,42.12)" />
      <path
         id="path13"
         d="m 350.715,125.859 c -0.18,-20.898 4.812,-37.8785 11.16,-37.9293 6.328,-0.0586 11.602,16.8553 11.777,37.7343 0.176,20.938 -4.824,37.922 -11.164,37.969 -6.343,0.058 -11.597,-16.836 -11.773,-37.774 z"
         style="fill:none;stroke:#ffffff;stroke-width:4;stroke-linecap:butt;stroke-linejoin:miter;stroke-miterlimit:4;stroke-dasharray:none;stroke-opacity:1"
         transform="matrix(0.13333333,0,0,-0.13333333,0,42.12)" />
      <path
         id="path14"
         d="m 325.398,128.828 c -0.371,-44.3241 -36.582,-79.9608 -80.933,-79.6092 -44.301,0.3906 -79.926,36.6015 -79.555,80.9292 0.356,44.317 36.574,79.95 80.891,79.598 44.355,-0.391 79.98,-36.621 79.597,-80.918"
         style="fill:#ffffff;fill-opacity:1;fill-rule:nonzero;stroke:none"
         transform="matrix(0.13333333,0,0,-0.13333333,0,42.12)" />
      <path
         id="path15"
         d="m 284.316,127.688 c -0.175,-21.27 -17.578,-38.3911 -38.847,-38.2153 -21.27,0.1757 -38.367,17.5783 -38.196,38.8473 0.176,21.27 17.54,38.391 38.832,38.215 21.29,-0.156 38.387,-17.558 38.211,-38.847"
         style="fill:#2c6aa2;fill-opacity:1;fill-rule:nonzero;stroke:none"
         transform="matrix(0.13333333,0,0,-0.13333333,0,42.12)" />
    </g>
  </g>
</svg>
