<?xml version="1.0" encoding="UTF-8" standalone="no"?>
<!-- Created with Inkscape (http://www.inkscape.org/) -->

<svg
   version="1.1"
   id="svg1"
   width="42.200001"
   height="28.613333"
   viewBox="0 0 42.200001 28.613333"
   sodipodi:docname="netsonar.eps"
   xmlns:inkscape="http://www.inkscape.org/namespaces/inkscape"
   xmlns:sodipodi="http://sodipodi.sourceforge.net/DTD/sodipodi-0.dtd"
   xmlns="http://www.w3.org/2000/svg"
   xmlns:svg="http://www.w3.org/2000/svg">
  <defs
     id="defs1">
    <clipPath
       clipPathUnits="userSpaceOnUse"
       id="clipPath2">
      <path
         d="M 0,4 V 215 H 316 V 4 Z"
         id="path2" />
    </clipPath>
    <clipPath
       clipPathUnits="userSpaceOnUse"
       id="clipPath4">
      <path
         d="M 0,4 V 215 H 316 V 4 Z"
         id="path4" />
    </clipPath>
    <clipPath
       clipPathUnits="userSpaceOnUse"
       id="clipPath6">
      <path
         d="M 0,4 V 215 H 316 V 4 Z"
         id="path6" />
    </clipPath>
    <clipPath
       clipPathUnits="userSpaceOnUse"
       id="clipPath8">
      <path
         d="M 0,4 V 215 H 316 V 4 Z"
         id="path8" />
    </clipPath>
    <clipPath
       clipPathUnits="userSpaceOnUse"
       id="clipPath10">
      <path
         d="M 0,4 V 215 H 316 V 4 Z"
         id="path10" />
    </clipPath>
    <clipPath
       clipPathUnits="userSpaceOnUse"
       id="clipPath12">
      <path
         d="M 0,4 V 215 H 316 V 4 Z"
         id="path12" />
    </clipPath>
    <clipPath
       clipPathUnits="userSpaceOnUse"
       id="clipPath14">
      <path
         d="M 0,4 V 215 H 316 V 4 Z"
         id="path14" />
    </clipPath>
    <clipPath
       clipPathUnits="userSpaceOnUse"
       id="clipPath16">
      <path
         d="M 0,4 V 215 H 316 V 4 Z"
         id="path16" />
    </clipPath>
    <clipPath
       clipPathUnits="userSpaceOnUse"
       id="clipPath18">
      <path
         d="M 0,4 V 215 H 316 V 4 Z"
         id="path18" />
    </clipPath>
    <clipPath
       clipPathUnits="userSpaceOnUse"
       id="clipPath20">
      <path
         d="M 0,4 V 215 H 316 V 4 Z"
         id="path20" />
    </clipPath>
    <clipPath
       clipPathUnits="userSpaceOnUse"
       id="clipPath22">
      <path
         d="M 0,4 V 215 H 316 V 4 Z"
         id="path22" />
    </clipPath>
    <clipPath
       clipPathUnits="userSpaceOnUse"
       id="clipPath24">
      <path
         d="M 0,4 V 215 H 316 V 4 Z"
         id="path24" />
    </clipPath>
    <clipPath
       clipPathUnits="userSpaceOnUse"
       id="clipPath26">
      <path
         d="M 0,4 V 215 H 316 V 4 Z"
         id="path26" />
    </clipPath>
  </defs>
  <sodipodi:namedview
     id="namedview1"
     pagecolor="#505050"
     bordercolor="#eeeeee"
     borderopacity="1"
     inkscape:showpageshadow="0"
     inkscape:pageopacity="0"
     inkscape:pagecheckerboard="0"
     inkscape:deskcolor="#d1d1d1">
    <inkscape:page
       x="0"
       y="0"
       inkscape:label="1"
       id="page1"
       width="42.200001"
       height="28.613333"
       margin="0"
       bleed="0" />
  </sodipodi:namedview>
  <g
     id="g1"
     inkscape:groupmode="layer"
     inkscape:label="1">
    <path
       id="path1"
       d="m 314.68,151.848 c 0,-33.586 -70,-60.8011 -156.328,-60.8011 C 72.0039,91.0469 2,118.262 2,151.848 V 62.793 C 2,29.2109 72.0039,1.99219 158.352,1.99219 244.68,1.99219 314.68,29.2109 314.68,62.793 v 89.055"
       style="fill:#026c9b;fill-opacity:1;fill-rule:nonzero;stroke:none"
       transform="matrix(0.13333333,0,0,-0.13333333,0,28.613333)"
       clip-path="url(#clipPath2)" />
    <path
       id="path3"
       d="m 314.68,151.848 c 0,-33.586 -70,-60.8011 -156.328,-60.8011 C 72.0039,91.0469 2,118.262 2,151.848 V 62.793 C 2,29.2109 72.0039,1.99219 158.352,1.99219 244.68,1.99219 314.68,29.2109 314.68,62.793 Z"
       style="fill:none;stroke:#ffffff;stroke-width:4;stroke-linecap:butt;stroke-linejoin:miter;stroke-miterlimit:4;stroke-dasharray:none;stroke-opacity:1"
       transform="matrix(0.13333333,0,0,-0.13333333,0,28.613333)"
       clip-path="url(#clipPath4)" />
    <path
       id="path5"
       d="m 158.352,91.0469 c 86.328,0 156.328,27.2151 156.328,60.8011 0,33.574 -70,60.789 -156.328,60.789 C 72.0039,212.637 2,185.422 2,151.848 2,118.262 72.0039,91.0469 158.352,91.0469"
       style="fill:#026c9b;fill-opacity:1;fill-rule:nonzero;stroke:#ffffff;stroke-width:4;stroke-linecap:butt;stroke-linejoin:miter;stroke-miterlimit:4;stroke-dasharray:none;stroke-opacity:1"
       transform="matrix(0.13333333,0,0,-0.13333333,0,28.613333)"
       clip-path="url(#clipPath6)" />
    <path
       id="path7"
       d="m 160.77,163.574 -21.793,33.86 9.761,1.191 -20.41,8.211 -8.379,-11.738 9.746,1.191 21.797,-33.855 9.278,1.14"
       style="fill:#ffffff;fill-opacity:1;fill-rule:nonzero;stroke:none"
       transform="matrix(0.13333333,0,0,-0.13333333,0,28.613333)"
       clip-path="url(#clipPath8)" />
    <path
       id="path9"
       d="m 148.406,159.316 -76.3669,19.543 4.9843,3.399 -26.9336,-0.754 12.2461,-11.094 4.9805,4.016 76.3436,-19.543 4.746,4.433"
       style="fill:#ffffff;fill-opacity:1;fill-rule:nonzero;stroke:none"
       transform="matrix(0.13333333,0,0,-0.13333333,0,28.613333)"
       clip-path="url(#clipPath10)" />
    <path
       id="path11"
       d="m 143.762,152.305 -85.6487,-10.762 -1.9102,3.684 -17.6953,-9.27 25.6836,-3.953 -2.6992,4.48 85.6248,10.762 -3.355,5.059"
       style="fill:#ffffff;fill-opacity:1;fill-rule:nonzero;stroke:none"
       transform="matrix(0.13333333,0,0,-0.13333333,0,28.613333)"
       clip-path="url(#clipPath12)" />
    <path
       id="path13"
       d="m 147.18,144.895 -43.711,-33.223 -8.8088,2.32 1.914,-12.359 24.0778,5.496 -8.804,2.324 43.711,33.235 -8.379,2.207"
       style="fill:#ffffff;fill-opacity:1;fill-rule:nonzero;stroke:none"
       transform="matrix(0.13333333,0,0,-0.13333333,0,28.613333)"
       clip-path="url(#clipPath14)" />
    <path
       id="path15"
       d="m 168.977,162.52 37.339,31.105 -8.804,2.324 24.082,5.496 1.914,-12.363 -8.813,2.324 -37.34,-31.101 -8.378,2.215"
       style="fill:#ffffff;fill-opacity:1;fill-rule:nonzero;stroke:none"
       transform="matrix(0.13333333,0,0,-0.13333333,0,28.613333)"
       clip-path="url(#clipPath16)" />
    <path
       id="path17"
       d="m 163.098,141.77 22.324,-36.516 -9.746,-1.199 20.41,-8.2034 8.379,11.7384 -9.77,-1.203 -22.324,36.515 -9.273,-1.132"
       style="fill:#ffffff;fill-opacity:1;fill-rule:nonzero;stroke:none"
       transform="matrix(0.13333333,0,0,-0.13333333,0,28.613333)"
       clip-path="url(#clipPath18)" />
    <path
       id="path19"
       d="m 178.977,145.461 74.214,-19.016 -4.976,-4.011 26.949,0.75 -12.242,11.093 -4.984,-2.781 -74.239,19.012 -4.722,-5.047"
       style="fill:#ffffff;fill-opacity:1;fill-rule:nonzero;stroke:none"
       transform="matrix(0.13333333,0,0,-0.13333333,0,28.613333)"
       clip-path="url(#clipPath20)" />
    <path
       id="path21"
       d="m 181.145,150.48 85.093,10.762 2.7,-4.484 17.71,9.277 -25.703,3.957 2.715,-3.34 -85.097,-10.761 2.582,-5.411"
       style="fill:#ffffff;fill-opacity:1;fill-rule:nonzero;stroke:none"
       transform="matrix(0.13333333,0,0,-0.13333333,0,28.613333)"
       clip-path="url(#clipPath22)" />
    <path
       id="path23"
       d="m 161.301,140.598 c 14.297,-0.508 26.07,4.382 26.304,10.925 0.239,6.536 -11.167,12.247 -25.464,12.747 -14.321,0.507 -26.094,-4.387 -26.328,-10.918 -0.215,-6.543 11.191,-12.247 25.488,-12.754"
       style="fill:#026c9b;fill-opacity:1;fill-rule:nonzero;stroke:none"
       transform="matrix(0.13333333,0,0,-0.13333333,0,28.613333)"
       clip-path="url(#clipPath24)" />
    <path
       id="path25"
       d="m 161.301,140.598 c 14.297,-0.508 26.07,4.382 26.304,10.925 0.239,6.536 -11.167,12.247 -25.464,12.747 -14.321,0.507 -26.094,-4.387 -26.328,-10.918 -0.215,-6.543 11.191,-12.247 25.488,-12.754 z"
       style="fill:none;stroke:#ffffff;stroke-width:4;stroke-linecap:butt;stroke-linejoin:miter;stroke-miterlimit:4;stroke-dasharray:none;stroke-opacity:1"
       transform="matrix(0.13333333,0,0,-0.13333333,0,28.613333)"
       clip-path="url(#clipPath26)" />
  </g>
</svg>
