<?xml version="1.0" encoding="UTF-8" standalone="no"?>
<!-- Created with Inkscape (http://www.inkscape.org/) -->

<svg
   version="1.1"
   id="svg1"
   width="46"
   height="38.946667"
   viewBox="0 0 46 38.946667"
   sodipodi:docname="octel.eps"
   xmlns:inkscape="http://www.inkscape.org/namespaces/inkscape"
   xmlns:sodipodi="http://sodipodi.sourceforge.net/DTD/sodipodi-0.dtd"
   xmlns="http://www.w3.org/2000/svg"
   xmlns:svg="http://www.w3.org/2000/svg">
  <defs
     id="defs1">
    <clipPath
       clipPathUnits="userSpaceOnUse"
       id="clipPath2">
      <path
         d="M 0,2 V 292 H 340 V 2 Z"
         id="path2" />
    </clipPath>
    <clipPath
       clipPathUnits="userSpaceOnUse"
       id="clipPath4">
      <path
         d="M 0,2 V 292 H 340 V 2 Z"
         id="path4" />
    </clipPath>
    <clipPath
       clipPathUnits="userSpaceOnUse"
       id="clipPath6">
      <path
         d="M 0,2 V 292 H 340 V 2 Z"
         id="path6" />
    </clipPath>
    <clipPath
       clipPathUnits="userSpaceOnUse"
       id="clipPath8">
      <path
         d="M 0,2 V 292 H 340 V 2 Z"
         id="path8" />
    </clipPath>
    <clipPath
       clipPathUnits="userSpaceOnUse"
       id="clipPath10">
      <path
         d="M 0,2 V 292 H 340 V 2 Z"
         id="path10" />
    </clipPath>
    <clipPath
       clipPathUnits="userSpaceOnUse"
       id="clipPath12">
      <path
         d="M 0,2 V 292 H 340 V 2 Z"
         id="path12" />
    </clipPath>
    <clipPath
       clipPathUnits="userSpaceOnUse"
       id="clipPath14">
      <path
         d="M 0,2 V 292 H 340 V 2 Z"
         id="path14" />
    </clipPath>
    <clipPath
       clipPathUnits="userSpaceOnUse"
       id="clipPath16">
      <path
         d="M 0,2 V 292 H 340 V 2 Z"
         id="path16" />
    </clipPath>
    <clipPath
       clipPathUnits="userSpaceOnUse"
       id="clipPath18">
      <path
         d="M 0,2 V 292 H 340 V 2 Z"
         id="path18" />
    </clipPath>
    <clipPath
       clipPathUnits="userSpaceOnUse"
       id="clipPath20">
      <path
         d="M 0,2 V 292 H 340 V 2 Z"
         id="path20" />
    </clipPath>
    <clipPath
       clipPathUnits="userSpaceOnUse"
       id="clipPath22">
      <path
         d="M 0,2 V 292 H 340 V 2 Z"
         id="path22" />
    </clipPath>
    <clipPath
       clipPathUnits="userSpaceOnUse"
       id="clipPath24">
      <path
         d="M 0,2 V 292 H 340 V 2 Z"
         id="path24" />
    </clipPath>
    <clipPath
       clipPathUnits="userSpaceOnUse"
       id="clipPath26">
      <path
         d="M 0,2 V 292 H 340 V 2 Z"
         id="path26" />
    </clipPath>
    <clipPath
       clipPathUnits="userSpaceOnUse"
       id="clipPath28">
      <path
         d="M 0,2 V 292 H 340 V 2 Z"
         id="path28" />
    </clipPath>
    <clipPath
       clipPathUnits="userSpaceOnUse"
       id="clipPath30">
      <path
         d="M 0,2 V 292 H 340 V 2 Z"
         id="path30" />
    </clipPath>
    <clipPath
       clipPathUnits="userSpaceOnUse"
       id="clipPath32">
      <path
         d="M 0,2 V 292 H 340 V 2 Z"
         id="path32" />
    </clipPath>
    <clipPath
       clipPathUnits="userSpaceOnUse"
       id="clipPath34">
      <path
         d="M 0,2 V 292 H 340 V 2 Z"
         id="path34" />
    </clipPath>
    <clipPath
       clipPathUnits="userSpaceOnUse"
       id="clipPath36">
      <path
         d="M 0,2 V 292 H 340 V 2 Z"
         id="path36" />
    </clipPath>
    <clipPath
       clipPathUnits="userSpaceOnUse"
       id="clipPath38">
      <path
         d="M 0,2 V 292 H 340 V 2 Z"
         id="path38" />
    </clipPath>
    <clipPath
       clipPathUnits="userSpaceOnUse"
       id="clipPath40">
      <path
         d="M 0,2 V 292 H 340 V 2 Z"
         id="path40" />
    </clipPath>
    <clipPath
       clipPathUnits="userSpaceOnUse"
       id="clipPath42">
      <path
         d="M 0,2 V 292 H 340 V 2 Z"
         id="path42" />
    </clipPath>
    <clipPath
       clipPathUnits="userSpaceOnUse"
       id="clipPath44">
      <path
         d="M 0,2 V 292 H 340 V 2 Z"
         id="path44" />
    </clipPath>
    <clipPath
       clipPathUnits="userSpaceOnUse"
       id="clipPath46">
      <path
         d="M 0,2 V 292 H 340 V 2 Z"
         id="path46" />
    </clipPath>
    <clipPath
       clipPathUnits="userSpaceOnUse"
       id="clipPath48">
      <path
         d="M 0,2 V 292 H 340 V 2 Z"
         id="path48" />
    </clipPath>
    <clipPath
       clipPathUnits="userSpaceOnUse"
       id="clipPath50">
      <path
         d="M 0,2 V 292 H 340 V 2 Z"
         id="path50" />
    </clipPath>
    <clipPath
       clipPathUnits="userSpaceOnUse"
       id="clipPath52">
      <path
         d="M 0,2 V 292 H 340 V 2 Z"
         id="path52" />
    </clipPath>
    <clipPath
       clipPathUnits="userSpaceOnUse"
       id="clipPath54">
      <path
         d="M 0,2 V 292 H 340 V 2 Z"
         id="path54" />
    </clipPath>
    <clipPath
       clipPathUnits="userSpaceOnUse"
       id="clipPath56">
      <path
         d="M 0,2 V 292 H 340 V 2 Z"
         id="path56" />
    </clipPath>
    <clipPath
       clipPathUnits="userSpaceOnUse"
       id="clipPath58">
      <path
         d="M 0,2 V 292 H 340 V 2 Z"
         id="path58" />
    </clipPath>
    <clipPath
       clipPathUnits="userSpaceOnUse"
       id="clipPath60">
      <path
         d="M 0,2 V 292 H 340 V 2 Z"
         id="path60" />
    </clipPath>
    <clipPath
       clipPathUnits="userSpaceOnUse"
       id="clipPath62">
      <path
         d="M 0,2 V 292 H 340 V 2 Z"
         id="path62" />
    </clipPath>
    <clipPath
       clipPathUnits="userSpaceOnUse"
       id="clipPath64">
      <path
         d="M 0,2 V 292 H 340 V 2 Z"
         id="path64" />
    </clipPath>
  </defs>
  <sodipodi:namedview
     id="namedview1"
     pagecolor="#505050"
     bordercolor="#eeeeee"
     borderopacity="1"
     inkscape:showpageshadow="0"
     inkscape:pageopacity="0"
     inkscape:pagecheckerboard="0"
     inkscape:deskcolor="#d1d1d1">
    <inkscape:page
       x="0"
       y="0"
       inkscape:label="1"
       id="page1"
       width="46"
       height="38.946667"
       margin="0"
       bleed="0" />
  </sodipodi:namedview>
  <g
     id="g1"
     inkscape:groupmode="layer"
     inkscape:label="1">
    <path
       id="path1"
       d="m 255.152,64.3945 c 0,38.3985 -38.398,67.1875 -86.406,67.1875 -43.199,0 -81.5976,-28.789 -81.5976,-67.1875 0,-33.6132 38.3986,-62.42184 81.5976,-62.42184 48.008,0 86.406,28.80864 86.406,62.42184"
       style="fill:#02709f;fill-opacity:1;fill-rule:nonzero;stroke:none"
       transform="matrix(0.13333333,0,0,-0.13333333,0,38.946667)"
       clip-path="url(#clipPath2)" />
    <path
       id="path3"
       d="m 255.152,64.3945 c 0,38.3985 -38.398,67.1875 -86.406,67.1875 -43.199,0 -81.5976,-28.789 -81.5976,-67.1875 0,-33.6132 38.3986,-62.42184 81.5976,-62.42184 48.008,0 86.406,28.80864 86.406,62.42184 z"
       style="fill:none;stroke:#ffffff;stroke-width:3.99994;stroke-linecap:butt;stroke-linejoin:miter;stroke-miterlimit:4;stroke-dasharray:none;stroke-opacity:1"
       transform="matrix(0.13333333,0,0,-0.13333333,0,38.946667)"
       clip-path="url(#clipPath4)" />
    <path
       id="path5"
       d="m 226.344,66.4844 h 33.613 l 24.004,-4.7852 h 33.594 l 9.609,4.7852 4.785,9.6094 4.805,9.5898 -4.805,14.4144 -28.789,28.789 -19.199,24.015 -24.004,23.993 -14.394,19.21 -14.415,23.993 -14.394,19.211 -14.414,23.992 -4.785,19.191 -19.2,9.61 h -14.414 l -19.195,-9.61 -4.797,-14.394 -9.597,-19.2 L 115.945,229.699 106.348,210.5 77.5469,172.102 58.3477,148.086 10.3516,100.098 5.54688,90.4883 V 85.6836 L 15.1563,66.4844 h 9.5898 l 9.5977,-4.7852 h 19.2109 l 19.1875,4.7852 h 72.0038 81.598"
       style="fill:#02709f;fill-opacity:1;fill-rule:evenodd;stroke:none"
       transform="matrix(0.13333333,0,0,-0.13333333,0,38.946667)"
       clip-path="url(#clipPath6)" />
    <path
       id="path7"
       d="m 259.957,148.086 c 0,38.41 -43.203,67.219 -91.211,67.219 -48.004,0 -86.4022,-28.809 -86.4022,-67.219 0,-38.398 38.3982,-67.2071 86.4022,-67.2071 48.008,0 91.211,28.8091 91.211,67.2071"
       style="fill:#02709f;fill-opacity:1;fill-rule:nonzero;stroke:none"
       transform="matrix(0.13333333,0,0,-0.13333333,0,38.946667)"
       clip-path="url(#clipPath8)" />
    <path
       id="path9"
       d="m 259.957,148.086 c 0,38.41 -43.203,67.219 -91.211,67.219 -48.004,0 -86.4022,-28.809 -86.4022,-67.219 0,-38.398 38.3982,-67.2071 86.4022,-67.2071 48.008,0 91.211,28.8091 91.211,67.2071 z"
       style="fill:none;stroke:#ffffff;stroke-width:3.99994;stroke-linecap:butt;stroke-linejoin:miter;stroke-miterlimit:4;stroke-dasharray:none;stroke-opacity:1"
       transform="matrix(0.13333333,0,0,-0.13333333,0,38.946667)"
       clip-path="url(#clipPath10)" />
    <path
       id="path11"
       d="m 178.355,258.496 h 4.80469 v 33.6055 H 178.355 Z"
       style="fill:#ffffff;fill-opacity:1;fill-rule:nonzero;stroke:none"
       transform="matrix(0.13333333,0,0,-0.13333333,0,38.946667)"
       clip-path="url(#clipPath12)" />
    <path
       id="path13"
       d="m 168.746,258.496 h 4.80469 v 33.6055 H 168.746 Z"
       style="fill:#ffffff;fill-opacity:1;fill-rule:nonzero;stroke:none"
       transform="matrix(0.13333333,0,0,-0.13333333,0,38.946667)"
       clip-path="url(#clipPath14)" />
    <path
       id="path15"
       d="m 159.148,258.496 h 4.79297 v 33.6055 H 159.148 Z"
       style="fill:#ffffff;fill-opacity:1;fill-rule:nonzero;stroke:none"
       transform="matrix(0.13333333,0,0,-0.13333333,0,38.946667)"
       clip-path="url(#clipPath16)" />
    <path
       id="path17"
       d="m 11.0938,64.9023 2.7734,-3.9257 27.4219,19.4336 -2.7813,3.9257 -27.414,-19.4336"
       style="fill:#ffffff;fill-opacity:1;fill-rule:nonzero;stroke:none"
       transform="matrix(0.13333333,0,0,-0.13333333,0,38.946667)"
       clip-path="url(#clipPath18)" />
    <path
       id="path19"
       d="M 5.54688,72.7344 8.32031,68.8086 35.7305,88.2422 32.9609,92.168 5.54688,72.7344"
       style="fill:#ffffff;fill-opacity:1;fill-rule:nonzero;stroke:none"
       transform="matrix(0.13333333,0,0,-0.13333333,0,38.946667)"
       clip-path="url(#clipPath20)" />
    <path
       id="path21"
       d="M 0,80.5664 2.77344,76.6602 30.1836,96.0742 27.4102,100 0,80.5664"
       style="fill:#ffffff;fill-opacity:1;fill-rule:nonzero;stroke:none"
       transform="matrix(0.13333333,0,0,-0.13333333,0,38.946667)"
       clip-path="url(#clipPath22)" />
    <path
       id="path23"
       d="m 333.883,64.9023 -2.793,-3.9257 -27.402,19.4336 2.773,3.9257 27.422,-19.4336"
       style="fill:#ffffff;fill-opacity:1;fill-rule:nonzero;stroke:none"
       transform="matrix(0.13333333,0,0,-0.13333333,0,38.946667)"
       clip-path="url(#clipPath24)" />
    <path
       id="path25"
       d="m 339.43,72.7344 -2.774,-3.9258 -27.422,19.4336 2.774,3.9258 27.422,-19.4336"
       style="fill:#ffffff;fill-opacity:1;fill-rule:nonzero;stroke:none"
       transform="matrix(0.13333333,0,0,-0.13333333,0,38.946667)"
       clip-path="url(#clipPath26)" />
    <path
       id="path27"
       d="m 344.977,80.5664 -2.774,-3.9062 -27.422,19.414 2.774,3.9258 27.422,-19.4336"
       style="fill:#ffffff;fill-opacity:1;fill-rule:nonzero;stroke:none"
       transform="matrix(0.13333333,0,0,-0.13333333,0,38.946667)"
       clip-path="url(#clipPath28)" />
    <path
       id="path29"
       d="m 143.535,52.6172 h 14.668 v 7.98828 h -14.668 z"
       style="fill:#000000;fill-opacity:1;fill-rule:evenodd;stroke:none"
       transform="matrix(0.13333333,0,0,-0.13333333,0,38.946667)"
       clip-path="url(#clipPath30)" />
    <path
       id="path31"
       d="m 158.203,52.6172 h -14.668 v 7.9883 h 14.668 z"
       style="fill:none;stroke:#ffffff;stroke-width:3.20007;stroke-linecap:butt;stroke-linejoin:miter;stroke-miterlimit:4;stroke-dasharray:none;stroke-opacity:1"
       transform="matrix(0.13333333,0,0,-0.13333333,0,38.946667)"
       clip-path="url(#clipPath32)" />
    <path
       id="path33"
       d="m 162.203,52.6172 h 14.668 v 7.98828 h -14.668 z"
       style="fill:#000000;fill-opacity:1;fill-rule:evenodd;stroke:none"
       transform="matrix(0.13333333,0,0,-0.13333333,0,38.946667)"
       clip-path="url(#clipPath34)" />
    <path
       id="path35"
       d="m 176.871,52.6172 h -14.668 v 7.9883 h 14.668 z"
       style="fill:none;stroke:#ffffff;stroke-width:3.20007;stroke-linecap:butt;stroke-linejoin:miter;stroke-miterlimit:4;stroke-dasharray:none;stroke-opacity:1"
       transform="matrix(0.13333333,0,0,-0.13333333,0,38.946667)"
       clip-path="url(#clipPath36)" />
    <path
       id="path37"
       d="m 180.875,52.6172 h 14.668 v 7.98828 h -14.668 z"
       style="fill:#000000;fill-opacity:1;fill-rule:evenodd;stroke:none"
       transform="matrix(0.13333333,0,0,-0.13333333,0,38.946667)"
       clip-path="url(#clipPath38)" />
    <path
       id="path39"
       d="m 195.543,52.6172 h -14.668 v 7.9883 h 14.668 z"
       style="fill:none;stroke:#ffffff;stroke-width:3.20007;stroke-linecap:butt;stroke-linejoin:miter;stroke-miterlimit:4;stroke-dasharray:none;stroke-opacity:1"
       transform="matrix(0.13333333,0,0,-0.13333333,0,38.946667)"
       clip-path="url(#clipPath40)" />
    <path
       id="path41"
       d="m 143.535,39.2773 h 14.668 v 8.00781 h -14.668 z"
       style="fill:#000000;fill-opacity:1;fill-rule:evenodd;stroke:none"
       transform="matrix(0.13333333,0,0,-0.13333333,0,38.946667)"
       clip-path="url(#clipPath42)" />
    <path
       id="path43"
       d="m 158.203,39.2773 h -14.668 v 8.0079 h 14.668 z"
       style="fill:none;stroke:#ffffff;stroke-width:3.20007;stroke-linecap:butt;stroke-linejoin:miter;stroke-miterlimit:4;stroke-dasharray:none;stroke-opacity:1"
       transform="matrix(0.13333333,0,0,-0.13333333,0,38.946667)"
       clip-path="url(#clipPath44)" />
    <path
       id="path45"
       d="m 162.203,39.2773 h 14.668 v 8.00781 h -14.668 z"
       style="fill:#000000;fill-opacity:1;fill-rule:evenodd;stroke:none"
       transform="matrix(0.13333333,0,0,-0.13333333,0,38.946667)"
       clip-path="url(#clipPath46)" />
    <path
       id="path47"
       d="m 176.871,39.2773 h -14.668 v 8.0079 h 14.668 z"
       style="fill:none;stroke:#ffffff;stroke-width:3.20007;stroke-linecap:butt;stroke-linejoin:miter;stroke-miterlimit:4;stroke-dasharray:none;stroke-opacity:1"
       transform="matrix(0.13333333,0,0,-0.13333333,0,38.946667)"
       clip-path="url(#clipPath48)" />
    <path
       id="path49"
       d="m 180.875,39.2773 h 14.668 v 8.00781 h -14.668 z"
       style="fill:#000000;fill-opacity:1;fill-rule:evenodd;stroke:none"
       transform="matrix(0.13333333,0,0,-0.13333333,0,38.946667)"
       clip-path="url(#clipPath50)" />
    <path
       id="path51"
       d="m 195.543,39.2773 h -14.668 v 8.0079 h 14.668 z"
       style="fill:none;stroke:#ffffff;stroke-width:3.20007;stroke-linecap:butt;stroke-linejoin:miter;stroke-miterlimit:4;stroke-dasharray:none;stroke-opacity:1"
       transform="matrix(0.13333333,0,0,-0.13333333,0,38.946667)"
       clip-path="url(#clipPath52)" />
    <path
       id="path53"
       d="m 143.535,25.9375 h 14.668 v 8.00781 h -14.668 z"
       style="fill:#000000;fill-opacity:1;fill-rule:evenodd;stroke:none"
       transform="matrix(0.13333333,0,0,-0.13333333,0,38.946667)"
       clip-path="url(#clipPath54)" />
    <path
       id="path55"
       d="m 158.203,25.9375 h -14.668 v 8.0078 h 14.668 z"
       style="fill:none;stroke:#ffffff;stroke-width:3.20007;stroke-linecap:butt;stroke-linejoin:miter;stroke-miterlimit:4;stroke-dasharray:none;stroke-opacity:1"
       transform="matrix(0.13333333,0,0,-0.13333333,0,38.946667)"
       clip-path="url(#clipPath56)" />
    <path
       id="path57"
       d="m 162.203,25.9375 h 14.668 v 8.00781 h -14.668 z"
       style="fill:#000000;fill-opacity:1;fill-rule:evenodd;stroke:none"
       transform="matrix(0.13333333,0,0,-0.13333333,0,38.946667)"
       clip-path="url(#clipPath58)" />
    <path
       id="path59"
       d="m 176.871,25.9375 h -14.668 v 8.0078 h 14.668 z"
       style="fill:none;stroke:#ffffff;stroke-width:3.20007;stroke-linecap:butt;stroke-linejoin:miter;stroke-miterlimit:4;stroke-dasharray:none;stroke-opacity:1"
       transform="matrix(0.13333333,0,0,-0.13333333,0,38.946667)"
       clip-path="url(#clipPath60)" />
    <path
       id="path61"
       d="m 180.875,25.9375 h 14.668 v 8.00781 h -14.668 z"
       style="fill:#000000;fill-opacity:1;fill-rule:evenodd;stroke:none"
       transform="matrix(0.13333333,0,0,-0.13333333,0,38.946667)"
       clip-path="url(#clipPath62)" />
    <path
       id="path63"
       d="m 195.543,25.9375 h -14.668 v 8.0078 h 14.668 z"
       style="fill:none;stroke:#ffffff;stroke-width:3.20007;stroke-linecap:butt;stroke-linejoin:miter;stroke-miterlimit:4;stroke-dasharray:none;stroke-opacity:1"
       transform="matrix(0.13333333,0,0,-0.13333333,0,38.946667)"
       clip-path="url(#clipPath64)" />
  </g>
</svg>
