<?xml version="1.0" encoding="UTF-8" standalone="no"?>
<!-- Created with Inkscape (http://www.inkscape.org/) -->

<svg
   version="1.1"
   id="svg1"
   width="50.533333"
   height="47.146667"
   viewBox="0 0 50.533333 47.146667"
   sodipodi:docname="ons15500.eps"
   xmlns:inkscape="http://www.inkscape.org/namespaces/inkscape"
   xmlns:sodipodi="http://sodipodi.sourceforge.net/DTD/sodipodi-0.dtd"
   xmlns="http://www.w3.org/2000/svg"
   xmlns:svg="http://www.w3.org/2000/svg">
  <defs
     id="defs1">
    <clipPath
       clipPathUnits="userSpaceOnUse"
       id="clipPath2">
      <path
         d="M 0,3 V 354 H 379 V 3 Z"
         id="path2" />
    </clipPath>
    <clipPath
       clipPathUnits="userSpaceOnUse"
       id="clipPath4">
      <path
         d="M 0,3 V 354 H 379 V 3 Z"
         id="path4" />
    </clipPath>
    <clipPath
       clipPathUnits="userSpaceOnUse"
       id="clipPath6">
      <path
         d="M 0,3 V 354 H 379 V 3 Z"
         id="path6" />
    </clipPath>
    <clipPath
       clipPathUnits="userSpaceOnUse"
       id="clipPath8">
      <path
         d="M 0,3 V 354 H 379 V 3 Z"
         id="path8" />
    </clipPath>
    <clipPath
       clipPathUnits="userSpaceOnUse"
       id="clipPath10">
      <path
         d="M 0,3 V 354 H 379 V 3 Z"
         id="path10" />
    </clipPath>
    <clipPath
       clipPathUnits="userSpaceOnUse"
       id="clipPath12">
      <path
         d="M 0,3 V 354 H 379 V 3 Z"
         id="path12" />
    </clipPath>
    <clipPath
       clipPathUnits="userSpaceOnUse"
       id="clipPath14">
      <path
         d="M 0,3 V 354 H 379 V 3 Z"
         id="path14" />
    </clipPath>
    <clipPath
       clipPathUnits="userSpaceOnUse"
       id="clipPath16">
      <path
         d="M 0,3 V 354 H 379 V 3 Z"
         id="path16" />
    </clipPath>
    <clipPath
       clipPathUnits="userSpaceOnUse"
       id="clipPath18">
      <path
         d="M 0,3 V 354 H 379 V 3 Z"
         id="path18" />
    </clipPath>
    <clipPath
       clipPathUnits="userSpaceOnUse"
       id="clipPath20">
      <path
         d="M 0,3 V 354 H 379 V 3 Z"
         id="path20" />
    </clipPath>
    <clipPath
       clipPathUnits="userSpaceOnUse"
       id="clipPath22">
      <path
         d="M 0,3 V 354 H 379 V 3 Z"
         id="path22" />
    </clipPath>
    <clipPath
       clipPathUnits="userSpaceOnUse"
       id="clipPath24">
      <path
         d="M 0,3 V 354 H 379 V 3 Z"
         id="path24" />
    </clipPath>
    <clipPath
       clipPathUnits="userSpaceOnUse"
       id="clipPath26">
      <path
         d="M 0,3 V 354 H 379 V 3 Z"
         id="path26" />
    </clipPath>
    <clipPath
       clipPathUnits="userSpaceOnUse"
       id="clipPath28">
      <path
         d="M 0,3 V 354 H 379 V 3 Z"
         id="path28" />
    </clipPath>
    <clipPath
       clipPathUnits="userSpaceOnUse"
       id="clipPath30">
      <path
         d="M 0,3 V 354 H 379 V 3 Z"
         id="path30" />
    </clipPath>
    <clipPath
       clipPathUnits="userSpaceOnUse"
       id="clipPath32">
      <path
         d="M 0,3 V 354 H 379 V 3 Z"
         id="path32" />
    </clipPath>
    <clipPath
       clipPathUnits="userSpaceOnUse"
       id="clipPath34">
      <path
         d="M 0,3 V 354 H 379 V 3 Z"
         id="path34" />
    </clipPath>
    <clipPath
       clipPathUnits="userSpaceOnUse"
       id="clipPath36">
      <path
         d="M 0,3 V 354 H 379 V 3 Z"
         id="path36" />
    </clipPath>
    <clipPath
       clipPathUnits="userSpaceOnUse"
       id="clipPath38">
      <path
         d="M 0,3 V 354 H 379 V 3 Z"
         id="path38" />
    </clipPath>
    <clipPath
       clipPathUnits="userSpaceOnUse"
       id="clipPath40">
      <path
         d="M 0,3 V 354 H 379 V 3 Z"
         id="path40" />
    </clipPath>
    <clipPath
       clipPathUnits="userSpaceOnUse"
       id="clipPath42">
      <path
         d="M 0,3 V 354 H 379 V 3 Z"
         id="path42" />
    </clipPath>
    <clipPath
       clipPathUnits="userSpaceOnUse"
       id="clipPath44">
      <path
         d="M 0,3 V 354 H 379 V 3 Z"
         id="path44" />
    </clipPath>
    <clipPath
       clipPathUnits="userSpaceOnUse"
       id="clipPath46">
      <path
         d="M 0,3 V 354 H 379 V 3 Z"
         id="path46" />
    </clipPath>
    <clipPath
       clipPathUnits="userSpaceOnUse"
       id="clipPath48">
      <path
         d="M 0,3 V 354 H 379 V 3 Z"
         id="path48" />
    </clipPath>
  </defs>
  <sodipodi:namedview
     id="namedview1"
     pagecolor="#505050"
     bordercolor="#eeeeee"
     borderopacity="1"
     inkscape:showpageshadow="0"
     inkscape:pageopacity="0"
     inkscape:pagecheckerboard="0"
     inkscape:deskcolor="#d1d1d1">
    <inkscape:page
       x="0"
       y="0"
       inkscape:label="1"
       id="page1"
       width="50.533333"
       height="47.146667"
       margin="0"
       bleed="0" />
  </sodipodi:namedview>
  <g
     id="g1"
     inkscape:groupmode="layer"
     inkscape:label="1">
    <path
       id="path1"
       d="M 373.965,348.555 312.344,290.059 H 5.78125 L 80.1758,348.555 H 373.965"
       style="fill:#026c9b;fill-opacity:1;fill-rule:nonzero;stroke:none"
       transform="matrix(0.13333333,0,0,-0.13333333,0,47.146667)"
       clip-path="url(#clipPath2)" />
    <path
       id="path3"
       d="M 373.965,348.555 312.344,290.059 H 5.78125 l 74.39455,58.496 z"
       style="fill:none;stroke:#ffffff;stroke-width:4;stroke-linecap:butt;stroke-linejoin:miter;stroke-miterlimit:4;stroke-dasharray:none;stroke-opacity:1"
       transform="matrix(0.13333333,0,0,-0.13333333,0,47.146667)"
       clip-path="url(#clipPath4)" />
    <path
       id="path5"
       d="m 5.78125,4.91016 h 306.563 v 285.148 H 5.78125 Z"
       style="fill:#026c9b;fill-opacity:1;fill-rule:nonzero;stroke:none"
       transform="matrix(0.13333333,0,0,-0.13333333,0,47.146667)"
       clip-path="url(#clipPath6)" />
    <path
       id="path7"
       d="M 312.344,4.91016 V 290.059 H 5.78125 V 4.91016 Z"
       style="fill:none;stroke:#ffffff;stroke-width:4;stroke-linecap:butt;stroke-linejoin:miter;stroke-miterlimit:4;stroke-dasharray:none;stroke-opacity:1"
       transform="matrix(0.13333333,0,0,-0.13333333,0,47.146667)"
       clip-path="url(#clipPath8)" />
    <path
       id="path9"
       d="M 366.934,63.5078 V 348.652 L 309.785,290.059 V 4.91016 l 57.149,58.59764"
       style="fill:#026c9b;fill-opacity:1;fill-rule:nonzero;stroke:none"
       transform="matrix(0.13333333,0,0,-0.13333333,0,47.146667)"
       clip-path="url(#clipPath10)" />
    <path
       id="path11"
       d="M 366.934,63.5078 V 348.652 L 309.785,290.059 V 4.91016 Z"
       style="fill:none;stroke:#ffffff;stroke-width:4;stroke-linecap:butt;stroke-linejoin:miter;stroke-miterlimit:4;stroke-dasharray:none;stroke-opacity:1"
       transform="matrix(0.13333333,0,0,-0.13333333,0,47.146667)"
       clip-path="url(#clipPath12)" />
    <path
       id="path13"
       d="m 21.0742,27.9375 h 273.926 v 240.332 H 21.0742 Z"
       style="fill:#026c9b;fill-opacity:1;fill-rule:nonzero;stroke:none"
       transform="matrix(0.13333333,0,0,-0.13333333,0,47.146667)"
       clip-path="url(#clipPath14)" />
    <path
       id="path15"
       d="M 295,268.27 H 21.0742 V 27.9375 H 295 Z"
       style="fill:none;stroke:#ffffff;stroke-width:4;stroke-linecap:butt;stroke-linejoin:miter;stroke-miterlimit:4;stroke-dasharray:none;stroke-opacity:1"
       transform="matrix(0.13333333,0,0,-0.13333333,0,47.146667)"
       clip-path="url(#clipPath16)" />
    <path
       id="path17"
       d="m 131.387,161.473 -97.012,-32"
       style="fill:none;stroke:#ffffff;stroke-width:4.8;stroke-linecap:butt;stroke-linejoin:miter;stroke-miterlimit:4;stroke-dasharray:12, 12;stroke-dashoffset:0;stroke-opacity:1"
       transform="matrix(0.13333333,0,0,-0.13333333,0,47.146667)"
       clip-path="url(#clipPath18)" />
    <path
       id="path19"
       d="m 176.387,185.477 118.476,43.996 v -25.996 l -118.476,-18"
       style="fill:#026c9b;fill-opacity:1;fill-rule:nonzero;stroke:none"
       transform="matrix(0.13333333,0,0,-0.13333333,0,47.146667)"
       clip-path="url(#clipPath20)" />
    <path
       id="path21"
       d="m 176.387,185.477 118.476,43.996 v -25.996 z"
       style="fill:none;stroke:#ffffff;stroke-width:4;stroke-linecap:butt;stroke-linejoin:miter;stroke-miterlimit:4;stroke-dasharray:none;stroke-opacity:1"
       transform="matrix(0.13333333,0,0,-0.13333333,0,47.146667)"
       clip-path="url(#clipPath22)" />
    <path
       id="path23"
       d="m 176.387,185.477 118.476,15.996 v -26.004 l -118.476,10.008"
       style="fill:#026c9b;fill-opacity:1;fill-rule:nonzero;stroke:#ffffff;stroke-width:4;stroke-linecap:butt;stroke-linejoin:miter;stroke-miterlimit:4;stroke-dasharray:none;stroke-opacity:1"
       transform="matrix(0.13333333,0,0,-0.13333333,0,47.146667)"
       clip-path="url(#clipPath24)" />
    <path
       id="path25"
       d="M 176.387,185.477 294.863,175.242 V 149.258 L 176.387,185.477"
       style="fill:#026c9b;fill-opacity:1;fill-rule:nonzero;stroke:#ffffff;stroke-width:4;stroke-linecap:butt;stroke-linejoin:miter;stroke-miterlimit:4;stroke-dasharray:none;stroke-opacity:1"
       transform="matrix(0.13333333,0,0,-0.13333333,0,47.146667)"
       clip-path="url(#clipPath26)" />
    <path
       id="path27"
       d="M 255.645,49.5039 H 68.418 L 162.031,236.727 255.645,49.5039"
       style="fill:#ffffff;fill-opacity:1;fill-rule:nonzero;stroke:none"
       transform="matrix(0.13333333,0,0,-0.13333333,0,47.146667)"
       clip-path="url(#clipPath28)" />
    <path
       id="path29"
       d="m 149.219,127.781 -18.379,18.379 3.125,3.117 -11.543,2.332 2.344,-11.543 3.105,3.118 18.379,-18.371 2.969,2.968"
       style="fill:#026c9b;fill-opacity:1;fill-rule:nonzero;stroke:none"
       transform="matrix(0.13333333,0,0,-0.13333333,0,47.146667)"
       clip-path="url(#clipPath30)" />
    <path
       id="path31"
       d="m 142.5,115.754 h -25.977 v 4.41 l -9.824,-6.512 9.824,-6.504 v 4.415 H 142.5 v 4.191"
       style="fill:#026c9b;fill-opacity:1;fill-rule:nonzero;stroke:none"
       transform="matrix(0.13333333,0,0,-0.13333333,0,47.146667)"
       clip-path="url(#clipPath32)" />
    <path
       id="path33"
       d="m 146.25,102.48 -18.379,-18.3706 -3.105,3.1172 -2.344,-11.5352 11.543,2.3438 -3.125,3.1171 18.379,18.3672 -2.969,2.9605"
       style="fill:#026c9b;fill-opacity:1;fill-rule:nonzero;stroke:none"
       transform="matrix(0.13333333,0,0,-0.13333333,0,47.146667)"
       clip-path="url(#clipPath34)" />
    <path
       id="path35"
       d="M 158.301,95.7695 V 69.7852 h -4.414 l 6.484,-9.8164 6.524,9.8164 h -4.415 v 25.9843 h -4.179"
       style="fill:#026c9b;fill-opacity:1;fill-rule:nonzero;stroke:none"
       transform="matrix(0.13333333,0,0,-0.13333333,0,47.146667)"
       clip-path="url(#clipPath36)" />
    <path
       id="path37"
       d="m 158.301,130.789 v 25.996 h -4.414 l 6.484,9.797 6.524,-9.797 h -4.415 v -25.996 h -4.179"
       style="fill:#026c9b;fill-opacity:1;fill-rule:nonzero;stroke:none"
       transform="matrix(0.13333333,0,0,-0.13333333,0,47.146667)"
       clip-path="url(#clipPath38)" />
    <path
       id="path39"
       d="m 171.543,99.5195 18.379,-18.3672 -3.106,-3.1171 11.543,-2.3438 -2.343,11.5352 -3.125,-3.1172 -18.379,18.3706 -2.969,-2.9605"
       style="fill:#026c9b;fill-opacity:1;fill-rule:nonzero;stroke:none"
       transform="matrix(0.13333333,0,0,-0.13333333,0,47.146667)"
       clip-path="url(#clipPath40)" />
    <path
       id="path41"
       d="m 178.262,111.563 h 25.996 v -4.415 l 9.805,6.504 -9.805,6.512 v -4.41 h -25.996 v -4.191"
       style="fill:#026c9b;fill-opacity:1;fill-rule:nonzero;stroke:none"
       transform="matrix(0.13333333,0,0,-0.13333333,0,47.146667)"
       clip-path="url(#clipPath42)" />
    <path
       id="path43"
       d="m 174.512,124.813 18.379,18.371 3.125,-3.118 2.343,11.543 -11.543,-2.332 3.106,-3.117 -18.379,-18.379 2.969,-2.968"
       style="fill:#026c9b;fill-opacity:1;fill-rule:nonzero;stroke:none"
       transform="matrix(0.13333333,0,0,-0.13333333,0,47.146667)"
       clip-path="url(#clipPath44)" />
    <path
       id="path45"
       d="m 176.348,91.6602 c 12.246,8.5738 15.234,25.4878 6.64,37.7418 -8.593,12.27 -25.468,15.246 -37.754,6.653 -12.246,-8.586 -15.234,-25.489 -6.66,-37.7347 8.594,-12.2734 25.508,-15.2539 37.774,-6.6601"
       style="fill:#026c9b;fill-opacity:1;fill-rule:nonzero;stroke:none"
       transform="matrix(0.13333333,0,0,-0.13333333,0,47.146667)"
       clip-path="url(#clipPath46)" />
    <path
       id="path47"
       d="m 176.348,91.6602 c 12.246,8.5738 15.234,25.4878 6.64,37.7418 -8.593,12.27 -25.468,15.246 -37.754,6.653 -12.246,-8.586 -15.234,-25.489 -6.66,-37.7347 8.594,-12.2734 25.508,-15.2539 37.774,-6.6601 z"
       style="fill:none;stroke:#ffffff;stroke-width:4;stroke-linecap:butt;stroke-linejoin:miter;stroke-miterlimit:4;stroke-dasharray:none;stroke-opacity:1"
       transform="matrix(0.13333333,0,0,-0.13333333,0,47.146667)"
       clip-path="url(#clipPath48)" />
  </g>
</svg>
