<?xml version="1.0" encoding="UTF-8" standalone="no"?>
<!-- Created with Inkscape (http://www.inkscape.org/) -->

<svg
   version="1.1"
   id="svg1"
   width="48.866669"
   height="49.266666"
   viewBox="0 0 48.866669 49.266666"
   sodipodi:docname="optical transport.eps"
   xmlns:inkscape="http://www.inkscape.org/namespaces/inkscape"
   xmlns:sodipodi="http://sodipodi.sourceforge.net/DTD/sodipodi-0.dtd"
   xmlns="http://www.w3.org/2000/svg"
   xmlns:svg="http://www.w3.org/2000/svg">
  <defs
     id="defs1" />
  <sodipodi:namedview
     id="namedview1"
     pagecolor="#505050"
     bordercolor="#eeeeee"
     borderopacity="1"
     inkscape:showpageshadow="0"
     inkscape:pageopacity="0"
     inkscape:pagecheckerboard="0"
     inkscape:deskcolor="#d1d1d1">
    <inkscape:page
       x="0"
       y="0"
       inkscape:label="1"
       id="page1"
       width="48.866669"
       height="49.266666"
       margin="0"
       bleed="0" />
  </sodipodi:namedview>
  <g
     id="g1"
     inkscape:groupmode="layer"
     inkscape:label="1">
    <path
       id="path1"
       d="m 364.742,297.5 c 0,-38.953 -81.211,-70.527 -181.375,-70.527 C 83.2031,226.973 2,258.547 2,297.5 V 72.5195 C 2,33.5625 83.2031,1.99219 183.367,1.99219 c 100.164,0 181.375,31.57031 181.375,70.52731 V 297.5"
       style="fill:#026c9b;fill-opacity:1;fill-rule:nonzero;stroke:none"
       transform="matrix(0.13333333,0,0,-0.13333333,0,49.266667)" />
    <path
       id="path2"
       d="m 364.742,297.5 c 0,-38.953 -81.211,-70.527 -181.375,-70.527 C 83.2031,226.973 2,258.547 2,297.5 V 72.5195 C 2,33.5625 83.2031,1.99219 183.367,1.99219 c 100.164,0 181.375,31.57031 181.375,70.52731 z"
       style="fill:none;stroke:#ffffff;stroke-width:4;stroke-linecap:butt;stroke-linejoin:miter;stroke-miterlimit:4;stroke-dasharray:none;stroke-opacity:1"
       transform="matrix(0.13333333,0,0,-0.13333333,0,49.266667)" />
    <path
       id="path3"
       d="m 183.391,226.633 c 100.062,0 181.175,31.547 181.175,70.453 0,38.91 -81.113,70.453 -181.175,70.453 -100.059,0 -181.17225,-31.562 -181.17225,-70.453 0,-38.906 81.11325,-70.453 181.17225,-70.453"
       style="fill:#026c9b;fill-opacity:1;fill-rule:nonzero;stroke:none"
       transform="matrix(0.13333333,0,0,-0.13333333,0,49.266667)" />
    <path
       id="path4"
       d="m 183.391,226.633 c 100.062,0 181.175,31.547 181.175,70.453 0,38.91 -81.113,70.453 -181.175,70.453 -100.059,0 -181.17225,-31.562 -181.17225,-70.453 0,-38.906 81.11325,-70.453 181.17225,-70.453 z"
       style="fill:none;stroke:#ffffff;stroke-width:4;stroke-linecap:butt;stroke-linejoin:miter;stroke-miterlimit:4;stroke-dasharray:none;stroke-opacity:1"
       transform="matrix(0.13333333,0,0,-0.13333333,0,49.266667)" />
    <path
       id="path5"
       d="m 140.691,339.137 74.305,7.258 -14.305,-23.75 -18.992,3.668 -111.1912,-42 -19.8945,5.468 108.8787,41.414 -18.801,7.942"
       style="fill:#ffffff;fill-opacity:1;fill-rule:nonzero;stroke:none"
       transform="matrix(0.13333333,0,0,-0.13333333,0,49.266667)" />
    <path
       id="path6"
       d="m 226.695,312.801 74.297,7.262 -14.297,-23.75 -19.004,3.667 -111.187,-42.003 -19.883,5.468 108.883,41.418 -18.809,7.938"
       style="fill:#ffffff;fill-opacity:1;fill-rule:nonzero;stroke:none"
       transform="matrix(0.13333333,0,0,-0.13333333,0,49.266667)" />
    <path
       id="path7"
       d="M 108.777,27.8438 V 75.7969 L 79.8945,52.7695 108.777,27.8438"
       style="fill:#ffffff;fill-opacity:1;fill-rule:nonzero;stroke:none"
       transform="matrix(0.13333333,0,0,-0.13333333,0,49.266667)" />
    <path
       id="path8"
       d="m 248.043,212.535 v -47.961 l 28.887,23.039 -28.887,24.922"
       style="fill:#ffffff;fill-opacity:1;fill-rule:nonzero;stroke:none"
       transform="matrix(0.13333333,0,0,-0.13333333,0,49.266667)" />
    <path
       id="path9"
       d="m 108.777,162.848 v 47.949 L 79.8945,187.77 108.777,162.848"
       style="fill:#ffffff;fill-opacity:1;fill-rule:nonzero;stroke:none"
       transform="matrix(0.13333333,0,0,-0.13333333,0,49.266667)" />
    <path
       id="path10"
       d="m 266.598,52.3281 h -49.59 L 149.68,188.141 H 98.332"
       style="fill:none;stroke:#ffffff;stroke-width:14.25;stroke-linecap:butt;stroke-linejoin:miter;stroke-miterlimit:4;stroke-dasharray:none;stroke-opacity:1"
       transform="matrix(0.13333333,0,0,-0.13333333,0,49.266667)" />
    <path
       id="path11"
       d="m 98.6445,52.5352 h 47.9105 l 66.703,135.1558 h 51.933"
       style="fill:none;stroke:#ffffff;stroke-width:14.25;stroke-linecap:butt;stroke-linejoin:miter;stroke-miterlimit:4;stroke-dasharray:none;stroke-opacity:1"
       transform="matrix(0.13333333,0,0,-0.13333333,0,49.266667)" />
    <path
       id="path12"
       d="M 248.043,76.9102 V 28.9531 l 28.887,23.0352 -28.887,24.9219"
       style="fill:#ffffff;fill-opacity:1;fill-rule:nonzero;stroke:none"
       transform="matrix(0.13333333,0,0,-0.13333333,0,49.266667)" />
  </g>
</svg>
