<?xml version="1.0" encoding="UTF-8" standalone="no"?>
<!-- Created with Inkscape (http://www.inkscape.org/) -->

<svg
   version="1.1"
   id="svg1"
   width="56.119999"
   height="45.533333"
   viewBox="0 0 56.119999 45.533333"
   sodipodi:docname="pad x.28.eps"
   xmlns:inkscape="http://www.inkscape.org/namespaces/inkscape"
   xmlns:sodipodi="http://sodipodi.sourceforge.net/DTD/sodipodi-0.dtd"
   xmlns="http://www.w3.org/2000/svg"
   xmlns:svg="http://www.w3.org/2000/svg">
  <defs
     id="defs1">
    <clipPath
       clipPathUnits="userSpaceOnUse"
       id="clipPath2">
      <path
         d="M 0,1 V 341 H 420 V 1 Z"
         id="path2" />
    </clipPath>
    <clipPath
       clipPathUnits="userSpaceOnUse"
       id="clipPath4">
      <path
         d="M 0,1 V 341 H 420 V 1 Z"
         id="path4" />
    </clipPath>
    <clipPath
       clipPathUnits="userSpaceOnUse"
       id="clipPath6">
      <path
         d="M 0,1 V 341 H 420 V 1 Z"
         id="path6" />
    </clipPath>
    <clipPath
       clipPathUnits="userSpaceOnUse"
       id="clipPath8">
      <path
         d="M 0,1 V 341 H 420 V 1 Z"
         id="path8" />
    </clipPath>
    <clipPath
       clipPathUnits="userSpaceOnUse"
       id="clipPath10">
      <path
         d="M 0,1 V 341 H 420 V 1 Z"
         id="path10" />
    </clipPath>
    <clipPath
       clipPathUnits="userSpaceOnUse"
       id="clipPath12">
      <path
         d="M 0,1 V 341 H 420 V 1 Z"
         id="path12" />
    </clipPath>
    <clipPath
       clipPathUnits="userSpaceOnUse"
       id="clipPath14">
      <path
         d="M 0,1 V 341 H 420 V 1 Z"
         id="path14" />
    </clipPath>
    <clipPath
       clipPathUnits="userSpaceOnUse"
       id="clipPath16">
      <path
         d="M 0,1 V 341 H 420 V 1 Z"
         id="path16" />
    </clipPath>
    <clipPath
       clipPathUnits="userSpaceOnUse"
       id="clipPath18">
      <path
         d="M 0,1 V 341 H 420 V 1 Z"
         id="path18" />
    </clipPath>
    <clipPath
       clipPathUnits="userSpaceOnUse"
       id="clipPath20">
      <path
         d="M 0,1 V 341 H 420 V 1 Z"
         id="path20" />
    </clipPath>
    <clipPath
       clipPathUnits="userSpaceOnUse"
       id="clipPath22">
      <path
         d="M 0,1 V 341 H 420 V 1 Z"
         id="path22" />
    </clipPath>
    <clipPath
       clipPathUnits="userSpaceOnUse"
       id="clipPath24">
      <path
         d="M 0,1 V 341 H 420 V 1 Z"
         id="path24" />
    </clipPath>
    <clipPath
       clipPathUnits="userSpaceOnUse"
       id="clipPath26">
      <path
         d="M 0,1 V 341 H 420 V 1 Z"
         id="path26" />
    </clipPath>
    <clipPath
       clipPathUnits="userSpaceOnUse"
       id="clipPath28">
      <path
         d="M 0,1 V 341 H 420 V 1 Z"
         transform="matrix(0.1,0,0,-0.1,-13.3914,14.344501)"
         id="path28" />
    </clipPath>
  </defs>
  <sodipodi:namedview
     id="namedview1"
     pagecolor="#505050"
     bordercolor="#eeeeee"
     borderopacity="1"
     inkscape:showpageshadow="0"
     inkscape:pageopacity="0"
     inkscape:pagecheckerboard="0"
     inkscape:deskcolor="#d1d1d1">
    <inkscape:page
       x="0"
       y="0"
       inkscape:label="1"
       id="page1"
       width="56.119999"
       height="45.533333"
       margin="0"
       bleed="0" />
  </sodipodi:namedview>
  <g
     id="g1"
     inkscape:groupmode="layer"
     inkscape:label="1">
    <path
       id="path1"
       d="M 416.852,178.008 136.895,338.047 V 17.9766 L 416.852,178.008"
       style="fill:#02709f;fill-opacity:1;fill-rule:nonzero;stroke:none"
       transform="matrix(0.13333333,0,0,-0.13333333,0,45.533333)"
       clip-path="url(#clipPath2)" />
    <path
       id="path3"
       d="M 416.852,178.008 136.895,338.047 V 17.9766 Z"
       style="fill:none;stroke:#ffffff;stroke-width:3.99994;stroke-linecap:butt;stroke-linejoin:miter;stroke-miterlimit:4;stroke-dasharray:none;stroke-opacity:1"
       transform="matrix(0.13333333,0,0,-0.13333333,0,45.533333)"
       clip-path="url(#clipPath4)" />
    <path
       id="path5"
       d="M 123.438,267.168 V 249.551 H 0.046875 L 0,267.168 h 123.438"
       style="fill:#02709f;fill-opacity:1;fill-rule:nonzero;stroke:none"
       transform="matrix(0.13333333,0,0,-0.13333333,0,45.533333)"
       clip-path="url(#clipPath6)" />
    <path
       id="path7"
       d="m 116.563,250.293 21.574,22.91"
       style="fill:#000000;fill-opacity:1;fill-rule:nonzero;stroke:#ffffff;stroke-width:3.99994;stroke-linecap:butt;stroke-linejoin:miter;stroke-miterlimit:4;stroke-dasharray:none;stroke-opacity:1"
       transform="matrix(0.13333333,0,0,-0.13333333,0,45.533333)"
       clip-path="url(#clipPath8)" />
    <path
       id="path9"
       d="M 123.438,212.168 V 194.551 H 0.046875 L 0,212.168 h 123.438"
       style="fill:#02709f;fill-opacity:1;fill-rule:nonzero;stroke:none"
       transform="matrix(0.13333333,0,0,-0.13333333,0,45.533333)"
       clip-path="url(#clipPath10)" />
    <path
       id="path11"
       d="m 116.563,195.293 21.574,22.91"
       style="fill:#000000;fill-opacity:1;fill-rule:nonzero;stroke:#ffffff;stroke-width:3.99994;stroke-linecap:butt;stroke-linejoin:miter;stroke-miterlimit:4;stroke-dasharray:none;stroke-opacity:1"
       transform="matrix(0.13333333,0,0,-0.13333333,0,45.533333)"
       clip-path="url(#clipPath12)" />
    <path
       id="path13"
       d="M 123.438,157.168 V 139.551 H 0.046875 L 0,157.168 h 123.438"
       style="fill:#02709f;fill-opacity:1;fill-rule:nonzero;stroke:none"
       transform="matrix(0.13333333,0,0,-0.13333333,0,45.533333)"
       clip-path="url(#clipPath14)" />
    <path
       id="path15"
       d="m 116.563,140.293 21.574,22.91"
       style="fill:#000000;fill-opacity:1;fill-rule:nonzero;stroke:#ffffff;stroke-width:3.99994;stroke-linecap:butt;stroke-linejoin:miter;stroke-miterlimit:4;stroke-dasharray:none;stroke-opacity:1"
       transform="matrix(0.13333333,0,0,-0.13333333,0,45.533333)"
       clip-path="url(#clipPath16)" />
    <path
       id="path17"
       d="M 123.438,102.168 V 84.5508 H 0.046875 L 0,102.168 h 123.438"
       style="fill:#02709f;fill-opacity:1;fill-rule:nonzero;stroke:none"
       transform="matrix(0.13333333,0,0,-0.13333333,0,45.533333)"
       clip-path="url(#clipPath18)" />
    <path
       id="path19"
       d="m 116.563,85.293 21.574,22.91"
       style="fill:#000000;fill-opacity:1;fill-rule:nonzero;stroke:#ffffff;stroke-width:3.99994;stroke-linecap:butt;stroke-linejoin:miter;stroke-miterlimit:4;stroke-dasharray:none;stroke-opacity:1"
       transform="matrix(0.13333333,0,0,-0.13333333,0,45.533333)"
       clip-path="url(#clipPath20)" />
    <path
       id="path21"
       d="m 135.754,309.227 -30.274,15.226 30.477,12.117 -0.203,-27.343"
       style="fill:#000000;fill-opacity:1;fill-rule:nonzero;stroke:none"
       transform="matrix(0.13333333,0,0,-0.13333333,0,45.533333)"
       clip-path="url(#clipPath22)" />
    <path
       id="path23"
       d="M 136.992,332.637 V 309.512"
       style="fill:none;stroke:#000000;stroke-width:6.00006;stroke-linecap:round;stroke-linejoin:round;stroke-miterlimit:4;stroke-dasharray:none;stroke-opacity:1"
       transform="matrix(0.13333333,0,0,-0.13333333,0,45.533333)"
       clip-path="url(#clipPath24)" />
    <path
       id="path25"
       d="M 386.383,163.484 106.414,323.516 V 3.44531 L 386.383,163.484"
       style="fill:#02709f;fill-opacity:1;fill-rule:nonzero;stroke:#ffffff;stroke-width:3.99994;stroke-linecap:butt;stroke-linejoin:miter;stroke-miterlimit:4;stroke-dasharray:none;stroke-opacity:1"
       transform="matrix(0.13333333,0,0,-0.13333333,0,45.533333)"
       clip-path="url(#clipPath26)" />
    <path
       id="path27"
       d="m 1.8048891,-2.08675 h 1.5 c 1.078125,0 1.7578125,-0.75 1.7578125,-1.9453125 0,-1.1601563 -0.65625,-1.8046875 -1.875,-1.8046875 H 0.60957656 V -8.125e-4 H 1.8048891 Z m 0,-0.9960938 v -1.7578125 h 1.125 c 0.6445312,0 0.9375,0.28125 0.9375,0.8789063 0,0.5976562 -0.2929688,0.8789062 -0.9375,0.8789062 z m 6.7382812,1.9101563 0.3867188,1.171875 H 10.160358 L 8.1447328,-5.83675 H 6.8205141 L 4.7462953,-8.125e-4 h 1.21875 l 0.3984375,-1.171875 z M 8.2150453,-2.1805 H 6.6916078 l 0.7617188,-2.2734375 z m 2.7187497,2.1796875 h 2.273438 c 0.890625,0 1.453125,-0.2109375 1.851562,-0.6796875 0.457032,-0.5390625 0.703125,-1.3242188 0.703125,-2.2382813 0,-0.9023437 -0.246093,-1.6875 -0.703125,-2.25 -0.398437,-0.46875 -0.949218,-0.6679687 -1.851562,-0.6679687 h -2.273438 z m 1.195313,-0.99609375 V -4.8406563 h 1.078125 c 0.902344,0 1.359375,0.6328125 1.359375,1.921875 0,1.2890625 -0.457031,1.92187505 -1.359375,1.92187505 z m 0,0"
       style="fill:#ffffff;fill-opacity:1;fill-rule:nonzero;stroke:none"
       aria-label="PAD"
       transform="matrix(1.3333333,0,0,1.3333333,17.8552,26.407333)"
       clip-path="url(#clipPath28)" />
  </g>
</svg>
