<?xml version="1.0" encoding="UTF-8" standalone="no"?>
<!-- Created with Inkscape (http://www.inkscape.org/) -->

<svg
   version="1.1"
   id="svg1"
   width="54.560001"
   height="31.68"
   viewBox="0 0 54.560001 31.68"
   sodipodi:docname="pad.eps"
   xmlns:inkscape="http://www.inkscape.org/namespaces/inkscape"
   xmlns:sodipodi="http://sodipodi.sourceforge.net/DTD/sodipodi-0.dtd"
   xmlns="http://www.w3.org/2000/svg"
   xmlns:svg="http://www.w3.org/2000/svg">
  <defs
     id="defs1" />
  <sodipodi:namedview
     id="namedview1"
     pagecolor="#505050"
     bordercolor="#eeeeee"
     borderopacity="1"
     inkscape:showpageshadow="0"
     inkscape:pageopacity="0"
     inkscape:pagecheckerboard="0"
     inkscape:deskcolor="#d1d1d1">
    <inkscape:page
       x="0"
       y="0"
       inkscape:label="1"
       id="page1"
       width="54.560001"
       height="31.68"
       margin="0"
       bleed="0" />
  </sodipodi:namedview>
  <g
     id="g1"
     inkscape:groupmode="layer"
     inkscape:label="1">
    <path
       id="path1"
       d="m 25.1602,24.2773 h 359.625 v 189.004 H 25.1602 Z"
       style="fill:#02709f;fill-opacity:1;fill-rule:nonzero;stroke:none"
       transform="matrix(0.13333333,0,0,-0.13333333,0,31.68)" />
    <path
       id="path2"
       d="M 384.785,24.2773 V 213.281 H 25.1602 V 24.2773 Z"
       style="fill:none;stroke:#ffffff;stroke-width:3.99994;stroke-linecap:butt;stroke-linejoin:miter;stroke-miterlimit:4;stroke-dasharray:none;stroke-opacity:1"
       transform="matrix(0.13333333,0,0,-0.13333333,0,31.68)" />
    <path
       id="path3"
       d="m 384.785,213.281 19.57,19.465 H 4.97656 L 25.1602,213.281 H 384.785"
       style="fill:#02709f;fill-opacity:1;fill-rule:nonzero;stroke:none"
       transform="matrix(0.13333333,0,0,-0.13333333,0,31.68)" />
    <path
       id="path4"
       d="m 384.785,213.281 19.57,19.465 H 4.97656 L 25.1602,213.281 Z"
       style="fill:none;stroke:#ffffff;stroke-width:3.99994;stroke-linecap:butt;stroke-linejoin:miter;stroke-miterlimit:4;stroke-dasharray:none;stroke-opacity:1"
       transform="matrix(0.13333333,0,0,-0.13333333,0,31.68)" />
    <path
       id="path5"
       d="M 404.355,4.81641 V 232.746 l -19.57,-19.465 V 24.2773 l 19.57,-19.46089"
       style="fill:#02709f;fill-opacity:1;fill-rule:nonzero;stroke:none"
       transform="matrix(0.13333333,0,0,-0.13333333,0,31.68)" />
    <path
       id="path6"
       d="M 404.355,4.81641 V 232.746 l -19.57,-19.465 V 24.2773 Z"
       style="fill:none;stroke:#ffffff;stroke-width:3.99994;stroke-linecap:butt;stroke-linejoin:miter;stroke-miterlimit:4;stroke-dasharray:none;stroke-opacity:1"
       transform="matrix(0.13333333,0,0,-0.13333333,0,31.68)" />
    <path
       id="path7"
       d="M 384.785,24.1719 404.355,4.81641 H 4.97656 L 25.1602,24.1719 H 384.785"
       style="fill:#02709f;fill-opacity:1;fill-rule:nonzero;stroke:none"
       transform="matrix(0.13333333,0,0,-0.13333333,0,31.68)" />
    <path
       id="path8"
       d="M 384.785,24.1719 404.355,4.81641 H 4.97656 L 25.1602,24.1719 Z"
       style="fill:none;stroke:#ffffff;stroke-width:3.99994;stroke-linecap:butt;stroke-linejoin:miter;stroke-miterlimit:4;stroke-dasharray:none;stroke-opacity:1"
       transform="matrix(0.13333333,0,0,-0.13333333,0,31.68)" />
    <path
       id="path9"
       d="M 4.97656,4.81641 V 232.746 L 25.1602,213.281 V 24.2773 L 4.97656,4.81641"
       style="fill:#02709f;fill-opacity:1;fill-rule:nonzero;stroke:#ffffff;stroke-width:3.99994;stroke-linecap:butt;stroke-linejoin:miter;stroke-miterlimit:4;stroke-dasharray:none;stroke-opacity:1"
       transform="matrix(0.13333333,0,0,-0.13333333,0,31.68)" />
  </g>
</svg>
