<?xml version="1.0" encoding="UTF-8" standalone="no"?>
<!-- Created with Inkscape (http://www.inkscape.org/) -->

<svg
   version="1.1"
   id="svg1"
   width="37.426666"
   height="38.119999"
   viewBox="0 0 37.426666 38.119999"
   sodipodi:docname="pbx.eps"
   xmlns:inkscape="http://www.inkscape.org/namespaces/inkscape"
   xmlns:sodipodi="http://sodipodi.sourceforge.net/DTD/sodipodi-0.dtd"
   xmlns="http://www.w3.org/2000/svg"
   xmlns:svg="http://www.w3.org/2000/svg">
  <defs
     id="defs1">
    <clipPath
       clipPathUnits="userSpaceOnUse"
       id="clipPath2">
      <path
         d="M 0,286 H 280 V 0 H 0 Z"
         id="path2" />
    </clipPath>
    <clipPath
       clipPathUnits="userSpaceOnUse"
       id="clipPath4">
      <path
         d="M 0,286 H 280 V 0 H 0 Z"
         id="path4" />
    </clipPath>
    <clipPath
       clipPathUnits="userSpaceOnUse"
       id="clipPath6">
      <path
         d="M 0,286 H 280 V 0 H 0 Z"
         id="path6" />
    </clipPath>
    <clipPath
       clipPathUnits="userSpaceOnUse"
       id="clipPath8">
      <path
         d="M 0,286 H 280 V 0 H 0 Z"
         id="path8" />
    </clipPath>
    <clipPath
       clipPathUnits="userSpaceOnUse"
       id="clipPath10">
      <path
         d="M 0,286 H 280 V 0 H 0 Z"
         id="path10" />
    </clipPath>
    <clipPath
       clipPathUnits="userSpaceOnUse"
       id="clipPath12">
      <path
         d="M 0,286 H 280 V 0 H 0 Z"
         id="path12" />
    </clipPath>
    <clipPath
       clipPathUnits="userSpaceOnUse"
       id="clipPath14">
      <path
         d="M 0,286 H 280 V 0 H 0 Z"
         id="path14" />
    </clipPath>
    <clipPath
       clipPathUnits="userSpaceOnUse"
       id="clipPath16">
      <path
         d="M 0,286 H 280 V 0 H 0 Z"
         id="path16" />
    </clipPath>
    <clipPath
       clipPathUnits="userSpaceOnUse"
       id="clipPath18">
      <path
         d="M 0,286 H 280 V 0 H 0 Z"
         id="path18" />
    </clipPath>
    <clipPath
       clipPathUnits="userSpaceOnUse"
       id="clipPath20">
      <path
         d="M 0,286 H 280 V 0 H 0 Z"
         id="path20" />
    </clipPath>
    <clipPath
       clipPathUnits="userSpaceOnUse"
       id="clipPath22">
      <path
         d="M 0,286 H 280 V 0 H 0 Z"
         id="path22" />
    </clipPath>
    <clipPath
       clipPathUnits="userSpaceOnUse"
       id="clipPath24">
      <path
         d="M 0,286 H 280 V 0 H 0 Z"
         id="path24" />
    </clipPath>
    <clipPath
       clipPathUnits="userSpaceOnUse"
       id="clipPath26">
      <path
         d="M 0,286 H 280 V 0 H 0 Z"
         id="path26" />
    </clipPath>
    <clipPath
       clipPathUnits="userSpaceOnUse"
       id="clipPath28">
      <path
         d="M 0,286 H 280 V 0 H 0 Z"
         id="path28" />
    </clipPath>
    <clipPath
       clipPathUnits="userSpaceOnUse"
       id="clipPath30">
      <path
         d="M 0,286 H 280 V 0 H 0 Z"
         id="path30" />
    </clipPath>
    <clipPath
       clipPathUnits="userSpaceOnUse"
       id="clipPath32">
      <path
         d="M 0,286 H 280 V 0 H 0 Z"
         id="path32" />
    </clipPath>
    <clipPath
       clipPathUnits="userSpaceOnUse"
       id="clipPath34">
      <path
         d="M 0,286 H 280 V 0 H 0 Z"
         id="path34" />
    </clipPath>
    <clipPath
       clipPathUnits="userSpaceOnUse"
       id="clipPath36">
      <path
         d="M 0,286 H 280 V 0 H 0 Z"
         id="path36" />
    </clipPath>
    <clipPath
       clipPathUnits="userSpaceOnUse"
       id="clipPath38">
      <path
         d="M 0,286 H 280 V 0 H 0 Z"
         id="path38" />
    </clipPath>
    <clipPath
       clipPathUnits="userSpaceOnUse"
       id="clipPath40">
      <path
         d="M 0,286 H 280 V 0 H 0 Z"
         id="path40" />
    </clipPath>
    <clipPath
       clipPathUnits="userSpaceOnUse"
       id="clipPath42">
      <path
         d="M 0,286 H 280 V 0 H 0 Z"
         id="path42" />
    </clipPath>
    <clipPath
       clipPathUnits="userSpaceOnUse"
       id="clipPath44">
      <path
         d="M 0,286 H 280 V 0 H 0 Z"
         id="path44" />
    </clipPath>
  </defs>
  <sodipodi:namedview
     id="namedview1"
     pagecolor="#505050"
     bordercolor="#eeeeee"
     borderopacity="1"
     inkscape:showpageshadow="0"
     inkscape:pageopacity="0"
     inkscape:pagecheckerboard="0"
     inkscape:deskcolor="#d1d1d1">
    <inkscape:page
       x="0"
       y="0"
       inkscape:label="1"
       id="page1"
       width="37.426666"
       height="38.119999"
       margin="0"
       bleed="0" />
  </sodipodi:namedview>
  <g
     id="g1"
     inkscape:groupmode="layer"
     inkscape:label="1">
    <path
       id="path1"
       d="m 5.44922,4.6875 h 226.797 v 230.742 H 5.44922 Z"
       style="fill:#02709f;fill-opacity:1;fill-rule:nonzero;stroke:none"
       transform="matrix(0.13333333,0,0,-0.13333333,0,38.12)"
       clip-path="url(#clipPath2)" />
    <path
       id="path3"
       d="M 232.246,4.6875 V 235.43 H 5.44922 V 4.6875 Z"
       style="fill:none;stroke:#ffffff;stroke-width:3.99994;stroke-linecap:butt;stroke-linejoin:miter;stroke-miterlimit:4;stroke-dasharray:none;stroke-opacity:1"
       transform="matrix(0.13333333,0,0,-0.13333333,0,38.12)"
       clip-path="url(#clipPath4)" />
    <path
       id="path5"
       d="m 194.539,153.516 v -50.481 l 30.41,24.25 -30.41,26.231"
       style="fill:#000000;fill-opacity:1;fill-rule:nonzero;stroke:none"
       transform="matrix(0.13333333,0,0,-0.13333333,0,38.12)"
       clip-path="url(#clipPath6)" />
    <path
       id="path7"
       d="m 100.859,195.723 h 50.481 l -24.25,30.41 -26.231,-30.41"
       style="fill:#000000;fill-opacity:1;fill-rule:nonzero;stroke:none"
       transform="matrix(0.13333333,0,0,-0.13333333,0,38.12)"
       clip-path="url(#clipPath8)" />
    <path
       id="path9"
       d="M 152.246,49.8359 H 101.77 l 24.48,-30.4023 25.996,30.4023"
       style="fill:#000000;fill-opacity:1;fill-rule:nonzero;stroke:none"
       transform="matrix(0.13333333,0,0,-0.13333333,0,38.12)"
       clip-path="url(#clipPath10)" />
    <path
       id="path11"
       d="M 52.8516,97.0781 V 147.559 L 22.4414,123.313 52.8516,97.0781"
       style="fill:#000000;fill-opacity:1;fill-rule:nonzero;stroke:none"
       transform="matrix(0.13333333,0,0,-0.13333333,0,38.12)"
       clip-path="url(#clipPath12)" />
    <path
       id="path13"
       d="M 189.285,148.262 V 97.793 l 30.41,24.238 -30.41,26.231"
       style="fill:#ffffff;fill-opacity:1;fill-rule:nonzero;stroke:none"
       transform="matrix(0.13333333,0,0,-0.13333333,0,38.12)"
       clip-path="url(#clipPath14)" />
    <path
       id="path15"
       d="M 189.285,148.262 V 97.793 l 30.41,24.238 z"
       style="fill:none;stroke:#ffffff;stroke-width:1.99997;stroke-linecap:butt;stroke-linejoin:miter;stroke-miterlimit:4;stroke-dasharray:none;stroke-opacity:1"
       transform="matrix(0.13333333,0,0,-0.13333333,0,38.12)"
       clip-path="url(#clipPath16)" />
    <path
       id="path17"
       d="m 95.6133,190.469 h 50.4727 l -24.25,30.41 -26.2227,-30.41"
       style="fill:#ffffff;fill-opacity:1;fill-rule:nonzero;stroke:none"
       transform="matrix(0.13333333,0,0,-0.13333333,0,38.12)"
       clip-path="url(#clipPath18)" />
    <path
       id="path19"
       d="m 95.6133,190.469 h 50.4727 l -24.25,30.41 z"
       style="fill:none;stroke:#ffffff;stroke-width:1.99997;stroke-linecap:butt;stroke-linejoin:miter;stroke-miterlimit:4;stroke-dasharray:none;stroke-opacity:1"
       transform="matrix(0.13333333,0,0,-0.13333333,0,38.12)"
       clip-path="url(#clipPath20)" />
    <path
       id="path21"
       d="M 146.992,44.5898 H 96.5234 l 24.4846,-30.4101 25.984,30.4101"
       style="fill:#ffffff;fill-opacity:1;fill-rule:nonzero;stroke:none"
       transform="matrix(0.13333333,0,0,-0.13333333,0,38.12)"
       clip-path="url(#clipPath22)" />
    <path
       id="path23"
       d="M 146.992,44.5898 H 96.5234 L 121.008,14.1797 Z"
       style="fill:none;stroke:#ffffff;stroke-width:1.99997;stroke-linecap:butt;stroke-linejoin:miter;stroke-miterlimit:4;stroke-dasharray:none;stroke-opacity:1"
       transform="matrix(0.13333333,0,0,-0.13333333,0,38.12)"
       clip-path="url(#clipPath24)" />
    <path
       id="path25"
       d="M 46.9453,91.8359 V 142.305 L 16.5313,118.066 46.9453,91.8359"
       style="fill:#ffffff;fill-opacity:1;fill-rule:nonzero;stroke:none"
       transform="matrix(0.13333333,0,0,-0.13333333,0,38.12)"
       clip-path="url(#clipPath26)" />
    <path
       id="path27"
       d="M 46.9453,91.8359 V 142.305 L 16.5313,118.066 Z"
       style="fill:none;stroke:#ffffff;stroke-width:1.99997;stroke-linecap:butt;stroke-linejoin:miter;stroke-miterlimit:4;stroke-dasharray:none;stroke-opacity:1"
       transform="matrix(0.13333333,0,0,-0.13333333,0,38.12)"
       clip-path="url(#clipPath28)" />
    <path
       id="path29"
       d="M 231.465,235.695 H 5.71094 L 62.9414,281.367 H 278.711 v -0.262 h -0.652 L 231.992,235.82 v -1.445 l -0.527,1.32"
       style="fill:#02709f;fill-opacity:1;fill-rule:nonzero;stroke:none"
       transform="matrix(0.13333333,0,0,-0.13333333,0,38.12)"
       clip-path="url(#clipPath30)" />
    <path
       id="path31"
       d="M 231.465,235.695 H 5.71094 L 62.9414,281.367 H 278.711 v -0.262 h -0.652 L 231.992,235.82 v -1.445 z"
       style="fill:none;stroke:#ffffff;stroke-width:3.99994;stroke-linecap:butt;stroke-linejoin:miter;stroke-miterlimit:4;stroke-dasharray:none;stroke-opacity:1"
       transform="matrix(0.13333333,0,0,-0.13333333,0,38.12)"
       clip-path="url(#clipPath32)" />
    <path
       id="path33"
       d="M 278.191,50.7617 V 281.105 L 232.246,235.176 V 4.82422 l 45.945,45.93748"
       style="fill:#02709f;fill-opacity:1;fill-rule:nonzero;stroke:none"
       transform="matrix(0.13333333,0,0,-0.13333333,0,38.12)"
       clip-path="url(#clipPath34)" />
    <path
       id="path35"
       d="M 278.191,50.7617 V 281.105 L 232.246,235.176 V 4.82422 Z"
       style="fill:none;stroke:#ffffff;stroke-width:3.99994;stroke-linecap:butt;stroke-linejoin:miter;stroke-miterlimit:4;stroke-dasharray:none;stroke-opacity:1"
       transform="matrix(0.13333333,0,0,-0.13333333,0,38.12)"
       clip-path="url(#clipPath36)" />
    <path
       id="path37"
       d="m 157.383,151.875 v -19.199 h 24.621 v 13.195 c 0,21.563 -27.277,33.035 -60.918,33.035 h 0.965 c -33.6408,0 -60.9182,-11.472 -60.9182,-33.035 v -13.195 h 24.6211 v 19.199 c 32.5081,42.539 71.6291,0 71.6291,0"
       style="fill:#000000;fill-opacity:1;fill-rule:nonzero;stroke:none"
       transform="matrix(0.13333333,0,0,-0.13333333,0,38.12)"
       clip-path="url(#clipPath38)" />
    <path
       id="path39"
       d="m 125.82,158.469 h 21.297 V 134.473 L 170.84,114.668 V 67.2773 H 126.484 116.453 72.0977 v 47.3907 l 23.7226,19.805 v 23.996 h 21.2887 8.711"
       style="fill:#000000;fill-opacity:1;fill-rule:nonzero;stroke:none"
       transform="matrix(0.13333333,0,0,-0.13333333,0,38.12)"
       clip-path="url(#clipPath40)" />
    <path
       id="path41"
       d="m 157.258,146.477 v -19.2 h 24.617 v 13.192 c 0,21.562 -27.273,33.039 -60.918,33.039 h 0.969 c -33.6447,0 -60.9182,-11.477 -60.9182,-33.039 V 127.277 H 85.625 v 19.2 c 32.512,42.539 71.633,0 71.633,0"
       style="fill:#ffffff;fill-opacity:1;fill-rule:nonzero;stroke:none"
       transform="matrix(0.13333333,0,0,-0.13333333,0,38.12)"
       clip-path="url(#clipPath42)" />
    <path
       id="path43"
       d="m 125.703,153.078 h 21.289 V 129.074 L 170.715,109.27 V 61.875 h -44.36 -10.027 -44.3553 v 47.395 l 23.7226,19.804 v 24.004 h 21.2847 8.723"
       style="fill:#ffffff;fill-opacity:1;fill-rule:nonzero;stroke:none"
       transform="matrix(0.13333333,0,0,-0.13333333,0,38.12)"
       clip-path="url(#clipPath44)" />
  </g>
</svg>
