<?xml version="1.0" encoding="UTF-8" standalone="no"?>
<!-- Created with Inkscape (http://www.inkscape.org/) -->

<svg
   version="1.1"
   id="svg1"
   width="58.386665"
   height="55.360001"
   viewBox="0 0 58.386665 55.360001"
   sodipodi:docname="pc software.eps"
   xmlns:inkscape="http://www.inkscape.org/namespaces/inkscape"
   xmlns:sodipodi="http://sodipodi.sourceforge.net/DTD/sodipodi-0.dtd"
   xmlns="http://www.w3.org/2000/svg"
   xmlns:svg="http://www.w3.org/2000/svg">
  <defs
     id="defs1" />
  <sodipodi:namedview
     id="namedview1"
     pagecolor="#505050"
     bordercolor="#eeeeee"
     borderopacity="1"
     inkscape:showpageshadow="0"
     inkscape:pageopacity="0"
     inkscape:pagecheckerboard="0"
     inkscape:deskcolor="#d1d1d1">
    <inkscape:page
       x="0"
       y="0"
       inkscape:label="1"
       id="page1"
       width="58.386665"
       height="55.360001"
       margin="0"
       bleed="0" />
  </sodipodi:namedview>
  <g
     id="g1"
     inkscape:groupmode="layer"
     inkscape:label="1">
    <path
       id="path1"
       d="m 65.2422,52.9609 h 314.746 v 59.0508 H 65.2422 Z"
       style="fill:#02709f;fill-opacity:1;fill-rule:nonzero;stroke:none"
       transform="matrix(0.13333333,0,0,-0.13333333,0,55.36)" />
    <path
       id="path2"
       d="M 379.988,52.9609 V 112.012 H 65.2422 V 52.9609 Z"
       style="fill:none;stroke:#ffffff;stroke-width:3.99994;stroke-linecap:butt;stroke-linejoin:miter;stroke-miterlimit:4;stroke-dasharray:none;stroke-opacity:1"
       transform="matrix(0.13333333,0,0,-0.13333333,0,55.36)" />
    <path
       id="path3"
       d="m 283.586,78.5742 h 79.375"
       style="fill:#02709f;fill-opacity:1;fill-rule:nonzero;stroke:#ffffff;stroke-width:3.99994;stroke-linecap:butt;stroke-linejoin:miter;stroke-miterlimit:4;stroke-dasharray:none;stroke-opacity:1"
       transform="matrix(0.13333333,0,0,-0.13333333,0,55.36)" />
    <path
       id="path4"
       d="m 283.586,81.4063 h 79.375"
       style="fill:#02709f;fill-opacity:1;fill-rule:nonzero;stroke:#ffffff;stroke-width:3.99994;stroke-linecap:butt;stroke-linejoin:miter;stroke-miterlimit:4;stroke-dasharray:none;stroke-opacity:1"
       transform="matrix(0.13333333,0,0,-0.13333333,0,55.36)" />
    <path
       id="path5"
       d="m 432.82,108.945 v 52.918 L 379.949,111.777 V 52.9609 l 52.871,55.9841"
       style="fill:#02709f;fill-opacity:1;fill-rule:nonzero;stroke:none"
       transform="matrix(0.13333333,0,0,-0.13333333,0,55.36)" />
    <path
       id="path6"
       d="m 432.82,108.945 v 52.918 L 379.949,111.777 V 52.9609 Z"
       style="fill:none;stroke:#ffffff;stroke-width:3.99994;stroke-linecap:butt;stroke-linejoin:miter;stroke-miterlimit:4;stroke-dasharray:none;stroke-opacity:1"
       transform="matrix(0.13333333,0,0,-0.13333333,0,55.36)" />
    <path
       id="path7"
       d="M 324.07,4.82422 V 18.0742 l 28.618,39.5703 V 33.4258 L 324.07,4.82422"
       style="fill:#02709f;fill-opacity:1;fill-rule:nonzero;stroke:#ffffff;stroke-width:3.99994;stroke-linecap:butt;stroke-linejoin:miter;stroke-miterlimit:4;stroke-dasharray:none;stroke-opacity:1"
       transform="matrix(0.13333333,0,0,-0.13333333,0,55.36)" />
    <path
       id="path8"
       d="m 71.9453,4.82422 h 252.125 v 13.0586 H 71.9453 Z"
       style="fill:#02709f;fill-opacity:1;fill-rule:nonzero;stroke:none"
       transform="matrix(0.13333333,0,0,-0.13333333,0,55.36)" />
    <path
       id="path9"
       d="M 324.07,17.8828 V 4.82422 H 71.9453 V 17.8828 Z"
       style="fill:none;stroke:#ffffff;stroke-width:3.99994;stroke-linecap:butt;stroke-linejoin:miter;stroke-miterlimit:4;stroke-dasharray:none;stroke-opacity:1"
       transform="matrix(0.13333333,0,0,-0.13333333,0,55.36)" />
    <path
       id="path10"
       d="M 324.07,17.8828 H 72.7422 L 101.34,57.6445 H 352.688 L 324.07,17.8828"
       style="fill:#02709f;fill-opacity:1;fill-rule:nonzero;stroke:none"
       transform="matrix(0.13333333,0,0,-0.13333333,0,55.36)" />
    <path
       id="path11"
       d="M 324.07,17.8828 H 72.7422 L 101.34,57.6445 h 251.348 z"
       style="fill:none;stroke:#ffffff;stroke-width:3.99994;stroke-linecap:butt;stroke-linejoin:miter;stroke-miterlimit:4;stroke-dasharray:none;stroke-opacity:1"
       transform="matrix(0.13333333,0,0,-0.13333333,0,55.36)" />
    <path
       id="path12"
       d="M 432.82,161.758 H 117.98 L 65.2422,112.012 H 379.988 l 52.832,49.746"
       style="fill:#02709f;fill-opacity:1;fill-rule:nonzero;stroke:none"
       transform="matrix(0.13333333,0,0,-0.13333333,0,55.36)" />
    <path
       id="path13"
       d="M 432.82,161.758 H 117.98 L 65.2422,112.012 H 379.988 Z"
       style="fill:none;stroke:#ffffff;stroke-width:3.99994;stroke-linecap:butt;stroke-linejoin:miter;stroke-miterlimit:4;stroke-dasharray:none;stroke-opacity:1"
       transform="matrix(0.13333333,0,0,-0.13333333,0,55.36)" />
    <path
       id="path14"
       d="M 373.523,161.551 H 162.82 l -35.308,-33.297 h 210.703 l 35.308,33.297"
       style="fill:#02709f;fill-opacity:1;fill-rule:nonzero;stroke:none"
       transform="matrix(0.13333333,0,0,-0.13333333,0,55.36)" />
    <path
       id="path15"
       d="M 373.523,161.551 H 162.82 l -35.308,-33.297 h 210.703 z"
       style="fill:none;stroke:#ffffff;stroke-width:3.99994;stroke-linecap:butt;stroke-linejoin:miter;stroke-miterlimit:4;stroke-dasharray:none;stroke-opacity:1"
       transform="matrix(0.13333333,0,0,-0.13333333,0,55.36)" />
    <path
       id="path16"
       d="M 121.531,141.277 H 338.547 V 300.343 H 121.531 Z"
       style="fill:#02709f;fill-opacity:1;fill-rule:nonzero;stroke:none"
       transform="matrix(0.13333333,0,0,-0.13333333,0,55.36)" />
    <path
       id="path17"
       d="M 338.547,141.277 V 300.344 H 121.531 V 141.277 Z"
       style="fill:none;stroke:#ffffff;stroke-width:3.99994;stroke-linecap:butt;stroke-linejoin:miter;stroke-miterlimit:4;stroke-dasharray:none;stroke-opacity:1"
       transform="matrix(0.13333333,0,0,-0.13333333,0,55.36)" />
    <path
       id="path18"
       d="m 139.855,265.449 c 0,15.965 16.559,18.328 16.559,18.328 0,0 127.734,0 143.106,0 20.097,0 19.511,-18.914 19.511,-18.914 0,0 0,-78.058 0,-89.289 0,-11.23 -15.371,-15.965 -15.371,-15.965 0,0 -24.5,0 -53.445,0 -37.891,0 -83.391,0 -91.438,0 -14.175,0 -18.922,14.786 -18.922,14.786 v 91.054"
       style="fill:#02709f;fill-opacity:1;fill-rule:nonzero;stroke:none"
       transform="matrix(0.13333333,0,0,-0.13333333,0,55.36)" />
    <path
       id="path19"
       d="m 139.855,265.449 c 0,15.965 16.559,18.328 16.559,18.328 0,0 127.734,0 143.106,0 20.097,0 19.511,-18.914 19.511,-18.914 0,0 0,-78.058 0,-89.289 0,-11.23 -15.371,-15.965 -15.371,-15.965 0,0 -24.5,0 -53.445,0 -37.891,0 -83.391,0 -91.438,0 -14.175,0 -18.922,14.786 -18.922,14.786 z"
       style="fill:none;stroke:#ffffff;stroke-width:3.99994;stroke-linecap:butt;stroke-linejoin:miter;stroke-miterlimit:4;stroke-dasharray:none;stroke-opacity:1"
       transform="matrix(0.13333333,0,0,-0.13333333,0,55.36)" />
    <path
       id="path20"
       d="M 374.91,334.637 H 157.898 l -36.367,-34.293 h 217.016 l 36.363,34.293"
       style="fill:#02709f;fill-opacity:1;fill-rule:nonzero;stroke:none"
       transform="matrix(0.13333333,0,0,-0.13333333,0,55.36)" />
    <path
       id="path21"
       d="M 374.91,334.637 H 157.898 l -36.367,-34.293 h 217.016 z"
       style="fill:none;stroke:#ffffff;stroke-width:3.99994;stroke-linecap:butt;stroke-linejoin:miter;stroke-miterlimit:4;stroke-dasharray:none;stroke-opacity:1"
       transform="matrix(0.13333333,0,0,-0.13333333,0,55.36)" />
    <path
       id="path22"
       d="m 374.91,175.078 v 159.629 l -36.015,-34.07 V 141.008 l 36.015,34.07"
       style="fill:#02709f;fill-opacity:1;fill-rule:nonzero;stroke:none"
       transform="matrix(0.13333333,0,0,-0.13333333,0,55.36)" />
    <path
       id="path23"
       d="m 374.91,175.078 v 159.629 l -36.015,-34.07 V 141.008 Z"
       style="fill:none;stroke:#ffffff;stroke-width:3.99994;stroke-linecap:butt;stroke-linejoin:miter;stroke-miterlimit:4;stroke-dasharray:none;stroke-opacity:1"
       transform="matrix(0.13333333,0,0,-0.13333333,0,55.36)" />
    <path
       id="path24"
       d="m 201.648,411.133 -5.015,-2.961 H 2 l 4.96094,3.078 194.68706,-0.117"
       style="fill:#000000;fill-opacity:1;fill-rule:nonzero;stroke:none"
       transform="matrix(0.13333333,0,0,-0.13333333,0,55.36)" />
    <path
       id="path25"
       d="m 201.688,218.164 -0.04,192.969 -5.015,-3.801 V 213.523 l 5.055,4.641"
       style="fill:#02709f;fill-opacity:1;fill-rule:nonzero;stroke:none"
       transform="matrix(0.13333333,0,0,-0.13333333,0,55.36)" />
    <path
       id="path26"
       d="m 201.688,218.164 -0.04,192.969 -5.015,-3.801 V 213.523 Z"
       style="fill:none;stroke:#ffffff;stroke-width:3.99994;stroke-linecap:butt;stroke-linejoin:miter;stroke-miterlimit:4;stroke-dasharray:none;stroke-opacity:1"
       transform="matrix(0.13333333,0,0,-0.13333333,0,55.36)" />
    <path
       id="path27"
       d="M 10.8477,213.523 H 196.633 V 408.172 H 2 V 222.371 l 8.8477,-8.848"
       style="fill:#02709f;fill-opacity:1;fill-rule:nonzero;stroke:none"
       transform="matrix(0.13333333,0,0,-0.13333333,0,55.36)" />
    <path
       id="path28"
       d="M 10.8477,213.523 H 196.633 V 408.172 H 2 V 222.371 Z"
       style="fill:none;stroke:#ffffff;stroke-width:3.99994;stroke-linecap:butt;stroke-linejoin:miter;stroke-miterlimit:4;stroke-dasharray:none;stroke-opacity:1"
       transform="matrix(0.13333333,0,0,-0.13333333,0,55.36)" />
    <path
       id="path29"
       d="M 181.887,408.172 V 295.887 c 0,-8.153 -6.621,-6.629 -6.621,-6.629 H 22.6289 c 0,0 -5.8828,-0.742 -5.8828,5.898 v 113.016"
       style="fill:#02709f;fill-opacity:1;fill-rule:nonzero;stroke:#ffffff;stroke-width:3.99994;stroke-linecap:butt;stroke-linejoin:miter;stroke-miterlimit:4;stroke-dasharray:none;stroke-opacity:1"
       transform="matrix(0.13333333,0,0,-0.13333333,0,55.36)" />
    <path
       id="path30"
       d="m 13.8398,388.262 v 8.847 H 4.98828 v -8.847 z"
       style="fill:none;stroke:#ffffff;stroke-width:3.99994;stroke-linecap:butt;stroke-linejoin:miter;stroke-miterlimit:4;stroke-dasharray:none;stroke-opacity:1"
       transform="matrix(0.13333333,0,0,-0.13333333,0,55.36)" />
    <path
       id="path31"
       d="m 193.738,388.262 v 8.847 h -8.843 v -8.847 z"
       style="fill:none;stroke:#ffffff;stroke-width:3.99994;stroke-linecap:butt;stroke-linejoin:miter;stroke-miterlimit:4;stroke-dasharray:none;stroke-opacity:1"
       transform="matrix(0.13333333,0,0,-0.13333333,0,55.36)" />
    <path
       id="path32"
       d="M 150.398,270.293 V 215.637 H 34.6406 v 55.398 c 0,5.899 6.6407,5.156 6.6407,5.156 H 144.504 c 6.641,0 5.894,-5.898 5.894,-5.898"
       style="fill:#ffffff;fill-opacity:1;fill-rule:nonzero;stroke:none"
       transform="matrix(0.13333333,0,0,-0.13333333,0,55.36)" />
    <path
       id="path33"
       d="M 150.398,270.293 V 215.637 H 34.6406 v 55.398 c 0,5.899 6.6407,5.156 6.6407,5.156 H 144.504 c 6.641,0 5.894,-5.898 5.894,-5.898 z"
       style="fill:none;stroke:#000000;stroke-width:3.99994;stroke-linecap:butt;stroke-linejoin:miter;stroke-miterlimit:4;stroke-dasharray:none;stroke-opacity:1"
       transform="matrix(0.13333333,0,0,-0.13333333,0,55.36)" />
    <path
       id="path34"
       d="m 181.887,213.523 v 56.77 c 0,0 0.742,5.898 -5.903,5.898 H 41.4336 c 0,0 -6.6406,0.743 -6.6406,-5.156 v -53.926"
       style="fill:none;stroke:#ffffff;stroke-width:3.99994;stroke-linecap:butt;stroke-linejoin:miter;stroke-miterlimit:4;stroke-dasharray:none;stroke-opacity:1"
       transform="matrix(0.13333333,0,0,-0.13333333,0,55.36)" />
    <path
       id="path35"
       d="m 56.9219,219.426 h 22.8555 v 53.0859 H 56.9219 Z"
       style="fill:#000000;fill-opacity:1;fill-rule:nonzero;stroke:none"
       transform="matrix(0.13333333,0,0,-0.13333333,0,55.36)" />
    <path
       id="path36"
       d="m 196.633,407.43 5.176,3.691"
       style="fill:none;stroke:#ffffff;stroke-width:3.99994;stroke-linecap:butt;stroke-linejoin:miter;stroke-miterlimit:4;stroke-dasharray:none;stroke-opacity:1"
       transform="matrix(0.13333333,0,0,-0.13333333,0,55.36)" />
  </g>
</svg>
