<?xml version="1.0" encoding="UTF-8" standalone="no"?>
<!-- Created with Inkscape (http://www.inkscape.org/) -->

<svg
   version="1.1"
   id="svg1"
   width="50.360001"
   height="45.253334"
   viewBox="0 0 50.360001 45.253334"
   sodipodi:docname="pc.eps"
   xmlns:inkscape="http://www.inkscape.org/namespaces/inkscape"
   xmlns:sodipodi="http://sodipodi.sourceforge.net/DTD/sodipodi-0.dtd"
   xmlns="http://www.w3.org/2000/svg"
   xmlns:svg="http://www.w3.org/2000/svg">
  <defs
     id="defs1" />
  <sodipodi:namedview
     id="namedview1"
     pagecolor="#505050"
     bordercolor="#eeeeee"
     borderopacity="1"
     inkscape:showpageshadow="0"
     inkscape:pageopacity="0"
     inkscape:pagecheckerboard="0"
     inkscape:deskcolor="#d1d1d1">
    <inkscape:page
       x="0"
       y="0"
       inkscape:label="1"
       id="page1"
       width="50.360001"
       height="45.253334"
       margin="0"
       bleed="0" />
  </sodipodi:namedview>
  <g
     id="g1"
     inkscape:groupmode="layer"
     inkscape:label="1">
    <path
       id="path1"
       d="m 5.03516,52.9492 h 314.734 v 59.0625 H 5.03516 Z"
       style="fill:#02709f;fill-opacity:1;fill-rule:nonzero;stroke:none"
       transform="matrix(0.13333333,0,0,-0.13333333,0,45.253333)" />
    <path
       id="path2"
       d="M 319.77,52.9492 V 112.012 H 5.03516 V 52.9492 Z"
       style="fill:none;stroke:#ffffff;stroke-width:3.99994;stroke-linecap:butt;stroke-linejoin:miter;stroke-miterlimit:4;stroke-dasharray:none;stroke-opacity:1"
       transform="matrix(0.13333333,0,0,-0.13333333,0,45.253333)" />
    <path
       id="path3"
       d="m 223.375,78.5742 h 79.383"
       style="fill:#02709f;fill-opacity:1;fill-rule:nonzero;stroke:#ffffff;stroke-width:3.99994;stroke-linecap:butt;stroke-linejoin:miter;stroke-miterlimit:4;stroke-dasharray:none;stroke-opacity:1"
       transform="matrix(0.13333333,0,0,-0.13333333,0,45.253333)" />
    <path
       id="path4"
       d="m 223.375,81.4063 h 79.383"
       style="fill:#02709f;fill-opacity:1;fill-rule:nonzero;stroke:#ffffff;stroke-width:3.99994;stroke-linecap:butt;stroke-linejoin:miter;stroke-miterlimit:4;stroke-dasharray:none;stroke-opacity:1"
       transform="matrix(0.13333333,0,0,-0.13333333,0,45.253333)" />
    <path
       id="path5"
       d="m 372.613,108.945 v 52.84 L 319.73,111.777 V 52.9492 l 52.883,55.9958"
       style="fill:#02709f;fill-opacity:1;fill-rule:nonzero;stroke:none"
       transform="matrix(0.13333333,0,0,-0.13333333,0,45.253333)" />
    <path
       id="path6"
       d="m 372.613,108.945 v 52.84 L 319.73,111.777 V 52.9492 Z"
       style="fill:none;stroke:#ffffff;stroke-width:3.99994;stroke-linecap:butt;stroke-linejoin:miter;stroke-miterlimit:4;stroke-dasharray:none;stroke-opacity:1"
       transform="matrix(0.13333333,0,0,-0.13333333,0,45.253333)" />
    <path
       id="path7"
       d="M 263.871,4.82422 V 17.9102 l 28.594,39.7265 V 33.418 L 263.871,4.82422"
       style="fill:#02709f;fill-opacity:1;fill-rule:nonzero;stroke:none"
       transform="matrix(0.13333333,0,0,-0.13333333,0,45.253333)" />
    <path
       id="path8"
       d="M 263.871,4.82422 V 17.9102 l 28.594,39.7265 V 33.418 Z"
       style="fill:none;stroke:#ffffff;stroke-width:3.99994;stroke-linecap:butt;stroke-linejoin:miter;stroke-miterlimit:4;stroke-dasharray:none;stroke-opacity:1"
       transform="matrix(0.13333333,0,0,-0.13333333,0,45.253333)" />
    <path
       id="path9"
       d="m 12.0078,4.82422 h 251.863 v 13.0859 H 12.0078 Z"
       style="fill:#02709f;fill-opacity:1;fill-rule:nonzero;stroke:none"
       transform="matrix(0.13333333,0,0,-0.13333333,0,45.253333)" />
    <path
       id="path10"
       d="M 263.871,17.9102 V 4.82422 H 12.0078 V 17.9102 Z"
       style="fill:none;stroke:#ffffff;stroke-width:3.99994;stroke-linecap:butt;stroke-linejoin:miter;stroke-miterlimit:4;stroke-dasharray:none;stroke-opacity:1"
       transform="matrix(0.13333333,0,0,-0.13333333,0,45.253333)" />
    <path
       id="path11"
       d="M 263.871,17.9102 H 12.0078 L 41.1484,57.6367 H 292.465 L 263.871,17.9102"
       style="fill:#02709f;fill-opacity:1;fill-rule:nonzero;stroke:none"
       transform="matrix(0.13333333,0,0,-0.13333333,0,45.253333)" />
    <path
       id="path12"
       d="M 263.871,17.9102 H 12.0078 L 41.1484,57.6367 H 292.465 Z"
       style="fill:none;stroke:#ffffff;stroke-width:3.99994;stroke-linecap:butt;stroke-linejoin:miter;stroke-miterlimit:4;stroke-dasharray:none;stroke-opacity:1"
       transform="matrix(0.13333333,0,0,-0.13333333,0,45.253333)" />
    <path
       id="path13"
       d="M 372.613,161.785 H 57.7773 L 5.03516,112.012 H 319.77 l 52.843,49.773"
       style="fill:#02709f;fill-opacity:1;fill-rule:nonzero;stroke:none"
       transform="matrix(0.13333333,0,0,-0.13333333,0,45.253333)" />
    <path
       id="path14"
       d="M 372.613,161.785 H 57.7773 L 5.03516,112.012 H 319.77 Z"
       style="fill:none;stroke:#ffffff;stroke-width:3.99994;stroke-linecap:butt;stroke-linejoin:miter;stroke-miterlimit:4;stroke-dasharray:none;stroke-opacity:1"
       transform="matrix(0.13333333,0,0,-0.13333333,0,45.253333)" />
    <path
       id="path15"
       d="M 61.332,141.191 H 278.336 V 300.39 H 61.332 Z"
       style="fill:#02709f;fill-opacity:1;fill-rule:nonzero;stroke:none"
       transform="matrix(0.13333333,0,0,-0.13333333,0,45.253333)" />
    <path
       id="path16"
       d="m 278.336,141.191 v 159.2 H 61.332 v -159.2 z"
       style="fill:none;stroke:#ffffff;stroke-width:3.99994;stroke-linecap:butt;stroke-linejoin:miter;stroke-miterlimit:4;stroke-dasharray:none;stroke-opacity:1"
       transform="matrix(0.13333333,0,0,-0.13333333,0,45.253333)" />
    <path
       id="path17"
       d="m 79.6641,265.449 c 0,15.969 16.5507,18.332 16.5507,18.332 0,0 127.7262,0 143.0982,0 20.105,0 19.511,-18.918 19.511,-18.918 0,0 0,-78.054 0,-89.297 0,-11.23 -15.371,-15.957 -15.371,-15.957 0,0 -130.676,0 -144.8749,0 -14.1875,0 -18.914,14.786 -18.914,14.786 v 91.054"
       style="fill:#02709f;fill-opacity:1;fill-rule:nonzero;stroke:none"
       transform="matrix(0.13333333,0,0,-0.13333333,0,45.253333)" />
    <path
       id="path18"
       d="m 79.6641,265.449 c 0,15.969 16.5507,18.332 16.5507,18.332 0,0 127.7262,0 143.0982,0 20.105,0 19.511,-18.918 19.511,-18.918 0,0 0,-78.054 0,-89.297 0,-11.23 -15.371,-15.957 -15.371,-15.957 0,0 -130.676,0 -144.8749,0 -14.1875,0 -18.914,14.786 -18.914,14.786 z"
       style="fill:none;stroke:#ffffff;stroke-width:3.99994;stroke-linecap:butt;stroke-linejoin:miter;stroke-miterlimit:4;stroke-dasharray:none;stroke-opacity:1"
       transform="matrix(0.13333333,0,0,-0.13333333,0,45.253333)" />
    <path
       id="path19"
       d="M 314.703,334.629 H 97.6914 L 61.332,300.391 h 217.004 l 36.367,34.238"
       style="fill:#02709f;fill-opacity:1;fill-rule:nonzero;stroke:none"
       transform="matrix(0.13333333,0,0,-0.13333333,0,45.253333)" />
    <path
       id="path20"
       d="M 314.703,334.629 H 97.6914 L 61.332,300.391 h 217.004 z"
       style="fill:none;stroke:#ffffff;stroke-width:3.99994;stroke-linecap:butt;stroke-linejoin:miter;stroke-miterlimit:4;stroke-dasharray:none;stroke-opacity:1"
       transform="matrix(0.13333333,0,0,-0.13333333,0,45.253333)" />
    <path
       id="path21"
       d="m 314.711,175.078 v 159.629 l -36.016,-34.316 v -159.2 l 36.016,33.887"
       style="fill:#02709f;fill-opacity:1;fill-rule:nonzero;stroke:none"
       transform="matrix(0.13333333,0,0,-0.13333333,0,45.253333)" />
    <path
       id="path22"
       d="m 314.711,175.078 v 159.629 l -36.016,-34.316 v -159.2 z"
       style="fill:none;stroke:#ffffff;stroke-width:3.99994;stroke-linecap:butt;stroke-linejoin:miter;stroke-miterlimit:4;stroke-dasharray:none;stroke-opacity:1"
       transform="matrix(0.13333333,0,0,-0.13333333,0,45.253333)" />
  </g>
</svg>
