<?xml version="1.0" encoding="UTF-8" standalone="no"?>
<!-- Created with Inkscape (http://www.inkscape.org/) -->

<svg
   version="1.1"
   id="svg1"
   width="76.933334"
   height="48.786667"
   viewBox="0 0 76.933334 48.786667"
   sodipodi:docname="pmc.eps"
   xmlns:inkscape="http://www.inkscape.org/namespaces/inkscape"
   xmlns:sodipodi="http://sodipodi.sourceforge.net/DTD/sodipodi-0.dtd"
   xmlns="http://www.w3.org/2000/svg"
   xmlns:svg="http://www.w3.org/2000/svg">
  <defs
     id="defs1" />
  <sodipodi:namedview
     id="namedview1"
     pagecolor="#505050"
     bordercolor="#eeeeee"
     borderopacity="1"
     inkscape:showpageshadow="0"
     inkscape:pageopacity="0"
     inkscape:pagecheckerboard="0"
     inkscape:deskcolor="#d1d1d1">
    <inkscape:page
       x="0"
       y="0"
       inkscape:label="1"
       id="page1"
       width="76.933334"
       height="48.786667"
       margin="0"
       bleed="0" />
  </sodipodi:namedview>
  <g
     id="g1"
     inkscape:groupmode="layer"
     inkscape:label="1">
    <path
       id="path1"
       d="m 529.473,133.828 34.941,183.606 H 297.988 L 258.754,133.828 h 270.719"
       style="fill:#087fbf;fill-opacity:1;fill-rule:nonzero;stroke:none"
       transform="matrix(0.13333333,0,0,-0.13333333,0,48.786667)" />
    <path
       id="path2"
       d="m 529.473,133.828 34.941,183.606 H 297.988 L 258.754,133.828 Z"
       style="fill:none;stroke:#ffffff;stroke-width:4;stroke-linecap:butt;stroke-linejoin:miter;stroke-miterlimit:4;stroke-dasharray:none;stroke-opacity:1"
       transform="matrix(0.13333333,0,0,-0.13333333,0,48.786667)" />
    <path
       id="path3"
       d="m 564.414,317.434 10.41,-13.477 -32.48,-178.086 -12.871,7.957 34.941,183.606"
       style="fill:#087fbf;fill-opacity:1;fill-rule:nonzero;stroke:none"
       transform="matrix(0.13333333,0,0,-0.13333333,0,48.786667)" />
    <path
       id="path4"
       d="m 564.414,317.434 10.41,-13.477 -32.48,-178.086 -12.871,7.957 z"
       style="fill:none;stroke:#ffffff;stroke-width:4;stroke-linecap:butt;stroke-linejoin:miter;stroke-miterlimit:4;stroke-dasharray:none;stroke-opacity:1"
       transform="matrix(0.13333333,0,0,-0.13333333,0,48.786667)" />
    <path
       id="path5"
       d="m 258.754,133.828 11.641,-7.957 h 271.949 l -12.871,7.957 H 258.754"
       style="fill:#087fbf;fill-opacity:1;fill-rule:nonzero;stroke:none"
       transform="matrix(0.13333333,0,0,-0.13333333,0,48.786667)" />
    <path
       id="path6"
       d="m 258.754,133.828 11.641,-7.957 h 271.949 l -12.871,7.957 z"
       style="fill:none;stroke:#ffffff;stroke-width:4;stroke-linecap:butt;stroke-linejoin:miter;stroke-miterlimit:4;stroke-dasharray:none;stroke-opacity:1"
       transform="matrix(0.13333333,0,0,-0.13333333,0,48.786667)" />
    <path
       id="path7"
       d="M 531.934,121.27 V 94.0234 l -7.051,-6.1328 c 0,0 -16.543,-4.8906 -12.871,-14.6875 L 438.223,4.58984 V 34.6094 l 93.711,86.6606"
       style="fill:#087fbf;fill-opacity:1;fill-rule:nonzero;stroke:none"
       transform="matrix(0.13333333,0,0,-0.13333333,0,48.786667)" />
    <path
       id="path8"
       d="M 531.934,121.27 V 94.0234 l -7.051,-6.1328 c 0,0 -16.543,-4.8906 -12.871,-14.6875 L 438.223,4.58984 V 34.6094 Z"
       style="fill:none;stroke:#ffffff;stroke-width:4;stroke-linecap:butt;stroke-linejoin:miter;stroke-miterlimit:4;stroke-dasharray:none;stroke-opacity:1"
       transform="matrix(0.13333333,0,0,-0.13333333,0,48.786667)" />
    <path
       id="path9"
       d="m 144.535,4.58984 h 293.688 v 30.0195 H 144.535 Z"
       style="fill:#087fbf;fill-opacity:1;fill-rule:nonzero;stroke:none"
       transform="matrix(0.13333333,0,0,-0.13333333,0,48.786667)" />
    <path
       id="path10"
       d="M 144.535,34.6094 V 4.58984 H 438.223 V 34.6094 H 144.535"
       style="fill:none;stroke:#ffffff;stroke-width:4;stroke-linecap:butt;stroke-linejoin:miter;stroke-miterlimit:4;stroke-dasharray:none;stroke-opacity:1"
       transform="matrix(0.13333333,0,0,-0.13333333,0,48.786667)" />
    <path
       id="path11"
       d="M 261.82,119.434 531.934,121.27 438.223,34.6094 H 144.535 L 261.82,119.434"
       style="fill:#087fbf;fill-opacity:1;fill-rule:nonzero;stroke:none"
       transform="matrix(0.13333333,0,0,-0.13333333,0,48.786667)" />
    <path
       id="path12"
       d="M 261.82,119.434 531.934,121.27 438.223,34.6094 H 144.535 Z"
       style="fill:none;stroke:#ffffff;stroke-width:4;stroke-linecap:butt;stroke-linejoin:miter;stroke-miterlimit:4;stroke-dasharray:none;stroke-opacity:1"
       transform="matrix(0.13333333,0,0,-0.13333333,0,48.786667)" />
    <path
       id="path13"
       d="m 506.875,151.719 27.891,143.789 H 318.125 L 290.234,151.719 h 216.641"
       style="fill:#087fbf;fill-opacity:1;fill-rule:nonzero;stroke:none"
       transform="matrix(0.13333333,0,0,-0.13333333,0,48.786667)" />
    <path
       id="path14"
       d="m 506.875,151.719 27.891,143.789 H 318.125 L 290.234,151.719 Z"
       style="fill:none;stroke:#ffffff;stroke-width:4;stroke-linecap:butt;stroke-linejoin:miter;stroke-miterlimit:4;stroke-dasharray:none;stroke-opacity:1"
       transform="matrix(0.13333333,0,0,-0.13333333,0,48.786667)" />
    <path
       id="path15"
       d="M 268.168,117.52 200.043,62.5117"
       style="fill:none;stroke:#ffffff;stroke-width:1;stroke-linecap:butt;stroke-linejoin:round;stroke-miterlimit:4;stroke-dasharray:none;stroke-opacity:1"
       transform="matrix(0.13333333,0,0,-0.13333333,0,48.786667)" />
    <path
       id="path16"
       d="M 290.039,117.52 221.918,62.5117"
       style="fill:none;stroke:#ffffff;stroke-width:1;stroke-linecap:butt;stroke-linejoin:round;stroke-miterlimit:4;stroke-dasharray:none;stroke-opacity:1"
       transform="matrix(0.13333333,0,0,-0.13333333,0,48.786667)" />
    <path
       id="path17"
       d="M 311.914,117.52 243.793,62.5117"
       style="fill:none;stroke:#ffffff;stroke-width:1;stroke-linecap:butt;stroke-linejoin:round;stroke-miterlimit:4;stroke-dasharray:none;stroke-opacity:1"
       transform="matrix(0.13333333,0,0,-0.13333333,0,48.786667)" />
    <path
       id="path18"
       d="M 333.789,117.52 265.668,62.5117"
       style="fill:none;stroke:#ffffff;stroke-width:1;stroke-linecap:butt;stroke-linejoin:round;stroke-miterlimit:4;stroke-dasharray:none;stroke-opacity:1"
       transform="matrix(0.13333333,0,0,-0.13333333,0,48.786667)" />
    <path
       id="path19"
       d="M 355.664,117.52 287.539,62.5117"
       style="fill:none;stroke:#ffffff;stroke-width:1;stroke-linecap:butt;stroke-linejoin:round;stroke-miterlimit:4;stroke-dasharray:none;stroke-opacity:1"
       transform="matrix(0.13333333,0,0,-0.13333333,0,48.786667)" />
    <path
       id="path20"
       d="M 377.539,117.52 309.414,62.5117"
       style="fill:none;stroke:#ffffff;stroke-width:1;stroke-linecap:butt;stroke-linejoin:round;stroke-miterlimit:4;stroke-dasharray:none;stroke-opacity:1"
       transform="matrix(0.13333333,0,0,-0.13333333,0,48.786667)" />
    <path
       id="path21"
       d="M 399.414,117.52 331.289,62.5117"
       style="fill:none;stroke:#ffffff;stroke-width:1;stroke-linecap:butt;stroke-linejoin:round;stroke-miterlimit:4;stroke-dasharray:none;stroke-opacity:1"
       transform="matrix(0.13333333,0,0,-0.13333333,0,48.786667)" />
    <path
       id="path22"
       d="M 421.289,117.52 353.164,62.5117"
       style="fill:none;stroke:#ffffff;stroke-width:1;stroke-linecap:butt;stroke-linejoin:round;stroke-miterlimit:4;stroke-dasharray:none;stroke-opacity:1"
       transform="matrix(0.13333333,0,0,-0.13333333,0,48.786667)" />
    <path
       id="path23"
       d="M 443.164,117.52 375.039,62.5117"
       style="fill:none;stroke:#ffffff;stroke-width:1;stroke-linecap:butt;stroke-linejoin:round;stroke-miterlimit:4;stroke-dasharray:none;stroke-opacity:1"
       transform="matrix(0.13333333,0,0,-0.13333333,0,48.786667)" />
    <path
       id="path24"
       d="M 465.039,117.52 396.914,62.5117"
       style="fill:none;stroke:#ffffff;stroke-width:1;stroke-linecap:butt;stroke-linejoin:round;stroke-miterlimit:4;stroke-dasharray:none;stroke-opacity:1"
       transform="matrix(0.13333333,0,0,-0.13333333,0,48.786667)" />
    <path
       id="path25"
       d="M 486.914,117.52 418.789,62.5117"
       style="fill:none;stroke:#ffffff;stroke-width:1;stroke-linecap:butt;stroke-linejoin:round;stroke-miterlimit:4;stroke-dasharray:none;stroke-opacity:1"
       transform="matrix(0.13333333,0,0,-0.13333333,0,48.786667)" />
    <path
       id="path26"
       d="M 508.789,117.52 440.664,62.5117"
       style="fill:none;stroke:#ffffff;stroke-width:1;stroke-linecap:butt;stroke-linejoin:round;stroke-miterlimit:4;stroke-dasharray:none;stroke-opacity:1"
       transform="matrix(0.13333333,0,0,-0.13333333,0,48.786667)" />
    <path
       id="path27"
       d="M 207.66,68.3125 H 450.176"
       style="fill:none;stroke:#ffffff;stroke-width:1;stroke-linecap:butt;stroke-linejoin:round;stroke-miterlimit:4;stroke-dasharray:none;stroke-opacity:1"
       transform="matrix(0.13333333,0,0,-0.13333333,0,48.786667)" />
    <path
       id="path28"
       d="M 223.969,80.918 H 462.734"
       style="fill:none;stroke:#ffffff;stroke-width:1;stroke-linecap:butt;stroke-linejoin:round;stroke-miterlimit:4;stroke-dasharray:none;stroke-opacity:1"
       transform="matrix(0.13333333,0,0,-0.13333333,0,48.786667)" />
    <path
       id="path29"
       d="m 240.883,93.5156 h 238.14"
       style="fill:none;stroke:#ffffff;stroke-width:1;stroke-linecap:butt;stroke-linejoin:round;stroke-miterlimit:4;stroke-dasharray:none;stroke-opacity:1"
       transform="matrix(0.13333333,0,0,-0.13333333,0,48.786667)" />
    <path
       id="path30"
       d="M 255.941,106.133 H 495.957"
       style="fill:none;stroke:#ffffff;stroke-width:1;stroke-linecap:butt;stroke-linejoin:round;stroke-miterlimit:4;stroke-dasharray:none;stroke-opacity:1"
       transform="matrix(0.13333333,0,0,-0.13333333,0,48.786667)" />
    <path
       id="path31"
       d="m 427.949,259.777 c 17.735,-15.019 38.711,-38.964 39.649,-53.711 0.957,-14.746 -6.621,-18.515 -13.008,-23.125 -6.406,-4.601 -19.043,-5.234 -19.043,-5.234 l -13.906,16.797 c 0,0 28.593,3.125 24.101,19.473 -4.512,16.328 -35.508,60.82 -17.793,45.8"
       style="fill:#ffffff;fill-opacity:1;fill-rule:nonzero;stroke:none"
       transform="matrix(0.13333333,0,0,-0.13333333,0,48.786667)" />
    <path
       id="path32"
       d="m 432.148,215.422 14.493,-54.082 -34.278,19.805 z"
       style="fill:#ffffff;fill-opacity:1;fill-rule:nonzero;stroke:none"
       transform="matrix(0.13333333,0,0,-0.13333333,0,48.786667)" />
    <path
       id="path33"
       d="m 394.551,177.688 c -17.715,15.019 -38.692,38.953 -39.649,53.71 -0.937,14.735 6.621,18.516 13.028,23.114 6.386,4.601 19.023,5.234 19.023,5.234 l 13.926,-16.797 c 0,0 -28.594,-3.125 -24.102,-19.461 4.512,-16.34 35.489,-60.82 17.774,-45.8"
       style="fill:#ffffff;fill-opacity:1;fill-rule:nonzero;stroke:none"
       transform="matrix(0.13333333,0,0,-0.13333333,0,48.786667)" />
    <path
       id="path34"
       d="m 391.113,221.27 -14.492,54.074 34.297,-19.785 z"
       style="fill:#ffffff;fill-opacity:1;fill-rule:nonzero;stroke:none"
       transform="matrix(0.13333333,0,0,-0.13333333,0,48.786667)" />
    <path
       id="path35"
       d="m 421.836,321.68 c 11.894,0 21.543,9.648 21.543,21.543 0,11.894 -9.649,21.535 -21.543,21.535 -11.895,0 -21.543,-9.641 -21.543,-21.535 0,-11.895 9.648,-21.543 21.543,-21.543"
       style="fill:#087fbf;fill-opacity:1;fill-rule:nonzero;stroke:none"
       transform="matrix(0.13333333,0,0,-0.13333333,0,48.786667)" />
    <path
       id="path36"
       d="m 421.836,321.68 c 11.894,0 21.543,9.648 21.543,21.543 0,11.894 -9.649,21.535 -21.543,21.535 -11.895,0 -21.543,-9.641 -21.543,-21.535 0,-11.895 9.648,-21.543 21.543,-21.543 z"
       style="fill:none;stroke:#ffffff;stroke-width:2.56;stroke-linecap:butt;stroke-linejoin:miter;stroke-miterlimit:4;stroke-dasharray:none;stroke-opacity:1"
       transform="matrix(0.13333333,0,0,-0.13333333,0,48.786667)" />
    <path
       id="path37"
       d="m 390.637,310.527 5.574,33.34 c 0,-14.277 11.562,-25.847 25.84,-25.847 14.277,0 25.847,11.57 25.847,25.847 l 5.254,-33.379 -62.515,0.039"
       style="fill:#087fbf;fill-opacity:1;fill-rule:nonzero;stroke:none"
       transform="matrix(0.13333333,0,0,-0.13333333,0,48.786667)" />
    <path
       id="path38"
       d="m 436.445,337.609 v 9.786 H 407.07 v -9.786 h 29.375"
       style="fill:#ffffff;fill-opacity:1;fill-rule:nonzero;stroke:none"
       transform="matrix(0.13333333,0,0,-0.13333333,0,48.786667)" />
    <path
       id="path39"
       d="m 29.6953,72.5977 c 2.4727,-5.625 -0.082,-12.1758 -5.7265,-14.6485 -5.6133,-2.4687 -12.1875,0.0781 -14.65239,5.7031 -2.46485,5.625 0.10156,12.1875 5.72269,14.6485 5.6406,2.4805 12.1914,-0.0781 14.6562,-5.7031"
       style="fill:#231f20;fill-opacity:1;fill-rule:nonzero;stroke:none"
       transform="matrix(0.13333333,0,0,-0.13333333,0,48.786667)" />
    <path
       id="path40"
       d="m 29.6953,72.5977 c 2.4727,-5.625 -0.082,-12.1758 -5.7265,-14.6485 -5.6133,-2.4687 -12.1875,0.0781 -14.65239,5.7031 -2.46485,5.625 0.10156,12.1875 5.72269,14.6485 5.6406,2.4805 12.1914,-0.0781 14.6562,-5.7031 z"
       style="fill:none;stroke:#ffffff;stroke-width:20;stroke-linecap:butt;stroke-linejoin:miter;stroke-miterlimit:4;stroke-dasharray:none;stroke-opacity:1"
       transform="matrix(0.13333333,0,0,-0.13333333,0,48.786667)" />
    <path
       id="path41"
       d="M 216.016,134.082 C 189.656,109.727 133.746,82.0313 83.8008,69.4141 50.875,61.0742 27.9648,61.1914 19.5195,68.1367"
       style="fill:none;stroke:#ffffff;stroke-width:20;stroke-linecap:butt;stroke-linejoin:round;stroke-miterlimit:4;stroke-dasharray:none;stroke-opacity:1"
       transform="matrix(0.13333333,0,0,-0.13333333,0,48.786667)" />
    <path
       id="path42"
       d="m 73.1836,133.262 c -0.3008,19.433 4.9102,41.582 16.0898,63.664 27.7066,54.785 81.5706,88.418 120.2966,75.117 38.731,-13.293 47.676,-68.469 19.961,-123.242 -2.621,-5.207 -5.484,-10.207 -8.551,-14.992"
       style="fill:none;stroke:#ffffff;stroke-width:20;stroke-linecap:butt;stroke-linejoin:round;stroke-miterlimit:4;stroke-dasharray:none;stroke-opacity:1"
       transform="matrix(0.13333333,0,0,-0.13333333,0,48.786667)" />
    <path
       id="path43"
       d="m 238.563,141.523 c 4.269,-9.714 -0.161,-21.023 -9.872,-25.293 -9.703,-4.246 -21.023,0.157 -25.289,9.875 -4.261,9.715 0.168,21.043 9.868,25.293 9.714,4.266 21.035,-0.156 25.293,-9.875"
       style="fill:#231f20;fill-opacity:1;fill-rule:nonzero;stroke:none"
       transform="matrix(0.13333333,0,0,-0.13333333,0,48.786667)" />
    <path
       id="path44"
       d="m 238.563,141.523 c 4.269,-9.714 -0.161,-21.023 -9.872,-25.293 -9.703,-4.246 -21.023,0.157 -25.289,9.875 -4.261,9.715 0.168,21.043 9.868,25.293 9.714,4.266 21.035,-0.156 25.293,-9.875 z"
       style="fill:none;stroke:#ffffff;stroke-width:20;stroke-linecap:butt;stroke-linejoin:miter;stroke-miterlimit:4;stroke-dasharray:none;stroke-opacity:1"
       transform="matrix(0.13333333,0,0,-0.13333333,0,48.786667)" />
    <path
       id="path45"
       d="m 83.1406,137.754 c 2.461,-5.625 -0.1093,-12.188 -5.7226,-14.649 -5.625,-2.468 -12.1797,0.098 -14.6446,5.715 -2.4648,5.614 0.086,12.176 5.711,14.649 5.6172,2.461 12.1914,-0.098 14.6562,-5.715"
       style="fill:#231f20;fill-opacity:1;fill-rule:nonzero;stroke:none"
       transform="matrix(0.13333333,0,0,-0.13333333,0,48.786667)" />
    <path
       id="path46"
       d="m 83.1406,137.754 c 2.461,-5.625 -0.1093,-12.188 -5.7226,-14.649 -5.625,-2.468 -12.1797,0.098 -14.6446,5.715 -2.4648,5.614 0.086,12.176 5.711,14.649 5.6172,2.461 12.1914,-0.098 14.6562,-5.715 z"
       style="fill:none;stroke:#ffffff;stroke-width:20;stroke-linecap:butt;stroke-linejoin:miter;stroke-miterlimit:4;stroke-dasharray:none;stroke-opacity:1"
       transform="matrix(0.13333333,0,0,-0.13333333,0,48.786667)" />
    <path
       id="path47"
       d="m 29.6953,72.5977 c 2.4727,-5.625 -0.082,-12.1758 -5.7265,-14.6485 -5.6133,-2.4687 -12.1875,0.0781 -14.65239,5.7031 -2.46485,5.625 0.10156,12.1875 5.72269,14.6485 5.6406,2.4805 12.1914,-0.0781 14.6562,-5.7031"
       style="fill:#231f20;fill-opacity:1;fill-rule:nonzero;stroke:none"
       transform="matrix(0.13333333,0,0,-0.13333333,0,48.786667)" />
    <path
       id="path48"
       d="M 216.016,134.082 C 189.656,109.727 133.746,82.0313 83.8008,69.4141 50.875,61.0742 27.9648,61.1914 19.5195,68.1367"
       style="fill:none;stroke:#000000;stroke-width:4;stroke-linecap:butt;stroke-linejoin:round;stroke-miterlimit:4;stroke-dasharray:none;stroke-opacity:1"
       transform="matrix(0.13333333,0,0,-0.13333333,0,48.786667)" />
    <path
       id="path49"
       d="m 73.1836,133.262 c -0.3008,19.433 4.9102,41.582 16.0898,63.664 27.7066,54.785 81.5706,88.418 120.2966,75.117 38.731,-13.293 47.676,-68.469 19.961,-123.242 -2.621,-5.207 -5.484,-10.207 -8.551,-14.992"
       style="fill:none;stroke:#000000;stroke-width:10;stroke-linecap:butt;stroke-linejoin:round;stroke-miterlimit:4;stroke-dasharray:none;stroke-opacity:1"
       transform="matrix(0.13333333,0,0,-0.13333333,0,48.786667)" />
    <path
       id="path50"
       d="m 238.563,141.523 c 4.269,-9.714 -0.161,-21.023 -9.872,-25.293 -9.703,-4.246 -21.023,0.157 -25.289,9.875 -4.261,9.715 0.168,21.043 9.868,25.293 9.714,4.266 21.035,-0.156 25.293,-9.875"
       style="fill:#231f20;fill-opacity:1;fill-rule:nonzero;stroke:none"
       transform="matrix(0.13333333,0,0,-0.13333333,0,48.786667)" />
    <path
       id="path51"
       d="m 238.563,141.523 c 4.269,-9.714 -0.161,-21.023 -9.872,-25.293 -9.703,-4.246 -21.023,0.157 -25.289,9.875 -4.261,9.715 0.168,21.043 9.868,25.293 9.714,4.266 21.035,-0.156 25.293,-9.875 z"
       style="fill:none;stroke:#ffffff;stroke-width:4;stroke-linecap:butt;stroke-linejoin:miter;stroke-miterlimit:4;stroke-dasharray:none;stroke-opacity:1"
       transform="matrix(0.13333333,0,0,-0.13333333,0,48.786667)" />
    <path
       id="path52"
       d="m 83.1406,137.754 c 2.461,-5.625 -0.1093,-12.188 -5.7226,-14.649 -5.625,-2.468 -12.1797,0.098 -14.6446,5.715 -2.4648,5.614 0.086,12.176 5.711,14.649 5.6172,2.461 12.1914,-0.098 14.6562,-5.715"
       style="fill:#231f20;fill-opacity:1;fill-rule:nonzero;stroke:none"
       transform="matrix(0.13333333,0,0,-0.13333333,0,48.786667)" />
  </g>
</svg>
