<?xml version="1.0" encoding="UTF-8" standalone="no"?>
<!-- Created with Inkscape (http://www.inkscape.org/) -->

<svg
   version="1.1"
   id="svg1"
   width="46.68"
   height="36.919998"
   viewBox="0 0 46.68 36.919998"
   sodipodi:docname="ratemux.eps"
   xmlns:inkscape="http://www.inkscape.org/namespaces/inkscape"
   xmlns:sodipodi="http://sodipodi.sourceforge.net/DTD/sodipodi-0.dtd"
   xmlns="http://www.w3.org/2000/svg"
   xmlns:svg="http://www.w3.org/2000/svg">
  <defs
     id="defs1" />
  <sodipodi:namedview
     id="namedview1"
     pagecolor="#505050"
     bordercolor="#eeeeee"
     borderopacity="1"
     inkscape:showpageshadow="0"
     inkscape:pageopacity="0"
     inkscape:pagecheckerboard="0"
     inkscape:deskcolor="#d1d1d1">
    <inkscape:page
       x="0"
       y="0"
       inkscape:label="1"
       id="page1"
       width="46.68"
       height="36.919998"
       margin="0"
       bleed="0" />
  </sodipodi:namedview>
  <g
     id="g1"
     inkscape:groupmode="layer"
     inkscape:label="1">
    <path
       id="path1"
       d="m 299.922,224.238 46.953,46.66 v 0.262 H 54.9883 L 5.05078,224.238 H 299.922"
       style="fill:#026c9b;fill-opacity:1;fill-rule:nonzero;stroke:none"
       transform="matrix(0.13333333,0,0,-0.13333333,0,36.92)" />
    <path
       id="path2"
       d="m 299.922,224.238 46.953,46.66 v 0.262 H 54.9883 L 5.05078,224.238 Z"
       style="fill:none;stroke:#ffffff;stroke-width:4;stroke-linecap:butt;stroke-linejoin:miter;stroke-miterlimit:4;stroke-dasharray:none;stroke-opacity:1"
       transform="matrix(0.13333333,0,0,-0.13333333,0,36.92)" />
    <path
       id="path3"
       d="M 301.492,4.82422 301.277,225.477 6.14453,225.906 V 4.82422 H 301.492"
       style="fill:#026c9b;fill-opacity:1;fill-rule:nonzero;stroke:none"
       transform="matrix(0.13333333,0,0,-0.13333333,0,36.92)" />
    <path
       id="path4"
       d="M 301.492,4.82422 301.277,225.477 6.14453,225.906 V 4.82422 Z"
       style="fill:none;stroke:#ffffff;stroke-width:4;stroke-linecap:butt;stroke-linejoin:miter;stroke-miterlimit:4;stroke-dasharray:none;stroke-opacity:1"
       transform="matrix(0.13333333,0,0,-0.13333333,0,36.92)" />
    <path
       id="path5"
       d="M 348.074,51.4141 348.047,272.129 301.277,225.477 301.492,4.82422 348.074,51.4141"
       style="fill:#026c9b;fill-opacity:1;fill-rule:nonzero;stroke:#ffffff;stroke-width:4;stroke-linecap:butt;stroke-linejoin:miter;stroke-miterlimit:4;stroke-dasharray:none;stroke-opacity:1"
       transform="matrix(0.13333333,0,0,-0.13333333,0,36.92)" />
    <path
       id="path6"
       d="M 111.328,6.95313 V 225.906"
       style="fill:none;stroke:#ffffff;stroke-width:1.6;stroke-linecap:butt;stroke-linejoin:miter;stroke-miterlimit:4;stroke-dasharray:none;stroke-opacity:1"
       transform="matrix(0.13333333,0,0,-0.13333333,0,36.92)" />
    <path
       id="path7"
       d="M 197.07,6.67188 V 225.906"
       style="fill:none;stroke:#ffffff;stroke-width:1.6;stroke-linecap:butt;stroke-linejoin:miter;stroke-miterlimit:4;stroke-dasharray:none;stroke-opacity:1"
       transform="matrix(0.13333333,0,0,-0.13333333,0,36.92)" />
    <path
       id="path8"
       d="m 166.426,201.316 h -49.16"
       style="fill:#000000;fill-opacity:1;fill-rule:nonzero;stroke:#ffffff;stroke-width:10;stroke-linecap:butt;stroke-linejoin:miter;stroke-miterlimit:4;stroke-dasharray:none;stroke-opacity:1"
       transform="matrix(0.13333333,0,0,-0.13333333,0,36.92)" />
    <path
       id="path9"
       d="m 187.266,201.316 -28.477,-11.628 6.758,11.628 -6.758,11.633 28.477,-11.633"
       style="fill:#ffffff;fill-opacity:1;fill-rule:nonzero;stroke:none"
       transform="matrix(0.13333333,0,0,-0.13333333,0,36.92)" />
    <path
       id="path10"
       d="m 166.426,159.59 h -49.16"
       style="fill:#000000;fill-opacity:1;fill-rule:nonzero;stroke:#ffffff;stroke-width:10;stroke-linecap:butt;stroke-linejoin:miter;stroke-miterlimit:4;stroke-dasharray:none;stroke-opacity:1"
       transform="matrix(0.13333333,0,0,-0.13333333,0,36.92)" />
    <path
       id="path11"
       d="m 187.266,159.59 -28.477,-11.641 6.758,11.641 -6.758,11.621 28.477,-11.621"
       style="fill:#ffffff;fill-opacity:1;fill-rule:nonzero;stroke:none"
       transform="matrix(0.13333333,0,0,-0.13333333,0,36.92)" />
    <path
       id="path12"
       d="m 166.426,117.859 h -49.16"
       style="fill:#000000;fill-opacity:1;fill-rule:nonzero;stroke:#ffffff;stroke-width:10;stroke-linecap:butt;stroke-linejoin:miter;stroke-miterlimit:4;stroke-dasharray:none;stroke-opacity:1"
       transform="matrix(0.13333333,0,0,-0.13333333,0,36.92)" />
    <path
       id="path13"
       d="m 187.266,117.859 -28.477,-11.629 6.758,11.629 -6.758,11.633 28.477,-11.633"
       style="fill:#ffffff;fill-opacity:1;fill-rule:nonzero;stroke:none"
       transform="matrix(0.13333333,0,0,-0.13333333,0,36.92)" />
    <path
       id="path14"
       d="m 166.426,76.1328 h -49.16"
       style="fill:#000000;fill-opacity:1;fill-rule:nonzero;stroke:#ffffff;stroke-width:10;stroke-linecap:butt;stroke-linejoin:miter;stroke-miterlimit:4;stroke-dasharray:none;stroke-opacity:1"
       transform="matrix(0.13333333,0,0,-0.13333333,0,36.92)" />
    <path
       id="path15"
       d="m 187.266,76.1328 -28.477,-11.6289 6.758,11.6289 -6.758,11.6289 28.477,-11.6289"
       style="fill:#ffffff;fill-opacity:1;fill-rule:nonzero;stroke:none"
       transform="matrix(0.13333333,0,0,-0.13333333,0,36.92)" />
    <path
       id="path16"
       d="M 169.883,29.4727 H 117.266"
       style="fill:none;stroke:#ffffff;stroke-width:10;stroke-linecap:butt;stroke-linejoin:miter;stroke-miterlimit:4;stroke-dasharray:none;stroke-opacity:1"
       transform="matrix(0.13333333,0,0,-0.13333333,0,36.92)" />
    <path
       id="path17"
       d="m 187.266,29.4727 -28.477,-11.6407 6.758,11.6407 -6.758,11.6211 28.477,-11.6211"
       style="fill:#ffffff;fill-opacity:1;fill-rule:nonzero;stroke:none"
       transform="matrix(0.13333333,0,0,-0.13333333,0,36.92)" />
    <path
       id="path18"
       d="M 8.66406,164.426 H 72.9688 l -0.254,-7.406 29.7852,20.636 -29.7852,20.633 0.254,-7.402 H 8.66406 v -26.461"
       style="fill:#ffffff;fill-opacity:1;fill-rule:nonzero;stroke:none"
       transform="matrix(0.13333333,0,0,-0.13333333,0,36.92)" />
    <path
       id="path19"
       d="M 8.66406,103.75 H 72.9688 l -0.254,-7.4023 29.7852,20.6443 -29.7852,20.625 0.254,-7.402 H 8.66406 V 103.75"
       style="fill:#ffffff;fill-opacity:1;fill-rule:nonzero;stroke:none"
       transform="matrix(0.13333333,0,0,-0.13333333,0,36.92)" />
    <path
       id="path20"
       d="m 202.324,127.605 h 64.309 l -0.246,-9.617 29.785,26.817 -29.785,26.836 0.246,-9.629 h -64.309 v -34.407"
       style="fill:#ffffff;fill-opacity:1;fill-rule:nonzero;stroke:none"
       transform="matrix(0.13333333,0,0,-0.13333333,0,36.92)" />
    <path
       id="path21"
       d="m 202.324,48.75 h 64.309 l -0.246,-9.6289 29.785,26.8164 -29.785,26.8359 0.246,-9.6289 H 202.324 V 48.75"
       style="fill:#ffffff;fill-opacity:1;fill-rule:nonzero;stroke:none"
       transform="matrix(0.13333333,0,0,-0.13333333,0,36.92)" />
    <path
       id="path22"
       d="M 8.66406,43.0859 H 72.9688 l -0.254,-7.4023 29.7852,20.6445 -29.7852,20.625 0.254,-7.4023 H 8.66406 V 43.0859"
       style="fill:#ffffff;fill-opacity:1;fill-rule:nonzero;stroke:none"
       transform="matrix(0.13333333,0,0,-0.13333333,0,36.92)" />
  </g>
</svg>
