<?xml version="1.0" encoding="UTF-8" standalone="no"?>
<!-- Created with Inkscape (http://www.inkscape.org/) -->

<svg
   version="1.1"
   id="svg1"
   width="51.066666"
   height="33.986668"
   viewBox="0 0 51.066666 33.986668"
   sodipodi:docname="rpsrps.eps"
   xmlns:inkscape="http://www.inkscape.org/namespaces/inkscape"
   xmlns:sodipodi="http://sodipodi.sourceforge.net/DTD/sodipodi-0.dtd"
   xmlns="http://www.w3.org/2000/svg"
   xmlns:svg="http://www.w3.org/2000/svg">
  <defs
     id="defs1">
    <clipPath
       clipPathUnits="userSpaceOnUse"
       id="clipPath2">
      <path
         d="M 0,4 V 255 H 380 V 4 Z"
         id="path2" />
    </clipPath>
    <clipPath
       clipPathUnits="userSpaceOnUse"
       id="clipPath4">
      <path
         d="M 0,4 V 255 H 380 V 4 Z"
         id="path4" />
    </clipPath>
    <clipPath
       clipPathUnits="userSpaceOnUse"
       id="clipPath6">
      <path
         d="M 0,4 V 255 H 380 V 4 Z"
         id="path6" />
    </clipPath>
    <clipPath
       clipPathUnits="userSpaceOnUse"
       id="clipPath8">
      <path
         d="M 0,4 V 255 H 380 V 4 Z"
         id="path8" />
    </clipPath>
    <clipPath
       clipPathUnits="userSpaceOnUse"
       id="clipPath10">
      <path
         d="M 0,4 V 255 H 380 V 4 Z"
         id="path10" />
    </clipPath>
    <clipPath
       clipPathUnits="userSpaceOnUse"
       id="clipPath12">
      <path
         d="M 0,4 V 255 H 380 V 4 Z"
         id="path12" />
    </clipPath>
    <clipPath
       clipPathUnits="userSpaceOnUse"
       id="clipPath14">
      <path
         d="M 0,4 V 255 H 380 V 4 Z"
         transform="matrix(0.1,0,0,-0.1,-10.0867,12.473)"
         id="path14" />
    </clipPath>
    <clipPath
       clipPathUnits="userSpaceOnUse"
       id="clipPath16">
      <path
         d="M 0,4 V 255 H 380 V 4 Z"
         id="path16" />
    </clipPath>
  </defs>
  <sodipodi:namedview
     id="namedview1"
     pagecolor="#505050"
     bordercolor="#eeeeee"
     borderopacity="1"
     inkscape:showpageshadow="0"
     inkscape:pageopacity="0"
     inkscape:pagecheckerboard="0"
     inkscape:deskcolor="#d1d1d1">
    <inkscape:page
       x="0"
       y="0"
       inkscape:label="1"
       id="page1"
       width="51.066666"
       height="33.986668"
       margin="0"
       bleed="0" />
  </sodipodi:namedview>
  <g
     id="g1"
     inkscape:groupmode="layer"
     inkscape:label="1">
    <path
       id="path1"
       d="m 5.65625,6.46484 h 333.16 v 194.516 h -333.16 z"
       style="fill:#036998;fill-opacity:1;fill-rule:nonzero;stroke:none"
       transform="matrix(0.13333333,0,0,-0.13333333,0,33.986667)"
       clip-path="url(#clipPath2)" />
    <path
       id="path3"
       d="M 5.65625,6.46484 H 338.816 V 200.98 H 5.65625 Z"
       style="fill:none;stroke:#ffffff;stroke-width:3.99994;stroke-linecap:butt;stroke-linejoin:miter;stroke-miterlimit:4;stroke-dasharray:none;stroke-opacity:1"
       transform="matrix(0.13333333,0,0,-0.13333333,0,33.986667)"
       clip-path="url(#clipPath4)" />
    <path
       id="path5"
       d="M 378.723,64.8281 338.816,6.46484 V 200.98 l 39.907,48.379 V 64.8281"
       style="fill:#036998;fill-opacity:1;fill-rule:nonzero;stroke:none"
       transform="matrix(0.13333333,0,0,-0.13333333,0,33.986667)"
       clip-path="url(#clipPath6)" />
    <path
       id="path7"
       d="M 378.723,64.8281 338.816,6.46484 V 200.98 l 39.907,48.379 z"
       style="fill:none;stroke:#ffffff;stroke-width:3.99994;stroke-linecap:butt;stroke-linejoin:miter;stroke-miterlimit:4;stroke-dasharray:none;stroke-opacity:1"
       transform="matrix(0.13333333,0,0,-0.13333333,0,33.986667)"
       clip-path="url(#clipPath8)" />
    <path
       id="path9"
       d="M 65.5078,249.359 H 378.723 L 338.816,200.98 H 5.65625 l 59.85155,48.379"
       style="fill:#036998;fill-opacity:1;fill-rule:nonzero;stroke:none"
       transform="matrix(0.13333333,0,0,-0.13333333,0,33.986667)"
       clip-path="url(#clipPath10)" />
    <path
       id="path11"
       d="M 65.5078,249.359 H 378.723 L 338.816,200.98 H 5.65625 Z"
       style="fill:none;stroke:#ffffff;stroke-width:3.99994;stroke-linecap:butt;stroke-linejoin:miter;stroke-miterlimit:4;stroke-dasharray:none;stroke-opacity:1"
       transform="matrix(0.13333333,0,0,-0.13333333,0,33.986667)"
       clip-path="url(#clipPath12)" />
    <path
       id="path13"
       d="m 1.6056828,-2.0277422 h 1.2070313 c 0.4570312,0 0.65625,0.1875 0.65625,0.609375 v 0.2109375 c -0.011719,0.1289063 -0.011719,0.25781251 -0.011719,0.32812501 0,0.4921875 0.023437,0.6328125 0.1523438,0.8789062525 h 1.125 V -0.18789844 c -0.1640625,-0.09375 -0.2226563,-0.19921875 -0.2226563,-0.421875 -0.023437,-1.49999996 -0.058594,-1.57031246 -0.703125,-1.85156246 0.5742188,-0.2226563 0.8554688,-0.6328125 0.8554688,-1.265625 0,-0.3984375 -0.140625,-0.7734375 -0.3867188,-1.0195313 -0.222656,-0.2460937 -0.550781,-0.3515625 -0.9843748,-0.3515625 H 0.56271406 V -3.984375e-4 H 1.6056828 Z m 0,-0.8671875 v -1.3359375 h 1.265625 c 0.3046875,0 0.421875,0.035156 0.5625,0.140625 0.1171875,0.1054688 0.1875,0.28125 0.1875,0.515625 0,0.2460938 -0.070312,0.4453125 -0.1875,0.5390625 -0.1289062,0.1054688 -0.2578125,0.140625 -0.5625,0.140625 z m 5.0302734,1.078125 h 1.3125 c 0.9375001,0 1.5351563,-0.6679687 1.5351563,-1.6992187 0,-1.0195313 -0.5859375,-1.5820313 -1.640625,-1.5820313 H 5.5812687 v 5.0976562625 h 1.0546875 z m 0,-0.8789062 v -1.5351563 h 0.984375 c 0.5507813,0 0.8085938,0.2460938 0.8085938,0.7617188 0,0.5273437 -0.2578125,0.7734375 -0.8085938,0.7734375 z m 7.3300778,-0.8554688 c 0,-1.0546875 -0.714843,-1.6289062 -1.992187,-1.6289062 -1.230469,0 -1.933594,0.5742187 -1.933594,1.5585937 0,0.796875 0.398438,1.1835938 1.429688,1.3710938 l 0.714843,0.140625 c 0.703125,0.140625 0.960938,0.328125 0.960938,0.75 0,0.42187496 -0.386719,0.67968746 -1.03125,0.67968746 -0.714844,0 -1.113281,-0.3046875 -1.148438,-0.84374996 H 9.9465031 c 0.058594,1.08984371 0.8085939,1.68749996 2.1093749,1.68749996 1.324219,0 2.097656,-0.609375 2.097656,-1.65234376 0,-0.8085937 -0.410156,-1.2304687 -1.347656,-1.40625 l -0.796875,-0.1523437 c -0.75,-0.1523438 -0.972656,-0.2929688 -0.972656,-0.6679688 0,-0.3867187 0.339844,-0.6328125 0.878906,-0.6328125 0.667969,0 1.042969,0.28125 1.078125,0.796875 z m 0,0"
       style="fill:#ffffff;fill-opacity:1;fill-rule:nonzero;stroke:none"
       aria-label="RPS"
       transform="matrix(1.3333333,0,0,1.3333333,13.448933,17.356)"
       clip-path="url(#clipPath14)" />
    <path
       id="path15"
       d="m 170.23,64.7109 c 0.04,0.0196 43.239,2.3633 43.239,2.3633 0,0 -53.121,20.2344 -63.141,23.7696 0.664,0.2929 48.41,0.8789 48.41,0.8789 L 54.0078,131.684 149.164,96.7227 c -0.476,-0.2149 -35,-2.5 -35,-2.5 0,0 35.149,-17.2071 44.934,-20.6641 -1.465,-0.6055 -32.02,-9.3359 -32.02,-9.3359 L 298.879,16.4258 170.23,64.7109"
       style="fill:#ffffff;fill-opacity:1;fill-rule:nonzero;stroke:none"
       transform="matrix(0.13333333,0,0,-0.13333333,0,33.986667)"
       clip-path="url(#clipPath16)" />
  </g>
</svg>
