<?xml version="1.0" encoding="UTF-8" standalone="no"?>
<!-- Created with Inkscape (http://www.inkscape.org/) -->

<svg
   version="1.1"
   id="svg1"
   width="62.613335"
   height="46.333332"
   viewBox="0 0 62.613335 46.333332"
   sodipodi:docname="sattelite dish.eps"
   xmlns:inkscape="http://www.inkscape.org/namespaces/inkscape"
   xmlns:sodipodi="http://sodipodi.sourceforge.net/DTD/sodipodi-0.dtd"
   xmlns="http://www.w3.org/2000/svg"
   xmlns:svg="http://www.w3.org/2000/svg">
  <defs
     id="defs1" />
  <sodipodi:namedview
     id="namedview1"
     pagecolor="#505050"
     bordercolor="#eeeeee"
     borderopacity="1"
     inkscape:showpageshadow="0"
     inkscape:pageopacity="0"
     inkscape:pagecheckerboard="0"
     inkscape:deskcolor="#d1d1d1">
    <inkscape:page
       x="0"
       y="0"
       inkscape:label="1"
       id="page1"
       width="62.613335"
       height="46.333332"
       margin="0"
       bleed="0" />
  </sodipodi:namedview>
  <g
     id="g1"
     inkscape:groupmode="layer"
     inkscape:label="1">
    <path
       id="path1"
       d="m 234.863,173.305 c 128.867,0 233.34,19.785 233.34,44.195 0,24.41 -104.473,44.195 -233.34,44.195 -128.867,0 -233.33956,-19.785 -233.33956,-44.195 0,-24.41 104.47256,-44.195 233.33956,-44.195"
       style="fill:#ffffff;fill-opacity:1;fill-rule:nonzero;stroke:none"
       transform="matrix(0.13333333,0,0,-0.13333333,0,46.333333)" />
    <path
       id="path2"
       d="m 234.863,173.305 c 128.867,0 233.34,19.785 233.34,44.195 0,24.41 -104.473,44.195 -233.34,44.195 -128.867,0 -233.33956,-19.785 -233.33956,-44.195 0,-24.41 104.47256,-44.195 233.33956,-44.195 z"
       style="fill:none;stroke:#000000;stroke-width:1.49994;stroke-linecap:butt;stroke-linejoin:miter;stroke-miterlimit:4;stroke-dasharray:none;stroke-opacity:1"
       transform="matrix(0.13333333,0,0,-0.13333333,0,46.333333)" />
    <path
       id="path3"
       d="m 236.113,95.8008 c 128.867,0 232.09,97.2892 232.09,121.6992 0,24.41 -104.473,44.195 -233.34,44.195 C 105.996,261.695 1.52344,241.91 1.52344,217.5 1.52344,193.09 107.246,95.8008 236.113,95.8008"
       style="fill:#036998;fill-opacity:1;fill-rule:nonzero;stroke:none"
       transform="matrix(0.13333333,0,0,-0.13333333,0,46.333333)" />
    <path
       id="path4"
       d="m 234.863,173.305 c 128.867,0 233.34,19.785 233.34,44.195 0,24.41 -104.473,44.195 -233.34,44.195 -128.867,0 -233.33956,-19.785 -233.33956,-44.195 0,-24.41 104.47256,-44.195 233.33956,-44.195"
       style="fill:#ffffff;fill-opacity:1;fill-rule:nonzero;stroke:none"
       transform="matrix(0.13333333,0,0,-0.13333333,0,46.333333)" />
    <path
       id="path5"
       d="m 234.863,173.305 c 128.867,0 233.34,19.785 233.34,44.195 0,24.41 -104.473,44.195 -233.34,44.195 -128.867,0 -233.33956,-19.785 -233.33956,-44.195 0,-24.41 104.47256,-44.195 233.33956,-44.195 z"
       style="fill:none;stroke:#036998;stroke-width:3.99994;stroke-linecap:butt;stroke-linejoin:miter;stroke-miterlimit:4;stroke-dasharray:none;stroke-opacity:1"
       transform="matrix(0.13333333,0,0,-0.13333333,0,46.333333)" />
    <path
       id="path6"
       d="m 174.199,250.582 c -36.816,-2.238 -69.492,-6.523 -95.0076,-12.238"
       style="fill:none;stroke:#036998;stroke-width:3.75;stroke-linecap:butt;stroke-linejoin:miter;stroke-miterlimit:4;stroke-dasharray:none;stroke-opacity:1"
       transform="matrix(0.13333333,0,0,-0.13333333,0,46.333333)" />
    <path
       id="path7"
       d="m 176.68,241.348 c -35.723,-2.61 -66.992,-7.379 -90.6253,-13.614"
       style="fill:none;stroke:#036998;stroke-width:3.75;stroke-linecap:butt;stroke-linejoin:miter;stroke-miterlimit:4;stroke-dasharray:none;stroke-opacity:1"
       transform="matrix(0.13333333,0,0,-0.13333333,0,46.333333)" />
    <path
       id="path8"
       d="m 179.219,231.43 c -34.961,-3.024 -65.078,-8.371 -86.8362,-15.239"
       style="fill:none;stroke:#036998;stroke-width:3.75;stroke-linecap:butt;stroke-linejoin:miter;stroke-miterlimit:4;stroke-dasharray:none;stroke-opacity:1"
       transform="matrix(0.13333333,0,0,-0.13333333,0,46.333333)" />
    <path
       id="path9"
       d="m 184.246,219.871 c -34.148,-3.293 -63.211,-9.066 -83.476,-16.414"
       style="fill:none;stroke:#036998;stroke-width:3.75;stroke-linecap:butt;stroke-linejoin:miter;stroke-miterlimit:4;stroke-dasharray:none;stroke-opacity:1"
       transform="matrix(0.13333333,0,0,-0.13333333,0,46.333333)" />
    <path
       id="path10"
       d="m 186.699,209.109 c -32.39,-3.734 -59.472,-9.976 -77.5,-17.777"
       style="fill:none;stroke:#036998;stroke-width:3.75;stroke-linecap:butt;stroke-linejoin:miter;stroke-miterlimit:4;stroke-dasharray:none;stroke-opacity:1"
       transform="matrix(0.13333333,0,0,-0.13333333,0,46.333333)" />
    <path
       id="path11"
       d="M 191.094,196.379 C 165.41,192.871 143.613,187.578 127.93,181.098"
       style="fill:none;stroke:#036998;stroke-width:3.75;stroke-linecap:butt;stroke-linejoin:miter;stroke-miterlimit:4;stroke-dasharray:none;stroke-opacity:1"
       transform="matrix(0.13333333,0,0,-0.13333333,0,46.333333)" />
    <path
       id="path12"
       d="m 192.59,184.527 c -10.363,-1.875 -19.895,-4.097 -28.391,-6.601"
       style="fill:none;stroke:#036998;stroke-width:3.75;stroke-linecap:butt;stroke-linejoin:miter;stroke-miterlimit:4;stroke-dasharray:none;stroke-opacity:1"
       transform="matrix(0.13333333,0,0,-0.13333333,0,46.333333)" />
    <path
       id="path13"
       d="M 0.898438,213.297 236.113,331.25 468.203,217.5"
       style="fill:none;stroke:#036998;stroke-width:3.99994;stroke-linecap:butt;stroke-linejoin:miter;stroke-miterlimit:4;stroke-dasharray:none;stroke-opacity:1"
       transform="matrix(0.13333333,0,0,-0.13333333,0,46.333333)" />
    <path
       id="path14"
       d="m 237.363,301.422 c 8.789,0 15.907,3.558 15.907,7.953 0,4.395 -7.118,7.953 -15.907,7.953 -8.789,0 -15.91,-3.558 -15.91,-7.953 0,-4.395 7.121,-7.953 15.91,-7.953"
       style="fill:#036998;fill-opacity:1;fill-rule:nonzero;stroke:none"
       transform="matrix(0.13333333,0,0,-0.13333333,0,46.333333)" />
    <path
       id="path15"
       d="m 237.363,347.5 -5,-163.75 h 11.25 l -6.25,163.75"
       style="fill:#036998;fill-opacity:1;fill-rule:nonzero;stroke:none"
       transform="matrix(0.13333333,0,0,-0.13333333,0,46.333333)" />
    <path
       id="path16"
       d="m 186.113,67.5 h 112.5 v 26.25 h -112.5 z"
       style="fill:#036998;fill-opacity:1;fill-rule:nonzero;stroke:none"
       transform="matrix(0.13333333,0,0,-0.13333333,0,46.333333)" />
    <path
       id="path17"
       d="m 207.363,70 h 71.25 V 22.5 c 0,0 -72.5,-22.5 -71.25,-22.5 1.25,0 0,70 0,70"
       style="fill:#036998;fill-opacity:1;fill-rule:nonzero;stroke:none"
       transform="matrix(0.13333333,0,0,-0.13333333,0,46.333333)" />
  </g>
</svg>
