<?xml version="1.0" encoding="UTF-8" standalone="no"?>
<!-- Created with Inkscape (http://www.inkscape.org/) -->

<svg
   version="1.1"
   id="svg1"
   width="33.693333"
   height="59.52"
   viewBox="0 0 33.693333 59.52"
   sodipodi:docname="speaker.eps"
   xmlns:inkscape="http://www.inkscape.org/namespaces/inkscape"
   xmlns:sodipodi="http://sodipodi.sourceforge.net/DTD/sodipodi-0.dtd"
   xmlns="http://www.w3.org/2000/svg"
   xmlns:svg="http://www.w3.org/2000/svg">
  <defs
     id="defs1">
    <clipPath
       clipPathUnits="userSpaceOnUse"
       id="clipPath2">
      <path
         d="M 0,446 H 250 V 0 H 0 Z"
         id="path2" />
    </clipPath>
    <clipPath
       clipPathUnits="userSpaceOnUse"
       id="clipPath4">
      <path
         d="M 0,446 H 250 V 0 H 0 Z"
         id="path4" />
    </clipPath>
    <clipPath
       clipPathUnits="userSpaceOnUse"
       id="clipPath6">
      <path
         d="M 0,446 H 250 V 0 H 0 Z"
         id="path6" />
    </clipPath>
    <clipPath
       clipPathUnits="userSpaceOnUse"
       id="clipPath8">
      <path
         d="M 0,446 H 250 V 0 H 0 Z"
         id="path8" />
    </clipPath>
    <clipPath
       clipPathUnits="userSpaceOnUse"
       id="clipPath10">
      <path
         d="M 0,446 H 250 V 0 H 0 Z"
         id="path10" />
    </clipPath>
    <clipPath
       clipPathUnits="userSpaceOnUse"
       id="clipPath12">
      <path
         d="M 0,446 H 250 V 0 H 0 Z"
         id="path12" />
    </clipPath>
    <clipPath
       clipPathUnits="userSpaceOnUse"
       id="clipPath14">
      <path
         d="M 0,446 H 250 V 0 H 0 Z"
         id="path14" />
    </clipPath>
    <clipPath
       clipPathUnits="userSpaceOnUse"
       id="clipPath16">
      <path
         d="M 0,446 H 250 V 0 H 0 Z"
         id="path16" />
    </clipPath>
    <clipPath
       clipPathUnits="userSpaceOnUse"
       id="clipPath18">
      <path
         d="M 0,446 H 250 V 0 H 0 Z"
         id="path18" />
    </clipPath>
    <clipPath
       clipPathUnits="userSpaceOnUse"
       id="clipPath20">
      <path
         d="M 0,446 H 250 V 0 H 0 Z"
         id="path20" />
    </clipPath>
  </defs>
  <sodipodi:namedview
     id="namedview1"
     pagecolor="#505050"
     bordercolor="#eeeeee"
     borderopacity="1"
     inkscape:showpageshadow="0"
     inkscape:pageopacity="0"
     inkscape:pagecheckerboard="0"
     inkscape:deskcolor="#d1d1d1">
    <inkscape:page
       x="0"
       y="0"
       inkscape:label="1"
       id="page1"
       width="33.693333"
       height="59.52"
       margin="0"
       bleed="0" />
  </sodipodi:namedview>
  <g
     id="g1"
     inkscape:groupmode="layer"
     inkscape:label="1">
    <path
       id="path1"
       d="M 69.3281,262.5 C 48.4063,258.828 1.82422,239.852 1.82422,215.527 c 0,-23.761 49.39458,-45.382 69.14458,-50.254"
       style="fill:#036998;fill-opacity:1;fill-rule:nonzero;stroke:#ffffff;stroke-width:3.99994;stroke-linecap:butt;stroke-linejoin:miter;stroke-miterlimit:4;stroke-dasharray:none;stroke-opacity:1"
       transform="matrix(0.13333333,0,0,-0.13333333,0,59.52)"
       clip-path="url(#clipPath2)" />
    <path
       id="path3"
       d="m 178.535,441.309 c -18.269,0 -85.2537,-64.18 -103.5233,-131.922 -9.3164,-34.582 -4.8047,-71.633 -4.8047,-100.012 0,-25.496 -3.75,-54.766 4.6172,-83.176 C 94.043,61.0625 163.926,2.01953 183.137,2.01953"
       style="fill:#036998;fill-opacity:1;fill-rule:nonzero;stroke:#ffffff;stroke-width:3.99994;stroke-linecap:butt;stroke-linejoin:miter;stroke-miterlimit:4;stroke-dasharray:none;stroke-opacity:1"
       transform="matrix(0.13333333,0,0,-0.13333333,0,59.52)"
       clip-path="url(#clipPath4)" />
    <path
       id="path5"
       d="m 187.742,1.63281 c 34.797,0 63,99.20719 63,221.57019 0,122.363 -28.203,221.57 -63,221.57 -34.781,0 -62.984,-99.207 -62.984,-221.57 0,-122.363 28.203,-221.57019 62.984,-221.57019"
       style="fill:#036998;fill-opacity:1;fill-rule:nonzero;stroke:none"
       transform="matrix(0.13333333,0,0,-0.13333333,0,59.52)"
       clip-path="url(#clipPath6)" />
    <path
       id="path7"
       d="m 187.742,1.63281 c 34.797,0 63,99.20719 63,221.57019 0,122.363 -28.203,221.57 -63,221.57 -34.781,0 -62.984,-99.207 -62.984,-221.57 0,-122.363 28.203,-221.57019 62.984,-221.57019 z"
       style="fill:none;stroke:#ffffff;stroke-width:3.99994;stroke-linecap:butt;stroke-linejoin:miter;stroke-miterlimit:4;stroke-dasharray:none;stroke-opacity:1"
       transform="matrix(0.13333333,0,0,-0.13333333,0,59.52)"
       clip-path="url(#clipPath8)" />
    <path
       id="path9"
       d="m 240.164,252.988 c -0.152,9.16 -11.441,16.356 -25.215,16.082 -13.789,-0.269 -25.113,9.864 -24.871,-5.41 l 1.477,-90.605 c 0.242,-15.274 11.226,-3.465 25,-3.192 13.789,0.274 24.824,7.93 24.683,17.078 l -1.074,66.047"
       style="fill:#036998;fill-opacity:1;fill-rule:nonzero;stroke:none"
       transform="matrix(0.13333333,0,0,-0.13333333,0,59.52)"
       clip-path="url(#clipPath10)" />
    <path
       id="path11"
       d="m 240.164,252.988 c -0.152,9.16 -11.441,16.356 -25.215,16.082 -13.789,-0.269 -25.113,9.864 -24.871,-5.41 l 1.477,-90.605 c 0.242,-15.274 11.226,-3.465 25,-3.192 13.789,0.274 24.824,7.93 24.683,17.078 z"
       style="fill:none;stroke:#ffffff;stroke-width:3.99994;stroke-linecap:butt;stroke-linejoin:miter;stroke-miterlimit:4;stroke-dasharray:none;stroke-opacity:1"
       transform="matrix(0.13333333,0,0,-0.13333333,0,59.52)"
       clip-path="url(#clipPath12)" />
    <path
       id="path13"
       d="m 148.953,64.7734 39.57,68.8866 c 7.793,13.125 12.524,-3.152 25.649,-10.957 13.125,-7.801 19.976,-20.508 15.293,-28.3866 l -33.75,-56.7773 c -4.68,-7.8711 -19.113,-7.9297 -32.246,-0.1289 -3.281,1.9453 -4.231,2.6289 -7.446,3.6836"
       style="fill:#036998;fill-opacity:1;fill-rule:nonzero;stroke:#ffffff;stroke-width:3.99994;stroke-linecap:butt;stroke-linejoin:miter;stroke-miterlimit:4;stroke-dasharray:none;stroke-opacity:1"
       transform="matrix(0.13333333,0,0,-0.13333333,0,59.52)"
       clip-path="url(#clipPath14)" />
    <path
       id="path15"
       d="m 133.895,128.027 c 4.984,-7.922 7.824,-12.433 13.918,-12.433 19.191,0 34.753,44.75 34.753,99.933 0,55.188 -15.562,99.922 -34.753,99.922 -7.977,0 -12.454,-7.726 -18.309,-20.715"
       style="fill:#036998;fill-opacity:1;fill-rule:nonzero;stroke:#ffffff;stroke-width:3.99994;stroke-linecap:butt;stroke-linejoin:miter;stroke-miterlimit:4;stroke-dasharray:none;stroke-opacity:1"
       transform="matrix(0.13333333,0,0,-0.13333333,0,59.52)"
       clip-path="url(#clipPath16)" />
    <path
       id="path17"
       d="m 129.387,166.367 h 13.816 c 27.149,0 27.649,22.012 27.649,49.16 0,27.137 -0.5,49.149 -27.649,49.149 h -14.015"
       style="fill:#036998;fill-opacity:1;fill-rule:nonzero;stroke:#ffffff;stroke-width:3.99994;stroke-linecap:butt;stroke-linejoin:miter;stroke-miterlimit:4;stroke-dasharray:none;stroke-opacity:1"
       transform="matrix(0.13333333,0,0,-0.13333333,0,59.52)"
       clip-path="url(#clipPath18)" />
    <path
       id="path19"
       d="m 150.906,387.227 37.617,-63.731 c 7.793,-13.125 12.524,3.152 25.649,10.957 13.125,7.805 19.976,20.508 15.293,28.387 l -33.75,56.777 c -4.68,7.871 -17.524,8.555 -30.649,0.754"
       style="fill:#036998;fill-opacity:1;fill-rule:nonzero;stroke:#ffffff;stroke-width:3.99994;stroke-linecap:butt;stroke-linejoin:miter;stroke-miterlimit:4;stroke-dasharray:none;stroke-opacity:1"
       transform="matrix(0.13333333,0,0,-0.13333333,0,59.52)"
       clip-path="url(#clipPath20)" />
  </g>
</svg>
