<?xml version="1.0" encoding="UTF-8" standalone="no"?>
<!-- Created with Inkscape (http://www.inkscape.org/) -->

<svg
   version="1.1"
   id="svg1"
   width="58.906666"
   height="43.119999"
   viewBox="0 0 58.906666 43.119999"
   sodipodi:docname="ssc.eps"
   xmlns:inkscape="http://www.inkscape.org/namespaces/inkscape"
   xmlns:sodipodi="http://sodipodi.sourceforge.net/DTD/sodipodi-0.dtd"
   xmlns="http://www.w3.org/2000/svg"
   xmlns:svg="http://www.w3.org/2000/svg">
  <defs
     id="defs1" />
  <sodipodi:namedview
     id="namedview1"
     pagecolor="#505050"
     bordercolor="#eeeeee"
     borderopacity="1"
     inkscape:showpageshadow="0"
     inkscape:pageopacity="0"
     inkscape:pagecheckerboard="0"
     inkscape:deskcolor="#d1d1d1">
    <inkscape:page
       x="0"
       y="0"
       inkscape:label="1"
       id="page1"
       width="58.906666"
       height="43.119999"
       margin="0"
       bleed="0" />
  </sodipodi:namedview>
  <g
     id="g1"
     inkscape:groupmode="layer"
     inkscape:label="1">
    <path
       id="path1"
       d="m 429.238,318.691 10.41,-13.476 -35.664,-179.344 -12.871,7.957 38.125,184.863"
       style="fill:#1089c2;fill-opacity:1;fill-rule:nonzero;stroke:none"
       transform="matrix(0.13333333,0,0,-0.13333333,0,43.12)" />
    <path
       id="path2"
       d="m 429.238,318.691 10.41,-13.476 -35.664,-179.344 -12.871,7.957 z"
       style="fill:none;stroke:#ffffff;stroke-width:4;stroke-linecap:butt;stroke-linejoin:miter;stroke-miterlimit:4;stroke-dasharray:none;stroke-opacity:1"
       transform="matrix(0.13333333,0,0,-0.13333333,0,43.12)" />
    <path
       id="path3"
       d="M 393.574,121.27 V 94.0234 l -7.051,-6.1328 c 0,0 -16.543,-4.8906 -12.871,-14.6875 L 299.863,4.58984 V 34.6094 l 93.711,86.6606"
       style="fill:#1089c2;fill-opacity:1;fill-rule:nonzero;stroke:none"
       transform="matrix(0.13333333,0,0,-0.13333333,0,43.12)" />
    <path
       id="path4"
       d="M 393.574,121.27 V 94.0234 l -7.051,-6.1328 c 0,0 -16.543,-4.8906 -12.871,-14.6875 L 299.863,4.58984 V 34.6094 Z"
       style="fill:none;stroke:#ffffff;stroke-width:4;stroke-linecap:butt;stroke-linejoin:miter;stroke-miterlimit:4;stroke-dasharray:none;stroke-opacity:1"
       transform="matrix(0.13333333,0,0,-0.13333333,0,43.12)" />
    <path
       id="path5"
       d="m 6.17578,4.58984 h 293.688 v 30.0195 H 6.17578 Z"
       style="fill:#1089c2;fill-opacity:1;fill-rule:nonzero;stroke:none"
       transform="matrix(0.13333333,0,0,-0.13333333,0,43.12)" />
    <path
       id="path6"
       d="M 6.17578,34.6094 V 4.58984 H 299.863 V 34.6094 H 6.17578"
       style="fill:none;stroke:#ffffff;stroke-width:4;stroke-linecap:butt;stroke-linejoin:miter;stroke-miterlimit:4;stroke-dasharray:none;stroke-opacity:1"
       transform="matrix(0.13333333,0,0,-0.13333333,0,43.12)" />
    <path
       id="path7"
       d="M 123.461,119.434 393.574,121.27 299.863,34.6094 H 6.17578 L 123.461,119.434"
       style="fill:#1089c2;fill-opacity:1;fill-rule:nonzero;stroke:none"
       transform="matrix(0.13333333,0,0,-0.13333333,0,43.12)" />
    <path
       id="path8"
       d="M 123.461,119.434 393.574,121.27 299.863,34.6094 H 6.17578 Z"
       style="fill:none;stroke:#ffffff;stroke-width:4;stroke-linecap:butt;stroke-linejoin:miter;stroke-miterlimit:4;stroke-dasharray:none;stroke-opacity:1"
       transform="matrix(0.13333333,0,0,-0.13333333,0,43.12)" />
    <path
       id="path9"
       d="m 391.113,133.828 38.125,184.863 H 162.816 L 120.395,133.828 h 270.718"
       style="fill:#1089c2;fill-opacity:1;fill-rule:nonzero;stroke:none"
       transform="matrix(0.13333333,0,0,-0.13333333,0,43.12)" />
    <path
       id="path10"
       d="m 391.113,133.828 38.125,184.863 H 162.816 L 120.395,133.828 Z"
       style="fill:none;stroke:#ffffff;stroke-width:4;stroke-linecap:butt;stroke-linejoin:miter;stroke-miterlimit:4;stroke-dasharray:none;stroke-opacity:1"
       transform="matrix(0.13333333,0,0,-0.13333333,0,43.12)" />
    <path
       id="path11"
       d="M 368.516,151.719 399.59,296.77 H 182.949 l -31.07,-145.051 h 216.637"
       style="fill:#ffffff;fill-opacity:1;fill-rule:nonzero;stroke:none"
       transform="matrix(0.13333333,0,0,-0.13333333,0,43.12)" />
    <path
       id="path12"
       d="M 368.516,151.719 399.59,296.77 H 182.949 l -31.07,-145.051 z"
       style="fill:none;stroke:#ffffff;stroke-width:4;stroke-linecap:butt;stroke-linejoin:miter;stroke-miterlimit:4;stroke-dasharray:none;stroke-opacity:1"
       transform="matrix(0.13333333,0,0,-0.13333333,0,43.12)" />
    <path
       id="path13"
       d="M 129.809,117.52 61.6836,62.5117"
       style="fill:none;stroke:#ffffff;stroke-width:1;stroke-linecap:butt;stroke-linejoin:round;stroke-miterlimit:4;stroke-dasharray:none;stroke-opacity:1"
       transform="matrix(0.13333333,0,0,-0.13333333,0,43.12)" />
    <path
       id="path14"
       d="M 151.684,117.52 83.5586,62.5117"
       style="fill:none;stroke:#ffffff;stroke-width:1;stroke-linecap:butt;stroke-linejoin:round;stroke-miterlimit:4;stroke-dasharray:none;stroke-opacity:1"
       transform="matrix(0.13333333,0,0,-0.13333333,0,43.12)" />
    <path
       id="path15"
       d="M 173.555,117.52 105.434,62.5117"
       style="fill:none;stroke:#ffffff;stroke-width:1;stroke-linecap:butt;stroke-linejoin:round;stroke-miterlimit:4;stroke-dasharray:none;stroke-opacity:1"
       transform="matrix(0.13333333,0,0,-0.13333333,0,43.12)" />
    <path
       id="path16"
       d="M 195.43,117.52 127.309,62.5117"
       style="fill:none;stroke:#ffffff;stroke-width:1;stroke-linecap:butt;stroke-linejoin:round;stroke-miterlimit:4;stroke-dasharray:none;stroke-opacity:1"
       transform="matrix(0.13333333,0,0,-0.13333333,0,43.12)" />
    <path
       id="path17"
       d="M 217.305,117.52 149.184,62.5117"
       style="fill:none;stroke:#ffffff;stroke-width:1;stroke-linecap:butt;stroke-linejoin:round;stroke-miterlimit:4;stroke-dasharray:none;stroke-opacity:1"
       transform="matrix(0.13333333,0,0,-0.13333333,0,43.12)" />
    <path
       id="path18"
       d="M 239.18,117.52 171.055,62.5117"
       style="fill:none;stroke:#ffffff;stroke-width:1;stroke-linecap:butt;stroke-linejoin:round;stroke-miterlimit:4;stroke-dasharray:none;stroke-opacity:1"
       transform="matrix(0.13333333,0,0,-0.13333333,0,43.12)" />
    <path
       id="path19"
       d="M 261.055,117.52 192.93,62.5117"
       style="fill:none;stroke:#ffffff;stroke-width:1;stroke-linecap:butt;stroke-linejoin:round;stroke-miterlimit:4;stroke-dasharray:none;stroke-opacity:1"
       transform="matrix(0.13333333,0,0,-0.13333333,0,43.12)" />
    <path
       id="path20"
       d="M 282.93,117.52 214.805,62.5117"
       style="fill:none;stroke:#ffffff;stroke-width:1;stroke-linecap:butt;stroke-linejoin:round;stroke-miterlimit:4;stroke-dasharray:none;stroke-opacity:1"
       transform="matrix(0.13333333,0,0,-0.13333333,0,43.12)" />
    <path
       id="path21"
       d="M 304.805,117.52 236.68,62.5117"
       style="fill:none;stroke:#ffffff;stroke-width:1;stroke-linecap:butt;stroke-linejoin:round;stroke-miterlimit:4;stroke-dasharray:none;stroke-opacity:1"
       transform="matrix(0.13333333,0,0,-0.13333333,0,43.12)" />
    <path
       id="path22"
       d="M 326.68,117.52 258.555,62.5117"
       style="fill:none;stroke:#ffffff;stroke-width:1;stroke-linecap:butt;stroke-linejoin:round;stroke-miterlimit:4;stroke-dasharray:none;stroke-opacity:1"
       transform="matrix(0.13333333,0,0,-0.13333333,0,43.12)" />
    <path
       id="path23"
       d="M 348.555,117.52 280.43,62.5117"
       style="fill:none;stroke:#ffffff;stroke-width:1;stroke-linecap:butt;stroke-linejoin:round;stroke-miterlimit:4;stroke-dasharray:none;stroke-opacity:1"
       transform="matrix(0.13333333,0,0,-0.13333333,0,43.12)" />
    <path
       id="path24"
       d="M 370.43,117.52 302.305,62.5117"
       style="fill:none;stroke:#ffffff;stroke-width:1;stroke-linecap:butt;stroke-linejoin:round;stroke-miterlimit:4;stroke-dasharray:none;stroke-opacity:1"
       transform="matrix(0.13333333,0,0,-0.13333333,0,43.12)" />
    <path
       id="path25"
       d="M 69.3008,68.3125 H 311.816"
       style="fill:none;stroke:#ffffff;stroke-width:1;stroke-linecap:butt;stroke-linejoin:round;stroke-miterlimit:4;stroke-dasharray:none;stroke-opacity:1"
       transform="matrix(0.13333333,0,0,-0.13333333,0,43.12)" />
    <path
       id="path26"
       d="M 85.6094,80.918 H 324.375"
       style="fill:none;stroke:#ffffff;stroke-width:1;stroke-linecap:butt;stroke-linejoin:round;stroke-miterlimit:4;stroke-dasharray:none;stroke-opacity:1"
       transform="matrix(0.13333333,0,0,-0.13333333,0,43.12)" />
    <path
       id="path27"
       d="M 102.523,93.5156 H 340.664"
       style="fill:none;stroke:#ffffff;stroke-width:1;stroke-linecap:butt;stroke-linejoin:round;stroke-miterlimit:4;stroke-dasharray:none;stroke-opacity:1"
       transform="matrix(0.13333333,0,0,-0.13333333,0,43.12)" />
    <path
       id="path28"
       d="M 117.582,106.133 H 357.598"
       style="fill:none;stroke:#ffffff;stroke-width:1;stroke-linecap:butt;stroke-linejoin:round;stroke-miterlimit:4;stroke-dasharray:none;stroke-opacity:1"
       transform="matrix(0.13333333,0,0,-0.13333333,0,43.12)" />
    <path
       id="path29"
       d="m 3.6435828,-3.0468578 c -0.011719,-0.9023438 -0.609375,-1.3945313 -1.7226562,-1.3945313 -1.04296879,0 -1.65234379,0.4921875 -1.65234379,1.3359375 0,0.6796875 0.33984375,1.0078125 1.23046879,1.1835938 l 0.609375,0.1171875 c 0.5976562,0.1171875 0.8203125,0.28125 0.8203125,0.6328125 0,0.36328124 -0.328125,0.58593749 -0.8789063,0.58593749 -0.609375,0 -0.9492187,-0.2578125 -0.984375,-0.72656249 H 0.18655156 c 0.0585938,0.93749999 0.703125,1.45312499 1.81640624,1.45312499 1.125,0 1.7929688,-0.52734375 1.7929688,-1.41796879 0,-0.6914062 -0.3515625,-1.0546875 -1.1601563,-1.2070312 L 1.9560828,-2.6132641 C 1.3115516,-2.7421703 1.1240516,-2.8710766 1.1240516,-3.1874828 c 0,-0.328125 0.2929687,-0.5390625 0.7617187,-0.5390625 0.5625,0 0.890625,0.2460937 0.9140625,0.6796875 z m 4.0019531,0 c -0.011719,-0.9023438 -0.609375,-1.3945313 -1.7226562,-1.3945313 -1.0429688,0 -1.6523438,0.4921875 -1.6523438,1.3359375 0,0.6796875 0.3398438,1.0078125 1.2304688,1.1835938 l 0.609375,0.1171875 c 0.5976562,0.1171875 0.8203125,0.28125 0.8203125,0.6328125 0,0.36328124 -0.328125,0.58593749 -0.8789063,0.58593749 -0.609375,0 -0.9492187,-0.2578125 -0.984375,-0.72656249 H 4.1885047 c 0.058594,0.93749999 0.703125,1.45312499 1.8164062,1.45312499 1.125,0 1.7929688,-0.52734375 1.7929688,-1.41796879 0,-0.6914062 -0.3515625,-1.0546875 -1.1601563,-1.2070312 L 5.9580359,-2.6132641 C 5.3135047,-2.7421703 5.1260047,-2.8710766 5.1260047,-3.1874828 c 0,-0.328125 0.2929687,-0.5390625 0.7617187,-0.5390625 0.5625,0 0.890625,0.2460937 0.9140625,0.6796875 z m 4.4472661,0.1523437 c -0.02344,-0.375 -0.105469,-0.6210937 -0.292969,-0.8671875 -0.339844,-0.4335937 -0.878906,-0.6796875 -1.523438,-0.6796875 -1.2421872,0 -2.0039059,0.8789063 -2.0039059,2.296875 0,1.40625004 0.7617187,2.28515629 1.9687499,2.28515629 1.101563,0 1.816406,-0.6328125 1.875,-1.62890629 h -0.878906 c -0.05859,0.55078129 -0.410156,0.86718754 -0.960938,0.86718754 -0.7031247,0 -1.1132809,-0.56250004 -1.1132809,-1.51171874 0,-0.9726563 0.4335937,-1.546875 1.1367189,-1.546875 0.527344,0 0.820312,0.2578125 0.9375,0.7851562 z m 0,0"
       style="fill:#231f20;fill-opacity:1;fill-rule:nonzero;stroke:none"
       aria-label="SSC"
       transform="matrix(1.3333333,0,0,1.3333333,27.731733,16.910133)" />
  </g>
</svg>
