<?xml version="1.0" encoding="UTF-8" standalone="no"?>
<!-- Created with Inkscape (http://www.inkscape.org/) -->

<svg
   version="1.1"
   id="svg1"
   width="37.720001"
   height="38.119999"
   viewBox="0 0 37.720001 38.119999"
   sodipodi:docname="stp.eps"
   xmlns:inkscape="http://www.inkscape.org/namespaces/inkscape"
   xmlns:sodipodi="http://sodipodi.sourceforge.net/DTD/sodipodi-0.dtd"
   xmlns="http://www.w3.org/2000/svg"
   xmlns:svg="http://www.w3.org/2000/svg">
  <defs
     id="defs1">
    <clipPath
       clipPathUnits="userSpaceOnUse"
       id="clipPath2">
      <path
         d="M 0,286 H 280 V 0 H 0 Z"
         id="path2" />
    </clipPath>
    <clipPath
       clipPathUnits="userSpaceOnUse"
       id="clipPath4">
      <path
         d="M 0,286 H 280 V 0 H 0 Z"
         id="path4" />
    </clipPath>
    <clipPath
       clipPathUnits="userSpaceOnUse"
       id="clipPath6">
      <path
         d="M 0,286 H 280 V 0 H 0 Z"
         id="path6" />
    </clipPath>
    <clipPath
       clipPathUnits="userSpaceOnUse"
       id="clipPath8">
      <path
         d="M 0,286 H 280 V 0 H 0 Z"
         id="path8" />
    </clipPath>
    <clipPath
       clipPathUnits="userSpaceOnUse"
       id="clipPath10">
      <path
         d="M 0,286 H 280 V 0 H 0 Z"
         id="path10" />
    </clipPath>
    <clipPath
       clipPathUnits="userSpaceOnUse"
       id="clipPath12">
      <path
         d="M 0,286 H 280 V 0 H 0 Z"
         id="path12" />
    </clipPath>
    <clipPath
       clipPathUnits="userSpaceOnUse"
       id="clipPath14">
      <path
         d="M 0,286 H 280 V 0 H 0 Z"
         id="path14" />
    </clipPath>
    <clipPath
       clipPathUnits="userSpaceOnUse"
       id="clipPath16">
      <path
         d="M 0,286 H 280 V 0 H 0 Z"
         transform="matrix(0.1,0,0,-0.1,-10.8832,1.9363298)"
         id="path16" />
    </clipPath>
  </defs>
  <sodipodi:namedview
     id="namedview1"
     pagecolor="#505050"
     bordercolor="#eeeeee"
     borderopacity="1"
     inkscape:showpageshadow="0"
     inkscape:pageopacity="0"
     inkscape:pagecheckerboard="0"
     inkscape:deskcolor="#d1d1d1">
    <inkscape:page
       x="0"
       y="0"
       inkscape:label="1"
       id="page1"
       width="37.720001"
       height="38.119999"
       margin="0"
       bleed="0" />
  </sodipodi:namedview>
  <g
     id="g1"
     inkscape:groupmode="layer"
     inkscape:label="1">
    <path
       id="path1"
       d="m 5.41406,4.55859 h 226.742 v 230.734 H 5.41406 Z"
       style="fill:#026c9b;fill-opacity:1;fill-rule:nonzero;stroke:none"
       transform="matrix(0.13333333,0,0,-0.13333333,0,38.12)"
       clip-path="url(#clipPath2)" />
    <path
       id="path3"
       d="M 232.156,4.55859 V 235.293 H 5.41406 V 4.55859 Z"
       style="fill:none;stroke:#ffffff;stroke-width:4;stroke-linecap:butt;stroke-linejoin:miter;stroke-miterlimit:4;stroke-dasharray:none;stroke-opacity:1"
       transform="matrix(0.13333333,0,0,-0.13333333,0,38.12)"
       clip-path="url(#clipPath4)" />
    <path
       id="path5"
       d="M 278.098,281.25 232.156,235.371 H 5.15234 L 54.1836,281.25 H 278.098"
       style="fill:#026c9b;fill-opacity:1;fill-rule:nonzero;stroke:none"
       transform="matrix(0.13333333,0,0,-0.13333333,0,38.12)"
       clip-path="url(#clipPath6)" />
    <path
       id="path7"
       d="M 278.098,281.25 232.156,235.371 H 5.15234 L 54.1836,281.25 Z"
       style="fill:none;stroke:#ffffff;stroke-width:4;stroke-linecap:butt;stroke-linejoin:miter;stroke-miterlimit:4;stroke-dasharray:none;stroke-opacity:1"
       transform="matrix(0.13333333,0,0,-0.13333333,0,38.12)"
       clip-path="url(#clipPath8)" />
    <path
       id="path9"
       d="M 278.367,60.1563 V 281.094 L 232.156,235.156 V 5.46875 l 46.211,54.68755"
       style="fill:#026c9b;fill-opacity:1;fill-rule:nonzero;stroke:none"
       transform="matrix(0.13333333,0,0,-0.13333333,0,38.12)"
       clip-path="url(#clipPath10)" />
    <path
       id="path11"
       d="M 278.367,60.1563 V 281.094 L 232.156,235.156 V 5.46875 Z"
       style="fill:none;stroke:#ffffff;stroke-width:4;stroke-linecap:butt;stroke-linejoin:miter;stroke-miterlimit:4;stroke-dasharray:none;stroke-opacity:1"
       transform="matrix(0.13333333,0,0,-0.13333333,0,38.12)"
       clip-path="url(#clipPath12)" />
    <path
       id="path13"
       d="M 7.125,8.57422 226.379,227.82"
       style="fill:none;stroke:#ffffff;stroke-width:14.25;stroke-linecap:round;stroke-linejoin:miter;stroke-miterlimit:3.86;stroke-dasharray:none;stroke-opacity:1"
       transform="matrix(0.13333333,0,0,-0.13333333,0,38.12)"
       clip-path="url(#clipPath14)" />
    <path
       id="path15"
       d="m 3.5748078,-3.0931231 c 0,-0.2929688 -0.011719,-0.375 -0.1171875,-0.5859375 -0.234375,-0.5039063 -0.75,-0.7617188 -1.4882812,-0.7617188 -0.9492188,0 -1.54687504,0.4921875 -1.54687504,1.2773438 0,0.5390625 0.28125,0.8671875 0.85546874,1.0195312 l 1.0898438,0.2929688 c 0.5507812,0.140625 0.796875,0.3632812 0.796875,0.703125 0,0.23437498 -0.1171875,0.48046873 -0.3046875,0.60937498 -0.1757813,0.12890625 -0.4570313,0.1875 -0.8085938,0.1875 -0.4804687,0 -0.796875,-0.1171875 -1.0078125,-0.36328125 C 0.87949531,-0.91343562 0.80918281,-1.1243731 0.82090156,-1.3939044 H 0.29355781 c 0,0.41015628 0.0820313,0.66796878 0.2578125,0.91406253 0.29296875,0.41015625 0.79687499,0.62109375 1.46484379,0.62109375 0.5273437,0 0.9492187,-0.1171875 1.2304687,-0.33984375 0.2929688,-0.234375 0.4804688,-0.62109375 0.4804688,-0.99609373 0,-0.5390625 -0.3398438,-0.9375 -0.9257813,-1.1015625 L 1.6998078,-2.5892169 c -0.5273437,-0.140625 -0.72656249,-0.3164062 -0.72656249,-0.6445312 0,-0.4453125 0.39843749,-0.7382813 0.98437499,-0.7382813 0.6914063,0 1.0898438,0.3046875 1.0898438,0.8789063 z M 6.1236359,-3.8782794 H 7.5650422 V -4.3704669 H 4.1314484 v 0.4921875 H 5.5728547 V 6.26875e-4 h 0.5507812 z m 2.6455079,2.0273438 h 1.3710942 c 0.351562,0 0.621093,-0.1054688 0.855468,-0.3164063 0.257813,-0.234375 0.375,-0.515625 0.375,-0.9257812 0,-0.8203125 -0.492187,-1.2773438 -1.347656,-1.2773438 H 8.2183625 V 6.26875e-4 h 0.5507813 z m 0,-0.4921875 v -1.5351563 h 1.171875 c 0.5273442,0 0.8437502,0.28125 0.8437502,0.7617188 0,0.4804687 -0.316406,0.7734375 -0.8437502,0.7734375 z m 0,0"
       style="fill:#ffffff;fill-opacity:1;fill-rule:nonzero;stroke:none"
       aria-label="STP"
       transform="matrix(1.3333333,0,0,1.3333333,14.510933,35.538227)"
       clip-path="url(#clipPath16)" />
  </g>
</svg>
