<?xml version="1.0" encoding="UTF-8" standalone="no"?>
<!-- Created with Inkscape (http://www.inkscape.org/) -->

<svg
   version="1.1"
   id="svg1"
   width="59.666668"
   height="41.733334"
   viewBox="0 0 59.666668 41.733334"
   sodipodi:docname="streamer.eps"
   xmlns:inkscape="http://www.inkscape.org/namespaces/inkscape"
   xmlns:sodipodi="http://sodipodi.sourceforge.net/DTD/sodipodi-0.dtd"
   xmlns="http://www.w3.org/2000/svg"
   xmlns:svg="http://www.w3.org/2000/svg">
  <defs
     id="defs1" />
  <sodipodi:namedview
     id="namedview1"
     pagecolor="#505050"
     bordercolor="#eeeeee"
     borderopacity="1"
     inkscape:showpageshadow="0"
     inkscape:pageopacity="0"
     inkscape:pagecheckerboard="0"
     inkscape:deskcolor="#d1d1d1">
    <inkscape:page
       x="0"
       y="0"
       inkscape:label="1"
       id="page1"
       width="59.666668"
       height="41.733334"
       margin="0"
       bleed="0" />
  </sodipodi:namedview>
  <g
     id="g1"
     inkscape:groupmode="layer"
     inkscape:label="1">
    <path
       id="path1"
       d="M 5.65234,4.49219 H 387.141 V 255.121 H 5.65234 V 4.49219"
       style="fill:#1286be;fill-opacity:1;fill-rule:nonzero;stroke:none"
       transform="matrix(0.13333333,0,0,-0.13333333,0,41.733333)" />
    <path
       id="path2"
       d="M 5.65234,4.49219 H 387.141 V 255.121 H 5.65234 Z"
       style="fill:none;stroke:#ffffff;stroke-width:4;stroke-linecap:butt;stroke-linejoin:miter;stroke-miterlimit:4;stroke-dasharray:none;stroke-opacity:1"
       transform="matrix(0.13333333,0,0,-0.13333333,0,41.733333)" />
    <path
       id="path3"
       d="M 442.512,54.3281 387.141,4.49219 V 255.121 l 55.371,53.219 V 54.3281"
       style="fill:#1286be;fill-opacity:1;fill-rule:nonzero;stroke:none"
       transform="matrix(0.13333333,0,0,-0.13333333,0,41.733333)" />
    <path
       id="path4"
       d="M 442.512,54.3281 387.141,4.49219 V 255.121 l 55.371,53.219 z"
       style="fill:none;stroke:#ffffff;stroke-width:4;stroke-linecap:butt;stroke-linejoin:miter;stroke-miterlimit:4;stroke-dasharray:none;stroke-opacity:1"
       transform="matrix(0.13333333,0,0,-0.13333333,0,41.733333)" />
    <path
       id="path5"
       d="M 71.4883,308.34 H 442.512 L 387.141,255.121 H 5.65234 L 71.4883,308.34"
       style="fill:#1286be;fill-opacity:1;fill-rule:nonzero;stroke:none"
       transform="matrix(0.13333333,0,0,-0.13333333,0,41.733333)" />
    <path
       id="path6"
       d="M 71.4883,308.34 H 442.512 L 387.141,255.121 H 5.65234 Z"
       style="fill:none;stroke:#ffffff;stroke-width:4;stroke-linecap:butt;stroke-linejoin:miter;stroke-miterlimit:4;stroke-dasharray:none;stroke-opacity:1"
       transform="matrix(0.13333333,0,0,-0.13333333,0,41.733333)" />
    <path
       id="path7"
       d="m 83.0664,118.215 -55.5547,-0.039 v 10.156 l 55.5547,0.039 0.0195,15.84 36.9921,-20.938 -36.9921,-20.937 -0.0195,15.879"
       style="fill:#ffffff;fill-opacity:1;fill-rule:nonzero;stroke:none"
       transform="matrix(0.13333333,0,0,-0.13333333,0,41.733333)" />
    <path
       id="path8"
       d="m 308.086,189.25 -38.887,-0.051 v 10.156 l 38.887,0.04 0.019,15.855 37,-20.941 -37,-20.938 -0.019,15.879"
       style="fill:#ffffff;fill-opacity:1;fill-rule:nonzero;stroke:none"
       transform="matrix(0.13333333,0,0,-0.13333333,0,41.733333)" />
    <path
       id="path9"
       d="m 338.086,125.91 -68.887,-0.039 v 10.156 l 68.887,0.039 0.019,15.848 37,-20.945 -37,-20.938 -0.019,15.879"
       style="fill:#ffffff;fill-opacity:1;fill-rule:nonzero;stroke:none"
       transform="matrix(0.13333333,0,0,-0.13333333,0,41.733333)" />
    <path
       id="path10"
       d="m 308.086,62.5781 -38.887,-0.0468 v 10.1562 l 38.887,0.0391 0.019,15.8593 37,-20.9492 -37,-20.9453 -0.019,15.8867"
       style="fill:#ffffff;fill-opacity:1;fill-rule:nonzero;stroke:none"
       transform="matrix(0.13333333,0,0,-0.13333333,0,41.733333)" />
    <path
       id="path11"
       d="M 239.148,34.2891 H 142.48 V 222.621 h 96.668 V 34.2891"
       style="fill:#000000;fill-opacity:1;fill-rule:nonzero;stroke:none"
       transform="matrix(0.13333333,0,0,-0.13333333,0,41.733333)" />
    <path
       id="path12"
       d="M 239.148,34.2891 H 142.48 V 222.621 h 96.668 z"
       style="fill:none;stroke:#ffffff;stroke-width:8;stroke-linecap:butt;stroke-linejoin:miter;stroke-miterlimit:4;stroke-dasharray:none;stroke-opacity:1"
       transform="matrix(0.13333333,0,0,-0.13333333,0,41.733333)" />
    <path
       id="path13"
       d="M 239.695,235.801 V 22.7656 l -98.289,0.0469 V 235.859 l 98.289,-0.058"
       style="fill:#000000;fill-opacity:1;fill-rule:nonzero;stroke:none"
       transform="matrix(0.13333333,0,0,-0.13333333,0,41.733333)" />
    <path
       id="path14"
       d="M 239.695,235.801 V 22.7656 l -98.289,0.0469 V 235.859 Z"
       style="fill:none;stroke:#ffffff;stroke-width:2.945;stroke-linecap:butt;stroke-linejoin:miter;stroke-miterlimit:4;stroke-dasharray:none;stroke-opacity:1"
       transform="matrix(0.13333333,0,0,-0.13333333,0,41.733333)" />
    <path
       id="path15"
       d="M 210.227,73.2734 V 44.9609 l -42.649,0.0313 v 28.3086 l 42.649,-0.0274"
       style="fill:#ffffff;fill-opacity:1;fill-rule:nonzero;stroke:none"
       transform="matrix(0.13333333,0,0,-0.13333333,0,41.733333)" />
    <path
       id="path16"
       d="M 210.227,73.2734 V 44.9609 l -42.649,0.0313 v 28.3086 z"
       style="fill:none;stroke:#ffffff;stroke-width:1.111;stroke-linecap:butt;stroke-linejoin:miter;stroke-miterlimit:4;stroke-dasharray:none;stroke-opacity:1"
       transform="matrix(0.13333333,0,0,-0.13333333,0,41.733333)" />
    <path
       id="path17"
       d="m 232.129,44.1914 v -8.4766 l -7.168,-0.0117 v 8.4883 h 7.168"
       style="fill:#ffffff;fill-opacity:1;fill-rule:nonzero;stroke:none"
       transform="matrix(0.13333333,0,0,-0.13333333,0,41.733333)" />
    <path
       id="path18"
       d="m 232.129,44.1914 v -8.4766 l -7.168,-0.0117 v 8.4883 z"
       style="fill:none;stroke:#ffffff;stroke-width:0.333;stroke-linecap:butt;stroke-linejoin:miter;stroke-miterlimit:4;stroke-dasharray:none;stroke-opacity:1"
       transform="matrix(0.13333333,0,0,-0.13333333,0,41.733333)" />
    <path
       id="path19"
       d="m 232.129,61.5352 v -8.4883 l -7.168,-0.0078 v 8.4961 h 7.168"
       style="fill:#ffffff;fill-opacity:1;fill-rule:nonzero;stroke:none"
       transform="matrix(0.13333333,0,0,-0.13333333,0,41.733333)" />
    <path
       id="path20"
       d="m 232.129,61.5352 v -8.4883 l -7.168,-0.0078 v 8.4961 z"
       style="fill:none;stroke:#ffffff;stroke-width:0.333;stroke-linecap:butt;stroke-linejoin:miter;stroke-miterlimit:4;stroke-dasharray:none;stroke-opacity:1"
       transform="matrix(0.13333333,0,0,-0.13333333,0,41.733333)" />
    <path
       id="path21"
       d="m 232.129,78.8789 v -8.4961 l -7.168,-0.0117 v 8.5078 h 7.168"
       style="fill:#ffffff;fill-opacity:1;fill-rule:nonzero;stroke:none"
       transform="matrix(0.13333333,0,0,-0.13333333,0,41.733333)" />
    <path
       id="path22"
       d="m 232.129,78.8789 v -8.4961 l -7.168,-0.0117 v 8.5078 z"
       style="fill:none;stroke:#ffffff;stroke-width:0.333;stroke-linecap:butt;stroke-linejoin:miter;stroke-miterlimit:4;stroke-dasharray:none;stroke-opacity:1"
       transform="matrix(0.13333333,0,0,-0.13333333,0,41.733333)" />
    <path
       id="path23"
       d="m 232.129,96.2109 v -8.4843 l -7.168,-0.0196 v 8.5039 h 7.168"
       style="fill:#ffffff;fill-opacity:1;fill-rule:nonzero;stroke:none"
       transform="matrix(0.13333333,0,0,-0.13333333,0,41.733333)" />
    <path
       id="path24"
       d="m 232.129,96.2109 v -8.4843 l -7.168,-0.0196 v 8.5039 z"
       style="fill:none;stroke:#ffffff;stroke-width:0.333;stroke-linecap:butt;stroke-linejoin:miter;stroke-miterlimit:4;stroke-dasharray:none;stroke-opacity:1"
       transform="matrix(0.13333333,0,0,-0.13333333,0,41.733333)" />
    <path
       id="path25"
       d="m 232.129,113.535 v -8.484 h -7.168 v 8.484 h 7.168"
       style="fill:#ffffff;fill-opacity:1;fill-rule:nonzero;stroke:none"
       transform="matrix(0.13333333,0,0,-0.13333333,0,41.733333)" />
    <path
       id="path26"
       d="m 232.129,113.535 v -8.484 h -7.168 v 8.484 z"
       style="fill:none;stroke:#ffffff;stroke-width:0.333;stroke-linecap:butt;stroke-linejoin:miter;stroke-miterlimit:4;stroke-dasharray:none;stroke-opacity:1"
       transform="matrix(0.13333333,0,0,-0.13333333,0,41.733333)" />
    <path
       id="path27"
       d="m 232.129,130.879 v -8.484 l -7.168,-0.02 v 8.496 l 7.168,0.008"
       style="fill:#ffffff;fill-opacity:1;fill-rule:nonzero;stroke:none"
       transform="matrix(0.13333333,0,0,-0.13333333,0,41.733333)" />
    <path
       id="path28"
       d="m 232.129,130.879 v -8.484 l -7.168,-0.02 v 8.496 z"
       style="fill:none;stroke:#ffffff;stroke-width:0.333;stroke-linecap:butt;stroke-linejoin:miter;stroke-miterlimit:4;stroke-dasharray:none;stroke-opacity:1"
       transform="matrix(0.13333333,0,0,-0.13333333,0,41.733333)" />
    <path
       id="path29"
       d="m 232.129,148.215 v -8.496 l -7.168,-0.012 v 8.508 h 7.168"
       style="fill:#ffffff;fill-opacity:1;fill-rule:nonzero;stroke:none"
       transform="matrix(0.13333333,0,0,-0.13333333,0,41.733333)" />
    <path
       id="path30"
       d="m 232.129,148.215 v -8.496 l -7.168,-0.012 v 8.508 z"
       style="fill:none;stroke:#ffffff;stroke-width:0.333;stroke-linecap:butt;stroke-linejoin:miter;stroke-miterlimit:4;stroke-dasharray:none;stroke-opacity:1"
       transform="matrix(0.13333333,0,0,-0.13333333,0,41.733333)" />
    <path
       id="path31"
       d="m 232.129,165.547 v -8.481 l -7.168,-0.019 v 8.5 h 7.168"
       style="fill:#ffffff;fill-opacity:1;fill-rule:nonzero;stroke:none"
       transform="matrix(0.13333333,0,0,-0.13333333,0,41.733333)" />
    <path
       id="path32"
       d="m 232.129,165.547 v -8.481 l -7.168,-0.019 v 8.5 z"
       style="fill:none;stroke:#ffffff;stroke-width:0.333;stroke-linecap:butt;stroke-linejoin:miter;stroke-miterlimit:4;stroke-dasharray:none;stroke-opacity:1"
       transform="matrix(0.13333333,0,0,-0.13333333,0,41.733333)" />
    <path
       id="path33"
       d="m 232.129,182.891 v -8.481 l -7.168,-0.031 v 8.508 l 7.168,0.004"
       style="fill:#ffffff;fill-opacity:1;fill-rule:nonzero;stroke:none"
       transform="matrix(0.13333333,0,0,-0.13333333,0,41.733333)" />
    <path
       id="path34"
       d="m 232.129,182.891 v -8.481 l -7.168,-0.031 v 8.508 z"
       style="fill:none;stroke:#ffffff;stroke-width:0.333;stroke-linecap:butt;stroke-linejoin:miter;stroke-miterlimit:4;stroke-dasharray:none;stroke-opacity:1"
       transform="matrix(0.13333333,0,0,-0.13333333,0,41.733333)" />
    <path
       id="path35"
       d="m 232.129,200.227 v -8.493 l -7.168,-0.015 v 8.492 l 7.168,0.016"
       style="fill:#ffffff;fill-opacity:1;fill-rule:nonzero;stroke:none"
       transform="matrix(0.13333333,0,0,-0.13333333,0,41.733333)" />
    <path
       id="path36"
       d="m 232.129,200.227 v -8.493 l -7.168,-0.015 v 8.492 z"
       style="fill:none;stroke:#ffffff;stroke-width:0.333;stroke-linecap:butt;stroke-linejoin:miter;stroke-miterlimit:4;stroke-dasharray:none;stroke-opacity:1"
       transform="matrix(0.13333333,0,0,-0.13333333,0,41.733333)" />
    <path
       id="path37"
       d="m 232.129,217.559 v -8.485 l -7.168,-0.011 v 8.492 l 7.168,0.004"
       style="fill:#ffffff;fill-opacity:1;fill-rule:nonzero;stroke:none"
       transform="matrix(0.13333333,0,0,-0.13333333,0,41.733333)" />
    <path
       id="path38"
       d="m 232.129,217.559 v -8.485 l -7.168,-0.011 v 8.492 z"
       style="fill:none;stroke:#ffffff;stroke-width:0.333;stroke-linecap:butt;stroke-linejoin:miter;stroke-miterlimit:4;stroke-dasharray:none;stroke-opacity:1"
       transform="matrix(0.13333333,0,0,-0.13333333,0,41.733333)" />
    <path
       id="path39"
       d="m 155.625,44.6602 v -8.4961 l -7.187,-0.0196 v 8.5157 h 7.187"
       style="fill:#ffffff;fill-opacity:1;fill-rule:nonzero;stroke:none"
       transform="matrix(0.13333333,0,0,-0.13333333,0,41.733333)" />
    <path
       id="path40"
       d="m 155.625,44.6602 v -8.4961 l -7.187,-0.0196 v 8.5157 z"
       style="fill:none;stroke:#ffffff;stroke-width:0.333;stroke-linecap:butt;stroke-linejoin:miter;stroke-miterlimit:4;stroke-dasharray:none;stroke-opacity:1"
       transform="matrix(0.13333333,0,0,-0.13333333,0,41.733333)" />
    <path
       id="path41"
       d="m 155.625,61.9922 v -8.4844 l -7.187,-0.0195 v 8.4961 l 7.187,0.0078"
       style="fill:#ffffff;fill-opacity:1;fill-rule:nonzero;stroke:none"
       transform="matrix(0.13333333,0,0,-0.13333333,0,41.733333)" />
    <path
       id="path42"
       d="m 155.625,61.9922 v -8.4844 l -7.187,-0.0195 v 8.4961 z"
       style="fill:none;stroke:#ffffff;stroke-width:0.333;stroke-linecap:butt;stroke-linejoin:miter;stroke-miterlimit:4;stroke-dasharray:none;stroke-opacity:1"
       transform="matrix(0.13333333,0,0,-0.13333333,0,41.733333)" />
    <path
       id="path43"
       d="m 155.625,79.3281 v -8.4765 l -7.187,-0.0313 v 8.5078 h 7.187"
       style="fill:#ffffff;fill-opacity:1;fill-rule:nonzero;stroke:none"
       transform="matrix(0.13333333,0,0,-0.13333333,0,41.733333)" />
    <path
       id="path44"
       d="m 155.625,79.3281 v -8.4765 l -7.187,-0.0313 v 8.5078 z"
       style="fill:none;stroke:#ffffff;stroke-width:0.333;stroke-linecap:butt;stroke-linejoin:miter;stroke-miterlimit:4;stroke-dasharray:none;stroke-opacity:1"
       transform="matrix(0.13333333,0,0,-0.13333333,0,41.733333)" />
    <path
       id="path45"
       d="m 155.625,96.6523 v -8.4765 l -7.187,-0.0195 v 8.5039 l 7.187,-0.0079"
       style="fill:#ffffff;fill-opacity:1;fill-rule:nonzero;stroke:none"
       transform="matrix(0.13333333,0,0,-0.13333333,0,41.733333)" />
    <path
       id="path46"
       d="m 155.625,96.6523 v -8.4765 l -7.187,-0.0195 v 8.5039 z"
       style="fill:none;stroke:#ffffff;stroke-width:0.333;stroke-linecap:butt;stroke-linejoin:miter;stroke-miterlimit:4;stroke-dasharray:none;stroke-opacity:1"
       transform="matrix(0.13333333,0,0,-0.13333333,0,41.733333)" />
    <path
       id="path47"
       d="m 155.625,113.996 v -8.476 l -7.187,-0.02 v 8.496 h 7.187"
       style="fill:#ffffff;fill-opacity:1;fill-rule:nonzero;stroke:none"
       transform="matrix(0.13333333,0,0,-0.13333333,0,41.733333)" />
    <path
       id="path48"
       d="m 155.625,113.996 v -8.476 l -7.187,-0.02 v 8.496 z"
       style="fill:none;stroke:#ffffff;stroke-width:0.333;stroke-linecap:butt;stroke-linejoin:miter;stroke-miterlimit:4;stroke-dasharray:none;stroke-opacity:1"
       transform="matrix(0.13333333,0,0,-0.13333333,0,41.733333)" />
    <path
       id="path49"
       d="m 155.625,131.34 v -8.496 l -7.187,-0.012 v 8.508 h 7.187"
       style="fill:#ffffff;fill-opacity:1;fill-rule:nonzero;stroke:none"
       transform="matrix(0.13333333,0,0,-0.13333333,0,41.733333)" />
    <path
       id="path50"
       d="m 155.625,131.34 v -8.496 l -7.187,-0.012 v 8.508 z"
       style="fill:none;stroke:#ffffff;stroke-width:0.333;stroke-linecap:butt;stroke-linejoin:miter;stroke-miterlimit:4;stroke-dasharray:none;stroke-opacity:1"
       transform="matrix(0.13333333,0,0,-0.13333333,0,41.733333)" />
    <path
       id="path51"
       d="m 155.625,148.664 v -8.488 h -7.187 v 8.496 l 7.187,-0.008"
       style="fill:#ffffff;fill-opacity:1;fill-rule:nonzero;stroke:none"
       transform="matrix(0.13333333,0,0,-0.13333333,0,41.733333)" />
    <path
       id="path52"
       d="m 155.625,148.664 v -8.488 h -7.187 v 8.496 z"
       style="fill:none;stroke:#ffffff;stroke-width:0.333;stroke-linecap:butt;stroke-linejoin:miter;stroke-miterlimit:4;stroke-dasharray:none;stroke-opacity:1"
       transform="matrix(0.13333333,0,0,-0.13333333,0,41.733333)" />
    <path
       id="path53"
       d="m 155.625,166.008 v -8.488 l -7.187,-0.016 v 8.512 l 7.187,-0.008"
       style="fill:#ffffff;fill-opacity:1;fill-rule:nonzero;stroke:none"
       transform="matrix(0.13333333,0,0,-0.13333333,0,41.733333)" />
    <path
       id="path54"
       d="m 155.625,166.008 v -8.488 l -7.187,-0.016 v 8.512 z"
       style="fill:none;stroke:#ffffff;stroke-width:0.333;stroke-linecap:butt;stroke-linejoin:miter;stroke-miterlimit:4;stroke-dasharray:none;stroke-opacity:1"
       transform="matrix(0.13333333,0,0,-0.13333333,0,41.733333)" />
    <path
       id="path55"
       d="m 155.625,183.336 v -8.481 l -7.187,-0.011 v 8.496 l 7.187,-0.004"
       style="fill:#ffffff;fill-opacity:1;fill-rule:nonzero;stroke:none"
       transform="matrix(0.13333333,0,0,-0.13333333,0,41.733333)" />
    <path
       id="path56"
       d="m 155.625,183.336 v -8.481 l -7.187,-0.011 v 8.496 z"
       style="fill:none;stroke:#ffffff;stroke-width:0.333;stroke-linecap:butt;stroke-linejoin:miter;stroke-miterlimit:4;stroke-dasharray:none;stroke-opacity:1"
       transform="matrix(0.13333333,0,0,-0.13333333,0,41.733333)" />
    <path
       id="path57"
       d="m 155.625,200.68 v -8.489 l -7.187,-0.003 v 8.492 h 7.187"
       style="fill:#ffffff;fill-opacity:1;fill-rule:nonzero;stroke:none"
       transform="matrix(0.13333333,0,0,-0.13333333,0,41.733333)" />
    <path
       id="path58"
       d="m 155.625,200.68 v -8.489 l -7.187,-0.003 v 8.492 z"
       style="fill:none;stroke:#ffffff;stroke-width:0.333;stroke-linecap:butt;stroke-linejoin:miter;stroke-miterlimit:4;stroke-dasharray:none;stroke-opacity:1"
       transform="matrix(0.13333333,0,0,-0.13333333,0,41.733333)" />
    <path
       id="path59"
       d="m 155.625,218.02 v -8.497 h -7.187 v 8.5 l 7.187,-0.003"
       style="fill:#ffffff;fill-opacity:1;fill-rule:nonzero;stroke:none"
       transform="matrix(0.13333333,0,0,-0.13333333,0,41.733333)" />
    <path
       id="path60"
       d="m 155.625,218.02 v -8.497 h -7.187 v 8.5 z"
       style="fill:none;stroke:#ffffff;stroke-width:0.333;stroke-linecap:butt;stroke-linejoin:miter;stroke-miterlimit:4;stroke-dasharray:none;stroke-opacity:1"
       transform="matrix(0.13333333,0,0,-0.13333333,0,41.733333)" />
    <path
       id="path61"
       d="M 210.227,119.504 V 91.1836 l -42.649,0.0273 v 28.3201 l 42.649,-0.027"
       style="fill:#ffffff;fill-opacity:1;fill-rule:nonzero;stroke:none"
       transform="matrix(0.13333333,0,0,-0.13333333,0,41.733333)" />
    <path
       id="path62"
       d="M 210.227,119.504 V 91.1836 l -42.649,0.0273 v 28.3201 z"
       style="fill:none;stroke:#ffffff;stroke-width:1.111;stroke-linecap:butt;stroke-linejoin:miter;stroke-miterlimit:4;stroke-dasharray:none;stroke-opacity:1"
       transform="matrix(0.13333333,0,0,-0.13333333,0,41.733333)" />
    <path
       id="path63"
       d="m 210.227,165.723 v -28.301 l -42.649,0.019 v 28.317 l 42.649,-0.035"
       style="fill:#ffffff;fill-opacity:1;fill-rule:nonzero;stroke:none"
       transform="matrix(0.13333333,0,0,-0.13333333,0,41.733333)" />
    <path
       id="path64"
       d="m 210.227,165.723 v -28.301 l -42.649,0.019 v 28.317 z"
       style="fill:none;stroke:#ffffff;stroke-width:1.111;stroke-linecap:butt;stroke-linejoin:miter;stroke-miterlimit:4;stroke-dasharray:none;stroke-opacity:1"
       transform="matrix(0.13333333,0,0,-0.13333333,0,41.733333)" />
    <path
       id="path65"
       d="m 210.227,211.953 v -28.305 l -42.649,0.028 v 28.32 l 42.649,-0.043"
       style="fill:#ffffff;fill-opacity:1;fill-rule:nonzero;stroke:none"
       transform="matrix(0.13333333,0,0,-0.13333333,0,41.733333)" />
    <path
       id="path66"
       d="m 210.227,211.953 v -28.305 l -42.649,0.028 v 28.32 z"
       style="fill:none;stroke:#ffffff;stroke-width:1.111;stroke-linecap:butt;stroke-linejoin:miter;stroke-miterlimit:4;stroke-dasharray:none;stroke-opacity:1"
       transform="matrix(0.13333333,0,0,-0.13333333,0,41.733333)" />
  </g>
</svg>
