<?xml version="1.0" encoding="UTF-8" standalone="no"?>
<!-- Created with Inkscape (http://www.inkscape.org/) -->

<svg
   version="1.1"
   id="svg1"
   width="89.373337"
   height="126.37333"
   viewBox="0 0 89.373337 126.37333"
   sodipodi:docname="svx.eps"
   xmlns:inkscape="http://www.inkscape.org/namespaces/inkscape"
   xmlns:sodipodi="http://sodipodi.sourceforge.net/DTD/sodipodi-0.dtd"
   xmlns="http://www.w3.org/2000/svg"
   xmlns:svg="http://www.w3.org/2000/svg">
  <defs
     id="defs1" />
  <sodipodi:namedview
     id="namedview1"
     pagecolor="#505050"
     bordercolor="#eeeeee"
     borderopacity="1"
     inkscape:showpageshadow="0"
     inkscape:pageopacity="0"
     inkscape:pagecheckerboard="0"
     inkscape:deskcolor="#d1d1d1">
    <inkscape:page
       x="0"
       y="0"
       inkscape:label="1"
       id="page1"
       width="89.373337"
       height="126.37333"
       margin="0"
       bleed="0" />
  </sodipodi:namedview>
  <g
     id="g1"
     inkscape:groupmode="layer"
     inkscape:label="1">
    <path
       id="path1"
       d="m 5.3685828,-4.6393656 c 0,-0.4453125 -0.035156,-0.5742188 -0.1757812,-0.8789063 -0.3632813,-0.75 -1.125,-1.1484375 -2.2265625,-1.1484375 -1.4414063,0 -2.33203129,0.7382813 -2.33203129,1.921875 0,0.8085938 0.42187499,1.3125 1.28906249,1.5351563 l 1.6289063,0.4335937 c 0.8320312,0.2109375 1.2070312,0.5507813 1.2070312,1.0546875 0,0.3515625 -0.1992187,0.7148438 -0.46875,0.91406252 -0.2695312,0.1875 -0.6796875,0.28125 -1.2070312,0.28125 -0.7265625,0 -1.1953125,-0.17578125 -1.5117188,-0.55078122 C 1.3256141,-1.3698344 1.2201453,-1.6862406 1.2201453,-2.0846781 H 0.43498906 c 0.0117188,0.5976562 0.12890625,0.9960937 0.38671875,1.35937497 0.44531249,0.62109375 1.20703129,0.9375 2.20312499,0.9375 0.7851563,0 1.4179688,-0.1875 1.8398438,-0.50390625 0.4453125,-0.3515625 0.7265625,-0.93750002 0.7265625,-1.51171872 0,-0.8085938 -0.5039063,-1.3945313 -1.3945313,-1.640625 L 2.5443641,-3.8893656 c -0.7851563,-0.2109375 -1.078125,-0.46875 -1.078125,-0.9726563 0,-0.6679687 0.5859375,-1.1015625 1.4648437,-1.1015625 1.0429688,0 1.6289063,0.46875 1.640625,1.3242188 z M 9.5316688,0.00125937 11.805106,-6.5612406 H 10.914481 L 9.098075,-1.0065531 7.1762,-6.5612406 H 6.2738563 L 8.629325,0.00125937 Z M 15.52288,-3.3620219 17.737723,-6.5612406 H 16.74163 l -1.6875,2.578125 -1.6875,-2.578125 h -1.019532 l 2.179688,3.1992187 -2.320313,3.36328127 h 1.019532 l 1.792968,-2.73046877 1.792969,2.73046877 h 1.03125 z m -37.913086,6.7998047 c -0.902344,1.1835938 -1.464844,2.8242188 -1.464844,4.2304688 0,1.4179687 0.5625,3.0585934 1.464844,4.2421874 h 0.492187 c -0.785156,-1.289062 -1.230468,-2.8007812 -1.230468,-4.2421874 0,-1.4296875 0.445312,-2.953125 1.230468,-4.2304688 z m 2.223633,1.8515625 h -0.75 v 4.7109377 h 0.75 z m 0,-1.8515625 h -0.75 v 0.9492188 h 0.75 z m 1.283203,1.8515625 v 4.7109377 h 0.75 V 7.3987203 c 0,-0.9609375 0.503906,-1.59375 1.277343,-1.59375 0.597657,0 0.972657,0.3632813 0.972657,0.9257813 v 3.2695314 h 0.75 V 6.4377828 c 0,-0.7851562 -0.585938,-1.2890625 -1.488282,-1.2890625 -0.703125,0 -1.160156,0.2695313 -1.570312,0.9257813 V 5.2893453 Z m 6.65625,0 h -0.773438 V 3.9885641 h -0.75 v 1.3007812 h -0.632812 v 0.609375 h 0.632812 v 3.5625 c 0,0.4804688 0.328125,0.7499997 0.914063,0.7499997 0.199218,0 0.363281,-0.02344 0.609375,-0.07031 V 9.5198141 c -0.105469,0.023437 -0.210938,0.035156 -0.363282,0.035156 -0.316406,0 -0.410156,-0.09375 -0.410156,-0.421875 v -3.234375 h 0.773438 z m 4.8339841,2.6015625 c 0,-0.7148437 -0.058594,-1.1484375 -0.1875,-1.5 -0.3046875,-0.7734375 -1.03125,-1.2421875 -1.9101563,-1.2421875 -1.3124998,0 -2.1562498,0.9960938 -2.1562498,2.5546875 0,1.5585938 0.808594,2.5078122 2.1445311,2.5078122 1.078125,0 1.8164062,-0.6210934 2.015625,-1.6406247 h -0.7617188 c -0.2109375,0.6210938 -0.6328125,0.9492188 -1.2304687,0.9492188 -0.4804688,0 -0.8789066,-0.2226563 -1.1367186,-0.6210938 -0.175781,-0.2695312 -0.246094,-0.5390625 -0.246094,-1.0078125 z m -3.4570311,-0.609375 c 0.05859,-0.8671875 0.597656,-1.4414062 1.3476561,-1.4414062 0.7734375,0 1.3007812,0.5976562 1.3007812,1.4414062 z m 4.4648436,-1.9921875 v 4.7109377 h 0.7617187 V 7.5510641 c 0,-1.1367188 0.46875,-1.640625 1.5117188,-1.6054688 V 5.1721578 c -0.1289063,-0.011719 -0.1992188,-0.023437 -0.2929688,-0.023437 -0.4921875,0 -0.8554687,0.2929688 -1.2890625,0.9960938 V 5.2893453 Z m 6.61816403,1.5820313 c -0.0351563,-0.4570313 -0.140625,-0.7617188 -0.31640625,-1.0195313 -0.328125,-0.4453125 -0.890625,-0.703125 -1.54687498,-0.703125 -1.2773438,0 -2.0976563,1.0078125 -2.0976563,2.578125 0,1.5117188 0.8085938,2.4843747 2.0859375,2.4843747 1.12500003,0 1.83984378,-0.6796872 1.92187503,-1.8281247 h -0.75 c -0.12890625,0.75 -0.515625,1.1367188 -1.14843753,1.1367188 -0.8320312,0 -1.3242187,-0.6796875 -1.3242187,-1.7929688 0,-1.1835937 0.4804687,-1.8867187 1.3007812,-1.8867187 0.6328125,0 1.03125003,0.375 1.11328128,1.03125 z M 1.1234656,3.4377828 v 6.5625002 h 0.75 V 7.3987203 c 0,-0.9609375 0.5039063,-1.59375 1.2773438,-1.59375 0.2460937,0 0.4804687,0.070312 0.65625,0.2109375 0.2226562,0.1640625 0.3164062,0.3867188 0.3164062,0.7148438 V 10.000283 H 4.8617469 V 6.4377828 c 0,-0.796875 -0.5625,-1.2890625 -1.4765625,-1.2890625 -0.6679688,0 -1.078125,0.2109375 -1.5117188,0.7851563 V 3.4377828 Z m 9.1875004,6.1171875 c -0.08203,0.023437 -0.117188,0.023437 -0.164063,0.023437 -0.2578124,0 -0.4101561,-0.140625 -0.4101561,-0.375 v -2.765625 c 0,-0.84375 -0.609375,-1.2890625 -1.7695313,-1.2890625 -0.6914062,0 -1.2421875,0.1992188 -1.5585937,0.5507813 -0.2226563,0.2460937 -0.3164063,0.515625 -0.328125,0.984375 h 0.75 c 0.070312,-0.5859375 0.4101562,-0.84375 1.1132812,-0.84375 0.6796875,0 1.0546875,0.2578125 1.0546875,0.703125 V 6.7424703 C 8.9867469,7.0705953 8.8226844,7.1877828 8.2133094,7.2698141 7.1469031,7.3987203 6.9828406,7.4338766 6.7015906,7.5510641 6.1508094,7.7854391 5.8695594,8.1955953 5.8695594,8.8166891 c 0,0.8554687 0.5976562,1.3945309 1.546875,1.3945309 0.5976562,0 1.078125,-0.210937 1.6054687,-0.6914059 0.058594,0.4804689 0.2929688,0.6914059 0.7734375,0.6914059 0.1640625,0 0.2578124,-0.02344 0.5156254,-0.08203 z M 8.9984656,8.5120016 c 0,0.2578125 -0.070312,0.4101562 -0.3046875,0.6210937 -0.3046875,0.2695313 -0.6679687,0.421875 -1.1132812,0.421875 -0.5859375,0 -0.9257813,-0.28125 -0.9257813,-0.7617187 0,-0.4921875 0.328125,-0.75 1.1367188,-0.8671875 0.796875,-0.1054688 0.9492187,-0.140625 1.2070312,-0.2578125 z M 11.131278,5.2893453 v 4.7109377 h 0.75 V 7.3987203 c 0,-0.9609375 0.503906,-1.59375 1.277344,-1.59375 0.597656,0 0.972656,0.3632813 0.972656,0.9257813 v 3.2695314 h 0.75 V 6.4377828 c 0,-0.7851562 -0.585937,-1.2890625 -1.488281,-1.2890625 -0.703125,0 -1.160156,0.2695313 -1.570313,0.9257813 V 5.2893453 Z m 8.003906,0 v 0.6796875 c -0.375,-0.5625 -0.785156,-0.8203125 -1.382812,-0.8203125 -1.148438,0 -1.933594,1.0664063 -1.933594,2.578125 0,0.7851563 0.1875,1.359375 0.597656,1.8398438 0.351563,0.4101562 0.796875,0.6445309 1.277344,0.6445309 0.574219,0 0.972656,-0.2578122 1.371094,-0.8554684 v 0.2460937 c 0,1.2656247 -0.351563,1.7343747 -1.289063,1.7343747 -0.632812,0 -0.972656,-0.257812 -1.042968,-0.796875 h -0.761719 c 0.07031,0.878907 0.761719,1.417969 1.792969,1.417969 0.691406,0 1.265625,-0.222656 1.570312,-0.597656 0.363281,-0.445313 0.492188,-1.03125 0.492188,-2.1328127 v -3.9375 z m -1.3125,0.5507813 c 0.796875,0 1.242188,0.6679687 1.242188,1.8632812 0,1.1484375 -0.457031,1.8164063 -1.242188,1.8164063 -0.773437,0 -1.21875,-0.6796875 -1.21875,-1.8398438 0,-1.1484375 0.445313,-1.8398437 1.21875,-1.8398437 z m 7.300782,2.0507812 c 0,-0.7148437 -0.05859,-1.1484375 -0.1875,-1.5 -0.304688,-0.7734375 -1.03125,-1.2421875 -1.910157,-1.2421875 -1.3125,0 -2.15625,0.9960938 -2.15625,2.5546875 0,1.5585938 0.808594,2.5078122 2.144532,2.5078122 1.078125,0 1.816406,-0.6210934 2.015625,-1.6406247 h -0.761719 c -0.210938,0.6210938 -0.632813,0.9492188 -1.230469,0.9492188 -0.480469,0 -0.878906,-0.2226563 -1.136719,-0.6210938 C 21.725028,8.6291891 21.654716,8.3596578 21.654716,7.8909078 Z m -3.457032,-0.609375 c 0.05859,-0.8671875 0.597657,-1.4414062 1.347657,-1.4414062 0.773437,0 1.300781,0.5976562 1.300781,1.4414062 z m 8.660157,2.2734375 c -0.08203,0.023437 -0.117188,0.023437 -0.164063,0.023437 -0.257812,0 -0.410156,-0.140625 -0.410156,-0.375 v -2.765625 c 0,-0.84375 -0.609375,-1.2890625 -1.769531,-1.2890625 -0.691407,0 -1.242188,0.1992188 -1.558594,0.5507813 -0.222656,0.2460937 -0.316406,0.515625 -0.328125,0.984375 h 0.75 c 0.07031,-0.5859375 0.410156,-0.84375 1.113281,-0.84375 0.679688,0 1.054688,0.2578125 1.054688,0.703125 v 0.1992187 c -0.01172,0.328125 -0.175782,0.4453125 -0.785157,0.5273438 -1.066406,0.1289062 -1.230468,0.1640625 -1.511718,0.28125 -0.550782,0.234375 -0.832032,0.6445312 -0.832032,1.265625 0,0.8554687 0.597657,1.3945304 1.546875,1.3945304 0.597657,0 1.078125,-0.210937 1.605469,-0.6914054 0.05859,0.4804684 0.292969,0.6914054 0.773438,0.6914054 0.164062,0 0.257812,-0.02344 0.515625,-0.08203 z m -1.3125,-1.0429687 c 0,0.2578125 -0.07031,0.4101562 -0.304688,0.6210937 -0.304687,0.2695313 -0.667969,0.421875 -1.113281,0.421875 -0.585938,0 -0.925781,-0.28125 -0.925781,-0.7617187 0,-0.4921875 0.328125,-0.75 1.136718,-0.8671875 0.796875,-0.1054688 0.949219,-0.140625 1.207032,-0.2578125 z m 1.980468,-5.0742188 v 6.5625002 h 0.679688 V 9.4026266 c 0.363281,0.5390625 0.832031,0.8085934 1.5,0.8085934 1.242187,0 2.050781,-1.0195309 2.050781,-2.5898434 0,-1.5234375 -0.773437,-2.4726563 -2.015625,-2.4726563 -0.65625,0 -1.113281,0.2460938 -1.464844,0.7734375 v -2.484375 z m 2.0625,2.4140625 c 0.84375,0 1.382813,0.7265625 1.382813,1.8515625 0,1.078125 -0.5625,1.8046875 -1.382813,1.8046875 -0.796875,0 -1.3125,-0.7265625 -1.3125,-1.828125 0,-1.1132812 0.515625,-1.828125 1.3125,-1.828125 z m 3.832032,-2.4140625 h -0.761719 v 6.5625002 h 0.761719 z m 5.24414,4.453125 c 0,-0.7148437 -0.05859,-1.1484375 -0.1875,-1.5 -0.304687,-0.7734375 -1.03125,-1.2421875 -1.910156,-1.2421875 -1.3125,0 -2.15625,0.9960938 -2.15625,2.5546875 0,1.5585938 0.808594,2.5078122 2.144531,2.5078122 1.078125,0 1.816407,-0.6210934 2.015625,-1.6406247 h -0.761718 c -0.210938,0.6210938 -0.632813,0.9492188 -1.230469,0.9492188 -0.480469,0 -0.878906,-0.2226563 -1.136719,-0.6210938 C 38.734794,8.6291891 38.664481,8.3596578 38.664481,7.8909078 Z M 38.6762,7.2815328 c 0.05859,-0.8671875 0.597656,-1.4414062 1.347656,-1.4414062 0.773438,0 1.300782,0.5976562 1.300782,1.4414062 z m -55.453125,12.7177732 1.394531,-4.710937 h -0.84375 l -0.9375,3.667968 -0.925781,-3.667968 h -0.925781 l -0.902344,3.667968 -0.960937,-3.667968 H -21.6988 l 1.359375,4.710937 h 0.855469 l 0.902344,-3.703125 0.960937,3.703125 z m 2.865234,-4.710937 h -0.75 v 4.710937 h 0.75 z m 0,-1.851563 h -0.75 v 0.949219 h 0.75 z m 2.935547,1.851563 h -0.773437 v -1.300782 h -0.75 v 1.300782 h -0.632813 v 0.609375 h 0.632813 v 3.5625 c 0,0.480468 0.328125,0.75 0.914062,0.75 0.199219,0 0.363282,-0.02344 0.609375,-0.07031 V 19.51884 c -0.105468,0.02344 -0.210937,0.03516 -0.363281,0.03516 -0.316406,0 -0.410156,-0.09375 -0.410156,-0.421875 V 15.89775 h 0.773437 z m 0.84961,-1.851563 v 6.5625 h 0.7499996 v -2.601562 c 0,-0.960938 0.5039063,-1.59375 1.2773438,-1.59375 0.2460937,0 0.4804687,0.07031 0.65625,0.210937 0.2226562,0.164063 0.3164062,0.386719 0.3164062,0.714844 v 3.269531 h 0.7382813 v -3.5625 c 0,-0.796875 -0.5625,-1.289062 -1.4765625,-1.289062 -0.6679688,0 -1.078125,0.210937 -1.5117188,0.785156 v -2.496094 z m 8.5253903,3.574219 h 3.5625 v -0.738281 h -3.5625 v -2.097657 h 3.703125 v -0.738281 h -4.546875 v 6.5625 h 4.7109375 v -0.738281 h -3.8671875 z m 4.9833984,-1.722656 v 4.710937 h 0.75 v -2.601562 c 0,-0.960938 0.5039062,-1.59375 1.2773437,-1.59375 0.5976563,0 0.9726563,0.363281 0.9726563,0.925781 v 3.269531 h 0.75 v -3.5625 c 0,-0.785156 -0.5859375,-1.289062 -1.4882813,-1.289062 -0.703125,0 -1.1601562,0.269531 -1.5703125,0.925781 v -0.785156 z m 8.8242183,-1.851563 h -0.75 v 2.4375 c -0.304687,-0.46875 -0.808593,-0.726562 -1.441406,-0.726562 -1.2304686,0 -2.0273436,0.984375 -2.0273436,2.484375 0,1.59375 0.7734375,2.578125 2.0507816,2.578125 0.644531,0 1.101562,-0.246094 1.5,-0.832032 v 0.621094 h 0.667968 z m -2.0625,2.414063 c 0.808594,0 1.3125,0.714843 1.3125,1.839843 0,1.089844 -0.515625,1.816407 -1.3125,1.816407 -0.8203121,0 -1.3710933,-0.726563 -1.3710933,-1.828125 0,-1.101563 0.5507812,-1.828125 1.3710933,-1.828125 z m 7.564454,-0.703125 c -1.335938,0 -2.121094,0.949218 -2.121094,2.53125 0,1.59375 0.785156,2.53125 2.132812,2.53125 1.324219,0 2.132813,-0.949219 2.132813,-2.496094 0,-1.640625 -0.773438,-2.566406 -2.144531,-2.566406 z m 0.01172,0.691406 c 0.84375,0 1.347657,0.691406 1.347657,1.863281 0,1.113281 -0.527344,1.816406 -1.347657,1.816406 -0.84375,0 -1.359375,-0.703125 -1.359375,-1.839843 0,-1.148438 0.515625,-1.839844 1.359375,-1.839844 z m 4.863282,-0.550781 H 21.79827 v -0.738282 c 0,-0.316406 0.175782,-0.480468 0.527344,-0.480468 0.05859,0 0.09375,0 0.257813,0.01172 v -0.621093 c -0.164063,-0.03516 -0.269532,-0.04687 -0.421875,-0.04687 -0.691407,0 -1.101563,0.398437 -1.101563,1.066406 v 0.808594 h -0.632812 v 0.609375 h 0.632812 v 4.101562 h 0.738281 v -4.101562 h 0.785157 z m 2.501953,0 h -0.785157 v -0.738282 c 0,-0.316406 0.175782,-0.480468 0.527344,-0.480468 0.05859,0 0.09375,0 0.257813,0.01172 v -0.621093 c -0.164063,-0.03516 -0.269532,-0.04687 -0.421875,-0.04687 -0.691407,0 -1.101563,0.398437 -1.101563,1.066406 v 0.808594 H 22.92913 v 0.609375 h 0.632812 v 4.101562 h 0.738281 v -4.101562 h 0.785157 z m 1.529297,0 h -0.75 v 4.710937 h 0.75 z m 0,-1.851563 h -0.75 v 0.949219 h 0.75 z m 4.892578,3.433594 c -0.03516,-0.457031 -0.140625,-0.761719 -0.316407,-1.019531 -0.328125,-0.445313 -0.890625,-0.703125 -1.546875,-0.703125 -1.277343,0 -2.097656,1.007812 -2.097656,2.578125 0,1.511718 0.808594,2.484375 2.085938,2.484375 1.125,0 1.839843,-0.679688 1.921875,-1.828125 h -0.75 c -0.128907,0.75 -0.515625,1.136718 -1.148438,1.136718 -0.832031,0 -1.324219,-0.679687 -1.324219,-1.792968 0,-1.183594 0.480469,-1.886719 1.300782,-1.886719 0.632812,0 1.03125,0.375 1.113281,1.03125 z m 4.875,1.019531 c 0,-0.714844 -0.05859,-1.148437 -0.1875,-1.5 -0.304688,-0.773437 -1.03125,-1.242187 -1.910157,-1.242187 -1.3125,0 -2.15625,0.996093 -2.15625,2.554687 0,1.558594 0.808594,2.507813 2.144532,2.507813 1.078125,0 1.816406,-0.621094 2.015625,-1.640625 h -0.761719 c -0.210938,0.621093 -0.632813,0.949218 -1.230469,0.949218 -0.480469,0 -0.878906,-0.222656 -1.136719,-0.621093 -0.175781,-0.269532 -0.246093,-0.539063 -0.246093,-1.007813 z m -3.457032,-0.609375 c 0.05859,-0.867187 0.597657,-1.441406 1.347657,-1.441406 0.773437,0 1.300781,0.597656 1.300781,1.441406 z m 4.675782,4.628906 c 0.902343,-1.183593 1.476562,-2.824218 1.476562,-4.230468 0,-1.417969 -0.574219,-3.058594 -1.476562,-4.242188 h -0.492188 c 0.796875,1.289063 1.230469,2.800781 1.230469,4.242188 0,1.429687 -0.433594,2.953125 -1.230469,4.230468 z m 0,0"
       style="fill:#000000;fill-opacity:1;fill-rule:nonzero;stroke:none"
       aria-label="SVX&#10;(interchangeable&#10;with End office)"
       transform="matrix(1.3333333,0,0,1.3333333,32.681733,97.006133)" />
    <path
       id="path2"
       d="m 200.145,679.426 h 216 v 219.746 h -216 z"
       style="fill:#036998;fill-opacity:1;fill-rule:nonzero;stroke:none"
       transform="matrix(0.13333333,0,0,-0.13333333,0,126.37333)" />
    <path
       id="path3"
       d="m 416.145,679.426 v 219.746 h -216 V 679.426 Z"
       style="fill:none;stroke:#ffffff;stroke-width:3.99994;stroke-linecap:butt;stroke-linejoin:miter;stroke-miterlimit:4;stroke-dasharray:none;stroke-opacity:1"
       transform="matrix(0.13333333,0,0,-0.13333333,0,126.37333)" />
    <path
       id="path4"
       d="m 313.137,825.664 h 66.414"
       style="fill:#000000;fill-opacity:1;fill-rule:nonzero;stroke:#ffffff;stroke-width:3.99994;stroke-linecap:butt;stroke-linejoin:miter;stroke-miterlimit:4;stroke-dasharray:none;stroke-opacity:1"
       transform="matrix(0.13333333,0,0,-0.13333333,0,126.37333)" />
    <path
       id="path5"
       d="m 313.137,749.211 h 66.414"
       style="fill:#000000;fill-opacity:1;fill-rule:nonzero;stroke:#ffffff;stroke-width:3.99994;stroke-linecap:butt;stroke-linejoin:miter;stroke-miterlimit:4;stroke-dasharray:none;stroke-opacity:1"
       transform="matrix(0.13333333,0,0,-0.13333333,0,126.37333)" />
    <path
       id="path6"
       d="m 292.766,787.148 v 66.418"
       style="fill:#000000;fill-opacity:1;fill-rule:nonzero;stroke:#ffffff;stroke-width:3.99994;stroke-linecap:butt;stroke-linejoin:miter;stroke-miterlimit:4;stroke-dasharray:none;stroke-opacity:1"
       transform="matrix(0.13333333,0,0,-0.13333333,0,126.37333)" />
    <path
       id="path7"
       d="M 351.453,787.637 V 721.23"
       style="fill:none;stroke:#ffffff;stroke-width:10;stroke-linecap:butt;stroke-linejoin:miter;stroke-miterlimit:4;stroke-dasharray:none;stroke-opacity:1"
       transform="matrix(0.13333333,0,0,-0.13333333,0,126.37333)" />
    <path
       id="path8"
       d="M 275.73,787.637 V 721.23"
       style="fill:#000000;fill-opacity:1;fill-rule:nonzero;stroke:#ffffff;stroke-width:3.99994;stroke-linecap:butt;stroke-linejoin:miter;stroke-miterlimit:4;stroke-dasharray:none;stroke-opacity:1"
       transform="matrix(0.13333333,0,0,-0.13333333,0,126.37333)" />
    <path
       id="path9"
       d="M 314.082,825.488 H 247.664"
       style="fill:#000000;fill-opacity:1;fill-rule:nonzero;stroke:#ffffff;stroke-width:3.99994;stroke-linecap:butt;stroke-linejoin:miter;stroke-miterlimit:4;stroke-dasharray:none;stroke-opacity:1"
       transform="matrix(0.13333333,0,0,-0.13333333,0,126.37333)" />
    <path
       id="path10"
       d="M 460.383,942.922 V 724.551 l -44.492,-45 v 218.625 l 44.492,44.746"
       style="fill:#036998;fill-opacity:1;fill-rule:nonzero;stroke:none"
       transform="matrix(0.13333333,0,0,-0.13333333,0,126.37333)" />
    <path
       id="path11"
       d="M 460.383,942.922 V 724.551 l -44.492,-45 v 218.625 z"
       style="fill:none;stroke:#ffffff;stroke-width:3.99994;stroke-linecap:butt;stroke-linejoin:miter;stroke-miterlimit:4;stroke-dasharray:none;stroke-opacity:1"
       transform="matrix(0.13333333,0,0,-0.13333333,0,126.37333)" />
    <path
       id="path12"
       d="m 415.891,898.176 -0.508,1.25 H 200.391 l 54.504,43.496 h 205.488 l -44.492,-44.746"
       style="fill:#036998;fill-opacity:1;fill-rule:nonzero;stroke:none"
       transform="matrix(0.13333333,0,0,-0.13333333,0,126.37333)" />
    <path
       id="path13"
       d="m 415.891,898.176 -0.508,1.25 H 200.391 l 54.504,43.496 h 205.488 z"
       style="fill:none;stroke:#ffffff;stroke-width:3.99994;stroke-linecap:butt;stroke-linejoin:miter;stroke-miterlimit:4;stroke-dasharray:none;stroke-opacity:1"
       transform="matrix(0.13333333,0,0,-0.13333333,0,126.37333)" />
    <path
       id="path14"
       d="m 310.105,827.832 h 70.168"
       style="fill:none;stroke:#ffffff;stroke-width:10;stroke-linecap:butt;stroke-linejoin:miter;stroke-miterlimit:4;stroke-dasharray:none;stroke-opacity:1"
       transform="matrix(0.13333333,0,0,-0.13333333,0,126.37333)" />
    <path
       id="path15"
       d="m 378.992,847.785 v -38.449 l 23.176,18.469 -23.176,19.98"
       style="fill:#ffffff;fill-opacity:1;fill-rule:nonzero;stroke:none"
       transform="matrix(0.13333333,0,0,-0.13333333,0,126.37333)" />
    <path
       id="path16"
       d="m 378.992,847.785 v -38.449 l 23.176,18.469 z"
       style="fill:none;stroke:#ffffff;stroke-width:3.99994;stroke-linecap:butt;stroke-linejoin:miter;stroke-miterlimit:4;stroke-dasharray:none;stroke-opacity:1"
       transform="matrix(0.13333333,0,0,-0.13333333,0,126.37333)" />
    <path
       id="path17"
       d="m 310.105,751.387 h 73.918"
       style="fill:none;stroke:#ffffff;stroke-width:10;stroke-linecap:butt;stroke-linejoin:miter;stroke-miterlimit:4;stroke-dasharray:none;stroke-opacity:1"
       transform="matrix(0.13333333,0,0,-0.13333333,0,126.37333)" />
    <path
       id="path18"
       d="m 378.992,771.621 v -38.457 l 23.176,18.477 -23.176,19.98"
       style="fill:#ffffff;fill-opacity:1;fill-rule:nonzero;stroke:none"
       transform="matrix(0.13333333,0,0,-0.13333333,0,126.37333)" />
    <path
       id="path19"
       d="m 378.992,771.621 v -38.457 l 23.176,18.477 z"
       style="fill:none;stroke:#ffffff;stroke-width:3.99994;stroke-linecap:butt;stroke-linejoin:miter;stroke-miterlimit:4;stroke-dasharray:none;stroke-opacity:1"
       transform="matrix(0.13333333,0,0,-0.13333333,0,126.37333)" />
    <path
       id="path20"
       d="M 289.734,789.328 V 852.09"
       style="fill:none;stroke:#ffffff;stroke-width:10;stroke-linecap:butt;stroke-linejoin:miter;stroke-miterlimit:4;stroke-dasharray:none;stroke-opacity:1"
       transform="matrix(0.13333333,0,0,-0.13333333,0,126.37333)" />
    <path
       id="path21"
       d="m 329.578,787.148 v 66.418"
       style="fill:none;stroke:#ffffff;stroke-width:10;stroke-linecap:butt;stroke-linejoin:miter;stroke-miterlimit:4;stroke-dasharray:none;stroke-opacity:1"
       transform="matrix(0.13333333,0,0,-0.13333333,0,126.37333)" />
    <path
       id="path22"
       d="M 326.555,789.328 V 852.09"
       style="fill:#000000;fill-opacity:1;fill-rule:nonzero;stroke:#ffffff;stroke-width:3.99994;stroke-linecap:butt;stroke-linejoin:miter;stroke-miterlimit:4;stroke-dasharray:none;stroke-opacity:1"
       transform="matrix(0.13333333,0,0,-0.13333333,0,126.37333)" />
    <path
       id="path23"
       d="M 348.43,789.816 V 718.398"
       style="fill:#000000;fill-opacity:1;fill-rule:nonzero;stroke:#ffffff;stroke-width:3.99994;stroke-linecap:butt;stroke-linejoin:miter;stroke-miterlimit:4;stroke-dasharray:none;stroke-opacity:1"
       transform="matrix(0.13333333,0,0,-0.13333333,0,126.37333)" />
    <path
       id="path24"
       d="m 367.742,721.242 h -38.457 l 18.653,-23.176 19.804,23.176"
       style="fill:#ffffff;fill-opacity:1;fill-rule:nonzero;stroke:none"
       transform="matrix(0.13333333,0,0,-0.13333333,0,126.37333)" />
    <path
       id="path25"
       d="m 367.742,721.242 h -38.457 l 18.653,-23.176 z"
       style="fill:none;stroke:#ffffff;stroke-width:3.99994;stroke-linecap:butt;stroke-linejoin:miter;stroke-miterlimit:4;stroke-dasharray:none;stroke-opacity:1"
       transform="matrix(0.13333333,0,0,-0.13333333,0,126.37333)" />
    <path
       id="path26"
       d="M 272.703,789.816 V 718.398"
       style="fill:none;stroke:#ffffff;stroke-width:10;stroke-linecap:butt;stroke-linejoin:miter;stroke-miterlimit:4;stroke-dasharray:none;stroke-opacity:1"
       transform="matrix(0.13333333,0,0,-0.13333333,0,126.37333)" />
    <path
       id="path27"
       d="m 292.41,721.242 h -38.457 l 18.652,-23.176 19.805,23.176"
       style="fill:#ffffff;fill-opacity:1;fill-rule:nonzero;stroke:none"
       transform="matrix(0.13333333,0,0,-0.13333333,0,126.37333)" />
    <path
       id="path28"
       d="m 292.41,721.242 h -38.457 l 18.652,-23.176 z"
       style="fill:none;stroke:#ffffff;stroke-width:3.99994;stroke-linecap:butt;stroke-linejoin:miter;stroke-miterlimit:4;stroke-dasharray:none;stroke-opacity:1"
       transform="matrix(0.13333333,0,0,-0.13333333,0,126.37333)" />
    <path
       id="path29"
       d="M 311.063,751.406 H 239.641"
       style="fill:none;stroke:#ffffff;stroke-width:10;stroke-linecap:butt;stroke-linejoin:miter;stroke-miterlimit:4;stroke-dasharray:none;stroke-opacity:1"
       transform="matrix(0.13333333,0,0,-0.13333333,0,126.37333)" />
    <path
       id="path30"
       d="m 241.941,731.191 v 38.457 l -23.164,-18.464 23.164,-19.993"
       style="fill:#ffffff;fill-opacity:1;fill-rule:nonzero;stroke:none"
       transform="matrix(0.13333333,0,0,-0.13333333,0,126.37333)" />
    <path
       id="path31"
       d="m 241.941,731.191 v 38.457 l -23.164,-18.464 z"
       style="fill:none;stroke:#ffffff;stroke-width:3.99994;stroke-linecap:butt;stroke-linejoin:miter;stroke-miterlimit:4;stroke-dasharray:none;stroke-opacity:1"
       transform="matrix(0.13333333,0,0,-0.13333333,0,126.37333)" />
    <path
       id="path32"
       d="M 311.063,827.656 H 239.641"
       style="fill:none;stroke:#ffffff;stroke-width:10;stroke-linecap:butt;stroke-linejoin:miter;stroke-miterlimit:4;stroke-dasharray:none;stroke-opacity:1"
       transform="matrix(0.13333333,0,0,-0.13333333,0,126.37333)" />
    <path
       id="path33"
       d="m 241.941,807.441 v 38.457 l -23.164,-18.464 23.164,-19.993"
       style="fill:#ffffff;fill-opacity:1;fill-rule:nonzero;stroke:none"
       transform="matrix(0.13333333,0,0,-0.13333333,0,126.37333)" />
    <path
       id="path34"
       d="m 241.941,807.441 v 38.457 l -23.164,-18.464 z"
       style="fill:none;stroke:#ffffff;stroke-width:3.99994;stroke-linecap:butt;stroke-linejoin:miter;stroke-miterlimit:4;stroke-dasharray:none;stroke-opacity:1"
       transform="matrix(0.13333333,0,0,-0.13333333,0,126.37333)" />
    <path
       id="path35"
       d="m 310.145,743.293 c 25.343,0 45.89,20.535 45.89,45.879 0,25.34 -20.547,45.887 -45.89,45.887 -25.332,0 -45.875,-20.547 -45.875,-45.887 0,-25.344 20.543,-45.879 45.875,-45.879"
       style="fill:#036998;fill-opacity:1;fill-rule:nonzero;stroke:none"
       transform="matrix(0.13333333,0,0,-0.13333333,0,126.37333)" />
    <path
       id="path36"
       d="m 310.145,743.293 c 25.343,0 45.89,20.535 45.89,45.879 0,25.34 -20.547,45.887 -45.89,45.887 -25.332,0 -45.875,-20.547 -45.875,-45.887 0,-25.344 20.543,-45.879 45.875,-45.879 z"
       style="fill:none;stroke:#ffffff;stroke-width:3.99994;stroke-linecap:butt;stroke-linejoin:miter;stroke-miterlimit:4;stroke-dasharray:none;stroke-opacity:1"
       transform="matrix(0.13333333,0,0,-0.13333333,0,126.37333)" />
    <path
       id="path37"
       d="m 372.695,853.32 c 1.336,0 2.422,1.094 2.422,2.422 v 22.969 c 0,1.328 -1.086,2.414 -2.422,2.414 H 250.332 c -1.34,0 -2.422,-1.086 -2.422,-2.414 v -22.969 c 0,-1.328 1.082,-2.422 2.422,-2.422 h 22.781 v 8.008 h 72.805 v -8.008 h 26.777"
       style="fill:#ffffff;fill-opacity:1;fill-rule:nonzero;stroke:none"
       transform="matrix(0.13333333,0,0,-0.13333333,0,126.37333)" />
    <path
       id="path38"
       d="m 372.695,853.32 c 1.336,0 2.422,1.094 2.422,2.422 v 22.969 c 0,1.328 -1.086,2.414 -2.422,2.414 H 250.332 c -1.34,0 -2.422,-1.086 -2.422,-2.414 v -22.969 c 0,-1.328 1.082,-2.422 2.422,-2.422 h 22.781 v 8.008 h 72.805 v -8.008 z"
       style="fill:none;stroke:#ffffff;stroke-width:3.99994;stroke-linecap:butt;stroke-linejoin:miter;stroke-miterlimit:4;stroke-dasharray:none;stroke-opacity:1"
       transform="matrix(0.13333333,0,0,-0.13333333,0,126.37333)" />
    <path
       id="path39"
       d="m 288.984,804.902 h 5.625 v 5.625 h -5.625 z"
       style="fill:#000000;fill-opacity:1;fill-rule:nonzero;stroke:none"
       transform="matrix(0.13333333,0,0,-0.13333333,0,126.37333)" />
    <path
       id="path40"
       d="m 294.609,804.902 h -5.625 v 5.625 h 5.625 z"
       style="fill:none;stroke:#ffffff;stroke-width:3.99994;stroke-linecap:butt;stroke-linejoin:miter;stroke-miterlimit:4;stroke-dasharray:none;stroke-opacity:1"
       transform="matrix(0.13333333,0,0,-0.13333333,0,126.37333)" />
    <path
       id="path41"
       d="m 288.984,792.402 h 5.625 v 5.625 h -5.625 z"
       style="fill:#000000;fill-opacity:1;fill-rule:nonzero;stroke:none"
       transform="matrix(0.13333333,0,0,-0.13333333,0,126.37333)" />
    <path
       id="path42"
       d="m 294.609,792.402 h -5.625 v 5.625 h 5.625 z"
       style="fill:none;stroke:#ffffff;stroke-width:3.99994;stroke-linecap:butt;stroke-linejoin:miter;stroke-miterlimit:4;stroke-dasharray:none;stroke-opacity:1"
       transform="matrix(0.13333333,0,0,-0.13333333,0,126.37333)" />
    <path
       id="path43"
       d="m 288.984,779.902 h 5.625 v 5.625 h -5.625 z"
       style="fill:#000000;fill-opacity:1;fill-rule:nonzero;stroke:none"
       transform="matrix(0.13333333,0,0,-0.13333333,0,126.37333)" />
    <path
       id="path44"
       d="m 294.609,779.902 h -5.625 v 5.625 h 5.625 z"
       style="fill:none;stroke:#ffffff;stroke-width:3.99994;stroke-linecap:butt;stroke-linejoin:miter;stroke-miterlimit:4;stroke-dasharray:none;stroke-opacity:1"
       transform="matrix(0.13333333,0,0,-0.13333333,0,126.37333)" />
    <path
       id="path45"
       d="m 288.984,767.402 h 5.625 v 5.625 h -5.625 z"
       style="fill:#000000;fill-opacity:1;fill-rule:nonzero;stroke:none"
       transform="matrix(0.13333333,0,0,-0.13333333,0,126.37333)" />
    <path
       id="path46"
       d="m 294.609,767.402 h -5.625 v 5.625 h 5.625 z"
       style="fill:none;stroke:#ffffff;stroke-width:3.99994;stroke-linecap:butt;stroke-linejoin:miter;stroke-miterlimit:4;stroke-dasharray:none;stroke-opacity:1"
       transform="matrix(0.13333333,0,0,-0.13333333,0,126.37333)" />
    <path
       id="path47"
       d="m 301.484,804.902 h 5.625 v 5.625 h -5.625 z"
       style="fill:#000000;fill-opacity:1;fill-rule:nonzero;stroke:none"
       transform="matrix(0.13333333,0,0,-0.13333333,0,126.37333)" />
    <path
       id="path48"
       d="m 307.109,804.902 h -5.625 v 5.625 h 5.625 z"
       style="fill:none;stroke:#ffffff;stroke-width:3.99994;stroke-linecap:butt;stroke-linejoin:miter;stroke-miterlimit:4;stroke-dasharray:none;stroke-opacity:1"
       transform="matrix(0.13333333,0,0,-0.13333333,0,126.37333)" />
    <path
       id="path49"
       d="m 301.484,792.402 h 5.625 v 5.625 h -5.625 z"
       style="fill:#000000;fill-opacity:1;fill-rule:nonzero;stroke:none"
       transform="matrix(0.13333333,0,0,-0.13333333,0,126.37333)" />
    <path
       id="path50"
       d="m 307.109,792.402 h -5.625 v 5.625 h 5.625 z"
       style="fill:none;stroke:#ffffff;stroke-width:3.99994;stroke-linecap:butt;stroke-linejoin:miter;stroke-miterlimit:4;stroke-dasharray:none;stroke-opacity:1"
       transform="matrix(0.13333333,0,0,-0.13333333,0,126.37333)" />
    <path
       id="path51"
       d="m 301.484,779.902 h 5.625 v 5.625 h -5.625 z"
       style="fill:#000000;fill-opacity:1;fill-rule:nonzero;stroke:none"
       transform="matrix(0.13333333,0,0,-0.13333333,0,126.37333)" />
    <path
       id="path52"
       d="m 307.109,779.902 h -5.625 v 5.625 h 5.625 z"
       style="fill:none;stroke:#ffffff;stroke-width:3.99994;stroke-linecap:butt;stroke-linejoin:miter;stroke-miterlimit:4;stroke-dasharray:none;stroke-opacity:1"
       transform="matrix(0.13333333,0,0,-0.13333333,0,126.37333)" />
    <path
       id="path53"
       d="m 301.484,767.402 h 5.625 v 5.625 h -5.625 z"
       style="fill:#000000;fill-opacity:1;fill-rule:nonzero;stroke:none"
       transform="matrix(0.13333333,0,0,-0.13333333,0,126.37333)" />
    <path
       id="path54"
       d="m 307.109,767.402 h -5.625 v 5.625 h 5.625 z"
       style="fill:none;stroke:#ffffff;stroke-width:3.99994;stroke-linecap:butt;stroke-linejoin:miter;stroke-miterlimit:4;stroke-dasharray:none;stroke-opacity:1"
       transform="matrix(0.13333333,0,0,-0.13333333,0,126.37333)" />
    <path
       id="path55"
       d="m 313.984,804.902 h 5.625 v 5.625 h -5.625 z"
       style="fill:#000000;fill-opacity:1;fill-rule:nonzero;stroke:none"
       transform="matrix(0.13333333,0,0,-0.13333333,0,126.37333)" />
    <path
       id="path56"
       d="m 319.609,804.902 h -5.625 v 5.625 h 5.625 z"
       style="fill:none;stroke:#ffffff;stroke-width:3.99994;stroke-linecap:butt;stroke-linejoin:miter;stroke-miterlimit:4;stroke-dasharray:none;stroke-opacity:1"
       transform="matrix(0.13333333,0,0,-0.13333333,0,126.37333)" />
    <path
       id="path57"
       d="m 313.984,792.402 h 5.625 v 5.625 h -5.625 z"
       style="fill:#000000;fill-opacity:1;fill-rule:nonzero;stroke:none"
       transform="matrix(0.13333333,0,0,-0.13333333,0,126.37333)" />
    <path
       id="path58"
       d="m 319.609,792.402 h -5.625 v 5.625 h 5.625 z"
       style="fill:none;stroke:#ffffff;stroke-width:3.99994;stroke-linecap:butt;stroke-linejoin:miter;stroke-miterlimit:4;stroke-dasharray:none;stroke-opacity:1"
       transform="matrix(0.13333333,0,0,-0.13333333,0,126.37333)" />
    <path
       id="path59"
       d="m 313.984,779.902 h 5.625 v 5.625 h -5.625 z"
       style="fill:#000000;fill-opacity:1;fill-rule:nonzero;stroke:none"
       transform="matrix(0.13333333,0,0,-0.13333333,0,126.37333)" />
    <path
       id="path60"
       d="m 319.609,779.902 h -5.625 v 5.625 h 5.625 z"
       style="fill:none;stroke:#ffffff;stroke-width:3.99994;stroke-linecap:butt;stroke-linejoin:miter;stroke-miterlimit:4;stroke-dasharray:none;stroke-opacity:1"
       transform="matrix(0.13333333,0,0,-0.13333333,0,126.37333)" />
    <path
       id="path61"
       d="m 313.984,767.402 h 5.625 v 5.625 h -5.625 z"
       style="fill:#000000;fill-opacity:1;fill-rule:nonzero;stroke:none"
       transform="matrix(0.13333333,0,0,-0.13333333,0,126.37333)" />
    <path
       id="path62"
       d="m 319.609,767.402 h -5.625 v 5.625 h 5.625 z"
       style="fill:none;stroke:#ffffff;stroke-width:3.99994;stroke-linecap:butt;stroke-linejoin:miter;stroke-miterlimit:4;stroke-dasharray:none;stroke-opacity:1"
       transform="matrix(0.13333333,0,0,-0.13333333,0,126.37333)" />
    <path
       id="path63"
       d="m 326.484,804.902 h 5.625 v 5.625 h -5.625 z"
       style="fill:#000000;fill-opacity:1;fill-rule:nonzero;stroke:none"
       transform="matrix(0.13333333,0,0,-0.13333333,0,126.37333)" />
    <path
       id="path64"
       d="m 332.109,804.902 h -5.625 v 5.625 h 5.625 z"
       style="fill:none;stroke:#ffffff;stroke-width:3.99994;stroke-linecap:butt;stroke-linejoin:miter;stroke-miterlimit:4;stroke-dasharray:none;stroke-opacity:1"
       transform="matrix(0.13333333,0,0,-0.13333333,0,126.37333)" />
    <path
       id="path65"
       d="m 326.484,792.402 h 5.625 v 5.625 h -5.625 z"
       style="fill:#000000;fill-opacity:1;fill-rule:nonzero;stroke:none"
       transform="matrix(0.13333333,0,0,-0.13333333,0,126.37333)" />
    <path
       id="path66"
       d="m 332.109,792.402 h -5.625 v 5.625 h 5.625 z"
       style="fill:none;stroke:#ffffff;stroke-width:3.99994;stroke-linecap:butt;stroke-linejoin:miter;stroke-miterlimit:4;stroke-dasharray:none;stroke-opacity:1"
       transform="matrix(0.13333333,0,0,-0.13333333,0,126.37333)" />
    <path
       id="path67"
       d="m 326.484,779.902 h 5.625 v 5.625 h -5.625 z"
       style="fill:#000000;fill-opacity:1;fill-rule:nonzero;stroke:none"
       transform="matrix(0.13333333,0,0,-0.13333333,0,126.37333)" />
    <path
       id="path68"
       d="m 332.109,779.902 h -5.625 v 5.625 h 5.625 z"
       style="fill:none;stroke:#ffffff;stroke-width:3.99994;stroke-linecap:butt;stroke-linejoin:miter;stroke-miterlimit:4;stroke-dasharray:none;stroke-opacity:1"
       transform="matrix(0.13333333,0,0,-0.13333333,0,126.37333)" />
    <path
       id="path69"
       d="m 326.484,767.402 h 5.625 v 5.625 h -5.625 z"
       style="fill:#000000;fill-opacity:1;fill-rule:nonzero;stroke:none"
       transform="matrix(0.13333333,0,0,-0.13333333,0,126.37333)" />
    <path
       id="path70"
       d="m 332.109,767.402 h -5.625 v 5.625 h 5.625 z"
       style="fill:none;stroke:#ffffff;stroke-width:3.99994;stroke-linecap:butt;stroke-linejoin:miter;stroke-miterlimit:4;stroke-dasharray:none;stroke-opacity:1"
       transform="matrix(0.13333333,0,0,-0.13333333,0,126.37333)" />
  </g>
</svg>
