<?xml version="1.0" encoding="UTF-8" standalone="no"?>
<!-- Created with Inkscape (http://www.inkscape.org/) -->

<svg
   version="1.1"
   id="svg1"
   width="28.52"
   height="40.68"
   viewBox="0 0 28.52 40.68"
   sodipodi:docname="tape array.eps"
   xmlns:inkscape="http://www.inkscape.org/namespaces/inkscape"
   xmlns:sodipodi="http://sodipodi.sourceforge.net/DTD/sodipodi-0.dtd"
   xmlns="http://www.w3.org/2000/svg"
   xmlns:svg="http://www.w3.org/2000/svg">
  <defs
     id="defs1">
    <clipPath
       clipPathUnits="userSpaceOnUse"
       id="clipPath2">
      <path
         d="M 0,305 H 210 V 0 H 0 Z"
         id="path2" />
    </clipPath>
    <clipPath
       clipPathUnits="userSpaceOnUse"
       id="clipPath4">
      <path
         d="M 0,305 H 210 V 0 H 0 Z"
         id="path4" />
    </clipPath>
    <clipPath
       clipPathUnits="userSpaceOnUse"
       id="clipPath6">
      <path
         d="M 0,305 H 210 V 0 H 0 Z"
         id="path6" />
    </clipPath>
    <clipPath
       clipPathUnits="userSpaceOnUse"
       id="clipPath8">
      <path
         d="M 0,305 H 210 V 0 H 0 Z"
         id="path8" />
    </clipPath>
    <clipPath
       clipPathUnits="userSpaceOnUse"
       id="clipPath10">
      <path
         d="M 0,305 H 210 V 0 H 0 Z"
         id="path10" />
    </clipPath>
    <clipPath
       clipPathUnits="userSpaceOnUse"
       id="clipPath12">
      <path
         d="M 0,305 H 210 V 0 H 0 Z"
         id="path12" />
    </clipPath>
    <clipPath
       clipPathUnits="userSpaceOnUse"
       id="clipPath14">
      <path
         d="M 0,305 H 210 V 0 H 0 Z"
         id="path14" />
    </clipPath>
    <clipPath
       clipPathUnits="userSpaceOnUse"
       id="clipPath16">
      <path
         d="M 0,305 H 210 V 0 H 0 Z"
         id="path16" />
    </clipPath>
    <clipPath
       clipPathUnits="userSpaceOnUse"
       id="clipPath18">
      <path
         d="M 0,305 H 210 V 0 H 0 Z"
         id="path18" />
    </clipPath>
    <clipPath
       clipPathUnits="userSpaceOnUse"
       id="clipPath20">
      <path
         d="M 0,305 H 210 V 0 H 0 Z"
         id="path20" />
    </clipPath>
    <clipPath
       clipPathUnits="userSpaceOnUse"
       id="clipPath22">
      <path
         d="M 0,305 H 210 V 0 H 0 Z"
         id="path22" />
    </clipPath>
    <clipPath
       clipPathUnits="userSpaceOnUse"
       id="clipPath24">
      <path
         d="M 0,305 H 210 V 0 H 0 Z"
         id="path24" />
    </clipPath>
    <clipPath
       clipPathUnits="userSpaceOnUse"
       id="clipPath26">
      <path
         d="M 0,305 H 210 V 0 H 0 Z"
         id="path26" />
    </clipPath>
    <clipPath
       clipPathUnits="userSpaceOnUse"
       id="clipPath28">
      <path
         d="M 0,305 H 210 V 0 H 0 Z"
         id="path28" />
    </clipPath>
    <clipPath
       clipPathUnits="userSpaceOnUse"
       id="clipPath30">
      <path
         d="M 0,305 H 210 V 0 H 0 Z"
         id="path30" />
    </clipPath>
    <clipPath
       clipPathUnits="userSpaceOnUse"
       id="clipPath32">
      <path
         d="M 0,305 H 210 V 0 H 0 Z"
         id="path32" />
    </clipPath>
    <clipPath
       clipPathUnits="userSpaceOnUse"
       id="clipPath34">
      <path
         d="M 0,305 H 210 V 0 H 0 Z"
         id="path34" />
    </clipPath>
    <clipPath
       clipPathUnits="userSpaceOnUse"
       id="clipPath36">
      <path
         d="M 0,305 H 210 V 0 H 0 Z"
         id="path36" />
    </clipPath>
    <clipPath
       clipPathUnits="userSpaceOnUse"
       id="clipPath38">
      <path
         d="M 0,305 H 210 V 0 H 0 Z"
         id="path38" />
    </clipPath>
    <clipPath
       clipPathUnits="userSpaceOnUse"
       id="clipPath40">
      <path
         d="M 0,305 H 210 V 0 H 0 Z"
         id="path40" />
    </clipPath>
    <clipPath
       clipPathUnits="userSpaceOnUse"
       id="clipPath42">
      <path
         d="M 0,305 H 210 V 0 H 0 Z"
         id="path42" />
    </clipPath>
    <clipPath
       clipPathUnits="userSpaceOnUse"
       id="clipPath44">
      <path
         d="M 0,305 H 210 V 0 H 0 Z"
         id="path44" />
    </clipPath>
    <clipPath
       clipPathUnits="userSpaceOnUse"
       id="clipPath46">
      <path
         d="M 0,305 H 210 V 0 H 0 Z"
         id="path46" />
    </clipPath>
    <clipPath
       clipPathUnits="userSpaceOnUse"
       id="clipPath48">
      <path
         d="M 0,305 H 210 V 0 H 0 Z"
         id="path48" />
    </clipPath>
    <clipPath
       clipPathUnits="userSpaceOnUse"
       id="clipPath50">
      <path
         d="M 0,305 H 210 V 0 H 0 Z"
         id="path50" />
    </clipPath>
    <clipPath
       clipPathUnits="userSpaceOnUse"
       id="clipPath52">
      <path
         d="M 0,305 H 210 V 0 H 0 Z"
         id="path52" />
    </clipPath>
    <clipPath
       clipPathUnits="userSpaceOnUse"
       id="clipPath54">
      <path
         d="M 0,305 H 210 V 0 H 0 Z"
         id="path54" />
    </clipPath>
    <clipPath
       clipPathUnits="userSpaceOnUse"
       id="clipPath56">
      <path
         d="M 0,305 H 210 V 0 H 0 Z"
         id="path56" />
    </clipPath>
    <clipPath
       clipPathUnits="userSpaceOnUse"
       id="clipPath58">
      <path
         d="M 0,305 H 210 V 0 H 0 Z"
         id="path58" />
    </clipPath>
  </defs>
  <sodipodi:namedview
     id="namedview1"
     pagecolor="#505050"
     bordercolor="#eeeeee"
     borderopacity="1"
     inkscape:showpageshadow="0"
     inkscape:pageopacity="0"
     inkscape:pagecheckerboard="0"
     inkscape:deskcolor="#d1d1d1">
    <inkscape:page
       x="0"
       y="0"
       inkscape:label="1"
       id="page1"
       width="28.52"
       height="40.68"
       margin="0"
       bleed="0" />
  </sodipodi:namedview>
  <g
     id="g1"
     inkscape:groupmode="layer"
     inkscape:label="1">
    <path
       id="path1"
       d="m 6.83203,6.82813 h 153.875 v 245.125 H 6.83203 Z"
       style="fill:#026c9b;fill-opacity:1;fill-rule:nonzero;stroke:none"
       transform="matrix(0.13333333,0,0,-0.13333333,0,40.68)"
       clip-path="url(#clipPath2)" />
    <path
       id="path3"
       d="M 160.707,6.82813 209.859,55.9688 V 301.094 H 55.9727 L 6.83203,251.953 H 160.707 V 6.82813"
       style="fill:#026c9b;fill-opacity:1;fill-rule:nonzero;stroke:none"
       transform="matrix(0.13333333,0,0,-0.13333333,0,40.68)"
       clip-path="url(#clipPath4)" />
    <path
       id="path5"
       d="m 160.707,251.953 49.152,49.141"
       style="fill:#026c9b;fill-opacity:1;fill-rule:nonzero;stroke:none"
       transform="matrix(0.13333333,0,0,-0.13333333,0,40.68)"
       clip-path="url(#clipPath6)" />
    <path
       id="path7"
       d="m 6.83203,6.82813 h 153.875 v 245.125 H 6.83203 Z"
       style="fill:#026c9b;fill-opacity:1;fill-rule:nonzero;stroke:none"
       transform="matrix(0.13333333,0,0,-0.13333333,0,40.68)"
       clip-path="url(#clipPath8)" />
    <path
       id="path9"
       d="M 160.707,251.953 H 6.83203 V 6.82813 H 160.707"
       style="fill:none;stroke:#ffffff;stroke-width:4;stroke-linecap:butt;stroke-linejoin:miter;stroke-miterlimit:4;stroke-dasharray:none;stroke-opacity:1"
       transform="matrix(0.13333333,0,0,-0.13333333,0,40.68)"
       clip-path="url(#clipPath10)" />
    <path
       id="path11"
       d="M 160.707,6.82813 209.859,55.9688 V 301.094 H 55.9727 L 6.83203,251.953 H 160.707 V 6.82813"
       style="fill:#026c9b;fill-opacity:1;fill-rule:nonzero;stroke:none"
       transform="matrix(0.13333333,0,0,-0.13333333,0,40.68)"
       clip-path="url(#clipPath12)" />
    <path
       id="path13"
       d="M 160.707,6.82813 209.859,55.9688 V 301.094 H 55.9727 L 6.83203,251.953 H 160.707 Z"
       style="fill:none;stroke:#ffffff;stroke-width:4;stroke-linecap:butt;stroke-linejoin:miter;stroke-miterlimit:4;stroke-dasharray:none;stroke-opacity:1"
       transform="matrix(0.13333333,0,0,-0.13333333,0,40.68)"
       clip-path="url(#clipPath14)" />
    <path
       id="path15"
       d="m 160.707,251.953 49.152,49.141"
       style="fill:#ffffff;fill-opacity:1;fill-rule:nonzero;stroke:none"
       transform="matrix(0.13333333,0,0,-0.13333333,0,40.68)"
       clip-path="url(#clipPath16)" />
    <path
       id="path17"
       d="M 160.707,251.953 H 6.83203 V 6.82813 H 160.707"
       style="fill:none;stroke:#ffffff;stroke-width:4;stroke-linecap:butt;stroke-linejoin:miter;stroke-miterlimit:4;stroke-dasharray:none;stroke-opacity:1"
       transform="matrix(0.13333333,0,0,-0.13333333,0,40.68)"
       clip-path="url(#clipPath18)" />
    <path
       id="path19"
       d="M 160.707,6.82813 209.859,55.9688 V 301.094 H 55.9727 L 6.83203,251.953 H 160.707 Z"
       style="fill:none;stroke:#ffffff;stroke-width:4;stroke-linecap:butt;stroke-linejoin:miter;stroke-miterlimit:4;stroke-dasharray:none;stroke-opacity:1"
       transform="matrix(0.13333333,0,0,-0.13333333,0,40.68)"
       clip-path="url(#clipPath20)" />
    <path
       id="path21"
       d="m 160.707,251.953 49.152,49.141"
       style="fill:none;stroke:#ffffff;stroke-width:4;stroke-linecap:butt;stroke-linejoin:miter;stroke-miterlimit:4;stroke-dasharray:none;stroke-opacity:1"
       transform="matrix(0.13333333,0,0,-0.13333333,0,40.68)"
       clip-path="url(#clipPath22)" />
    <path
       id="path23"
       d="M 139.555,179.961 V 222.93 H 32.9883 v -42.969 z"
       style="fill:none;stroke:#ffffff;stroke-width:4;stroke-linecap:round;stroke-linejoin:round;stroke-miterlimit:4;stroke-dasharray:none;stroke-opacity:1"
       transform="matrix(0.13333333,0,0,-0.13333333,0,40.68)"
       clip-path="url(#clipPath24)" />
    <path
       id="path25"
       d="m 71.9063,202.227 c 0,-6.082 -4.9336,-10.997 -11.0118,-10.997 -6.0781,0 -10.9882,4.915 -10.9882,10.997 0,6.074 4.9101,11.007 10.9882,11.007 6.0782,0 11.0118,-4.933 11.0118,-11.007"
       style="fill:#000000;fill-opacity:1;fill-rule:nonzero;stroke:none"
       transform="matrix(0.13333333,0,0,-0.13333333,0,40.68)"
       clip-path="url(#clipPath26)" />
    <path
       id="path27"
       d="m 71.9063,202.227 c 0,-6.082 -4.9336,-10.997 -11.0118,-10.997 -6.0781,0 -10.9882,4.915 -10.9882,10.997 0,6.074 4.9101,11.007 10.9882,11.007 6.0782,0 11.0118,-4.933 11.0118,-11.007 z"
       style="fill:none;stroke:#ffffff;stroke-width:4;stroke-linecap:round;stroke-linejoin:round;stroke-miterlimit:4;stroke-dasharray:none;stroke-opacity:1"
       transform="matrix(0.13333333,0,0,-0.13333333,0,40.68)"
       clip-path="url(#clipPath28)" />
    <path
       id="path29"
       d="m 120.055,202.227 c 0,-6.082 -4.914,-10.997 -10.996,-10.997 -6.075,0 -11.0082,4.915 -11.0082,10.997 0,6.074 4.9332,11.007 11.0082,11.007 6.082,0 10.996,-4.933 10.996,-11.007"
       style="fill:#000000;fill-opacity:1;fill-rule:nonzero;stroke:none"
       transform="matrix(0.13333333,0,0,-0.13333333,0,40.68)"
       clip-path="url(#clipPath30)" />
    <path
       id="path31"
       d="m 120.055,202.227 c 0,-6.082 -4.914,-10.997 -10.996,-10.997 -6.075,0 -11.0082,4.915 -11.0082,10.997 0,6.074 4.9332,11.007 11.0082,11.007 6.082,0 10.996,-4.933 10.996,-11.007 z"
       style="fill:none;stroke:#ffffff;stroke-width:4;stroke-linecap:round;stroke-linejoin:round;stroke-miterlimit:4;stroke-dasharray:none;stroke-opacity:1"
       transform="matrix(0.13333333,0,0,-0.13333333,0,40.68)"
       clip-path="url(#clipPath32)" />
    <path
       id="path33"
       d="M 139.555,104.941 V 147.91 H 32.9883 v -42.969 z"
       style="fill:none;stroke:#ffffff;stroke-width:4;stroke-linecap:round;stroke-linejoin:round;stroke-miterlimit:4;stroke-dasharray:none;stroke-opacity:1"
       transform="matrix(0.13333333,0,0,-0.13333333,0,40.68)"
       clip-path="url(#clipPath34)" />
    <path
       id="path35"
       d="m 71.9063,127.238 c 0,-6.086 -4.9336,-11.015 -11.0118,-11.015 -6.0781,0 -10.9882,4.929 -10.9882,11.015 0,6.075 4.9101,10.985 10.9882,10.985 6.0782,0 11.0118,-4.91 11.0118,-10.985"
       style="fill:#000000;fill-opacity:1;fill-rule:nonzero;stroke:none"
       transform="matrix(0.13333333,0,0,-0.13333333,0,40.68)"
       clip-path="url(#clipPath36)" />
    <path
       id="path37"
       d="m 71.9063,127.238 c 0,-6.086 -4.9336,-11.015 -11.0118,-11.015 -6.0781,0 -10.9882,4.929 -10.9882,11.015 0,6.075 4.9101,10.985 10.9882,10.985 6.0782,0 11.0118,-4.91 11.0118,-10.985 z"
       style="fill:none;stroke:#ffffff;stroke-width:4;stroke-linecap:round;stroke-linejoin:round;stroke-miterlimit:4;stroke-dasharray:none;stroke-opacity:1"
       transform="matrix(0.13333333,0,0,-0.13333333,0,40.68)"
       clip-path="url(#clipPath38)" />
    <path
       id="path39"
       d="m 120.055,127.238 c 0,-6.086 -4.914,-11.015 -10.996,-11.015 -6.075,0 -11.0082,4.929 -11.0082,11.015 0,6.075 4.9332,10.985 11.0082,10.985 6.082,0 10.996,-4.91 10.996,-10.985"
       style="fill:#000000;fill-opacity:1;fill-rule:nonzero;stroke:none"
       transform="matrix(0.13333333,0,0,-0.13333333,0,40.68)"
       clip-path="url(#clipPath40)" />
    <path
       id="path41"
       d="m 120.055,127.238 c 0,-6.086 -4.914,-11.015 -10.996,-11.015 -6.075,0 -11.0082,4.929 -11.0082,11.015 0,6.075 4.9332,10.985 11.0082,10.985 6.082,0 10.996,-4.91 10.996,-10.985 z"
       style="fill:none;stroke:#ffffff;stroke-width:4;stroke-linecap:round;stroke-linejoin:round;stroke-miterlimit:4;stroke-dasharray:none;stroke-opacity:1"
       transform="matrix(0.13333333,0,0,-0.13333333,0,40.68)"
       clip-path="url(#clipPath42)" />
    <path
       id="path43"
       d="M 139.555,29.9414 V 72.9102 H 32.9883 V 29.9414 Z"
       style="fill:none;stroke:#ffffff;stroke-width:4;stroke-linecap:round;stroke-linejoin:round;stroke-miterlimit:4;stroke-dasharray:none;stroke-opacity:1"
       transform="matrix(0.13333333,0,0,-0.13333333,0,40.68)"
       clip-path="url(#clipPath44)" />
    <path
       id="path45"
       d="m 71.9063,52.2383 c 0,-6.086 -4.9336,-11.0156 -11.0118,-11.0156 -6.0781,0 -10.9882,4.9296 -10.9882,11.0156 0,6.0742 4.9101,10.9844 10.9882,10.9844 6.0782,0 11.0118,-4.9102 11.0118,-10.9844"
       style="fill:#000000;fill-opacity:1;fill-rule:nonzero;stroke:none"
       transform="matrix(0.13333333,0,0,-0.13333333,0,40.68)"
       clip-path="url(#clipPath46)" />
    <path
       id="path47"
       d="m 71.9063,52.2383 c 0,-6.086 -4.9336,-11.0156 -11.0118,-11.0156 -6.0781,0 -10.9882,4.9296 -10.9882,11.0156 0,6.0742 4.9101,10.9844 10.9882,10.9844 6.0782,0 11.0118,-4.9102 11.0118,-10.9844 z"
       style="fill:none;stroke:#ffffff;stroke-width:4;stroke-linecap:round;stroke-linejoin:round;stroke-miterlimit:4;stroke-dasharray:none;stroke-opacity:1"
       transform="matrix(0.13333333,0,0,-0.13333333,0,40.68)"
       clip-path="url(#clipPath48)" />
    <path
       id="path49"
       d="m 120.055,52.2383 c 0,-6.086 -4.914,-11.0156 -10.996,-11.0156 -6.075,0 -11.0082,4.9296 -11.0082,11.0156 0,6.0742 4.9332,10.9844 11.0082,10.9844 6.082,0 10.996,-4.9102 10.996,-10.9844"
       style="fill:#000000;fill-opacity:1;fill-rule:nonzero;stroke:none"
       transform="matrix(0.13333333,0,0,-0.13333333,0,40.68)"
       clip-path="url(#clipPath50)" />
    <path
       id="path51"
       d="m 120.055,52.2383 c 0,-6.086 -4.914,-11.0156 -10.996,-11.0156 -6.075,0 -11.0082,4.9296 -11.0082,11.0156 0,6.0742 4.9332,10.9844 11.0082,10.9844 6.082,0 10.996,-4.9102 10.996,-10.9844 z"
       style="fill:none;stroke:#ffffff;stroke-width:4;stroke-linecap:round;stroke-linejoin:round;stroke-miterlimit:4;stroke-dasharray:none;stroke-opacity:1"
       transform="matrix(0.13333333,0,0,-0.13333333,0,40.68)"
       clip-path="url(#clipPath52)" />
    <path
       id="path53"
       d="M 60.8945,213.234 H 109.059"
       style="fill:none;stroke:#ffffff;stroke-width:4;stroke-linecap:round;stroke-linejoin:round;stroke-miterlimit:4;stroke-dasharray:none;stroke-opacity:1"
       transform="matrix(0.13333333,0,0,-0.13333333,0,40.68)"
       clip-path="url(#clipPath54)" />
    <path
       id="path55"
       d="M 60.8945,138.223 H 109.059"
       style="fill:none;stroke:#ffffff;stroke-width:4;stroke-linecap:round;stroke-linejoin:round;stroke-miterlimit:4;stroke-dasharray:none;stroke-opacity:1"
       transform="matrix(0.13333333,0,0,-0.13333333,0,40.68)"
       clip-path="url(#clipPath56)" />
    <path
       id="path57"
       d="M 60.8945,63.2227 H 109.059"
       style="fill:none;stroke:#ffffff;stroke-width:4;stroke-linecap:round;stroke-linejoin:round;stroke-miterlimit:4;stroke-dasharray:none;stroke-opacity:1"
       transform="matrix(0.13333333,0,0,-0.13333333,0,40.68)"
       clip-path="url(#clipPath58)" />
  </g>
</svg>
