<?xml version="1.0" encoding="UTF-8" standalone="no"?>
<!-- Created with Inkscape (http://www.inkscape.org/) -->

<svg
   version="1.1"
   id="svg1"
   width="66.013336"
   height="56.48"
   viewBox="0 0 66.013336 56.48"
   sodipodi:docname="telecommuter house.eps"
   xmlns:inkscape="http://www.inkscape.org/namespaces/inkscape"
   xmlns:sodipodi="http://sodipodi.sourceforge.net/DTD/sodipodi-0.dtd"
   xmlns="http://www.w3.org/2000/svg"
   xmlns:svg="http://www.w3.org/2000/svg">
  <defs
     id="defs1">
    <clipPath
       clipPathUnits="userSpaceOnUse"
       id="clipPath2">
      <path
         d="M 0,3 V 424 H 495 V 3 Z"
         id="path2" />
    </clipPath>
    <clipPath
       clipPathUnits="userSpaceOnUse"
       id="clipPath4">
      <path
         d="M 0,3 V 424 H 495 V 3 Z"
         id="path4" />
    </clipPath>
    <clipPath
       clipPathUnits="userSpaceOnUse"
       id="clipPath6">
      <path
         d="M 0,3 V 424 H 495 V 3 Z"
         id="path6" />
    </clipPath>
    <clipPath
       clipPathUnits="userSpaceOnUse"
       id="clipPath8">
      <path
         d="M 0,3 V 424 H 495 V 3 Z"
         id="path8" />
    </clipPath>
    <clipPath
       clipPathUnits="userSpaceOnUse"
       id="clipPath10">
      <path
         d="M 0,3 V 424 H 495 V 3 Z"
         id="path10" />
    </clipPath>
    <clipPath
       clipPathUnits="userSpaceOnUse"
       id="clipPath12">
      <path
         d="M 0,3 V 424 H 495 V 3 Z"
         id="path12" />
    </clipPath>
    <clipPath
       clipPathUnits="userSpaceOnUse"
       id="clipPath14">
      <path
         d="M 0,3 V 424 H 495 V 3 Z"
         id="path14" />
    </clipPath>
    <clipPath
       clipPathUnits="userSpaceOnUse"
       id="clipPath16">
      <path
         d="M 0,3 V 424 H 495 V 3 Z"
         id="path16" />
    </clipPath>
    <clipPath
       clipPathUnits="userSpaceOnUse"
       id="clipPath18">
      <path
         d="M 0,3 V 424 H 495 V 3 Z"
         id="path18" />
    </clipPath>
    <clipPath
       clipPathUnits="userSpaceOnUse"
       id="clipPath20">
      <path
         d="M 0,3 V 424 H 495 V 3 Z"
         id="path20" />
    </clipPath>
    <clipPath
       clipPathUnits="userSpaceOnUse"
       id="clipPath22">
      <path
         d="M 0,3 V 424 H 495 V 3 Z"
         id="path22" />
    </clipPath>
    <clipPath
       clipPathUnits="userSpaceOnUse"
       id="clipPath24">
      <path
         d="M 0,3 V 424 H 495 V 3 Z"
         id="path24" />
    </clipPath>
    <clipPath
       clipPathUnits="userSpaceOnUse"
       id="clipPath26">
      <path
         d="M 0,3 V 424 H 495 V 3 Z"
         id="path26" />
    </clipPath>
    <clipPath
       clipPathUnits="userSpaceOnUse"
       id="clipPath28">
      <path
         d="M 0,3 V 424 H 495 V 3 Z"
         id="path28" />
    </clipPath>
    <clipPath
       clipPathUnits="userSpaceOnUse"
       id="clipPath30">
      <path
         d="M 0,3 V 424 H 495 V 3 Z"
         id="path30" />
    </clipPath>
    <clipPath
       clipPathUnits="userSpaceOnUse"
       id="clipPath32">
      <path
         d="M 0,3 V 424 H 495 V 3 Z"
         id="path32" />
    </clipPath>
    <clipPath
       clipPathUnits="userSpaceOnUse"
       id="clipPath34">
      <path
         d="M 0,3 V 424 H 495 V 3 Z"
         id="path34" />
    </clipPath>
    <clipPath
       clipPathUnits="userSpaceOnUse"
       id="clipPath36">
      <path
         d="M 0,3 V 424 H 495 V 3 Z"
         id="path36" />
    </clipPath>
    <clipPath
       clipPathUnits="userSpaceOnUse"
       id="clipPath38">
      <path
         d="M 0,3 V 424 H 495 V 3 Z"
         id="path38" />
    </clipPath>
    <clipPath
       clipPathUnits="userSpaceOnUse"
       id="clipPath40">
      <path
         d="M 0,3 V 424 H 495 V 3 Z"
         id="path40" />
    </clipPath>
    <clipPath
       clipPathUnits="userSpaceOnUse"
       id="clipPath42">
      <path
         d="M 0,3 V 424 H 495 V 3 Z"
         id="path42" />
    </clipPath>
    <clipPath
       clipPathUnits="userSpaceOnUse"
       id="clipPath44">
      <path
         d="M 0,3 V 424 H 495 V 3 Z"
         id="path44" />
    </clipPath>
    <clipPath
       clipPathUnits="userSpaceOnUse"
       id="clipPath46">
      <path
         d="M 0,3 V 424 H 495 V 3 Z"
         id="path46" />
    </clipPath>
    <clipPath
       clipPathUnits="userSpaceOnUse"
       id="clipPath48">
      <path
         d="M 0,3 V 424 H 495 V 3 Z"
         id="path48" />
    </clipPath>
    <clipPath
       clipPathUnits="userSpaceOnUse"
       id="clipPath50">
      <path
         d="M 0,3 V 424 H 495 V 3 Z"
         id="path50" />
    </clipPath>
    <clipPath
       clipPathUnits="userSpaceOnUse"
       id="clipPath52">
      <path
         d="M 0,3 V 424 H 495 V 3 Z"
         id="path52" />
    </clipPath>
    <clipPath
       clipPathUnits="userSpaceOnUse"
       id="clipPath54">
      <path
         d="M 0,3 V 424 H 495 V 3 Z"
         id="path54" />
    </clipPath>
    <clipPath
       clipPathUnits="userSpaceOnUse"
       id="clipPath56">
      <path
         d="M 0,3 V 424 H 495 V 3 Z"
         id="path56" />
    </clipPath>
  </defs>
  <sodipodi:namedview
     id="namedview1"
     pagecolor="#505050"
     bordercolor="#eeeeee"
     borderopacity="1"
     inkscape:showpageshadow="0"
     inkscape:pageopacity="0"
     inkscape:pagecheckerboard="0"
     inkscape:deskcolor="#d1d1d1">
    <inkscape:page
       x="0"
       y="0"
       inkscape:label="1"
       id="page1"
       width="66.013336"
       height="56.48"
       margin="0"
       bleed="0" />
  </sodipodi:namedview>
  <g
     id="g1"
     inkscape:groupmode="layer"
     inkscape:label="1">
    <path
       id="path1"
       d="m 206.992,389.898 45,31.454 h 25 l -2.5,-23.954 -32.5,-30 -35,22.5"
       style="fill:#036998;fill-opacity:1;fill-rule:nonzero;stroke:none"
       transform="matrix(0.13333333,0,0,-0.13333333,0,56.48)"
       clip-path="url(#clipPath2)" />
    <path
       id="path3"
       d="m 206.992,389.898 45,31.454 h 25 l -2.5,-23.954 -32.5,-30 z"
       style="fill:none;stroke:#ffffff;stroke-width:3.99994;stroke-linecap:butt;stroke-linejoin:miter;stroke-miterlimit:4;stroke-dasharray:none;stroke-opacity:1"
       transform="matrix(0.13333333,0,0,-0.13333333,0,56.48)"
       clip-path="url(#clipPath4)" />
    <path
       id="path5"
       d="m 39.4922,4.90234 h 317.5 v 172.496 h -317.5 z"
       style="fill:#036998;fill-opacity:1;fill-rule:nonzero;stroke:none"
       transform="matrix(0.13333333,0,0,-0.13333333,0,56.48)"
       clip-path="url(#clipPath6)" />
    <path
       id="path7"
       d="M 39.4922,177.398 H 356.992 V 4.90234 H 39.4922 Z"
       style="fill:none;stroke:#ffffff;stroke-width:3.99994;stroke-linecap:butt;stroke-linejoin:miter;stroke-miterlimit:4;stroke-dasharray:none;stroke-opacity:1"
       transform="matrix(0.13333333,0,0,-0.13333333,0,56.48)"
       clip-path="url(#clipPath8)" />
    <path
       id="path9"
       d="m 356.992,177.398 112.5,107.5 V 119.902 L 356.992,4.90234 V 177.398"
       style="fill:#036998;fill-opacity:1;fill-rule:nonzero;stroke:none"
       transform="matrix(0.13333333,0,0,-0.13333333,0,56.48)"
       clip-path="url(#clipPath10)" />
    <path
       id="path11"
       d="m 356.992,177.398 112.5,107.5 V 119.902 L 356.992,4.90234 Z"
       style="fill:none;stroke:#ffffff;stroke-width:3.99994;stroke-linecap:butt;stroke-linejoin:miter;stroke-miterlimit:4;stroke-dasharray:none;stroke-opacity:1"
       transform="matrix(0.13333333,0,0,-0.13333333,0,56.48)"
       clip-path="url(#clipPath12)" />
    <path
       id="path13"
       d="m 415.742,39.4727 h -23.75 l -1.25,155.4253 18.75,7.5 11.25,-10 2.5,-131.2457 -7.5,-21.6796"
       style="fill:#036998;fill-opacity:1;fill-rule:nonzero;stroke:none"
       transform="matrix(0.13333333,0,0,-0.13333333,0,56.48)"
       clip-path="url(#clipPath14)" />
    <path
       id="path15"
       d="m 415.742,39.4727 h -23.75 l -1.25,155.4253 18.75,7.5 11.25,-10 2.5,-131.2457 z"
       style="fill:none;stroke:#ffffff;stroke-width:3.99994;stroke-linecap:butt;stroke-linejoin:miter;stroke-miterlimit:4;stroke-dasharray:none;stroke-opacity:1"
       transform="matrix(0.13333333,0,0,-0.13333333,0,56.48)"
       clip-path="url(#clipPath16)" />
    <path
       id="path17"
       d="m 409.492,202.398 6.25,-162.4957 42.5,48.75 -18.75,149.9957 -30,-36.25"
       style="fill:#036998;fill-opacity:1;fill-rule:nonzero;stroke:none"
       transform="matrix(0.13333333,0,0,-0.13333333,0,56.48)"
       clip-path="url(#clipPath18)" />
    <path
       id="path19"
       d="m 409.492,202.398 6.25,-162.4957 42.5,48.75 -18.75,149.9957 z"
       style="fill:none;stroke:#ffffff;stroke-width:3.99994;stroke-linecap:butt;stroke-linejoin:miter;stroke-miterlimit:4;stroke-dasharray:none;stroke-opacity:1"
       transform="matrix(0.13333333,0,0,-0.13333333,0,56.48)"
       clip-path="url(#clipPath20)" />
    <path
       id="path21"
       d="m 381.992,164.898 -162.5,212.5 56.25,43.75 216.25,-136.25 -110,-120"
       style="fill:#036998;fill-opacity:1;fill-rule:nonzero;stroke:none"
       transform="matrix(0.13333333,0,0,-0.13333333,0,56.48)"
       clip-path="url(#clipPath22)" />
    <path
       id="path23"
       d="m 381.992,164.898 -162.5,212.5 56.25,43.75 216.25,-136.25 z"
       style="fill:none;stroke:#ffffff;stroke-width:3.99994;stroke-linecap:butt;stroke-linejoin:miter;stroke-miterlimit:4;stroke-dasharray:none;stroke-opacity:1"
       transform="matrix(0.13333333,0,0,-0.13333333,0,56.48)"
       clip-path="url(#clipPath24)" />
    <path
       id="path25"
       d="m 406.992,254.898 25,25 -12.5,100 -22.5,-10 v -90 l 10,-25"
       style="fill:#036998;fill-opacity:1;fill-rule:nonzero;stroke:none"
       transform="matrix(0.13333333,0,0,-0.13333333,0,56.48)"
       clip-path="url(#clipPath26)" />
    <path
       id="path27"
       d="m 406.992,254.898 25,25 -12.5,100 -22.5,-10 v -90 z"
       style="fill:none;stroke:#ffffff;stroke-width:3.99994;stroke-linecap:butt;stroke-linejoin:miter;stroke-miterlimit:4;stroke-dasharray:none;stroke-opacity:1"
       transform="matrix(0.13333333,0,0,-0.13333333,0,56.48)"
       clip-path="url(#clipPath28)" />
    <path
       id="path29"
       d="m 369.492,289.898 37.5,-33.75 -2.5,118.75 -20,2.5 -15,-87.5"
       style="fill:#036998;fill-opacity:1;fill-rule:nonzero;stroke:none"
       transform="matrix(0.13333333,0,0,-0.13333333,0,56.48)"
       clip-path="url(#clipPath30)" />
    <path
       id="path31"
       d="m 369.492,289.898 37.5,-33.75 -2.5,118.75 -20,2.5 z"
       style="fill:none;stroke:#ffffff;stroke-width:3.99994;stroke-linecap:butt;stroke-linejoin:miter;stroke-miterlimit:4;stroke-dasharray:none;stroke-opacity:1"
       transform="matrix(0.13333333,0,0,-0.13333333,0,56.48)"
       clip-path="url(#clipPath32)" />
    <path
       id="path33"
       d="m 384.492,377.398 18.75,-11.25 16.25,13.75 -18.75,6.559 -16.25,-9.059"
       style="fill:#036998;fill-opacity:1;fill-rule:nonzero;stroke:none"
       transform="matrix(0.13333333,0,0,-0.13333333,0,56.48)"
       clip-path="url(#clipPath34)" />
    <path
       id="path35"
       d="m 384.492,377.398 18.75,-11.25 16.25,13.75 -18.75,6.559 z"
       style="fill:none;stroke:#ffffff;stroke-width:3.99994;stroke-linecap:butt;stroke-linejoin:miter;stroke-miterlimit:4;stroke-dasharray:none;stroke-opacity:1"
       transform="matrix(0.13333333,0,0,-0.13333333,0,56.48)"
       clip-path="url(#clipPath36)" />
    <path
       id="path37"
       d="m 234.492,389.898 150,-225 H 4.49219 l 202.49981,225 h 27.5"
       style="fill:#036998;fill-opacity:1;fill-rule:nonzero;stroke:none"
       transform="matrix(0.13333333,0,0,-0.13333333,0,56.48)"
       clip-path="url(#clipPath38)" />
    <path
       id="path39"
       d="m 234.492,389.898 150,-225 H 4.49219 l 202.49981,225 z"
       style="fill:none;stroke:#ffffff;stroke-width:3.99994;stroke-linecap:butt;stroke-linejoin:miter;stroke-miterlimit:4;stroke-dasharray:none;stroke-opacity:1"
       transform="matrix(0.13333333,0,0,-0.13333333,0,56.48)"
       clip-path="url(#clipPath40)" />
    <path
       id="path41"
       d="m 305.273,161.691 c 0,-21.73 -45.293,-39.347 -101.152,-39.347 -55.879,0 -101.172,17.617 -101.172,39.347 v -57.628 c 0,-21.7192 45.293,-39.3364 101.172,-39.3364 55.859,0 101.152,17.6172 101.152,39.3364 v 57.628"
       style="fill:#036998;fill-opacity:1;fill-rule:nonzero;stroke:none"
       transform="matrix(0.13333333,0,0,-0.13333333,0,56.48)"
       clip-path="url(#clipPath42)" />
    <path
       id="path43"
       d="m 305.273,161.691 c 0,-21.73 -45.293,-39.347 -101.152,-39.347 -55.879,0 -101.172,17.617 -101.172,39.347 v -57.628 c 0,-21.7192 45.293,-39.3364 101.172,-39.3364 55.859,0 101.152,17.6172 101.152,39.3364 z"
       style="fill:none;stroke:#ffffff;stroke-width:3.99994;stroke-linecap:butt;stroke-linejoin:miter;stroke-miterlimit:4;stroke-dasharray:none;stroke-opacity:1"
       transform="matrix(0.13333333,0,0,-0.13333333,0,56.48)"
       clip-path="url(#clipPath44)" />
    <path
       id="path45"
       d="m 204.121,122.344 c 55.859,0 101.152,17.617 101.152,39.347 0,21.723 -45.293,39.336 -101.152,39.336 -55.879,0 -101.172,-17.613 -101.172,-39.336 0,-21.73 45.293,-39.347 101.172,-39.347"
       style="fill:#036998;fill-opacity:1;fill-rule:nonzero;stroke:none"
       transform="matrix(0.13333333,0,0,-0.13333333,0,56.48)"
       clip-path="url(#clipPath46)" />
    <path
       id="path47"
       d="m 204.121,122.344 c 55.859,0 101.152,17.617 101.152,39.347 0,21.723 -45.293,39.336 -101.152,39.336 -55.879,0 -101.172,-17.613 -101.172,-39.336 0,-21.73 45.293,-39.347 101.172,-39.347 z"
       style="fill:none;stroke:#ffffff;stroke-width:3.99994;stroke-linecap:butt;stroke-linejoin:miter;stroke-miterlimit:4;stroke-dasharray:none;stroke-opacity:1"
       transform="matrix(0.13333333,0,0,-0.13333333,0,56.48)"
       clip-path="url(#clipPath48)" />
    <path
       id="path49"
       d="m 181.016,177.07 8.359,-12.535 -31.594,-7.301 6.907,5.754 -48.809,8.34 12.246,9.18 47.09,-7.981 5.801,4.543"
       style="fill:#ffffff;fill-opacity:1;fill-rule:nonzero;stroke:none"
       transform="matrix(0.13333333,0,0,-0.13333333,0,56.48)"
       clip-path="url(#clipPath50)" />
    <path
       id="path51"
       d="m 225.449,146.684 -5.691,12.918 28.484,5.695 -4.941,-4.434 47.48,-8.105 -11.386,-9.113 -47.2,8.859 -6.746,-5.82"
       style="fill:#ffffff;fill-opacity:1;fill-rule:nonzero;stroke:none"
       transform="matrix(0.13333333,0,0,-0.13333333,0,56.48)"
       clip-path="url(#clipPath52)" />
    <path
       id="path53"
       d="m 209.883,183.906 31.902,8.742 0.383,-13.679 -7.98,1.519 -15.575,-12.914 -14.851,2.168 16.062,12.637 -9.941,1.527"
       style="fill:#ffffff;fill-opacity:1;fill-rule:nonzero;stroke:none"
       transform="matrix(0.13333333,0,0,-0.13333333,0,56.48)"
       clip-path="url(#clipPath54)" />
    <path
       id="path55"
       d="m 196.211,134.902 -30.391,-5.691 -1.14,14.055 8.738,-1.899 16.719,14.281 14.804,-2.507 -17.851,-15.575 9.121,-2.664"
       style="fill:#ffffff;fill-opacity:1;fill-rule:nonzero;stroke:none"
       transform="matrix(0.13333333,0,0,-0.13333333,0,56.48)"
       clip-path="url(#clipPath56)" />
  </g>
</svg>
