<?xml version="1.0" encoding="UTF-8" standalone="no"?>
<!-- Created with Inkscape (http://www.inkscape.org/) -->

<svg
   version="1.1"
   id="svg1"
   width="66.013336"
   height="56.48"
   viewBox="0 0 66.013336 56.48"
   sodipodi:docname="telecommuter house pc.eps"
   xmlns:inkscape="http://www.inkscape.org/namespaces/inkscape"
   xmlns:sodipodi="http://sodipodi.sourceforge.net/DTD/sodipodi-0.dtd"
   xmlns="http://www.w3.org/2000/svg"
   xmlns:svg="http://www.w3.org/2000/svg">
  <defs
     id="defs1">
    <clipPath
       clipPathUnits="userSpaceOnUse"
       id="clipPath2">
      <path
         d="M 0,3 V 424 H 495 V 3 Z"
         id="path2" />
    </clipPath>
    <clipPath
       clipPathUnits="userSpaceOnUse"
       id="clipPath4">
      <path
         d="M 0,3 V 424 H 495 V 3 Z"
         id="path4" />
    </clipPath>
    <clipPath
       clipPathUnits="userSpaceOnUse"
       id="clipPath6">
      <path
         d="M 0,3 V 424 H 495 V 3 Z"
         id="path6" />
    </clipPath>
    <clipPath
       clipPathUnits="userSpaceOnUse"
       id="clipPath8">
      <path
         d="M 0,3 V 424 H 495 V 3 Z"
         id="path8" />
    </clipPath>
    <clipPath
       clipPathUnits="userSpaceOnUse"
       id="clipPath10">
      <path
         d="M 0,3 V 424 H 495 V 3 Z"
         id="path10" />
    </clipPath>
    <clipPath
       clipPathUnits="userSpaceOnUse"
       id="clipPath12">
      <path
         d="M 0,3 V 424 H 495 V 3 Z"
         id="path12" />
    </clipPath>
    <clipPath
       clipPathUnits="userSpaceOnUse"
       id="clipPath14">
      <path
         d="M 0,3 V 424 H 495 V 3 Z"
         id="path14" />
    </clipPath>
    <clipPath
       clipPathUnits="userSpaceOnUse"
       id="clipPath16">
      <path
         d="M 0,3 V 424 H 495 V 3 Z"
         id="path16" />
    </clipPath>
    <clipPath
       clipPathUnits="userSpaceOnUse"
       id="clipPath18">
      <path
         d="M 0,3 V 424 H 495 V 3 Z"
         id="path18" />
    </clipPath>
    <clipPath
       clipPathUnits="userSpaceOnUse"
       id="clipPath20">
      <path
         d="M 0,3 V 424 H 495 V 3 Z"
         id="path20" />
    </clipPath>
    <clipPath
       clipPathUnits="userSpaceOnUse"
       id="clipPath22">
      <path
         d="M 0,3 V 424 H 495 V 3 Z"
         id="path22" />
    </clipPath>
    <clipPath
       clipPathUnits="userSpaceOnUse"
       id="clipPath24">
      <path
         d="M 0,3 V 424 H 495 V 3 Z"
         id="path24" />
    </clipPath>
    <clipPath
       clipPathUnits="userSpaceOnUse"
       id="clipPath26">
      <path
         d="M 0,3 V 424 H 495 V 3 Z"
         id="path26" />
    </clipPath>
    <clipPath
       clipPathUnits="userSpaceOnUse"
       id="clipPath28">
      <path
         d="M 0,3 V 424 H 495 V 3 Z"
         id="path28" />
    </clipPath>
    <clipPath
       clipPathUnits="userSpaceOnUse"
       id="clipPath30">
      <path
         d="M 0,3 V 424 H 495 V 3 Z"
         id="path30" />
    </clipPath>
    <clipPath
       clipPathUnits="userSpaceOnUse"
       id="clipPath32">
      <path
         d="M 0,3 V 424 H 495 V 3 Z"
         id="path32" />
    </clipPath>
    <clipPath
       clipPathUnits="userSpaceOnUse"
       id="clipPath34">
      <path
         d="M 0,3 V 424 H 495 V 3 Z"
         id="path34" />
    </clipPath>
    <clipPath
       clipPathUnits="userSpaceOnUse"
       id="clipPath36">
      <path
         d="M 0,3 V 424 H 495 V 3 Z"
         id="path36" />
    </clipPath>
    <clipPath
       clipPathUnits="userSpaceOnUse"
       id="clipPath38">
      <path
         d="M 0,3 V 424 H 495 V 3 Z"
         id="path38" />
    </clipPath>
    <clipPath
       clipPathUnits="userSpaceOnUse"
       id="clipPath40">
      <path
         d="M 0,3 V 424 H 495 V 3 Z"
         id="path40" />
    </clipPath>
    <clipPath
       clipPathUnits="userSpaceOnUse"
       id="clipPath42">
      <path
         d="M 0,3 V 424 H 495 V 3 Z"
         id="path42" />
    </clipPath>
    <clipPath
       clipPathUnits="userSpaceOnUse"
       id="clipPath44">
      <path
         d="M 0,3 V 424 H 495 V 3 Z"
         id="path44" />
    </clipPath>
    <clipPath
       clipPathUnits="userSpaceOnUse"
       id="clipPath46">
      <path
         d="M 0,3 V 424 H 495 V 3 Z"
         id="path46" />
    </clipPath>
    <clipPath
       clipPathUnits="userSpaceOnUse"
       id="clipPath48">
      <path
         d="M 0,3 V 424 H 495 V 3 Z"
         id="path48" />
    </clipPath>
    <clipPath
       clipPathUnits="userSpaceOnUse"
       id="clipPath50">
      <path
         d="M 0,3 V 424 H 495 V 3 Z"
         id="path50" />
    </clipPath>
    <clipPath
       clipPathUnits="userSpaceOnUse"
       id="clipPath52">
      <path
         d="M 0,3 V 424 H 495 V 3 Z"
         id="path52" />
    </clipPath>
    <clipPath
       clipPathUnits="userSpaceOnUse"
       id="clipPath54">
      <path
         d="M 0,3 V 424 H 495 V 3 Z"
         id="path54" />
    </clipPath>
    <clipPath
       clipPathUnits="userSpaceOnUse"
       id="clipPath56">
      <path
         d="M 0,3 V 424 H 495 V 3 Z"
         id="path56" />
    </clipPath>
    <clipPath
       clipPathUnits="userSpaceOnUse"
       id="clipPath58">
      <path
         d="M 0,3 V 424 H 495 V 3 Z"
         id="path58" />
    </clipPath>
    <clipPath
       clipPathUnits="userSpaceOnUse"
       id="clipPath60">
      <path
         d="M 0,3 V 424 H 495 V 3 Z"
         id="path60" />
    </clipPath>
    <clipPath
       clipPathUnits="userSpaceOnUse"
       id="clipPath62">
      <path
         d="M 0,3 V 424 H 495 V 3 Z"
         id="path62" />
    </clipPath>
    <clipPath
       clipPathUnits="userSpaceOnUse"
       id="clipPath64">
      <path
         d="M 0,3 V 424 H 495 V 3 Z"
         id="path64" />
    </clipPath>
    <clipPath
       clipPathUnits="userSpaceOnUse"
       id="clipPath66">
      <path
         d="M 0,3 V 424 H 495 V 3 Z"
         id="path66" />
    </clipPath>
    <clipPath
       clipPathUnits="userSpaceOnUse"
       id="clipPath68">
      <path
         d="M 0,3 V 424 H 495 V 3 Z"
         id="path68" />
    </clipPath>
    <clipPath
       clipPathUnits="userSpaceOnUse"
       id="clipPath70">
      <path
         d="M 0,3 V 424 H 495 V 3 Z"
         id="path70" />
    </clipPath>
    <clipPath
       clipPathUnits="userSpaceOnUse"
       id="clipPath72">
      <path
         d="M 0,3 V 424 H 495 V 3 Z"
         id="path72" />
    </clipPath>
    <clipPath
       clipPathUnits="userSpaceOnUse"
       id="clipPath74">
      <path
         d="M 0,3 V 424 H 495 V 3 Z"
         id="path74" />
    </clipPath>
    <clipPath
       clipPathUnits="userSpaceOnUse"
       id="clipPath76">
      <path
         d="M 0,3 V 424 H 495 V 3 Z"
         id="path76" />
    </clipPath>
    <clipPath
       clipPathUnits="userSpaceOnUse"
       id="clipPath78">
      <path
         d="M 0,3 V 424 H 495 V 3 Z"
         id="path78" />
    </clipPath>
    <clipPath
       clipPathUnits="userSpaceOnUse"
       id="clipPath80">
      <path
         d="M 0,3 V 424 H 495 V 3 Z"
         id="path80" />
    </clipPath>
    <clipPath
       clipPathUnits="userSpaceOnUse"
       id="clipPath82">
      <path
         d="M 0,3 V 424 H 495 V 3 Z"
         id="path82" />
    </clipPath>
    <clipPath
       clipPathUnits="userSpaceOnUse"
       id="clipPath84">
      <path
         d="M 0,3 V 424 H 495 V 3 Z"
         id="path84" />
    </clipPath>
    <clipPath
       clipPathUnits="userSpaceOnUse"
       id="clipPath86">
      <path
         d="M 0,3 V 424 H 495 V 3 Z"
         id="path86" />
    </clipPath>
    <clipPath
       clipPathUnits="userSpaceOnUse"
       id="clipPath88">
      <path
         d="M 0,3 V 424 H 495 V 3 Z"
         id="path88" />
    </clipPath>
  </defs>
  <sodipodi:namedview
     id="namedview1"
     pagecolor="#505050"
     bordercolor="#eeeeee"
     borderopacity="1"
     inkscape:showpageshadow="0"
     inkscape:pageopacity="0"
     inkscape:pagecheckerboard="0"
     inkscape:deskcolor="#d1d1d1">
    <inkscape:page
       x="0"
       y="0"
       inkscape:label="1"
       id="page1"
       width="66.013336"
       height="56.48"
       margin="0"
       bleed="0" />
  </sodipodi:namedview>
  <g
     id="g1"
     inkscape:groupmode="layer"
     inkscape:label="1">
    <path
       id="path1"
       d="m 206.992,389.902 45,31.465 h 25 l -2.5,-23.965 -32.5,-30 -35,22.5"
       style="fill:#036998;fill-opacity:1;fill-rule:nonzero;stroke:none"
       transform="matrix(0.13333333,0,0,-0.13333333,0,56.48)"
       clip-path="url(#clipPath2)" />
    <path
       id="path3"
       d="m 206.992,389.902 45,31.465 h 25 l -2.5,-23.965 -32.5,-30 z"
       style="fill:none;stroke:#ffffff;stroke-width:3.99994;stroke-linecap:butt;stroke-linejoin:miter;stroke-miterlimit:4;stroke-dasharray:none;stroke-opacity:1"
       transform="matrix(0.13333333,0,0,-0.13333333,0,56.48)"
       clip-path="url(#clipPath4)" />
    <path
       id="path5"
       d="m 39.4922,4.90234 h 317.5 v 172.5 h -317.5 z"
       style="fill:#036998;fill-opacity:1;fill-rule:nonzero;stroke:none"
       transform="matrix(0.13333333,0,0,-0.13333333,0,56.48)"
       clip-path="url(#clipPath6)" />
    <path
       id="path7"
       d="M 39.4922,177.402 H 356.992 V 4.90234 H 39.4922 Z"
       style="fill:none;stroke:#ffffff;stroke-width:3.99994;stroke-linecap:butt;stroke-linejoin:miter;stroke-miterlimit:4;stroke-dasharray:none;stroke-opacity:1"
       transform="matrix(0.13333333,0,0,-0.13333333,0,56.48)"
       clip-path="url(#clipPath8)" />
    <path
       id="path9"
       d="m 356.992,177.402 112.5,107.5 v -165 L 356.992,4.90234 V 177.402"
       style="fill:#036998;fill-opacity:1;fill-rule:nonzero;stroke:none"
       transform="matrix(0.13333333,0,0,-0.13333333,0,56.48)"
       clip-path="url(#clipPath10)" />
    <path
       id="path11"
       d="m 356.992,177.402 112.5,107.5 v -165 L 356.992,4.90234 Z"
       style="fill:none;stroke:#ffffff;stroke-width:3.99994;stroke-linecap:butt;stroke-linejoin:miter;stroke-miterlimit:4;stroke-dasharray:none;stroke-opacity:1"
       transform="matrix(0.13333333,0,0,-0.13333333,0,56.48)"
       clip-path="url(#clipPath12)" />
    <path
       id="path13"
       d="m 415.742,39.4922 h -23.75 l -1.25,155.4098 18.75,7.5 11.25,-10 2.5,-131.2497 -7.5,-21.6601"
       style="fill:#036998;fill-opacity:1;fill-rule:nonzero;stroke:none"
       transform="matrix(0.13333333,0,0,-0.13333333,0,56.48)"
       clip-path="url(#clipPath14)" />
    <path
       id="path15"
       d="m 415.742,39.4922 h -23.75 l -1.25,155.4098 18.75,7.5 11.25,-10 2.5,-131.2497 z"
       style="fill:none;stroke:#ffffff;stroke-width:3.99994;stroke-linecap:butt;stroke-linejoin:miter;stroke-miterlimit:4;stroke-dasharray:none;stroke-opacity:1"
       transform="matrix(0.13333333,0,0,-0.13333333,0,56.48)"
       clip-path="url(#clipPath16)" />
    <path
       id="path17"
       d="m 409.492,202.402 6.25,-162.4997 42.5,48.75 -18.75,149.9997 -30,-36.25"
       style="fill:#036998;fill-opacity:1;fill-rule:nonzero;stroke:none"
       transform="matrix(0.13333333,0,0,-0.13333333,0,56.48)"
       clip-path="url(#clipPath18)" />
    <path
       id="path19"
       d="m 409.492,202.402 6.25,-162.4997 42.5,48.75 -18.75,149.9997 z"
       style="fill:none;stroke:#ffffff;stroke-width:3.99994;stroke-linecap:butt;stroke-linejoin:miter;stroke-miterlimit:4;stroke-dasharray:none;stroke-opacity:1"
       transform="matrix(0.13333333,0,0,-0.13333333,0,56.48)"
       clip-path="url(#clipPath20)" />
    <path
       id="path21"
       d="m 381.992,164.902 -162.5,212.5 56.25,43.75 216.25,-136.25 -110,-120"
       style="fill:#036998;fill-opacity:1;fill-rule:nonzero;stroke:none"
       transform="matrix(0.13333333,0,0,-0.13333333,0,56.48)"
       clip-path="url(#clipPath22)" />
    <path
       id="path23"
       d="m 381.992,164.902 -162.5,212.5 56.25,43.75 216.25,-136.25 z"
       style="fill:none;stroke:#ffffff;stroke-width:3.99994;stroke-linecap:butt;stroke-linejoin:miter;stroke-miterlimit:4;stroke-dasharray:none;stroke-opacity:1"
       transform="matrix(0.13333333,0,0,-0.13333333,0,56.48)"
       clip-path="url(#clipPath24)" />
    <path
       id="path25"
       d="m 406.992,254.902 25,25 -12.5,100 -22.5,-10 v -90 l 10,-25"
       style="fill:#036998;fill-opacity:1;fill-rule:nonzero;stroke:none"
       transform="matrix(0.13333333,0,0,-0.13333333,0,56.48)"
       clip-path="url(#clipPath26)" />
    <path
       id="path27"
       d="m 406.992,254.902 25,25 -12.5,100 -22.5,-10 v -90 z"
       style="fill:none;stroke:#ffffff;stroke-width:3.99994;stroke-linecap:butt;stroke-linejoin:miter;stroke-miterlimit:4;stroke-dasharray:none;stroke-opacity:1"
       transform="matrix(0.13333333,0,0,-0.13333333,0,56.48)"
       clip-path="url(#clipPath28)" />
    <path
       id="path29"
       d="m 369.492,289.902 37.5,-33.75 -2.5,118.75 -20,2.5 -15,-87.5"
       style="fill:#036998;fill-opacity:1;fill-rule:nonzero;stroke:none"
       transform="matrix(0.13333333,0,0,-0.13333333,0,56.48)"
       clip-path="url(#clipPath30)" />
    <path
       id="path31"
       d="m 369.492,289.902 37.5,-33.75 -2.5,118.75 -20,2.5 z"
       style="fill:none;stroke:#ffffff;stroke-width:3.99994;stroke-linecap:butt;stroke-linejoin:miter;stroke-miterlimit:4;stroke-dasharray:none;stroke-opacity:1"
       transform="matrix(0.13333333,0,0,-0.13333333,0,56.48)"
       clip-path="url(#clipPath32)" />
    <path
       id="path33"
       d="m 384.492,377.402 18.75,-11.25 16.25,13.75 -18.75,6.563 -16.25,-9.063"
       style="fill:#036998;fill-opacity:1;fill-rule:nonzero;stroke:none"
       transform="matrix(0.13333333,0,0,-0.13333333,0,56.48)"
       clip-path="url(#clipPath34)" />
    <path
       id="path35"
       d="m 384.492,377.402 18.75,-11.25 16.25,13.75 -18.75,6.563 z"
       style="fill:none;stroke:#ffffff;stroke-width:3.99994;stroke-linecap:butt;stroke-linejoin:miter;stroke-miterlimit:4;stroke-dasharray:none;stroke-opacity:1"
       transform="matrix(0.13333333,0,0,-0.13333333,0,56.48)"
       clip-path="url(#clipPath36)" />
    <path
       id="path37"
       d="m 234.492,389.902 150,-225 H 4.49219 l 202.49981,225 h 27.5"
       style="fill:#036998;fill-opacity:1;fill-rule:nonzero;stroke:none"
       transform="matrix(0.13333333,0,0,-0.13333333,0,56.48)"
       clip-path="url(#clipPath38)" />
    <path
       id="path39"
       d="m 234.492,389.902 150,-225 H 4.49219 l 202.49981,225 z"
       style="fill:none;stroke:#ffffff;stroke-width:3.99994;stroke-linecap:butt;stroke-linejoin:miter;stroke-miterlimit:4;stroke-dasharray:none;stroke-opacity:1"
       transform="matrix(0.13333333,0,0,-0.13333333,0,56.48)"
       clip-path="url(#clipPath40)" />
    <path
       id="path41"
       d="m 105.898,80.5742 h 177 v 33.2852 h -177 z"
       style="fill:#036998;fill-opacity:1;fill-rule:nonzero;stroke:none"
       transform="matrix(0.13333333,0,0,-0.13333333,0,56.48)"
       clip-path="url(#clipPath42)" />
    <path
       id="path43"
       d="m 282.898,80.5742 v 33.2848 h -177 V 80.5742 Z"
       style="fill:none;stroke:#ffffff;stroke-width:3.99994;stroke-linecap:butt;stroke-linejoin:miter;stroke-miterlimit:4;stroke-dasharray:none;stroke-opacity:1"
       transform="matrix(0.13333333,0,0,-0.13333333,0,56.48)"
       clip-path="url(#clipPath44)" />
    <path
       id="path45"
       d="m 228.691,95.0508 h 44.637"
       style="fill:#036998;fill-opacity:1;fill-rule:nonzero;stroke:#ffffff;stroke-width:3.99994;stroke-linecap:butt;stroke-linejoin:miter;stroke-miterlimit:4;stroke-dasharray:none;stroke-opacity:1"
       transform="matrix(0.13333333,0,0,-0.13333333,0,56.48)"
       clip-path="url(#clipPath46)" />
    <path
       id="path47"
       d="m 228.691,96.6523 h 44.637"
       style="fill:#036998;fill-opacity:1;fill-rule:nonzero;stroke:#ffffff;stroke-width:3.99994;stroke-linecap:butt;stroke-linejoin:miter;stroke-miterlimit:4;stroke-dasharray:none;stroke-opacity:1"
       transform="matrix(0.13333333,0,0,-0.13333333,0,56.48)"
       clip-path="url(#clipPath48)" />
    <path
       id="path49"
       d="m 313.477,112.969 v 29.765 L 282.883,113.73 V 80.7813 l 30.594,32.1877"
       style="fill:#036998;fill-opacity:1;fill-rule:nonzero;stroke:none"
       transform="matrix(0.13333333,0,0,-0.13333333,0,56.48)"
       clip-path="url(#clipPath50)" />
    <path
       id="path51"
       d="m 313.477,112.969 v 29.765 L 282.883,113.73 V 80.7813 Z"
       style="fill:none;stroke:#ffffff;stroke-width:3.99994;stroke-linecap:butt;stroke-linejoin:miter;stroke-miterlimit:4;stroke-dasharray:none;stroke-opacity:1"
       transform="matrix(0.13333333,0,0,-0.13333333,0,56.48)"
       clip-path="url(#clipPath52)" />
    <path
       id="path53"
       d="m 251.465,53.5742 v 7.461 l 16.074,22.2461 V 69.6563 L 251.465,53.5742"
       style="fill:#036998;fill-opacity:1;fill-rule:nonzero;stroke:none"
       transform="matrix(0.13333333,0,0,-0.13333333,0,56.48)"
       clip-path="url(#clipPath54)" />
    <path
       id="path55"
       d="m 251.465,53.5742 v 7.461 l 16.074,22.2461 v -13.625 z"
       style="fill:none;stroke:#ffffff;stroke-width:3.99994;stroke-linecap:butt;stroke-linejoin:miter;stroke-miterlimit:4;stroke-dasharray:none;stroke-opacity:1"
       transform="matrix(0.13333333,0,0,-0.13333333,0,56.48)"
       clip-path="url(#clipPath56)" />
    <path
       id="path57"
       d="m 109.668,53.5742 h 141.797 v 7.34375 H 109.668 Z"
       style="fill:#036998;fill-opacity:1;fill-rule:nonzero;stroke:none"
       transform="matrix(0.13333333,0,0,-0.13333333,0,56.48)"
       clip-path="url(#clipPath58)" />
    <path
       id="path59"
       d="M 251.465,60.918 V 53.5742 H 109.668 v 7.3438 z"
       style="fill:none;stroke:#ffffff;stroke-width:3.99994;stroke-linecap:butt;stroke-linejoin:miter;stroke-miterlimit:4;stroke-dasharray:none;stroke-opacity:1"
       transform="matrix(0.13333333,0,0,-0.13333333,0,56.48)"
       clip-path="url(#clipPath60)" />
    <path
       id="path61"
       d="M 251.465,60.918 H 110.117 l 16.082,22.3633 h 141.34 L 251.465,60.918"
       style="fill:#036998;fill-opacity:1;fill-rule:nonzero;stroke:none"
       transform="matrix(0.13333333,0,0,-0.13333333,0,56.48)"
       clip-path="url(#clipPath62)" />
    <path
       id="path63"
       d="M 251.465,60.918 H 110.117 l 16.082,22.3633 h 141.34 z"
       style="fill:none;stroke:#ffffff;stroke-width:3.99994;stroke-linecap:butt;stroke-linejoin:miter;stroke-miterlimit:4;stroke-dasharray:none;stroke-opacity:1"
       transform="matrix(0.13333333,0,0,-0.13333333,0,56.48)"
       clip-path="url(#clipPath64)" />
    <path
       id="path65"
       d="M 312.559,141.836 H 135.547 l -29.649,-27.977 h 177 l 29.661,27.977"
       style="fill:#036998;fill-opacity:1;fill-rule:nonzero;stroke:none"
       transform="matrix(0.13333333,0,0,-0.13333333,0,56.48)"
       clip-path="url(#clipPath66)" />
    <path
       id="path67"
       d="M 312.559,141.836 H 135.547 l -29.649,-27.977 h 177 z"
       style="fill:none;stroke:#ffffff;stroke-width:3.99994;stroke-linecap:butt;stroke-linejoin:miter;stroke-miterlimit:4;stroke-dasharray:none;stroke-opacity:1"
       transform="matrix(0.13333333,0,0,-0.13333333,0,56.48)"
       clip-path="url(#clipPath68)" />
    <path
       id="path69"
       d="M 279.258,141.719 H 160.77 l -19.852,-18.723 h 118.496 l 19.844,18.723"
       style="fill:#036998;fill-opacity:1;fill-rule:nonzero;stroke:none"
       transform="matrix(0.13333333,0,0,-0.13333333,0,56.48)"
       clip-path="url(#clipPath70)" />
    <path
       id="path71"
       d="M 279.258,141.719 H 160.77 l -19.852,-18.723 h 118.496 z"
       style="fill:none;stroke:#ffffff;stroke-width:3.99994;stroke-linecap:butt;stroke-linejoin:miter;stroke-miterlimit:4;stroke-dasharray:none;stroke-opacity:1"
       transform="matrix(0.13333333,0,0,-0.13333333,0,56.48)"
       clip-path="url(#clipPath72)" />
    <path
       id="path73"
       d="m 137.559,130.324 h 122.043 v 89.4531 H 137.559 Z"
       style="fill:#036998;fill-opacity:1;fill-rule:nonzero;stroke:none"
       transform="matrix(0.13333333,0,0,-0.13333333,0,56.48)"
       clip-path="url(#clipPath74)" />
    <path
       id="path75"
       d="M 137.559,219.777 H 259.602 V 130.324 H 137.559 Z"
       style="fill:none;stroke:#ffffff;stroke-width:3.99994;stroke-linecap:butt;stroke-linejoin:miter;stroke-miterlimit:4;stroke-dasharray:none;stroke-opacity:1"
       transform="matrix(0.13333333,0,0,-0.13333333,0,56.48)"
       clip-path="url(#clipPath76)" />
    <path
       id="path77"
       d="m 147.859,200.156 c 0,8.977 9.309,10.305 9.309,10.305 0,0 71.836,0 80.488,0 11.297,0 10.965,-10.637 10.965,-10.637 0,0 0,-43.894 0,-50.215 0,-6.316 -8.641,-8.984 -8.641,-8.984 0,0 -73.496,0 -81.484,0 -7.969,0 -10.637,8.32 -10.637,8.32 v 51.211"
       style="fill:#036998;fill-opacity:1;fill-rule:nonzero;stroke:none"
       transform="matrix(0.13333333,0,0,-0.13333333,0,56.48)"
       clip-path="url(#clipPath78)" />
    <path
       id="path79"
       d="m 147.859,200.156 c 0,8.977 9.309,10.305 9.309,10.305 0,0 71.836,0 80.488,0 11.297,0 10.965,-10.637 10.965,-10.637 0,0 0,-43.894 0,-50.215 0,-6.316 -8.641,-8.984 -8.641,-8.984 0,0 -73.496,0 -81.484,0 -7.969,0 -10.637,8.32 -10.637,8.32 z"
       style="fill:none;stroke:#ffffff;stroke-width:3.99994;stroke-linecap:butt;stroke-linejoin:miter;stroke-miterlimit:4;stroke-dasharray:none;stroke-opacity:1"
       transform="matrix(0.13333333,0,0,-0.13333333,0,56.48)"
       clip-path="url(#clipPath80)" />
    <path
       id="path81"
       d="M 280.051,239.063 H 158.008 l -20.449,-19.286 h 122.043 l 20.449,19.286"
       style="fill:#036998;fill-opacity:1;fill-rule:nonzero;stroke:none"
       transform="matrix(0.13333333,0,0,-0.13333333,0,56.48)"
       clip-path="url(#clipPath82)" />
    <path
       id="path83"
       d="M 280.051,239.063 H 158.008 l -20.449,-19.286 h 122.043 z"
       style="fill:none;stroke:#ffffff;stroke-width:3.99994;stroke-linecap:butt;stroke-linejoin:miter;stroke-miterlimit:4;stroke-dasharray:none;stroke-opacity:1"
       transform="matrix(0.13333333,0,0,-0.13333333,0,56.48)"
       clip-path="url(#clipPath84)" />
    <path
       id="path85"
       d="m 280.059,149.324 v 89.778 l -20.254,-19.161 v -89.773 l 20.254,19.156"
       style="fill:#036998;fill-opacity:1;fill-rule:nonzero;stroke:none"
       transform="matrix(0.13333333,0,0,-0.13333333,0,56.48)"
       clip-path="url(#clipPath86)" />
    <path
       id="path87"
       d="m 280.059,149.324 v 89.778 l -20.254,-19.161 v -89.773 z"
       style="fill:none;stroke:#ffffff;stroke-width:3.99994;stroke-linecap:butt;stroke-linejoin:miter;stroke-miterlimit:4;stroke-dasharray:none;stroke-opacity:1"
       transform="matrix(0.13333333,0,0,-0.13333333,0,56.48)"
       clip-path="url(#clipPath88)" />
  </g>
</svg>
