<?xml version="1.0" encoding="UTF-8" standalone="no"?>
<!-- Created with Inkscape (http://www.inkscape.org/) -->

<svg
   version="1.1"
   id="svg1"
   width="44.853333"
   height="42.32"
   viewBox="0 0 44.853333 42.32"
   sodipodi:docname="transpath.eps"
   xmlns:inkscape="http://www.inkscape.org/namespaces/inkscape"
   xmlns:sodipodi="http://sodipodi.sourceforge.net/DTD/sodipodi-0.dtd"
   xmlns="http://www.w3.org/2000/svg"
   xmlns:svg="http://www.w3.org/2000/svg">
  <defs
     id="defs1" />
  <sodipodi:namedview
     id="namedview1"
     pagecolor="#505050"
     bordercolor="#eeeeee"
     borderopacity="1"
     inkscape:showpageshadow="0"
     inkscape:pageopacity="0"
     inkscape:pagecheckerboard="0"
     inkscape:deskcolor="#d1d1d1">
    <inkscape:page
       x="0"
       y="0"
       inkscape:label="1"
       id="page1"
       width="44.853333"
       height="42.32"
       margin="0"
       bleed="0" />
  </sodipodi:namedview>
  <g
     id="g1"
     inkscape:groupmode="layer"
     inkscape:label="1">
    <path
       id="path1"
       d="m 5.62891,5.63672 h 300.871 v 281.852 H 5.62891 Z"
       style="fill:#026c9b;fill-opacity:1;fill-rule:nonzero;stroke:none"
       transform="matrix(0.13333333,0,0,-0.13333333,0,42.32)" />
    <path
       id="path2"
       d="M 306.5,5.63672 V 287.488 H 5.62891 V 5.63672 Z"
       style="fill:none;stroke:#ffffff;stroke-width:4;stroke-linecap:butt;stroke-linejoin:miter;stroke-miterlimit:4;stroke-dasharray:none;stroke-opacity:1"
       transform="matrix(0.13333333,0,0,-0.13333333,0,42.32)" />
    <path
       id="path3"
       d="M 5.62891,287.488 36.5078,312.59 H 331.598 L 306.5,287.488 H 5.62891"
       style="fill:#026c9b;fill-opacity:1;fill-rule:nonzero;stroke:none"
       transform="matrix(0.13333333,0,0,-0.13333333,0,42.32)" />
    <path
       id="path4"
       d="M 5.62891,287.488 36.5078,312.59 H 331.598 L 306.5,287.488 Z"
       style="fill:none;stroke:#ffffff;stroke-width:4;stroke-linecap:butt;stroke-linejoin:miter;stroke-miterlimit:4;stroke-dasharray:none;stroke-opacity:1"
       transform="matrix(0.13333333,0,0,-0.13333333,0,42.32)" />
    <path
       id="path5"
       d="M 306.5,5.63672 331.598,36.5234 V 312.59 L 306.5,287.488 V 5.63672"
       style="fill:#026c9b;fill-opacity:1;fill-rule:nonzero;stroke:none"
       transform="matrix(0.13333333,0,0,-0.13333333,0,42.32)" />
    <path
       id="path6"
       d="M 306.5,5.63672 331.598,36.5234 V 312.59 L 306.5,287.488 Z"
       style="fill:none;stroke:#ffffff;stroke-width:4;stroke-linecap:butt;stroke-linejoin:miter;stroke-miterlimit:4;stroke-dasharray:none;stroke-opacity:1"
       transform="matrix(0.13333333,0,0,-0.13333333,0,42.32)" />
    <path
       id="path7"
       d="m 304.164,192.09 h -56.816 c -19.657,0 -19.657,19.668 -19.657,19.668 30.586,67.746 -24.054,56.797 -24.054,56.797 0,0 -54.617,10.949 -24.032,-56.797 0,0 0,-19.668 -19.66,-19.668 H 22.2617 c 0,0 -10.9297,-2.18 -15.29295,-17.473"
       style="fill:none;stroke:#ffffff;stroke-width:4;stroke-linecap:butt;stroke-linejoin:miter;stroke-miterlimit:4;stroke-dasharray:none;stroke-opacity:1"
       transform="matrix(0.13333333,0,0,-0.13333333,0,42.32)" />
    <path
       id="path8"
       d="M 5.30859,103.887 H 62.125 c 19.6484,0 19.6484,-19.6682 19.6484,-19.6682 -30.5859,-67.7422 24.0626,-56.8086 24.0626,-56.8086 0,0 54.617,-10.9336 24.031,56.8086 0,0 0,19.6682 19.66,19.6682 h 137.684 c 0,0 10.93,2.176 15.293,17.468"
       style="fill:none;stroke:#ffffff;stroke-width:4;stroke-linecap:butt;stroke-linejoin:miter;stroke-miterlimit:4;stroke-dasharray:none;stroke-opacity:1"
       transform="matrix(0.13333333,0,0,-0.13333333,0,42.32)" />
    <path
       id="path9"
       d="m 75.7773,158.777 7.5977,-11.382 -28.7109,-6.641 6.2695,5.23 -44.3672,7.579 11.125,8.339 42.832,-7.246 5.2539,4.121"
       style="fill:#ffffff;fill-opacity:1;fill-rule:nonzero;stroke:none"
       transform="matrix(0.13333333,0,0,-0.13333333,0,42.32)" />
    <path
       id="path10"
       d="m 116.188,131.16 -5.176,11.738 25.898,5.176 -4.492,-4.019 43.164,-7.367 -10.371,-8.29 -42.891,8.055 -6.132,-5.293"
       style="fill:#ffffff;fill-opacity:1;fill-rule:nonzero;stroke:none"
       transform="matrix(0.13333333,0,0,-0.13333333,0,42.32)" />
    <path
       id="path11"
       d="m 102.027,165 29.004,7.938 0.352,-12.43 -7.258,1.387 -14.148,-11.75 -13.5161,1.972 14.6091,11.488 -9.043,1.395"
       style="fill:#ffffff;fill-opacity:1;fill-rule:nonzero;stroke:none"
       transform="matrix(0.13333333,0,0,-0.13333333,0,42.32)" />
    <path
       id="path12"
       d="m 89.5938,120.461 -27.625,-5.188 -1.0352,12.786 7.9492,-1.731 15.1953,12.981 13.4571,-2.278 -16.2305,-14.16 8.2891,-2.41"
       style="fill:#ffffff;fill-opacity:1;fill-rule:nonzero;stroke:none"
       transform="matrix(0.13333333,0,0,-0.13333333,0,42.32)" />
    <path
       id="path13"
       d="m 241,146.848 19.004,-14.907 8.848,0.039 0.011,3.918 20.164,-7.136 -20.164,-7.153 -0.011,4.028 -11.473,0.008 -21.719,17.019 -21.719,-17.019 -11.484,-0.008 -0.012,-4.028 -20.156,7.153 20.156,7.136 0.012,-3.918 8.848,-0.039 19.011,14.907 -19.011,14.898 -8.848,-0.016 -0.012,-3.925 -20.156,7.144 20.156,7.153 0.012,-4.028 11.484,-0.015 21.719,-17.012 21.719,17.012 11.473,0.015 0.011,4.028 20.164,-7.153 -20.164,-7.144 -0.011,3.925 -8.848,0.016 L 241,146.848"
       style="fill:#ffffff;fill-opacity:1;fill-rule:nonzero;stroke:none"
       transform="matrix(0.13333333,0,0,-0.13333333,0,42.32)" />
  </g>
</svg>
