<?xml version="1.0" encoding="UTF-8" standalone="no"?>
<!-- Created with Inkscape (http://www.inkscape.org/) -->

<svg
   version="1.1"
   id="svg1"
   width="102.96"
   height="41.933334"
   viewBox="0 0 102.96 41.933334"
   sodipodi:docname="turret.eps"
   xmlns:inkscape="http://www.inkscape.org/namespaces/inkscape"
   xmlns:sodipodi="http://sodipodi.sourceforge.net/DTD/sodipodi-0.dtd"
   xmlns="http://www.w3.org/2000/svg"
   xmlns:svg="http://www.w3.org/2000/svg">
  <defs
     id="defs1">
    <clipPath
       clipPathUnits="userSpaceOnUse"
       id="clipPath2">
      <path
         d="M 0,4 V 315 H 770 V 4 Z"
         id="path2" />
    </clipPath>
    <clipPath
       clipPathUnits="userSpaceOnUse"
       id="clipPath4">
      <path
         d="M 0,4 V 315 H 770 V 4 Z"
         id="path4" />
    </clipPath>
    <clipPath
       clipPathUnits="userSpaceOnUse"
       id="clipPath6">
      <path
         d="M 0,4 V 315 H 770 V 4 Z"
         id="path6" />
    </clipPath>
    <clipPath
       clipPathUnits="userSpaceOnUse"
       id="clipPath8">
      <path
         d="M 0,4 V 315 H 770 V 4 Z"
         id="path8" />
    </clipPath>
    <clipPath
       clipPathUnits="userSpaceOnUse"
       id="clipPath10">
      <path
         d="M 0,4 V 315 H 770 V 4 Z"
         id="path10" />
    </clipPath>
    <clipPath
       clipPathUnits="userSpaceOnUse"
       id="clipPath12">
      <path
         d="M 0,4 V 315 H 770 V 4 Z"
         id="path12" />
    </clipPath>
    <clipPath
       clipPathUnits="userSpaceOnUse"
       id="clipPath14">
      <path
         d="M 0,4 V 315 H 770 V 4 Z"
         id="path14" />
    </clipPath>
    <clipPath
       clipPathUnits="userSpaceOnUse"
       id="clipPath16">
      <path
         d="M 0,4 V 315 H 770 V 4 Z"
         id="path16" />
    </clipPath>
    <clipPath
       clipPathUnits="userSpaceOnUse"
       id="clipPath18">
      <path
         d="M 0,4 V 315 H 770 V 4 Z"
         id="path18" />
    </clipPath>
    <clipPath
       clipPathUnits="userSpaceOnUse"
       id="clipPath20">
      <path
         d="M 0,4 V 315 H 770 V 4 Z"
         id="path20" />
    </clipPath>
    <clipPath
       clipPathUnits="userSpaceOnUse"
       id="clipPath22">
      <path
         d="M 0,4 V 315 H 770 V 4 Z"
         id="path22" />
    </clipPath>
    <clipPath
       clipPathUnits="userSpaceOnUse"
       id="clipPath24">
      <path
         d="M 0,4 V 315 H 770 V 4 Z"
         id="path24" />
    </clipPath>
    <clipPath
       clipPathUnits="userSpaceOnUse"
       id="clipPath26">
      <path
         d="M 0,4 V 315 H 770 V 4 Z"
         id="path26" />
    </clipPath>
    <clipPath
       clipPathUnits="userSpaceOnUse"
       id="clipPath28">
      <path
         d="M 0,4 V 315 H 770 V 4 Z"
         id="path28" />
    </clipPath>
    <clipPath
       clipPathUnits="userSpaceOnUse"
       id="clipPath30">
      <path
         d="M 0,4 V 315 H 770 V 4 Z"
         id="path30" />
    </clipPath>
    <clipPath
       clipPathUnits="userSpaceOnUse"
       id="clipPath32">
      <path
         d="M 0,4 V 315 H 770 V 4 Z"
         id="path32" />
    </clipPath>
    <clipPath
       clipPathUnits="userSpaceOnUse"
       id="clipPath34">
      <path
         d="M 0,4 V 315 H 770 V 4 Z"
         id="path34" />
    </clipPath>
    <clipPath
       clipPathUnits="userSpaceOnUse"
       id="clipPath36">
      <path
         d="M 0,4 V 315 H 770 V 4 Z"
         id="path36" />
    </clipPath>
    <clipPath
       clipPathUnits="userSpaceOnUse"
       id="clipPath38">
      <path
         d="M 0,4 V 315 H 770 V 4 Z"
         id="path38" />
    </clipPath>
    <clipPath
       clipPathUnits="userSpaceOnUse"
       id="clipPath40">
      <path
         d="M 0,4 V 315 H 770 V 4 Z"
         id="path40" />
    </clipPath>
    <clipPath
       clipPathUnits="userSpaceOnUse"
       id="clipPath42">
      <path
         d="M 0,4 V 315 H 770 V 4 Z"
         id="path42" />
    </clipPath>
    <clipPath
       clipPathUnits="userSpaceOnUse"
       id="clipPath44">
      <path
         d="M 0,4 V 315 H 770 V 4 Z"
         id="path44" />
    </clipPath>
    <clipPath
       clipPathUnits="userSpaceOnUse"
       id="clipPath46">
      <path
         d="M 0,4 V 315 H 770 V 4 Z"
         id="path46" />
    </clipPath>
    <clipPath
       clipPathUnits="userSpaceOnUse"
       id="clipPath48">
      <path
         d="M 0,4 V 315 H 770 V 4 Z"
         id="path48" />
    </clipPath>
    <clipPath
       clipPathUnits="userSpaceOnUse"
       id="clipPath50">
      <path
         d="M 0,4 V 315 H 770 V 4 Z"
         id="path50" />
    </clipPath>
    <clipPath
       clipPathUnits="userSpaceOnUse"
       id="clipPath52">
      <path
         d="M 0,4 V 315 H 770 V 4 Z"
         id="path52" />
    </clipPath>
    <clipPath
       clipPathUnits="userSpaceOnUse"
       id="clipPath54">
      <path
         d="M 0,4 V 315 H 770 V 4 Z"
         id="path54" />
    </clipPath>
    <clipPath
       clipPathUnits="userSpaceOnUse"
       id="clipPath56">
      <path
         d="M 0,4 V 315 H 770 V 4 Z"
         id="path56" />
    </clipPath>
    <clipPath
       clipPathUnits="userSpaceOnUse"
       id="clipPath58">
      <path
         d="M 0,4 V 315 H 770 V 4 Z"
         id="path58" />
    </clipPath>
    <clipPath
       clipPathUnits="userSpaceOnUse"
       id="clipPath60">
      <path
         d="M 0,4 V 315 H 770 V 4 Z"
         id="path60" />
    </clipPath>
    <clipPath
       clipPathUnits="userSpaceOnUse"
       id="clipPath62">
      <path
         d="M 0,4 V 315 H 770 V 4 Z"
         id="path62" />
    </clipPath>
    <clipPath
       clipPathUnits="userSpaceOnUse"
       id="clipPath64">
      <path
         d="M 0,4 V 315 H 770 V 4 Z"
         id="path64" />
    </clipPath>
    <clipPath
       clipPathUnits="userSpaceOnUse"
       id="clipPath66">
      <path
         d="M 0,4 V 315 H 770 V 4 Z"
         id="path66" />
    </clipPath>
    <clipPath
       clipPathUnits="userSpaceOnUse"
       id="clipPath68">
      <path
         d="M 0,4 V 315 H 770 V 4 Z"
         id="path68" />
    </clipPath>
    <clipPath
       clipPathUnits="userSpaceOnUse"
       id="clipPath70">
      <path
         d="M 0,4 V 315 H 770 V 4 Z"
         id="path70" />
    </clipPath>
    <clipPath
       clipPathUnits="userSpaceOnUse"
       id="clipPath72">
      <path
         d="M 0,4 V 315 H 770 V 4 Z"
         id="path72" />
    </clipPath>
    <clipPath
       clipPathUnits="userSpaceOnUse"
       id="clipPath74">
      <path
         d="M 0,4 V 315 H 770 V 4 Z"
         id="path74" />
    </clipPath>
    <clipPath
       clipPathUnits="userSpaceOnUse"
       id="clipPath76">
      <path
         d="M 0,4 V 315 H 770 V 4 Z"
         id="path76" />
    </clipPath>
    <clipPath
       clipPathUnits="userSpaceOnUse"
       id="clipPath78">
      <path
         d="M 0,4 V 315 H 770 V 4 Z"
         id="path78" />
    </clipPath>
    <clipPath
       clipPathUnits="userSpaceOnUse"
       id="clipPath80">
      <path
         d="M 0,4 V 315 H 770 V 4 Z"
         id="path80" />
    </clipPath>
    <clipPath
       clipPathUnits="userSpaceOnUse"
       id="clipPath82">
      <path
         d="M 0,4 V 315 H 770 V 4 Z"
         id="path82" />
    </clipPath>
    <clipPath
       clipPathUnits="userSpaceOnUse"
       id="clipPath84">
      <path
         d="M 0,4 V 315 H 770 V 4 Z"
         id="path84" />
    </clipPath>
    <clipPath
       clipPathUnits="userSpaceOnUse"
       id="clipPath86">
      <path
         d="M 0,4 V 315 H 770 V 4 Z"
         id="path86" />
    </clipPath>
    <clipPath
       clipPathUnits="userSpaceOnUse"
       id="clipPath88">
      <path
         d="M 0,4 V 315 H 770 V 4 Z"
         id="path88" />
    </clipPath>
  </defs>
  <sodipodi:namedview
     id="namedview1"
     pagecolor="#505050"
     bordercolor="#eeeeee"
     borderopacity="1"
     inkscape:showpageshadow="0"
     inkscape:pageopacity="0"
     inkscape:pagecheckerboard="0"
     inkscape:deskcolor="#d1d1d1">
    <inkscape:page
       x="0"
       y="0"
       inkscape:label="1"
       id="page1"
       width="102.96"
       height="41.933334"
       margin="0"
       bleed="0" />
  </sodipodi:namedview>
  <g
     id="g1"
     inkscape:groupmode="layer"
     inkscape:label="1">
    <path
       id="path1"
       d="m 687.859,66.6328 c 0,-3.5976 -2.91,-6.4844 -6.48,-6.4844 H 68.543 c -3.5742,0 -6.4844,2.8868 -6.4844,6.4844 L 96.1016,271.91 c 0,3.574 2.8906,6.473 6.4644,6.473 h 602.051 c 3.574,0 6.488,-2.899 6.488,-6.473 L 687.859,66.6328"
       style="fill:#036998;fill-opacity:1;fill-rule:nonzero;stroke:#ffffff;stroke-width:3.99994;stroke-linecap:butt;stroke-linejoin:miter;stroke-miterlimit:4;stroke-dasharray:none;stroke-opacity:1"
       transform="matrix(0.13333333,0,0,-0.13333333,0,41.933333)"
       clip-path="url(#clipPath2)" />
    <path
       id="path3"
       d="m 770.754,95.8828 c 0,-3.582 -2.895,-6.4726 -6.484,-6.4726 L 679.348,60.1484 c -3.594,0 -6.489,2.8868 -6.489,6.4844 L 696.105,271.91 c 0,3.574 2.887,6.473 6.485,6.473 h 62.027 c 3.574,0 6.488,-2.899 6.488,-6.473 L 770.754,95.8828"
       style="fill:#036998;fill-opacity:1;fill-rule:nonzero;stroke:#ffffff;stroke-width:3.99994;stroke-linecap:butt;stroke-linejoin:miter;stroke-miterlimit:4;stroke-dasharray:none;stroke-opacity:1"
       transform="matrix(0.13333333,0,0,-0.13333333,0,41.933333)"
       clip-path="url(#clipPath4)" />
    <path
       id="path5"
       d="M 628.605,31.5703 H 417.629 l 59.527,77.1247 H 676.688 L 628.605,31.5703"
       style="fill:#036998;fill-opacity:1;fill-rule:nonzero;stroke:none"
       transform="matrix(0.13333333,0,0,-0.13333333,0,41.933333)"
       clip-path="url(#clipPath6)" />
    <path
       id="path7"
       d="M 628.605,31.5703 H 417.629 l 59.527,77.1247 h 199.532 z"
       style="fill:none;stroke:#ffffff;stroke-width:3.99994;stroke-linecap:butt;stroke-linejoin:miter;stroke-miterlimit:4;stroke-dasharray:none;stroke-opacity:1"
       transform="matrix(0.13333333,0,0,-0.13333333,0,41.933333)"
       clip-path="url(#clipPath8)" />
    <path
       id="path9"
       d="M 628.605,6.57031 H 417.629 l 2.383,23.98829 H 628.605 V 6.57031"
       style="fill:#036998;fill-opacity:1;fill-rule:nonzero;stroke:none"
       transform="matrix(0.13333333,0,0,-0.13333333,0,41.933333)"
       clip-path="url(#clipPath10)" />
    <path
       id="path11"
       d="M 628.605,6.57031 H 417.629 l 2.383,23.98829 h 208.593 z"
       style="fill:none;stroke:#ffffff;stroke-width:3.99994;stroke-linecap:butt;stroke-linejoin:miter;stroke-miterlimit:4;stroke-dasharray:none;stroke-opacity:1"
       transform="matrix(0.13333333,0,0,-0.13333333,0,41.933333)"
       clip-path="url(#clipPath12)" />
    <path
       id="path13"
       d="M 677.98,108.512 V 59.2695 L 627.258,5.06641 V 33.3672 l 50.722,75.1448"
       style="fill:#036998;fill-opacity:1;fill-rule:nonzero;stroke:none"
       transform="matrix(0.13333333,0,0,-0.13333333,0,41.933333)"
       clip-path="url(#clipPath14)" />
    <path
       id="path15"
       d="M 677.98,108.512 V 59.2695 L 627.258,5.06641 V 33.3672 Z"
       style="fill:none;stroke:#ffffff;stroke-width:3.99994;stroke-linecap:butt;stroke-linejoin:miter;stroke-miterlimit:4;stroke-dasharray:none;stroke-opacity:1"
       transform="matrix(0.13333333,0,0,-0.13333333,0,41.933333)"
       clip-path="url(#clipPath16)" />
    <path
       id="path17"
       d="M 277.922,275.199 246.438,60.8906"
       style="fill:#036998;fill-opacity:1;fill-rule:nonzero;stroke:#ffffff;stroke-width:3.99994;stroke-linecap:butt;stroke-linejoin:miter;stroke-miterlimit:4;stroke-dasharray:none;stroke-opacity:1"
       transform="matrix(0.13333333,0,0,-0.13333333,0,41.933333)"
       clip-path="url(#clipPath18)" />
    <path
       id="path19"
       d="M 496.785,276.676 475.012,106.539"
       style="fill:#036998;fill-opacity:1;fill-rule:nonzero;stroke:#ffffff;stroke-width:3.99994;stroke-linecap:butt;stroke-linejoin:miter;stroke-miterlimit:4;stroke-dasharray:none;stroke-opacity:1"
       transform="matrix(0.13333333,0,0,-0.13333333,0,41.933333)"
       clip-path="url(#clipPath20)" />
    <path
       id="path21"
       d="m 678.605,200.883 c 0,-13.809 -11.195,-25 -25,-25 -13.808,0 -25,11.191 -25,25 0,13.808 11.192,25 25,25 13.805,0 25,-11.192 25,-25"
       style="fill:#036998;fill-opacity:1;fill-rule:nonzero;stroke:none"
       transform="matrix(0.13333333,0,0,-0.13333333,0,41.933333)"
       clip-path="url(#clipPath22)" />
    <path
       id="path23"
       d="m 678.605,200.883 c 0,-13.809 -11.195,-25 -25,-25 -13.808,0 -25,11.191 -25,25 0,13.808 11.192,25 25,25 13.805,0 25,-11.192 25,-25 z"
       style="fill:none;stroke:#ffffff;stroke-width:3.99994;stroke-linecap:butt;stroke-linejoin:miter;stroke-miterlimit:4;stroke-dasharray:none;stroke-opacity:1"
       transform="matrix(0.13333333,0,0,-0.13333333,0,41.933333)"
       clip-path="url(#clipPath24)" />
    <path
       id="path25"
       d="m 201.105,230.883 c 0,-13.809 -11.195,-25 -25,-25 -13.808,0 -25,11.191 -25,25 0,13.808 11.192,25 25,25 13.805,0 25,-11.192 25,-25"
       style="fill:#036998;fill-opacity:1;fill-rule:nonzero;stroke:none"
       transform="matrix(0.13333333,0,0,-0.13333333,0,41.933333)"
       clip-path="url(#clipPath26)" />
    <path
       id="path27"
       d="m 201.105,230.883 c 0,-13.809 -11.195,-25 -25,-25 -13.808,0 -25,11.191 -25,25 0,13.808 11.192,25 25,25 13.805,0 25,-11.192 25,-25 z"
       style="fill:none;stroke:#ffffff;stroke-width:3.99994;stroke-linecap:butt;stroke-linejoin:miter;stroke-miterlimit:4;stroke-dasharray:none;stroke-opacity:1"
       transform="matrix(0.13333333,0,0,-0.13333333,0,41.933333)"
       clip-path="url(#clipPath28)" />
    <path
       id="path29"
       d="m 533.469,68.2656 c -5.766,-11.4961 -23.481,-20.0898 -39.59,-19.1718 -16.113,0.9335 -24.516,10.996 -18.75,22.5039 5.738,11.5117 23.457,20.0976 39.566,19.1679 16.118,-0.9258 24.516,-10.9961 18.774,-22.5"
       style="fill:#036998;fill-opacity:1;fill-rule:nonzero;stroke:none"
       transform="matrix(0.13333333,0,0,-0.13333333,0,41.933333)"
       clip-path="url(#clipPath30)" />
    <path
       id="path31"
       d="m 533.469,68.2656 c -5.766,-11.4961 -23.481,-20.0898 -39.59,-19.1718 -16.113,0.9335 -24.516,10.996 -18.75,22.5039 5.738,11.5117 23.457,20.0976 39.566,19.1679 16.118,-0.9258 24.516,-10.9961 18.774,-22.5 z"
       style="fill:none;stroke:#ffffff;stroke-width:3.99994;stroke-linecap:butt;stroke-linejoin:miter;stroke-miterlimit:4;stroke-dasharray:none;stroke-opacity:1"
       transform="matrix(0.13333333,0,0,-0.13333333,0,41.933333)"
       clip-path="url(#clipPath32)" />
    <path
       id="path33"
       d="m 358.254,144.254 c -3.613,-22.57 -21.977,-27.734 -43.613,-27.844 -21.645,-0.105 -38.379,4.875 -34.77,27.434 l 10.649,66.406 c 3.613,22.559 21.968,27.723 43.613,27.832 21.637,0.117 38.379,-4.863 34.762,-27.422 l -10.641,-66.406"
       style="fill:#036998;fill-opacity:1;fill-rule:nonzero;stroke:none"
       transform="matrix(0.13333333,0,0,-0.13333333,0,41.933333)"
       clip-path="url(#clipPath34)" />
    <path
       id="path35"
       d="m 358.254,144.254 c -3.613,-22.57 -21.977,-27.734 -43.613,-27.844 -21.645,-0.105 -38.379,4.875 -34.77,27.434 l 10.649,66.406 c 3.613,22.559 21.968,27.723 43.613,27.832 21.637,0.117 38.379,-4.863 34.762,-27.422 z"
       style="fill:none;stroke:#ffffff;stroke-width:3.99994;stroke-linecap:butt;stroke-linejoin:miter;stroke-miterlimit:4;stroke-dasharray:none;stroke-opacity:1"
       transform="matrix(0.13333333,0,0,-0.13333333,0,41.933333)"
       clip-path="url(#clipPath36)" />
    <path
       id="path37"
       d="m 445.754,144.254 c -3.613,-22.57 -21.977,-27.734 -43.613,-27.844 -21.645,-0.105 -38.379,4.875 -34.77,27.434 l 10.649,66.406 c 3.613,22.559 21.968,27.723 43.613,27.832 21.637,0.117 38.379,-4.863 34.762,-27.422 l -10.641,-66.406"
       style="fill:#036998;fill-opacity:1;fill-rule:nonzero;stroke:none"
       transform="matrix(0.13333333,0,0,-0.13333333,0,41.933333)"
       clip-path="url(#clipPath38)" />
    <path
       id="path39"
       d="m 445.754,144.254 c -3.613,-22.57 -21.977,-27.734 -43.613,-27.844 -21.645,-0.105 -38.379,4.875 -34.77,27.434 l 10.649,66.406 c 3.613,22.559 21.968,27.723 43.613,27.832 21.637,0.117 38.379,-4.863 34.762,-27.422 z"
       style="fill:none;stroke:#ffffff;stroke-width:3.99994;stroke-linecap:butt;stroke-linejoin:miter;stroke-miterlimit:4;stroke-dasharray:none;stroke-opacity:1"
       transform="matrix(0.13333333,0,0,-0.13333333,0,41.933333)"
       clip-path="url(#clipPath40)" />
    <path
       id="path41"
       d="m 599.387,148.238 c -4.438,-19.179 -26.899,-23.554 -53.379,-23.652 -26.488,-0.098 -46.977,4.141 -42.539,23.32 l 8.687,56.434 c 4.453,19.191 26.914,23.566 53.403,23.664 26.484,0.098 46.968,-4.141 42.539,-23.32 l -8.711,-56.446"
       style="fill:#036998;fill-opacity:1;fill-rule:nonzero;stroke:none"
       transform="matrix(0.13333333,0,0,-0.13333333,0,41.933333)"
       clip-path="url(#clipPath42)" />
    <path
       id="path43"
       d="m 599.387,148.238 c -4.438,-19.179 -26.899,-23.554 -53.379,-23.652 -26.488,-0.098 -46.977,4.141 -42.539,23.32 l 8.687,56.434 c 4.453,19.191 26.914,23.566 53.403,23.664 26.484,0.098 46.968,-4.141 42.539,-23.32 z"
       style="fill:none;stroke:#ffffff;stroke-width:3.99994;stroke-linecap:butt;stroke-linejoin:miter;stroke-miterlimit:4;stroke-dasharray:none;stroke-opacity:1"
       transform="matrix(0.13333333,0,0,-0.13333333,0,41.933333)"
       clip-path="url(#clipPath44)" />
    <path
       id="path45"
       d="M 235.652,165.895 H 112.313 l 3.339,20 h 123.325 l -3.325,-20"
       style="fill:#036998;fill-opacity:1;fill-rule:nonzero;stroke:none"
       transform="matrix(0.13333333,0,0,-0.13333333,0,41.933333)"
       clip-path="url(#clipPath46)" />
    <path
       id="path47"
       d="M 235.652,165.895 H 112.313 l 3.339,20 h 123.325 z"
       style="fill:none;stroke:#ffffff;stroke-width:3.99994;stroke-linecap:butt;stroke-linejoin:miter;stroke-miterlimit:4;stroke-dasharray:none;stroke-opacity:1"
       transform="matrix(0.13333333,0,0,-0.13333333,0,41.933333)"
       clip-path="url(#clipPath48)" />
    <path
       id="path49"
       d="M 228.977,135.895 H 105.652 l 3.34,20 h 123.321 l -3.336,-20"
       style="fill:#036998;fill-opacity:1;fill-rule:nonzero;stroke:none"
       transform="matrix(0.13333333,0,0,-0.13333333,0,41.933333)"
       clip-path="url(#clipPath50)" />
    <path
       id="path51"
       d="M 228.977,135.895 H 105.652 l 3.34,20 h 123.321 z"
       style="fill:none;stroke:#ffffff;stroke-width:3.99994;stroke-linecap:butt;stroke-linejoin:miter;stroke-miterlimit:4;stroke-dasharray:none;stroke-opacity:1"
       transform="matrix(0.13333333,0,0,-0.13333333,0,41.933333)"
       clip-path="url(#clipPath52)" />
    <path
       id="path53"
       d="M 222.313,105.895 H 98.9922 l 3.3208,20 h 123.339 l -3.339,-20"
       style="fill:#036998;fill-opacity:1;fill-rule:nonzero;stroke:none"
       transform="matrix(0.13333333,0,0,-0.13333333,0,41.933333)"
       clip-path="url(#clipPath54)" />
    <path
       id="path55"
       d="M 222.313,105.895 H 98.9922 l 3.3208,20 h 123.339 z"
       style="fill:none;stroke:#ffffff;stroke-width:3.99994;stroke-linecap:butt;stroke-linejoin:miter;stroke-miterlimit:4;stroke-dasharray:none;stroke-opacity:1"
       transform="matrix(0.13333333,0,0,-0.13333333,0,41.933333)"
       clip-path="url(#clipPath56)" />
    <path
       id="path57"
       d="M 215.652,75.8945 H 92.3164 l 3.3399,20 H 218.992 l -3.34,-20"
       style="fill:#036998;fill-opacity:1;fill-rule:nonzero;stroke:none"
       transform="matrix(0.13333333,0,0,-0.13333333,0,41.933333)"
       clip-path="url(#clipPath58)" />
    <path
       id="path59"
       d="M 215.652,75.8945 H 92.3164 l 3.3399,20 H 218.992 Z"
       style="fill:none;stroke:#ffffff;stroke-width:3.99994;stroke-linecap:butt;stroke-linejoin:miter;stroke-miterlimit:4;stroke-dasharray:none;stroke-opacity:1"
       transform="matrix(0.13333333,0,0,-0.13333333,0,41.933333)"
       clip-path="url(#clipPath60)" />
    <path
       id="path61"
       d="m 615.652,49.2305 h -66.66 l 23.344,33.3242 h 66.656 l -23.34,-33.3242"
       style="fill:#036998;fill-opacity:1;fill-rule:nonzero;stroke:none"
       transform="matrix(0.13333333,0,0,-0.13333333,0,41.933333)"
       clip-path="url(#clipPath62)" />
    <path
       id="path63"
       d="m 615.652,49.2305 h -66.66 l 23.344,33.3242 h 66.656 z"
       style="fill:none;stroke:#ffffff;stroke-width:3.99994;stroke-linecap:butt;stroke-linejoin:miter;stroke-miterlimit:4;stroke-dasharray:none;stroke-opacity:1"
       transform="matrix(0.13333333,0,0,-0.13333333,0,41.933333)"
       clip-path="url(#clipPath64)" />
    <path
       id="path65"
       d="m 185.266,242.555 c 50,70 146.66,53.328 146.66,53.328"
       style="fill:#036998;fill-opacity:1;fill-rule:nonzero;stroke:#ffffff;stroke-width:3.99994;stroke-linecap:butt;stroke-linejoin:miter;stroke-miterlimit:4;stroke-dasharray:none;stroke-opacity:1"
       transform="matrix(0.13333333,0,0,-0.13333333,0,41.933333)"
       clip-path="url(#clipPath66)" />
    <path
       id="path67"
       d="m 355.266,299.215 c 0,-7.363 -10.453,-13.332 -23.34,-13.332 -12.895,0 -23.321,5.969 -23.321,13.332 0,7.363 10.426,13.34 23.321,13.34 12.887,0 23.34,-5.977 23.34,-13.34"
       style="fill:#036998;fill-opacity:1;fill-rule:nonzero;stroke:none"
       transform="matrix(0.13333333,0,0,-0.13333333,0,41.933333)"
       clip-path="url(#clipPath68)" />
    <path
       id="path69"
       d="m 355.266,299.215 c 0,-7.363 -10.453,-13.332 -23.34,-13.332 -12.895,0 -23.321,5.969 -23.321,13.332 0,7.363 10.426,13.34 23.321,13.34 12.887,0 23.34,-5.977 23.34,-13.34 z"
       style="fill:none;stroke:#ffffff;stroke-width:3.99994;stroke-linecap:butt;stroke-linejoin:miter;stroke-miterlimit:4;stroke-dasharray:none;stroke-opacity:1"
       transform="matrix(0.13333333,0,0,-0.13333333,0,41.933333)"
       clip-path="url(#clipPath70)" />
    <path
       id="path71"
       d="M 140.945,195.883 114.285,65.8906"
       style="fill:none;stroke:#036998;stroke-width:8.00003;stroke-linecap:butt;stroke-linejoin:miter;stroke-miterlimit:4;stroke-dasharray:none;stroke-opacity:1"
       transform="matrix(0.13333333,0,0,-0.13333333,0,41.933333)"
       clip-path="url(#clipPath72)" />
    <path
       id="path73"
       d="M 219.172,195.883 192.512,65.8906"
       style="fill:none;stroke:#036998;stroke-width:8.00003;stroke-linecap:butt;stroke-linejoin:miter;stroke-miterlimit:4;stroke-dasharray:none;stroke-opacity:1"
       transform="matrix(0.13333333,0,0,-0.13333333,0,41.933333)"
       clip-path="url(#clipPath74)" />
    <path
       id="path75"
       d="M 178.605,195.883 151.926,65.8906"
       style="fill:none;stroke:#036998;stroke-width:8.00003;stroke-linecap:butt;stroke-linejoin:miter;stroke-miterlimit:4;stroke-dasharray:none;stroke-opacity:1"
       transform="matrix(0.13333333,0,0,-0.13333333,0,41.933333)"
       clip-path="url(#clipPath76)" />
    <path
       id="path77"
       d="m 8.33203,138.551 7.65237,45.703"
       style="fill:#036998;fill-opacity:1;fill-rule:nonzero;stroke:#ffffff;stroke-width:3.99994;stroke-linecap:butt;stroke-linejoin:miter;stroke-miterlimit:4;stroke-dasharray:none;stroke-opacity:1"
       transform="matrix(0.13333333,0,0,-0.13333333,0,41.933333)"
       clip-path="url(#clipPath78)" />
    <path
       id="path79"
       d="M 70.9688,203.883 C 65.7148,187.789 58.7617,169.008 56.8867,150.855 L 62.5898,139.164 55.2656,85.9531 37.4688,120.277 c -5.293,26.094 21.371,129.231 32.3085,141.516 l 17.793,-34.328 -11.25,-34.539 -5.3515,10.957"
       style="fill:#036998;fill-opacity:1;fill-rule:nonzero;stroke:none"
       transform="matrix(0.13333333,0,0,-0.13333333,0,41.933333)"
       clip-path="url(#clipPath80)" />
    <path
       id="path81"
       d="M 70.9688,203.883 C 65.7148,187.789 58.7617,169.008 56.8867,150.855 L 62.5898,139.164 55.2656,85.9531 37.4688,120.277 c -5.293,26.094 21.371,129.231 32.3085,141.516 l 17.793,-34.328 -11.25,-34.539 z"
       style="fill:none;stroke:#ffffff;stroke-width:3.99994;stroke-linecap:butt;stroke-linejoin:miter;stroke-miterlimit:4;stroke-dasharray:none;stroke-opacity:1"
       transform="matrix(0.13333333,0,0,-0.13333333,0,41.933333)"
       clip-path="url(#clipPath82)" />
    <path
       id="path83"
       d="M 2.72656,119.809 13.7031,85.3945 55.2656,85.9531 37.4688,120.277 2.72656,119.809"
       style="fill:#036998;fill-opacity:1;fill-rule:nonzero;stroke:#ffffff;stroke-width:3.99994;stroke-linecap:butt;stroke-linejoin:miter;stroke-miterlimit:4;stroke-dasharray:none;stroke-opacity:1"
       transform="matrix(0.13333333,0,0,-0.13333333,0,41.933333)"
       clip-path="url(#clipPath84)" />
    <path
       id="path85"
       d="M 69.7773,261.793 C 58.8398,249.508 32.1758,146.371 37.4688,120.277 L 2.72656,119.809 c -5.29687,26.086 21.34764,129.23 32.28514,141.515 l 34.7656,0.469"
       style="fill:#036998;fill-opacity:1;fill-rule:nonzero;stroke:none"
       transform="matrix(0.13333333,0,0,-0.13333333,0,41.933333)"
       clip-path="url(#clipPath86)" />
    <path
       id="path87"
       d="M 69.7773,261.793 C 58.8398,249.508 32.1758,146.371 37.4688,120.277 L 2.72656,119.809 c -5.29687,26.086 21.34764,129.23 32.28514,141.515 z"
       style="fill:none;stroke:#ffffff;stroke-width:3.99994;stroke-linecap:butt;stroke-linejoin:miter;stroke-miterlimit:4;stroke-dasharray:none;stroke-opacity:1"
       transform="matrix(0.13333333,0,0,-0.13333333,0,41.933333)"
       clip-path="url(#clipPath88)" />
  </g>
</svg>
