<?xml version="1.0" encoding="UTF-8" standalone="no"?>
<!-- Created with Inkscape (http://www.inkscape.org/) -->

<svg
   version="1.1"
   id="svg1"
   width="65.066666"
   height="32.306667"
   viewBox="0 0 65.066666 32.306667"
   sodipodi:docname="ubr910.eps"
   xmlns:inkscape="http://www.inkscape.org/namespaces/inkscape"
   xmlns:sodipodi="http://sodipodi.sourceforge.net/DTD/sodipodi-0.dtd"
   xmlns="http://www.w3.org/2000/svg"
   xmlns:svg="http://www.w3.org/2000/svg">
  <defs
     id="defs1">
    <clipPath
       clipPathUnits="userSpaceOnUse"
       id="clipPath2">
      <path
         d="M 0,2 V 242 H 488 V 2 Z"
         id="path2" />
    </clipPath>
    <clipPath
       clipPathUnits="userSpaceOnUse"
       id="clipPath4">
      <path
         d="M 0,2 V 242 H 488 V 2 Z"
         id="path4" />
    </clipPath>
    <clipPath
       clipPathUnits="userSpaceOnUse"
       id="clipPath6">
      <path
         d="M 0,2 V 242 H 488 V 2 Z"
         id="path6" />
    </clipPath>
    <clipPath
       clipPathUnits="userSpaceOnUse"
       id="clipPath8">
      <path
         d="M 0,2 V 242 H 488 V 2 Z"
         id="path8" />
    </clipPath>
    <clipPath
       clipPathUnits="userSpaceOnUse"
       id="clipPath10">
      <path
         d="M 0,2 V 242 H 488 V 2 Z"
         id="path10" />
    </clipPath>
    <clipPath
       clipPathUnits="userSpaceOnUse"
       id="clipPath12">
      <path
         d="M 0,2 V 242 H 488 V 2 Z"
         id="path12" />
    </clipPath>
    <clipPath
       clipPathUnits="userSpaceOnUse"
       id="clipPath14">
      <path
         d="M 0,2 V 242 H 488 V 2 Z"
         id="path14" />
    </clipPath>
    <clipPath
       clipPathUnits="userSpaceOnUse"
       id="clipPath16">
      <path
         d="M 0,2 V 242 H 488 V 2 Z"
         id="path16" />
    </clipPath>
    <clipPath
       clipPathUnits="userSpaceOnUse"
       id="clipPath18">
      <path
         d="M 0,2 V 242 H 488 V 2 Z"
         id="path18" />
    </clipPath>
    <clipPath
       clipPathUnits="userSpaceOnUse"
       id="clipPath20">
      <path
         d="M 0,2 V 242 H 488 V 2 Z"
         id="path20" />
    </clipPath>
  </defs>
  <sodipodi:namedview
     id="namedview1"
     pagecolor="#505050"
     bordercolor="#eeeeee"
     borderopacity="1"
     inkscape:showpageshadow="0"
     inkscape:pageopacity="0"
     inkscape:pagecheckerboard="0"
     inkscape:deskcolor="#d1d1d1">
    <inkscape:page
       x="0"
       y="0"
       inkscape:label="1"
       id="page1"
       width="65.066666"
       height="32.306667"
       margin="0"
       bleed="0" />
  </sodipodi:namedview>
  <g
     id="g1"
     inkscape:groupmode="layer"
     inkscape:label="1">
    <path
       id="path1"
       d="M 5.65625,121.086 149.941,237.746 H 483.047 L 363.645,121.086 H 5.65625"
       style="fill:#026c9b;fill-opacity:1;fill-rule:nonzero;stroke:none"
       transform="matrix(0.13333333,0,0,-0.13333333,0,32.306667)"
       clip-path="url(#clipPath2)" />
    <path
       id="path3"
       d="M 5.65625,121.086 149.941,237.746 H 483.047 L 363.645,121.086 Z"
       style="fill:none;stroke:#ffffff;stroke-width:4;stroke-linecap:butt;stroke-linejoin:miter;stroke-miterlimit:4;stroke-dasharray:none;stroke-opacity:1"
       transform="matrix(0.13333333,0,0,-0.13333333,0,32.306667)"
       clip-path="url(#clipPath4)" />
    <path
       id="path5"
       d="M 363.645,5.10547 483.047,134.031 v 103.52 L 363.645,121.086 V 5.10547"
       style="fill:#026c9b;fill-opacity:1;fill-rule:nonzero;stroke:none"
       transform="matrix(0.13333333,0,0,-0.13333333,0,32.306667)"
       clip-path="url(#clipPath6)" />
    <path
       id="path7"
       d="M 363.645,5.10547 483.047,134.031 v 103.52 L 363.645,121.086 Z"
       style="fill:none;stroke:#ffffff;stroke-width:4;stroke-linecap:butt;stroke-linejoin:miter;stroke-miterlimit:4;stroke-dasharray:none;stroke-opacity:1"
       transform="matrix(0.13333333,0,0,-0.13333333,0,32.306667)"
       clip-path="url(#clipPath8)" />
    <path
       id="path9"
       d="m 6.15234,5.01172 h 357.492 v 116.074 H 6.15234 Z"
       style="fill:#026c9b;fill-opacity:1;fill-rule:nonzero;stroke:none"
       transform="matrix(0.13333333,0,0,-0.13333333,0,32.306667)"
       clip-path="url(#clipPath10)" />
    <path
       id="path11"
       d="M 363.645,5.01172 V 121.086 H 6.15234 V 5.01172 Z"
       style="fill:none;stroke:#ffffff;stroke-width:4;stroke-linecap:butt;stroke-linejoin:miter;stroke-miterlimit:4;stroke-dasharray:none;stroke-opacity:1"
       transform="matrix(0.13333333,0,0,-0.13333333,0,32.306667)"
       clip-path="url(#clipPath12)" />
    <path
       id="path13"
       d="m 218.652,73.7227 -0.047,26.5973 -62.113,-35.1559 62.113,-35.1524 0.047,26.6602 v 17.0508"
       style="fill:#ffffff;fill-opacity:1;fill-rule:nonzero;stroke:none"
       transform="matrix(0.13333333,0,0,-0.13333333,0,32.306667)"
       clip-path="url(#clipPath14)" />
    <path
       id="path15"
       d="m 218.652,73.7227 -0.047,26.5973 -62.113,-35.1559 62.113,-35.1524 0.047,26.6602 z"
       style="fill:none;stroke:#ffffff;stroke-width:3.983;stroke-linecap:butt;stroke-linejoin:miter;stroke-miterlimit:4;stroke-dasharray:none;stroke-opacity:1"
       transform="matrix(0.13333333,0,0,-0.13333333,0,32.306667)"
       clip-path="url(#clipPath16)" />
    <path
       id="path17"
       d="m 205.371,188.488 19.656,18.633 -86.843,-28.926 34.796,-20.293 19.774,18.653"
       style="fill:#ffffff;fill-opacity:1;fill-rule:nonzero;stroke:none"
       transform="matrix(0.13333333,0,0,-0.13333333,0,32.306667)"
       clip-path="url(#clipPath18)" />
    <path
       id="path19"
       d="m 301.672,176.613 -122.336,-0.039 12.617,11.934 122.332,0.039 19.746,18.633 34.797,-24.61 -86.855,-24.609 19.699,18.652"
       style="fill:#ffffff;fill-opacity:1;fill-rule:nonzero;stroke:none"
       transform="matrix(0.13333333,0,0,-0.13333333,0,32.306667)"
       clip-path="url(#clipPath20)" />
  </g>
</svg>
