<?xml version="1.0" encoding="UTF-8" standalone="no"?>
<!-- Created with Inkscape (http://www.inkscape.org/) -->

<svg
   version="1.1"
   id="svg1"
   width="83.839996"
   height="33.599998"
   viewBox="0 0 83.839996 33.599998"
   sodipodi:docname="university.eps"
   xmlns:inkscape="http://www.inkscape.org/namespaces/inkscape"
   xmlns:sodipodi="http://sodipodi.sourceforge.net/DTD/sodipodi-0.dtd"
   xmlns="http://www.w3.org/2000/svg"
   xmlns:svg="http://www.w3.org/2000/svg">
  <defs
     id="defs1">
    <clipPath
       clipPathUnits="userSpaceOnUse"
       id="clipPath2">
      <path
         d="M 0,2 V 252 H 629 V 2 Z"
         id="path2" />
    </clipPath>
    <clipPath
       clipPathUnits="userSpaceOnUse"
       id="clipPath4">
      <path
         d="M 0,2 V 252 H 629 V 2 Z"
         id="path4" />
    </clipPath>
    <clipPath
       clipPathUnits="userSpaceOnUse"
       id="clipPath6">
      <path
         d="M 0,2 V 252 H 629 V 2 Z"
         id="path6" />
    </clipPath>
    <clipPath
       clipPathUnits="userSpaceOnUse"
       id="clipPath8">
      <path
         d="M 0,2 V 252 H 629 V 2 Z"
         id="path8" />
    </clipPath>
    <clipPath
       clipPathUnits="userSpaceOnUse"
       id="clipPath10">
      <path
         d="M 0,2 V 252 H 629 V 2 Z"
         id="path10" />
    </clipPath>
    <clipPath
       clipPathUnits="userSpaceOnUse"
       id="clipPath12">
      <path
         d="M 0,2 V 252 H 629 V 2 Z"
         id="path12" />
    </clipPath>
    <clipPath
       clipPathUnits="userSpaceOnUse"
       id="clipPath14">
      <path
         d="M 0,2 V 252 H 629 V 2 Z"
         id="path14" />
    </clipPath>
    <clipPath
       clipPathUnits="userSpaceOnUse"
       id="clipPath16">
      <path
         d="M 0,2 V 252 H 629 V 2 Z"
         id="path16" />
    </clipPath>
    <clipPath
       clipPathUnits="userSpaceOnUse"
       id="clipPath18">
      <path
         d="M 0,2 V 252 H 629 V 2 Z"
         id="path18" />
    </clipPath>
    <clipPath
       clipPathUnits="userSpaceOnUse"
       id="clipPath20">
      <path
         d="M 0,2 V 252 H 629 V 2 Z"
         id="path20" />
    </clipPath>
    <clipPath
       clipPathUnits="userSpaceOnUse"
       id="clipPath22">
      <path
         d="M 0,2 V 252 H 629 V 2 Z"
         id="path22" />
    </clipPath>
    <clipPath
       clipPathUnits="userSpaceOnUse"
       id="clipPath24">
      <path
         d="M 0,2 V 252 H 629 V 2 Z"
         id="path24" />
    </clipPath>
    <clipPath
       clipPathUnits="userSpaceOnUse"
       id="clipPath26">
      <path
         d="M 0,2 V 252 H 629 V 2 Z"
         id="path26" />
    </clipPath>
    <clipPath
       clipPathUnits="userSpaceOnUse"
       id="clipPath28">
      <path
         d="M 0,2 V 252 H 629 V 2 Z"
         id="path28" />
    </clipPath>
    <clipPath
       clipPathUnits="userSpaceOnUse"
       id="clipPath30">
      <path
         d="M 0,2 V 252 H 629 V 2 Z"
         id="path30" />
    </clipPath>
    <clipPath
       clipPathUnits="userSpaceOnUse"
       id="clipPath32">
      <path
         d="M 0,2 V 252 H 629 V 2 Z"
         id="path32" />
    </clipPath>
    <clipPath
       clipPathUnits="userSpaceOnUse"
       id="clipPath34">
      <path
         d="M 0,2 V 252 H 629 V 2 Z"
         id="path34" />
    </clipPath>
    <clipPath
       clipPathUnits="userSpaceOnUse"
       id="clipPath36">
      <path
         d="M 0,2 V 252 H 629 V 2 Z"
         id="path36" />
    </clipPath>
    <clipPath
       clipPathUnits="userSpaceOnUse"
       id="clipPath38">
      <path
         d="M 0,2 V 252 H 629 V 2 Z"
         id="path38" />
    </clipPath>
    <clipPath
       clipPathUnits="userSpaceOnUse"
       id="clipPath40">
      <path
         d="M 0,2 V 252 H 629 V 2 Z"
         id="path40" />
    </clipPath>
    <clipPath
       clipPathUnits="userSpaceOnUse"
       id="clipPath42">
      <path
         d="M 0,2 V 252 H 629 V 2 Z"
         id="path42" />
    </clipPath>
    <clipPath
       clipPathUnits="userSpaceOnUse"
       id="clipPath44">
      <path
         d="M 0,2 V 252 H 629 V 2 Z"
         id="path44" />
    </clipPath>
    <clipPath
       clipPathUnits="userSpaceOnUse"
       id="clipPath46">
      <path
         d="M 0,2 V 252 H 629 V 2 Z"
         id="path46" />
    </clipPath>
    <clipPath
       clipPathUnits="userSpaceOnUse"
       id="clipPath48">
      <path
         d="M 0,2 V 252 H 629 V 2 Z"
         id="path48" />
    </clipPath>
    <clipPath
       clipPathUnits="userSpaceOnUse"
       id="clipPath50">
      <path
         d="M 0,2 V 252 H 629 V 2 Z"
         id="path50" />
    </clipPath>
    <clipPath
       clipPathUnits="userSpaceOnUse"
       id="clipPath52">
      <path
         d="M 0,2 V 252 H 629 V 2 Z"
         id="path52" />
    </clipPath>
    <clipPath
       clipPathUnits="userSpaceOnUse"
       id="clipPath54">
      <path
         d="M 0,2 V 252 H 629 V 2 Z"
         id="path54" />
    </clipPath>
    <clipPath
       clipPathUnits="userSpaceOnUse"
       id="clipPath56">
      <path
         d="M 0,2 V 252 H 629 V 2 Z"
         id="path56" />
    </clipPath>
    <clipPath
       clipPathUnits="userSpaceOnUse"
       id="clipPath58">
      <path
         d="M 0,2 V 252 H 629 V 2 Z"
         id="path58" />
    </clipPath>
    <clipPath
       clipPathUnits="userSpaceOnUse"
       id="clipPath60">
      <path
         d="M 0,2 V 252 H 629 V 2 Z"
         id="path60" />
    </clipPath>
    <clipPath
       clipPathUnits="userSpaceOnUse"
       id="clipPath62">
      <path
         d="M 0,2 V 252 H 629 V 2 Z"
         id="path62" />
    </clipPath>
    <clipPath
       clipPathUnits="userSpaceOnUse"
       id="clipPath64">
      <path
         d="M 0,2 V 252 H 629 V 2 Z"
         id="path64" />
    </clipPath>
    <clipPath
       clipPathUnits="userSpaceOnUse"
       id="clipPath66">
      <path
         d="M 0,2 V 252 H 629 V 2 Z"
         id="path66" />
    </clipPath>
    <clipPath
       clipPathUnits="userSpaceOnUse"
       id="clipPath68">
      <path
         d="M 0,2 V 252 H 629 V 2 Z"
         id="path68" />
    </clipPath>
    <clipPath
       clipPathUnits="userSpaceOnUse"
       id="clipPath70">
      <path
         d="M 0,2 V 252 H 629 V 2 Z"
         id="path70" />
    </clipPath>
    <clipPath
       clipPathUnits="userSpaceOnUse"
       id="clipPath72">
      <path
         d="M 0,2 V 252 H 629 V 2 Z"
         id="path72" />
    </clipPath>
    <clipPath
       clipPathUnits="userSpaceOnUse"
       id="clipPath74">
      <path
         d="M 0,2 V 252 H 629 V 2 Z"
         id="path74" />
    </clipPath>
    <clipPath
       clipPathUnits="userSpaceOnUse"
       id="clipPath76">
      <path
         d="M 0,2 V 252 H 629 V 2 Z"
         id="path76" />
    </clipPath>
    <clipPath
       clipPathUnits="userSpaceOnUse"
       id="clipPath78">
      <path
         d="M 0,2 V 252 H 629 V 2 Z"
         id="path78" />
    </clipPath>
    <clipPath
       clipPathUnits="userSpaceOnUse"
       id="clipPath80">
      <path
         d="M 0,2 V 252 H 629 V 2 Z"
         id="path80" />
    </clipPath>
    <clipPath
       clipPathUnits="userSpaceOnUse"
       id="clipPath82">
      <path
         d="M 0,2 V 252 H 629 V 2 Z"
         id="path82" />
    </clipPath>
    <clipPath
       clipPathUnits="userSpaceOnUse"
       id="clipPath84">
      <path
         d="M 0,2 V 252 H 629 V 2 Z"
         id="path84" />
    </clipPath>
    <clipPath
       clipPathUnits="userSpaceOnUse"
       id="clipPath86">
      <path
         d="M 0,2 V 252 H 629 V 2 Z"
         id="path86" />
    </clipPath>
    <clipPath
       clipPathUnits="userSpaceOnUse"
       id="clipPath88">
      <path
         d="M 0,2 V 252 H 629 V 2 Z"
         id="path88" />
    </clipPath>
    <clipPath
       clipPathUnits="userSpaceOnUse"
       id="clipPath90">
      <path
         d="M 0,2 V 252 H 629 V 2 Z"
         id="path90" />
    </clipPath>
    <clipPath
       clipPathUnits="userSpaceOnUse"
       id="clipPath92">
      <path
         d="M 0,2 V 252 H 629 V 2 Z"
         id="path92" />
    </clipPath>
    <clipPath
       clipPathUnits="userSpaceOnUse"
       id="clipPath94">
      <path
         d="M 0,2 V 252 H 629 V 2 Z"
         id="path94" />
    </clipPath>
    <clipPath
       clipPathUnits="userSpaceOnUse"
       id="clipPath96">
      <path
         d="M 0,2 V 252 H 629 V 2 Z"
         id="path96" />
    </clipPath>
    <clipPath
       clipPathUnits="userSpaceOnUse"
       id="clipPath98">
      <path
         d="M 0,2 V 252 H 629 V 2 Z"
         id="path98" />
    </clipPath>
    <clipPath
       clipPathUnits="userSpaceOnUse"
       id="clipPath100">
      <path
         d="M 0,2 V 252 H 629 V 2 Z"
         id="path100" />
    </clipPath>
    <clipPath
       clipPathUnits="userSpaceOnUse"
       id="clipPath102">
      <path
         d="M 0,2 V 252 H 629 V 2 Z"
         id="path102" />
    </clipPath>
    <clipPath
       clipPathUnits="userSpaceOnUse"
       id="clipPath104">
      <path
         d="M 0,2 V 252 H 629 V 2 Z"
         id="path104" />
    </clipPath>
    <clipPath
       clipPathUnits="userSpaceOnUse"
       id="clipPath106">
      <path
         d="M 0,2 V 252 H 629 V 2 Z"
         id="path106" />
    </clipPath>
    <clipPath
       clipPathUnits="userSpaceOnUse"
       id="clipPath108">
      <path
         d="M 0,2 V 252 H 629 V 2 Z"
         id="path108" />
    </clipPath>
    <clipPath
       clipPathUnits="userSpaceOnUse"
       id="clipPath110">
      <path
         d="M 0,2 V 252 H 629 V 2 Z"
         id="path110" />
    </clipPath>
    <clipPath
       clipPathUnits="userSpaceOnUse"
       id="clipPath112">
      <path
         d="M 0,2 V 252 H 629 V 2 Z"
         id="path112" />
    </clipPath>
    <clipPath
       clipPathUnits="userSpaceOnUse"
       id="clipPath114">
      <path
         d="M 0,2 V 252 H 629 V 2 Z"
         id="path114" />
    </clipPath>
    <clipPath
       clipPathUnits="userSpaceOnUse"
       id="clipPath116">
      <path
         d="M 0,2 V 252 H 629 V 2 Z"
         id="path116" />
    </clipPath>
    <clipPath
       clipPathUnits="userSpaceOnUse"
       id="clipPath118">
      <path
         d="M 0,2 V 252 H 629 V 2 Z"
         id="path118" />
    </clipPath>
    <clipPath
       clipPathUnits="userSpaceOnUse"
       id="clipPath120">
      <path
         d="M 0,2 V 252 H 629 V 2 Z"
         id="path120" />
    </clipPath>
    <clipPath
       clipPathUnits="userSpaceOnUse"
       id="clipPath122">
      <path
         d="M 0,2 V 252 H 629 V 2 Z"
         id="path122" />
    </clipPath>
    <clipPath
       clipPathUnits="userSpaceOnUse"
       id="clipPath124">
      <path
         d="M 0,2 V 252 H 629 V 2 Z"
         id="path124" />
    </clipPath>
    <clipPath
       clipPathUnits="userSpaceOnUse"
       id="clipPath126">
      <path
         d="M 0,2 V 252 H 629 V 2 Z"
         id="path126" />
    </clipPath>
    <clipPath
       clipPathUnits="userSpaceOnUse"
       id="clipPath128">
      <path
         d="M 0,2 V 252 H 629 V 2 Z"
         id="path128" />
    </clipPath>
    <clipPath
       clipPathUnits="userSpaceOnUse"
       id="clipPath130">
      <path
         d="M 0,2 V 252 H 629 V 2 Z"
         id="path130" />
    </clipPath>
    <clipPath
       clipPathUnits="userSpaceOnUse"
       id="clipPath132">
      <path
         d="M 0,2 V 252 H 629 V 2 Z"
         id="path132" />
    </clipPath>
    <clipPath
       clipPathUnits="userSpaceOnUse"
       id="clipPath134">
      <path
         d="M 0,2 V 252 H 629 V 2 Z"
         id="path134" />
    </clipPath>
    <clipPath
       clipPathUnits="userSpaceOnUse"
       id="clipPath136">
      <path
         d="M 0,2 V 252 H 629 V 2 Z"
         id="path136" />
    </clipPath>
    <clipPath
       clipPathUnits="userSpaceOnUse"
       id="clipPath138">
      <path
         d="M 0,2 V 252 H 629 V 2 Z"
         id="path138" />
    </clipPath>
    <clipPath
       clipPathUnits="userSpaceOnUse"
       id="clipPath140">
      <path
         d="M 0,2 V 252 H 629 V 2 Z"
         id="path140" />
    </clipPath>
    <clipPath
       clipPathUnits="userSpaceOnUse"
       id="clipPath142">
      <path
         d="M 0,2 V 252 H 629 V 2 Z"
         id="path142" />
    </clipPath>
    <clipPath
       clipPathUnits="userSpaceOnUse"
       id="clipPath144">
      <path
         d="M 0,2 V 252 H 629 V 2 Z"
         id="path144" />
    </clipPath>
    <clipPath
       clipPathUnits="userSpaceOnUse"
       id="clipPath146">
      <path
         d="M 0,2 V 252 H 629 V 2 Z"
         id="path146" />
    </clipPath>
    <clipPath
       clipPathUnits="userSpaceOnUse"
       id="clipPath148">
      <path
         d="M 0,2 V 252 H 629 V 2 Z"
         id="path148" />
    </clipPath>
    <clipPath
       clipPathUnits="userSpaceOnUse"
       id="clipPath150">
      <path
         d="M 0,2 V 252 H 629 V 2 Z"
         id="path150" />
    </clipPath>
    <clipPath
       clipPathUnits="userSpaceOnUse"
       id="clipPath152">
      <path
         d="M 0,2 V 252 H 629 V 2 Z"
         id="path152" />
    </clipPath>
    <clipPath
       clipPathUnits="userSpaceOnUse"
       id="clipPath154">
      <path
         d="M 0,2 V 252 H 629 V 2 Z"
         id="path154" />
    </clipPath>
    <clipPath
       clipPathUnits="userSpaceOnUse"
       id="clipPath156">
      <path
         d="M 0,2 V 252 H 629 V 2 Z"
         id="path156" />
    </clipPath>
  </defs>
  <sodipodi:namedview
     id="namedview1"
     pagecolor="#505050"
     bordercolor="#eeeeee"
     borderopacity="1"
     inkscape:showpageshadow="0"
     inkscape:pageopacity="0"
     inkscape:pagecheckerboard="0"
     inkscape:deskcolor="#d1d1d1">
    <inkscape:page
       x="0"
       y="0"
       inkscape:label="1"
       id="page1"
       width="83.839996"
       height="33.599998"
       margin="0"
       bleed="0" />
  </sodipodi:namedview>
  <g
     id="g1"
     inkscape:groupmode="layer"
     inkscape:label="1">
    <path
       id="path1"
       d="m 18.4688,17.4219 h 590.828 v 190.938 H 18.4688 Z"
       style="fill:#036998;fill-opacity:1;fill-rule:nonzero;stroke:none"
       transform="matrix(0.13333333,0,0,-0.13333333,0,33.6)"
       clip-path="url(#clipPath2)" />
    <path
       id="path3"
       d="M 609.297,17.4219 V 208.359 H 18.4688 V 17.4219 Z"
       style="fill:none;stroke:#ffffff;stroke-width:3.99994;stroke-linecap:butt;stroke-linejoin:miter;stroke-miterlimit:4;stroke-dasharray:none;stroke-opacity:1"
       transform="matrix(0.13333333,0,0,-0.13333333,0,33.6)"
       clip-path="url(#clipPath4)" />
    <path
       id="path5"
       d="m 18.8867,230.379 h 591.035 v 19.6602 H 18.8867 Z"
       style="fill:#036998;fill-opacity:1;fill-rule:nonzero;stroke:none"
       transform="matrix(0.13333333,0,0,-0.13333333,0,33.6)"
       clip-path="url(#clipPath6)" />
    <path
       id="path7"
       d="m 609.922,230.379 v 19.66 H 18.8867 v -19.66 z"
       style="fill:none;stroke:#ffffff;stroke-width:3.99994;stroke-linecap:butt;stroke-linejoin:miter;stroke-miterlimit:4;stroke-dasharray:none;stroke-opacity:1"
       transform="matrix(0.13333333,0,0,-0.13333333,0,33.6)"
       clip-path="url(#clipPath8)" />
    <path
       id="path9"
       d="m 39.8516,156.34 h 17.0352 v 36.6875 H 39.8516 Z"
       style="fill:#036998;fill-opacity:1;fill-rule:nonzero;stroke:none"
       transform="matrix(0.13333333,0,0,-0.13333333,0,33.6)"
       clip-path="url(#clipPath10)" />
    <path
       id="path11"
       d="m 56.8867,156.34 v 36.687 H 39.8516 V 156.34 Z"
       style="fill:none;stroke:#ffffff;stroke-width:3.99994;stroke-linecap:butt;stroke-linejoin:miter;stroke-miterlimit:4;stroke-dasharray:none;stroke-opacity:1"
       transform="matrix(0.13333333,0,0,-0.13333333,0,33.6)"
       clip-path="url(#clipPath12)" />
    <path
       id="path13"
       d="m 39.8516,102.605 h 17.0352 v 36.6914 H 39.8516 Z"
       style="fill:#036998;fill-opacity:1;fill-rule:nonzero;stroke:none"
       transform="matrix(0.13333333,0,0,-0.13333333,0,33.6)"
       clip-path="url(#clipPath14)" />
    <path
       id="path15"
       d="m 56.8867,102.605 v 36.692 H 39.8516 v -36.692 z"
       style="fill:none;stroke:#ffffff;stroke-width:3.99994;stroke-linecap:butt;stroke-linejoin:miter;stroke-miterlimit:4;stroke-dasharray:none;stroke-opacity:1"
       transform="matrix(0.13333333,0,0,-0.13333333,0,33.6)"
       clip-path="url(#clipPath16)" />
    <path
       id="path17"
       d="M 39.8516,48.8789 H 56.8868 V 85.5664 H 39.8516 Z"
       style="fill:#036998;fill-opacity:1;fill-rule:nonzero;stroke:none"
       transform="matrix(0.13333333,0,0,-0.13333333,0,33.6)"
       clip-path="url(#clipPath18)" />
    <path
       id="path19"
       d="M 56.8867,48.8789 V 85.5664 H 39.8516 V 48.8789 Z"
       style="fill:none;stroke:#ffffff;stroke-width:3.99994;stroke-linecap:butt;stroke-linejoin:miter;stroke-miterlimit:4;stroke-dasharray:none;stroke-opacity:1"
       transform="matrix(0.13333333,0,0,-0.13333333,0,33.6)"
       clip-path="url(#clipPath20)" />
    <path
       id="path21"
       d="m 248.445,43.2422 h 66.6133 v 96.3867 H 248.445 Z"
       style="fill:#036998;fill-opacity:1;fill-rule:nonzero;stroke:none"
       transform="matrix(0.13333333,0,0,-0.13333333,0,33.6)"
       clip-path="url(#clipPath22)" />
    <path
       id="path23"
       d="M 315.059,43.2422 V 139.629 H 248.445 V 43.2422 Z"
       style="fill:none;stroke:#ffffff;stroke-width:3.99994;stroke-linecap:butt;stroke-linejoin:miter;stroke-miterlimit:4;stroke-dasharray:none;stroke-opacity:1"
       transform="matrix(0.13333333,0,0,-0.13333333,0,33.6)"
       clip-path="url(#clipPath24)" />
    <path
       id="path25"
       d="m 315.059,43.2422 h 66.6211 v 96.3867 H 315.059 Z"
       style="fill:#036998;fill-opacity:1;fill-rule:nonzero;stroke:none"
       transform="matrix(0.13333333,0,0,-0.13333333,0,33.6)"
       clip-path="url(#clipPath26)" />
    <path
       id="path27"
       d="M 315.059,43.2422 V 139.629 H 381.68 V 43.2422 Z"
       style="fill:none;stroke:#ffffff;stroke-width:3.99994;stroke-linecap:butt;stroke-linejoin:miter;stroke-miterlimit:4;stroke-dasharray:none;stroke-opacity:1"
       transform="matrix(0.13333333,0,0,-0.13333333,0,33.6)"
       clip-path="url(#clipPath28)" />
    <path
       id="path29"
       d="m 615.168,230.379 10.484,-22.274 H 3.15625 L 13.6445,230.379 H 615.168"
       style="fill:#036998;fill-opacity:1;fill-rule:nonzero;stroke:none"
       transform="matrix(0.13333333,0,0,-0.13333333,0,33.6)"
       clip-path="url(#clipPath30)" />
    <path
       id="path31"
       d="m 615.168,230.379 10.484,-22.274 H 3.15625 l 10.48825,22.274 z"
       style="fill:none;stroke:#ffffff;stroke-width:3.99994;stroke-linecap:butt;stroke-linejoin:miter;stroke-miterlimit:4;stroke-dasharray:none;stroke-opacity:1"
       transform="matrix(0.13333333,0,0,-0.13333333,0,33.6)"
       clip-path="url(#clipPath32)" />
    <path
       id="path33"
       d="M 231.438,33.1055 H 398.684 V 48.4766 H 231.438 Z"
       style="fill:#036998;fill-opacity:1;fill-rule:nonzero;stroke:none"
       transform="matrix(0.13333333,0,0,-0.13333333,0,33.6)"
       clip-path="url(#clipPath34)" />
    <path
       id="path35"
       d="M 398.684,33.1055 V 48.4766 H 231.438 V 33.1055 Z"
       style="fill:none;stroke:#ffffff;stroke-width:3.99994;stroke-linecap:butt;stroke-linejoin:miter;stroke-miterlimit:4;stroke-dasharray:none;stroke-opacity:1"
       transform="matrix(0.13333333,0,0,-0.13333333,0,33.6)"
       clip-path="url(#clipPath36)" />
    <path
       id="path37"
       d="M 222.922,17.4219 H 407.195 V 33.1055 H 222.922 Z"
       style="fill:#036998;fill-opacity:1;fill-rule:nonzero;stroke:none"
       transform="matrix(0.13333333,0,0,-0.13333333,0,33.6)"
       clip-path="url(#clipPath38)" />
    <path
       id="path39"
       d="M 407.195,17.4219 V 33.1055 H 222.922 V 17.4219 Z"
       style="fill:none;stroke:#ffffff;stroke-width:3.99994;stroke-linecap:butt;stroke-linejoin:miter;stroke-miterlimit:4;stroke-dasharray:none;stroke-opacity:1"
       transform="matrix(0.13333333,0,0,-0.13333333,0,33.6)"
       clip-path="url(#clipPath40)" />
    <path
       id="path41"
       d="m 94.8945,156.34 h 17.0391 v 36.6875 H 94.8945 Z"
       style="fill:#036998;fill-opacity:1;fill-rule:nonzero;stroke:none"
       transform="matrix(0.13333333,0,0,-0.13333333,0,33.6)"
       clip-path="url(#clipPath42)" />
    <path
       id="path43"
       d="m 111.934,156.34 v 36.687 H 94.8945 V 156.34 Z"
       style="fill:none;stroke:#ffffff;stroke-width:3.99994;stroke-linecap:butt;stroke-linejoin:miter;stroke-miterlimit:4;stroke-dasharray:none;stroke-opacity:1"
       transform="matrix(0.13333333,0,0,-0.13333333,0,33.6)"
       clip-path="url(#clipPath44)" />
    <path
       id="path45"
       d="m 94.8945,102.605 h 17.0391 v 36.6914 H 94.8945 Z"
       style="fill:#036998;fill-opacity:1;fill-rule:nonzero;stroke:none"
       transform="matrix(0.13333333,0,0,-0.13333333,0,33.6)"
       clip-path="url(#clipPath46)" />
    <path
       id="path47"
       d="m 111.934,102.605 v 36.692 H 94.8945 v -36.692 z"
       style="fill:none;stroke:#ffffff;stroke-width:3.99994;stroke-linecap:butt;stroke-linejoin:miter;stroke-miterlimit:4;stroke-dasharray:none;stroke-opacity:1"
       transform="matrix(0.13333333,0,0,-0.13333333,0,33.6)"
       clip-path="url(#clipPath48)" />
    <path
       id="path49"
       d="m 94.8945,48.8789 h 17.0391 V 85.5664 H 94.8945 Z"
       style="fill:#036998;fill-opacity:1;fill-rule:nonzero;stroke:none"
       transform="matrix(0.13333333,0,0,-0.13333333,0,33.6)"
       clip-path="url(#clipPath50)" />
    <path
       id="path51"
       d="M 111.934,48.8789 V 85.5664 H 94.8945 V 48.8789 Z"
       style="fill:none;stroke:#ffffff;stroke-width:3.99994;stroke-linecap:butt;stroke-linejoin:miter;stroke-miterlimit:4;stroke-dasharray:none;stroke-opacity:1"
       transform="matrix(0.13333333,0,0,-0.13333333,0,33.6)"
       clip-path="url(#clipPath52)" />
    <path
       id="path53"
       d="m 149.934,156.34 h 17.0391 v 36.6875 H 149.934 Z"
       style="fill:#036998;fill-opacity:1;fill-rule:nonzero;stroke:none"
       transform="matrix(0.13333333,0,0,-0.13333333,0,33.6)"
       clip-path="url(#clipPath54)" />
    <path
       id="path55"
       d="m 166.973,156.34 v 36.687 H 149.934 V 156.34 Z"
       style="fill:none;stroke:#ffffff;stroke-width:3.99994;stroke-linecap:butt;stroke-linejoin:miter;stroke-miterlimit:4;stroke-dasharray:none;stroke-opacity:1"
       transform="matrix(0.13333333,0,0,-0.13333333,0,33.6)"
       clip-path="url(#clipPath56)" />
    <path
       id="path57"
       d="m 149.934,102.605 h 17.0391 v 36.6914 H 149.934 Z"
       style="fill:#036998;fill-opacity:1;fill-rule:nonzero;stroke:none"
       transform="matrix(0.13333333,0,0,-0.13333333,0,33.6)"
       clip-path="url(#clipPath58)" />
    <path
       id="path59"
       d="m 166.973,102.605 v 36.692 h -17.039 v -36.692 z"
       style="fill:none;stroke:#ffffff;stroke-width:3.99994;stroke-linecap:butt;stroke-linejoin:miter;stroke-miterlimit:4;stroke-dasharray:none;stroke-opacity:1"
       transform="matrix(0.13333333,0,0,-0.13333333,0,33.6)"
       clip-path="url(#clipPath60)" />
    <path
       id="path61"
       d="m 149.934,48.8789 h 17.0391 V 85.5664 H 149.934 Z"
       style="fill:#036998;fill-opacity:1;fill-rule:nonzero;stroke:none"
       transform="matrix(0.13333333,0,0,-0.13333333,0,33.6)"
       clip-path="url(#clipPath62)" />
    <path
       id="path63"
       d="M 166.973,48.8789 V 85.5664 H 149.934 V 48.8789 Z"
       style="fill:none;stroke:#ffffff;stroke-width:3.99994;stroke-linecap:butt;stroke-linejoin:miter;stroke-miterlimit:4;stroke-dasharray:none;stroke-opacity:1"
       transform="matrix(0.13333333,0,0,-0.13333333,0,33.6)"
       clip-path="url(#clipPath64)" />
    <path
       id="path65"
       d="m 204.973,156.34 h 17.0391 v 36.6875 H 204.973 Z"
       style="fill:#036998;fill-opacity:1;fill-rule:nonzero;stroke:none"
       transform="matrix(0.13333333,0,0,-0.13333333,0,33.6)"
       clip-path="url(#clipPath66)" />
    <path
       id="path67"
       d="m 222.012,156.34 v 36.687 H 204.973 V 156.34 Z"
       style="fill:none;stroke:#ffffff;stroke-width:3.99994;stroke-linecap:butt;stroke-linejoin:miter;stroke-miterlimit:4;stroke-dasharray:none;stroke-opacity:1"
       transform="matrix(0.13333333,0,0,-0.13333333,0,33.6)"
       clip-path="url(#clipPath68)" />
    <path
       id="path69"
       d="m 204.973,102.605 h 17.0391 v 36.6914 H 204.973 Z"
       style="fill:#036998;fill-opacity:1;fill-rule:nonzero;stroke:none"
       transform="matrix(0.13333333,0,0,-0.13333333,0,33.6)"
       clip-path="url(#clipPath70)" />
    <path
       id="path71"
       d="m 222.012,102.605 v 36.692 h -17.039 v -36.692 z"
       style="fill:none;stroke:#ffffff;stroke-width:3.99994;stroke-linecap:butt;stroke-linejoin:miter;stroke-miterlimit:4;stroke-dasharray:none;stroke-opacity:1"
       transform="matrix(0.13333333,0,0,-0.13333333,0,33.6)"
       clip-path="url(#clipPath72)" />
    <path
       id="path73"
       d="m 204.973,48.8789 h 17.0391 V 85.5664 H 204.973 Z"
       style="fill:#036998;fill-opacity:1;fill-rule:nonzero;stroke:none"
       transform="matrix(0.13333333,0,0,-0.13333333,0,33.6)"
       clip-path="url(#clipPath74)" />
    <path
       id="path75"
       d="M 222.012,48.8789 V 85.5664 H 204.973 V 48.8789 Z"
       style="fill:none;stroke:#ffffff;stroke-width:3.99994;stroke-linecap:butt;stroke-linejoin:miter;stroke-miterlimit:4;stroke-dasharray:none;stroke-opacity:1"
       transform="matrix(0.13333333,0,0,-0.13333333,0,33.6)"
       clip-path="url(#clipPath76)" />
    <path
       id="path77"
       d="m 573.23,156.34 h 17.0352 v 36.6875 H 573.23 Z"
       style="fill:#036998;fill-opacity:1;fill-rule:nonzero;stroke:none"
       transform="matrix(0.13333333,0,0,-0.13333333,0,33.6)"
       clip-path="url(#clipPath78)" />
    <path
       id="path79"
       d="m 573.23,156.34 v 36.687 h 17.036 V 156.34 Z"
       style="fill:none;stroke:#ffffff;stroke-width:3.99994;stroke-linecap:butt;stroke-linejoin:miter;stroke-miterlimit:4;stroke-dasharray:none;stroke-opacity:1"
       transform="matrix(0.13333333,0,0,-0.13333333,0,33.6)"
       clip-path="url(#clipPath80)" />
    <path
       id="path81"
       d="m 573.23,102.605 h 17.0352 v 36.6914 H 573.23 Z"
       style="fill:#036998;fill-opacity:1;fill-rule:nonzero;stroke:none"
       transform="matrix(0.13333333,0,0,-0.13333333,0,33.6)"
       clip-path="url(#clipPath82)" />
    <path
       id="path83"
       d="m 573.23,102.605 v 36.692 h 17.036 v -36.692 z"
       style="fill:none;stroke:#ffffff;stroke-width:3.99994;stroke-linecap:butt;stroke-linejoin:miter;stroke-miterlimit:4;stroke-dasharray:none;stroke-opacity:1"
       transform="matrix(0.13333333,0,0,-0.13333333,0,33.6)"
       clip-path="url(#clipPath84)" />
    <path
       id="path85"
       d="m 573.23,48.8789 h 17.0352 V 85.5664 H 573.23 Z"
       style="fill:#036998;fill-opacity:1;fill-rule:nonzero;stroke:none"
       transform="matrix(0.13333333,0,0,-0.13333333,0,33.6)"
       clip-path="url(#clipPath86)" />
    <path
       id="path87"
       d="m 573.23,48.8789 v 36.6875 h 17.036 V 48.8789 Z"
       style="fill:none;stroke:#ffffff;stroke-width:3.99994;stroke-linecap:butt;stroke-linejoin:miter;stroke-miterlimit:4;stroke-dasharray:none;stroke-opacity:1"
       transform="matrix(0.13333333,0,0,-0.13333333,0,33.6)"
       clip-path="url(#clipPath88)" />
    <path
       id="path89"
       d="m 518.191,156.34 h 17.0352 v 36.6875 H 518.191 Z"
       style="fill:#036998;fill-opacity:1;fill-rule:nonzero;stroke:none"
       transform="matrix(0.13333333,0,0,-0.13333333,0,33.6)"
       clip-path="url(#clipPath90)" />
    <path
       id="path91"
       d="m 518.191,156.34 v 36.687 h 17.036 V 156.34 Z"
       style="fill:none;stroke:#ffffff;stroke-width:3.99994;stroke-linecap:butt;stroke-linejoin:miter;stroke-miterlimit:4;stroke-dasharray:none;stroke-opacity:1"
       transform="matrix(0.13333333,0,0,-0.13333333,0,33.6)"
       clip-path="url(#clipPath92)" />
    <path
       id="path93"
       d="m 518.191,102.605 h 17.0352 v 36.6914 H 518.191 Z"
       style="fill:#036998;fill-opacity:1;fill-rule:nonzero;stroke:none"
       transform="matrix(0.13333333,0,0,-0.13333333,0,33.6)"
       clip-path="url(#clipPath94)" />
    <path
       id="path95"
       d="m 518.191,102.605 v 36.692 h 17.036 v -36.692 z"
       style="fill:none;stroke:#ffffff;stroke-width:3.99994;stroke-linecap:butt;stroke-linejoin:miter;stroke-miterlimit:4;stroke-dasharray:none;stroke-opacity:1"
       transform="matrix(0.13333333,0,0,-0.13333333,0,33.6)"
       clip-path="url(#clipPath96)" />
    <path
       id="path97"
       d="m 518.191,48.8789 h 17.0352 V 85.5664 H 518.191 Z"
       style="fill:#036998;fill-opacity:1;fill-rule:nonzero;stroke:none"
       transform="matrix(0.13333333,0,0,-0.13333333,0,33.6)"
       clip-path="url(#clipPath98)" />
    <path
       id="path99"
       d="m 518.191,48.8789 v 36.6875 h 17.036 V 48.8789 Z"
       style="fill:none;stroke:#ffffff;stroke-width:3.99994;stroke-linecap:butt;stroke-linejoin:miter;stroke-miterlimit:4;stroke-dasharray:none;stroke-opacity:1"
       transform="matrix(0.13333333,0,0,-0.13333333,0,33.6)"
       clip-path="url(#clipPath100)" />
    <path
       id="path101"
       d="m 463.145,156.34 h 17.043 v 36.6875 h -17.043 z"
       style="fill:#036998;fill-opacity:1;fill-rule:nonzero;stroke:none"
       transform="matrix(0.13333333,0,0,-0.13333333,0,33.6)"
       clip-path="url(#clipPath102)" />
    <path
       id="path103"
       d="m 463.145,156.34 v 36.687 h 17.043 V 156.34 Z"
       style="fill:none;stroke:#ffffff;stroke-width:3.99994;stroke-linecap:butt;stroke-linejoin:miter;stroke-miterlimit:4;stroke-dasharray:none;stroke-opacity:1"
       transform="matrix(0.13333333,0,0,-0.13333333,0,33.6)"
       clip-path="url(#clipPath104)" />
    <path
       id="path105"
       d="m 463.145,102.605 h 17.043 v 36.6914 h -17.043 z"
       style="fill:#036998;fill-opacity:1;fill-rule:nonzero;stroke:none"
       transform="matrix(0.13333333,0,0,-0.13333333,0,33.6)"
       clip-path="url(#clipPath106)" />
    <path
       id="path107"
       d="m 463.145,102.605 v 36.692 h 17.043 v -36.692 z"
       style="fill:none;stroke:#ffffff;stroke-width:3.99994;stroke-linecap:butt;stroke-linejoin:miter;stroke-miterlimit:4;stroke-dasharray:none;stroke-opacity:1"
       transform="matrix(0.13333333,0,0,-0.13333333,0,33.6)"
       clip-path="url(#clipPath108)" />
    <path
       id="path109"
       d="m 463.145,48.8789 h 17.043 v 36.6875 h -17.043 z"
       style="fill:#036998;fill-opacity:1;fill-rule:nonzero;stroke:none"
       transform="matrix(0.13333333,0,0,-0.13333333,0,33.6)"
       clip-path="url(#clipPath110)" />
    <path
       id="path111"
       d="m 463.145,48.8789 v 36.6875 h 17.043 V 48.8789 Z"
       style="fill:none;stroke:#ffffff;stroke-width:3.99994;stroke-linecap:butt;stroke-linejoin:miter;stroke-miterlimit:4;stroke-dasharray:none;stroke-opacity:1"
       transform="matrix(0.13333333,0,0,-0.13333333,0,33.6)"
       clip-path="url(#clipPath112)" />
    <path
       id="path113"
       d="m 408.105,156.34 h 17.0391 v 36.6875 H 408.105 Z"
       style="fill:#036998;fill-opacity:1;fill-rule:nonzero;stroke:none"
       transform="matrix(0.13333333,0,0,-0.13333333,0,33.6)"
       clip-path="url(#clipPath114)" />
    <path
       id="path115"
       d="m 408.105,156.34 v 36.687 h 17.04 V 156.34 Z"
       style="fill:none;stroke:#ffffff;stroke-width:3.99994;stroke-linecap:butt;stroke-linejoin:miter;stroke-miterlimit:4;stroke-dasharray:none;stroke-opacity:1"
       transform="matrix(0.13333333,0,0,-0.13333333,0,33.6)"
       clip-path="url(#clipPath116)" />
    <path
       id="path117"
       d="m 408.105,102.605 h 17.0391 v 36.6914 H 408.105 Z"
       style="fill:#036998;fill-opacity:1;fill-rule:nonzero;stroke:none"
       transform="matrix(0.13333333,0,0,-0.13333333,0,33.6)"
       clip-path="url(#clipPath118)" />
    <path
       id="path119"
       d="m 408.105,102.605 v 36.692 h 17.04 v -36.692 z"
       style="fill:none;stroke:#ffffff;stroke-width:3.99994;stroke-linecap:butt;stroke-linejoin:miter;stroke-miterlimit:4;stroke-dasharray:none;stroke-opacity:1"
       transform="matrix(0.13333333,0,0,-0.13333333,0,33.6)"
       clip-path="url(#clipPath120)" />
    <path
       id="path121"
       d="m 408.105,48.8789 h 17.0391 V 85.5664 H 408.105 Z"
       style="fill:#036998;fill-opacity:1;fill-rule:nonzero;stroke:none"
       transform="matrix(0.13333333,0,0,-0.13333333,0,33.6)"
       clip-path="url(#clipPath122)" />
    <path
       id="path123"
       d="m 408.105,48.8789 v 36.6875 h 17.04 V 48.8789 Z"
       style="fill:none;stroke:#ffffff;stroke-width:3.99994;stroke-linecap:butt;stroke-linejoin:miter;stroke-miterlimit:4;stroke-dasharray:none;stroke-opacity:1"
       transform="matrix(0.13333333,0,0,-0.13333333,0,33.6)"
       clip-path="url(#clipPath124)" />
    <path
       id="path125"
       d="m 357.004,156.34 h 17.0273 v 36.6875 H 357.004 Z"
       style="fill:#036998;fill-opacity:1;fill-rule:nonzero;stroke:none"
       transform="matrix(0.13333333,0,0,-0.13333333,0,33.6)"
       clip-path="url(#clipPath126)" />
    <path
       id="path127"
       d="m 357.004,156.34 v 36.687 h 17.027 V 156.34 Z"
       style="fill:none;stroke:#ffffff;stroke-width:3.99994;stroke-linecap:butt;stroke-linejoin:miter;stroke-miterlimit:4;stroke-dasharray:none;stroke-opacity:1"
       transform="matrix(0.13333333,0,0,-0.13333333,0,33.6)"
       clip-path="url(#clipPath128)" />
    <path
       id="path129"
       d="m 307.195,156.34 h 17.0352 v 36.6875 H 307.195 Z"
       style="fill:#036998;fill-opacity:1;fill-rule:nonzero;stroke:none"
       transform="matrix(0.13333333,0,0,-0.13333333,0,33.6)"
       clip-path="url(#clipPath130)" />
    <path
       id="path131"
       d="m 307.195,156.34 v 36.687 H 324.23 V 156.34 Z"
       style="fill:none;stroke:#ffffff;stroke-width:3.99994;stroke-linecap:butt;stroke-linejoin:miter;stroke-miterlimit:4;stroke-dasharray:none;stroke-opacity:1"
       transform="matrix(0.13333333,0,0,-0.13333333,0,33.6)"
       clip-path="url(#clipPath132)" />
    <path
       id="path133"
       d="m 257.395,156.34 h 17.0391 v 36.6875 H 257.395 Z"
       style="fill:#036998;fill-opacity:1;fill-rule:nonzero;stroke:none"
       transform="matrix(0.13333333,0,0,-0.13333333,0,33.6)"
       clip-path="url(#clipPath134)" />
    <path
       id="path135"
       d="m 257.395,156.34 v 36.687 h 17.039 V 156.34 Z"
       style="fill:none;stroke:#ffffff;stroke-width:3.99994;stroke-linecap:butt;stroke-linejoin:miter;stroke-miterlimit:4;stroke-dasharray:none;stroke-opacity:1"
       transform="matrix(0.13333333,0,0,-0.13333333,0,33.6)"
       clip-path="url(#clipPath136)" />
    <path
       id="path137"
       d="m 260.02,98.1445 h 15.0703 V 128.289 H 260.02 Z"
       style="fill:#036998;fill-opacity:1;fill-rule:nonzero;stroke:none"
       transform="matrix(0.13333333,0,0,-0.13333333,0,33.6)"
       clip-path="url(#clipPath138)" />
    <path
       id="path139"
       d="M 275.09,98.1445 V 128.289 H 260.02 V 98.1445 Z"
       style="fill:none;stroke:#ffffff;stroke-width:3.99994;stroke-linecap:butt;stroke-linejoin:miter;stroke-miterlimit:4;stroke-dasharray:none;stroke-opacity:1"
       transform="matrix(0.13333333,0,0,-0.13333333,0,33.6)"
       clip-path="url(#clipPath140)" />
    <path
       id="path141"
       d="m 286.23,98.1445 h 15.0703 V 128.289 H 286.23 Z"
       style="fill:#036998;fill-opacity:1;fill-rule:nonzero;stroke:none"
       transform="matrix(0.13333333,0,0,-0.13333333,0,33.6)"
       clip-path="url(#clipPath142)" />
    <path
       id="path143"
       d="M 301.301,98.1445 V 128.289 H 286.23 V 98.1445 Z"
       style="fill:none;stroke:#ffffff;stroke-width:3.99994;stroke-linecap:butt;stroke-linejoin:miter;stroke-miterlimit:4;stroke-dasharray:none;stroke-opacity:1"
       transform="matrix(0.13333333,0,0,-0.13333333,0,33.6)"
       clip-path="url(#clipPath144)" />
    <path
       id="path145"
       d="m 355.027,98.1445 h 15.0781 V 128.289 H 355.027 Z"
       style="fill:#036998;fill-opacity:1;fill-rule:nonzero;stroke:none"
       transform="matrix(0.13333333,0,0,-0.13333333,0,33.6)"
       clip-path="url(#clipPath146)" />
    <path
       id="path147"
       d="m 355.027,98.1445 v 30.1445 h 15.078 V 98.1445 Z"
       style="fill:none;stroke:#ffffff;stroke-width:3.99994;stroke-linecap:butt;stroke-linejoin:miter;stroke-miterlimit:4;stroke-dasharray:none;stroke-opacity:1"
       transform="matrix(0.13333333,0,0,-0.13333333,0,33.6)"
       clip-path="url(#clipPath148)" />
    <path
       id="path149"
       d="m 328.816,98.1445 h 15.0781 V 128.289 H 328.816 Z"
       style="fill:#036998;fill-opacity:1;fill-rule:nonzero;stroke:none"
       transform="matrix(0.13333333,0,0,-0.13333333,0,33.6)"
       clip-path="url(#clipPath150)" />
    <path
       id="path151"
       d="m 328.816,98.1445 v 30.1445 h 15.079 V 98.1445 Z"
       style="fill:none;stroke:#ffffff;stroke-width:3.99994;stroke-linecap:butt;stroke-linejoin:miter;stroke-miterlimit:4;stroke-dasharray:none;stroke-opacity:1"
       transform="matrix(0.13333333,0,0,-0.13333333,0,33.6)"
       clip-path="url(#clipPath152)" />
    <path
       id="path153"
       d="M 215.066,2.00391 H 415.05 v 15.418 H 215.066 Z"
       style="fill:#036998;fill-opacity:1;fill-rule:nonzero;stroke:none"
       transform="matrix(0.13333333,0,0,-0.13333333,0,33.6)"
       clip-path="url(#clipPath154)" />
    <path
       id="path155"
       d="M 415.051,2.00391 V 17.4219 H 215.066 V 2.00391 Z"
       style="fill:none;stroke:#ffffff;stroke-width:3.99994;stroke-linecap:butt;stroke-linejoin:miter;stroke-miterlimit:4;stroke-dasharray:none;stroke-opacity:1"
       transform="matrix(0.13333333,0,0,-0.13333333,0,33.6)"
       clip-path="url(#clipPath156)" />
  </g>
</svg>
