<?xml version="1.0" encoding="UTF-8" standalone="no"?>
<!-- Created with Inkscape (http://www.inkscape.org/) -->

<svg
   version="1.1"
   id="svg1"
   width="41.506668"
   height="55.413334"
   viewBox="0 0 41.506668 55.413334"
   sodipodi:docname="vip.eps"
   xmlns:inkscape="http://www.inkscape.org/namespaces/inkscape"
   xmlns:sodipodi="http://sodipodi.sourceforge.net/DTD/sodipodi-0.dtd"
   xmlns="http://www.w3.org/2000/svg"
   xmlns:svg="http://www.w3.org/2000/svg">
  <defs
     id="defs1">
    <clipPath
       clipPathUnits="userSpaceOnUse"
       id="clipPath2">
      <path
         d="M 0,416 H 310 V 0 H 0 Z"
         id="path2" />
    </clipPath>
    <clipPath
       clipPathUnits="userSpaceOnUse"
       id="clipPath4">
      <path
         d="M 0,416 H 310 V 0 H 0 Z"
         id="path4" />
    </clipPath>
    <clipPath
       clipPathUnits="userSpaceOnUse"
       id="clipPath6">
      <path
         d="M 0,416 H 310 V 0 H 0 Z"
         id="path6" />
    </clipPath>
    <clipPath
       clipPathUnits="userSpaceOnUse"
       id="clipPath8">
      <path
         d="M 0,416 H 310 V 0 H 0 Z"
         id="path8" />
    </clipPath>
    <clipPath
       clipPathUnits="userSpaceOnUse"
       id="clipPath10">
      <path
         d="M 0,416 H 310 V 0 H 0 Z"
         id="path10" />
    </clipPath>
    <clipPath
       clipPathUnits="userSpaceOnUse"
       id="clipPath12">
      <path
         d="M 0,416 H 310 V 0 H 0 Z"
         id="path12" />
    </clipPath>
    <clipPath
       clipPathUnits="userSpaceOnUse"
       id="clipPath14">
      <path
         d="M 0,416 H 310 V 0 H 0 Z"
         id="path14" />
    </clipPath>
    <clipPath
       clipPathUnits="userSpaceOnUse"
       id="clipPath16">
      <path
         d="M 0,416 H 310 V 0 H 0 Z"
         id="path16" />
    </clipPath>
    <clipPath
       clipPathUnits="userSpaceOnUse"
       id="clipPath18">
      <path
         d="M 0,416 H 310 V 0 H 0 Z"
         id="path18" />
    </clipPath>
    <clipPath
       clipPathUnits="userSpaceOnUse"
       id="clipPath20">
      <path
         d="M 0,416 H 310 V 0 H 0 Z"
         id="path20" />
    </clipPath>
    <clipPath
       clipPathUnits="userSpaceOnUse"
       id="clipPath22">
      <path
         d="M 0,416 H 310 V 0 H 0 Z"
         id="path22" />
    </clipPath>
    <clipPath
       clipPathUnits="userSpaceOnUse"
       id="clipPath24">
      <path
         d="M 0,416 H 310 V 0 H 0 Z"
         id="path24" />
    </clipPath>
    <clipPath
       clipPathUnits="userSpaceOnUse"
       id="clipPath26">
      <path
         d="M 0,416 H 310 V 0 H 0 Z"
         id="path26" />
    </clipPath>
    <clipPath
       clipPathUnits="userSpaceOnUse"
       id="clipPath28">
      <path
         d="M 0,416 H 310 V 0 H 0 Z"
         id="path28" />
    </clipPath>
    <clipPath
       clipPathUnits="userSpaceOnUse"
       id="clipPath30">
      <path
         d="M 0,416 H 310 V 0 H 0 Z"
         id="path30" />
    </clipPath>
    <clipPath
       clipPathUnits="userSpaceOnUse"
       id="clipPath32">
      <path
         d="M 0,416 H 310 V 0 H 0 Z"
         id="path32" />
    </clipPath>
    <clipPath
       clipPathUnits="userSpaceOnUse"
       id="clipPath34">
      <path
         d="M 0,416 H 310 V 0 H 0 Z"
         id="path34" />
    </clipPath>
    <clipPath
       clipPathUnits="userSpaceOnUse"
       id="clipPath36">
      <path
         d="M 0,416 H 310 V 0 H 0 Z"
         id="path36" />
    </clipPath>
    <clipPath
       clipPathUnits="userSpaceOnUse"
       id="clipPath38">
      <path
         d="M 0,416 H 310 V 0 H 0 Z"
         id="path38" />
    </clipPath>
    <clipPath
       clipPathUnits="userSpaceOnUse"
       id="clipPath40">
      <path
         d="M 0,416 H 310 V 0 H 0 Z"
         id="path40" />
    </clipPath>
  </defs>
  <sodipodi:namedview
     id="namedview1"
     pagecolor="#505050"
     bordercolor="#eeeeee"
     borderopacity="1"
     inkscape:showpageshadow="0"
     inkscape:pageopacity="0"
     inkscape:pagecheckerboard="0"
     inkscape:deskcolor="#d1d1d1">
    <inkscape:page
       x="0"
       y="0"
       inkscape:label="1"
       id="page1"
       width="41.506668"
       height="55.413334"
       margin="0"
       bleed="0" />
  </sodipodi:namedview>
  <g
     id="g1"
     inkscape:groupmode="layer"
     inkscape:label="1">
    <path
       id="path1"
       d="M 306.293,53.4063 V 410.906 l -51.336,-48.75 V 4.65625 l 51.336,48.75005"
       style="fill:#026c9b;fill-opacity:1;fill-rule:nonzero;stroke:none"
       transform="matrix(0.13333333,0,0,-0.13333333,0,55.413333)"
       clip-path="url(#clipPath2)" />
    <path
       id="path3"
       d="M 306.293,53.4063 V 410.906 l -51.336,-48.75 V 4.65625 Z"
       style="fill:none;stroke:#ffffff;stroke-width:4;stroke-linecap:butt;stroke-linejoin:miter;stroke-miterlimit:4;stroke-dasharray:none;stroke-opacity:1"
       transform="matrix(0.13333333,0,0,-0.13333333,0,55.413333)"
       clip-path="url(#clipPath4)" />
    <path
       id="path5"
       d="m 306.293,410.906 -51.336,-48.75 H 5.96094 l 64.50386,48.75 H 306.293"
       style="fill:#026c9b;fill-opacity:1;fill-rule:nonzero;stroke:none"
       transform="matrix(0.13333333,0,0,-0.13333333,0,55.413333)"
       clip-path="url(#clipPath6)" />
    <path
       id="path7"
       d="m 306.293,410.906 -51.336,-48.75 H 5.96094 l 64.50386,48.75 z"
       style="fill:none;stroke:#ffffff;stroke-width:4;stroke-linecap:butt;stroke-linejoin:miter;stroke-miterlimit:4;stroke-dasharray:none;stroke-opacity:1"
       transform="matrix(0.13333333,0,0,-0.13333333,0,55.413333)"
       clip-path="url(#clipPath8)" />
    <path
       id="path9"
       d="m 5.96094,115.906 h 248.996 v 246.25 H 5.96094 Z"
       style="fill:#026c9b;fill-opacity:1;fill-rule:nonzero;stroke:none"
       transform="matrix(0.13333333,0,0,-0.13333333,0,55.413333)"
       clip-path="url(#clipPath10)" />
    <path
       id="path11"
       d="m 254.957,115.906 v 246.25 H 5.96094 v -246.25 z"
       style="fill:none;stroke:#ffffff;stroke-width:4;stroke-linecap:butt;stroke-linejoin:miter;stroke-miterlimit:4;stroke-dasharray:none;stroke-opacity:1"
       transform="matrix(0.13333333,0,0,-0.13333333,0,55.413333)"
       clip-path="url(#clipPath12)" />
    <path
       id="path13"
       d="m 5.96094,4.65625 h 248.996 v 108.75 H 5.96094 Z"
       style="fill:#026c9b;fill-opacity:1;fill-rule:nonzero;stroke:none"
       transform="matrix(0.13333333,0,0,-0.13333333,0,55.413333)"
       clip-path="url(#clipPath14)" />
    <path
       id="path15"
       d="M 254.957,4.65625 V 113.406 H 5.96094 V 4.65625 Z"
       style="fill:none;stroke:#ffffff;stroke-width:4;stroke-linecap:butt;stroke-linejoin:miter;stroke-miterlimit:4;stroke-dasharray:none;stroke-opacity:1"
       transform="matrix(0.13333333,0,0,-0.13333333,0,55.413333)"
       clip-path="url(#clipPath16)" />
    <path
       id="path17"
       d="m 108.258,268.23 -37.883,37.883 6.4258,6.426 -23.7891,4.813 4.8164,-23.789 6.4258,6.425 37.8911,-37.871 6.113,6.113"
       style="fill:#ffffff;fill-opacity:1;fill-rule:nonzero;stroke:none"
       transform="matrix(0.13333333,0,0,-0.13333333,0,55.413333)"
       clip-path="url(#clipPath18)" />
    <path
       id="path19"
       d="M 94.3984,243.426 H 40.8242 v 9.082 L 20.6016,239.102 40.8242,225.691 v 9.082 h 53.5742 v 8.653"
       style="fill:#ffffff;fill-opacity:1;fill-rule:nonzero;stroke:none"
       transform="matrix(0.13333333,0,0,-0.13333333,0,55.413333)"
       clip-path="url(#clipPath20)" />
    <path
       id="path21"
       d="m 102.145,216.094 -37.8911,-37.883 -6.4258,6.426 -4.8164,-23.789 23.7891,4.824 -6.4258,6.426 37.883,37.871 -6.113,6.125"
       style="fill:#ffffff;fill-opacity:1;fill-rule:nonzero;stroke:none"
       transform="matrix(0.13333333,0,0,-0.13333333,0,55.413333)"
       clip-path="url(#clipPath22)" />
    <path
       id="path23"
       d="M 126.938,202.234 V 148.66 h -9.083 l 13.411,-20.222 13.406,20.222 h -9.082 v 53.574 h -8.652"
       style="fill:#ffffff;fill-opacity:1;fill-rule:nonzero;stroke:none"
       transform="matrix(0.13333333,0,0,-0.13333333,0,55.413333)"
       clip-path="url(#clipPath24)" />
    <path
       id="path25"
       d="m 126.938,274.422 v 53.574 h -9.083 l 13.411,20.227 13.406,-20.227 h -9.082 v -53.574 h -8.652"
       style="fill:#ffffff;fill-opacity:1;fill-rule:nonzero;stroke:none"
       transform="matrix(0.13333333,0,0,-0.13333333,0,55.413333)"
       clip-path="url(#clipPath26)" />
    <path
       id="path27"
       d="m 154.273,209.969 37.879,-37.871 -6.414,-6.426 23.778,-4.824 -4.813,23.789 -6.426,-6.426 -37.89,37.883 -6.114,-6.125"
       style="fill:#ffffff;fill-opacity:1;fill-rule:nonzero;stroke:none"
       transform="matrix(0.13333333,0,0,-0.13333333,0,55.413333)"
       clip-path="url(#clipPath28)" />
    <path
       id="path29"
       d="m 168.129,234.773 h 53.574 v -9.082 l 20.227,13.411 -20.227,13.406 v -9.082 h -53.574 v -8.653"
       style="fill:#ffffff;fill-opacity:1;fill-rule:nonzero;stroke:none"
       transform="matrix(0.13333333,0,0,-0.13333333,0,55.413333)"
       clip-path="url(#clipPath30)" />
    <path
       id="path31"
       d="m 160.387,262.117 37.89,37.871 6.426,-6.425 4.813,23.789 -23.778,-4.813 6.426,-6.426 -37.891,-37.883 6.114,-6.113"
       style="fill:#ffffff;fill-opacity:1;fill-rule:nonzero;stroke:none"
       transform="matrix(0.13333333,0,0,-0.13333333,0,55.413333)"
       clip-path="url(#clipPath32)" />
    <path
       id="path33"
       d="m 164.145,193.75 c 25.285,17.703 31.425,52.547 13.722,77.82 -17.695,25.285 -52.539,31.426 -77.824,13.731 C 74.7695,267.598 68.6172,232.742 86.3242,207.469 104.027,182.195 138.871,176.047 164.145,193.75"
       style="fill:#ffffff;fill-opacity:1;fill-rule:nonzero;stroke:#026c9b;stroke-width:4;stroke-linecap:butt;stroke-linejoin:miter;stroke-miterlimit:4;stroke-dasharray:none;stroke-opacity:1"
       transform="matrix(0.13333333,0,0,-0.13333333,0,55.413333)"
       clip-path="url(#clipPath34)" />
    <path
       id="path35"
       d="m 135.543,79.2969 h 9.129 L 131.266,99.5195 117.855,79.2969 h 9.036 V 37.1094 h -9.133 l 13.41,-20.2266 13.406,20.2266 h -9.031 v 42.1875"
       style="fill:#ffffff;fill-opacity:1;fill-rule:nonzero;stroke:none"
       transform="matrix(0.13333333,0,0,-0.13333333,0,55.413333)"
       clip-path="url(#clipPath36)" />
    <path
       id="path37"
       d="m 66.2734,79.2969 h 9.1407 L 61.9961,99.5195 48.5898,79.2969 h 9.043 V 37.1094 h -9.1406 l 13.4062,-20.2266 13.418,20.2266 h -9.043 v 42.1875"
       style="fill:#ffffff;fill-opacity:1;fill-rule:nonzero;stroke:none"
       transform="matrix(0.13333333,0,0,-0.13333333,0,55.413333)"
       clip-path="url(#clipPath38)" />
    <path
       id="path39"
       d="m 201.742,79.2969 h 9.141 L 197.477,99.5195 184.059,79.2969 h 9.043 V 37.1094 h -9.141 l 13.406,-20.2266 13.418,20.2266 h -9.043 v 42.1875"
       style="fill:#ffffff;fill-opacity:1;fill-rule:nonzero;stroke:none"
       transform="matrix(0.13333333,0,0,-0.13333333,0,55.413333)"
       clip-path="url(#clipPath40)" />
  </g>
</svg>
