<?xml version="1.0" encoding="UTF-8" standalone="no"?>
<!-- Created with Inkscape (http://www.inkscape.org/) -->

<svg
   version="1.1"
   id="svg1"
   width="41.400002"
   height="37.946667"
   viewBox="0 0 41.400002 37.946667"
   sodipodi:docname="vpn concentrator.eps"
   xmlns:inkscape="http://www.inkscape.org/namespaces/inkscape"
   xmlns:sodipodi="http://sodipodi.sourceforge.net/DTD/sodipodi-0.dtd"
   xmlns="http://www.w3.org/2000/svg"
   xmlns:svg="http://www.w3.org/2000/svg">
  <defs
     id="defs1">
    <clipPath
       clipPathUnits="userSpaceOnUse"
       id="clipPath2">
      <path
         d="M 0,4 V 285 H 310 V 4 Z"
         id="path2" />
    </clipPath>
    <clipPath
       clipPathUnits="userSpaceOnUse"
       id="clipPath4">
      <path
         d="M 0,4 V 285 H 310 V 4 Z"
         id="path4" />
    </clipPath>
    <clipPath
       clipPathUnits="userSpaceOnUse"
       id="clipPath6">
      <path
         d="M 0,4 V 285 H 310 V 4 Z"
         id="path6" />
    </clipPath>
    <clipPath
       clipPathUnits="userSpaceOnUse"
       id="clipPath8">
      <path
         d="M 0,4 V 285 H 310 V 4 Z"
         id="path8" />
    </clipPath>
    <clipPath
       clipPathUnits="userSpaceOnUse"
       id="clipPath10">
      <path
         d="M 0,4 V 285 H 310 V 4 Z"
         id="path10" />
    </clipPath>
    <clipPath
       clipPathUnits="userSpaceOnUse"
       id="clipPath12">
      <path
         d="M 0,4 V 285 H 310 V 4 Z"
         id="path12" />
    </clipPath>
    <clipPath
       clipPathUnits="userSpaceOnUse"
       id="clipPath14">
      <path
         d="M 0,4 V 285 H 310 V 4 Z"
         id="path14" />
    </clipPath>
    <clipPath
       clipPathUnits="userSpaceOnUse"
       id="clipPath16">
      <path
         d="M 0,4 V 285 H 310 V 4 Z"
         id="path16" />
    </clipPath>
    <clipPath
       clipPathUnits="userSpaceOnUse"
       id="clipPath18">
      <path
         d="M 0,4 V 285 H 310 V 4 Z"
         id="path18" />
    </clipPath>
    <clipPath
       clipPathUnits="userSpaceOnUse"
       id="clipPath20">
      <path
         d="M 0,4 V 285 H 310 V 4 Z"
         id="path20" />
    </clipPath>
    <clipPath
       clipPathUnits="userSpaceOnUse"
       id="clipPath22">
      <path
         d="M 0,4 V 285 H 310 V 4 Z"
         id="path22" />
    </clipPath>
    <clipPath
       clipPathUnits="userSpaceOnUse"
       id="clipPath24">
      <path
         d="M 0,4 V 285 H 310 V 4 Z"
         id="path24" />
    </clipPath>
    <clipPath
       clipPathUnits="userSpaceOnUse"
       id="clipPath26">
      <path
         d="M 0,4 V 285 H 310 V 4 Z"
         id="path26" />
    </clipPath>
    <clipPath
       clipPathUnits="userSpaceOnUse"
       id="clipPath28">
      <path
         d="M 0,4 V 285 H 310 V 4 Z"
         id="path28" />
    </clipPath>
    <clipPath
       clipPathUnits="userSpaceOnUse"
       id="clipPath30">
      <path
         d="M 0,4 V 285 H 310 V 4 Z"
         id="path30" />
    </clipPath>
    <clipPath
       clipPathUnits="userSpaceOnUse"
       id="clipPath32">
      <path
         d="M 0,4 V 285 H 310 V 4 Z"
         id="path32" />
    </clipPath>
    <clipPath
       clipPathUnits="userSpaceOnUse"
       id="clipPath34">
      <path
         d="M 0,4 V 285 H 310 V 4 Z"
         id="path34" />
    </clipPath>
    <clipPath
       clipPathUnits="userSpaceOnUse"
       id="clipPath36">
      <path
         d="M 0,4 V 285 H 310 V 4 Z"
         id="path36" />
    </clipPath>
    <clipPath
       clipPathUnits="userSpaceOnUse"
       id="clipPath38">
      <path
         d="M 0,4 V 285 H 310 V 4 Z"
         id="path38" />
    </clipPath>
    <clipPath
       clipPathUnits="userSpaceOnUse"
       id="clipPath40">
      <path
         d="M 0,4 V 285 H 310 V 4 Z"
         id="path40" />
    </clipPath>
    <clipPath
       clipPathUnits="userSpaceOnUse"
       id="clipPath42">
      <path
         d="M 0,4 V 285 H 310 V 4 Z"
         id="path42" />
    </clipPath>
    <clipPath
       clipPathUnits="userSpaceOnUse"
       id="clipPath44">
      <path
         d="M 0,4 V 285 H 310 V 4 Z"
         id="path44" />
    </clipPath>
    <clipPath
       clipPathUnits="userSpaceOnUse"
       id="clipPath46">
      <path
         d="M 0,4 V 285 H 310 V 4 Z"
         id="path46" />
    </clipPath>
    <clipPath
       clipPathUnits="userSpaceOnUse"
       id="clipPath48">
      <path
         d="M 0,4 V 285 H 310 V 4 Z"
         id="path48" />
    </clipPath>
    <clipPath
       clipPathUnits="userSpaceOnUse"
       id="clipPath50">
      <path
         d="M 0,4 V 285 H 310 V 4 Z"
         id="path50" />
    </clipPath>
    <clipPath
       clipPathUnits="userSpaceOnUse"
       id="clipPath52">
      <path
         d="M 0,4 V 285 H 310 V 4 Z"
         id="path52" />
    </clipPath>
    <clipPath
       clipPathUnits="userSpaceOnUse"
       id="clipPath54">
      <path
         d="M 0,4 V 285 H 310 V 4 Z"
         id="path54" />
    </clipPath>
    <clipPath
       clipPathUnits="userSpaceOnUse"
       id="clipPath56">
      <path
         d="M 0,4 V 285 H 310 V 4 Z"
         id="path56" />
    </clipPath>
    <clipPath
       clipPathUnits="userSpaceOnUse"
       id="clipPath58">
      <path
         d="M 0,4 V 285 H 310 V 4 Z"
         id="path58" />
    </clipPath>
  </defs>
  <sodipodi:namedview
     id="namedview1"
     pagecolor="#505050"
     bordercolor="#eeeeee"
     borderopacity="1"
     inkscape:showpageshadow="0"
     inkscape:pageopacity="0"
     inkscape:pagecheckerboard="0"
     inkscape:deskcolor="#d1d1d1">
    <inkscape:page
       x="0"
       y="0"
       inkscape:label="1"
       id="page1"
       width="41.400002"
       height="37.946667"
       margin="0"
       bleed="0" />
  </sodipodi:namedview>
  <g
     id="g1"
     inkscape:groupmode="layer"
     inkscape:label="1">
    <path
       id="path1"
       d="M 2,3.10547 78.6211,37.9102 H 308.484 L 231.855,3.10547 H 2"
       style="fill:#036998;fill-opacity:1;fill-rule:nonzero;stroke:#ffffff;stroke-width:3.99994;stroke-linecap:butt;stroke-linejoin:miter;stroke-miterlimit:4;stroke-dasharray:none;stroke-opacity:1"
       transform="matrix(0.13333333,0,0,-0.13333333,0,37.946667)"
       clip-path="url(#clipPath2)" />
    <path
       id="path3"
       d="m 2,246.699 76.6211,34.785 V 37.9102 L 2,3.10547 V 246.699"
       style="fill:#036998;fill-opacity:1;fill-rule:nonzero;stroke:#ffffff;stroke-width:3.99994;stroke-linecap:butt;stroke-linejoin:miter;stroke-miterlimit:4;stroke-dasharray:none;stroke-opacity:1"
       transform="matrix(0.13333333,0,0,-0.13333333,0,37.946667)"
       clip-path="url(#clipPath4)" />
    <path
       id="path5"
       d="m 78.6211,37.9102 h 229.863 v 243.574 H 78.6211 Z"
       style="fill:#036998;fill-opacity:1;fill-rule:nonzero;stroke:none"
       transform="matrix(0.13333333,0,0,-0.13333333,0,37.946667)"
       clip-path="url(#clipPath6)" />
    <path
       id="path7"
       d="M 78.6211,281.484 H 308.484 V 37.9102 H 78.6211 Z"
       style="fill:none;stroke:#ffffff;stroke-width:3.99994;stroke-linecap:butt;stroke-linejoin:miter;stroke-miterlimit:4;stroke-dasharray:none;stroke-opacity:1"
       transform="matrix(0.13333333,0,0,-0.13333333,0,37.946667)"
       clip-path="url(#clipPath8)" />
    <path
       id="path9"
       d="m 2,246.699 76.6211,34.785 H 308.484 L 231.855,246.699 H 2"
       style="fill:#036998;fill-opacity:1;fill-rule:nonzero;stroke:none"
       transform="matrix(0.13333333,0,0,-0.13333333,0,37.946667)"
       clip-path="url(#clipPath10)" />
    <path
       id="path11"
       d="m 2,246.699 76.6211,34.785 H 308.484 l -76.629,-34.785 z"
       style="fill:none;stroke:#ffffff;stroke-width:3.99994;stroke-linecap:butt;stroke-linejoin:miter;stroke-miterlimit:4;stroke-dasharray:none;stroke-opacity:1"
       transform="matrix(0.13333333,0,0,-0.13333333,0,37.946667)"
       clip-path="url(#clipPath12)" />
    <path
       id="path13"
       d="m 43.7969,211.887 c 7.8359,0 13.9258,-13.047 13.9258,-31.321 0,-17.39 -6.0899,-31.308 -13.9258,-31.308 -8.7071,0 -13.9453,13.918 -13.9453,31.308 0,18.274 5.2382,31.321 13.9453,31.321"
       style="fill:#036998;fill-opacity:1;fill-rule:nonzero;stroke:#ffffff;stroke-width:3.99994;stroke-linecap:butt;stroke-linejoin:miter;stroke-miterlimit:4;stroke-dasharray:none;stroke-opacity:1"
       transform="matrix(0.13333333,0,0,-0.13333333,0,37.946667)"
       clip-path="url(#clipPath14)" />
    <path
       id="path15"
       d="m 43.7969,149.258 h 188.059 v 62.6289 H 43.7969 Z"
       style="fill:#036998;fill-opacity:1;fill-rule:nonzero;stroke:none"
       transform="matrix(0.13333333,0,0,-0.13333333,0,37.946667)"
       clip-path="url(#clipPath16)" />
    <path
       id="path17"
       d="M 43.7969,211.887 H 231.855 V 149.258 H 43.7969"
       style="fill:none;stroke:#ffffff;stroke-width:3.99994;stroke-linecap:butt;stroke-linejoin:miter;stroke-miterlimit:4;stroke-dasharray:none;stroke-opacity:1"
       transform="matrix(0.13333333,0,0,-0.13333333,0,37.946667)"
       clip-path="url(#clipPath18)" />
    <path
       id="path19"
       d="m 43.7969,121.426 c 7.8359,0 13.9258,-13.047 13.9258,-31.3283 0,-17.4024 -6.0899,-31.3086 -13.9258,-31.3086 -8.7071,0 -13.9453,13.9062 -13.9453,31.3086 0,18.2813 5.2382,31.3283 13.9453,31.3283"
       style="fill:#036998;fill-opacity:1;fill-rule:nonzero;stroke:#ffffff;stroke-width:3.99994;stroke-linecap:butt;stroke-linejoin:miter;stroke-miterlimit:4;stroke-dasharray:none;stroke-opacity:1"
       transform="matrix(0.13333333,0,0,-0.13333333,0,37.946667)"
       clip-path="url(#clipPath20)" />
    <path
       id="path21"
       d="m 43.7969,58.7891 h 188.059 v 62.6367 H 43.7969 Z"
       style="fill:#036998;fill-opacity:1;fill-rule:nonzero;stroke:none"
       transform="matrix(0.13333333,0,0,-0.13333333,0,37.946667)"
       clip-path="url(#clipPath22)" />
    <path
       id="path23"
       d="M 43.7969,121.426 H 231.855 V 58.7891 H 43.7969"
       style="fill:none;stroke:#ffffff;stroke-width:3.99994;stroke-linecap:butt;stroke-linejoin:miter;stroke-miterlimit:4;stroke-dasharray:none;stroke-opacity:1"
       transform="matrix(0.13333333,0,0,-0.13333333,0,37.946667)"
       clip-path="url(#clipPath24)" />
    <path
       id="path25"
       d="M 43.7969,211.887 H 238.84"
       style="fill:#000000;fill-opacity:1;fill-rule:nonzero;stroke:#ffffff;stroke-width:3.20007;stroke-linecap:butt;stroke-linejoin:miter;stroke-miterlimit:1;stroke-dasharray:none;stroke-opacity:1"
       transform="matrix(0.13333333,0,0,-0.13333333,0,37.946667)"
       clip-path="url(#clipPath26)" />
    <path
       id="path27"
       d="M 43.7969,149.258 H 238.84"
       style="fill:#000000;fill-opacity:1;fill-rule:nonzero;stroke:#ffffff;stroke-width:3.20007;stroke-linecap:butt;stroke-linejoin:miter;stroke-miterlimit:1;stroke-dasharray:none;stroke-opacity:1"
       transform="matrix(0.13333333,0,0,-0.13333333,0,37.946667)"
       clip-path="url(#clipPath28)" />
    <path
       id="path29"
       d="M 43.7969,121.426 H 238.84"
       style="fill:#000000;fill-opacity:1;fill-rule:nonzero;stroke:#ffffff;stroke-width:3.20007;stroke-linecap:butt;stroke-linejoin:miter;stroke-miterlimit:1;stroke-dasharray:none;stroke-opacity:1"
       transform="matrix(0.13333333,0,0,-0.13333333,0,37.946667)"
       clip-path="url(#clipPath30)" />
    <path
       id="path31"
       d="M 43.7969,58.7891 H 238.84"
       style="fill:#000000;fill-opacity:1;fill-rule:nonzero;stroke:#ffffff;stroke-width:3.20007;stroke-linecap:butt;stroke-linejoin:miter;stroke-miterlimit:1;stroke-dasharray:none;stroke-opacity:1"
       transform="matrix(0.13333333,0,0,-0.13333333,0,37.946667)"
       clip-path="url(#clipPath32)" />
    <path
       id="path33"
       d="M 55.7539,179.355 H 174.172"
       style="fill:none;stroke:#ffffff;stroke-width:8.00003;stroke-linecap:butt;stroke-linejoin:miter;stroke-miterlimit:1;stroke-dasharray:none;stroke-opacity:1"
       transform="matrix(0.13333333,0,0,-0.13333333,0,37.946667)"
       clip-path="url(#clipPath34)" />
    <path
       id="path35"
       d="m 172.422,164.043 50.516,15.664 -50.516,14.777 v -30.441"
       style="fill:#000000;fill-opacity:1;fill-rule:nonzero;stroke:none"
       transform="matrix(0.13333333,0,0,-0.13333333,0,37.946667)"
       clip-path="url(#clipPath36)" />
    <path
       id="path37"
       d="m 172.422,164.043 50.516,15.664 -50.516,14.777 z"
       style="fill:none;stroke:#ffffff;stroke-width:3.20007;stroke-linecap:butt;stroke-linejoin:miter;stroke-miterlimit:4;stroke-dasharray:none;stroke-opacity:1"
       transform="matrix(0.13333333,0,0,-0.13333333,0,37.946667)"
       clip-path="url(#clipPath38)" />
    <path
       id="path39"
       d="M 54.2383,180.227 H 172.664"
       style="fill:#000000;fill-opacity:1;fill-rule:nonzero;stroke:#ffffff;stroke-width:3.20007;stroke-linecap:butt;stroke-linejoin:miter;stroke-miterlimit:1;stroke-dasharray:none;stroke-opacity:1"
       transform="matrix(0.13333333,0,0,-0.13333333,0,37.946667)"
       clip-path="url(#clipPath40)" />
    <path
       id="path41"
       d="m 170.906,164.91 50.5,15.656 -50.5,14.786 V 164.91"
       style="fill:#ffffff;fill-opacity:1;fill-rule:nonzero;stroke:none"
       transform="matrix(0.13333333,0,0,-0.13333333,0,37.946667)"
       clip-path="url(#clipPath42)" />
    <path
       id="path43"
       d="m 170.906,164.91 50.5,15.656 -50.5,14.786 z"
       style="fill:none;stroke:#ffffff;stroke-width:3.20007;stroke-linecap:butt;stroke-linejoin:miter;stroke-miterlimit:4;stroke-dasharray:none;stroke-opacity:1"
       transform="matrix(0.13333333,0,0,-0.13333333,0,37.946667)"
       clip-path="url(#clipPath44)" />
    <path
       id="path45"
       d="M 221.719,88.5156 H 103.301"
       style="fill:#ffffff;fill-opacity:1;fill-rule:nonzero;stroke:#ffffff;stroke-width:8.00003;stroke-linecap:round;stroke-linejoin:miter;stroke-miterlimit:4;stroke-dasharray:none;stroke-opacity:1"
       transform="matrix(0.13333333,0,0,-0.13333333,0,37.946667)"
       clip-path="url(#clipPath46)" />
    <path
       id="path47"
       d="M 105.383,104.285 54.8828,88.6211 105.383,73.8281 v 30.4569"
       style="fill:#ffffff;fill-opacity:1;fill-rule:nonzero;stroke:none"
       transform="matrix(0.13333333,0,0,-0.13333333,0,37.946667)"
       clip-path="url(#clipPath48)" />
    <path
       id="path49"
       d="M 105.383,104.285 54.8828,88.6211 105.383,73.8281 Z"
       style="fill:none;stroke:#ffffff;stroke-width:3.99994;stroke-linecap:butt;stroke-linejoin:miter;stroke-miterlimit:4;stroke-dasharray:none;stroke-opacity:1"
       transform="matrix(0.13333333,0,0,-0.13333333,0,37.946667)"
       clip-path="url(#clipPath50)" />
    <path
       id="path51"
       d="m 231.855,246.699 76.629,34.785 V 37.9102 L 231.855,3.10547 V 246.699"
       style="fill:#036998;fill-opacity:1;fill-rule:nonzero;stroke:none"
       transform="matrix(0.13333333,0,0,-0.13333333,0,37.946667)"
       clip-path="url(#clipPath52)" />
    <path
       id="path53"
       d="m 231.855,246.699 76.629,34.785 V 37.9102 L 231.855,3.10547 Z"
       style="fill:none;stroke:#ffffff;stroke-width:3.99994;stroke-linecap:butt;stroke-linejoin:miter;stroke-miterlimit:4;stroke-dasharray:none;stroke-opacity:1"
       transform="matrix(0.13333333,0,0,-0.13333333,0,37.946667)"
       clip-path="url(#clipPath54)" />
    <path
       id="path55"
       d="m 273.652,211.887 c 7.84,0 13.938,-13.047 13.938,-31.321 0,-17.39 -6.098,-31.308 -13.938,-31.308 -8.711,0 -13.933,13.918 -13.933,31.308 0,18.274 5.222,31.321 13.933,31.321"
       style="fill:#036998;fill-opacity:1;fill-rule:nonzero;stroke:#ffffff;stroke-width:3.99994;stroke-linecap:butt;stroke-linejoin:miter;stroke-miterlimit:4;stroke-dasharray:none;stroke-opacity:1"
       transform="matrix(0.13333333,0,0,-0.13333333,0,37.946667)"
       clip-path="url(#clipPath56)" />
    <path
       id="path57"
       d="m 273.652,121.426 c 7.84,0 13.938,-13.047 13.938,-31.3283 0,-17.4024 -6.098,-31.3086 -13.938,-31.3086 -8.711,0 -13.933,13.9062 -13.933,31.3086 0,18.2813 5.222,31.3283 13.933,31.3283"
       style="fill:#036998;fill-opacity:1;fill-rule:nonzero;stroke:#ffffff;stroke-width:3.99994;stroke-linecap:butt;stroke-linejoin:miter;stroke-miterlimit:4;stroke-dasharray:none;stroke-opacity:1"
       transform="matrix(0.13333333,0,0,-0.13333333,0,37.946667)"
       clip-path="url(#clipPath58)" />
  </g>
</svg>
