<?xml version="1.0" encoding="UTF-8" standalone="no"?>
<!-- Created with Inkscape (http://www.inkscape.org/) -->

<svg
   version="1.1"
   id="svg1"
   width="58.040001"
   height="42.119999"
   viewBox="0 0 58.040001 42.119999"
   sodipodi:docname="wae.eps"
   xmlns:inkscape="http://www.inkscape.org/namespaces/inkscape"
   xmlns:sodipodi="http://sodipodi.sourceforge.net/DTD/sodipodi-0.dtd"
   xmlns="http://www.w3.org/2000/svg"
   xmlns:svg="http://www.w3.org/2000/svg">
  <defs
     id="defs1" />
  <sodipodi:namedview
     id="namedview1"
     pagecolor="#505050"
     bordercolor="#eeeeee"
     borderopacity="1"
     inkscape:showpageshadow="0"
     inkscape:pageopacity="0"
     inkscape:pagecheckerboard="0"
     inkscape:deskcolor="#d1d1d1">
    <inkscape:page
       x="0"
       y="0"
       inkscape:label="1"
       id="page1"
       width="58.040001"
       height="42.119999"
       margin="0"
       bleed="0" />
  </sodipodi:namedview>
  <g
     id="g1"
     inkscape:groupmode="layer"
     inkscape:label="1">
    <path
       id="path1"
       d="M 5.65234,6.46484 H 387.145 V 257.102 H 5.65234 V 6.46484"
       style="fill:#087bbb;fill-opacity:1;fill-rule:nonzero;stroke:none"
       transform="matrix(0.13333333,0,0,-0.13333333,0,42.12)" />
    <path
       id="path2"
       d="M 5.65234,6.46484 H 387.145 V 257.102 H 5.65234 Z"
       style="fill:none;stroke:#ffffff;stroke-width:4;stroke-linecap:butt;stroke-linejoin:miter;stroke-miterlimit:4;stroke-dasharray:none;stroke-opacity:1"
       transform="matrix(0.13333333,0,0,-0.13333333,0,42.12)" />
    <path
       id="path3"
       d="M 431.031,70.6641 387.145,6.46484 V 257.102 l 43.886,53.211 V 70.6641"
       style="fill:#087bbb;fill-opacity:1;fill-rule:nonzero;stroke:none"
       transform="matrix(0.13333333,0,0,-0.13333333,0,42.12)" />
    <path
       id="path4"
       d="M 431.031,70.6641 387.145,6.46484 V 257.102 l 43.886,53.211 z"
       style="fill:none;stroke:#ffffff;stroke-width:4;stroke-linecap:butt;stroke-linejoin:miter;stroke-miterlimit:4;stroke-dasharray:none;stroke-opacity:1"
       transform="matrix(0.13333333,0,0,-0.13333333,0,42.12)" />
    <path
       id="path5"
       d="M 71.4883,310.313 H 431.031 L 387.145,257.102 H 5.65234 l 65.83596,53.211"
       style="fill:#087bbb;fill-opacity:1;fill-rule:nonzero;stroke:none"
       transform="matrix(0.13333333,0,0,-0.13333333,0,42.12)" />
    <path
       id="path6"
       d="M 71.4883,310.313 H 431.031 L 387.145,257.102 H 5.65234 Z"
       style="fill:none;stroke:#ffffff;stroke-width:4;stroke-linecap:butt;stroke-linejoin:miter;stroke-miterlimit:4;stroke-dasharray:none;stroke-opacity:1"
       transform="matrix(0.13333333,0,0,-0.13333333,0,42.12)" />
    <path
       id="path7"
       d="m 317.457,134.777 44.414,0.047 v -10.156 l -44.414,-0.039 -0.019,-15.859 -37.012,20.949 37.012,20.945 0.019,-15.887"
       style="fill:#ffffff;fill-opacity:1;fill-rule:nonzero;stroke:none"
       transform="matrix(0.13333333,0,0,-0.13333333,0,42.12)" />
    <path
       id="path8"
       d="m 344,125.801 -44.414,-0.047 v 10.156 l 44.414,0.035 0.02,15.852 37.011,-20.938 -37.011,-20.937 -0.02,15.879"
       style="fill:#ffffff;fill-opacity:1;fill-rule:nonzero;stroke:none"
       transform="matrix(0.13333333,0,0,-0.13333333,0,42.12)" />
    <path
       id="path9"
       d="m 266.254,130.352 -110.219,50.41 V 79.9531 Z"
       style="fill:#ffffff;fill-opacity:1;fill-rule:nonzero;stroke:#ffffff;stroke-width:3.6;stroke-linecap:butt;stroke-linejoin:miter;stroke-miterlimit:4;stroke-dasharray:none;stroke-opacity:1"
       transform="matrix(0.13333333,0,0,-0.13333333,0,42.12)" />
    <path
       id="path10"
       d="m 101.891,128.379 0.023,-14.199 33.137,18.75 -33.137,18.75 -0.023,-14.219"
       style="fill:#ffffff;fill-opacity:1;fill-rule:nonzero;stroke:none"
       transform="matrix(0.13333333,0,0,-0.13333333,0,42.12)" />
    <path
       id="path11"
       d="m 49.4531,128.477 57.1949,-0.039 v 9.093 l -57.1949,0.028 -0.0234,14.199 -33.1289,-18.75 33.1289,-18.75 0.0234,14.219"
       style="fill:#ffffff;fill-opacity:1;fill-rule:nonzero;stroke:none"
       transform="matrix(0.13333333,0,0,-0.13333333,0,42.12)" />
    <path
       id="path12"
       d="m 108.473,176.055 -8.125,-11.641 37.894,-3.641 -16.383,34.364 -8.175,-11.629"
       style="fill:#ffffff;fill-opacity:1;fill-rule:nonzero;stroke:none"
       transform="matrix(0.13333333,0,0,-0.13333333,0,42.12)" />
    <path
       id="path13"
       d="m 65.5703,206.211 46.8317,-32.832 5.215,7.441 -46.8357,32.832 8.125,11.653 -37.8907,3.64 16.3828,-34.355 8.1719,11.621"
       style="fill:#ffffff;fill-opacity:1;fill-rule:nonzero;stroke:none"
       transform="matrix(0.13333333,0,0,-0.13333333,0,42.12)" />
    <path
       id="path14"
       d="m 108.473,88.457 -8.125,11.652 37.894,3.641 -16.383,-34.3633 -8.175,11.6289"
       style="fill:#ffffff;fill-opacity:1;fill-rule:nonzero;stroke:none"
       transform="matrix(0.13333333,0,0,-0.13333333,0,42.12)" />
    <path
       id="path15"
       d="m 65.5703,58.3008 46.8317,32.8437 5.215,-7.4531 -46.8357,-32.832 8.125,-11.6406 -37.8907,-3.6407 16.3828,34.3633 8.1719,-11.6406"
       style="fill:#ffffff;fill-opacity:1;fill-rule:nonzero;stroke:none"
       transform="matrix(0.13333333,0,0,-0.13333333,0,42.12)" />
  </g>
</svg>
