<?xml version="1.0" encoding="UTF-8" standalone="no"?>
<!-- Created with Inkscape (http://www.inkscape.org/) -->

<svg
   version="1.1"
   id="svg1"
   width="109.70667"
   height="63.813332"
   viewBox="0 0 109.70667 63.813332"
   sodipodi:docname="web cluster.eps"
   xmlns:inkscape="http://www.inkscape.org/namespaces/inkscape"
   xmlns:sodipodi="http://sodipodi.sourceforge.net/DTD/sodipodi-0.dtd"
   xmlns="http://www.w3.org/2000/svg"
   xmlns:svg="http://www.w3.org/2000/svg">
  <defs
     id="defs1">
    <clipPath
       clipPathUnits="userSpaceOnUse"
       id="clipPath2">
      <path
         d="M 0,479 H 820 V 0 H 0 Z"
         id="path2" />
    </clipPath>
    <clipPath
       clipPathUnits="userSpaceOnUse"
       id="clipPath4">
      <path
         d="M 0,479 H 820 V 0 H 0 Z"
         id="path4" />
    </clipPath>
    <clipPath
       clipPathUnits="userSpaceOnUse"
       id="clipPath6">
      <path
         d="M 0,479 H 820 V 0 H 0 Z"
         id="path6" />
    </clipPath>
    <clipPath
       clipPathUnits="userSpaceOnUse"
       id="clipPath8">
      <path
         d="M 0,479 H 820 V 0 H 0 Z"
         id="path8" />
    </clipPath>
    <clipPath
       clipPathUnits="userSpaceOnUse"
       id="clipPath10">
      <path
         d="M 0,479 H 820 V 0 H 0 Z"
         id="path10" />
    </clipPath>
    <clipPath
       clipPathUnits="userSpaceOnUse"
       id="clipPath12">
      <path
         d="M 0,479 H 820 V 0 H 0 Z"
         id="path12" />
    </clipPath>
    <clipPath
       clipPathUnits="userSpaceOnUse"
       id="clipPath14">
      <path
         d="M 0,479 H 820 V 0 H 0 Z"
         id="path14" />
    </clipPath>
    <clipPath
       clipPathUnits="userSpaceOnUse"
       id="clipPath16">
      <path
         d="M 0,479 H 820 V 0 H 0 Z"
         id="path16" />
    </clipPath>
    <clipPath
       clipPathUnits="userSpaceOnUse"
       id="clipPath18">
      <path
         d="M 0,479 H 820 V 0 H 0 Z"
         id="path18" />
    </clipPath>
    <clipPath
       clipPathUnits="userSpaceOnUse"
       id="clipPath20">
      <path
         d="M 0,479 H 820 V 0 H 0 Z"
         id="path20" />
    </clipPath>
    <clipPath
       clipPathUnits="userSpaceOnUse"
       id="clipPath22">
      <path
         d="M 0,479 H 820 V 0 H 0 Z"
         id="path22" />
    </clipPath>
    <clipPath
       clipPathUnits="userSpaceOnUse"
       id="clipPath24">
      <path
         d="M 0,479 H 820 V 0 H 0 Z"
         id="path24" />
    </clipPath>
    <clipPath
       clipPathUnits="userSpaceOnUse"
       id="clipPath26">
      <path
         d="M 0,479 H 820 V 0 H 0 Z"
         id="path26" />
    </clipPath>
    <clipPath
       clipPathUnits="userSpaceOnUse"
       id="clipPath28">
      <path
         d="M 0,479 H 820 V 0 H 0 Z"
         id="path28" />
    </clipPath>
    <clipPath
       clipPathUnits="userSpaceOnUse"
       id="clipPath30">
      <path
         d="M 0,479 H 820 V 0 H 0 Z"
         id="path30" />
    </clipPath>
    <clipPath
       clipPathUnits="userSpaceOnUse"
       id="clipPath32">
      <path
         d="M 0,479 H 820 V 0 H 0 Z"
         id="path32" />
    </clipPath>
    <clipPath
       clipPathUnits="userSpaceOnUse"
       id="clipPath34">
      <path
         d="M 0,479 H 820 V 0 H 0 Z"
         id="path34" />
    </clipPath>
    <clipPath
       clipPathUnits="userSpaceOnUse"
       id="clipPath36">
      <path
         d="M 0,479 H 820 V 0 H 0 Z"
         id="path36" />
    </clipPath>
    <clipPath
       clipPathUnits="userSpaceOnUse"
       id="clipPath38">
      <path
         d="M 0,479 H 820 V 0 H 0 Z"
         id="path38" />
    </clipPath>
    <clipPath
       clipPathUnits="userSpaceOnUse"
       id="clipPath40">
      <path
         d="M 0,479 H 820 V 0 H 0 Z"
         id="path40" />
    </clipPath>
    <clipPath
       clipPathUnits="userSpaceOnUse"
       id="clipPath42">
      <path
         d="M 0,479 H 820 V 0 H 0 Z"
         id="path42" />
    </clipPath>
    <clipPath
       clipPathUnits="userSpaceOnUse"
       id="clipPath44">
      <path
         d="M 0,479 H 820 V 0 H 0 Z"
         id="path44" />
    </clipPath>
    <clipPath
       clipPathUnits="userSpaceOnUse"
       id="clipPath46">
      <path
         d="M 0,479 H 820 V 0 H 0 Z"
         id="path46" />
    </clipPath>
    <clipPath
       clipPathUnits="userSpaceOnUse"
       id="clipPath48">
      <path
         d="M 0,479 H 820 V 0 H 0 Z"
         id="path48" />
    </clipPath>
    <clipPath
       clipPathUnits="userSpaceOnUse"
       id="clipPath50">
      <path
         d="M 0,479 H 820 V 0 H 0 Z"
         id="path50" />
    </clipPath>
    <clipPath
       clipPathUnits="userSpaceOnUse"
       id="clipPath52">
      <path
         d="M 0,479 H 820 V 0 H 0 Z"
         id="path52" />
    </clipPath>
    <clipPath
       clipPathUnits="userSpaceOnUse"
       id="clipPath54">
      <path
         d="M 0,479 H 820 V 0 H 0 Z"
         id="path54" />
    </clipPath>
    <clipPath
       clipPathUnits="userSpaceOnUse"
       id="clipPath56">
      <path
         d="M 0,479 H 820 V 0 H 0 Z"
         id="path56" />
    </clipPath>
    <clipPath
       clipPathUnits="userSpaceOnUse"
       id="clipPath58">
      <path
         d="M 0,479 H 820 V 0 H 0 Z"
         id="path58" />
    </clipPath>
    <clipPath
       clipPathUnits="userSpaceOnUse"
       id="clipPath60">
      <path
         d="M 0,479 H 820 V 0 H 0 Z"
         id="path60" />
    </clipPath>
    <clipPath
       clipPathUnits="userSpaceOnUse"
       id="clipPath62">
      <path
         d="M 0,479 H 820 V 0 H 0 Z"
         id="path62" />
    </clipPath>
    <clipPath
       clipPathUnits="userSpaceOnUse"
       id="clipPath64">
      <path
         d="M 0,479 H 820 V 0 H 0 Z"
         id="path64" />
    </clipPath>
    <clipPath
       clipPathUnits="userSpaceOnUse"
       id="clipPath66">
      <path
         d="M 0,479 H 820 V 0 H 0 Z"
         id="path66" />
    </clipPath>
    <clipPath
       clipPathUnits="userSpaceOnUse"
       id="clipPath68">
      <path
         d="M 0,479 H 820 V 0 H 0 Z"
         id="path68" />
    </clipPath>
    <clipPath
       clipPathUnits="userSpaceOnUse"
       id="clipPath70">
      <path
         d="M 0,479 H 820 V 0 H 0 Z"
         id="path70" />
    </clipPath>
    <clipPath
       clipPathUnits="userSpaceOnUse"
       id="clipPath72">
      <path
         d="M 0,479 H 820 V 0 H 0 Z"
         id="path72" />
    </clipPath>
    <clipPath
       clipPathUnits="userSpaceOnUse"
       id="clipPath74">
      <path
         d="M 0,479 H 820 V 0 H 0 Z"
         id="path74" />
    </clipPath>
    <clipPath
       clipPathUnits="userSpaceOnUse"
       id="clipPath76">
      <path
         d="M 0,479 H 820 V 0 H 0 Z"
         id="path76" />
    </clipPath>
    <clipPath
       clipPathUnits="userSpaceOnUse"
       id="clipPath78">
      <path
         d="M 0,479 H 820 V 0 H 0 Z"
         id="path78" />
    </clipPath>
    <clipPath
       clipPathUnits="userSpaceOnUse"
       id="clipPath80">
      <path
         d="M 0,479 H 820 V 0 H 0 Z"
         id="path80" />
    </clipPath>
    <clipPath
       clipPathUnits="userSpaceOnUse"
       id="clipPath82">
      <path
         d="M 0,479 H 820 V 0 H 0 Z"
         id="path82" />
    </clipPath>
    <clipPath
       clipPathUnits="userSpaceOnUse"
       id="clipPath84">
      <path
         d="M 0,479 H 820 V 0 H 0 Z"
         id="path84" />
    </clipPath>
    <clipPath
       clipPathUnits="userSpaceOnUse"
       id="clipPath86">
      <path
         d="M 0,479 H 820 V 0 H 0 Z"
         id="path86" />
    </clipPath>
    <clipPath
       clipPathUnits="userSpaceOnUse"
       id="clipPath88">
      <path
         d="M 0,479 H 820 V 0 H 0 Z"
         id="path88" />
    </clipPath>
    <clipPath
       clipPathUnits="userSpaceOnUse"
       id="clipPath90">
      <path
         d="M 0,479 H 820 V 0 H 0 Z"
         id="path90" />
    </clipPath>
    <clipPath
       clipPathUnits="userSpaceOnUse"
       id="clipPath92">
      <path
         d="M 0,479 H 820 V 0 H 0 Z"
         id="path92" />
    </clipPath>
    <clipPath
       clipPathUnits="userSpaceOnUse"
       id="clipPath94">
      <path
         d="M 0,479 H 820 V 0 H 0 Z"
         id="path94" />
    </clipPath>
    <clipPath
       clipPathUnits="userSpaceOnUse"
       id="clipPath96">
      <path
         d="M 0,479 H 820 V 0 H 0 Z"
         id="path96" />
    </clipPath>
    <clipPath
       clipPathUnits="userSpaceOnUse"
       id="clipPath98">
      <path
         d="M 0,479 H 820 V 0 H 0 Z"
         id="path98" />
    </clipPath>
    <clipPath
       clipPathUnits="userSpaceOnUse"
       id="clipPath100">
      <path
         d="M 0,479 H 820 V 0 H 0 Z"
         id="path100" />
    </clipPath>
    <clipPath
       clipPathUnits="userSpaceOnUse"
       id="clipPath102">
      <path
         d="M 0,479 H 820 V 0 H 0 Z"
         id="path102" />
    </clipPath>
    <clipPath
       clipPathUnits="userSpaceOnUse"
       id="clipPath104">
      <path
         d="M 0,479 H 820 V 0 H 0 Z"
         id="path104" />
    </clipPath>
    <clipPath
       clipPathUnits="userSpaceOnUse"
       id="clipPath106">
      <path
         d="M 0,479 H 820 V 0 H 0 Z"
         id="path106" />
    </clipPath>
    <clipPath
       clipPathUnits="userSpaceOnUse"
       id="clipPath108">
      <path
         d="M 0,479 H 820 V 0 H 0 Z"
         id="path108" />
    </clipPath>
    <clipPath
       clipPathUnits="userSpaceOnUse"
       id="clipPath110">
      <path
         d="M 0,479 H 820 V 0 H 0 Z"
         id="path110" />
    </clipPath>
    <clipPath
       clipPathUnits="userSpaceOnUse"
       id="clipPath112">
      <path
         d="M 0,479 H 820 V 0 H 0 Z"
         id="path112" />
    </clipPath>
    <clipPath
       clipPathUnits="userSpaceOnUse"
       id="clipPath114">
      <path
         d="M 0,479 H 820 V 0 H 0 Z"
         id="path114" />
    </clipPath>
    <clipPath
       clipPathUnits="userSpaceOnUse"
       id="clipPath116">
      <path
         d="M 0,479 H 820 V 0 H 0 Z"
         id="path116" />
    </clipPath>
    <clipPath
       clipPathUnits="userSpaceOnUse"
       id="clipPath118">
      <path
         d="M 0,479 H 820 V 0 H 0 Z"
         id="path118" />
    </clipPath>
    <clipPath
       clipPathUnits="userSpaceOnUse"
       id="clipPath120">
      <path
         d="M 0,479 H 820 V 0 H 0 Z"
         id="path120" />
    </clipPath>
    <clipPath
       clipPathUnits="userSpaceOnUse"
       id="clipPath122">
      <path
         d="M 0,479 H 820 V 0 H 0 Z"
         id="path122" />
    </clipPath>
    <clipPath
       clipPathUnits="userSpaceOnUse"
       id="clipPath124">
      <path
         d="M 0,479 H 820 V 0 H 0 Z"
         id="path124" />
    </clipPath>
    <clipPath
       clipPathUnits="userSpaceOnUse"
       id="clipPath126">
      <path
         d="M 0,479 H 820 V 0 H 0 Z"
         id="path126" />
    </clipPath>
    <clipPath
       clipPathUnits="userSpaceOnUse"
       id="clipPath128">
      <path
         d="M 0,479 H 820 V 0 H 0 Z"
         id="path128" />
    </clipPath>
    <clipPath
       clipPathUnits="userSpaceOnUse"
       id="clipPath130">
      <path
         d="M 0,479 H 820 V 0 H 0 Z"
         id="path130" />
    </clipPath>
    <clipPath
       clipPathUnits="userSpaceOnUse"
       id="clipPath132">
      <path
         d="M 0,479 H 820 V 0 H 0 Z"
         id="path132" />
    </clipPath>
    <clipPath
       clipPathUnits="userSpaceOnUse"
       id="clipPath134">
      <path
         d="M 0,479 H 820 V 0 H 0 Z"
         id="path134" />
    </clipPath>
  </defs>
  <sodipodi:namedview
     id="namedview1"
     pagecolor="#505050"
     bordercolor="#eeeeee"
     borderopacity="1"
     inkscape:showpageshadow="0"
     inkscape:pageopacity="0"
     inkscape:pagecheckerboard="0"
     inkscape:deskcolor="#d1d1d1">
    <inkscape:page
       x="0"
       y="0"
       inkscape:label="1"
       id="page1"
       width="109.70667"
       height="63.813332"
       margin="0"
       bleed="0" />
  </sodipodi:namedview>
  <g
     id="g1"
     inkscape:groupmode="layer"
     inkscape:label="1">
    <path
       id="path1"
       d="M 511.367,132.598 492.871,106.211 H 332.207 l 26.531,26.387 h 152.629"
       style="fill:#036998;fill-opacity:1;fill-rule:nonzero;stroke:none"
       transform="matrix(0.13333333,0,0,-0.13333333,0,63.813333)"
       clip-path="url(#clipPath2)" />
    <path
       id="path3"
       d="M 511.367,132.598 492.871,106.211 H 332.207 l 26.531,26.387 z"
       style="fill:none;stroke:#ffffff;stroke-width:3.99994;stroke-linecap:butt;stroke-linejoin:miter;stroke-miterlimit:4;stroke-dasharray:none;stroke-opacity:1"
       transform="matrix(0.13333333,0,0,-0.13333333,0,63.813333)"
       clip-path="url(#clipPath4)" />
    <path
       id="path5"
       d="M 332.207,77.4805 H 485.574 V 106.211 H 332.207 Z"
       style="fill:#036998;fill-opacity:1;fill-rule:nonzero;stroke:none"
       transform="matrix(0.13333333,0,0,-0.13333333,0,63.813333)"
       clip-path="url(#clipPath6)" />
    <path
       id="path7"
       d="M 332.207,77.4805 V 106.211 H 485.574 V 77.4805 Z"
       style="fill:none;stroke:#ffffff;stroke-width:3.99994;stroke-linecap:butt;stroke-linejoin:miter;stroke-miterlimit:4;stroke-dasharray:none;stroke-opacity:1"
       transform="matrix(0.13333333,0,0,-0.13333333,0,63.813333)"
       clip-path="url(#clipPath8)" />
    <path
       id="path9"
       d="m 481.023,40.3398 v 9.1719 l 20.024,27.8008 V 60.3594 L 481.023,40.3398"
       style="fill:#036998;fill-opacity:1;fill-rule:nonzero;stroke:none"
       transform="matrix(0.13333333,0,0,-0.13333333,0,63.813333)"
       clip-path="url(#clipPath10)" />
    <path
       id="path11"
       d="m 481.023,40.3398 v 9.1719 l 20.024,27.8008 V 60.3594 Z"
       style="fill:none;stroke:#ffffff;stroke-width:3.99994;stroke-linecap:butt;stroke-linejoin:miter;stroke-miterlimit:4;stroke-dasharray:none;stroke-opacity:1"
       transform="matrix(0.13333333,0,0,-0.13333333,0,63.813333)"
       clip-path="url(#clipPath12)" />
    <path
       id="path13"
       d="m 304.719,40.3398 h 176.305 v 9.17188 H 304.719 Z"
       style="fill:#036998;fill-opacity:1;fill-rule:nonzero;stroke:none"
       transform="matrix(0.13333333,0,0,-0.13333333,0,63.813333)"
       clip-path="url(#clipPath14)" />
    <path
       id="path15"
       d="M 481.023,49.5117 V 40.3398 H 304.719 v 9.1719 z"
       style="fill:none;stroke:#ffffff;stroke-width:3.99994;stroke-linecap:butt;stroke-linejoin:miter;stroke-miterlimit:4;stroke-dasharray:none;stroke-opacity:1"
       transform="matrix(0.13333333,0,0,-0.13333333,0,63.813333)"
       clip-path="url(#clipPath16)" />
    <path
       id="path17"
       d="M 332.207,112.527 H 484.543 V 227.793 H 332.207 Z"
       style="fill:#036998;fill-opacity:1;fill-rule:nonzero;stroke:none"
       transform="matrix(0.13333333,0,0,-0.13333333,0,63.813333)"
       clip-path="url(#clipPath18)" />
    <path
       id="path19"
       d="M 332.207,227.793 H 484.543 V 112.527 H 332.207 Z"
       style="fill:none;stroke:#ffffff;stroke-width:3.99994;stroke-linecap:butt;stroke-linejoin:miter;stroke-miterlimit:4;stroke-dasharray:none;stroke-opacity:1"
       transform="matrix(0.13333333,0,0,-0.13333333,0,63.813333)"
       clip-path="url(#clipPath20)" />
    <path
       id="path21"
       d="m 484.543,112.527 26.082,26.086 V 253.875 L 484.543,227.793 V 112.527"
       style="fill:#036998;fill-opacity:1;fill-rule:nonzero;stroke:none"
       transform="matrix(0.13333333,0,0,-0.13333333,0,63.813333)"
       clip-path="url(#clipPath22)" />
    <path
       id="path23"
       d="m 484.543,112.527 26.082,26.086 v 115.262 l -26.082,-26.082 z"
       style="fill:none;stroke:#ffffff;stroke-width:3.99994;stroke-linecap:butt;stroke-linejoin:miter;stroke-miterlimit:4;stroke-dasharray:none;stroke-opacity:1"
       transform="matrix(0.13333333,0,0,-0.13333333,0,63.813333)"
       clip-path="url(#clipPath24)" />
    <path
       id="path25"
       d="M 481.023,49.5117 H 304.719 l 20.398,27.8008 h 175.93 L 481.023,49.5117"
       style="fill:#036998;fill-opacity:1;fill-rule:nonzero;stroke:none"
       transform="matrix(0.13333333,0,0,-0.13333333,0,63.813333)"
       clip-path="url(#clipPath26)" />
    <path
       id="path27"
       d="M 481.023,49.5117 H 304.719 l 20.398,27.8008 h 175.93 z"
       style="fill:none;stroke:#ffffff;stroke-width:3.99994;stroke-linecap:butt;stroke-linejoin:miter;stroke-miterlimit:4;stroke-dasharray:none;stroke-opacity:1"
       transform="matrix(0.13333333,0,0,-0.13333333,0,63.813333)"
       clip-path="url(#clipPath28)" />
    <path
       id="path29"
       d="m 485.449,77.4023 v 28.8087 l 25.918,25.742 V 103.32 L 485.449,77.4023"
       style="fill:#036998;fill-opacity:1;fill-rule:nonzero;stroke:none"
       transform="matrix(0.13333333,0,0,-0.13333333,0,63.813333)"
       clip-path="url(#clipPath30)" />
    <path
       id="path31"
       d="m 485.449,77.4023 v 28.8087 l 25.918,25.742 V 103.32 Z"
       style="fill:none;stroke:#ffffff;stroke-width:3.99994;stroke-linecap:butt;stroke-linejoin:miter;stroke-miterlimit:4;stroke-dasharray:none;stroke-opacity:1"
       transform="matrix(0.13333333,0,0,-0.13333333,0,63.813333)"
       clip-path="url(#clipPath32)" />
    <path
       id="path33"
       d="m 357.043,214.512 h 102.156 c 6.653,0 12.039,-5.391 12.039,-12.032 v -64.55 c 0,-6.641 -5.386,-12.032 -12.039,-12.032 H 357.043 c -6.652,0 -12.043,5.391 -12.043,12.032 v 64.55 c 0,6.641 5.391,12.032 12.043,12.032"
       style="fill:#036998;fill-opacity:1;fill-rule:nonzero;stroke:none"
       transform="matrix(0.13333333,0,0,-0.13333333,0,63.813333)"
       clip-path="url(#clipPath34)" />
    <path
       id="path35"
       d="m 357.043,214.512 h 102.156 c 6.653,0 12.039,-5.391 12.039,-12.032 v -64.55 c 0,-6.641 -5.386,-12.032 -12.039,-12.032 H 357.043 c -6.652,0 -12.043,5.391 -12.043,12.032 v 64.55 c 0,6.641 5.391,12.032 12.043,12.032 z"
       style="fill:none;stroke:#ffffff;stroke-width:3.99994;stroke-linecap:butt;stroke-linejoin:miter;stroke-miterlimit:4;stroke-dasharray:none;stroke-opacity:1"
       transform="matrix(0.13333333,0,0,-0.13333333,0,63.813333)"
       clip-path="url(#clipPath36)" />
    <path
       id="path37"
       d="M 510.625,253.875 H 361.934 l -29.727,-26.082 h 152.336 l 26.082,26.082"
       style="fill:#036998;fill-opacity:1;fill-rule:nonzero;stroke:none"
       transform="matrix(0.13333333,0,0,-0.13333333,0,63.813333)"
       clip-path="url(#clipPath38)" />
    <path
       id="path39"
       d="M 510.625,253.875 H 361.934 l -29.727,-26.082 h 152.336 z"
       style="fill:none;stroke:#ffffff;stroke-width:3.99994;stroke-linecap:butt;stroke-linejoin:miter;stroke-miterlimit:4;stroke-dasharray:none;stroke-opacity:1"
       transform="matrix(0.13333333,0,0,-0.13333333,0,63.813333)"
       clip-path="url(#clipPath40)" />
    <path
       id="path41"
       d="m 395.305,193.77 c -18.672,3.73 -28.535,-5.84 -26.977,-14.102 l 0.117,-0.449 c -14.55,-2.481 -10.73,-19.66 -3.75,-19.66 l 0.688,0.031 c -1.621,-11.856 15.879,-18.848 24.734,-12.188 l 0.613,0.664 c 2.778,-11.269 40.391,-12.14 47.993,-3.711 l 0.679,-0.195 c 16.489,-1.328 23.989,10.059 20.383,18.231 l 0.891,0.246 c 5.613,1.492 6.265,14.461 -3.379,16.386 l 0.191,0.497 c 4.184,8.429 -5.679,16.398 -19.383,14.894 l -0.949,0.496 c -9.801,8.879 -38.023,7.434 -41.289,-1.347 l -0.562,0.207"
       style="fill:#ffffff;fill-opacity:1;fill-rule:nonzero;stroke:none"
       transform="matrix(0.13333333,0,0,-0.13333333,0,63.813333)"
       clip-path="url(#clipPath42)" />
    <path
       id="path43"
       d="M 741.367,262.598 722.871,236.211 H 562.207 l 26.531,26.387 h 152.629"
       style="fill:#036998;fill-opacity:1;fill-rule:nonzero;stroke:none"
       transform="matrix(0.13333333,0,0,-0.13333333,0,63.813333)"
       clip-path="url(#clipPath44)" />
    <path
       id="path45"
       d="M 741.367,262.598 722.871,236.211 H 562.207 l 26.531,26.387 z"
       style="fill:none;stroke:#ffffff;stroke-width:3.99994;stroke-linecap:butt;stroke-linejoin:miter;stroke-miterlimit:4;stroke-dasharray:none;stroke-opacity:1"
       transform="matrix(0.13333333,0,0,-0.13333333,0,63.813333)"
       clip-path="url(#clipPath46)" />
    <path
       id="path47"
       d="m 562.207,207.48 h 153.367 v 28.7305 H 562.207 Z"
       style="fill:#036998;fill-opacity:1;fill-rule:nonzero;stroke:none"
       transform="matrix(0.13333333,0,0,-0.13333333,0,63.813333)"
       clip-path="url(#clipPath48)" />
    <path
       id="path49"
       d="m 562.207,207.48 v 28.731 H 715.574 V 207.48 Z"
       style="fill:none;stroke:#ffffff;stroke-width:3.99994;stroke-linecap:butt;stroke-linejoin:miter;stroke-miterlimit:4;stroke-dasharray:none;stroke-opacity:1"
       transform="matrix(0.13333333,0,0,-0.13333333,0,63.813333)"
       clip-path="url(#clipPath50)" />
    <path
       id="path51"
       d="m 711.023,170.34 v 9.172 l 20.024,27.801 V 190.359 L 711.023,170.34"
       style="fill:#036998;fill-opacity:1;fill-rule:nonzero;stroke:none"
       transform="matrix(0.13333333,0,0,-0.13333333,0,63.813333)"
       clip-path="url(#clipPath52)" />
    <path
       id="path53"
       d="m 711.023,170.34 v 9.172 l 20.024,27.801 v -16.954 z"
       style="fill:none;stroke:#ffffff;stroke-width:3.99994;stroke-linecap:butt;stroke-linejoin:miter;stroke-miterlimit:4;stroke-dasharray:none;stroke-opacity:1"
       transform="matrix(0.13333333,0,0,-0.13333333,0,63.813333)"
       clip-path="url(#clipPath54)" />
    <path
       id="path55"
       d="m 534.719,170.34 h 176.305 v 9.17188 H 534.719 Z"
       style="fill:#036998;fill-opacity:1;fill-rule:nonzero;stroke:none"
       transform="matrix(0.13333333,0,0,-0.13333333,0,63.813333)"
       clip-path="url(#clipPath56)" />
    <path
       id="path57"
       d="M 711.023,179.512 V 170.34 H 534.719 v 9.172 z"
       style="fill:none;stroke:#ffffff;stroke-width:3.99994;stroke-linecap:butt;stroke-linejoin:miter;stroke-miterlimit:4;stroke-dasharray:none;stroke-opacity:1"
       transform="matrix(0.13333333,0,0,-0.13333333,0,63.813333)"
       clip-path="url(#clipPath58)" />
    <path
       id="path59"
       d="M 562.207,242.527 H 714.543 V 357.793 H 562.207 Z"
       style="fill:#036998;fill-opacity:1;fill-rule:nonzero;stroke:none"
       transform="matrix(0.13333333,0,0,-0.13333333,0,63.813333)"
       clip-path="url(#clipPath60)" />
    <path
       id="path61"
       d="M 562.207,357.793 H 714.543 V 242.527 H 562.207 Z"
       style="fill:none;stroke:#ffffff;stroke-width:3.99994;stroke-linecap:butt;stroke-linejoin:miter;stroke-miterlimit:4;stroke-dasharray:none;stroke-opacity:1"
       transform="matrix(0.13333333,0,0,-0.13333333,0,63.813333)"
       clip-path="url(#clipPath62)" />
    <path
       id="path63"
       d="m 714.543,242.527 26.082,26.09 V 383.875 L 714.543,357.793 V 242.527"
       style="fill:#036998;fill-opacity:1;fill-rule:nonzero;stroke:none"
       transform="matrix(0.13333333,0,0,-0.13333333,0,63.813333)"
       clip-path="url(#clipPath64)" />
    <path
       id="path65"
       d="m 714.543,242.527 26.082,26.09 v 115.258 l -26.082,-26.082 z"
       style="fill:none;stroke:#ffffff;stroke-width:3.99994;stroke-linecap:butt;stroke-linejoin:miter;stroke-miterlimit:4;stroke-dasharray:none;stroke-opacity:1"
       transform="matrix(0.13333333,0,0,-0.13333333,0,63.813333)"
       clip-path="url(#clipPath66)" />
    <path
       id="path67"
       d="M 711.023,179.512 H 534.719 l 20.398,27.801 h 175.93 l -20.024,-27.801"
       style="fill:#036998;fill-opacity:1;fill-rule:nonzero;stroke:none"
       transform="matrix(0.13333333,0,0,-0.13333333,0,63.813333)"
       clip-path="url(#clipPath68)" />
    <path
       id="path69"
       d="M 711.023,179.512 H 534.719 l 20.398,27.801 h 175.93 z"
       style="fill:none;stroke:#ffffff;stroke-width:3.99994;stroke-linecap:butt;stroke-linejoin:miter;stroke-miterlimit:4;stroke-dasharray:none;stroke-opacity:1"
       transform="matrix(0.13333333,0,0,-0.13333333,0,63.813333)"
       clip-path="url(#clipPath70)" />
    <path
       id="path71"
       d="m 715.449,207.402 v 28.809 l 25.918,25.746 V 233.32 l -25.918,-25.918"
       style="fill:#036998;fill-opacity:1;fill-rule:nonzero;stroke:none"
       transform="matrix(0.13333333,0,0,-0.13333333,0,63.813333)"
       clip-path="url(#clipPath72)" />
    <path
       id="path73"
       d="m 715.449,207.402 v 28.809 l 25.918,25.746 V 233.32 Z"
       style="fill:none;stroke:#ffffff;stroke-width:3.99994;stroke-linecap:butt;stroke-linejoin:miter;stroke-miterlimit:4;stroke-dasharray:none;stroke-opacity:1"
       transform="matrix(0.13333333,0,0,-0.13333333,0,63.813333)"
       clip-path="url(#clipPath74)" />
    <path
       id="path75"
       d="m 587.043,344.516 h 102.156 c 6.653,0 12.039,-5.391 12.039,-12.039 v -64.543 c 0,-6.645 -5.386,-12.036 -12.039,-12.036 H 587.043 c -6.652,0 -12.043,5.391 -12.043,12.036 v 64.543 c 0,6.648 5.391,12.039 12.043,12.039"
       style="fill:#036998;fill-opacity:1;fill-rule:nonzero;stroke:none"
       transform="matrix(0.13333333,0,0,-0.13333333,0,63.813333)"
       clip-path="url(#clipPath76)" />
    <path
       id="path77"
       d="m 587.043,344.516 h 102.156 c 6.653,0 12.039,-5.391 12.039,-12.039 v -64.543 c 0,-6.645 -5.386,-12.036 -12.039,-12.036 H 587.043 c -6.652,0 -12.043,5.391 -12.043,12.036 v 64.543 c 0,6.648 5.391,12.039 12.043,12.039 z"
       style="fill:none;stroke:#ffffff;stroke-width:3.99994;stroke-linecap:butt;stroke-linejoin:miter;stroke-miterlimit:4;stroke-dasharray:none;stroke-opacity:1"
       transform="matrix(0.13333333,0,0,-0.13333333,0,63.813333)"
       clip-path="url(#clipPath78)" />
    <path
       id="path79"
       d="M 740.625,383.875 H 591.934 l -29.727,-26.082 h 152.336 l 26.082,26.082"
       style="fill:#036998;fill-opacity:1;fill-rule:nonzero;stroke:none"
       transform="matrix(0.13333333,0,0,-0.13333333,0,63.813333)"
       clip-path="url(#clipPath80)" />
    <path
       id="path81"
       d="M 740.625,383.875 H 591.934 l -29.727,-26.082 h 152.336 z"
       style="fill:none;stroke:#ffffff;stroke-width:3.99994;stroke-linecap:butt;stroke-linejoin:miter;stroke-miterlimit:4;stroke-dasharray:none;stroke-opacity:1"
       transform="matrix(0.13333333,0,0,-0.13333333,0,63.813333)"
       clip-path="url(#clipPath82)" />
    <path
       id="path83"
       d="m 625.305,323.77 c -18.672,3.73 -28.535,-5.836 -26.977,-14.102 l 0.117,-0.453 c -14.55,-2.477 -10.73,-19.656 -3.75,-19.656 l 0.688,0.027 c -1.621,-11.848 15.879,-18.844 24.734,-12.184 l 0.613,0.668 c 2.778,-11.269 40.391,-12.144 47.993,-3.711 l 0.679,-0.199 c 16.489,-1.324 23.989,10.059 20.383,18.231 l 0.891,0.25 c 5.613,1.488 6.265,14.457 -3.379,16.379 l 0.191,0.5 c 4.184,8.433 -5.679,16.394 -19.383,14.898 l -0.949,0.492 c -9.801,8.879 -38.023,7.434 -41.289,-1.347 l -0.562,0.207"
       style="fill:#ffffff;fill-opacity:1;fill-rule:nonzero;stroke:none"
       transform="matrix(0.13333333,0,0,-0.13333333,0,63.813333)"
       clip-path="url(#clipPath84)" />
    <path
       id="path85"
       d="M 296.367,272.598 277.871,246.211 H 117.207 l 26.531,26.387 h 152.629"
       style="fill:#036998;fill-opacity:1;fill-rule:nonzero;stroke:none"
       transform="matrix(0.13333333,0,0,-0.13333333,0,63.813333)"
       clip-path="url(#clipPath86)" />
    <path
       id="path87"
       d="M 296.367,272.598 277.871,246.211 H 117.207 l 26.531,26.387 z"
       style="fill:none;stroke:#ffffff;stroke-width:3.99994;stroke-linecap:butt;stroke-linejoin:miter;stroke-miterlimit:4;stroke-dasharray:none;stroke-opacity:1"
       transform="matrix(0.13333333,0,0,-0.13333333,0,63.813333)"
       clip-path="url(#clipPath88)" />
    <path
       id="path89"
       d="m 117.207,217.48 h 153.367 v 28.7305 H 117.207 Z"
       style="fill:#036998;fill-opacity:1;fill-rule:nonzero;stroke:none"
       transform="matrix(0.13333333,0,0,-0.13333333,0,63.813333)"
       clip-path="url(#clipPath90)" />
    <path
       id="path91"
       d="m 117.207,217.48 v 28.731 H 270.574 V 217.48 Z"
       style="fill:none;stroke:#ffffff;stroke-width:3.99994;stroke-linecap:butt;stroke-linejoin:miter;stroke-miterlimit:4;stroke-dasharray:none;stroke-opacity:1"
       transform="matrix(0.13333333,0,0,-0.13333333,0,63.813333)"
       clip-path="url(#clipPath92)" />
    <path
       id="path93"
       d="m 266.023,180.34 v 9.172 l 20.024,27.801 V 200.359 L 266.023,180.34"
       style="fill:#036998;fill-opacity:1;fill-rule:nonzero;stroke:none"
       transform="matrix(0.13333333,0,0,-0.13333333,0,63.813333)"
       clip-path="url(#clipPath94)" />
    <path
       id="path95"
       d="m 266.023,180.34 v 9.172 l 20.024,27.801 v -16.954 z"
       style="fill:none;stroke:#ffffff;stroke-width:3.99994;stroke-linecap:butt;stroke-linejoin:miter;stroke-miterlimit:4;stroke-dasharray:none;stroke-opacity:1"
       transform="matrix(0.13333333,0,0,-0.13333333,0,63.813333)"
       clip-path="url(#clipPath96)" />
    <path
       id="path97"
       d="m 89.7188,180.34 h 176.305 v 9.17188 H 89.7188 Z"
       style="fill:#036998;fill-opacity:1;fill-rule:nonzero;stroke:none"
       transform="matrix(0.13333333,0,0,-0.13333333,0,63.813333)"
       clip-path="url(#clipPath98)" />
    <path
       id="path99"
       d="M 266.023,189.512 V 180.34 H 89.7188 v 9.172 z"
       style="fill:none;stroke:#ffffff;stroke-width:3.99994;stroke-linecap:butt;stroke-linejoin:miter;stroke-miterlimit:4;stroke-dasharray:none;stroke-opacity:1"
       transform="matrix(0.13333333,0,0,-0.13333333,0,63.813333)"
       clip-path="url(#clipPath100)" />
    <path
       id="path101"
       d="M 117.207,252.527 H 269.539 V 367.793 H 117.207 Z"
       style="fill:#036998;fill-opacity:1;fill-rule:nonzero;stroke:none"
       transform="matrix(0.13333333,0,0,-0.13333333,0,63.813333)"
       clip-path="url(#clipPath102)" />
    <path
       id="path103"
       d="M 117.207,367.793 H 269.539 V 252.527 H 117.207 Z"
       style="fill:none;stroke:#ffffff;stroke-width:3.99994;stroke-linecap:butt;stroke-linejoin:miter;stroke-miterlimit:4;stroke-dasharray:none;stroke-opacity:1"
       transform="matrix(0.13333333,0,0,-0.13333333,0,63.813333)"
       clip-path="url(#clipPath104)" />
    <path
       id="path105"
       d="m 269.539,252.527 26.086,26.09 V 393.875 L 269.539,367.793 V 252.527"
       style="fill:#036998;fill-opacity:1;fill-rule:nonzero;stroke:none"
       transform="matrix(0.13333333,0,0,-0.13333333,0,63.813333)"
       clip-path="url(#clipPath106)" />
    <path
       id="path107"
       d="m 269.539,252.527 26.086,26.09 v 115.258 l -26.086,-26.082 z"
       style="fill:none;stroke:#ffffff;stroke-width:3.99994;stroke-linecap:butt;stroke-linejoin:miter;stroke-miterlimit:4;stroke-dasharray:none;stroke-opacity:1"
       transform="matrix(0.13333333,0,0,-0.13333333,0,63.813333)"
       clip-path="url(#clipPath108)" />
    <path
       id="path109"
       d="M 266.023,189.512 H 89.7188 l 20.3982,27.801 h 175.93 l -20.024,-27.801"
       style="fill:#036998;fill-opacity:1;fill-rule:nonzero;stroke:none"
       transform="matrix(0.13333333,0,0,-0.13333333,0,63.813333)"
       clip-path="url(#clipPath110)" />
    <path
       id="path111"
       d="M 266.023,189.512 H 89.7188 l 20.3982,27.801 h 175.93 z"
       style="fill:none;stroke:#ffffff;stroke-width:3.99994;stroke-linecap:butt;stroke-linejoin:miter;stroke-miterlimit:4;stroke-dasharray:none;stroke-opacity:1"
       transform="matrix(0.13333333,0,0,-0.13333333,0,63.813333)"
       clip-path="url(#clipPath112)" />
    <path
       id="path113"
       d="m 270.449,217.402 v 28.809 l 25.918,25.746 V 243.32 l -25.918,-25.918"
       style="fill:#036998;fill-opacity:1;fill-rule:nonzero;stroke:none"
       transform="matrix(0.13333333,0,0,-0.13333333,0,63.813333)"
       clip-path="url(#clipPath114)" />
    <path
       id="path115"
       d="m 270.449,217.402 v 28.809 l 25.918,25.746 V 243.32 Z"
       style="fill:none;stroke:#ffffff;stroke-width:3.99994;stroke-linecap:butt;stroke-linejoin:miter;stroke-miterlimit:4;stroke-dasharray:none;stroke-opacity:1"
       transform="matrix(0.13333333,0,0,-0.13333333,0,63.813333)"
       clip-path="url(#clipPath116)" />
    <path
       id="path117"
       d="m 142.039,354.516 h 102.16 c 6.653,0 12.039,-5.391 12.039,-12.039 v -64.543 c 0,-6.645 -5.386,-12.036 -12.039,-12.036 h -102.16 c -6.648,0 -12.039,5.391 -12.039,12.036 v 64.543 c 0,6.648 5.391,12.039 12.039,12.039"
       style="fill:#036998;fill-opacity:1;fill-rule:nonzero;stroke:none"
       transform="matrix(0.13333333,0,0,-0.13333333,0,63.813333)"
       clip-path="url(#clipPath118)" />
    <path
       id="path119"
       d="m 142.039,354.516 h 102.16 c 6.653,0 12.039,-5.391 12.039,-12.039 v -64.543 c 0,-6.645 -5.386,-12.036 -12.039,-12.036 h -102.16 c -6.648,0 -12.039,5.391 -12.039,12.036 v 64.543 c 0,6.648 5.391,12.039 12.039,12.039 z"
       style="fill:none;stroke:#ffffff;stroke-width:3.99994;stroke-linecap:butt;stroke-linejoin:miter;stroke-miterlimit:4;stroke-dasharray:none;stroke-opacity:1"
       transform="matrix(0.13333333,0,0,-0.13333333,0,63.813333)"
       clip-path="url(#clipPath120)" />
    <path
       id="path121"
       d="M 295.625,393.875 H 146.934 l -29.727,-26.082 h 152.332 l 26.086,26.082"
       style="fill:#036998;fill-opacity:1;fill-rule:nonzero;stroke:none"
       transform="matrix(0.13333333,0,0,-0.13333333,0,63.813333)"
       clip-path="url(#clipPath122)" />
    <path
       id="path123"
       d="M 295.625,393.875 H 146.934 l -29.727,-26.082 h 152.332 z"
       style="fill:none;stroke:#ffffff;stroke-width:3.99994;stroke-linecap:butt;stroke-linejoin:miter;stroke-miterlimit:4;stroke-dasharray:none;stroke-opacity:1"
       transform="matrix(0.13333333,0,0,-0.13333333,0,63.813333)"
       clip-path="url(#clipPath124)" />
    <path
       id="path125"
       d="m 175.305,333.77 c -18.672,3.73 -28.535,-5.836 -26.977,-14.102 l 0.117,-0.453 c -14.55,-2.477 -10.73,-19.656 -3.75,-19.656 l 0.688,0.027 c -1.621,-11.848 15.879,-18.844 24.734,-12.184 l 0.613,0.668 c 2.778,-11.269 40.391,-12.144 47.993,-3.711 l 0.679,-0.199 c 16.489,-1.324 23.989,10.059 20.383,18.231 l 0.891,0.25 c 5.613,1.488 6.265,14.457 -3.379,16.379 l 0.191,0.5 c 4.184,8.433 -5.679,16.394 -19.383,14.898 l -0.949,0.492 c -9.801,8.879 -38.023,7.434 -41.289,-1.347 l -0.562,0.207"
       style="fill:#ffffff;fill-opacity:1;fill-rule:nonzero;stroke:none"
       transform="matrix(0.13333333,0,0,-0.13333333,0,63.813333)"
       clip-path="url(#clipPath126)" />
    <path
       id="path127"
       d="m 285.762,421.992 c -144.004,28.75 -220.0003,-45 -207.9964,-108.75 l 0.9649,-3.476 C -33.4844,290.668 -4.07422,158.242 49.7578,158.242 l 5.3008,0.164 C 41.5039,96.1914 172.637,32.8516 245.762,64.4922 l 4.699,5.1562 C 276.531,13.6719 369.16,4.32422 460.762,1.99219 540.145,-0.0390625 586.477,6.25 620.52,41.0352 l 5.242,-1.543 c 127.07,-10.2149 184.941,77.5588 157.16,140.5738 l 6.836,1.926 c 43.316,11.453 48.316,111.453 -25.996,126.25 l 1.426,3.871 c 32.261,65.055 -43.833,126.403 -149.426,114.879 l -7.317,3.817 c -75.586,68.445 -293.14,57.285 -318.34,-10.403 z"
       style="fill:none;stroke:#036998;stroke-width:3.99994;stroke-linecap:butt;stroke-linejoin:miter;stroke-miterlimit:4;stroke-dasharray:none;stroke-opacity:1"
       transform="matrix(0.13333333,0,0,-0.13333333,0,63.813333)"
       clip-path="url(#clipPath128)" />
    <path
       id="path129"
       d="m 343.137,119.609 -95,63.34"
       style="fill:none;stroke:#036998;stroke-width:3.99994;stroke-linecap:butt;stroke-linejoin:miter;stroke-miterlimit:4;stroke-dasharray:none;stroke-opacity:1"
       transform="matrix(0.13333333,0,0,-0.13333333,0,63.813333)"
       clip-path="url(#clipPath130)" />
    <path
       id="path131"
       d="m 496.453,134.609 60,40"
       style="fill:none;stroke:#036998;stroke-width:3.99994;stroke-linecap:butt;stroke-linejoin:miter;stroke-miterlimit:4;stroke-dasharray:none;stroke-opacity:1"
       transform="matrix(0.13333333,0,0,-0.13333333,0,63.813333)"
       clip-path="url(#clipPath132)" />
    <path
       id="path133"
       d="m 284.797,329.609 h 283.34"
       style="fill:none;stroke:#036998;stroke-width:3.99994;stroke-linecap:butt;stroke-linejoin:miter;stroke-miterlimit:4;stroke-dasharray:none;stroke-opacity:1"
       transform="matrix(0.13333333,0,0,-0.13333333,0,63.813333)"
       clip-path="url(#clipPath134)" />
  </g>
</svg>
