<?xml version="1.0" encoding="UTF-8" standalone="no"?>
<!-- Created with Inkscape (http://www.inkscape.org/) -->

<svg
   version="1.1"
   id="svg1"
   width="49.546665"
   height="35.639999"
   viewBox="0 0 49.546665 35.639999"
   sodipodi:docname="wireless transport.eps"
   xmlns:inkscape="http://www.inkscape.org/namespaces/inkscape"
   xmlns:sodipodi="http://sodipodi.sourceforge.net/DTD/sodipodi-0.dtd"
   xmlns="http://www.w3.org/2000/svg"
   xmlns:svg="http://www.w3.org/2000/svg">
  <defs
     id="defs1">
    <clipPath
       clipPathUnits="userSpaceOnUse"
       id="clipPath2">
      <path
         d="M 0,267 H 370 V 0 H 0 Z"
         id="path2" />
    </clipPath>
    <clipPath
       clipPathUnits="userSpaceOnUse"
       id="clipPath4">
      <path
         d="M 0,267 H 370 V 0 H 0 Z"
         id="path4" />
    </clipPath>
    <clipPath
       clipPathUnits="userSpaceOnUse"
       id="clipPath6">
      <path
         d="M 0,267 H 370 V 0 H 0 Z"
         id="path6" />
    </clipPath>
    <clipPath
       clipPathUnits="userSpaceOnUse"
       id="clipPath8">
      <path
         d="M 0,267 H 370 V 0 H 0 Z"
         id="path8" />
    </clipPath>
    <clipPath
       clipPathUnits="userSpaceOnUse"
       id="clipPath10">
      <path
         d="M 0,267 H 370 V 0 H 0 Z"
         id="path10" />
    </clipPath>
    <clipPath
       clipPathUnits="userSpaceOnUse"
       id="clipPath12">
      <path
         d="M 0,267 H 370 V 0 H 0 Z"
         id="path12" />
    </clipPath>
    <clipPath
       clipPathUnits="userSpaceOnUse"
       id="clipPath14">
      <path
         d="M 0,267 H 370 V 0 H 0 Z"
         id="path14" />
    </clipPath>
    <clipPath
       clipPathUnits="userSpaceOnUse"
       id="clipPath16">
      <path
         d="M 0,267 H 370 V 0 H 0 Z"
         id="path16" />
    </clipPath>
    <clipPath
       clipPathUnits="userSpaceOnUse"
       id="clipPath18">
      <path
         d="M 0,267 H 370 V 0 H 0 Z"
         id="path18" />
    </clipPath>
    <clipPath
       clipPathUnits="userSpaceOnUse"
       id="clipPath20">
      <path
         d="M 0,267 H 370 V 0 H 0 Z"
         id="path20" />
    </clipPath>
    <clipPath
       clipPathUnits="userSpaceOnUse"
       id="clipPath22">
      <path
         d="M 0,267 H 370 V 0 H 0 Z"
         id="path22" />
    </clipPath>
    <clipPath
       clipPathUnits="userSpaceOnUse"
       id="clipPath24">
      <path
         d="M 0,267 H 370 V 0 H 0 Z"
         id="path24" />
    </clipPath>
  </defs>
  <sodipodi:namedview
     id="namedview1"
     pagecolor="#505050"
     bordercolor="#eeeeee"
     borderopacity="1"
     inkscape:showpageshadow="0"
     inkscape:pageopacity="0"
     inkscape:pagecheckerboard="0"
     inkscape:deskcolor="#d1d1d1">
    <inkscape:page
       x="0"
       y="0"
       inkscape:label="1"
       id="page1"
       width="49.546665"
       height="35.639999"
       margin="0"
       bleed="0" />
  </sodipodi:namedview>
  <g
     id="g1"
     inkscape:groupmode="layer"
     inkscape:label="1">
    <path
       id="path1"
       d="m 4.82813,4.82422 h 336.504 v 232.242 H 4.82813 Z"
       style="fill:#036998;fill-opacity:1;fill-rule:nonzero;stroke:none"
       transform="matrix(0.13333333,0,0,-0.13333333,0,35.64)"
       clip-path="url(#clipPath2)" />
    <path
       id="path3"
       d="M 341.332,4.82422 V 237.066 H 4.82813 V 4.82422 Z"
       style="fill:none;stroke:#ffffff;stroke-width:3.99994;stroke-linecap:butt;stroke-linejoin:miter;stroke-miterlimit:4;stroke-dasharray:none;stroke-opacity:1"
       transform="matrix(0.13333333,0,0,-0.13333333,0,35.64)"
       clip-path="url(#clipPath4)" />
    <path
       id="path5"
       d="M 4.82813,237.066 30.2383,262.465 H 366.742 l -25.41,-25.399 H 4.82813"
       style="fill:#036998;fill-opacity:1;fill-rule:nonzero;stroke:none"
       transform="matrix(0.13333333,0,0,-0.13333333,0,35.64)"
       clip-path="url(#clipPath6)" />
    <path
       id="path7"
       d="M 4.82813,237.066 30.2383,262.465 H 366.742 l -25.41,-25.399 z"
       style="fill:none;stroke:#ffffff;stroke-width:3.99994;stroke-linecap:butt;stroke-linejoin:miter;stroke-miterlimit:4;stroke-dasharray:none;stroke-opacity:1"
       transform="matrix(0.13333333,0,0,-0.13333333,0,35.64)"
       clip-path="url(#clipPath8)" />
    <path
       id="path9"
       d="m 341.332,4.82422 25.41,25.39058 V 262.465 l -25.41,-25.399 V 4.82422"
       style="fill:#036998;fill-opacity:1;fill-rule:nonzero;stroke:none"
       transform="matrix(0.13333333,0,0,-0.13333333,0,35.64)"
       clip-path="url(#clipPath10)" />
    <path
       id="path11"
       d="m 341.332,4.82422 25.41,25.39058 V 262.465 l -25.41,-25.399 z"
       style="fill:none;stroke:#ffffff;stroke-width:3.99994;stroke-linecap:butt;stroke-linejoin:miter;stroke-miterlimit:4;stroke-dasharray:none;stroke-opacity:1"
       transform="matrix(0.13333333,0,0,-0.13333333,0,35.64)"
       clip-path="url(#clipPath12)" />
    <path
       id="path13"
       d="m 201.527,95.6445 c 7.383,7.5975 9.844,20.2345 9.844,32.8515 0,12.649 -2.461,25.281 -9.844,32.871 l 9.844,17.688 c 9.863,-12.641 17.246,-30.325 14.785,-50.559 0,-20.215 -4.922,-37.8905 -14.785,-50.5272 l -9.844,17.6757"
       style="fill:#ffffff;fill-opacity:1;fill-rule:nonzero;stroke:none"
       transform="matrix(0.13333333,0,0,-0.13333333,0,35.64)"
       clip-path="url(#clipPath14)" />
    <path
       id="path15"
       d="m 258.168,83.0273 c 7.383,10.0977 9.863,25.2537 9.863,42.9497 0,15.168 -2.48,32.851 -9.863,42.968 l 9.863,20.215 c 9.844,-17.695 14.766,-40.43 14.766,-63.183 0,-22.735 -4.922,-45.4887 -14.766,-63.184 l -9.863,20.2343"
       style="fill:#ffffff;fill-opacity:1;fill-rule:nonzero;stroke:none"
       transform="matrix(0.13333333,0,0,-0.13333333,0,35.64)"
       clip-path="url(#clipPath16)" />
    <path
       id="path17"
       d="m 142.426,95.6445 c -4.922,7.5975 -9.844,20.2345 -9.844,32.8515 0,12.649 4.922,25.281 9.844,32.871 l -9.844,17.688 c -9.863,-12.641 -14.785,-30.325 -14.785,-50.559 0,-20.215 4.922,-37.8905 14.785,-50.5272 l 9.844,17.6757"
       style="fill:#ffffff;fill-opacity:1;fill-rule:nonzero;stroke:none"
       transform="matrix(0.13333333,0,0,-0.13333333,0,35.64)"
       clip-path="url(#clipPath18)" />
    <path
       id="path19"
       d="m 93.168,83.0273 c -4.9219,10.0977 -9.8438,25.2537 -9.8438,42.9497 0,15.168 4.9219,32.851 9.8438,42.968 l -9.8438,20.215 c -9.8633,-17.695 -14.7851,-40.43 -14.7851,-63.183 0,-22.735 4.9218,-45.4887 14.7851,-63.184 l 9.8438,20.2343"
       style="fill:#ffffff;fill-opacity:1;fill-rule:nonzero;stroke:none"
       transform="matrix(0.13333333,0,0,-0.13333333,0,35.64)"
       clip-path="url(#clipPath20)" />
    <path
       id="path21"
       d="M 170.961,120.918 V 45.1172"
       style="fill:none;stroke:#ffffff;stroke-width:5;stroke-linecap:butt;stroke-linejoin:miter;stroke-miterlimit:1;stroke-dasharray:none;stroke-opacity:1"
       transform="matrix(0.13333333,0,0,-0.13333333,0,35.64)"
       clip-path="url(#clipPath22)" />
    <path
       id="path23"
       d="m 176.625,128.633 c 0,-3.438 -2.773,-6.231 -6.211,-6.231 -3.437,0 -6.23,2.793 -6.23,6.231 0,3.437 2.793,6.222 6.23,6.222 3.438,0 6.211,-2.785 6.211,-6.222"
       style="fill:#ffffff;fill-opacity:1;fill-rule:nonzero;stroke:none"
       transform="matrix(0.13333333,0,0,-0.13333333,0,35.64)"
       clip-path="url(#clipPath24)" />
  </g>
</svg>
