<?xml version="1.0" encoding="UTF-8" standalone="no"?>
<!-- Created with Inkscape (http://www.inkscape.org/) -->

<svg
   version="1.1"
   id="svg1"
   width="24.333332"
   height="43.759998"
   viewBox="0 0 24.333332 43.759998"
   sodipodi:docname="wireless.eps"
   xmlns:inkscape="http://www.inkscape.org/namespaces/inkscape"
   xmlns:sodipodi="http://sodipodi.sourceforge.net/DTD/sodipodi-0.dtd"
   xmlns="http://www.w3.org/2000/svg"
   xmlns:svg="http://www.w3.org/2000/svg">
  <defs
     id="defs1">
    <clipPath
       clipPathUnits="userSpaceOnUse"
       id="clipPath2">
      <path
         d="M 0,328 H 180 V 0 H 0 Z"
         id="path2" />
    </clipPath>
    <clipPath
       clipPathUnits="userSpaceOnUse"
       id="clipPath4">
      <path
         d="M 0,328 H 180 V 0 H 0 Z"
         id="path4" />
    </clipPath>
    <clipPath
       clipPathUnits="userSpaceOnUse"
       id="clipPath6">
      <path
         d="M 0,328 H 180 V 0 H 0 Z"
         id="path6" />
    </clipPath>
    <clipPath
       clipPathUnits="userSpaceOnUse"
       id="clipPath8">
      <path
         d="M 0,328 H 180 V 0 H 0 Z"
         id="path8" />
    </clipPath>
    <clipPath
       clipPathUnits="userSpaceOnUse"
       id="clipPath10">
      <path
         d="M 0,328 H 180 V 0 H 0 Z"
         id="path10" />
    </clipPath>
    <clipPath
       clipPathUnits="userSpaceOnUse"
       id="clipPath12">
      <path
         d="M 0,328 H 180 V 0 H 0 Z"
         id="path12" />
    </clipPath>
    <clipPath
       clipPathUnits="userSpaceOnUse"
       id="clipPath14">
      <path
         d="M 0,328 H 180 V 0 H 0 Z"
         id="path14" />
    </clipPath>
    <clipPath
       clipPathUnits="userSpaceOnUse"
       id="clipPath16">
      <path
         d="M 0,328 H 180 V 0 H 0 Z"
         id="path16" />
    </clipPath>
    <clipPath
       clipPathUnits="userSpaceOnUse"
       id="clipPath18">
      <path
         d="M 0,328 H 180 V 0 H 0 Z"
         id="path18" />
    </clipPath>
    <clipPath
       clipPathUnits="userSpaceOnUse"
       id="clipPath20">
      <path
         d="M 0,328 H 180 V 0 H 0 Z"
         id="path20" />
    </clipPath>
    <clipPath
       clipPathUnits="userSpaceOnUse"
       id="clipPath22">
      <path
         d="M 0,328 H 180 V 0 H 0 Z"
         id="path22" />
    </clipPath>
    <clipPath
       clipPathUnits="userSpaceOnUse"
       id="clipPath24">
      <path
         d="M 0,328 H 180 V 0 H 0 Z"
         id="path24" />
    </clipPath>
    <clipPath
       clipPathUnits="userSpaceOnUse"
       id="clipPath26">
      <path
         d="M 0,328 H 180 V 0 H 0 Z"
         id="path26" />
    </clipPath>
    <clipPath
       clipPathUnits="userSpaceOnUse"
       id="clipPath28">
      <path
         d="M 0,328 H 180 V 0 H 0 Z"
         id="path28" />
    </clipPath>
    <clipPath
       clipPathUnits="userSpaceOnUse"
       id="clipPath30">
      <path
         d="M 0,328 H 180 V 0 H 0 Z"
         id="path30" />
    </clipPath>
    <clipPath
       clipPathUnits="userSpaceOnUse"
       id="clipPath32">
      <path
         d="M 0,328 H 180 V 0 H 0 Z"
         id="path32" />
    </clipPath>
  </defs>
  <sodipodi:namedview
     id="namedview1"
     pagecolor="#505050"
     bordercolor="#eeeeee"
     borderopacity="1"
     inkscape:showpageshadow="0"
     inkscape:pageopacity="0"
     inkscape:pagecheckerboard="0"
     inkscape:deskcolor="#d1d1d1">
    <inkscape:page
       x="0"
       y="0"
       inkscape:label="1"
       id="page1"
       width="24.333332"
       height="43.759998"
       margin="0"
       bleed="0" />
  </sodipodi:namedview>
  <g
     id="g1"
     inkscape:groupmode="layer"
     inkscape:label="1">
    <path
       id="path1"
       d="M 18.4805,322.914 H 178.109 L 164.047,306.898 H 4.41797 l 14.06253,16.016"
       style="fill:#036998;fill-opacity:1;fill-rule:nonzero;stroke:none"
       transform="matrix(0.13333333,0,0,-0.13333333,0,43.76)"
       clip-path="url(#clipPath2)" />
    <path
       id="path3"
       d="M 18.4805,322.914 H 178.109 L 164.047,306.898 H 4.41797 Z"
       style="fill:none;stroke:#ffffff;stroke-width:3.99994;stroke-linecap:butt;stroke-linejoin:miter;stroke-miterlimit:4;stroke-dasharray:none;stroke-opacity:1"
       transform="matrix(0.13333333,0,0,-0.13333333,0,43.76)"
       clip-path="url(#clipPath4)" />
    <path
       id="path5"
       d="m 4.69141,5.33203 h 159.063 v 301.215 H 4.69141 Z"
       style="fill:#036998;fill-opacity:1;fill-rule:nonzero;stroke:none"
       transform="matrix(0.13333333,0,0,-0.13333333,0,43.76)"
       clip-path="url(#clipPath6)" />
    <path
       id="path7"
       d="M 4.69141,306.547 H 163.754 V 5.33203 H 4.69141 Z"
       style="fill:none;stroke:#ffffff;stroke-width:3.99994;stroke-linecap:butt;stroke-linejoin:miter;stroke-miterlimit:4;stroke-dasharray:none;stroke-opacity:1"
       transform="matrix(0.13333333,0,0,-0.13333333,0,43.76)"
       clip-path="url(#clipPath8)" />
    <path
       id="path9"
       d="m 128.871,23.6719 c 15.957,0 18.32,16.5625 18.32,16.5625 0,0 0,173.1486 0,188.5196 0,20.098 -18.925,19.512 -18.925,19.512 0,0 -78.0472,0 -89.2777,0 -11.2305,0 -15.957,-15.371 -15.957,-15.371 0,0 0,-176.1177 0,-190.2973 0,-14.1993 14.7656,-18.9258 14.7656,-18.9258 h 91.0741"
       style="fill:#036998;fill-opacity:1;fill-rule:nonzero;stroke:none"
       transform="matrix(0.13333333,0,0,-0.13333333,0,43.76)"
       clip-path="url(#clipPath10)" />
    <path
       id="path11"
       d="m 128.871,23.6719 c 15.957,0 18.32,16.5625 18.32,16.5625 0,0 0,173.1486 0,188.5196 0,20.098 -18.925,19.512 -18.925,19.512 0,0 -78.0472,0 -89.2777,0 -11.2305,0 -15.957,-15.371 -15.957,-15.371 0,0 0,-176.1177 0,-190.2973 0,-14.1993 14.7656,-18.9258 14.7656,-18.9258 z"
       style="fill:none;stroke:#ffffff;stroke-width:3.99994;stroke-linecap:butt;stroke-linejoin:miter;stroke-miterlimit:4;stroke-dasharray:none;stroke-opacity:1"
       transform="matrix(0.13333333,0,0,-0.13333333,0,43.76)"
       clip-path="url(#clipPath12)" />
    <path
       id="path13"
       d="M 178.051,322.914 V 21.6992 L 163.754,5.33203 V 306.547 l 14.297,16.367"
       style="fill:#036998;fill-opacity:1;fill-rule:nonzero;stroke:none"
       transform="matrix(0.13333333,0,0,-0.13333333,0,43.76)"
       clip-path="url(#clipPath14)" />
    <path
       id="path15"
       d="M 178.051,322.914 V 21.6992 L 163.754,5.33203 V 306.547 Z"
       style="fill:none;stroke:#ffffff;stroke-width:3.99994;stroke-linecap:butt;stroke-linejoin:miter;stroke-miterlimit:4;stroke-dasharray:none;stroke-opacity:1"
       transform="matrix(0.13333333,0,0,-0.13333333,0,43.76)"
       clip-path="url(#clipPath16)" />
    <path
       id="path17"
       d="m 130.98,285.258 c -2.539,0 -4.589,-3.731 -4.589,-8.34 0,-4.59 2.05,-8.32 4.589,-8.32 2.52,0 4.571,3.73 4.571,8.32 0,4.609 -2.051,8.34 -4.571,8.34"
       style="fill:#036998;fill-opacity:1;fill-rule:nonzero;stroke:none"
       transform="matrix(0.13333333,0,0,-0.13333333,0,43.76)"
       clip-path="url(#clipPath18)" />
    <path
       id="path19"
       d="m 130.98,285.258 c -2.539,0 -4.589,-3.731 -4.589,-8.34 0,-4.59 2.05,-8.32 4.589,-8.32 2.52,0 4.571,3.73 4.571,8.32 0,4.609 -2.051,8.34 -4.571,8.34 z"
       style="fill:none;stroke:#ffffff;stroke-width:3.99994;stroke-linecap:butt;stroke-linejoin:miter;stroke-miterlimit:4;stroke-dasharray:none;stroke-opacity:1"
       transform="matrix(0.13333333,0,0,-0.13333333,0,43.76)"
       clip-path="url(#clipPath20)" />
    <path
       id="path21"
       d="m 97.6406,285.258 c -2.539,0 -4.5898,-3.731 -4.5898,-8.34 0,-4.59 2.0508,-8.32 4.5898,-8.32 2.5394,0 4.5894,3.73 4.5894,8.32 0,4.609 -2.05,8.34 -4.5894,8.34"
       style="fill:#036998;fill-opacity:1;fill-rule:nonzero;stroke:none"
       transform="matrix(0.13333333,0,0,-0.13333333,0,43.76)"
       clip-path="url(#clipPath22)" />
    <path
       id="path23"
       d="m 97.6406,285.258 c -2.539,0 -4.5898,-3.731 -4.5898,-8.34 0,-4.59 2.0508,-8.32 4.5898,-8.32 2.5394,0 4.5894,3.73 4.5894,8.32 0,4.609 -2.05,8.34 -4.5894,8.34 z"
       style="fill:none;stroke:#ffffff;stroke-width:3.99994;stroke-linecap:butt;stroke-linejoin:miter;stroke-miterlimit:4;stroke-dasharray:none;stroke-opacity:1"
       transform="matrix(0.13333333,0,0,-0.13333333,0,43.76)"
       clip-path="url(#clipPath24)" />
    <path
       id="path25"
       d="m 64.3203,285.258 c -2.539,0 -4.5898,-3.731 -4.5898,-8.34 0,-4.59 2.0508,-8.32 4.5898,-8.32 2.5195,0 4.5703,3.73 4.5703,8.32 0,4.609 -2.0508,8.34 -4.5703,8.34"
       style="fill:#036998;fill-opacity:1;fill-rule:nonzero;stroke:none"
       transform="matrix(0.13333333,0,0,-0.13333333,0,43.76)"
       clip-path="url(#clipPath26)" />
    <path
       id="path27"
       d="m 64.3203,285.258 c -2.539,0 -4.5898,-3.731 -4.5898,-8.34 0,-4.59 2.0508,-8.32 4.5898,-8.32 2.5195,0 4.5703,3.73 4.5703,8.32 0,4.609 -2.0508,8.34 -4.5703,8.34 z"
       style="fill:none;stroke:#ffffff;stroke-width:3.99994;stroke-linecap:butt;stroke-linejoin:miter;stroke-miterlimit:4;stroke-dasharray:none;stroke-opacity:1"
       transform="matrix(0.13333333,0,0,-0.13333333,0,43.76)"
       clip-path="url(#clipPath28)" />
    <path
       id="path29"
       d="m 30.9805,285.258 c -2.5391,0 -4.5899,-3.731 -4.5899,-8.34 0,-4.59 2.0508,-8.32 4.5899,-8.32 2.539,0 4.5898,3.73 4.5898,8.32 0,4.609 -2.0508,8.34 -4.5898,8.34"
       style="fill:#036998;fill-opacity:1;fill-rule:nonzero;stroke:none"
       transform="matrix(0.13333333,0,0,-0.13333333,0,43.76)"
       clip-path="url(#clipPath30)" />
    <path
       id="path31"
       d="m 30.9805,285.258 c -2.5391,0 -4.5899,-3.731 -4.5899,-8.34 0,-4.59 2.0508,-8.32 4.5899,-8.32 2.539,0 4.5898,3.73 4.5898,8.32 0,4.609 -2.0508,8.34 -4.5898,8.34 z"
       style="fill:none;stroke:#ffffff;stroke-width:3.99994;stroke-linecap:butt;stroke-linejoin:miter;stroke-miterlimit:4;stroke-dasharray:none;stroke-opacity:1"
       transform="matrix(0.13333333,0,0,-0.13333333,0,43.76)"
       clip-path="url(#clipPath32)" />
  </g>
</svg>
