<?xml version="1.0" encoding="UTF-8" standalone="no"?>
<!-- Created with Inkscape (http://www.inkscape.org/) -->

<svg
   version="1.1"
   id="svg1"
   width="38.866669"
   height="35.373333"
   viewBox="0 0 38.866669 35.373333"
   sodipodi:docname="network management.eps"
   xmlns:inkscape="http://www.inkscape.org/namespaces/inkscape"
   xmlns:sodipodi="http://sodipodi.sourceforge.net/DTD/sodipodi-0.dtd"
   xmlns="http://www.w3.org/2000/svg"
   xmlns:svg="http://www.w3.org/2000/svg">
  <defs
     id="defs1">
    <clipPath
       clipPathUnits="userSpaceOnUse"
       id="clipPath2">
      <path
         d="M 0,265 H 290 V 0 H 0 Z"
         id="path2" />
    </clipPath>
    <clipPath
       clipPathUnits="userSpaceOnUse"
       id="clipPath4">
      <path
         d="M 0,265 H 290 V 0 H 0 Z"
         id="path4" />
    </clipPath>
    <clipPath
       clipPathUnits="userSpaceOnUse"
       id="clipPath6">
      <path
         d="M 0,265 H 290 V 0 H 0 Z"
         id="path6" />
    </clipPath>
    <clipPath
       clipPathUnits="userSpaceOnUse"
       id="clipPath8">
      <path
         d="M 0,265 H 290 V 0 H 0 Z"
         id="path8" />
    </clipPath>
    <clipPath
       clipPathUnits="userSpaceOnUse"
       id="clipPath10">
      <path
         d="M 0,265 H 290 V 0 H 0 Z"
         id="path10" />
    </clipPath>
    <clipPath
       clipPathUnits="userSpaceOnUse"
       id="clipPath12">
      <path
         d="M 0,265 H 290 V 0 H 0 Z"
         id="path12" />
    </clipPath>
    <clipPath
       clipPathUnits="userSpaceOnUse"
       id="clipPath14">
      <path
         d="M 0,265 H 290 V 0 H 0 Z"
         id="path14" />
    </clipPath>
    <clipPath
       clipPathUnits="userSpaceOnUse"
       id="clipPath16">
      <path
         d="M 0,265 H 290 V 0 H 0 Z"
         id="path16" />
    </clipPath>
    <clipPath
       clipPathUnits="userSpaceOnUse"
       id="clipPath18">
      <path
         d="M 0,265 H 290 V 0 H 0 Z"
         id="path18" />
    </clipPath>
    <clipPath
       clipPathUnits="userSpaceOnUse"
       id="clipPath20">
      <path
         d="M 0,265 H 290 V 0 H 0 Z"
         id="path20" />
    </clipPath>
    <clipPath
       clipPathUnits="userSpaceOnUse"
       id="clipPath22">
      <path
         d="M 0,265 H 290 V 0 H 0 Z"
         id="path22" />
    </clipPath>
    <clipPath
       clipPathUnits="userSpaceOnUse"
       id="clipPath24">
      <path
         d="M 0,265 H 290 V 0 H 0 Z"
         id="path24" />
    </clipPath>
    <clipPath
       clipPathUnits="userSpaceOnUse"
       id="clipPath26">
      <path
         d="M 0,265 H 290 V 0 H 0 Z"
         id="path26" />
    </clipPath>
    <clipPath
       clipPathUnits="userSpaceOnUse"
       id="clipPath28">
      <path
         d="M 0,265 H 290 V 0 H 0 Z"
         id="path28" />
    </clipPath>
  </defs>
  <sodipodi:namedview
     id="namedview1"
     pagecolor="#505050"
     bordercolor="#eeeeee"
     borderopacity="1"
     inkscape:showpageshadow="0"
     inkscape:pageopacity="0"
     inkscape:pagecheckerboard="0"
     inkscape:deskcolor="#d1d1d1">
    <inkscape:page
       x="0"
       y="0"
       inkscape:label="1"
       id="page1"
       width="38.866669"
       height="35.373333"
       margin="0"
       bleed="0" />
  </sodipodi:namedview>
  <g
     id="g1"
     inkscape:groupmode="layer"
     inkscape:label="1">
    <path
       id="path1"
       d="m 7.13281,4.23828 h 221.348 v 209.523 H 7.13281 Z"
       style="fill:#026c9b;fill-opacity:1;fill-rule:nonzero;stroke:none"
       transform="matrix(0.13333333,0,0,-0.13333333,0,35.373333)"
       clip-path="url(#clipPath2)" />
    <path
       id="path3"
       d="M 228.48,4.23828 V 213.762 H 7.13281 V 4.23828 Z"
       style="fill:none;stroke:#ffffff;stroke-width:4;stroke-linecap:butt;stroke-linejoin:miter;stroke-miterlimit:4;stroke-dasharray:none;stroke-opacity:1"
       transform="matrix(0.13333333,0,0,-0.13333333,0,35.373333)"
       clip-path="url(#clipPath4)" />
    <path
       id="path5"
       d="m 228.48,213.762 57.442,47.304 H 84.8672 L 7.13281,213.762 H 228.48"
       style="fill:#026c9b;fill-opacity:1;fill-rule:nonzero;stroke:none"
       transform="matrix(0.13333333,0,0,-0.13333333,0,35.373333)"
       clip-path="url(#clipPath6)" />
    <path
       id="path7"
       d="m 228.48,213.762 57.442,47.304 H 84.8672 L 7.13281,213.762 Z"
       style="fill:none;stroke:#ffffff;stroke-width:4;stroke-linecap:butt;stroke-linejoin:miter;stroke-miterlimit:4;stroke-dasharray:none;stroke-opacity:1"
       transform="matrix(0.13333333,0,0,-0.13333333,0,35.373333)"
       clip-path="url(#clipPath8)" />
    <path
       id="path9"
       d="M 285.922,51.5547 V 261.066 L 228.48,213.762 V 4.23828 l 57.442,47.31642"
       style="fill:#026c9b;fill-opacity:1;fill-rule:nonzero;stroke:none"
       transform="matrix(0.13333333,0,0,-0.13333333,0,35.373333)"
       clip-path="url(#clipPath10)" />
    <path
       id="path11"
       d="M 285.922,51.5547 V 261.066 L 228.48,213.762 V 4.23828 Z"
       style="fill:none;stroke:#ffffff;stroke-width:4;stroke-linecap:butt;stroke-linejoin:miter;stroke-miterlimit:4;stroke-dasharray:none;stroke-opacity:1"
       transform="matrix(0.13333333,0,0,-0.13333333,0,35.373333)"
       clip-path="url(#clipPath12)" />
    <path
       id="path13"
       d="m 30.1016,14.6875 c 5.2734,0 9.5507,4.2773 9.5507,9.5508 0,5.2656 -4.2773,9.5312 -9.5507,9.5312 -5.2735,0 -9.5508,-4.2656 -9.5508,-9.5312 0,-5.2735 4.2773,-9.5508 9.5508,-9.5508"
       style="fill:#ffffff;fill-opacity:1;fill-rule:nonzero;stroke:none"
       transform="matrix(0.13333333,0,0,-0.13333333,0,35.373333)"
       clip-path="url(#clipPath14)" />
    <path
       id="path15"
       d="m 30.1016,14.6875 c 5.2734,0 9.5507,4.2773 9.5507,9.5508 0,5.2656 -4.2773,9.5312 -9.5507,9.5312 -5.2735,0 -9.5508,-4.2656 -9.5508,-9.5312 0,-5.2735 4.2773,-9.5508 9.5508,-9.5508 z"
       style="fill:none;stroke:#000000;stroke-width:2;stroke-linecap:butt;stroke-linejoin:miter;stroke-miterlimit:4;stroke-dasharray:none;stroke-opacity:1"
       transform="matrix(0.13333333,0,0,-0.13333333,0,35.373333)"
       clip-path="url(#clipPath16)" />
    <path
       id="path17"
       d="M 21.918,34.4141 40.5703,16.1914 93.2852,70.1367 74.6328,88.3594 21.918,34.4141"
       style="fill:#ffffff;fill-opacity:1;fill-rule:nonzero;stroke:#000000;stroke-width:2;stroke-linecap:butt;stroke-linejoin:miter;stroke-miterlimit:4;stroke-dasharray:none;stroke-opacity:1"
       transform="matrix(0.13333333,0,0,-0.13333333,0,35.373333)"
       clip-path="url(#clipPath18)" />
    <path
       id="path19"
       d="m 67.1719,128.086 c 0,-39.4337 32.0898,-71.5118 71.5231,-71.5118 39.434,0 71.524,32.0781 71.524,71.5118 0,39.434 -32.09,71.523 -71.524,71.523 -39.4333,0 -71.5231,-32.089 -71.5231,-71.523 m 10,0 c 0,33.926 27.5981,61.523 61.5231,61.523 33.926,0 61.524,-27.597 61.524,-61.523 0,-33.9141 -27.598,-61.5118 -61.524,-61.5118 -33.925,0 -61.5231,27.5977 -61.5231,61.5118"
       style="fill:#ffffff;fill-opacity:1;fill-rule:nonzero;stroke:none"
       transform="matrix(0.13333333,0,0,-0.13333333,0,35.373333)"
       clip-path="url(#clipPath20)" />
    <path
       id="path21"
       d="m 67.1719,128.086 c 0,-39.4337 32.0898,-71.5118 71.5231,-71.5118 39.434,0 71.524,32.0781 71.524,71.5118 0,39.434 -32.09,71.523 -71.524,71.523 -39.4333,0 -71.5231,-32.089 -71.5231,-71.523 m 10,0 c 0,33.926 27.5981,61.523 61.5231,61.523 33.926,0 61.524,-27.597 61.524,-61.523 0,-33.9141 -27.598,-61.5118 -61.524,-61.5118 -33.925,0 -61.5231,27.5977 -61.5231,61.5118 z"
       style="fill:none;stroke:#000000;stroke-width:2;stroke-linecap:butt;stroke-linejoin:miter;stroke-miterlimit:4;stroke-dasharray:none;stroke-opacity:1"
       transform="matrix(0.13333333,0,0,-0.13333333,0,35.373333)"
       clip-path="url(#clipPath22)" />
    <path
       id="path23"
       d="m 58.793,123.965 c 0,-39.4337 32.0898,-71.5236 71.523,-71.5236 39.434,0 71.504,32.0899 71.504,71.5236 0,39.433 -32.07,71.523 -71.504,71.523 -39.4332,0 -71.523,-32.09 -71.523,-71.523 m 10,0 c 0,33.926 27.5976,61.523 61.523,61.523 33.907,0 61.504,-27.597 61.504,-61.523 0,-33.9259 -27.597,-61.5236 -61.504,-61.5236 -33.9254,0 -61.523,27.5977 -61.523,61.5236"
       style="fill:#ffffff;fill-opacity:1;fill-rule:nonzero;stroke:none"
       transform="matrix(0.13333333,0,0,-0.13333333,0,35.373333)"
       clip-path="url(#clipPath24)" />
    <path
       id="path25"
       d="m 58.793,123.965 c 0,-39.4337 32.0898,-71.5236 71.523,-71.5236 39.434,0 71.504,32.0899 71.504,71.5236 0,39.433 -32.07,71.523 -71.504,71.523 -39.4332,0 -71.523,-32.09 -71.523,-71.523 m 10,0 c 0,33.926 27.5976,61.523 61.523,61.523 33.907,0 61.504,-27.597 61.504,-61.523 0,-33.9259 -27.597,-61.5236 -61.504,-61.5236 -33.9254,0 -61.523,27.5977 -61.523,61.5236 z"
       style="fill:none;stroke:#000000;stroke-width:2;stroke-linecap:butt;stroke-linejoin:miter;stroke-miterlimit:4;stroke-dasharray:none;stroke-opacity:1"
       transform="matrix(0.13333333,0,0,-0.13333333,0,35.373333)"
       clip-path="url(#clipPath26)" />
    <path
       id="path27"
       d="M 159.77,98.9453 V 152.5 H 106.234 V 98.9453 Z"
       style="fill:none;stroke:#ffffff;stroke-width:13.113;stroke-linecap:butt;stroke-linejoin:miter;stroke-miterlimit:4;stroke-dasharray:none;stroke-opacity:1"
       transform="matrix(0.13333333,0,0,-0.13333333,0,35.373333)"
       clip-path="url(#clipPath28)" />
  </g>
</svg>
