<?xml version="1.0" encoding="UTF-8" standalone="no"?>
<!-- Created with Inkscape (http://www.inkscape.org/) -->

<svg
   version="1.1"
   id="svg1"
   width="12.626667"
   height="10.466667"
   viewBox="0 0 12.626667 10.466667"
   sodipodi:docname="bbfw media.eps"
   xmlns:inkscape="http://www.inkscape.org/namespaces/inkscape"
   xmlns:sodipodi="http://sodipodi.sourceforge.net/DTD/sodipodi-0.dtd"
   xmlns="http://www.w3.org/2000/svg"
   xmlns:svg="http://www.w3.org/2000/svg">
  <defs
     id="defs1">
    <clipPath
       clipPathUnits="userSpaceOnUse"
       id="clipPath2">
      <path
         d="M 0,78 H 90 V 0 H 0 Z"
         id="path2" />
    </clipPath>
    <clipPath
       clipPathUnits="userSpaceOnUse"
       id="clipPath4">
      <path
         d="M 0,78 H 90 V 0 H 0 Z"
         id="path4" />
    </clipPath>
    <clipPath
       clipPathUnits="userSpaceOnUse"
       id="clipPath6">
      <path
         d="M 0,78 H 90 V 0 H 0 Z"
         id="path6" />
    </clipPath>
    <clipPath
       clipPathUnits="userSpaceOnUse"
       id="clipPath8">
      <path
         d="M 0,78 H 90 V 0 H 0 Z"
         id="path8" />
    </clipPath>
    <clipPath
       clipPathUnits="userSpaceOnUse"
       id="clipPath10">
      <path
         d="M 0,78 H 90 V 0 H 0 Z"
         id="path10" />
    </clipPath>
    <clipPath
       clipPathUnits="userSpaceOnUse"
       id="clipPath12">
      <path
         d="M 0,78 H 90 V 0 H 0 Z"
         id="path12" />
    </clipPath>
    <clipPath
       clipPathUnits="userSpaceOnUse"
       id="clipPath14">
      <path
         d="M 0,78 H 90 V 0 H 0 Z"
         id="path14" />
    </clipPath>
    <clipPath
       clipPathUnits="userSpaceOnUse"
       id="clipPath16">
      <path
         d="M 0,78 H 90 V 0 H 0 Z"
         id="path16" />
    </clipPath>
    <clipPath
       clipPathUnits="userSpaceOnUse"
       id="clipPath18">
      <path
         d="M 0,78 H 90 V 0 H 0 Z"
         id="path18" />
    </clipPath>
    <clipPath
       clipPathUnits="userSpaceOnUse"
       id="clipPath20">
      <path
         d="M 0,78 H 90 V 0 H 0 Z"
         id="path20" />
    </clipPath>
    <clipPath
       clipPathUnits="userSpaceOnUse"
       id="clipPath22">
      <path
         d="M 0,78 H 90 V 0 H 0 Z"
         id="path22" />
    </clipPath>
    <clipPath
       clipPathUnits="userSpaceOnUse"
       id="clipPath24">
      <path
         d="M 0,78 H 90 V 0 H 0 Z"
         id="path24" />
    </clipPath>
  </defs>
  <sodipodi:namedview
     id="namedview1"
     pagecolor="#505050"
     bordercolor="#eeeeee"
     borderopacity="1"
     inkscape:showpageshadow="0"
     inkscape:pageopacity="0"
     inkscape:pagecheckerboard="0"
     inkscape:deskcolor="#d1d1d1">
    <inkscape:page
       x="0"
       y="0"
       inkscape:label="1"
       id="page1"
       width="12.626667"
       height="10.466667"
       margin="0"
       bleed="0" />
  </sodipodi:namedview>
  <g
     id="g1"
     inkscape:groupmode="layer"
     inkscape:label="1">
    <path
       id="path1"
       d="M 18.4375,2.5 C 8.83594,10.1836 2.5,23.5039 2.5,38.6523 2.5,54.5898 9.51172,68.5039 19.9609,75.957"
       style="fill:none;stroke:#02709f;stroke-width:5;stroke-linecap:round;stroke-linejoin:round;stroke-miterlimit:1;stroke-dasharray:none;stroke-opacity:1"
       transform="matrix(0.13333333,0,0,-0.13333333,0,10.466667)"
       clip-path="url(#clipPath2)" />
    <path
       id="path3"
       d="m 32.8828,2.5 c -9.6015,7.6836 -15.9297,21.0039 -15.9297,36.1523 0,15.9375 7.0117,29.8516 17.4532,37.3047"
       style="fill:none;stroke:#02709f;stroke-width:5;stroke-linecap:round;stroke-linejoin:round;stroke-miterlimit:1;stroke-dasharray:none;stroke-opacity:1"
       transform="matrix(0.13333333,0,0,-0.13333333,0,10.466667)"
       clip-path="url(#clipPath4)" />
    <path
       id="path5"
       d="m 47.3359,2.5 c -9.6015,7.6836 -15.9375,21.0039 -15.9375,36.1523 0,15.9375 7.0196,29.8516 17.4571,37.3047"
       style="fill:none;stroke:#02709f;stroke-width:5;stroke-linecap:round;stroke-linejoin:round;stroke-miterlimit:1;stroke-dasharray:none;stroke-opacity:1"
       transform="matrix(0.13333333,0,0,-0.13333333,0,10.466667)"
       clip-path="url(#clipPath6)" />
    <path
       id="path7"
       d="m 61.7773,2.5 c -9.5898,7.6836 -15.9296,21.0039 -15.9296,36.1523 0,15.9375 7.0117,29.8516 17.4609,37.3047"
       style="fill:none;stroke:#02709f;stroke-width:5;stroke-linecap:round;stroke-linejoin:round;stroke-miterlimit:1;stroke-dasharray:none;stroke-opacity:1"
       transform="matrix(0.13333333,0,0,-0.13333333,0,10.466667)"
       clip-path="url(#clipPath8)" />
    <path
       id="path9"
       d="m 76.2305,2.5 c -9.5899,7.6836 -15.9297,21.0039 -15.9297,36.1523 0,15.9375 7.0156,29.8516 17.4531,37.3047"
       style="fill:none;stroke:#02709f;stroke-width:5;stroke-linecap:round;stroke-linejoin:round;stroke-miterlimit:1;stroke-dasharray:none;stroke-opacity:1"
       transform="matrix(0.13333333,0,0,-0.13333333,0,10.466667)"
       clip-path="url(#clipPath10)" />
    <path
       id="path11"
       d="m 90.6797,2.5 c -9.5899,7.6836 -15.9336,21.0039 -15.9336,36.1523 0,15.9375 7.0273,29.8516 17.457,37.3047"
       style="fill:none;stroke:#02709f;stroke-width:5;stroke-linecap:round;stroke-linejoin:round;stroke-miterlimit:1;stroke-dasharray:none;stroke-opacity:1"
       transform="matrix(0.13333333,0,0,-0.13333333,0,10.466667)"
       clip-path="url(#clipPath12)" />
    <path
       id="path13"
       d="M 18.4375,2.5 C 8.83594,10.1836 2.5,23.5039 2.5,38.6523 2.5,54.5898 9.51172,68.5039 19.9609,75.957"
       style="fill:none;stroke:#02709f;stroke-width:5;stroke-linecap:round;stroke-linejoin:round;stroke-miterlimit:1;stroke-dasharray:none;stroke-opacity:1"
       transform="matrix(0.13333333,0,0,-0.13333333,0,10.466667)"
       clip-path="url(#clipPath14)" />
    <path
       id="path15"
       d="m 32.8828,2.5 c -9.6015,7.6836 -15.9297,21.0039 -15.9297,36.1523 0,15.9375 7.0117,29.8516 17.4532,37.3047"
       style="fill:none;stroke:#02709f;stroke-width:5;stroke-linecap:round;stroke-linejoin:round;stroke-miterlimit:1;stroke-dasharray:none;stroke-opacity:1"
       transform="matrix(0.13333333,0,0,-0.13333333,0,10.466667)"
       clip-path="url(#clipPath16)" />
    <path
       id="path17"
       d="m 47.3359,2.5 c -9.6015,7.6836 -15.9375,21.0039 -15.9375,36.1523 0,15.9375 7.0196,29.8516 17.4571,37.3047"
       style="fill:none;stroke:#02709f;stroke-width:5;stroke-linecap:round;stroke-linejoin:round;stroke-miterlimit:1;stroke-dasharray:none;stroke-opacity:1"
       transform="matrix(0.13333333,0,0,-0.13333333,0,10.466667)"
       clip-path="url(#clipPath18)" />
    <path
       id="path19"
       d="m 61.7773,2.5 c -9.5898,7.6836 -15.9296,21.0039 -15.9296,36.1523 0,15.9375 7.0117,29.8516 17.4609,37.3047"
       style="fill:none;stroke:#02709f;stroke-width:5;stroke-linecap:round;stroke-linejoin:round;stroke-miterlimit:1;stroke-dasharray:none;stroke-opacity:1"
       transform="matrix(0.13333333,0,0,-0.13333333,0,10.466667)"
       clip-path="url(#clipPath20)" />
    <path
       id="path21"
       d="m 76.2305,2.5 c -9.5899,7.6836 -15.9297,21.0039 -15.9297,36.1523 0,15.9375 7.0156,29.8516 17.4531,37.3047"
       style="fill:none;stroke:#02709f;stroke-width:5;stroke-linecap:round;stroke-linejoin:round;stroke-miterlimit:1;stroke-dasharray:none;stroke-opacity:1"
       transform="matrix(0.13333333,0,0,-0.13333333,0,10.466667)"
       clip-path="url(#clipPath22)" />
    <path
       id="path23"
       d="m 90.6797,2.5 c -9.5899,7.6836 -15.9336,21.0039 -15.9336,36.1523 0,15.9375 7.0273,29.8516 17.457,37.3047"
       style="fill:none;stroke:#02709f;stroke-width:5;stroke-linecap:round;stroke-linejoin:round;stroke-miterlimit:1;stroke-dasharray:none;stroke-opacity:1"
       transform="matrix(0.13333333,0,0,-0.13333333,0,10.466667)"
       clip-path="url(#clipPath24)" />
  </g>
</svg>
