<?xml version="1.0" encoding="UTF-8" standalone="no"?>
<!-- Created with Inkscape (http://www.inkscape.org/) -->

<svg
   version="1.1"
   id="svg1"
   width="38.946667"
   height="33.786667"
   viewBox="0 0 38.946667 33.786667"
   sodipodi:docname="pc video.eps"
   xmlns:inkscape="http://www.inkscape.org/namespaces/inkscape"
   xmlns:sodipodi="http://sodipodi.sourceforge.net/DTD/sodipodi-0.dtd"
   xmlns="http://www.w3.org/2000/svg"
   xmlns:svg="http://www.w3.org/2000/svg">
  <defs
     id="defs1">
    <clipPath
       clipPathUnits="userSpaceOnUse"
       id="clipPath2">
      <path
         d="M 0,3 V 253 H 290 V 3 Z"
         id="path2" />
    </clipPath>
    <clipPath
       clipPathUnits="userSpaceOnUse"
       id="clipPath4">
      <path
         d="M 0,3 V 253 H 290 V 3 Z"
         id="path4" />
    </clipPath>
    <clipPath
       clipPathUnits="userSpaceOnUse"
       id="clipPath6">
      <path
         d="M 0,3 V 253 H 290 V 3 Z"
         id="path6" />
    </clipPath>
    <clipPath
       clipPathUnits="userSpaceOnUse"
       id="clipPath8">
      <path
         d="M 0,3 V 253 H 290 V 3 Z"
         id="path8" />
    </clipPath>
    <clipPath
       clipPathUnits="userSpaceOnUse"
       id="clipPath10">
      <path
         d="M 0,3 V 253 H 290 V 3 Z"
         id="path10" />
    </clipPath>
  </defs>
  <sodipodi:namedview
     id="namedview1"
     pagecolor="#505050"
     bordercolor="#eeeeee"
     borderopacity="1"
     inkscape:showpageshadow="0"
     inkscape:pageopacity="0"
     inkscape:pagecheckerboard="0"
     inkscape:deskcolor="#d1d1d1">
    <inkscape:page
       x="0"
       y="0"
       inkscape:label="1"
       id="page1"
       width="38.946667"
       height="33.786667"
       margin="0"
       bleed="0" />
  </sodipodi:namedview>
  <g
     id="g1"
     inkscape:groupmode="layer"
     inkscape:label="1">
    <path
       id="path1"
       d="m 145.754,53.4063 c 54.676,0 98.992,44.3281 98.992,98.9957 0,54.668 -44.316,98.993 -98.992,98.993 -54.6798,0 -98.9962,-44.325 -98.9962,-98.993 0,-54.6676 44.3164,-98.9957 98.9962,-98.9957"
       style="fill:#02709f;fill-opacity:1;fill-rule:nonzero;stroke:none"
       transform="matrix(0.13333333,0,0,-0.13333333,0,33.786667)"
       clip-path="url(#clipPath2)" />
    <path
       id="path3"
       d="m 145.754,53.4063 c 54.676,0 98.992,44.3281 98.992,98.9957 0,54.668 -44.316,98.993 -98.992,98.993 -54.6798,0 -98.9962,-44.325 -98.9962,-98.993 0,-54.6676 44.3164,-98.9957 98.9962,-98.9957 z"
       style="fill:none;stroke:#ffffff;stroke-width:3.99994;stroke-linecap:butt;stroke-linejoin:miter;stroke-miterlimit:4;stroke-dasharray:none;stroke-opacity:1"
       transform="matrix(0.13333333,0,0,-0.13333333,0,33.786667)"
       clip-path="url(#clipPath4)" />
    <path
       id="path5"
       d="M 2.36328,2.15625 27.9609,155.398 c 0,-65.605 53.1836,-118.7964 118.7971,-118.7964 65.605,0 118.789,53.1914 118.789,118.7964 L 289.707,2 2.36328,2.15625"
       style="fill:#02709f;fill-opacity:1;fill-rule:nonzero;stroke:#ffffff;stroke-width:3.99994;stroke-linecap:butt;stroke-linejoin:miter;stroke-miterlimit:4;stroke-dasharray:none;stroke-opacity:1"
       transform="matrix(0.13333333,0,0,-0.13333333,0,33.786667)"
       clip-path="url(#clipPath6)" />
    <path
       id="path7"
       d="m 77.9297,126.602 h 135 v 45 h -135 z"
       style="fill:#02709f;fill-opacity:1;fill-rule:nonzero;stroke:none"
       transform="matrix(0.13333333,0,0,-0.13333333,0,33.786667)"
       clip-path="url(#clipPath8)" />
    <path
       id="path9"
       d="m 212.93,126.602 v 45 H 77.9297 v -45 z"
       style="fill:none;stroke:#ffffff;stroke-width:3.99994;stroke-linecap:butt;stroke-linejoin:miter;stroke-miterlimit:4;stroke-dasharray:none;stroke-opacity:1"
       transform="matrix(0.13333333,0,0,-0.13333333,0,33.786667)"
       clip-path="url(#clipPath10)" />
  </g>
</svg>
