<?xml version="1.0" encoding="UTF-8" standalone="no"?>
<!-- Created with Inkscape (http://www.inkscape.org/) -->

<svg
   version="1.1"
   id="svg1"
   width="56.186668"
   height="54.560001"
   viewBox="0 0 56.186668 54.560001"
   sodipodi:docname="ASR 1000 Series.eps"
   xmlns:inkscape="http://www.inkscape.org/namespaces/inkscape"
   xmlns:sodipodi="http://sodipodi.sourceforge.net/DTD/sodipodi-0.dtd"
   xmlns="http://www.w3.org/2000/svg"
   xmlns:svg="http://www.w3.org/2000/svg">
  <defs
     id="defs1" />
  <sodipodi:namedview
     id="namedview1"
     pagecolor="#505050"
     bordercolor="#eeeeee"
     borderopacity="1"
     inkscape:showpageshadow="0"
     inkscape:pageopacity="0"
     inkscape:pagecheckerboard="0"
     inkscape:deskcolor="#d1d1d1">
    <inkscape:page
       x="0"
       y="0"
       inkscape:label="1"
       id="page1"
       width="56.186668"
       height="54.560001"
       margin="0"
       bleed="0" />
  </sodipodi:namedview>
  <g
     id="g1"
     inkscape:groupmode="layer"
     inkscape:label="1">
    <g
       id="group-R5">
      <path
         id="path2"
         d="M 418.141,274.602 V 82.6055 L 317.379,2.00391 H 108.004 L 3.31641,82.6055 V 274.602"
         style="fill:#087bbb;fill-opacity:1;fill-rule:nonzero;stroke:#ffffff;stroke-width:4;stroke-linecap:butt;stroke-linejoin:miter;stroke-miterlimit:4;stroke-dasharray:none;stroke-opacity:1"
         transform="matrix(0.13333333,0,0,-0.13333333,0,54.56)" />
      <path
         id="path3"
         d="M 106.188,3.29297 V 193.992"
         style="fill:#087bbb;fill-opacity:1;fill-rule:nonzero;stroke:#ffffff;stroke-width:4;stroke-linecap:butt;stroke-linejoin:miter;stroke-miterlimit:4;stroke-dasharray:none;stroke-opacity:1"
         transform="matrix(0.13333333,0,0,-0.13333333,0,54.56)" />
      <path
         id="path4"
         d="M 316.977,3.29297 V 193.992"
         style="fill:#087bbb;fill-opacity:1;fill-rule:nonzero;stroke:#ffffff;stroke-width:4;stroke-linecap:butt;stroke-linejoin:miter;stroke-miterlimit:4;stroke-dasharray:none;stroke-opacity:1"
         transform="matrix(0.13333333,0,0,-0.13333333,0,54.56)" />
      <path
         id="path5"
         d="M 418.141,328.098 V 272.473 L 317.379,191.863 H 108.004 L 3.31641,272.473 v 55.625"
         style="fill:#087bbb;fill-opacity:1;fill-rule:nonzero;stroke:#ffffff;stroke-width:4;stroke-linecap:butt;stroke-linejoin:miter;stroke-miterlimit:4;stroke-dasharray:none;stroke-opacity:1"
         transform="matrix(0.13333333,0,0,-0.13333333,0,54.56)" />
      <path
         id="path6"
         d="M 315.406,407.168 H 109.977 L 3.31641,328.098 108.004,247.488 h 209.375 l 100.762,80.61 -102.735,79.07"
         style="fill:#087bbb;fill-opacity:1;fill-rule:nonzero;stroke:none"
         transform="matrix(0.13333333,0,0,-0.13333333,0,54.56)" />
      <path
         id="path7"
         d="M 315.406,407.168 H 109.977 L 3.31641,328.098 108.004,247.488 h 209.375 l 100.762,80.61 z"
         style="fill:none;stroke:#ffffff;stroke-width:4;stroke-linecap:butt;stroke-linejoin:miter;stroke-miterlimit:4;stroke-dasharray:none;stroke-opacity:1"
         transform="matrix(0.13333333,0,0,-0.13333333,0,54.56)" />
      <path
         id="path8"
         d="m 106.188,193.152 v 54.336"
         style="fill:#087bbb;fill-opacity:1;fill-rule:nonzero;stroke:#ffffff;stroke-width:4;stroke-linecap:butt;stroke-linejoin:miter;stroke-miterlimit:4;stroke-dasharray:none;stroke-opacity:1"
         transform="matrix(0.13333333,0,0,-0.13333333,0,54.56)" />
      <path
         id="path9"
         d="m 316.977,193.152 v 54.336"
         style="fill:#087bbb;fill-opacity:1;fill-rule:nonzero;stroke:#ffffff;stroke-width:4;stroke-linecap:butt;stroke-linejoin:miter;stroke-miterlimit:4;stroke-dasharray:none;stroke-opacity:1"
         transform="matrix(0.13333333,0,0,-0.13333333,0,54.56)" />
      <path
         id="path10"
         d="m 172.184,358.117 13.457,-23.859 -58.262,-8.953 13.281,9.492 -87.3631,21.738 23.4453,14.981 84.3168,-20.84 11.125,7.441"
         style="fill:#ffffff;fill-opacity:1;fill-rule:nonzero;stroke:none"
         transform="matrix(0.13333333,0,0,-0.13333333,0,54.56)" />
      <path
         id="path11"
         d="m 248.648,297.004 -8.593,24.187 52.422,6.465 -9.543,-7.351 84.992,-21.157 -21.906,-14.976 -84.356,22.476 -13.016,-9.644"
         style="fill:#ffffff;fill-opacity:1;fill-rule:nonzero;stroke:none"
         transform="matrix(0.13333333,0,0,-0.13333333,0,54.56)" />
      <path
         id="path12"
         d="m 225.445,366.602 59.043,11.515 -1.172,-24.844 -14.257,3.836 -29.993,-21.308 -26.648,5.949 30.859,20.723 -17.832,4.129"
         style="fill:#ffffff;fill-opacity:1;fill-rule:nonzero;stroke:none"
         transform="matrix(0.13333333,0,0,-0.13333333,0,54.56)" />
      <path
         id="path13"
         d="m 194.008,279.609 -55.867,-6.203 -0.157,25.625 15.586,-4.629 32.266,23.637 26.484,-6.543 -34.472,-25.82 16.16,-6.067"
         style="fill:#ffffff;fill-opacity:1;fill-rule:nonzero;stroke:none"
         transform="matrix(0.13333333,0,0,-0.13333333,0,54.56)" />
      <path
         id="path14"
         d="m 169.898,323.488 49.082,-6.914"
         style="fill:none;stroke:#ffffff;stroke-width:3;stroke-linecap:butt;stroke-linejoin:miter;stroke-miterlimit:4;stroke-dasharray:none;stroke-opacity:1"
         transform="matrix(0.13333333,0,0,-0.13333333,0,54.56)" />
      <path
         id="path15"
         d="m 66.207,337.863 50.508,-7.05"
         style="fill:none;stroke:#ffffff;stroke-width:3;stroke-linecap:butt;stroke-linejoin:miter;stroke-miterlimit:4;stroke-dasharray:none;stroke-opacity:1"
         transform="matrix(0.13333333,0,0,-0.13333333,0,54.56)" />
      <path
         id="path16"
         d="m 46.5977,362.18 40.6445,-6.602"
         style="fill:none;stroke:#ffffff;stroke-width:3;stroke-linecap:butt;stroke-linejoin:miter;stroke-miterlimit:4;stroke-dasharray:none;stroke-opacity:1"
         transform="matrix(0.13333333,0,0,-0.13333333,0,54.56)" />
      <path
         id="path17"
         d="M 91.8516,357.004 30.8555,313.938"
         style="fill:none;stroke:#ffffff;stroke-width:3;stroke-linecap:butt;stroke-linejoin:miter;stroke-miterlimit:4;stroke-dasharray:none;stroke-opacity:1"
         transform="matrix(0.13333333,0,0,-0.13333333,0,54.56)" />
      <path
         id="path18"
         d="M 141.695,347.16 59,287.996"
         style="fill:none;stroke:#ffffff;stroke-width:3;stroke-linecap:butt;stroke-linejoin:miter;stroke-miterlimit:4;stroke-dasharray:none;stroke-opacity:1"
         transform="matrix(0.13333333,0,0,-0.13333333,0,54.56)" />
      <path
         id="path19"
         d="M 196.656,340.566 94.3008,262.98"
         style="fill:none;stroke:#ffffff;stroke-width:3;stroke-linecap:butt;stroke-linejoin:miter;stroke-miterlimit:4;stroke-dasharray:none;stroke-opacity:1"
         transform="matrix(0.13333333,0,0,-0.13333333,0,54.56)" />
      <path
         id="path20"
         d="m 89.0273,309.699 50.7617,-7.094"
         style="fill:none;stroke:#ffffff;stroke-width:3;stroke-linecap:butt;stroke-linejoin:miter;stroke-miterlimit:4;stroke-dasharray:none;stroke-opacity:1"
         transform="matrix(0.13333333,0,0,-0.13333333,0,54.56)" />
      <path
         id="path21"
         d="m 309.605,287.766 50.508,-7.051"
         style="fill:none;stroke:#ffffff;stroke-width:3;stroke-linecap:butt;stroke-linejoin:miter;stroke-miterlimit:4;stroke-dasharray:none;stroke-opacity:1"
         transform="matrix(0.13333333,0,0,-0.13333333,0,54.56)" />
      <path
         id="path22"
         d="m 207.348,302.023 50.5,-7.05"
         style="fill:none;stroke:#ffffff;stroke-width:3;stroke-linecap:butt;stroke-linejoin:miter;stroke-miterlimit:4;stroke-dasharray:none;stroke-opacity:1"
         transform="matrix(0.13333333,0,0,-0.13333333,0,54.56)" />
      <path
         id="path23"
         d="M 230.934,322.609 133.051,249.23"
         style="fill:none;stroke:#ffffff;stroke-width:3;stroke-linecap:butt;stroke-linejoin:miter;stroke-miterlimit:4;stroke-dasharray:none;stroke-opacity:1"
         transform="matrix(0.13333333,0,0,-0.13333333,0,54.56)" />
      <path
         id="path24"
         d="M 285.199,313.867 199.742,250.828"
         style="fill:none;stroke:#ffffff;stroke-width:3;stroke-linecap:butt;stroke-linejoin:miter;stroke-miterlimit:4;stroke-dasharray:none;stroke-opacity:1"
         transform="matrix(0.13333333,0,0,-0.13333333,0,54.56)" />
      <path
         id="path25"
         d="M 335.27,306.902 262.738,252.004"
         style="fill:none;stroke:#ffffff;stroke-width:3;stroke-linecap:butt;stroke-linejoin:miter;stroke-miterlimit:4;stroke-dasharray:none;stroke-opacity:1"
         transform="matrix(0.13333333,0,0,-0.13333333,0,54.56)" />
      <path
         id="path26"
         d="m 392.535,308.945 -50.82,-42.59"
         style="fill:none;stroke:#ffffff;stroke-width:3;stroke-linecap:butt;stroke-linejoin:miter;stroke-miterlimit:4;stroke-dasharray:none;stroke-opacity:1"
         transform="matrix(0.13333333,0,0,-0.13333333,0,54.56)" />
      <path
         id="path27"
         d="m 125.934,288.391 50.781,-7.09"
         style="fill:none;stroke:#ffffff;stroke-width:3;stroke-linecap:butt;stroke-linejoin:miter;stroke-miterlimit:4;stroke-dasharray:none;stroke-opacity:1"
         transform="matrix(0.13333333,0,0,-0.13333333,0,54.56)" />
      <path
         id="path28"
         d="m 229.684,273.914 50.75,-7.09"
         style="fill:none;stroke:#ffffff;stroke-width:3;stroke-linecap:butt;stroke-linejoin:miter;stroke-miterlimit:4;stroke-dasharray:none;stroke-opacity:1"
         transform="matrix(0.13333333,0,0,-0.13333333,0,54.56)" />
      <path
         id="path29"
         d="M 154.145,405.363 88.5703,355.246"
         style="fill:none;stroke:#ffffff;stroke-width:3;stroke-linecap:butt;stroke-linejoin:miter;stroke-miterlimit:4;stroke-dasharray:none;stroke-opacity:1"
         transform="matrix(0.13333333,0,0,-0.13333333,0,54.56)" />
      <path
         id="path30"
         d="M 222.016,407.824 140.895,345.051"
         style="fill:none;stroke:#ffffff;stroke-width:3;stroke-linecap:butt;stroke-linejoin:miter;stroke-miterlimit:4;stroke-dasharray:none;stroke-opacity:1"
         transform="matrix(0.13333333,0,0,-0.13333333,0,54.56)" />
      <path
         id="path31"
         d="m 337.848,352.492 43.953,-8.262"
         style="fill:none;stroke:#ffffff;stroke-width:3;stroke-linecap:butt;stroke-linejoin:miter;stroke-miterlimit:4;stroke-dasharray:none;stroke-opacity:1"
         transform="matrix(0.13333333,0,0,-0.13333333,0,54.56)" />
      <path
         id="path32"
         d="m 279.176,403.195 -105,-78.945"
         style="fill:none;stroke:#ffffff;stroke-width:3;stroke-linecap:butt;stroke-linejoin:miter;stroke-miterlimit:4;stroke-dasharray:none;stroke-opacity:1"
         transform="matrix(0.13333333,0,0,-0.13333333,0,54.56)" />
      <path
         id="path33"
         d="M 328.051,391.73 223.824,317.121"
         style="fill:none;stroke:#ffffff;stroke-width:3;stroke-linecap:butt;stroke-linejoin:miter;stroke-miterlimit:4;stroke-dasharray:none;stroke-opacity:1"
         transform="matrix(0.13333333,0,0,-0.13333333,0,54.56)" />
      <path
         id="path34"
         d="M 358.051,369.23 279.234,309.602"
         style="fill:none;stroke:#ffffff;stroke-width:3;stroke-linecap:butt;stroke-linejoin:miter;stroke-miterlimit:4;stroke-dasharray:none;stroke-opacity:1"
         transform="matrix(0.13333333,0,0,-0.13333333,0,54.56)" />
      <path
         id="path35"
         d="M 391.461,347.98 331.762,302.258"
         style="fill:none;stroke:#ffffff;stroke-width:3;stroke-linecap:butt;stroke-linejoin:miter;stroke-miterlimit:4;stroke-dasharray:none;stroke-opacity:1"
         transform="matrix(0.13333333,0,0,-0.13333333,0,54.56)" />
      <path
         id="path36"
         d="m 154.176,353.125 50.762,-7.09"
         style="fill:none;stroke:#ffffff;stroke-width:3;stroke-linecap:butt;stroke-linejoin:miter;stroke-miterlimit:4;stroke-dasharray:none;stroke-opacity:1"
         transform="matrix(0.13333333,0,0,-0.13333333,0,54.56)" />
      <path
         id="path37"
         d="m 257.926,338.645 50.75,-7.051"
         style="fill:none;stroke:#ffffff;stroke-width:3;stroke-linecap:butt;stroke-linejoin:miter;stroke-miterlimit:4;stroke-dasharray:none;stroke-opacity:1"
         transform="matrix(0.13333333,0,0,-0.13333333,0,54.56)" />
      <path
         id="path38"
         d="m 360.68,324.328 39.871,-6.348"
         style="fill:none;stroke:#ffffff;stroke-width:3;stroke-linecap:butt;stroke-linejoin:miter;stroke-miterlimit:4;stroke-dasharray:none;stroke-opacity:1"
         transform="matrix(0.13333333,0,0,-0.13333333,0,54.56)" />
      <path
         id="path39"
         d="M 5.9882906,-0.92683094 C 6.4218844,-1.4658934 6.7031344,-2.3682372 6.7031344,-3.2471434 c 0,-0.9609375 -0.3398438,-1.8984375 -0.9140625,-2.5195313 -0.5742188,-0.609375 -1.3125,-0.9023437 -2.2382813,-0.9023437 -0.9375,0 -1.6757812,0.2929687 -2.25,0.9023437 -0.58593747,0.6210938 -0.91406247,1.5585938 -0.91406247,2.53125 0,0.984375 0.33984375,1.9101563 0.91406247,2.53125001 0.5742188,0.609375 1.3125,0.9140625 2.25,0.9140625 0.6796875,0 1.171875,-0.140625 1.6992188,-0.45703125 l 0.7734375,0.7265625 0.6796875,-0.7265625 z m -1.6640625,-1.58203126 -0.6914062,0.7382813 0.6914062,0.65625 c -0.2109375,0.1054687 -0.5039062,0.16406246 -0.7851562,0.16406246 -1.078125,0 -1.8046875,-0.90234376 -1.8046875,-2.28515626 0,-1.3828125 0.7148437,-2.2851562 1.8164062,-2.2851562 1.0898438,0 1.8046875,0.9023437 1.8046875,2.296875 0,0.5390625 -0.09375,1.03125 -0.2929687,1.4179687 z m 4.6933594,-0.3164062 h 2.8710935 v -1.125 H 9.0175875 V -5.4385497 H 12.2754 v -1.125 H 7.6699313 v 6.56250001 h 1.3476562 z m 5.5224605,0.4804687 h 1.675782 c 1.207031,0 1.980468,-0.8554687 1.980468,-2.1796875 0,-1.3125 -0.75,-2.0390625 -2.109375,-2.0390625 h -2.90625 v 6.56250001 h 1.359375 z m 0,-1.125 v -1.96875 h 1.253907 c 0.726562,0 1.054687,0.3164063 1.054687,0.984375 0,0.6679688 -0.328125,0.984375 -1.054687,0.984375 z m 0,0"
         style="fill:#ffffff;fill-opacity:1;fill-rule:nonzero;stroke:none"
         aria-label="QFP"
         transform="matrix(1.3333333,0,0,1.3333333,16.3828,45.622493)" />
    </g>
  </g>
</svg>
