<?xml version="1.0" encoding="UTF-8" standalone="no"?>
<!-- Created with Inkscape (http://www.inkscape.org/) -->

<svg
   version="1.1"
   id="svg1"
   width="65.053329"
   height="32.653332"
   viewBox="0 0 65.053329 32.653332"
   sodipodi:docname="ata.eps"
   xmlns:inkscape="http://www.inkscape.org/namespaces/inkscape"
   xmlns:sodipodi="http://sodipodi.sourceforge.net/DTD/sodipodi-0.dtd"
   xmlns="http://www.w3.org/2000/svg"
   xmlns:svg="http://www.w3.org/2000/svg">
  <defs
     id="defs1">
    <clipPath
       clipPathUnits="userSpaceOnUse"
       id="clipPath2">
      <path
         d="M 0,4 V 245 H 488 V 4 Z"
         id="path2" />
    </clipPath>
    <clipPath
       clipPathUnits="userSpaceOnUse"
       id="clipPath4">
      <path
         d="M 0,4 V 245 H 488 V 4 Z"
         id="path4" />
    </clipPath>
    <clipPath
       clipPathUnits="userSpaceOnUse"
       id="clipPath6">
      <path
         d="M 0,4 V 245 H 488 V 4 Z"
         id="path6" />
    </clipPath>
    <clipPath
       clipPathUnits="userSpaceOnUse"
       id="clipPath8">
      <path
         d="M 0,4 V 245 H 488 V 4 Z"
         id="path8" />
    </clipPath>
    <clipPath
       clipPathUnits="userSpaceOnUse"
       id="clipPath10">
      <path
         d="M 0,4 V 245 H 488 V 4 Z"
         id="path10" />
    </clipPath>
    <clipPath
       clipPathUnits="userSpaceOnUse"
       id="clipPath12">
      <path
         d="M 0,4 V 245 H 488 V 4 Z"
         id="path12" />
    </clipPath>
    <clipPath
       clipPathUnits="userSpaceOnUse"
       id="clipPath14">
      <path
         d="M 0,4 V 245 H 488 V 4 Z"
         id="path14" />
    </clipPath>
    <clipPath
       clipPathUnits="userSpaceOnUse"
       id="clipPath16">
      <path
         d="M 0,4 V 245 H 488 V 4 Z"
         id="path16" />
    </clipPath>
    <clipPath
       clipPathUnits="userSpaceOnUse"
       id="clipPath18">
      <path
         d="M 0,4 V 245 H 488 V 4 Z"
         id="path18" />
    </clipPath>
    <clipPath
       clipPathUnits="userSpaceOnUse"
       id="clipPath20">
      <path
         d="M 0,4 V 245 H 488 V 4 Z"
         transform="matrix(0.1,0,0,-0.1,-16.391001,2.0601603)"
         id="path20" />
    </clipPath>
    <clipPath
       clipPathUnits="userSpaceOnUse"
       id="clipPath22">
      <path
         d="M 0,4 V 245 H 488 V 4 Z"
         id="path22" />
    </clipPath>
    <clipPath
       clipPathUnits="userSpaceOnUse"
       id="clipPath24">
      <path
         d="M 0,4 V 245 H 488 V 4 Z"
         id="path24" />
    </clipPath>
  </defs>
  <sodipodi:namedview
     id="namedview1"
     pagecolor="#505050"
     bordercolor="#eeeeee"
     borderopacity="1"
     inkscape:showpageshadow="0"
     inkscape:pageopacity="0"
     inkscape:pagecheckerboard="0"
     inkscape:deskcolor="#d1d1d1">
    <inkscape:page
       x="0"
       y="0"
       inkscape:label="1"
       id="page1"
       width="65.053329"
       height="32.653332"
       margin="0"
       bleed="0" />
  </sodipodi:namedview>
  <g
     id="g1"
     inkscape:groupmode="layer"
     inkscape:label="1">
    <path
       id="path1"
       d="M 5.65625,120.738 149.949,237.418 H 483.031 L 363.637,120.738 H 5.65625"
       style="fill:#087bbb;fill-opacity:1;fill-rule:nonzero;stroke:none"
       transform="matrix(0.13333333,0,0,-0.13333333,0,32.653333)"
       clip-path="url(#clipPath2)" />
    <path
       id="path3"
       d="M 5.65625,120.738 149.949,237.418 H 483.031 L 363.637,120.738 Z"
       style="fill:none;stroke:#ffffff;stroke-width:3.99994;stroke-linecap:butt;stroke-linejoin:miter;stroke-miterlimit:4;stroke-dasharray:none;stroke-opacity:1"
       transform="matrix(0.13333333,0,0,-0.13333333,0,32.653333)"
       clip-path="url(#clipPath4)" />
    <path
       id="path5"
       d="M 363.637,4.77344 483.031,122.184 V 240.082 L 363.637,120.738 V 4.77344"
       style="fill:#087bbb;fill-opacity:1;fill-rule:nonzero;stroke:none"
       transform="matrix(0.13333333,0,0,-0.13333333,0,32.653333)"
       clip-path="url(#clipPath6)" />
    <path
       id="path7"
       d="M 363.637,4.77344 483.031,122.184 V 240.082 L 363.637,120.738 Z"
       style="fill:none;stroke:#ffffff;stroke-width:3.99994;stroke-linecap:butt;stroke-linejoin:miter;stroke-miterlimit:4;stroke-dasharray:none;stroke-opacity:1"
       transform="matrix(0.13333333,0,0,-0.13333333,0,32.653333)"
       clip-path="url(#clipPath8)" />
    <path
       id="path9"
       d="m 6.14453,4.67969 h 357.492 v 116.059 H 6.14453 Z"
       style="fill:#087bbb;fill-opacity:1;fill-rule:nonzero;stroke:none"
       transform="matrix(0.13333333,0,0,-0.13333333,0,32.653333)"
       clip-path="url(#clipPath10)" />
    <path
       id="path11"
       d="M 363.637,4.67969 V 120.738 H 6.14453 V 4.67969 Z"
       style="fill:none;stroke:#ffffff;stroke-width:3.99994;stroke-linecap:butt;stroke-linejoin:miter;stroke-miterlimit:4;stroke-dasharray:none;stroke-opacity:1"
       transform="matrix(0.13333333,0,0,-0.13333333,0,32.653333)"
       clip-path="url(#clipPath12)" />
    <path
       id="path13"
       d="m 217.98,102.711 c 0,0 4.786,0.535 5.86,-4.2579 l 1.055,-18.3125 31.925,-5.3203 3.184,6.9141 -7.988,22.0386 c -40.953,10.11 -68.278,6.915 -68.278,6.915 h 1.582 c 0,0 -21.558,3.195 -62.539,-6.915 l -7.968,-22.0386 3.183,-6.9141 31.938,5.3203 1.05,18.3125 c 1.055,4.7929 5.864,4.2579 5.864,4.2579 h 61.132"
       style="fill:#ffffff;fill-opacity:1;fill-rule:nonzero;stroke:none"
       transform="matrix(0.13333333,0,0,-0.13333333,0,32.653333)"
       clip-path="url(#clipPath14)" />
    <path
       id="path15"
       d="m 153.895,15.9141 h 66.9727 V 84.3399 H 153.895 Z"
       style="fill:#231f20;fill-opacity:1;fill-rule:nonzero;stroke:none"
       transform="matrix(0.13333333,0,0,-0.13333333,0,32.653333)"
       clip-path="url(#clipPath16)" />
    <path
       id="path17"
       d="M 220.867,15.9141 V 84.3398 H 153.895 V 15.9141 Z"
       style="fill:none;stroke:#ffffff;stroke-width:3.99994;stroke-linecap:butt;stroke-linejoin:miter;stroke-miterlimit:1;stroke-dasharray:none;stroke-opacity:1"
       transform="matrix(0.13333333,0,0,-0.13333333,0,32.653333)"
       clip-path="url(#clipPath18)" />
    <path
       id="path19"
       d="M 3.2349766,-1.525e-4 5.2740391,-5.9415587 H 4.0435703 l -1.3007812,4.4765625 -1.3125,-4.4765625 H 0.19982031 L 2.2037266,-1.525e-4 Z m 0,0"
       style="fill:#ffffff;fill-opacity:1;fill-rule:nonzero;stroke:none"
       aria-label="V"
       transform="matrix(1.3333333,0,0,1.3333333,21.854667,29.906453)"
       clip-path="url(#clipPath20)" />
    <path
       id="path21"
       d="m 139.719,148.297 c 0,-6.906 -14.555,-12.5 -32.5,-12.5 -17.9495,0 -32.5002,5.594 -32.5002,12.5 0,6.902 14.5507,12.5 32.5002,12.5 17.945,0 32.5,-5.598 32.5,-12.5"
       style="fill:#a7a5a6;fill-opacity:1;fill-rule:nonzero;stroke:none"
       transform="matrix(0.13333333,0,0,-0.13333333,0,32.653333)"
       clip-path="url(#clipPath22)" />
    <path
       id="path23"
       d="m 139.719,156.246 c 0,-6.906 -14.555,-12.5 -32.5,-12.5 -17.9495,0 -32.5002,5.594 -32.5002,12.5 0,6.902 14.5507,12.5 32.5002,12.5 17.945,0 32.5,-5.598 32.5,-12.5"
       style="fill:#ffffff;fill-opacity:1;fill-rule:nonzero;stroke:none"
       transform="matrix(0.13333333,0,0,-0.13333333,0,32.653333)"
       clip-path="url(#clipPath24)" />
  </g>
</svg>
