<?xml version="1.0" encoding="UTF-8" standalone="no"?>
<!-- Created with Inkscape (http://www.inkscape.org/) -->

<svg
   version="1.1"
   id="svg1"
   width="58.040001"
   height="42.119999"
   viewBox="0 0 58.040001 42.119999"
   sodipodi:docname="avs.eps"
   xmlns:inkscape="http://www.inkscape.org/namespaces/inkscape"
   xmlns:sodipodi="http://sodipodi.sourceforge.net/DTD/sodipodi-0.dtd"
   xmlns="http://www.w3.org/2000/svg"
   xmlns:svg="http://www.w3.org/2000/svg">
  <defs
     id="defs1" />
  <sodipodi:namedview
     id="namedview1"
     pagecolor="#505050"
     bordercolor="#eeeeee"
     borderopacity="1"
     inkscape:showpageshadow="0"
     inkscape:pageopacity="0"
     inkscape:pagecheckerboard="0"
     inkscape:deskcolor="#d1d1d1">
    <inkscape:page
       x="0"
       y="0"
       inkscape:label="1"
       id="page1"
       width="58.040001"
       height="42.119999"
       margin="0"
       bleed="0" />
  </sodipodi:namedview>
  <g
     id="g1"
     inkscape:groupmode="layer"
     inkscape:label="1">
    <path
       id="path1"
       d="M 5.65625,6.46484 H 387.141 V 257.102 H 5.65625 V 6.46484"
       style="fill:#087bbb;fill-opacity:1;fill-rule:nonzero;stroke:none"
       transform="matrix(0.13333333,0,0,-0.13333333,0,42.12)" />
    <path
       id="path2"
       d="M 5.65625,6.46484 H 387.141 V 257.102 H 5.65625 Z"
       style="fill:none;stroke:#ffffff;stroke-width:4;stroke-linecap:butt;stroke-linejoin:miter;stroke-miterlimit:4;stroke-dasharray:none;stroke-opacity:1"
       transform="matrix(0.13333333,0,0,-0.13333333,0,42.12)" />
    <path
       id="path3"
       d="M 431.027,70.6641 387.141,6.46484 V 257.102 l 43.886,53.211 V 70.6641"
       style="fill:#087bbb;fill-opacity:1;fill-rule:nonzero;stroke:none"
       transform="matrix(0.13333333,0,0,-0.13333333,0,42.12)" />
    <path
       id="path4"
       d="M 431.027,70.6641 387.141,6.46484 V 257.102 l 43.886,53.211 z"
       style="fill:none;stroke:#ffffff;stroke-width:4;stroke-linecap:butt;stroke-linejoin:miter;stroke-miterlimit:4;stroke-dasharray:none;stroke-opacity:1"
       transform="matrix(0.13333333,0,0,-0.13333333,0,42.12)" />
    <path
       id="path5"
       d="M 71.4883,310.313 H 431.027 L 387.141,257.102 H 5.65625 l 65.83205,53.211"
       style="fill:#087bbb;fill-opacity:1;fill-rule:nonzero;stroke:none"
       transform="matrix(0.13333333,0,0,-0.13333333,0,42.12)" />
    <path
       id="path6"
       d="M 71.4883,310.313 H 431.027 L 387.141,257.102 H 5.65625 Z"
       style="fill:none;stroke:#ffffff;stroke-width:4;stroke-linecap:butt;stroke-linejoin:miter;stroke-miterlimit:4;stroke-dasharray:none;stroke-opacity:1"
       transform="matrix(0.13333333,0,0,-0.13333333,0,42.12)" />
    <path
       id="path7"
       d="m 61.3984,191.223 -33.8867,-0.051 v 10.156 l 33.8867,0.039 0.0235,15.86 36.9961,-20.938 -36.9961,-20.945 -0.0235,15.879"
       style="fill:#ffffff;fill-opacity:1;fill-rule:nonzero;stroke:none"
       transform="matrix(0.13333333,0,0,-0.13333333,0,42.12)" />
    <path
       id="path8"
       d="m 61.3984,127.891 -33.8867,-0.039 v 10.156 l 33.8867,0.039 0.0235,15.84 36.9961,-20.938 -36.9961,-20.937 -0.0235,15.879"
       style="fill:#ffffff;fill-opacity:1;fill-rule:nonzero;stroke:none"
       transform="matrix(0.13333333,0,0,-0.13333333,0,42.12)" />
    <path
       id="path9"
       d="M 61.3984,64.5508 27.5117,64.5117 V 74.668 L 61.3984,74.707 61.4219,90.5664 98.418,69.6094 61.4219,48.6719 61.3984,64.5508"
       style="fill:#ffffff;fill-opacity:1;fill-rule:nonzero;stroke:none"
       transform="matrix(0.13333333,0,0,-0.13333333,0,42.12)" />
    <path
       id="path10"
       d="m 346.875,127.246 -44.422,-0.058 v 10.156 l 44.422,0.039 0.02,15.859 37.003,-20.937 -37.003,-20.938 -0.02,15.879"
       style="fill:#ffffff;fill-opacity:1;fill-rule:nonzero;stroke:none"
       transform="matrix(0.13333333,0,0,-0.13333333,0,42.12)" />
    <path
       id="path11"
       d="m 129.164,128.398 c 0,-40.5074 32.832,-73.3394 73.34,-73.3394 v 73.3394 h -73.34"
       style="fill:#ffffff;fill-opacity:1;fill-rule:nonzero;stroke:none"
       transform="matrix(0.13333333,0,0,-0.13333333,0,42.12)" />
    <path
       id="path12"
       d="m 202.504,201.738 c 40.504,0 73.336,-32.832 73.336,-73.34 h -73.336 v 73.34"
       style="fill:#ffffff;fill-opacity:1;fill-rule:nonzero;stroke:none"
       transform="matrix(0.13333333,0,0,-0.13333333,0,42.12)" />
  </g>
</svg>
