<?xml version="1.0" encoding="UTF-8" standalone="no"?>
<!-- Created with Inkscape (http://www.inkscape.org/) -->

<svg
   version="1.1"
   id="svg1"
   width="49.586666"
   height="47.360001"
   viewBox="0 0 49.586666 47.360001"
   sodipodi:docname="AXP.eps"
   xmlns:inkscape="http://www.inkscape.org/namespaces/inkscape"
   xmlns:sodipodi="http://sodipodi.sourceforge.net/DTD/sodipodi-0.dtd"
   xmlns="http://www.w3.org/2000/svg"
   xmlns:svg="http://www.w3.org/2000/svg">
  <defs
     id="defs1" />
  <sodipodi:namedview
     id="namedview1"
     pagecolor="#505050"
     bordercolor="#eeeeee"
     borderopacity="1"
     inkscape:showpageshadow="0"
     inkscape:pageopacity="0"
     inkscape:pagecheckerboard="0"
     inkscape:deskcolor="#d1d1d1">
    <inkscape:page
       x="0"
       y="0"
       inkscape:label="1"
       id="page1"
       width="49.586666"
       height="47.360001"
       margin="0"
       bleed="0" />
  </sodipodi:namedview>
  <g
     id="g1"
     inkscape:groupmode="layer"
     inkscape:label="1">
    <g
       id="group-R5">
      <path
         id="path2"
         d="m 369.855,281.629 c 0,-39.512 -82.343,-71.524 -183.925,-71.524 C 84.3477,210.105 2,242.117 2,281.629 v -83.555 c 0,-39.511 82.3477,-71.531 183.93,-71.531 101.582,0 183.925,32.02 183.925,71.531 v 83.555"
         style="fill:#918f90;fill-opacity:1;fill-rule:nonzero;stroke:none"
         transform="matrix(0.13333333,0,0,-0.13333333,0,47.36)" />
      <path
         id="path3"
         d="m 369.855,281.629 c 0,-39.512 -82.343,-71.524 -183.925,-71.524 C 84.3477,210.105 2,242.117 2,281.629 v -83.555 c 0,-39.511 82.3477,-71.531 183.93,-71.531 101.582,0 183.925,32.02 183.925,71.531 z"
         style="fill:none;stroke:#ffffff;stroke-width:4;stroke-linecap:butt;stroke-linejoin:miter;stroke-miterlimit:4;stroke-dasharray:none;stroke-opacity:1"
         transform="matrix(0.13333333,0,0,-0.13333333,0,47.36)" />
      <path
         id="path4"
         d="M 369.855,199.504 C 369.855,160 287.512,127.977 185.93,127.977 84.3477,127.977 2,160 2,199.504 V 73.5234 c 0,-39.5 82.3477,-71.51949 183.93,-71.51949 101.582,0 183.925,32.01949 183.925,71.51949 V 199.504"
         style="fill:#087bbb;fill-opacity:1;fill-rule:nonzero;stroke:none"
         transform="matrix(0.13333333,0,0,-0.13333333,0,47.36)" />
      <path
         id="path5"
         d="M 369.855,199.504 C 369.855,160 287.512,127.977 185.93,127.977 84.3477,127.977 2,160 2,199.504 V 73.5234 c 0,-39.5 82.3477,-71.51949 183.93,-71.51949 101.582,0 183.925,32.01949 183.925,71.51949 z"
         style="fill:none;stroke:#ffffff;stroke-width:4;stroke-linecap:butt;stroke-linejoin:miter;stroke-miterlimit:4;stroke-dasharray:none;stroke-opacity:1"
         transform="matrix(0.13333333,0,0,-0.13333333,0,47.36)" />
      <path
         id="path6"
         d="m 185.93,210.105 c 101.582,0 183.925,32.012 183.925,71.524 0,39.504 -82.343,71.523 -183.925,71.523 C 84.3477,353.152 2,321.133 2,281.629 2,242.117 84.3477,210.105 185.93,210.105"
         style="fill:#918f90;fill-opacity:1;fill-rule:nonzero;stroke:#ffffff;stroke-width:4;stroke-linecap:butt;stroke-linejoin:miter;stroke-miterlimit:4;stroke-dasharray:none;stroke-opacity:1"
         transform="matrix(0.13333333,0,0,-0.13333333,0,47.36)" />
      <path
         id="path7"
         d="m 143.926,309.598 15.183,-22.793 -57.421,-13.262 12.55,10.449 -88.7419,15.156 22.2578,16.7 85.6371,-14.512 10.535,8.262"
         style="fill:#ffffff;fill-opacity:1;fill-rule:nonzero;stroke:none"
         transform="matrix(0.13333333,0,0,-0.13333333,0,47.36)" />
      <path
         id="path8"
         d="m 224.727,254.344 -10.364,23.488 51.797,10.359 -8.98,-8.054 86.328,-14.739 -20.715,-16.582 -85.813,16.114 -12.253,-10.586"
         style="fill:#ffffff;fill-opacity:1;fill-rule:nonzero;stroke:none"
         transform="matrix(0.13333333,0,0,-0.13333333,0,47.36)" />
      <path
         id="path9"
         d="m 196.414,322.031 58.012,15.887 0.679,-24.863 -14.492,2.754 -28.316,-23.477 -27.016,3.938 29.223,22.976 -18.09,2.785"
         style="fill:#ffffff;fill-opacity:1;fill-rule:nonzero;stroke:none"
         transform="matrix(0.13333333,0,0,-0.13333333,0,47.36)" />
      <path
         id="path10"
         d="m 171.555,232.938 -55.254,-10.348 -2.071,25.547 15.875,-3.461 30.415,25.976 26.914,-4.558 -32.461,-28.313 16.582,-4.843"
         style="fill:#ffffff;fill-opacity:1;fill-rule:nonzero;stroke:none"
         transform="matrix(0.13333333,0,0,-0.13333333,0,47.36)" />
      <path
         id="path11"
         d="m 6.21875,176.746 c 19.09375,-32.012 86.43755,-53.73 175.97625,-53.73 87.16,0 162.649,24.172 183.801,54.785 l -0.176,21.015 c 0,-34.882 -86.757,-65.8 -183.625,-65.8 -96.863,0 -171.9411,29.961 -176.83172,63.3 l 0.85547,-19.57"
         style="fill:#087bbb;fill-opacity:1;fill-rule:nonzero;stroke:none"
         transform="matrix(0.13333333,0,0,-0.13333333,0,47.36)" />
      <path
         id="path12"
         d="m 167.938,146.238 v -9.031 h -31.446 l 46.446,-60.3047 46.437,60.3047 h -31.477 v 9.031 h -29.96"
         style="fill:#918f90;fill-opacity:1;fill-rule:nonzero;stroke:none"
         transform="matrix(0.13333333,0,0,-0.13333333,0,47.36)" />
      <path
         id="path13"
         d="m 138.809,25.4766 110,110.0004 -9.93,5.546 -110.024,-109.9878 9.954,-5.5586"
         style="fill:#ffffff;fill-opacity:1;fill-rule:nonzero;stroke:none"
         transform="matrix(0.13333333,0,0,-0.13333333,0,47.36)" />
      <path
         id="path14"
         d="M 227.09,26.9922 118.145,135.652 127.98,141.316 236.934,32.6563 227.09,26.9922"
         style="fill:#ffffff;fill-opacity:1;fill-rule:nonzero;stroke:none"
         transform="matrix(0.13333333,0,0,-0.13333333,0,47.36)" />
      <path
         id="path15"
         d="m 198.289,32.7227 -0.152,-9.9805 c 29.676,1.6523 72.703,6.1719 97.078,13.0469 l 0.176,9.6328 C 271.711,38.7305 227.258,34.3438 198.289,32.7227"
         style="fill:#ffffff;fill-opacity:1;fill-rule:nonzero;stroke:none"
         transform="matrix(0.13333333,0,0,-0.13333333,0,47.36)" />
      <path
         id="path16"
         d="m 77.207,35.6367 c 23.43,-6.5742 62.395,-10.9804 90.789,-12.7383 l 0.625,9.2696 c -30.027,1.8633 -70.6718,7.4101 -90.8866,13.0937 l -0.5274,-9.625"
         style="fill:#ffffff;fill-opacity:1;fill-rule:nonzero;stroke:none"
         transform="matrix(0.13333333,0,0,-0.13333333,0,47.36)" />
      <path
         id="path17"
         d="m 74.3164,141.219 c 23.5156,-6.856 62.7346,-11.492 91.5426,-13.418 l -0.058,9.98 c -30.442,2.032 -71.2893,7.129 -91.5822,13.047 l 0.0976,-9.609"
         style="fill:#ffffff;fill-opacity:1;fill-rule:nonzero;stroke:none"
         transform="matrix(0.13333333,0,0,-0.13333333,0,47.36)" />
      <path
         id="path18"
         d="m 198.906,137.488 -0.898,-9.976 c 30.605,1.687 74.394,6.402 99.305,13.648 l 0.097,9.602 c -24.187,-7.032 -68.648,-11.621 -98.504,-13.274"
         style="fill:#ffffff;fill-opacity:1;fill-rule:nonzero;stroke:none"
         transform="matrix(0.13333333,0,0,-0.13333333,0,47.36)" />
      <path
         id="path19"
         d="m 103.574,78.4688 14.649,-2.5625 -7.129,23.9648 -0.156,0.0195 z m -7.1951,-20.5079 -12.6406,2.2032 20.4807,53.8669 13.84,-2.422 20.242,-60.9723 -13.047,2.2852 -3.672,12.4765 -21.199,3.7032 -4.0041,-11.1407"
         style="fill:#ffffff;fill-opacity:1;fill-rule:nonzero;stroke:none"
         transform="matrix(0.13333333,0,0,-0.13333333,0,47.36)" />
      <path
         id="path20"
         d="m 262.258,85.2227 c 8.965,1.2617 8.965,7.6601 8.965,10.2148 0,5.6095 -3.125,7.4845 -10.571,6.4375 l -9.519,-1.34 V 83.6523 Z M 251.133,53.0156 239.141,51.3164 v 57.4456 l 26.242,3.699 c 11.109,1.57 17.832,-4.602 17.832,-15.879 0,-5.2031 -2.883,-18.7304 -18.32,-20.9062 L 251.133,73.7305 V 53.0156"
         style="fill:#ffffff;fill-opacity:1;fill-rule:nonzero;stroke:none"
         transform="matrix(0.13333333,0,0,-0.13333333,0,47.36)" />
    </g>
  </g>
</svg>
