<?xml version="1.0" encoding="UTF-8" standalone="no"?>
<!-- Created with Inkscape (http://www.inkscape.org/) -->

<svg
   version="1.1"
   id="svg1"
   width="65.080002"
   height="27.52"
   viewBox="0 0 65.080002 27.52"
   sodipodi:docname="bbsm.eps"
   xmlns:inkscape="http://www.inkscape.org/namespaces/inkscape"
   xmlns:sodipodi="http://sodipodi.sourceforge.net/DTD/sodipodi-0.dtd"
   xmlns="http://www.w3.org/2000/svg"
   xmlns:svg="http://www.w3.org/2000/svg">
  <defs
     id="defs1" />
  <sodipodi:namedview
     id="namedview1"
     pagecolor="#505050"
     bordercolor="#eeeeee"
     borderopacity="1"
     inkscape:showpageshadow="0"
     inkscape:pageopacity="0"
     inkscape:pagecheckerboard="0"
     inkscape:deskcolor="#d1d1d1">
    <inkscape:page
       x="0"
       y="0"
       inkscape:label="1"
       id="page1"
       width="65.080002"
       height="27.52"
       margin="0"
       bleed="0" />
  </sodipodi:namedview>
  <g
     id="g1"
     inkscape:groupmode="layer"
     inkscape:label="1">
    <path
       id="path1"
       d="m 6.58203,8.46875 h 357.195 v 77.0586 H 6.58203 Z"
       style="fill:#087bbb;fill-opacity:1;fill-rule:nonzero;stroke:none"
       transform="matrix(0.13333333,0,0,-0.13333333,0,27.52)" />
    <path
       id="path2"
       d="M 363.777,8.46875 V 85.5273 H 6.58203 V 8.46875 Z"
       style="fill:none;stroke:#ffffff;stroke-width:3.99994;stroke-linecap:butt;stroke-linejoin:miter;stroke-miterlimit:4;stroke-dasharray:none;stroke-opacity:1"
       transform="matrix(0.13333333,0,0,-0.13333333,0,27.52)" />
    <path
       id="path3"
       d="M 5.64453,84.9414 149.934,201.875 H 483.23 L 363.445,84.9414 H 5.64453"
       style="fill:#087bbb;fill-opacity:1;fill-rule:nonzero;stroke:none"
       transform="matrix(0.13333333,0,0,-0.13333333,0,27.52)" />
    <path
       id="path4"
       d="M 5.64453,84.9414 149.934,201.875 H 483.23 L 363.445,84.9414 Z"
       style="fill:none;stroke:#ffffff;stroke-width:3.99994;stroke-linecap:butt;stroke-linejoin:miter;stroke-miterlimit:4;stroke-dasharray:none;stroke-opacity:1"
       transform="matrix(0.13333333,0,0,-0.13333333,0,27.52)" />
    <path
       id="path5"
       d="M 363.586,4.81641 482.898,123.645 482.98,201.672 363.586,85.1094 V 4.81641"
       style="fill:#087bbb;fill-opacity:1;fill-rule:nonzero;stroke:none"
       transform="matrix(0.13333333,0,0,-0.13333333,0,27.52)" />
    <path
       id="path6"
       d="M 363.586,4.81641 482.898,123.645 482.98,201.672 363.586,85.1094 Z"
       style="fill:none;stroke:#ffffff;stroke-width:3.99994;stroke-linecap:butt;stroke-linejoin:miter;stroke-miterlimit:4;stroke-dasharray:none;stroke-opacity:1"
       transform="matrix(0.13333333,0,0,-0.13333333,0,27.52)" />
    <path
       id="path7"
       d="m 237.063,171.535 8.066,-26.574 -54.797,6.836 15.344,5.617 -55.969,30.41 21.582,8.223 53.25,-28.742 12.524,4.23"
       style="fill:#ffffff;fill-opacity:1;fill-rule:nonzero;stroke:none"
       transform="matrix(0.13333333,0,0,-0.13333333,0,27.52)" />
    <path
       id="path8"
       d="m 264.063,115.801 -9.227,25.578 54.297,-7.031 -9.824,-4.7 60.808,-28.527 -22.512,-8.953 -60.171,29.66 -13.371,-6.027"
       style="fill:#ffffff;fill-opacity:1;fill-rule:nonzero;stroke:none"
       transform="matrix(0.13333333,0,0,-0.13333333,0,27.52)" />
    <path
       id="path9"
       d="m 378.352,192.883 59.976,-4.582 -7.723,-23.641 -12.722,7.488 -123.32,-28.828 -24.125,12.793 124.003,28.059 -16.089,8.711"
       style="fill:#ffffff;fill-opacity:1;fill-rule:nonzero;stroke:none"
       transform="matrix(0.13333333,0,0,-0.13333333,0,27.52)" />
    <path
       id="path10"
       d="m 117.441,92.5508 -55.5074,8.8472 6.6523,24.754 13.7969,-8.593 124.8832,25.461 23.797,-13.352 -127.594,-26.98 13.972,-10.1372"
       style="fill:#ffffff;fill-opacity:1;fill-rule:nonzero;stroke:none"
       transform="matrix(0.13333333,0,0,-0.13333333,0,27.52)" />
    <path
       id="path11"
       d="m 31.3555,32.168 h 76.25 v 31.25 h -76.25 z"
       style="fill:#ffffff;fill-opacity:1;fill-rule:nonzero;stroke:none"
       transform="matrix(0.13333333,0,0,-0.13333333,0,27.52)" />
    <path
       id="path12"
       d="m 256.086,32.168 h 76.25 v 31.25 h -76.25 z"
       style="fill:#ffffff;fill-opacity:1;fill-rule:nonzero;stroke:none"
       transform="matrix(0.13333333,0,0,-0.13333333,0,27.52)" />
  </g>
</svg>
