<?xml version="1.0" encoding="UTF-8" standalone="no"?>
<!-- Created with Inkscape (http://www.inkscape.org/) -->

<svg
   version="1.1"
   id="svg1"
   width="65.053329"
   height="32.32"
   viewBox="0 0 65.053329 32.32"
   sodipodi:docname="cddi-fddi.eps"
   xmlns:inkscape="http://www.inkscape.org/namespaces/inkscape"
   xmlns:sodipodi="http://sodipodi.sourceforge.net/DTD/sodipodi-0.dtd"
   xmlns="http://www.w3.org/2000/svg"
   xmlns:svg="http://www.w3.org/2000/svg">
  <defs
     id="defs1">
    <clipPath
       clipPathUnits="userSpaceOnUse"
       id="clipPath2">
      <path
         d="M 0,2 V 242 H 488 V 2 Z"
         id="path2" />
    </clipPath>
    <clipPath
       clipPathUnits="userSpaceOnUse"
       id="clipPath4">
      <path
         d="M 0,2 V 242 H 488 V 2 Z"
         id="path4" />
    </clipPath>
    <clipPath
       clipPathUnits="userSpaceOnUse"
       id="clipPath6">
      <path
         d="M 0,2 V 242 H 488 V 2 Z"
         id="path6" />
    </clipPath>
    <clipPath
       clipPathUnits="userSpaceOnUse"
       id="clipPath8">
      <path
         d="M 0,2 V 242 H 488 V 2 Z"
         id="path8" />
    </clipPath>
    <clipPath
       clipPathUnits="userSpaceOnUse"
       id="clipPath10">
      <path
         d="M 0,2 V 242 H 488 V 2 Z"
         id="path10" />
    </clipPath>
    <clipPath
       clipPathUnits="userSpaceOnUse"
       id="clipPath12">
      <path
         d="M 0,2 V 242 H 488 V 2 Z"
         id="path12" />
    </clipPath>
    <clipPath
       clipPathUnits="userSpaceOnUse"
       id="clipPath14">
      <path
         d="M 0,2 V 242 H 488 V 2 Z"
         id="path14" />
    </clipPath>
    <clipPath
       clipPathUnits="userSpaceOnUse"
       id="clipPath16">
      <path
         d="M 0,2 V 242 H 488 V 2 Z"
         id="path16" />
    </clipPath>
    <clipPath
       clipPathUnits="userSpaceOnUse"
       id="clipPath18">
      <path
         d="M 0,2 V 242 H 488 V 2 Z"
         id="path18" />
    </clipPath>
    <clipPath
       clipPathUnits="userSpaceOnUse"
       id="clipPath20">
      <path
         d="M 0,2 V 242 H 488 V 2 Z"
         id="path20" />
    </clipPath>
  </defs>
  <sodipodi:namedview
     id="namedview1"
     pagecolor="#505050"
     bordercolor="#eeeeee"
     borderopacity="1"
     inkscape:showpageshadow="0"
     inkscape:pageopacity="0"
     inkscape:pagecheckerboard="0"
     inkscape:deskcolor="#d1d1d1">
    <inkscape:page
       x="0"
       y="0"
       inkscape:label="1"
       id="page1"
       width="65.053329"
       height="32.32"
       margin="0"
       bleed="0" />
  </sodipodi:namedview>
  <g
     id="g1"
     inkscape:groupmode="layer"
     inkscape:label="1">
    <path
       id="path1"
       d="M 5.65625,121.066 149.941,237.676 H 483.035 L 363.645,121.066 H 5.65625"
       style="fill:#087bbb;fill-opacity:1;fill-rule:nonzero;stroke:none"
       transform="matrix(0.13333333,0,0,-0.13333333,0,32.32)"
       clip-path="url(#clipPath2)" />
    <path
       id="path3"
       d="M 5.65625,121.066 149.941,237.676 h 333.094 l -119.39,-116.61 z"
       style="fill:none;stroke:#ffffff;stroke-width:3.99994;stroke-linecap:butt;stroke-linejoin:miter;stroke-miterlimit:4;stroke-dasharray:none;stroke-opacity:1"
       transform="matrix(0.13333333,0,0,-0.13333333,0,32.32)"
       clip-path="url(#clipPath4)" />
    <path
       id="path5"
       d="M 363.645,5.10938 483.035,134.031 V 237.676 L 363.645,121.066 V 5.10938"
       style="fill:#087bbb;fill-opacity:1;fill-rule:nonzero;stroke:none"
       transform="matrix(0.13333333,0,0,-0.13333333,0,32.32)"
       clip-path="url(#clipPath6)" />
    <path
       id="path7"
       d="M 363.645,5.10938 483.035,134.031 v 103.645 l -119.39,-116.61 z"
       style="fill:none;stroke:#ffffff;stroke-width:3.99994;stroke-linecap:butt;stroke-linejoin:miter;stroke-miterlimit:4;stroke-dasharray:none;stroke-opacity:1"
       transform="matrix(0.13333333,0,0,-0.13333333,0,32.32)"
       clip-path="url(#clipPath8)" />
    <path
       id="path9"
       d="m 6.14453,5 h 357.5 v 116.066 h -357.5 z"
       style="fill:#087bbb;fill-opacity:1;fill-rule:nonzero;stroke:none"
       transform="matrix(0.13333333,0,0,-0.13333333,0,32.32)"
       clip-path="url(#clipPath10)" />
    <path
       id="path11"
       d="M 363.645,5 V 121.066 H 6.14453 L 6.14453,5 Z"
       style="fill:none;stroke:#ffffff;stroke-width:3.99994;stroke-linecap:butt;stroke-linejoin:miter;stroke-miterlimit:4;stroke-dasharray:none;stroke-opacity:1"
       transform="matrix(0.13333333,0,0,-0.13333333,0,32.32)"
       clip-path="url(#clipPath12)" />
    <path
       id="path13"
       d="m 310.898,219.992 c -83.503,3.418 -178.847,-13.418 -212.9566,-37.597 -34.1016,-24.18 5.9376,-46.543 89.4416,-49.946 83.496,-3.418 178.84,13.422 212.949,37.602 34.109,24.179 -5.937,46.543 -89.434,49.941"
       style="fill:#087bbb;fill-opacity:1;fill-rule:nonzero;stroke:none"
       transform="matrix(0.13333333,0,0,-0.13333333,0,32.32)"
       clip-path="url(#clipPath14)" />
    <path
       id="path15"
       d="m 310.898,219.992 c -83.503,3.418 -178.847,-13.418 -212.9566,-37.597 -34.1016,-24.18 5.9376,-46.543 89.4416,-49.946 83.496,-3.418 178.84,13.422 212.949,37.602 34.109,24.179 -5.937,46.543 -89.434,49.941 z"
       style="fill:none;stroke:#ffffff;stroke-width:3.99994;stroke-linecap:butt;stroke-linejoin:miter;stroke-miterlimit:4;stroke-dasharray:none;stroke-opacity:1"
       transform="matrix(0.13333333,0,0,-0.13333333,0,32.32)"
       clip-path="url(#clipPath16)" />
    <path
       id="path17"
       d="m 295.945,201.652 c -68.465,2.157 -145.175,-7.714 -171.304,-22.05 -26.1449,-14.336 8.172,-27.715 76.648,-29.883 68.477,-2.16 145.176,7.715 171.309,22.051 26.14,14.335 -8.172,27.714 -76.653,29.882"
       style="fill:#087bbb;fill-opacity:1;fill-rule:nonzero;stroke:none"
       transform="matrix(0.13333333,0,0,-0.13333333,0,32.32)"
       clip-path="url(#clipPath18)" />
    <path
       id="path19"
       d="m 295.945,201.652 c -68.465,2.157 -145.175,-7.714 -171.304,-22.05 -26.1449,-14.336 8.172,-27.715 76.648,-29.883 68.477,-2.16 145.176,7.715 171.309,22.051 26.14,14.335 -8.172,27.714 -76.653,29.882 z"
       style="fill:none;stroke:#ffffff;stroke-width:3.99994;stroke-linecap:butt;stroke-linejoin:miter;stroke-miterlimit:4;stroke-dasharray:none;stroke-opacity:1"
       transform="matrix(0.13333333,0,0,-0.13333333,0,32.32)"
       clip-path="url(#clipPath20)" />
  </g>
</svg>
