<?xml version="1.0" encoding="UTF-8" standalone="no"?>
<!-- Created with Inkscape (http://www.inkscape.org/) -->

<svg
   version="1.1"
   id="svg1"
   width="59.293331"
   height="38.599998"
   viewBox="0 0 59.293331 38.599998"
   sodipodi:docname="cdm.eps"
   xmlns:inkscape="http://www.inkscape.org/namespaces/inkscape"
   xmlns:sodipodi="http://sodipodi.sourceforge.net/DTD/sodipodi-0.dtd"
   xmlns="http://www.w3.org/2000/svg"
   xmlns:svg="http://www.w3.org/2000/svg">
  <defs
     id="defs1">
    <clipPath
       clipPathUnits="userSpaceOnUse"
       id="clipPath2">
      <path
         d="M 0,289 H 440 V 0 H 0 Z"
         id="path2" />
    </clipPath>
    <clipPath
       clipPathUnits="userSpaceOnUse"
       id="clipPath4">
      <path
         d="M 0,289 H 440 V 0 H 0 Z"
         id="path4" />
    </clipPath>
    <clipPath
       clipPathUnits="userSpaceOnUse"
       id="clipPath6">
      <path
         d="M 0,289 H 440 V 0 H 0 Z"
         id="path6" />
    </clipPath>
    <clipPath
       clipPathUnits="userSpaceOnUse"
       id="clipPath8">
      <path
         d="M 0,289 H 440 V 0 H 0 Z"
         id="path8" />
    </clipPath>
    <clipPath
       clipPathUnits="userSpaceOnUse"
       id="clipPath10">
      <path
         d="M 0,289 H 440 V 0 H 0 Z"
         id="path10" />
    </clipPath>
    <clipPath
       clipPathUnits="userSpaceOnUse"
       id="clipPath12">
      <path
         d="M 0,289 H 440 V 0 H 0 Z"
         id="path12" />
    </clipPath>
    <clipPath
       clipPathUnits="userSpaceOnUse"
       id="clipPath14">
      <path
         d="M 0,289 H 440 V 0 H 0 Z"
         id="path14" />
    </clipPath>
    <clipPath
       clipPathUnits="userSpaceOnUse"
       id="clipPath16">
      <path
         d="M 0,289 H 440 V 0 H 0 Z"
         id="path16" />
    </clipPath>
    <clipPath
       clipPathUnits="userSpaceOnUse"
       id="clipPath18">
      <path
         d="M 0,289 H 440 V 0 H 0 Z"
         id="path18" />
    </clipPath>
    <clipPath
       clipPathUnits="userSpaceOnUse"
       id="clipPath20">
      <path
         d="M 0,289 H 440 V 0 H 0 Z"
         id="path20" />
    </clipPath>
    <clipPath
       clipPathUnits="userSpaceOnUse"
       id="clipPath22">
      <path
         d="M 0,289 H 440 V 0 H 0 Z"
         id="path22" />
    </clipPath>
    <clipPath
       clipPathUnits="userSpaceOnUse"
       id="clipPath24">
      <path
         d="M 0,289 H 440 V 0 H 0 Z"
         id="path24" />
    </clipPath>
    <clipPath
       clipPathUnits="userSpaceOnUse"
       id="clipPath26">
      <path
         d="M 0,289 H 440 V 0 H 0 Z"
         id="path26" />
    </clipPath>
    <clipPath
       clipPathUnits="userSpaceOnUse"
       id="clipPath28">
      <path
         d="M 0,289 H 440 V 0 H 0 Z"
         id="path28" />
    </clipPath>
    <clipPath
       clipPathUnits="userSpaceOnUse"
       id="clipPath30">
      <path
         d="M 0,289 H 440 V 0 H 0 Z"
         id="path30" />
    </clipPath>
    <clipPath
       clipPathUnits="userSpaceOnUse"
       id="clipPath32">
      <path
         d="M 0,289 H 440 V 0 H 0 Z"
         id="path32" />
    </clipPath>
    <clipPath
       clipPathUnits="userSpaceOnUse"
       id="clipPath34">
      <path
         d="M 0,289 H 440 V 0 H 0 Z"
         id="path34" />
    </clipPath>
    <clipPath
       clipPathUnits="userSpaceOnUse"
       id="clipPath36">
      <path
         d="M 0,289 H 440 V 0 H 0 Z"
         id="path36" />
    </clipPath>
  </defs>
  <sodipodi:namedview
     id="namedview1"
     pagecolor="#505050"
     bordercolor="#eeeeee"
     borderopacity="1"
     inkscape:showpageshadow="0"
     inkscape:pageopacity="0"
     inkscape:pagecheckerboard="0"
     inkscape:deskcolor="#d1d1d1">
    <inkscape:page
       x="0"
       y="0"
       inkscape:label="1"
       id="page1"
       width="59.293331"
       height="38.599998"
       margin="0"
       bleed="0" />
  </sodipodi:namedview>
  <g
     id="g1"
     inkscape:groupmode="layer"
     inkscape:label="1">
    <path
       id="path1"
       d="m 6.0625,7.36328 h 332.199 v 180.82 H 6.0625 Z"
       style="fill:#087bbb;fill-opacity:1;fill-rule:nonzero;stroke:none"
       transform="matrix(0.13333333,0,0,-0.13333333,0,38.6)"
       clip-path="url(#clipPath2)" />
    <path
       id="path3"
       d="M 6.0625,188.184 V 7.36328 H 338.262 V 188.184"
       style="fill:none;stroke:#ffffff;stroke-width:3.99994;stroke-linecap:butt;stroke-linejoin:miter;stroke-miterlimit:4;stroke-dasharray:none;stroke-opacity:1"
       transform="matrix(0.13333333,0,0,-0.13333333,0,38.6)"
       clip-path="url(#clipPath4)" />
    <path
       id="path5"
       d="m 213.816,108.75 c 0,-6.203 -16.597,-11.2422 -37.086,-11.2422 -20.5,0 -37.101,5.0392 -37.101,11.2422 V 62.2656 c 0,-6.2109 16.601,-11.25 37.101,-11.25 20.489,0 37.086,5.0391 37.086,11.25 V 108.75"
       style="fill:#ffffff;fill-opacity:1;fill-rule:nonzero;stroke:none"
       transform="matrix(0.13333333,0,0,-0.13333333,0,38.6)"
       clip-path="url(#clipPath6)" />
    <path
       id="path7"
       d="m 176.68,97.5078 c 20.488,0 37.09,5.0392 37.09,11.2422 0,6.219 -16.602,11.25 -37.09,11.25 -20.496,0 -37.102,-5.031 -37.102,-11.25 0,-6.203 16.606,-11.2422 37.102,-11.2422"
       style="fill:#087bbb;fill-opacity:1;fill-rule:nonzero;stroke:none"
       transform="matrix(0.13333333,0,0,-0.13333333,0,38.6)"
       clip-path="url(#clipPath8)" />
    <path
       id="path9"
       d="m 176.68,97.5078 c 20.488,0 37.09,5.0392 37.09,11.2422 0,6.219 -16.602,11.25 -37.09,11.25 -20.496,0 -37.102,-5.031 -37.102,-11.25 0,-6.203 16.606,-11.2422 37.102,-11.2422 z"
       style="fill:none;stroke:#ffffff;stroke-width:8.00003;stroke-linecap:butt;stroke-linejoin:miter;stroke-miterlimit:4;stroke-dasharray:none;stroke-opacity:1"
       transform="matrix(0.13333333,0,0,-0.13333333,0,38.6)"
       clip-path="url(#clipPath10)" />
    <path
       id="path11"
       d="m 176.73,45.4961 c 20.489,0 37.086,5.0312 37.086,11.2422 0,6.2109 -16.597,11.2383 -37.086,11.2383 -20.5,0 -37.101,-5.0274 -37.101,-11.2383 0,-6.211 16.601,-11.2422 37.101,-11.2422"
       style="fill:#ffffff;fill-opacity:1;fill-rule:nonzero;stroke:none"
       transform="matrix(0.13333333,0,0,-0.13333333,0,38.6)"
       clip-path="url(#clipPath12)" />
    <path
       id="path13"
       d="m 176.73,45.4961 c 20.489,0 37.086,5.0312 37.086,11.2422 0,6.2109 -16.597,11.2383 -37.086,11.2383 -20.5,0 -37.101,-5.0274 -37.101,-11.2383 0,-6.211 16.601,-11.2422 37.101,-11.2422 z"
       style="fill:none;stroke:#ffffff;stroke-width:8.00003;stroke-linecap:butt;stroke-linejoin:miter;stroke-miterlimit:4;stroke-dasharray:none;stroke-opacity:1"
       transform="matrix(0.13333333,0,0,-0.13333333,0,38.6)"
       clip-path="url(#clipPath14)" />
    <path
       id="path15"
       d="M 5.65625,188.184 128.289,287.363 H 439.758 L 338.262,188.184 H 5.65625"
       style="fill:#087bbb;fill-opacity:1;fill-rule:nonzero;stroke:none"
       transform="matrix(0.13333333,0,0,-0.13333333,0,38.6)"
       clip-path="url(#clipPath16)" />
    <path
       id="path17"
       d="M 5.65625,188.184 128.289,287.363 H 439.758 L 338.262,188.184 Z"
       style="fill:none;stroke:#ffffff;stroke-width:3.99994;stroke-linecap:butt;stroke-linejoin:miter;stroke-miterlimit:4;stroke-dasharray:none;stroke-opacity:1"
       transform="matrix(0.13333333,0,0,-0.13333333,0,38.6)"
       clip-path="url(#clipPath18)" />
    <path
       id="path19"
       d="M 338.262,185.742 V 5 L 439.758,111.543 V 284.734 L 338.262,185.742"
       style="fill:#087bbb;fill-opacity:1;fill-rule:nonzero;stroke:none"
       transform="matrix(0.13333333,0,0,-0.13333333,0,38.6)"
       clip-path="url(#clipPath20)" />
    <path
       id="path21"
       d="M 338.262,185.742 V 5 l 101.496,106.543 v 173.191 z"
       style="fill:none;stroke:#ffffff;stroke-width:3.99994;stroke-linecap:butt;stroke-linejoin:miter;stroke-miterlimit:4;stroke-dasharray:none;stroke-opacity:1"
       transform="matrix(0.13333333,0,0,-0.13333333,0,38.6)"
       clip-path="url(#clipPath22)" />
    <path
       id="path23"
       d="M 294.504,89.9609 233.73,89.9297 v 9.6601 l 60.774,0.0274 0.016,15.0898 35.199,-19.9218 -35.199,-19.9336 -0.016,15.1093"
       style="fill:#ffffff;fill-opacity:1;fill-rule:nonzero;stroke:none"
       transform="matrix(0.13333333,0,0,-0.13333333,0,38.6)"
       clip-path="url(#clipPath24)" />
    <path
       id="path25"
       d="m 284.016,138.652 -50.95,-33.136 -5.261,8.097 50.945,33.145 -8.203,12.656 40.383,2.461 -18.664,-35.879 -8.25,12.656"
       style="fill:#ffffff;fill-opacity:1;fill-rule:nonzero;stroke:none"
       transform="matrix(0.13333333,0,0,-0.13333333,0,38.6)"
       clip-path="url(#clipPath26)" />
    <path
       id="path27"
       d="M 284.016,51.5117 233.066,84.6484 227.805,76.543 278.75,43.4063 270.547,30.7539 310.93,28.2813 292.266,64.168 284.016,51.5117"
       style="fill:#ffffff;fill-opacity:1;fill-rule:nonzero;stroke:none"
       transform="matrix(0.13333333,0,0,-0.13333333,0,38.6)"
       clip-path="url(#clipPath28)" />
    <path
       id="path29"
       d="m 51.9531,89.9609 60.7619,-0.0312 v 9.6601 L 51.9531,99.6172 51.9219,114.707 16.7266,94.7852 51.9219,74.8516 51.9531,89.9609"
       style="fill:#ffffff;fill-opacity:1;fill-rule:nonzero;stroke:none"
       transform="matrix(0.13333333,0,0,-0.13333333,0,38.6)"
       clip-path="url(#clipPath30)" />
    <path
       id="path31"
       d="m 180.488,166.238 0.032,21.817 h -9.661 l -0.039,-21.817 -15.09,-0.019 19.922,-35.196 19.946,35.196 -15.11,0.019"
       style="fill:#ffffff;fill-opacity:1;fill-rule:nonzero;stroke:none"
       transform="matrix(0.13333333,0,0,-0.13333333,0,38.6)"
       clip-path="url(#clipPath32)" />
    <path
       id="path33"
       d="m 62.4297,138.652 50.9493,-33.136 5.242,8.097 -50.9257,33.145 8.2031,12.656 -40.3789,2.461 18.6797,-35.879 8.2305,12.656"
       style="fill:#ffffff;fill-opacity:1;fill-rule:nonzero;stroke:none"
       transform="matrix(0.13333333,0,0,-0.13333333,0,38.6)"
       clip-path="url(#clipPath34)" />
    <path
       id="path35"
       d="M 62.4297,51.5117 113.379,84.6484 118.621,76.543 67.6953,43.4063 75.8984,30.7539 35.5195,28.2813 54.1992,64.168 62.4297,51.5117"
       style="fill:#ffffff;fill-opacity:1;fill-rule:nonzero;stroke:none"
       transform="matrix(0.13333333,0,0,-0.13333333,0,38.6)"
       clip-path="url(#clipPath36)" />
  </g>
</svg>
