<?xml version="1.0" encoding="UTF-8" standalone="no"?>
<!-- Created with Inkscape (http://www.inkscape.org/) -->

<svg
   version="1.1"
   id="svg1"
   width="48.893333"
   height="42.453335"
   viewBox="0 0 48.893333 42.453335"
   sodipodi:docname="cisco unityexpress.eps"
   xmlns:inkscape="http://www.inkscape.org/namespaces/inkscape"
   xmlns:sodipodi="http://sodipodi.sourceforge.net/DTD/sodipodi-0.dtd"
   xmlns="http://www.w3.org/2000/svg"
   xmlns:svg="http://www.w3.org/2000/svg">
  <defs
     id="defs1" />
  <sodipodi:namedview
     id="namedview1"
     pagecolor="#505050"
     bordercolor="#eeeeee"
     borderopacity="1"
     inkscape:showpageshadow="0"
     inkscape:pageopacity="0"
     inkscape:pagecheckerboard="0"
     inkscape:deskcolor="#d1d1d1">
    <inkscape:page
       x="0"
       y="0"
       inkscape:label="1"
       id="page1"
       width="48.893333"
       height="42.453335"
       margin="0"
       bleed="0" />
  </sodipodi:namedview>
  <g
     id="g1"
     inkscape:groupmode="layer"
     inkscape:label="1">
    <path
       id="path1"
       d="m 364.746,245.836 c 0,-38.957 -81.199,-70.539 -181.375,-70.539 -100.1679,0 -181.36709,31.582 -181.36709,70.539 V 72.5195 c 0,-38.9453 81.19919,-70.52731 181.36709,-70.52731 100.176,0 181.375,31.58201 181.375,70.52731 V 245.836"
       style="fill:#036897;fill-opacity:1;fill-rule:nonzero;stroke:none"
       transform="matrix(0.13333333,0,0,-0.13333333,0,42.453333)" />
    <path
       id="path2"
       d="m 364.746,245.836 c 0,-38.957 -81.199,-70.539 -181.375,-70.539 -100.1679,0 -181.36709,31.582 -181.36709,70.539 V 72.5195 c 0,-38.9453 81.19919,-70.52731 181.36709,-70.52731 100.176,0 181.375,31.58201 181.375,70.52731 z"
       style="fill:none;stroke:#ffffff;stroke-width:4;stroke-linecap:butt;stroke-linejoin:miter;stroke-miterlimit:4;stroke-dasharray:none;stroke-opacity:1"
       transform="matrix(0.13333333,0,0,-0.13333333,0,42.453333)" />
    <path
       id="path3"
       d="m 183.371,175.297 c 100.176,0 181.375,31.582 181.375,70.539 0,38.953 -81.199,70.527 -181.375,70.527 -100.1679,0 -181.36709,-31.574 -181.36709,-70.527 0,-38.957 81.19919,-70.539 181.36709,-70.539"
       style="fill:#036897;fill-opacity:1;fill-rule:nonzero;stroke:none"
       transform="matrix(0.13333333,0,0,-0.13333333,0,42.453333)" />
    <path
       id="path4"
       d="m 183.371,175.297 c 100.176,0 181.375,31.582 181.375,70.539 0,38.953 -81.199,70.527 -181.375,70.527 -100.1679,0 -181.36709,-31.574 -181.36709,-70.527 0,-38.957 81.19919,-70.539 181.36709,-70.539 z"
       style="fill:none;stroke:#ffffff;stroke-width:4;stroke-linecap:butt;stroke-linejoin:miter;stroke-miterlimit:4;stroke-dasharray:none;stroke-opacity:1"
       transform="matrix(0.13333333,0,0,-0.13333333,0,42.453333)" />
    <path
       id="path5"
       d="m 143.664,274.086 15.195,-22.793 -57.433,-13.27 12.551,10.457 -88.7426,15.168 22.2578,16.688 85.6448,-14.5 10.527,8.25"
       style="fill:#ffffff;fill-opacity:1;fill-rule:nonzero;stroke:none"
       transform="matrix(0.13333333,0,0,-0.13333333,0,42.453333)" />
    <path
       id="path6"
       d="m 224.465,218.832 -10.352,23.488 51.793,10.36 -8.98,-8.055 86.328,-14.738 -20.715,-16.571 -85.809,16.102 -12.265,-10.586"
       style="fill:#ffffff;fill-opacity:1;fill-rule:nonzero;stroke:none"
       transform="matrix(0.13333333,0,0,-0.13333333,0,42.453333)" />
    <path
       id="path7"
       d="m 196.152,286.52 58.008,15.878 0.695,-24.863 -14.503,2.762 -28.309,-23.477 -27.023,3.938 29.218,22.976 -18.086,2.786"
       style="fill:#ffffff;fill-opacity:1;fill-rule:nonzero;stroke:none"
       transform="matrix(0.13333333,0,0,-0.13333333,0,42.453333)" />
    <path
       id="path8"
       d="m 171.289,197.426 -55.242,-10.36 -2.082,25.555 15.89,-3.457 30.411,25.977 26.914,-4.559 -32.461,-28.32 16.57,-4.836"
       style="fill:#ffffff;fill-opacity:1;fill-rule:nonzero;stroke:none"
       transform="matrix(0.13333333,0,0,-0.13333333,0,42.453333)" />
    <path
       id="path9"
       d="M 335.254,48.7305 V 110.781 L 297.871,80.9766 Z"
       style="fill:#ffffff;fill-opacity:1;fill-rule:nonzero;stroke:#000000;stroke-width:3;stroke-linecap:butt;stroke-linejoin:miter;stroke-miterlimit:4;stroke-dasharray:none;stroke-opacity:1"
       transform="matrix(0.13333333,0,0,-0.13333333,0,42.453333)" />
    <path
       id="path10"
       d="M 32.6797,48.4766 V 110.527 L 70.043,80.7227 Z"
       style="fill:#ffffff;fill-opacity:1;fill-rule:nonzero;stroke:#000000;stroke-width:3;stroke-linecap:butt;stroke-linejoin:miter;stroke-miterlimit:4;stroke-dasharray:none;stroke-opacity:1"
       transform="matrix(0.13333333,0,0,-0.13333333,0,42.453333)" />
    <path
       id="path11"
       d="M 57.7578,171.672 V 109.59 L 20.375,139.395 Z"
       style="fill:#ffffff;fill-opacity:1;fill-rule:nonzero;stroke:#000000;stroke-width:3;stroke-linecap:butt;stroke-linejoin:miter;stroke-miterlimit:4;stroke-dasharray:none;stroke-opacity:1"
       transform="matrix(0.13333333,0,0,-0.13333333,0,42.453333)" />
    <path
       id="path12"
       d="m 307.344,171.926 v -62.082 l 37.383,29.804 z"
       style="fill:#ffffff;fill-opacity:1;fill-rule:nonzero;stroke:#000000;stroke-width:3;stroke-linecap:butt;stroke-linejoin:miter;stroke-miterlimit:4;stroke-dasharray:none;stroke-opacity:1"
       transform="matrix(0.13333333,0,0,-0.13333333,0,42.453333)" />
    <path
       id="path13"
       d="M 315.449,141.68 H 292.891"
       style="fill:none;stroke:#ffffff;stroke-width:7.6;stroke-linecap:butt;stroke-linejoin:miter;stroke-miterlimit:4;stroke-dasharray:none;stroke-opacity:1"
       transform="matrix(0.13333333,0,0,-0.13333333,0,42.453333)" />
    <path
       id="path14"
       d="m 323.34,81.4844 h 28.242"
       style="fill:none;stroke:#ffffff;stroke-width:7.6;stroke-linecap:butt;stroke-linejoin:miter;stroke-miterlimit:4;stroke-dasharray:none;stroke-opacity:1"
       transform="matrix(0.13333333,0,0,-0.13333333,0,42.453333)" />
    <path
       id="path15"
       d="M 42.6797,81.2305 H 12.5938"
       style="fill:none;stroke:#ffffff;stroke-width:7.6;stroke-linecap:butt;stroke-linejoin:miter;stroke-miterlimit:4;stroke-dasharray:none;stroke-opacity:1"
       transform="matrix(0.13333333,0,0,-0.13333333,0,42.453333)" />
    <path
       id="path16"
       d="M 43.9688,139.531 H 72.2109"
       style="fill:none;stroke:#ffffff;stroke-width:7.6;stroke-linecap:butt;stroke-linejoin:miter;stroke-miterlimit:4;stroke-dasharray:none;stroke-opacity:1"
       transform="matrix(0.13333333,0,0,-0.13333333,0,42.453333)" />
    <path
       id="path17"
       d="M 263.613,122.57 263.438,11.0352 H 100.801 L 100.648,122.57 h 162.965"
       style="fill:#ffffff;fill-opacity:1;fill-rule:nonzero;stroke:none"
       transform="matrix(0.13333333,0,0,-0.13333333,0,42.453333)" />
    <path
       id="path18"
       d="M 263.613,122.57 263.438,11.0352 H 100.801 L 100.648,122.57 Z"
       style="fill:none;stroke:#000000;stroke-width:3;stroke-linecap:butt;stroke-linejoin:miter;stroke-miterlimit:4;stroke-dasharray:none;stroke-opacity:1"
       transform="matrix(0.13333333,0,0,-0.13333333,0,42.453333)" />
    <path
       id="path19"
       d="m 225.371,153.57 c 0,0 6.387,0.715 7.832,-5.679 l 1.406,-20.586 42.657,-7.117 4.257,9.246 -10.683,25.562 c -54.707,13.496 -107.285,9.234 -107.285,9.234 h 2.113 c 0,0 -19.18,4.262 -73.918,-9.234 l -10.6445,-25.562 4.25,-9.246 42.6645,7.117 1.41,20.586 c 1.402,6.394 7.82,5.679 7.82,5.679 h 88.121"
       style="fill:#ffffff;fill-opacity:1;fill-rule:nonzero;stroke:none"
       transform="matrix(0.13333333,0,0,-0.13333333,0,42.453333)" />
    <path
       id="path20"
       d="m 225.371,153.57 c 0,0 6.387,0.715 7.832,-5.679 l 1.406,-20.586 42.657,-7.117 4.257,9.246 -10.683,25.562 c -54.707,13.496 -107.285,9.234 -107.285,9.234 h 2.113 c 0,0 -19.18,4.262 -73.918,-9.234 l -10.6445,-25.562 4.25,-9.246 42.6645,7.117 1.41,20.586 c 1.402,6.394 7.82,5.679 7.82,5.679 z"
       style="fill:none;stroke:#000000;stroke-width:3;stroke-linecap:butt;stroke-linejoin:miter;stroke-miterlimit:4;stroke-dasharray:none;stroke-opacity:1"
       transform="matrix(0.13333333,0,0,-0.13333333,0,42.453333)" />
    <path
       id="path21"
       d="M 255.703,116.242 255.547,96.1602 H 109.176 l -0.137,20.0818 h 146.664"
       style="fill:#ffffff;fill-opacity:1;fill-rule:nonzero;stroke:none"
       transform="matrix(0.13333333,0,0,-0.13333333,0,42.453333)" />
    <path
       id="path22"
       d="M 255.703,116.242 255.547,96.1602 H 109.176 l -0.137,20.0818 z"
       style="fill:none;stroke:#000000;stroke-width:3;stroke-linecap:butt;stroke-linejoin:miter;stroke-miterlimit:4;stroke-dasharray:none;stroke-opacity:1"
       transform="matrix(0.13333333,0,0,-0.13333333,0,42.453333)" />
    <path
       id="path23"
       d="M 254.297,87.5391 254.16,18.1445 H 109.801 l -0.113,69.3946 h 144.609"
       style="fill:#ffffff;fill-opacity:1;fill-rule:nonzero;stroke:none"
       transform="matrix(0.13333333,0,0,-0.13333333,0,42.453333)" />
    <path
       id="path24"
       d="M 254.297,87.5391 254.16,18.1445 H 109.801 l -0.113,69.3946 z"
       style="fill:none;stroke:#020202;stroke-width:3;stroke-linecap:butt;stroke-linejoin:miter;stroke-miterlimit:4;stroke-dasharray:none;stroke-opacity:1"
       transform="matrix(0.13333333,0,0,-0.13333333,0,42.453333)" />
    <path
       id="path25"
       d="M 243.77,23.6719 H 120.5 v 60.4297 h 123.27 z"
       style="fill:none;stroke:#030303;stroke-width:2.521;stroke-linecap:butt;stroke-linejoin:miter;stroke-miterlimit:4;stroke-dasharray:none;stroke-opacity:1"
       transform="matrix(0.13333333,0,0,-0.13333333,0,42.453333)" />
    <path
       id="path26"
       d="M 109.688,87.5391 184.68,49.5898 254.297,87.5391 Z"
       style="fill:#ffffff;fill-opacity:1;fill-rule:nonzero;stroke:#020202;stroke-width:2.521;stroke-linecap:butt;stroke-linejoin:miter;stroke-miterlimit:4;stroke-dasharray:none;stroke-opacity:1"
       transform="matrix(0.13333333,0,0,-0.13333333,0,42.453333)" />
  </g>
</svg>
