<?xml version="1.0" encoding="UTF-8" standalone="no"?>
<!-- Created with Inkscape (http://www.inkscape.org/) -->

<svg
   version="1.1"
   id="svg1"
   width="38.773335"
   height="43.213333"
   viewBox="0 0 38.773335 43.213333"
   sodipodi:docname="cisco asa 5500.eps"
   xmlns:inkscape="http://www.inkscape.org/namespaces/inkscape"
   xmlns:sodipodi="http://sodipodi.sourceforge.net/DTD/sodipodi-0.dtd"
   xmlns="http://www.w3.org/2000/svg"
   xmlns:svg="http://www.w3.org/2000/svg">
  <defs
     id="defs1" />
  <sodipodi:namedview
     id="namedview1"
     pagecolor="#505050"
     bordercolor="#eeeeee"
     borderopacity="1"
     inkscape:showpageshadow="0"
     inkscape:pageopacity="0"
     inkscape:pagecheckerboard="0"
     inkscape:deskcolor="#d1d1d1">
    <inkscape:page
       x="0"
       y="0"
       inkscape:label="1"
       id="page1"
       width="38.773335"
       height="43.213333"
       margin="0"
       bleed="0" />
  </sodipodi:namedview>
  <g
     id="g1"
     inkscape:groupmode="layer"
     inkscape:label="1">
    <path
       id="path1"
       d="m 5.8125,3.81641 h 236.648 v 95.0781 H 5.8125 Z"
       style="fill:#000000;fill-opacity:1;fill-rule:nonzero;stroke:none"
       transform="matrix(0.13333333,0,0,-0.13333333,0,43.213333)" />
    <path
       id="path2"
       d="M 5.8125,98.8945 V 3.81641 H 242.461 V 98.8945"
       style="fill:none;stroke:#ffffff;stroke-width:4;stroke-linecap:butt;stroke-linejoin:miter;stroke-miterlimit:4;stroke-dasharray:none;stroke-opacity:1"
       transform="matrix(0.13333333,0,0,-0.13333333,0,43.213333)" />
    <path
       id="path3"
       d="M 5.8125,288.547 47.1484,320.84 H 284.863 L 242.461,288.547 H 5.8125"
       style="fill:#087bbb;fill-opacity:1;fill-rule:nonzero;stroke:none"
       transform="matrix(0.13333333,0,0,-0.13333333,0,43.213333)" />
    <path
       id="path4"
       d="M 5.8125,288.547 47.1484,320.84 H 284.863 l -42.402,-32.293 z"
       style="fill:none;stroke:#ffffff;stroke-width:4;stroke-linecap:butt;stroke-linejoin:miter;stroke-miterlimit:4;stroke-dasharray:none;stroke-opacity:1"
       transform="matrix(0.13333333,0,0,-0.13333333,0,43.213333)" />
    <path
       id="path5"
       d="M 242.461,2.00391 284.863,36.2773 V 132.684 L 242.461,100.398 V 2.00391"
       style="fill:#000000;fill-opacity:1;fill-rule:nonzero;stroke:none"
       transform="matrix(0.13333333,0,0,-0.13333333,0,43.213333)" />
    <path
       id="path6"
       d="M 242.461,2.00391 284.863,36.2773 V 132.684 L 242.461,100.398 Z"
       style="fill:none;stroke:#ffffff;stroke-width:4;stroke-linecap:round;stroke-linejoin:round;stroke-miterlimit:4;stroke-dasharray:none;stroke-opacity:1"
       transform="matrix(0.13333333,0,0,-0.13333333,0,43.213333)" />
    <path
       id="path7"
       d="M 242.461,68.0547 H 5.8125"
       style="fill:none;stroke:#ffffff;stroke-width:4;stroke-linecap:round;stroke-linejoin:round;stroke-miterlimit:4;stroke-dasharray:none;stroke-opacity:1"
       transform="matrix(0.13333333,0,0,-0.13333333,0,43.213333)" />
    <path
       id="path8"
       d="M 242.461,35.2813 H 5.8125"
       style="fill:none;stroke:#ffffff;stroke-width:4;stroke-linecap:round;stroke-linejoin:round;stroke-miterlimit:4;stroke-dasharray:none;stroke-opacity:1"
       transform="matrix(0.13333333,0,0,-0.13333333,0,43.213333)" />
    <path
       id="path9"
       d="M 281.691,63.7891 244.395,34.7852"
       style="fill:none;stroke:#ffffff;stroke-width:4;stroke-linecap:round;stroke-linejoin:round;stroke-miterlimit:4;stroke-dasharray:none;stroke-opacity:1"
       transform="matrix(0.13333333,0,0,-0.13333333,0,43.213333)" />
    <path
       id="path10"
       d="M 75.8984,33.6406 V 3.89453"
       style="fill:none;stroke:#ffffff;stroke-width:4;stroke-linecap:round;stroke-linejoin:round;stroke-miterlimit:4;stroke-dasharray:none;stroke-opacity:1"
       transform="matrix(0.13333333,0,0,-0.13333333,0,43.213333)" />
    <path
       id="path11"
       d="M 167.422,33.6406 V 3.89453"
       style="fill:none;stroke:#ffffff;stroke-width:4;stroke-linecap:round;stroke-linejoin:round;stroke-miterlimit:4;stroke-dasharray:none;stroke-opacity:1"
       transform="matrix(0.13333333,0,0,-0.13333333,0,43.213333)" />
    <path
       id="path12"
       d="M 123.496,66.6094 V 36.8438"
       style="fill:none;stroke:#ffffff;stroke-width:4;stroke-linecap:round;stroke-linejoin:round;stroke-miterlimit:4;stroke-dasharray:none;stroke-opacity:1"
       transform="matrix(0.13333333,0,0,-0.13333333,0,43.213333)" />
    <path
       id="path13"
       d="M 31.9922,66.6094 V 36.8438"
       style="fill:none;stroke:#ffffff;stroke-width:4;stroke-linecap:round;stroke-linejoin:round;stroke-miterlimit:4;stroke-dasharray:none;stroke-opacity:1"
       transform="matrix(0.13333333,0,0,-0.13333333,0,43.213333)" />
    <path
       id="path14"
       d="M 215.02,66.6094 V 36.8438"
       style="fill:none;stroke:#ffffff;stroke-width:4;stroke-linecap:round;stroke-linejoin:round;stroke-miterlimit:4;stroke-dasharray:none;stroke-opacity:1"
       transform="matrix(0.13333333,0,0,-0.13333333,0,43.213333)" />
    <path
       id="path15"
       d="M 243.613,290.281 V 67.9688 H 4.60938 V 290.73 L 243.613,290.281"
       style="fill:#087bbb;fill-opacity:1;fill-rule:nonzero;stroke:none"
       transform="matrix(0.13333333,0,0,-0.13333333,0,43.213333)" />
    <path
       id="path16"
       d="M 243.613,290.281 V 67.9688 H 4.60938 V 290.73 Z"
       style="fill:none;stroke:#ffffff;stroke-width:4;stroke-linecap:butt;stroke-linejoin:miter;stroke-miterlimit:4;stroke-dasharray:none;stroke-opacity:1"
       transform="matrix(0.13333333,0,0,-0.13333333,0,43.213333)" />
    <path
       id="path17"
       d="M 283.359,102.012 V 320.066 L 242.824,289.48 V 69.3945 l 40.535,32.6175"
       style="fill:#087bbb;fill-opacity:1;fill-rule:nonzero;stroke:none"
       transform="matrix(0.13333333,0,0,-0.13333333,0,43.213333)" />
    <path
       id="path18"
       d="M 283.359,102.012 V 320.066 L 242.824,289.48 V 69.3945 Z"
       style="fill:none;stroke:#ffffff;stroke-width:4;stroke-linecap:butt;stroke-linejoin:miter;stroke-miterlimit:4;stroke-dasharray:none;stroke-opacity:1"
       transform="matrix(0.13333333,0,0,-0.13333333,0,43.213333)" />
    <path
       id="path19"
       d="M 274.406,92.9375 V 57.8008"
       style="fill:none;stroke:#ffffff;stroke-width:4;stroke-linecap:round;stroke-linejoin:round;stroke-miterlimit:4;stroke-dasharray:none;stroke-opacity:1"
       transform="matrix(0.13333333,0,0,-0.13333333,0,43.213333)" />
    <path
       id="path20"
       d="M 260.656,47.3516 V 12.2148"
       style="fill:none;stroke:#ffffff;stroke-width:4;stroke-linecap:round;stroke-linejoin:round;stroke-miterlimit:4;stroke-dasharray:none;stroke-opacity:1"
       transform="matrix(0.13333333,0,0,-0.13333333,0,43.213333)" />
    <path
       id="path21"
       d="m 50.5469,205.82 h 92.2581 v 6.239 L 163.41,199.57 142.805,186.75 v 6.227 H 50.5469 v 12.843"
       style="fill:#ffffff;fill-opacity:1;fill-rule:nonzero;stroke:none"
       transform="matrix(0.13333333,0,0,-0.13333333,0,43.213333)" />
    <path
       id="path22"
       d="m 192.512,172.82 h -77.59 v 6.243 L 94.3281,166.57 114.922,153.738 v 6.25 h 77.59 v 12.832"
       style="fill:#ffffff;fill-opacity:1;fill-rule:nonzero;stroke:none"
       transform="matrix(0.13333333,0,0,-0.13333333,0,43.213333)" />
    <path
       id="path23"
       d="m 222.266,93.7188 c -4.219,-0.4649 -8.008,2.539 -8.485,6.7422 -0.48,4.195 2.547,7.984 6.727,8.457 4.199,0.484 8,-2.523 8.496,-6.723 0.469,-4.1794 -2.559,-7.9958 -6.738,-8.4762"
       style="fill:#ffffff;fill-opacity:1;fill-rule:nonzero;stroke:none"
       transform="matrix(0.13333333,0,0,-0.13333333,0,43.213333)" />
    <path
       id="path24"
       d="m 222.266,93.7188 c -4.219,-0.4649 -8.008,2.539 -8.485,6.7422 -0.48,4.195 2.547,7.984 6.727,8.457 4.199,0.484 8,-2.523 8.496,-6.723 0.469,-4.1794 -2.559,-7.9958 -6.738,-8.4762 z"
       style="fill:none;stroke:#000000;stroke-width:2;stroke-linecap:butt;stroke-linejoin:miter;stroke-miterlimit:4;stroke-dasharray:none;stroke-opacity:1"
       transform="matrix(0.13333333,0,0,-0.13333333,0,43.213333)" />
    <path
       id="path25"
       d="m 226.953,110.184 -13.172,-16.2192 -46.926,38.1722 13.196,16.234 46.902,-38.187"
       style="fill:#ffffff;fill-opacity:1;fill-rule:nonzero;stroke:none"
       transform="matrix(0.13333333,0,0,-0.13333333,0,43.213333)" />
    <path
       id="path26"
       d="m 226.953,110.184 -13.172,-16.2192 -46.926,38.1722 13.196,16.234 z"
       style="fill:none;stroke:#000000;stroke-width:2;stroke-linecap:butt;stroke-linejoin:miter;stroke-miterlimit:4;stroke-dasharray:none;stroke-opacity:1"
       transform="matrix(0.13333333,0,0,-0.13333333,0,43.213333)" />
    <path
       id="path27"
       d="m 57.1875,193.719 c -4.4531,-38.789 23.4961,-73.946 62.2965,-78.387 38.789,-4.445 73.973,23.508 78.407,62.297 4.433,38.789 -23.516,73.953 -62.293,78.394 -38.8011,4.446 -73.9769,-23.515 -78.4105,-62.304 z m 9.8438,-1.114 c 3.8281,33.372 34.0737,57.403 67.4417,53.586 33.351,-3.839 57.402,-34.093 53.574,-67.453 -3.809,-33.355 -34.07,-57.39 -67.442,-53.57 -33.3472,3.828 -57.4019,34.082 -53.5737,67.437"
       style="fill:#ffffff;fill-opacity:1;fill-rule:nonzero;stroke:none"
       transform="matrix(0.13333333,0,0,-0.13333333,0,43.213333)" />
    <path
       id="path28"
       d="m 57.1875,193.719 c -4.4531,-38.789 23.4961,-73.946 62.2965,-78.387 38.789,-4.445 73.973,23.508 78.407,62.297 4.433,38.789 -23.516,73.953 -62.293,78.394 -38.8011,4.446 -73.9769,-23.515 -78.4105,-62.304 z m 9.8438,-1.114 c 3.8281,33.372 34.0737,57.403 67.4417,53.586 33.351,-3.839 57.402,-34.093 53.574,-67.453 -3.809,-33.355 -34.07,-57.39 -67.442,-53.57 -33.3472,3.828 -57.4019,34.082 -53.5737,67.437 z"
       style="fill:none;stroke:#000000;stroke-width:2;stroke-linecap:butt;stroke-linejoin:miter;stroke-miterlimit:4;stroke-dasharray:none;stroke-opacity:1"
       transform="matrix(0.13333333,0,0,-0.13333333,0,43.213333)" />
    <path
       id="path29"
       d="m 48.4766,190.613 c -4.4336,-38.785 23.5078,-73.965 62.2854,-78.398 38.801,-4.453 73.965,23.5 78.418,62.289 4.433,38.797 -23.524,73.961 -62.305,78.418 -38.7773,4.43 -73.9648,-23.539 -78.3984,-62.309 z m 9.8437,-1.133 c 3.8203,33.379 34.0742,57.422 67.4417,53.598 33.359,-3.828 57.383,-34.082 53.574,-67.453 -3.828,-33.352 -34.082,-57.395 -67.441,-53.566 -33.3481,3.812 -57.3911,34.066 -53.5747,67.421"
       style="fill:#ffffff;fill-opacity:1;fill-rule:nonzero;stroke:none"
       transform="matrix(0.13333333,0,0,-0.13333333,0,43.213333)" />
    <path
       id="path30"
       d="m 48.4766,190.613 c -4.4336,-38.785 23.5078,-73.965 62.2854,-78.398 38.801,-4.453 73.965,23.5 78.418,62.289 4.433,38.797 -23.524,73.961 -62.305,78.418 -38.7773,4.43 -73.9648,-23.539 -78.3984,-62.309 z m 9.8437,-1.133 c 3.8203,33.379 34.0742,57.422 67.4417,53.598 33.359,-3.828 57.383,-34.082 53.574,-67.453 -3.828,-33.352 -34.082,-57.395 -67.441,-53.566 -33.3481,3.812 -57.3911,34.066 -53.5747,67.421 z"
       style="fill:none;stroke:#000000;stroke-width:2;stroke-linecap:butt;stroke-linejoin:miter;stroke-miterlimit:4;stroke-dasharray:none;stroke-opacity:1"
       transform="matrix(0.13333333,0,0,-0.13333333,0,43.213333)" />
    <path
       id="path31"
       d="m 192.512,165 h 39.207"
       style="fill:none;stroke:#ffffff;stroke-width:5;stroke-linecap:butt;stroke-linejoin:miter;stroke-miterlimit:4;stroke-dasharray:none;stroke-opacity:1"
       transform="matrix(0.13333333,0,0,-0.13333333,0,43.213333)" />
    <path
       id="path32"
       d="m 18.0977,199.59 h 39.207"
       style="fill:none;stroke:#ffffff;stroke-width:5;stroke-linecap:butt;stroke-linejoin:miter;stroke-miterlimit:4;stroke-dasharray:none;stroke-opacity:1"
       transform="matrix(0.13333333,0,0,-0.13333333,0,43.213333)" />
  </g>
</svg>
