<?xml version="1.0" encoding="UTF-8" standalone="no"?>
<!-- Created with Inkscape (http://www.inkscape.org/) -->

<svg
   version="1.1"
   id="svg1"
   width="33.599998"
   height="30.32"
   viewBox="0 0 33.599998 30.32"
   sodipodi:docname="cisco 1000.eps"
   xmlns:inkscape="http://www.inkscape.org/namespaces/inkscape"
   xmlns:sodipodi="http://sodipodi.sourceforge.net/DTD/sodipodi-0.dtd"
   xmlns="http://www.w3.org/2000/svg"
   xmlns:svg="http://www.w3.org/2000/svg">
  <defs
     id="defs1">
    <clipPath
       clipPathUnits="userSpaceOnUse"
       id="clipPath2">
      <path
         d="M 0,227 H 250 V 0 H 0 Z"
         id="path2" />
    </clipPath>
    <clipPath
       clipPathUnits="userSpaceOnUse"
       id="clipPath4">
      <path
         d="M 0,227 H 250 V 0 H 0 Z"
         id="path4" />
    </clipPath>
    <clipPath
       clipPathUnits="userSpaceOnUse"
       id="clipPath6">
      <path
         d="M 0,227 H 250 V 0 H 0 Z"
         id="path6" />
    </clipPath>
    <clipPath
       clipPathUnits="userSpaceOnUse"
       id="clipPath8">
      <path
         d="M 0,227 H 250 V 0 H 0 Z"
         id="path8" />
    </clipPath>
    <clipPath
       clipPathUnits="userSpaceOnUse"
       id="clipPath10">
      <path
         d="M 0,227 H 250 V 0 H 0 Z"
         id="path10" />
    </clipPath>
    <clipPath
       clipPathUnits="userSpaceOnUse"
       id="clipPath12">
      <path
         d="M 0,227 H 250 V 0 H 0 Z"
         id="path12" />
    </clipPath>
    <clipPath
       clipPathUnits="userSpaceOnUse"
       id="clipPath14">
      <path
         d="M 0,227 H 250 V 0 H 0 Z"
         id="path14" />
    </clipPath>
    <clipPath
       clipPathUnits="userSpaceOnUse"
       id="clipPath16">
      <path
         d="M 0,227 H 250 V 0 H 0 Z"
         id="path16" />
    </clipPath>
  </defs>
  <sodipodi:namedview
     id="namedview1"
     pagecolor="#505050"
     bordercolor="#eeeeee"
     borderopacity="1"
     inkscape:showpageshadow="0"
     inkscape:pageopacity="0"
     inkscape:pagecheckerboard="0"
     inkscape:deskcolor="#d1d1d1">
    <inkscape:page
       x="0"
       y="0"
       inkscape:label="1"
       id="page1"
       width="33.599998"
       height="30.32"
       margin="0"
       bleed="0" />
  </sodipodi:namedview>
  <g
     id="g1"
     inkscape:groupmode="layer"
     inkscape:label="1">
    <path
       id="path1"
       d="M 161.547,160.832 220.492,48.5078"
       style="fill:#706d6e;fill-opacity:1;fill-rule:nonzero;stroke:none"
       transform="matrix(0.13333333,0,0,-0.13333333,0,30.32)"
       clip-path="url(#clipPath2)" />
    <path
       id="path3"
       d="M 192.641,223.898 H 90.6953 L 59.5898,205.754 H 161.547 l 31.094,18.144"
       style="fill:#087bbb;fill-opacity:1;fill-rule:nonzero;stroke:none"
       transform="matrix(0.13333333,0,0,-0.13333333,0,30.32)"
       clip-path="url(#clipPath4)" />
    <path
       id="path5"
       d="M 192.641,223.898 H 90.6953 L 59.5898,205.754 H 161.547 Z"
       style="fill:none;stroke:#ffffff;stroke-width:3.99994;stroke-linecap:butt;stroke-linejoin:miter;stroke-miterlimit:4;stroke-dasharray:none;stroke-opacity:1"
       transform="matrix(0.13333333,0,0,-0.13333333,0,30.32)"
       clip-path="url(#clipPath6)" />
    <path
       id="path7"
       d="M 220.609,48.5078 V 3.58594 L 250.043,21.7305 V 66.6484 L 192.641,178.977 v 44.921 l -31.094,-18.144 v -44.922"
       style="fill:#087bbb;fill-opacity:1;fill-rule:nonzero;stroke:#ffffff;stroke-width:3.99994;stroke-linecap:butt;stroke-linejoin:miter;stroke-miterlimit:4;stroke-dasharray:none;stroke-opacity:1"
       transform="matrix(0.13333333,0,0,-0.13333333,0,30.32)"
       clip-path="url(#clipPath8)" />
    <path
       id="path9"
       d="M 220.492,48.6328 161.547,160.949 v -0.117 44.922 H 59.5898 v -44.922 0.117 L 2.55859,48.6328 2.73438,48.5078 V 3.58594 H 220.727 V 48.5078 l -0.235,0.125"
       style="fill:#087bbb;fill-opacity:1;fill-rule:nonzero;stroke:none"
       transform="matrix(0.13333333,0,0,-0.13333333,0,30.32)"
       clip-path="url(#clipPath10)" />
    <path
       id="path11"
       d="M 220.492,48.6328 161.547,160.949 v -0.117 44.922 H 59.5898 v -44.922 0.117 L 2.55859,48.6328 2.73438,48.5078 V 3.58594 H 220.727 V 48.5078 Z"
       style="fill:none;stroke:#ffffff;stroke-width:3.99994;stroke-linecap:butt;stroke-linejoin:miter;stroke-miterlimit:4;stroke-dasharray:none;stroke-opacity:1"
       transform="matrix(0.13333333,0,0,-0.13333333,0,30.32)"
       clip-path="url(#clipPath12)" />
    <path
       id="path13"
       d="m 109.813,105.945 h 6.046 V 61.6719 h 30.043 L 112.742,22.0781 79.7773,61.6719 h 30.0467 l -0.011,44.2731"
       style="fill:#ffffff;fill-opacity:1;fill-rule:nonzero;stroke:none"
       transform="matrix(0.13333333,0,0,-0.13333333,0,30.32)"
       clip-path="url(#clipPath14)" />
    <path
       id="path15"
       d="m 115.859,106.055 h -6.046 l 0.011,44.289 H 79.7773 l 33.1527,39.57 32.972,-39.57 h -30.043 v -44.289"
       style="fill:#ffffff;fill-opacity:1;fill-rule:nonzero;stroke:none"
       transform="matrix(0.13333333,0,0,-0.13333333,0,30.32)"
       clip-path="url(#clipPath16)" />
  </g>
</svg>
