<?xml version="1.0" encoding="UTF-8" standalone="no"?>
<!-- Created with Inkscape (http://www.inkscape.org/) -->

<svg
   version="1.1"
   id="svg1"
   width="34.053333"
   height="49.133331"
   viewBox="0 0 34.053333 49.133331"
   sodipodi:docname="branch office.eps"
   xmlns:inkscape="http://www.inkscape.org/namespaces/inkscape"
   xmlns:sodipodi="http://sodipodi.sourceforge.net/DTD/sodipodi-0.dtd"
   xmlns="http://www.w3.org/2000/svg"
   xmlns:svg="http://www.w3.org/2000/svg">
  <defs
     id="defs1" />
  <sodipodi:namedview
     id="namedview1"
     pagecolor="#505050"
     bordercolor="#eeeeee"
     borderopacity="1"
     inkscape:showpageshadow="0"
     inkscape:pageopacity="0"
     inkscape:pagecheckerboard="0"
     inkscape:deskcolor="#d1d1d1">
    <inkscape:page
       x="0"
       y="0"
       inkscape:label="1"
       id="page1"
       width="34.053333"
       height="49.133331"
       margin="0"
       bleed="0" />
  </sodipodi:namedview>
  <g
     id="g1"
     inkscape:groupmode="layer"
     inkscape:label="1">
    <path
       id="path1"
       d="M 250.57,84.4063 V 363.684 L 183.402,296.379 V 5.44141 L 250.57,84.4063"
       style="fill:#02709f;fill-opacity:1;fill-rule:nonzero;stroke:none"
       transform="matrix(0.13333333,0,0,-0.13333333,0,49.133333)" />
    <path
       id="path2"
       d="M 250.57,84.4063 V 363.684 L 183.402,296.379 V 5.44141 Z"
       style="fill:none;stroke:#ffffff;stroke-width:3.99994;stroke-linecap:butt;stroke-linejoin:miter;stroke-miterlimit:4;stroke-dasharray:none;stroke-opacity:1"
       transform="matrix(0.13333333,0,0,-0.13333333,0,49.133333)" />
    <path
       id="path3"
       d="m 5.83203,5.44141 h 177.57 v 290.938 h -177.57 z"
       style="fill:#02709f;fill-opacity:1;fill-rule:nonzero;stroke:none"
       transform="matrix(0.13333333,0,0,-0.13333333,0,49.133333)" />
    <path
       id="path4"
       d="M 183.402,296.379 H 5.83203 V 5.44141 H 183.402 Z"
       style="fill:none;stroke:#ffffff;stroke-width:3.99994;stroke-linecap:butt;stroke-linejoin:miter;stroke-miterlimit:4;stroke-dasharray:none;stroke-opacity:1"
       transform="matrix(0.13333333,0,0,-0.13333333,0,49.133333)" />
    <path
       id="path5"
       d="m 183.402,296.379 67.168,67.305 H 92.3516 L 5.83203,296.379 H 183.402"
       style="fill:#02709f;fill-opacity:1;fill-rule:nonzero;stroke:none"
       transform="matrix(0.13333333,0,0,-0.13333333,0,49.133333)" />
    <path
       id="path6"
       d="m 183.402,296.379 67.168,67.305 H 92.3516 L 5.83203,296.379 Z"
       style="fill:none;stroke:#ffffff;stroke-width:3.99994;stroke-linecap:butt;stroke-linejoin:miter;stroke-miterlimit:4;stroke-dasharray:none;stroke-opacity:1"
       transform="matrix(0.13333333,0,0,-0.13333333,0,49.133333)" />
    <path
       id="path7"
       d="M 58.4063,95.4805 V 70.0703 h 25.4023"
       style="fill:none;stroke:#ffffff;stroke-width:3.60001;stroke-linecap:butt;stroke-linejoin:miter;stroke-miterlimit:4;stroke-dasharray:none;stroke-opacity:1"
       transform="matrix(0.13333333,0,0,-0.13333333,0,49.133333)" />
    <path
       id="path8"
       d="M 55.7539,70.0703 H 83.8203"
       style="fill:none;stroke:#ffffff;stroke-width:3.60001;stroke-linecap:butt;stroke-linejoin:miter;stroke-miterlimit:4;stroke-dasharray:none;stroke-opacity:1"
       transform="matrix(0.13333333,0,0,-0.13333333,0,49.133333)" />
    <path
       id="path9"
       d="M 22.9688,95.4805 V 70.0703 h 25.4101"
       style="fill:none;stroke:#ffffff;stroke-width:3.60001;stroke-linecap:butt;stroke-linejoin:miter;stroke-miterlimit:4;stroke-dasharray:none;stroke-opacity:1"
       transform="matrix(0.13333333,0,0,-0.13333333,0,49.133333)" />
    <path
       id="path10"
       d="M 20.3125,70.0703 H 48.3789"
       style="fill:none;stroke:#ffffff;stroke-width:3.60001;stroke-linecap:butt;stroke-linejoin:miter;stroke-miterlimit:4;stroke-dasharray:none;stroke-opacity:1"
       transform="matrix(0.13333333,0,0,-0.13333333,0,49.133333)" />
    <path
       id="path11"
       d="m 58.4063,138.879 v -25.41 h 25.4023"
       style="fill:none;stroke:#ffffff;stroke-width:3.60001;stroke-linecap:butt;stroke-linejoin:miter;stroke-miterlimit:4;stroke-dasharray:none;stroke-opacity:1"
       transform="matrix(0.13333333,0,0,-0.13333333,0,49.133333)" />
    <path
       id="path12"
       d="M 55.7539,113.469 H 83.8203"
       style="fill:none;stroke:#ffffff;stroke-width:3.60001;stroke-linecap:butt;stroke-linejoin:miter;stroke-miterlimit:4;stroke-dasharray:none;stroke-opacity:1"
       transform="matrix(0.13333333,0,0,-0.13333333,0,49.133333)" />
    <path
       id="path13"
       d="m 22.9688,138.879 v -25.41 h 25.4101"
       style="fill:none;stroke:#ffffff;stroke-width:3.60001;stroke-linecap:butt;stroke-linejoin:miter;stroke-miterlimit:4;stroke-dasharray:none;stroke-opacity:1"
       transform="matrix(0.13333333,0,0,-0.13333333,0,49.133333)" />
    <path
       id="path14"
       d="M 20.3125,113.469 H 48.3789"
       style="fill:none;stroke:#ffffff;stroke-width:3.60001;stroke-linecap:butt;stroke-linejoin:miter;stroke-miterlimit:4;stroke-dasharray:none;stroke-opacity:1"
       transform="matrix(0.13333333,0,0,-0.13333333,0,49.133333)" />
    <path
       id="path15"
       d="m 58.4063,187.609 v -25.41 h 25.4023"
       style="fill:none;stroke:#ffffff;stroke-width:3.60001;stroke-linecap:butt;stroke-linejoin:miter;stroke-miterlimit:4;stroke-dasharray:none;stroke-opacity:1"
       transform="matrix(0.13333333,0,0,-0.13333333,0,49.133333)" />
    <path
       id="path16"
       d="M 55.7539,162.199 H 83.8203"
       style="fill:none;stroke:#ffffff;stroke-width:3.60001;stroke-linecap:butt;stroke-linejoin:miter;stroke-miterlimit:4;stroke-dasharray:none;stroke-opacity:1"
       transform="matrix(0.13333333,0,0,-0.13333333,0,49.133333)" />
    <path
       id="path17"
       d="m 22.9688,187.609 v -25.41 h 25.4101"
       style="fill:none;stroke:#ffffff;stroke-width:3.60001;stroke-linecap:butt;stroke-linejoin:miter;stroke-miterlimit:4;stroke-dasharray:none;stroke-opacity:1"
       transform="matrix(0.13333333,0,0,-0.13333333,0,49.133333)" />
    <path
       id="path18"
       d="M 20.3125,162.199 H 48.3789"
       style="fill:none;stroke:#ffffff;stroke-width:3.60001;stroke-linecap:butt;stroke-linejoin:miter;stroke-miterlimit:4;stroke-dasharray:none;stroke-opacity:1"
       transform="matrix(0.13333333,0,0,-0.13333333,0,49.133333)" />
    <path
       id="path19"
       d="M 58.4063,236.34 V 210.93 H 83.8086"
       style="fill:none;stroke:#ffffff;stroke-width:3.60001;stroke-linecap:butt;stroke-linejoin:miter;stroke-miterlimit:4;stroke-dasharray:none;stroke-opacity:1"
       transform="matrix(0.13333333,0,0,-0.13333333,0,49.133333)" />
    <path
       id="path20"
       d="M 55.7539,210.93 H 83.8203"
       style="fill:none;stroke:#ffffff;stroke-width:3.60001;stroke-linecap:butt;stroke-linejoin:miter;stroke-miterlimit:4;stroke-dasharray:none;stroke-opacity:1"
       transform="matrix(0.13333333,0,0,-0.13333333,0,49.133333)" />
    <path
       id="path21"
       d="M 22.9688,236.34 V 210.93 H 48.3789"
       style="fill:none;stroke:#ffffff;stroke-width:3.60001;stroke-linecap:butt;stroke-linejoin:miter;stroke-miterlimit:4;stroke-dasharray:none;stroke-opacity:1"
       transform="matrix(0.13333333,0,0,-0.13333333,0,49.133333)" />
    <path
       id="path22"
       d="M 20.3125,210.93 H 48.3789"
       style="fill:none;stroke:#ffffff;stroke-width:3.60001;stroke-linecap:butt;stroke-linejoin:miter;stroke-miterlimit:4;stroke-dasharray:none;stroke-opacity:1"
       transform="matrix(0.13333333,0,0,-0.13333333,0,49.133333)" />
    <path
       id="path23"
       d="M 58.4063,285.07 V 259.66 H 83.8086"
       style="fill:none;stroke:#ffffff;stroke-width:3.60001;stroke-linecap:butt;stroke-linejoin:miter;stroke-miterlimit:4;stroke-dasharray:none;stroke-opacity:1"
       transform="matrix(0.13333333,0,0,-0.13333333,0,49.133333)" />
    <path
       id="path24"
       d="M 55.7539,259.66 H 83.8203"
       style="fill:none;stroke:#ffffff;stroke-width:3.60001;stroke-linecap:butt;stroke-linejoin:miter;stroke-miterlimit:4;stroke-dasharray:none;stroke-opacity:1"
       transform="matrix(0.13333333,0,0,-0.13333333,0,49.133333)" />
    <path
       id="path25"
       d="M 22.9688,285.07 V 259.66 H 48.3789"
       style="fill:none;stroke:#ffffff;stroke-width:3.60001;stroke-linecap:butt;stroke-linejoin:miter;stroke-miterlimit:4;stroke-dasharray:none;stroke-opacity:1"
       transform="matrix(0.13333333,0,0,-0.13333333,0,49.133333)" />
    <path
       id="path26"
       d="M 20.3125,259.66 H 48.3789"
       style="fill:none;stroke:#ffffff;stroke-width:3.60001;stroke-linecap:butt;stroke-linejoin:miter;stroke-miterlimit:4;stroke-dasharray:none;stroke-opacity:1"
       transform="matrix(0.13333333,0,0,-0.13333333,0,49.133333)" />
    <path
       id="path27"
       d="M 137.152,95.4805 V 70.0703 h 25.411"
       style="fill:none;stroke:#ffffff;stroke-width:3.60001;stroke-linecap:butt;stroke-linejoin:miter;stroke-miterlimit:4;stroke-dasharray:none;stroke-opacity:1"
       transform="matrix(0.13333333,0,0,-0.13333333,0,49.133333)" />
    <path
       id="path28"
       d="m 134.496,70.0703 h 28.067"
       style="fill:none;stroke:#ffffff;stroke-width:3.60001;stroke-linecap:butt;stroke-linejoin:miter;stroke-miterlimit:4;stroke-dasharray:none;stroke-opacity:1"
       transform="matrix(0.13333333,0,0,-0.13333333,0,49.133333)" />
    <path
       id="path29"
       d="M 101.719,95.4805 V 70.0703 h 25.41"
       style="fill:none;stroke:#ffffff;stroke-width:3.60001;stroke-linecap:butt;stroke-linejoin:miter;stroke-miterlimit:4;stroke-dasharray:none;stroke-opacity:1"
       transform="matrix(0.13333333,0,0,-0.13333333,0,49.133333)" />
    <path
       id="path30"
       d="M 99.0625,70.0703 H 127.129"
       style="fill:none;stroke:#ffffff;stroke-width:3.60001;stroke-linecap:butt;stroke-linejoin:miter;stroke-miterlimit:4;stroke-dasharray:none;stroke-opacity:1"
       transform="matrix(0.13333333,0,0,-0.13333333,0,49.133333)" />
    <path
       id="path31"
       d="m 137.152,138.879 v -25.41 h 25.411"
       style="fill:none;stroke:#ffffff;stroke-width:3.60001;stroke-linecap:butt;stroke-linejoin:miter;stroke-miterlimit:4;stroke-dasharray:none;stroke-opacity:1"
       transform="matrix(0.13333333,0,0,-0.13333333,0,49.133333)" />
    <path
       id="path32"
       d="m 134.496,113.469 h 28.067"
       style="fill:none;stroke:#ffffff;stroke-width:3.60001;stroke-linecap:butt;stroke-linejoin:miter;stroke-miterlimit:4;stroke-dasharray:none;stroke-opacity:1"
       transform="matrix(0.13333333,0,0,-0.13333333,0,49.133333)" />
    <path
       id="path33"
       d="m 101.719,138.879 v -25.41 h 25.41"
       style="fill:none;stroke:#ffffff;stroke-width:3.60001;stroke-linecap:butt;stroke-linejoin:miter;stroke-miterlimit:4;stroke-dasharray:none;stroke-opacity:1"
       transform="matrix(0.13333333,0,0,-0.13333333,0,49.133333)" />
    <path
       id="path34"
       d="M 99.0625,113.469 H 127.129"
       style="fill:none;stroke:#ffffff;stroke-width:3.60001;stroke-linecap:butt;stroke-linejoin:miter;stroke-miterlimit:4;stroke-dasharray:none;stroke-opacity:1"
       transform="matrix(0.13333333,0,0,-0.13333333,0,49.133333)" />
    <path
       id="path35"
       d="m 137.152,187.609 v -25.41 h 25.411"
       style="fill:none;stroke:#ffffff;stroke-width:3.60001;stroke-linecap:butt;stroke-linejoin:miter;stroke-miterlimit:4;stroke-dasharray:none;stroke-opacity:1"
       transform="matrix(0.13333333,0,0,-0.13333333,0,49.133333)" />
    <path
       id="path36"
       d="m 134.496,162.199 h 28.067"
       style="fill:none;stroke:#ffffff;stroke-width:3.60001;stroke-linecap:butt;stroke-linejoin:miter;stroke-miterlimit:4;stroke-dasharray:none;stroke-opacity:1"
       transform="matrix(0.13333333,0,0,-0.13333333,0,49.133333)" />
    <path
       id="path37"
       d="m 101.719,187.609 v -25.41 h 25.41"
       style="fill:none;stroke:#ffffff;stroke-width:3.60001;stroke-linecap:butt;stroke-linejoin:miter;stroke-miterlimit:4;stroke-dasharray:none;stroke-opacity:1"
       transform="matrix(0.13333333,0,0,-0.13333333,0,49.133333)" />
    <path
       id="path38"
       d="M 99.0625,162.199 H 127.129"
       style="fill:none;stroke:#ffffff;stroke-width:3.60001;stroke-linecap:butt;stroke-linejoin:miter;stroke-miterlimit:4;stroke-dasharray:none;stroke-opacity:1"
       transform="matrix(0.13333333,0,0,-0.13333333,0,49.133333)" />
    <path
       id="path39"
       d="m 137.152,236.34 v -25.41 h 25.411"
       style="fill:none;stroke:#ffffff;stroke-width:3.60001;stroke-linecap:butt;stroke-linejoin:miter;stroke-miterlimit:4;stroke-dasharray:none;stroke-opacity:1"
       transform="matrix(0.13333333,0,0,-0.13333333,0,49.133333)" />
    <path
       id="path40"
       d="m 134.496,210.93 h 28.067"
       style="fill:none;stroke:#ffffff;stroke-width:3.60001;stroke-linecap:butt;stroke-linejoin:miter;stroke-miterlimit:4;stroke-dasharray:none;stroke-opacity:1"
       transform="matrix(0.13333333,0,0,-0.13333333,0,49.133333)" />
    <path
       id="path41"
       d="m 101.719,236.34 v -25.41 h 25.41"
       style="fill:none;stroke:#ffffff;stroke-width:3.60001;stroke-linecap:butt;stroke-linejoin:miter;stroke-miterlimit:4;stroke-dasharray:none;stroke-opacity:1"
       transform="matrix(0.13333333,0,0,-0.13333333,0,49.133333)" />
    <path
       id="path42"
       d="M 99.0625,210.93 H 127.129"
       style="fill:none;stroke:#ffffff;stroke-width:3.60001;stroke-linecap:butt;stroke-linejoin:miter;stroke-miterlimit:4;stroke-dasharray:none;stroke-opacity:1"
       transform="matrix(0.13333333,0,0,-0.13333333,0,49.133333)" />
    <path
       id="path43"
       d="m 137.152,285.07 v -25.41 h 25.411"
       style="fill:none;stroke:#ffffff;stroke-width:3.60001;stroke-linecap:butt;stroke-linejoin:miter;stroke-miterlimit:4;stroke-dasharray:none;stroke-opacity:1"
       transform="matrix(0.13333333,0,0,-0.13333333,0,49.133333)" />
    <path
       id="path44"
       d="m 134.496,259.66 h 28.067"
       style="fill:none;stroke:#ffffff;stroke-width:3.60001;stroke-linecap:butt;stroke-linejoin:miter;stroke-miterlimit:4;stroke-dasharray:none;stroke-opacity:1"
       transform="matrix(0.13333333,0,0,-0.13333333,0,49.133333)" />
    <path
       id="path45"
       d="m 101.719,285.07 v -25.41 h 25.41"
       style="fill:none;stroke:#ffffff;stroke-width:3.60001;stroke-linecap:butt;stroke-linejoin:miter;stroke-miterlimit:4;stroke-dasharray:none;stroke-opacity:1"
       transform="matrix(0.13333333,0,0,-0.13333333,0,49.133333)" />
    <path
       id="path46"
       d="M 99.0625,259.66 H 127.129"
       style="fill:none;stroke:#ffffff;stroke-width:3.60001;stroke-linecap:butt;stroke-linejoin:miter;stroke-miterlimit:4;stroke-dasharray:none;stroke-opacity:1"
       transform="matrix(0.13333333,0,0,-0.13333333,0,49.133333)" />
  </g>
</svg>
