<?xml version="1.0" encoding="UTF-8" standalone="no"?>
<!-- Created with Inkscape (http://www.inkscape.org/) -->

<svg
   version="1.1"
   id="svg1"
   width="36.066666"
   height="36.413334"
   viewBox="0 0 36.066666 36.413334"
   sodipodi:docname="end office.eps"
   xmlns:inkscape="http://www.inkscape.org/namespaces/inkscape"
   xmlns:sodipodi="http://sodipodi.sourceforge.net/DTD/sodipodi-0.dtd"
   xmlns="http://www.w3.org/2000/svg"
   xmlns:svg="http://www.w3.org/2000/svg">
  <defs
     id="defs1">
    <clipPath
       clipPathUnits="userSpaceOnUse"
       id="clipPath2">
      <path
         d="M 0,3 V 273 H 270 V 3 Z"
         id="path2" />
    </clipPath>
    <clipPath
       clipPathUnits="userSpaceOnUse"
       id="clipPath4">
      <path
         d="M 0,3 V 273 H 270 V 3 Z"
         id="path4" />
    </clipPath>
    <clipPath
       clipPathUnits="userSpaceOnUse"
       id="clipPath6">
      <path
         d="M 0,3 V 273 H 270 V 3 Z"
         id="path6" />
    </clipPath>
    <clipPath
       clipPathUnits="userSpaceOnUse"
       id="clipPath8">
      <path
         d="M 0,3 V 273 H 270 V 3 Z"
         id="path8" />
    </clipPath>
    <clipPath
       clipPathUnits="userSpaceOnUse"
       id="clipPath10">
      <path
         d="M 0,3 V 273 H 270 V 3 Z"
         id="path10" />
    </clipPath>
    <clipPath
       clipPathUnits="userSpaceOnUse"
       id="clipPath12">
      <path
         d="M 0,3 V 273 H 270 V 3 Z"
         id="path12" />
    </clipPath>
    <clipPath
       clipPathUnits="userSpaceOnUse"
       id="clipPath14">
      <path
         d="M 0,3 V 273 H 270 V 3 Z"
         id="path14" />
    </clipPath>
    <clipPath
       clipPathUnits="userSpaceOnUse"
       id="clipPath16">
      <path
         d="M 0,3 V 273 H 270 V 3 Z"
         id="path16" />
    </clipPath>
    <clipPath
       clipPathUnits="userSpaceOnUse"
       id="clipPath18">
      <path
         d="M 0,3 V 273 H 270 V 3 Z"
         id="path18" />
    </clipPath>
    <clipPath
       clipPathUnits="userSpaceOnUse"
       id="clipPath20">
      <path
         d="M 0,3 V 273 H 270 V 3 Z"
         id="path20" />
    </clipPath>
    <clipPath
       clipPathUnits="userSpaceOnUse"
       id="clipPath22">
      <path
         d="M 0,3 V 273 H 270 V 3 Z"
         id="path22" />
    </clipPath>
    <clipPath
       clipPathUnits="userSpaceOnUse"
       id="clipPath24">
      <path
         d="M 0,3 V 273 H 270 V 3 Z"
         id="path24" />
    </clipPath>
    <clipPath
       clipPathUnits="userSpaceOnUse"
       id="clipPath26">
      <path
         d="M 0,3 V 273 H 270 V 3 Z"
         id="path26" />
    </clipPath>
    <clipPath
       clipPathUnits="userSpaceOnUse"
       id="clipPath28">
      <path
         d="M 0,3 V 273 H 270 V 3 Z"
         id="path28" />
    </clipPath>
    <clipPath
       clipPathUnits="userSpaceOnUse"
       id="clipPath30">
      <path
         d="M 0,3 V 273 H 270 V 3 Z"
         id="path30" />
    </clipPath>
    <clipPath
       clipPathUnits="userSpaceOnUse"
       id="clipPath32">
      <path
         d="M 0,3 V 273 H 270 V 3 Z"
         id="path32" />
    </clipPath>
    <clipPath
       clipPathUnits="userSpaceOnUse"
       id="clipPath34">
      <path
         d="M 0,3 V 273 H 270 V 3 Z"
         id="path34" />
    </clipPath>
    <clipPath
       clipPathUnits="userSpaceOnUse"
       id="clipPath36">
      <path
         d="M 0,3 V 273 H 270 V 3 Z"
         id="path36" />
    </clipPath>
    <clipPath
       clipPathUnits="userSpaceOnUse"
       id="clipPath38">
      <path
         d="M 0,3 V 273 H 270 V 3 Z"
         id="path38" />
    </clipPath>
    <clipPath
       clipPathUnits="userSpaceOnUse"
       id="clipPath40">
      <path
         d="M 0,3 V 273 H 270 V 3 Z"
         id="path40" />
    </clipPath>
    <clipPath
       clipPathUnits="userSpaceOnUse"
       id="clipPath42">
      <path
         d="M 0,3 V 273 H 270 V 3 Z"
         id="path42" />
    </clipPath>
    <clipPath
       clipPathUnits="userSpaceOnUse"
       id="clipPath44">
      <path
         d="M 0,3 V 273 H 270 V 3 Z"
         id="path44" />
    </clipPath>
    <clipPath
       clipPathUnits="userSpaceOnUse"
       id="clipPath46">
      <path
         d="M 0,3 V 273 H 270 V 3 Z"
         id="path46" />
    </clipPath>
    <clipPath
       clipPathUnits="userSpaceOnUse"
       id="clipPath48">
      <path
         d="M 0,3 V 273 H 270 V 3 Z"
         id="path48" />
    </clipPath>
    <clipPath
       clipPathUnits="userSpaceOnUse"
       id="clipPath50">
      <path
         d="M 0,3 V 273 H 270 V 3 Z"
         id="path50" />
    </clipPath>
    <clipPath
       clipPathUnits="userSpaceOnUse"
       id="clipPath52">
      <path
         d="M 0,3 V 273 H 270 V 3 Z"
         id="path52" />
    </clipPath>
    <clipPath
       clipPathUnits="userSpaceOnUse"
       id="clipPath54">
      <path
         d="M 0,3 V 273 H 270 V 3 Z"
         id="path54" />
    </clipPath>
    <clipPath
       clipPathUnits="userSpaceOnUse"
       id="clipPath56">
      <path
         d="M 0,3 V 273 H 270 V 3 Z"
         id="path56" />
    </clipPath>
    <clipPath
       clipPathUnits="userSpaceOnUse"
       id="clipPath58">
      <path
         d="M 0,3 V 273 H 270 V 3 Z"
         id="path58" />
    </clipPath>
    <clipPath
       clipPathUnits="userSpaceOnUse"
       id="clipPath60">
      <path
         d="M 0,3 V 273 H 270 V 3 Z"
         id="path60" />
    </clipPath>
    <clipPath
       clipPathUnits="userSpaceOnUse"
       id="clipPath62">
      <path
         d="M 0,3 V 273 H 270 V 3 Z"
         id="path62" />
    </clipPath>
    <clipPath
       clipPathUnits="userSpaceOnUse"
       id="clipPath64">
      <path
         d="M 0,3 V 273 H 270 V 3 Z"
         id="path64" />
    </clipPath>
    <clipPath
       clipPathUnits="userSpaceOnUse"
       id="clipPath66">
      <path
         d="M 0,3 V 273 H 270 V 3 Z"
         id="path66" />
    </clipPath>
    <clipPath
       clipPathUnits="userSpaceOnUse"
       id="clipPath68">
      <path
         d="M 0,3 V 273 H 270 V 3 Z"
         id="path68" />
    </clipPath>
    <clipPath
       clipPathUnits="userSpaceOnUse"
       id="clipPath70">
      <path
         d="M 0,3 V 273 H 270 V 3 Z"
         id="path70" />
    </clipPath>
    <clipPath
       clipPathUnits="userSpaceOnUse"
       id="clipPath72">
      <path
         d="M 0,3 V 273 H 270 V 3 Z"
         id="path72" />
    </clipPath>
    <clipPath
       clipPathUnits="userSpaceOnUse"
       id="clipPath74">
      <path
         d="M 0,3 V 273 H 270 V 3 Z"
         id="path74" />
    </clipPath>
    <clipPath
       clipPathUnits="userSpaceOnUse"
       id="clipPath76">
      <path
         d="M 0,3 V 273 H 270 V 3 Z"
         id="path76" />
    </clipPath>
    <clipPath
       clipPathUnits="userSpaceOnUse"
       id="clipPath78">
      <path
         d="M 0,3 V 273 H 270 V 3 Z"
         id="path78" />
    </clipPath>
    <clipPath
       clipPathUnits="userSpaceOnUse"
       id="clipPath80">
      <path
         d="M 0,3 V 273 H 270 V 3 Z"
         id="path80" />
    </clipPath>
    <clipPath
       clipPathUnits="userSpaceOnUse"
       id="clipPath82">
      <path
         d="M 0,3 V 273 H 270 V 3 Z"
         id="path82" />
    </clipPath>
    <clipPath
       clipPathUnits="userSpaceOnUse"
       id="clipPath84">
      <path
         d="M 0,3 V 273 H 270 V 3 Z"
         id="path84" />
    </clipPath>
    <clipPath
       clipPathUnits="userSpaceOnUse"
       id="clipPath86">
      <path
         d="M 0,3 V 273 H 270 V 3 Z"
         id="path86" />
    </clipPath>
    <clipPath
       clipPathUnits="userSpaceOnUse"
       id="clipPath88">
      <path
         d="M 0,3 V 273 H 270 V 3 Z"
         id="path88" />
    </clipPath>
    <clipPath
       clipPathUnits="userSpaceOnUse"
       id="clipPath90">
      <path
         d="M 0,3 V 273 H 270 V 3 Z"
         id="path90" />
    </clipPath>
    <clipPath
       clipPathUnits="userSpaceOnUse"
       id="clipPath92">
      <path
         d="M 0,3 V 273 H 270 V 3 Z"
         id="path92" />
    </clipPath>
    <clipPath
       clipPathUnits="userSpaceOnUse"
       id="clipPath94">
      <path
         d="M 0,3 V 273 H 270 V 3 Z"
         id="path94" />
    </clipPath>
    <clipPath
       clipPathUnits="userSpaceOnUse"
       id="clipPath96">
      <path
         d="M 0,3 V 273 H 270 V 3 Z"
         id="path96" />
    </clipPath>
    <clipPath
       clipPathUnits="userSpaceOnUse"
       id="clipPath98">
      <path
         d="M 0,3 V 273 H 270 V 3 Z"
         id="path98" />
    </clipPath>
    <clipPath
       clipPathUnits="userSpaceOnUse"
       id="clipPath100">
      <path
         d="M 0,3 V 273 H 270 V 3 Z"
         id="path100" />
    </clipPath>
    <clipPath
       clipPathUnits="userSpaceOnUse"
       id="clipPath102">
      <path
         d="M 0,3 V 273 H 270 V 3 Z"
         id="path102" />
    </clipPath>
    <clipPath
       clipPathUnits="userSpaceOnUse"
       id="clipPath104">
      <path
         d="M 0,3 V 273 H 270 V 3 Z"
         id="path104" />
    </clipPath>
    <clipPath
       clipPathUnits="userSpaceOnUse"
       id="clipPath106">
      <path
         d="M 0,3 V 273 H 270 V 3 Z"
         id="path106" />
    </clipPath>
    <clipPath
       clipPathUnits="userSpaceOnUse"
       id="clipPath108">
      <path
         d="M 0,3 V 273 H 270 V 3 Z"
         id="path108" />
    </clipPath>
    <clipPath
       clipPathUnits="userSpaceOnUse"
       id="clipPath110">
      <path
         d="M 0,3 V 273 H 270 V 3 Z"
         id="path110" />
    </clipPath>
    <clipPath
       clipPathUnits="userSpaceOnUse"
       id="clipPath112">
      <path
         d="M 0,3 V 273 H 270 V 3 Z"
         id="path112" />
    </clipPath>
    <clipPath
       clipPathUnits="userSpaceOnUse"
       id="clipPath114">
      <path
         d="M 0,3 V 273 H 270 V 3 Z"
         id="path114" />
    </clipPath>
    <clipPath
       clipPathUnits="userSpaceOnUse"
       id="clipPath116">
      <path
         d="M 0,3 V 273 H 270 V 3 Z"
         id="path116" />
    </clipPath>
    <clipPath
       clipPathUnits="userSpaceOnUse"
       id="clipPath118">
      <path
         d="M 0,3 V 273 H 270 V 3 Z"
         id="path118" />
    </clipPath>
    <clipPath
       clipPathUnits="userSpaceOnUse"
       id="clipPath120">
      <path
         d="M 0,3 V 273 H 270 V 3 Z"
         id="path120" />
    </clipPath>
    <clipPath
       clipPathUnits="userSpaceOnUse"
       id="clipPath122">
      <path
         d="M 0,3 V 273 H 270 V 3 Z"
         id="path122" />
    </clipPath>
    <clipPath
       clipPathUnits="userSpaceOnUse"
       id="clipPath124">
      <path
         d="M 0,3 V 273 H 270 V 3 Z"
         id="path124" />
    </clipPath>
    <clipPath
       clipPathUnits="userSpaceOnUse"
       id="clipPath126">
      <path
         d="M 0,3 V 273 H 270 V 3 Z"
         id="path126" />
    </clipPath>
    <clipPath
       clipPathUnits="userSpaceOnUse"
       id="clipPath128">
      <path
         d="M 0,3 V 273 H 270 V 3 Z"
         id="path128" />
    </clipPath>
    <clipPath
       clipPathUnits="userSpaceOnUse"
       id="clipPath130">
      <path
         d="M 0,3 V 273 H 270 V 3 Z"
         id="path130" />
    </clipPath>
    <clipPath
       clipPathUnits="userSpaceOnUse"
       id="clipPath132">
      <path
         d="M 0,3 V 273 H 270 V 3 Z"
         id="path132" />
    </clipPath>
    <clipPath
       clipPathUnits="userSpaceOnUse"
       id="clipPath134">
      <path
         d="M 0,3 V 273 H 270 V 3 Z"
         id="path134" />
    </clipPath>
    <clipPath
       clipPathUnits="userSpaceOnUse"
       id="clipPath136">
      <path
         d="M 0,3 V 273 H 270 V 3 Z"
         id="path136" />
    </clipPath>
  </defs>
  <sodipodi:namedview
     id="namedview1"
     pagecolor="#505050"
     bordercolor="#eeeeee"
     borderopacity="1"
     inkscape:showpageshadow="0"
     inkscape:pageopacity="0"
     inkscape:pagecheckerboard="0"
     inkscape:deskcolor="#d1d1d1">
    <inkscape:page
       x="0"
       y="0"
       inkscape:label="1"
       id="page1"
       width="36.066666"
       height="36.413334"
       margin="0"
       bleed="0" />
  </sodipodi:namedview>
  <g
     id="g1"
     inkscape:groupmode="layer"
     inkscape:label="1">
    <path
       id="path1"
       d="m 5.46875,4.74219 h 215.996 v 219.746 H 5.46875 Z"
       style="fill:#02709f;fill-opacity:1;fill-rule:nonzero;stroke:none"
       transform="matrix(0.13333333,0,0,-0.13333333,0,36.413333)"
       clip-path="url(#clipPath2)" />
    <path
       id="path3"
       d="M 221.465,4.74219 V 224.488 H 5.46875 V 4.74219 Z"
       style="fill:none;stroke:#ffffff;stroke-width:3.99994;stroke-linecap:butt;stroke-linejoin:miter;stroke-miterlimit:4;stroke-dasharray:none;stroke-opacity:1"
       transform="matrix(0.13333333,0,0,-0.13333333,0,36.413333)"
       clip-path="url(#clipPath4)" />
    <path
       id="path5"
       d="m 118.457,150.98 h 66.414"
       style="fill:#000000;fill-opacity:1;fill-rule:nonzero;stroke:#ffffff;stroke-width:3.99994;stroke-linecap:butt;stroke-linejoin:miter;stroke-miterlimit:4;stroke-dasharray:none;stroke-opacity:1"
       transform="matrix(0.13333333,0,0,-0.13333333,0,36.413333)"
       clip-path="url(#clipPath6)" />
    <path
       id="path7"
       d="m 118.457,74.5273 h 66.414"
       style="fill:#000000;fill-opacity:1;fill-rule:nonzero;stroke:#ffffff;stroke-width:3.99994;stroke-linecap:butt;stroke-linejoin:miter;stroke-miterlimit:4;stroke-dasharray:none;stroke-opacity:1"
       transform="matrix(0.13333333,0,0,-0.13333333,0,36.413333)"
       clip-path="url(#clipPath8)" />
    <path
       id="path9"
       d="m 98.0859,112.465 v 66.418"
       style="fill:#000000;fill-opacity:1;fill-rule:nonzero;stroke:#ffffff;stroke-width:3.99994;stroke-linecap:butt;stroke-linejoin:miter;stroke-miterlimit:4;stroke-dasharray:none;stroke-opacity:1"
       transform="matrix(0.13333333,0,0,-0.13333333,0,36.413333)"
       clip-path="url(#clipPath10)" />
    <path
       id="path11"
       d="M 156.777,112.953 V 46.5469"
       style="fill:none;stroke:#ffffff;stroke-width:10;stroke-linecap:butt;stroke-linejoin:miter;stroke-miterlimit:4;stroke-dasharray:none;stroke-opacity:1"
       transform="matrix(0.13333333,0,0,-0.13333333,0,36.413333)"
       clip-path="url(#clipPath12)" />
    <path
       id="path13"
       d="M 81.0547,112.953 V 46.5469"
       style="fill:#000000;fill-opacity:1;fill-rule:nonzero;stroke:#ffffff;stroke-width:3.99994;stroke-linecap:butt;stroke-linejoin:miter;stroke-miterlimit:4;stroke-dasharray:none;stroke-opacity:1"
       transform="matrix(0.13333333,0,0,-0.13333333,0,36.413333)"
       clip-path="url(#clipPath14)" />
    <path
       id="path15"
       d="M 119.402,150.805 H 52.9883"
       style="fill:#000000;fill-opacity:1;fill-rule:nonzero;stroke:#ffffff;stroke-width:3.99994;stroke-linecap:butt;stroke-linejoin:miter;stroke-miterlimit:4;stroke-dasharray:none;stroke-opacity:1"
       transform="matrix(0.13333333,0,0,-0.13333333,0,36.413333)"
       clip-path="url(#clipPath16)" />
    <path
       id="path17"
       d="M 265.703,268.238 V 49.8672 L 221.211,4.86719 V 223.492 l 44.492,44.746"
       style="fill:#02709f;fill-opacity:1;fill-rule:nonzero;stroke:none"
       transform="matrix(0.13333333,0,0,-0.13333333,0,36.413333)"
       clip-path="url(#clipPath18)" />
    <path
       id="path19"
       d="M 265.703,268.238 V 49.8672 L 221.211,4.86719 V 223.492 Z"
       style="fill:none;stroke:#ffffff;stroke-width:3.99994;stroke-linecap:butt;stroke-linejoin:miter;stroke-miterlimit:4;stroke-dasharray:none;stroke-opacity:1"
       transform="matrix(0.13333333,0,0,-0.13333333,0,36.413333)"
       clip-path="url(#clipPath20)" />
    <path
       id="path21"
       d="m 221.211,223.492 -0.508,1.25 H 5.71094 L 60.2148,268.238 H 265.703 l -44.492,-44.746"
       style="fill:#02709f;fill-opacity:1;fill-rule:nonzero;stroke:none"
       transform="matrix(0.13333333,0,0,-0.13333333,0,36.413333)"
       clip-path="url(#clipPath22)" />
    <path
       id="path23"
       d="m 221.211,223.492 -0.508,1.25 H 5.71094 L 60.2148,268.238 H 265.703 Z"
       style="fill:none;stroke:#ffffff;stroke-width:3.99994;stroke-linecap:butt;stroke-linejoin:miter;stroke-miterlimit:4;stroke-dasharray:none;stroke-opacity:1"
       transform="matrix(0.13333333,0,0,-0.13333333,0,36.413333)"
       clip-path="url(#clipPath24)" />
    <path
       id="path25"
       d="m 115.43,153.148 h 70.168"
       style="fill:none;stroke:#ffffff;stroke-width:10;stroke-linecap:butt;stroke-linejoin:miter;stroke-miterlimit:4;stroke-dasharray:none;stroke-opacity:1"
       transform="matrix(0.13333333,0,0,-0.13333333,0,36.413333)"
       clip-path="url(#clipPath26)" />
    <path
       id="path27"
       d="m 184.316,173.102 v -38.45 l 23.172,18.469 -23.172,19.981"
       style="fill:#ffffff;fill-opacity:1;fill-rule:nonzero;stroke:none"
       transform="matrix(0.13333333,0,0,-0.13333333,0,36.413333)"
       clip-path="url(#clipPath28)" />
    <path
       id="path29"
       d="m 184.316,173.102 v -38.45 l 23.172,18.469 z"
       style="fill:none;stroke:#ffffff;stroke-width:3.99994;stroke-linecap:butt;stroke-linejoin:miter;stroke-miterlimit:4;stroke-dasharray:none;stroke-opacity:1"
       transform="matrix(0.13333333,0,0,-0.13333333,0,36.413333)"
       clip-path="url(#clipPath30)" />
    <path
       id="path31"
       d="m 115.43,76.7031 h 73.918"
       style="fill:none;stroke:#ffffff;stroke-width:10;stroke-linecap:butt;stroke-linejoin:miter;stroke-miterlimit:4;stroke-dasharray:none;stroke-opacity:1"
       transform="matrix(0.13333333,0,0,-0.13333333,0,36.413333)"
       clip-path="url(#clipPath32)" />
    <path
       id="path33"
       d="M 184.316,96.9375 V 58.4805 L 207.488,76.957 184.316,96.9375"
       style="fill:#ffffff;fill-opacity:1;fill-rule:nonzero;stroke:none"
       transform="matrix(0.13333333,0,0,-0.13333333,0,36.413333)"
       clip-path="url(#clipPath34)" />
    <path
       id="path35"
       d="M 184.316,96.9375 V 58.4805 L 207.488,76.957 Z"
       style="fill:none;stroke:#ffffff;stroke-width:3.99994;stroke-linecap:butt;stroke-linejoin:miter;stroke-miterlimit:4;stroke-dasharray:none;stroke-opacity:1"
       transform="matrix(0.13333333,0,0,-0.13333333,0,36.413333)"
       clip-path="url(#clipPath36)" />
    <path
       id="path37"
       d="m 95.0586,114.645 v 62.761"
       style="fill:none;stroke:#ffffff;stroke-width:10;stroke-linecap:butt;stroke-linejoin:miter;stroke-miterlimit:4;stroke-dasharray:none;stroke-opacity:1"
       transform="matrix(0.13333333,0,0,-0.13333333,0,36.413333)"
       clip-path="url(#clipPath38)" />
    <path
       id="path39"
       d="m 134.902,112.465 v 66.418"
       style="fill:none;stroke:#ffffff;stroke-width:10;stroke-linecap:butt;stroke-linejoin:miter;stroke-miterlimit:4;stroke-dasharray:none;stroke-opacity:1"
       transform="matrix(0.13333333,0,0,-0.13333333,0,36.413333)"
       clip-path="url(#clipPath40)" />
    <path
       id="path41"
       d="m 131.875,114.645 v 62.761"
       style="fill:#000000;fill-opacity:1;fill-rule:nonzero;stroke:#ffffff;stroke-width:3.99994;stroke-linecap:butt;stroke-linejoin:miter;stroke-miterlimit:4;stroke-dasharray:none;stroke-opacity:1"
       transform="matrix(0.13333333,0,0,-0.13333333,0,36.413333)"
       clip-path="url(#clipPath42)" />
    <path
       id="path43"
       d="M 153.75,115.133 V 43.7148"
       style="fill:#000000;fill-opacity:1;fill-rule:nonzero;stroke:#ffffff;stroke-width:3.99994;stroke-linecap:butt;stroke-linejoin:miter;stroke-miterlimit:4;stroke-dasharray:none;stroke-opacity:1"
       transform="matrix(0.13333333,0,0,-0.13333333,0,36.413333)"
       clip-path="url(#clipPath44)" />
    <path
       id="path45"
       d="m 173.066,46.5586 h -38.457 l 18.653,-23.1758 19.804,23.1758"
       style="fill:#ffffff;fill-opacity:1;fill-rule:nonzero;stroke:none"
       transform="matrix(0.13333333,0,0,-0.13333333,0,36.413333)"
       clip-path="url(#clipPath46)" />
    <path
       id="path47"
       d="M 173.066,46.5586 H 134.609 L 153.262,23.3828 Z"
       style="fill:none;stroke:#ffffff;stroke-width:3.99994;stroke-linecap:butt;stroke-linejoin:miter;stroke-miterlimit:4;stroke-dasharray:none;stroke-opacity:1"
       transform="matrix(0.13333333,0,0,-0.13333333,0,36.413333)"
       clip-path="url(#clipPath48)" />
    <path
       id="path49"
       d="M 78.0273,115.133 V 43.7148"
       style="fill:none;stroke:#ffffff;stroke-width:10;stroke-linecap:butt;stroke-linejoin:miter;stroke-miterlimit:4;stroke-dasharray:none;stroke-opacity:1"
       transform="matrix(0.13333333,0,0,-0.13333333,0,36.413333)"
       clip-path="url(#clipPath50)" />
    <path
       id="path51"
       d="M 97.7344,46.5586 H 59.2773 L 77.9297,23.3828 97.7344,46.5586"
       style="fill:#ffffff;fill-opacity:1;fill-rule:nonzero;stroke:none"
       transform="matrix(0.13333333,0,0,-0.13333333,0,36.413333)"
       clip-path="url(#clipPath52)" />
    <path
       id="path53"
       d="M 97.7344,46.5586 H 59.2773 L 77.9297,23.3828 Z"
       style="fill:none;stroke:#ffffff;stroke-width:3.99994;stroke-linecap:butt;stroke-linejoin:miter;stroke-miterlimit:4;stroke-dasharray:none;stroke-opacity:1"
       transform="matrix(0.13333333,0,0,-0.13333333,0,36.413333)"
       clip-path="url(#clipPath54)" />
    <path
       id="path55"
       d="M 116.387,76.7227 H 44.9609"
       style="fill:none;stroke:#ffffff;stroke-width:10;stroke-linecap:butt;stroke-linejoin:miter;stroke-miterlimit:4;stroke-dasharray:none;stroke-opacity:1"
       transform="matrix(0.13333333,0,0,-0.13333333,0,36.413333)"
       clip-path="url(#clipPath56)" />
    <path
       id="path57"
       d="m 47.2656,56.5078 v 38.457 L 24.1016,76.5 47.2656,56.5078"
       style="fill:#ffffff;fill-opacity:1;fill-rule:nonzero;stroke:#ffffff;stroke-width:3.99994;stroke-linecap:butt;stroke-linejoin:miter;stroke-miterlimit:4;stroke-dasharray:none;stroke-opacity:1"
       transform="matrix(0.13333333,0,0,-0.13333333,0,36.413333)"
       clip-path="url(#clipPath58)" />
    <path
       id="path59"
       d="M 116.387,152.973 H 44.9609"
       style="fill:none;stroke:#ffffff;stroke-width:10;stroke-linecap:butt;stroke-linejoin:miter;stroke-miterlimit:4;stroke-dasharray:none;stroke-opacity:1"
       transform="matrix(0.13333333,0,0,-0.13333333,0,36.413333)"
       clip-path="url(#clipPath60)" />
    <path
       id="path61"
       d="m 47.2656,132.758 v 38.457 l -23.164,-18.465 23.164,-19.992"
       style="fill:#ffffff;fill-opacity:1;fill-rule:nonzero;stroke:none"
       transform="matrix(0.13333333,0,0,-0.13333333,0,36.413333)"
       clip-path="url(#clipPath62)" />
    <path
       id="path63"
       d="m 47.2656,132.758 v 38.457 L 24.1016,152.75 Z"
       style="fill:none;stroke:#ffffff;stroke-width:3.99994;stroke-linecap:butt;stroke-linejoin:miter;stroke-miterlimit:4;stroke-dasharray:none;stroke-opacity:1"
       transform="matrix(0.13333333,0,0,-0.13333333,0,36.413333)"
       clip-path="url(#clipPath64)" />
    <path
       id="path65"
       d="m 115.469,68.6094 c 25.344,0 45.886,20.5351 45.886,45.8786 0,25.34 -20.542,45.887 -45.886,45.887 -25.3323,0 -45.8792,-20.547 -45.8792,-45.887 0,-25.3435 20.5469,-45.8786 45.8792,-45.8786"
       style="fill:#02709f;fill-opacity:1;fill-rule:nonzero;stroke:none"
       transform="matrix(0.13333333,0,0,-0.13333333,0,36.413333)"
       clip-path="url(#clipPath66)" />
    <path
       id="path67"
       d="m 115.469,68.6094 c 25.344,0 45.886,20.5351 45.886,45.8786 0,25.34 -20.542,45.887 -45.886,45.887 -25.3323,0 -45.8792,-20.547 -45.8792,-45.887 0,-25.3435 20.5469,-45.8786 45.8792,-45.8786 z"
       style="fill:none;stroke:#ffffff;stroke-width:3.99994;stroke-linecap:butt;stroke-linejoin:miter;stroke-miterlimit:4;stroke-dasharray:none;stroke-opacity:1"
       transform="matrix(0.13333333,0,0,-0.13333333,0,36.413333)"
       clip-path="url(#clipPath68)" />
    <path
       id="path69"
       d="m 178.02,178.637 c 1.335,0 2.418,1.093 2.418,2.422 v 22.968 c 0,1.328 -1.083,2.414 -2.418,2.414 H 55.6563 c -1.3399,0 -2.4258,-1.086 -2.4258,-2.414 v -22.968 c 0,-1.329 1.0859,-2.422 2.4258,-2.422 h 22.7812 v 8.008 h 72.8005 v -8.008 h 26.782"
       style="fill:#ffffff;fill-opacity:1;fill-rule:nonzero;stroke:none"
       transform="matrix(0.13333333,0,0,-0.13333333,0,36.413333)"
       clip-path="url(#clipPath70)" />
    <path
       id="path71"
       d="m 178.02,178.637 c 1.335,0 2.418,1.093 2.418,2.422 v 22.968 c 0,1.328 -1.083,2.414 -2.418,2.414 H 55.6563 c -1.3399,0 -2.4258,-1.086 -2.4258,-2.414 v -22.968 c 0,-1.329 1.0859,-2.422 2.4258,-2.422 h 22.7812 v 8.008 h 72.8005 v -8.008 z"
       style="fill:none;stroke:#ffffff;stroke-width:3.99994;stroke-linecap:butt;stroke-linejoin:miter;stroke-miterlimit:4;stroke-dasharray:none;stroke-opacity:1"
       transform="matrix(0.13333333,0,0,-0.13333333,0,36.413333)"
       clip-path="url(#clipPath72)" />
    <path
       id="path73"
       d="m 94.3047,130.219 h 5.625 v 5.625 h -5.625 z"
       style="fill:#000000;fill-opacity:1;fill-rule:nonzero;stroke:none"
       transform="matrix(0.13333333,0,0,-0.13333333,0,36.413333)"
       clip-path="url(#clipPath74)" />
    <path
       id="path75"
       d="m 99.9297,130.219 h -5.625 v 5.625 h 5.625 z"
       style="fill:none;stroke:#ffffff;stroke-width:3.99994;stroke-linecap:butt;stroke-linejoin:miter;stroke-miterlimit:4;stroke-dasharray:none;stroke-opacity:1"
       transform="matrix(0.13333333,0,0,-0.13333333,0,36.413333)"
       clip-path="url(#clipPath76)" />
    <path
       id="path77"
       d="m 94.3047,117.719 h 5.625 v 5.625 h -5.625 z"
       style="fill:#000000;fill-opacity:1;fill-rule:nonzero;stroke:none"
       transform="matrix(0.13333333,0,0,-0.13333333,0,36.413333)"
       clip-path="url(#clipPath78)" />
    <path
       id="path79"
       d="m 99.9297,117.719 h -5.625 v 5.625 h 5.625 z"
       style="fill:none;stroke:#ffffff;stroke-width:3.99994;stroke-linecap:butt;stroke-linejoin:miter;stroke-miterlimit:4;stroke-dasharray:none;stroke-opacity:1"
       transform="matrix(0.13333333,0,0,-0.13333333,0,36.413333)"
       clip-path="url(#clipPath80)" />
    <path
       id="path81"
       d="m 94.3047,105.219 h 5.625 v 5.625 h -5.625 z"
       style="fill:#000000;fill-opacity:1;fill-rule:nonzero;stroke:none"
       transform="matrix(0.13333333,0,0,-0.13333333,0,36.413333)"
       clip-path="url(#clipPath82)" />
    <path
       id="path83"
       d="m 99.9297,105.219 h -5.625 v 5.625 h 5.625 z"
       style="fill:none;stroke:#ffffff;stroke-width:3.99994;stroke-linecap:butt;stroke-linejoin:miter;stroke-miterlimit:4;stroke-dasharray:none;stroke-opacity:1"
       transform="matrix(0.13333333,0,0,-0.13333333,0,36.413333)"
       clip-path="url(#clipPath84)" />
    <path
       id="path85"
       d="m 94.3047,92.7188 h 5.625 v 5.625 h -5.625 z"
       style="fill:#000000;fill-opacity:1;fill-rule:nonzero;stroke:none"
       transform="matrix(0.13333333,0,0,-0.13333333,0,36.413333)"
       clip-path="url(#clipPath86)" />
    <path
       id="path87"
       d="m 99.9297,92.7188 h -5.625 v 5.625 h 5.625 z"
       style="fill:none;stroke:#ffffff;stroke-width:3.99994;stroke-linecap:butt;stroke-linejoin:miter;stroke-miterlimit:4;stroke-dasharray:none;stroke-opacity:1"
       transform="matrix(0.13333333,0,0,-0.13333333,0,36.413333)"
       clip-path="url(#clipPath88)" />
    <path
       id="path89"
       d="m 106.809,130.219 h 5.625 v 5.625 h -5.625 z"
       style="fill:#000000;fill-opacity:1;fill-rule:nonzero;stroke:none"
       transform="matrix(0.13333333,0,0,-0.13333333,0,36.413333)"
       clip-path="url(#clipPath90)" />
    <path
       id="path91"
       d="m 112.434,130.219 h -5.625 v 5.625 h 5.625 z"
       style="fill:none;stroke:#ffffff;stroke-width:3.99994;stroke-linecap:butt;stroke-linejoin:miter;stroke-miterlimit:4;stroke-dasharray:none;stroke-opacity:1"
       transform="matrix(0.13333333,0,0,-0.13333333,0,36.413333)"
       clip-path="url(#clipPath92)" />
    <path
       id="path93"
       d="m 106.809,117.719 h 5.625 v 5.625 h -5.625 z"
       style="fill:#000000;fill-opacity:1;fill-rule:nonzero;stroke:none"
       transform="matrix(0.13333333,0,0,-0.13333333,0,36.413333)"
       clip-path="url(#clipPath94)" />
    <path
       id="path95"
       d="m 112.434,117.719 h -5.625 v 5.625 h 5.625 z"
       style="fill:none;stroke:#ffffff;stroke-width:3.99994;stroke-linecap:butt;stroke-linejoin:miter;stroke-miterlimit:4;stroke-dasharray:none;stroke-opacity:1"
       transform="matrix(0.13333333,0,0,-0.13333333,0,36.413333)"
       clip-path="url(#clipPath96)" />
    <path
       id="path97"
       d="m 106.809,105.219 h 5.625 v 5.625 h -5.625 z"
       style="fill:#000000;fill-opacity:1;fill-rule:nonzero;stroke:none"
       transform="matrix(0.13333333,0,0,-0.13333333,0,36.413333)"
       clip-path="url(#clipPath98)" />
    <path
       id="path99"
       d="m 112.434,105.219 h -5.625 v 5.625 h 5.625 z"
       style="fill:none;stroke:#ffffff;stroke-width:3.99994;stroke-linecap:butt;stroke-linejoin:miter;stroke-miterlimit:4;stroke-dasharray:none;stroke-opacity:1"
       transform="matrix(0.13333333,0,0,-0.13333333,0,36.413333)"
       clip-path="url(#clipPath100)" />
    <path
       id="path101"
       d="m 106.809,92.7188 h 5.625 v 5.625 h -5.625 z"
       style="fill:#000000;fill-opacity:1;fill-rule:nonzero;stroke:none"
       transform="matrix(0.13333333,0,0,-0.13333333,0,36.413333)"
       clip-path="url(#clipPath102)" />
    <path
       id="path103"
       d="m 112.434,92.7188 h -5.625 v 5.625 h 5.625 z"
       style="fill:none;stroke:#ffffff;stroke-width:3.99994;stroke-linecap:butt;stroke-linejoin:miter;stroke-miterlimit:4;stroke-dasharray:none;stroke-opacity:1"
       transform="matrix(0.13333333,0,0,-0.13333333,0,36.413333)"
       clip-path="url(#clipPath104)" />
    <path
       id="path105"
       d="m 119.309,130.219 h 5.625 v 5.625 h -5.625 z"
       style="fill:#000000;fill-opacity:1;fill-rule:nonzero;stroke:none"
       transform="matrix(0.13333333,0,0,-0.13333333,0,36.413333)"
       clip-path="url(#clipPath106)" />
    <path
       id="path107"
       d="m 124.934,130.219 h -5.625 v 5.625 h 5.625 z"
       style="fill:none;stroke:#ffffff;stroke-width:3.99994;stroke-linecap:butt;stroke-linejoin:miter;stroke-miterlimit:4;stroke-dasharray:none;stroke-opacity:1"
       transform="matrix(0.13333333,0,0,-0.13333333,0,36.413333)"
       clip-path="url(#clipPath108)" />
    <path
       id="path109"
       d="m 119.309,117.719 h 5.625 v 5.625 h -5.625 z"
       style="fill:#000000;fill-opacity:1;fill-rule:nonzero;stroke:none"
       transform="matrix(0.13333333,0,0,-0.13333333,0,36.413333)"
       clip-path="url(#clipPath110)" />
    <path
       id="path111"
       d="m 124.934,117.719 h -5.625 v 5.625 h 5.625 z"
       style="fill:none;stroke:#ffffff;stroke-width:3.99994;stroke-linecap:butt;stroke-linejoin:miter;stroke-miterlimit:4;stroke-dasharray:none;stroke-opacity:1"
       transform="matrix(0.13333333,0,0,-0.13333333,0,36.413333)"
       clip-path="url(#clipPath112)" />
    <path
       id="path113"
       d="m 119.309,105.219 h 5.625 v 5.625 h -5.625 z"
       style="fill:#000000;fill-opacity:1;fill-rule:nonzero;stroke:none"
       transform="matrix(0.13333333,0,0,-0.13333333,0,36.413333)"
       clip-path="url(#clipPath114)" />
    <path
       id="path115"
       d="m 124.934,105.219 h -5.625 v 5.625 h 5.625 z"
       style="fill:none;stroke:#ffffff;stroke-width:3.99994;stroke-linecap:butt;stroke-linejoin:miter;stroke-miterlimit:4;stroke-dasharray:none;stroke-opacity:1"
       transform="matrix(0.13333333,0,0,-0.13333333,0,36.413333)"
       clip-path="url(#clipPath116)" />
    <path
       id="path117"
       d="m 119.309,92.7188 h 5.625 v 5.625 h -5.625 z"
       style="fill:#000000;fill-opacity:1;fill-rule:nonzero;stroke:none"
       transform="matrix(0.13333333,0,0,-0.13333333,0,36.413333)"
       clip-path="url(#clipPath118)" />
    <path
       id="path119"
       d="m 124.934,92.7188 h -5.625 v 5.625 h 5.625 z"
       style="fill:none;stroke:#ffffff;stroke-width:3.99994;stroke-linecap:butt;stroke-linejoin:miter;stroke-miterlimit:4;stroke-dasharray:none;stroke-opacity:1"
       transform="matrix(0.13333333,0,0,-0.13333333,0,36.413333)"
       clip-path="url(#clipPath120)" />
    <path
       id="path121"
       d="m 131.809,130.219 h 5.625 v 5.625 h -5.625 z"
       style="fill:#000000;fill-opacity:1;fill-rule:nonzero;stroke:none"
       transform="matrix(0.13333333,0,0,-0.13333333,0,36.413333)"
       clip-path="url(#clipPath122)" />
    <path
       id="path123"
       d="m 137.434,130.219 h -5.625 v 5.625 h 5.625 z"
       style="fill:none;stroke:#ffffff;stroke-width:3.99994;stroke-linecap:butt;stroke-linejoin:miter;stroke-miterlimit:4;stroke-dasharray:none;stroke-opacity:1"
       transform="matrix(0.13333333,0,0,-0.13333333,0,36.413333)"
       clip-path="url(#clipPath124)" />
    <path
       id="path125"
       d="m 131.809,117.719 h 5.625 v 5.625 h -5.625 z"
       style="fill:#000000;fill-opacity:1;fill-rule:nonzero;stroke:none"
       transform="matrix(0.13333333,0,0,-0.13333333,0,36.413333)"
       clip-path="url(#clipPath126)" />
    <path
       id="path127"
       d="m 137.434,117.719 h -5.625 v 5.625 h 5.625 z"
       style="fill:none;stroke:#ffffff;stroke-width:3.99994;stroke-linecap:butt;stroke-linejoin:miter;stroke-miterlimit:4;stroke-dasharray:none;stroke-opacity:1"
       transform="matrix(0.13333333,0,0,-0.13333333,0,36.413333)"
       clip-path="url(#clipPath128)" />
    <path
       id="path129"
       d="m 131.809,105.219 h 5.625 v 5.625 h -5.625 z"
       style="fill:#000000;fill-opacity:1;fill-rule:nonzero;stroke:none"
       transform="matrix(0.13333333,0,0,-0.13333333,0,36.413333)"
       clip-path="url(#clipPath130)" />
    <path
       id="path131"
       d="m 137.434,105.219 h -5.625 v 5.625 h 5.625 z"
       style="fill:none;stroke:#ffffff;stroke-width:3.99994;stroke-linecap:butt;stroke-linejoin:miter;stroke-miterlimit:4;stroke-dasharray:none;stroke-opacity:1"
       transform="matrix(0.13333333,0,0,-0.13333333,0,36.413333)"
       clip-path="url(#clipPath132)" />
    <path
       id="path133"
       d="m 131.809,92.7188 h 5.625 v 5.625 h -5.625 z"
       style="fill:#000000;fill-opacity:1;fill-rule:nonzero;stroke:none"
       transform="matrix(0.13333333,0,0,-0.13333333,0,36.413333)"
       clip-path="url(#clipPath134)" />
    <path
       id="path135"
       d="m 137.434,92.7188 h -5.625 v 5.625 h 5.625 z"
       style="fill:none;stroke:#ffffff;stroke-width:3.99994;stroke-linecap:butt;stroke-linejoin:miter;stroke-miterlimit:4;stroke-dasharray:none;stroke-opacity:1"
       transform="matrix(0.13333333,0,0,-0.13333333,0,36.413333)"
       clip-path="url(#clipPath136)" />
  </g>
</svg>
