<?xml version="1.0" encoding="UTF-8" standalone="no"?>
<!-- Created with Inkscape (http://www.inkscape.org/) -->

<svg
   version="1.1"
   id="svg1"
   width="27.453333"
   height="33.266666"
   viewBox="0 0 27.453333 33.266666"
   sodipodi:docname="front end processor.eps"
   xmlns:inkscape="http://www.inkscape.org/namespaces/inkscape"
   xmlns:sodipodi="http://sodipodi.sourceforge.net/DTD/sodipodi-0.dtd"
   xmlns="http://www.w3.org/2000/svg"
   xmlns:svg="http://www.w3.org/2000/svg">
  <defs
     id="defs1" />
  <sodipodi:namedview
     id="namedview1"
     pagecolor="#505050"
     bordercolor="#eeeeee"
     borderopacity="1"
     inkscape:showpageshadow="0"
     inkscape:pageopacity="0"
     inkscape:pagecheckerboard="0"
     inkscape:deskcolor="#d1d1d1">
    <inkscape:page
       x="0"
       y="0"
       inkscape:label="1"
       id="page1"
       width="27.453333"
       height="33.266666"
       margin="0"
       bleed="0" />
  </sodipodi:namedview>
  <g
     id="g1"
     inkscape:groupmode="layer"
     inkscape:label="1">
    <path
       id="path1"
       d="m 4.82813,4.82813 h 53.6328 v 204.738 H 4.82813 Z"
       style="fill:#087fbf;fill-opacity:1;fill-rule:nonzero;stroke:none"
       transform="matrix(0.13333333,0,0,-0.13333333,0,33.266667)" />
    <path
       id="path2"
       d="M 58.4609,209.566 H 4.82813 V 4.82813 H 58.4609"
       style="fill:none;stroke:#ffffff;stroke-width:4;stroke-linecap:butt;stroke-linejoin:miter;stroke-miterlimit:4;stroke-dasharray:none;stroke-opacity:1"
       transform="matrix(0.13333333,0,0,-0.13333333,0,33.266667)" />
    <path
       id="path3"
       d="M 58.4609,4.82813 96.4102,42.7773 V 247.504 H 42.7695 L 4.82813,209.566 H 58.4609 V 4.82813"
       style="fill:#087fbf;fill-opacity:1;fill-rule:nonzero;stroke:none"
       transform="matrix(0.13333333,0,0,-0.13333333,0,33.266667)" />
    <path
       id="path4"
       d="M 58.4609,4.82813 96.4102,42.7773 V 247.504 H 42.7695 L 4.82813,209.566 H 58.4609 Z"
       style="fill:none;stroke:#ffffff;stroke-width:4;stroke-linecap:butt;stroke-linejoin:miter;stroke-miterlimit:4;stroke-dasharray:none;stroke-opacity:1"
       transform="matrix(0.13333333,0,0,-0.13333333,0,33.266667)" />
    <path
       id="path5"
       d="m 58.4609,209.566 37.9493,37.938"
       style="fill:#087fbf;fill-opacity:1;fill-rule:nonzero;stroke:#ffffff;stroke-width:4;stroke-linecap:butt;stroke-linejoin:miter;stroke-miterlimit:4;stroke-dasharray:none;stroke-opacity:1"
       transform="matrix(0.13333333,0,0,-0.13333333,0,33.266667)" />
    <path
       id="path6"
       d="m 58.5781,4.82813 h 53.6328 v 204.738 H 58.5781 Z"
       style="fill:#087fbf;fill-opacity:1;fill-rule:nonzero;stroke:none"
       transform="matrix(0.13333333,0,0,-0.13333333,0,33.266667)" />
    <path
       id="path7"
       d="M 112.211,209.566 H 58.5781 V 4.82813 h 53.6329"
       style="fill:none;stroke:#ffffff;stroke-width:4;stroke-linecap:butt;stroke-linejoin:miter;stroke-miterlimit:4;stroke-dasharray:none;stroke-opacity:1"
       transform="matrix(0.13333333,0,0,-0.13333333,0,33.266667)" />
    <path
       id="path8"
       d="M 112.211,4.82813 150.156,42.7773 V 247.504 H 96.5195 L 58.5781,209.566 H 112.211 V 4.82813"
       style="fill:#087fbf;fill-opacity:1;fill-rule:nonzero;stroke:none"
       transform="matrix(0.13333333,0,0,-0.13333333,0,33.266667)" />
    <path
       id="path9"
       d="M 112.211,4.82813 150.156,42.7773 V 247.504 H 96.5195 L 58.5781,209.566 h 53.6329 z"
       style="fill:none;stroke:#ffffff;stroke-width:4;stroke-linecap:butt;stroke-linejoin:miter;stroke-miterlimit:4;stroke-dasharray:none;stroke-opacity:1"
       transform="matrix(0.13333333,0,0,-0.13333333,0,33.266667)" />
    <path
       id="path10"
       d="m 112.211,209.566 37.945,37.938"
       style="fill:#087fbf;fill-opacity:1;fill-rule:nonzero;stroke:#ffffff;stroke-width:4;stroke-linecap:butt;stroke-linejoin:miter;stroke-miterlimit:4;stroke-dasharray:none;stroke-opacity:1"
       transform="matrix(0.13333333,0,0,-0.13333333,0,33.266667)" />
    <path
       id="path11"
       d="m 112.328,4.82813 h 53.6289 v 204.738 H 112.328 Z"
       style="fill:#087fbf;fill-opacity:1;fill-rule:nonzero;stroke:none"
       transform="matrix(0.13333333,0,0,-0.13333333,0,33.266667)" />
    <path
       id="path12"
       d="M 165.957,209.566 H 112.328 V 4.82813 h 53.629"
       style="fill:none;stroke:#ffffff;stroke-width:4;stroke-linecap:butt;stroke-linejoin:miter;stroke-miterlimit:4;stroke-dasharray:none;stroke-opacity:1"
       transform="matrix(0.13333333,0,0,-0.13333333,0,33.266667)" />
    <path
       id="path13"
       d="M 165.957,4.82813 203.906,42.7773 V 247.504 h -53.633 l -37.945,-37.938 h 53.629 V 4.82813"
       style="fill:#087fbf;fill-opacity:1;fill-rule:nonzero;stroke:none"
       transform="matrix(0.13333333,0,0,-0.13333333,0,33.266667)" />
    <path
       id="path14"
       d="M 165.957,4.82813 203.906,42.7773 V 247.504 h -53.633 l -37.945,-37.938 h 53.629 z"
       style="fill:none;stroke:#ffffff;stroke-width:4;stroke-linecap:butt;stroke-linejoin:miter;stroke-miterlimit:4;stroke-dasharray:none;stroke-opacity:1"
       transform="matrix(0.13333333,0,0,-0.13333333,0,33.266667)" />
    <path
       id="path15"
       d="m 165.957,209.566 37.949,37.938"
       style="fill:#087fbf;fill-opacity:1;fill-rule:nonzero;stroke:#ffffff;stroke-width:4;stroke-linecap:butt;stroke-linejoin:miter;stroke-miterlimit:4;stroke-dasharray:none;stroke-opacity:1"
       transform="matrix(0.13333333,0,0,-0.13333333,0,33.266667)" />
    <path
       id="path16"
       d="m 119.371,173.668 h 38.7539 v 28.75 H 119.371 Z"
       style="fill:#087fbf;fill-opacity:1;fill-rule:nonzero;stroke:none"
       transform="matrix(0.13333333,0,0,-0.13333333,0,33.266667)" />
    <path
       id="path17"
       d="m 158.125,173.668 v 28.75 h -38.754 v -28.75 z"
       style="fill:none;stroke:#ffffff;stroke-width:4;stroke-linecap:butt;stroke-linejoin:miter;stroke-miterlimit:4;stroke-dasharray:none;stroke-opacity:1"
       transform="matrix(0.13333333,0,0,-0.13333333,0,33.266667)" />
    <path
       id="path18"
       d="m 119.371,140.543 h 38.7539 v 28.75 H 119.371 Z"
       style="fill:#087fbf;fill-opacity:1;fill-rule:nonzero;stroke:none"
       transform="matrix(0.13333333,0,0,-0.13333333,0,33.266667)" />
    <path
       id="path19"
       d="m 158.125,140.543 v 28.75 h -38.754 v -28.75 z"
       style="fill:none;stroke:#ffffff;stroke-width:4;stroke-linecap:butt;stroke-linejoin:miter;stroke-miterlimit:4;stroke-dasharray:none;stroke-opacity:1"
       transform="matrix(0.13333333,0,0,-0.13333333,0,33.266667)" />
    <path
       id="path20"
       d="m 119.371,26.168 h 38.7539 v 28.75 H 119.371 Z"
       style="fill:#087fbf;fill-opacity:1;fill-rule:nonzero;stroke:none"
       transform="matrix(0.13333333,0,0,-0.13333333,0,33.266667)" />
    <path
       id="path21"
       d="m 158.125,26.168 v 28.75 h -38.754 v -28.75 z"
       style="fill:none;stroke:#ffffff;stroke-width:4;stroke-linecap:butt;stroke-linejoin:miter;stroke-miterlimit:4;stroke-dasharray:none;stroke-opacity:1"
       transform="matrix(0.13333333,0,0,-0.13333333,0,33.266667)" />
  </g>
</svg>
