<?xml version="1.0" encoding="UTF-8" standalone="no"?>
<!-- Created with Inkscape (http://www.inkscape.org/) -->

<svg
   version="1.1"
   id="svg1"
   width="37.786667"
   height="53.533333"
   viewBox="0 0 37.786667 53.533333"
   sodipodi:docname="generic processor.eps"
   xmlns:inkscape="http://www.inkscape.org/namespaces/inkscape"
   xmlns:sodipodi="http://sodipodi.sourceforge.net/DTD/sodipodi-0.dtd"
   xmlns="http://www.w3.org/2000/svg"
   xmlns:svg="http://www.w3.org/2000/svg">
  <defs
     id="defs1">
    <clipPath
       clipPathUnits="userSpaceOnUse"
       id="clipPath2">
      <path
         d="M 0,1 V 402 H 280 V 1 Z"
         id="path2" />
    </clipPath>
    <clipPath
       clipPathUnits="userSpaceOnUse"
       id="clipPath4">
      <path
         d="M 0,1 V 402 H 280 V 1 Z"
         id="path4" />
    </clipPath>
    <clipPath
       clipPathUnits="userSpaceOnUse"
       id="clipPath6">
      <path
         d="M 0,1 V 402 H 280 V 1 Z"
         id="path6" />
    </clipPath>
    <clipPath
       clipPathUnits="userSpaceOnUse"
       id="clipPath8">
      <path
         d="M 0,1 V 402 H 280 V 1 Z"
         id="path8" />
    </clipPath>
    <clipPath
       clipPathUnits="userSpaceOnUse"
       id="clipPath10">
      <path
         d="M 0,1 V 402 H 280 V 1 Z"
         id="path10" />
    </clipPath>
    <clipPath
       clipPathUnits="userSpaceOnUse"
       id="clipPath12">
      <path
         d="M 0,1 V 402 H 280 V 1 Z"
         id="path12" />
    </clipPath>
    <clipPath
       clipPathUnits="userSpaceOnUse"
       id="clipPath14">
      <path
         d="M 0,1 V 402 H 280 V 1 Z"
         id="path14" />
    </clipPath>
    <clipPath
       clipPathUnits="userSpaceOnUse"
       id="clipPath16">
      <path
         d="M 0,1 V 402 H 280 V 1 Z"
         id="path16" />
    </clipPath>
    <clipPath
       clipPathUnits="userSpaceOnUse"
       id="clipPath18">
      <path
         d="M 0,1 V 402 H 280 V 1 Z"
         id="path18" />
    </clipPath>
    <clipPath
       clipPathUnits="userSpaceOnUse"
       id="clipPath20">
      <path
         d="M 0,1 V 402 H 280 V 1 Z"
         id="path20" />
    </clipPath>
    <clipPath
       clipPathUnits="userSpaceOnUse"
       id="clipPath22">
      <path
         d="M 0,1 V 402 H 280 V 1 Z"
         id="path22" />
    </clipPath>
    <clipPath
       clipPathUnits="userSpaceOnUse"
       id="clipPath24">
      <path
         d="M 0,1 V 402 H 280 V 1 Z"
         id="path24" />
    </clipPath>
    <clipPath
       clipPathUnits="userSpaceOnUse"
       id="clipPath26">
      <path
         d="M 0,1 V 402 H 280 V 1 Z"
         id="path26" />
    </clipPath>
    <clipPath
       clipPathUnits="userSpaceOnUse"
       id="clipPath28">
      <path
         d="M 0,1 V 402 H 280 V 1 Z"
         id="path28" />
    </clipPath>
    <clipPath
       clipPathUnits="userSpaceOnUse"
       id="clipPath30">
      <path
         d="M 0,1 V 402 H 280 V 1 Z"
         id="path30" />
    </clipPath>
    <clipPath
       clipPathUnits="userSpaceOnUse"
       id="clipPath32">
      <path
         d="M 0,1 V 402 H 280 V 1 Z"
         id="path32" />
    </clipPath>
    <clipPath
       clipPathUnits="userSpaceOnUse"
       id="clipPath34">
      <path
         d="M 0,1 V 402 H 280 V 1 Z"
         id="path34" />
    </clipPath>
    <clipPath
       clipPathUnits="userSpaceOnUse"
       id="clipPath36">
      <path
         d="M 0,1 V 402 H 280 V 1 Z"
         id="path36" />
    </clipPath>
    <clipPath
       clipPathUnits="userSpaceOnUse"
       id="clipPath38">
      <path
         d="M 0,1 V 402 H 280 V 1 Z"
         id="path38" />
    </clipPath>
    <clipPath
       clipPathUnits="userSpaceOnUse"
       id="clipPath40">
      <path
         d="M 0,1 V 402 H 280 V 1 Z"
         id="path40" />
    </clipPath>
    <clipPath
       clipPathUnits="userSpaceOnUse"
       id="clipPath42">
      <path
         d="M 0,1 V 402 H 280 V 1 Z"
         id="path42" />
    </clipPath>
    <clipPath
       clipPathUnits="userSpaceOnUse"
       id="clipPath44">
      <path
         d="M 0,1 V 402 H 280 V 1 Z"
         id="path44" />
    </clipPath>
    <clipPath
       clipPathUnits="userSpaceOnUse"
       id="clipPath46">
      <path
         d="M 0,1 V 402 H 280 V 1 Z"
         id="path46" />
    </clipPath>
    <clipPath
       clipPathUnits="userSpaceOnUse"
       id="clipPath48">
      <path
         d="M 0,1 V 402 H 280 V 1 Z"
         id="path48" />
    </clipPath>
    <clipPath
       clipPathUnits="userSpaceOnUse"
       id="clipPath50">
      <path
         d="M 0,1 V 402 H 280 V 1 Z"
         id="path50" />
    </clipPath>
    <clipPath
       clipPathUnits="userSpaceOnUse"
       id="clipPath52">
      <path
         d="M 0,1 V 402 H 280 V 1 Z"
         id="path52" />
    </clipPath>
    <clipPath
       clipPathUnits="userSpaceOnUse"
       id="clipPath54">
      <path
         d="M 0,1 V 402 H 280 V 1 Z"
         id="path54" />
    </clipPath>
    <clipPath
       clipPathUnits="userSpaceOnUse"
       id="clipPath56">
      <path
         d="M 0,1 V 402 H 280 V 1 Z"
         id="path56" />
    </clipPath>
    <clipPath
       clipPathUnits="userSpaceOnUse"
       id="clipPath58">
      <path
         d="M 0,1 V 402 H 280 V 1 Z"
         id="path58" />
    </clipPath>
  </defs>
  <sodipodi:namedview
     id="namedview1"
     pagecolor="#505050"
     bordercolor="#eeeeee"
     borderopacity="1"
     inkscape:showpageshadow="0"
     inkscape:pageopacity="0"
     inkscape:pagecheckerboard="0"
     inkscape:deskcolor="#d1d1d1">
    <inkscape:page
       x="0"
       y="0"
       inkscape:label="1"
       id="page1"
       width="37.786667"
       height="53.533333"
       margin="0"
       bleed="0" />
  </sodipodi:namedview>
  <g
     id="g1"
     inkscape:groupmode="layer"
     inkscape:label="1">
    <path
       id="path1"
       d="M 39.0625,277.461 4.84375,243.379 V 4.8125 H 244.375 l 34.219,34.0859 V 277.461 H 39.0625"
       style="fill:#087fbf;fill-opacity:1;fill-rule:nonzero;stroke:none"
       transform="matrix(0.13333333,0,0,-0.13333333,0,53.533333)"
       clip-path="url(#clipPath2)" />
    <path
       id="path3"
       d="M 39.0625,277.461 4.84375,243.379 V 4.8125 H 244.375 l 34.219,34.0859 V 277.461 Z"
       style="fill:none;stroke:#ffffff;stroke-width:4;stroke-linecap:butt;stroke-linejoin:miter;stroke-miterlimit:4;stroke-dasharray:none;stroke-opacity:1"
       transform="matrix(0.13333333,0,0,-0.13333333,0,53.533333)"
       clip-path="url(#clipPath4)" />
    <path
       id="path5"
       d="M 4.84375,243.379 H 244.375 l 34.219,34.082 H 39.0625 L 4.84375,243.379"
       style="fill:#087fbf;fill-opacity:1;fill-rule:nonzero;stroke:none"
       transform="matrix(0.13333333,0,0,-0.13333333,0,53.533333)"
       clip-path="url(#clipPath6)" />
    <path
       id="path7"
       d="M 4.84375,243.379 H 244.375 l 34.219,34.082 H 39.0625 Z"
       style="fill:none;stroke:#ffffff;stroke-width:4;stroke-linecap:butt;stroke-linejoin:miter;stroke-miterlimit:4;stroke-dasharray:none;stroke-opacity:1"
       transform="matrix(0.13333333,0,0,-0.13333333,0,53.533333)"
       clip-path="url(#clipPath8)" />
    <path
       id="path9"
       d="m 244.375,243.379 34.219,34.082 V 38.8984 L 244.375,4.8125 V 243.379"
       style="fill:#087fbf;fill-opacity:1;fill-rule:nonzero;stroke:none"
       transform="matrix(0.13333333,0,0,-0.13333333,0,53.533333)"
       clip-path="url(#clipPath10)" />
    <path
       id="path11"
       d="m 244.375,243.379 34.219,34.082 V 38.8984 L 244.375,4.8125 Z"
       style="fill:none;stroke:#ffffff;stroke-width:4;stroke-linecap:butt;stroke-linejoin:miter;stroke-miterlimit:4;stroke-dasharray:none;stroke-opacity:1"
       transform="matrix(0.13333333,0,0,-0.13333333,0,53.533333)"
       clip-path="url(#clipPath12)" />
    <path
       id="path13"
       d="M 39.0625,277.461 4.84375,243.379 V 4.8125 H 244.375 l 34.219,34.0859 V 277.461 H 39.0625"
       style="fill:#087fbf;fill-opacity:1;fill-rule:nonzero;stroke:none"
       transform="matrix(0.13333333,0,0,-0.13333333,0,53.533333)"
       clip-path="url(#clipPath14)" />
    <path
       id="path15"
       d="M 39.0625,277.461 4.84375,243.379 V 4.8125 H 244.375 l 34.219,34.0859 V 277.461 Z"
       style="fill:none;stroke:#ffffff;stroke-width:4;stroke-linecap:butt;stroke-linejoin:miter;stroke-miterlimit:4;stroke-dasharray:none;stroke-opacity:1"
       transform="matrix(0.13333333,0,0,-0.13333333,0,53.533333)"
       clip-path="url(#clipPath16)" />
    <path
       id="path17"
       d="M 4.84375,243.379 H 244.375 l 34.219,34.082"
       style="fill:#087fbf;fill-opacity:1;fill-rule:nonzero;stroke:#ffffff;stroke-width:4;stroke-linecap:butt;stroke-linejoin:miter;stroke-miterlimit:4;stroke-dasharray:none;stroke-opacity:1"
       transform="matrix(0.13333333,0,0,-0.13333333,0,53.533333)"
       clip-path="url(#clipPath18)" />
    <path
       id="path19"
       d="M 244.375,243.379 V 4.8125"
       style="fill:#087fbf;fill-opacity:1;fill-rule:nonzero;stroke:#ffffff;stroke-width:4;stroke-linecap:butt;stroke-linejoin:miter;stroke-miterlimit:4;stroke-dasharray:none;stroke-opacity:1"
       transform="matrix(0.13333333,0,0,-0.13333333,0,53.533333)"
       clip-path="url(#clipPath20)" />
    <path
       id="path21"
       d="M 39.0625,396.73 4.84375,362.648 V 243.379 H 244.375 l 34.219,34.082 V 396.73 H 39.0625"
       style="fill:#087fbf;fill-opacity:1;fill-rule:nonzero;stroke:none"
       transform="matrix(0.13333333,0,0,-0.13333333,0,53.533333)"
       clip-path="url(#clipPath22)" />
    <path
       id="path23"
       d="M 39.0625,396.73 4.84375,362.648 V 243.379 H 244.375 l 34.219,34.082 V 396.73 Z"
       style="fill:none;stroke:#ffffff;stroke-width:4;stroke-linecap:butt;stroke-linejoin:miter;stroke-miterlimit:4;stroke-dasharray:none;stroke-opacity:1"
       transform="matrix(0.13333333,0,0,-0.13333333,0,53.533333)"
       clip-path="url(#clipPath24)" />
    <path
       id="path25"
       d="m 244.375,362.648 34.219,34.082 V 277.461 l -34.219,-34.082 v 119.269"
       style="fill:#087fbf;fill-opacity:1;fill-rule:nonzero;stroke:none"
       transform="matrix(0.13333333,0,0,-0.13333333,0,53.533333)"
       clip-path="url(#clipPath26)" />
    <path
       id="path27"
       d="m 244.375,362.648 34.219,34.082 V 277.461 l -34.219,-34.082 z"
       style="fill:none;stroke:#ffffff;stroke-width:4;stroke-linecap:butt;stroke-linejoin:miter;stroke-miterlimit:4;stroke-dasharray:none;stroke-opacity:1"
       transform="matrix(0.13333333,0,0,-0.13333333,0,53.533333)"
       clip-path="url(#clipPath28)" />
    <path
       id="path29"
       d="M 39.0625,396.73 4.84375,362.648 V 243.379 H 244.375 l 34.219,34.082 V 396.73 H 39.0625"
       style="fill:#087fbf;fill-opacity:1;fill-rule:nonzero;stroke:none"
       transform="matrix(0.13333333,0,0,-0.13333333,0,53.533333)"
       clip-path="url(#clipPath30)" />
    <path
       id="path31"
       d="M 39.0625,396.73 4.84375,362.648 V 243.379 H 244.375 l 34.219,34.082 V 396.73 Z"
       style="fill:none;stroke:#ffffff;stroke-width:4;stroke-linecap:butt;stroke-linejoin:miter;stroke-miterlimit:4;stroke-dasharray:none;stroke-opacity:1"
       transform="matrix(0.13333333,0,0,-0.13333333,0,53.533333)"
       clip-path="url(#clipPath32)" />
    <path
       id="path33"
       d="M 244.375,243.379 V 362.648 H 4.84375"
       style="fill:#087fbf;fill-opacity:1;fill-rule:nonzero;stroke:#ffffff;stroke-width:4;stroke-linecap:butt;stroke-linejoin:miter;stroke-miterlimit:4;stroke-dasharray:none;stroke-opacity:1"
       transform="matrix(0.13333333,0,0,-0.13333333,0,53.533333)"
       clip-path="url(#clipPath34)" />
    <path
       id="path35"
       d="m 21.9531,311.535 h 68.4375 v 34.082 H 21.9531 Z"
       style="fill:#ffffff;fill-opacity:1;fill-rule:nonzero;stroke:none"
       transform="matrix(0.13333333,0,0,-0.13333333,0,53.533333)"
       clip-path="url(#clipPath36)" />
    <path
       id="path37"
       d="m 39.0625,38.8984 h 171.094 v 170.398 H 39.0625 Z"
       style="fill:#ffffff;fill-opacity:1;fill-rule:nonzero;stroke:none"
       transform="matrix(0.13333333,0,0,-0.13333333,0,53.533333)"
       clip-path="url(#clipPath38)" />
    <path
       id="path39"
       d="M 39.0625,209.297 H 210.156 V 38.8984 H 39.0625 Z"
       style="fill:none;stroke:#ffffff;stroke-width:4;stroke-linecap:butt;stroke-linejoin:miter;stroke-miterlimit:1;stroke-dasharray:none;stroke-opacity:1"
       transform="matrix(0.13333333,0,0,-0.13333333,0,53.533333)"
       clip-path="url(#clipPath40)" />
    <path
       id="path41"
       d="m 158.828,311.535 h 68.4375 v 34.082 H 158.828 Z"
       style="fill:#ffffff;fill-opacity:1;fill-rule:nonzero;stroke:none"
       transform="matrix(0.13333333,0,0,-0.13333333,0,53.533333)"
       clip-path="url(#clipPath42)" />
    <path
       id="path43"
       d="m 21.9531,260.422 h 68.4375 v 34.0703 H 21.9531 Z"
       style="fill:#ffffff;fill-opacity:1;fill-rule:nonzero;stroke:none"
       transform="matrix(0.13333333,0,0,-0.13333333,0,53.533333)"
       clip-path="url(#clipPath44)" />
    <path
       id="path45"
       d="m 158.828,260.422 h 68.4375 v 34.0703 H 158.828 Z"
       style="fill:#ffffff;fill-opacity:1;fill-rule:nonzero;stroke:none"
       transform="matrix(0.13333333,0,0,-0.13333333,0,53.533333)"
       clip-path="url(#clipPath46)" />
    <path
       id="path47"
       d="M 90.3906,328.574 H 158.828"
       style="fill:#231f20;fill-opacity:1;fill-rule:nonzero;stroke:#ffffff;stroke-width:4;stroke-linecap:butt;stroke-linejoin:miter;stroke-miterlimit:1;stroke-dasharray:none;stroke-opacity:1"
       transform="matrix(0.13333333,0,0,-0.13333333,0,53.533333)"
       clip-path="url(#clipPath48)" />
    <path
       id="path49"
       d="M 90.3906,277.461 H 158.828"
       style="fill:#231f20;fill-opacity:1;fill-rule:nonzero;stroke:#ffffff;stroke-width:4;stroke-linecap:butt;stroke-linejoin:miter;stroke-miterlimit:1;stroke-dasharray:none;stroke-opacity:1"
       transform="matrix(0.13333333,0,0,-0.13333333,0,53.533333)"
       clip-path="url(#clipPath50)" />
    <path
       id="path51"
       d="m 90.3906,294.492 68.4374,17.043"
       style="fill:#231f20;fill-opacity:1;fill-rule:nonzero;stroke:#ffffff;stroke-width:4;stroke-linecap:butt;stroke-linejoin:miter;stroke-miterlimit:1;stroke-dasharray:none;stroke-opacity:1"
       transform="matrix(0.13333333,0,0,-0.13333333,0,53.533333)"
       clip-path="url(#clipPath52)" />
    <path
       id="path53"
       d="M 90.3906,311.535 158.828,294.492"
       style="fill:#231f20;fill-opacity:1;fill-rule:nonzero;stroke:#ffffff;stroke-width:4;stroke-linecap:butt;stroke-linejoin:miter;stroke-miterlimit:1;stroke-dasharray:none;stroke-opacity:1"
       transform="matrix(0.13333333,0,0,-0.13333333,0,53.533333)"
       clip-path="url(#clipPath54)" />
    <path
       id="path55"
       d="m 124.609,175.215 c 27.801,0 51.329,-21.297 51.329,-51.113 0,-27.6957 -23.528,-51.1215 -51.329,-51.1215 -29.941,0 -51.3277,23.4258 -51.3277,51.1215 0,29.816 21.3867,51.113 51.3277,51.113"
       style="fill:#087fbf;fill-opacity:1;fill-rule:nonzero;stroke:#ffffff;stroke-width:4;stroke-linecap:butt;stroke-linejoin:miter;stroke-miterlimit:4;stroke-dasharray:none;stroke-opacity:1"
       transform="matrix(0.13333333,0,0,-0.13333333,0,53.533333)"
       clip-path="url(#clipPath56)" />
    <path
       id="path57"
       d="m 124.609,141.133 c 8.555,0 17.11,-6.387 17.11,-17.031 0,-8.528 -8.555,-17.039 -17.11,-17.039 -10.695,0 -17.109,8.511 -17.109,17.039 0,10.644 6.414,17.031 17.109,17.031"
       style="fill:#ffffff;fill-opacity:1;fill-rule:nonzero;stroke:#ffffff;stroke-width:4;stroke-linecap:butt;stroke-linejoin:miter;stroke-miterlimit:1;stroke-dasharray:none;stroke-opacity:1"
       transform="matrix(0.13333333,0,0,-0.13333333,0,53.533333)"
       clip-path="url(#clipPath58)" />
  </g>
</svg>
