<?xml version="1.0" encoding="UTF-8" standalone="no"?>
<!-- Created with Inkscape (http://www.inkscape.org/) -->

<svg
   version="1.1"
   id="svg1"
   width="109.70667"
   height="63.813332"
   viewBox="0 0 109.70667 63.813332"
   sodipodi:docname="cloud.eps"
   xmlns:inkscape="http://www.inkscape.org/namespaces/inkscape"
   xmlns:sodipodi="http://sodipodi.sourceforge.net/DTD/sodipodi-0.dtd"
   xmlns="http://www.w3.org/2000/svg"
   xmlns:svg="http://www.w3.org/2000/svg">
  <defs
     id="defs1">
    <clipPath
       clipPathUnits="userSpaceOnUse"
       id="clipPath2">
      <path
         d="M 0,479 H 820 V 0 H 0 Z"
         id="path2" />
    </clipPath>
    <clipPath
       clipPathUnits="userSpaceOnUse"
       id="clipPath4">
      <path
         d="M 0,479 H 820 V 0 H 0 Z"
         id="path4" />
    </clipPath>
  </defs>
  <sodipodi:namedview
     id="namedview1"
     pagecolor="#505050"
     bordercolor="#eeeeee"
     borderopacity="1"
     inkscape:showpageshadow="0"
     inkscape:pageopacity="0"
     inkscape:pagecheckerboard="0"
     inkscape:deskcolor="#d1d1d1">
    <inkscape:page
       x="0"
       y="0"
       inkscape:label="1"
       id="page1"
       width="109.70667"
       height="63.813332"
       margin="0"
       bleed="0" />
  </sodipodi:namedview>
  <g
     id="g1"
     inkscape:groupmode="layer"
     inkscape:label="1">
    <path
       id="path1"
       d="m 285.762,421.988 c -144.004,28.75 -220.0003,-45 -207.9964,-108.75 l 0.9649,-3.476 C -33.4844,290.664 -4.07422,158.238 49.7578,158.238 l 5.3008,0.164 C 41.5039,96.1797 172.637,32.8516 245.762,64.4922 l 4.699,5.1445 C 276.531,13.6719 369.16,4.31641 460.762,1.99219 540.145,-0.0390625 586.477,6.23828 620.52,41.0352 l 5.242,-1.543 c 127.07,-10.2149 184.941,77.5508 157.16,140.5708 l 6.836,1.925 c 43.316,11.453 48.316,111.453 -25.996,126.25 l 1.426,3.871 c 32.261,65.055 -43.833,126.403 -149.426,114.879 l -7.317,3.817 c -75.586,68.441 -293.14,57.285 -318.34,-10.407 l -4.343,1.59"
       style="fill:#ffffff;fill-opacity:1;fill-rule:nonzero;stroke:none"
       transform="matrix(0.13333333,0,0,-0.13333333,0,63.813333)"
       clip-path="url(#clipPath2)" />
    <path
       id="path3"
       d="m 285.762,421.988 c -144.004,28.75 -220.0003,-45 -207.9964,-108.75 l 0.9649,-3.476 C -33.4844,290.664 -4.07422,158.238 49.7578,158.238 l 5.3008,0.164 C 41.5039,96.1797 172.637,32.8516 245.762,64.4922 l 4.699,5.1445 C 276.531,13.6719 369.16,4.31641 460.762,1.99219 540.145,-0.0390625 586.477,6.23828 620.52,41.0352 l 5.242,-1.543 c 127.07,-10.2149 184.941,77.5508 157.16,140.5708 l 6.836,1.925 c 43.316,11.453 48.316,111.453 -25.996,126.25 l 1.426,3.871 c 32.261,65.055 -43.833,126.403 -149.426,114.879 l -7.317,3.817 c -75.586,68.441 -293.14,57.285 -318.34,-10.407 z"
       style="fill:none;stroke:#02709f;stroke-width:3.99994;stroke-linecap:butt;stroke-linejoin:miter;stroke-miterlimit:4;stroke-dasharray:none;stroke-opacity:1"
       transform="matrix(0.13333333,0,0,-0.13333333,0,63.813333)"
       clip-path="url(#clipPath4)" />
  </g>
</svg>
