<?xml version="1.0" encoding="UTF-8" standalone="no"?>
<!-- Created with Inkscape (http://www.inkscape.org/) -->

<svg
   version="1.1"
   id="svg1"
   width="35.466667"
   height="35.226665"
   viewBox="0 0 35.466667 35.226665"
   sodipodi:docname="Services.eps"
   xmlns:inkscape="http://www.inkscape.org/namespaces/inkscape"
   xmlns:sodipodi="http://sodipodi.sourceforge.net/DTD/sodipodi-0.dtd"
   xmlns="http://www.w3.org/2000/svg"
   xmlns:svg="http://www.w3.org/2000/svg">
  <defs
     id="defs1" />
  <sodipodi:namedview
     id="namedview1"
     pagecolor="#505050"
     bordercolor="#eeeeee"
     borderopacity="1"
     inkscape:showpageshadow="0"
     inkscape:pageopacity="0"
     inkscape:pagecheckerboard="0"
     inkscape:deskcolor="#d1d1d1">
    <inkscape:page
       x="0"
       y="0"
       inkscape:label="1"
       id="page1"
       width="35.466667"
       height="35.226665"
       margin="0"
       bleed="0" />
  </sodipodi:namedview>
  <g
     id="g1"
     inkscape:groupmode="layer"
     inkscape:label="1">
    <g
       id="group-R5">
      <path
         id="path2"
         d="M 235.605,237.484 H 2 l 28.1055,22.45 H 263.699 l -28.094,-22.45"
         style="fill:#5db2e6;fill-opacity:1;fill-rule:nonzero;stroke:none"
         transform="matrix(0.13333333,0,0,-0.13333333,0,35.226667)" />
      <path
         id="path3"
         d="M 263.992,26.4844 235.203,4.08203 V 237.676 l 28.789,22.402 V 26.4844"
         style="fill:#1d446d;fill-opacity:1;fill-rule:nonzero;stroke:none"
         transform="matrix(0.13333333,0,0,-0.13333333,0,35.226667)" />
      <path
         id="path4"
         d="M 263.992,26.4844 235.203,4.08203 V 237.676 l 28.789,22.402 z"
         style="fill:none;stroke:#ffffff;stroke-width:4;stroke-linecap:butt;stroke-linejoin:miter;stroke-miterlimit:4;stroke-dasharray:none;stroke-opacity:1"
         transform="matrix(0.13333333,0,0,-0.13333333,0,35.226667)" />
      <path
         id="path5"
         d="M 235.605,4.08203 H 2 V 237.676 H 235.605 V 4.08203"
         style="fill:#4296d8;fill-opacity:1;fill-rule:nonzero;stroke:none"
         transform="matrix(0.13333333,0,0,-0.13333333,0,35.226667)" />
      <path
         id="path6"
         d="M 235.605,4.08203 H 2 V 237.676 h 233.605 z"
         style="fill:none;stroke:#ffffff;stroke-width:4;stroke-linecap:butt;stroke-linejoin:miter;stroke-miterlimit:4;stroke-dasharray:none;stroke-opacity:1"
         transform="matrix(0.13333333,0,0,-0.13333333,0,35.226667)" />
      <path
         id="path7"
         d="m 119.453,126.172 c 0,-0.879 -0.723,-1.602 -1.609,-1.602 H 85 c -0.8789,0 -1.5898,0.723 -1.5898,1.602 v 32.855 c 0,0.879 0.7109,1.602 1.5898,1.602 h 32.844 c 0.886,0 1.609,-0.723 1.609,-1.602 v -32.855"
         style="fill:#100f0d;fill-opacity:1;fill-rule:nonzero;stroke:none"
         transform="matrix(0.13333333,0,0,-0.13333333,0,35.226667)" />
      <path
         id="path8"
         d="m 162.004,126.387 c 0,-0.645 -0.52,-1.172 -1.176,-1.172 h -23.894 c -0.633,0 -1.172,0.527 -1.172,1.172 v 23.91 c 0,0.637 0.539,1.164 1.172,1.164 h 23.894 c 0.656,0 1.176,-0.527 1.176,-1.164 v -23.91"
         style="fill:#100f0d;fill-opacity:1;fill-rule:nonzero;stroke:none"
         transform="matrix(0.13333333,0,0,-0.13333333,0,35.226667)" />
      <path
         id="path9"
         d="m 111.016,88.2617 c 0,-0.6445 -0.536,-1.1719 -1.172,-1.1719 H 85.9375 c -0.6445,0 -1.1602,0.5274 -1.1602,1.1719 v 23.9063 c 0,0.625 0.5157,1.152 1.1602,1.152 h 23.9065 c 0.636,0 1.172,-0.527 1.172,-1.152 V 88.2617"
         style="fill:#100f0d;fill-opacity:1;fill-rule:nonzero;stroke:none"
         transform="matrix(0.13333333,0,0,-0.13333333,0,35.226667)" />
      <path
         id="path10"
         d="m 158.699,82.0703 c 0,-0.7812 -0.64,-1.4258 -1.426,-1.4258 H 128.02 c -0.786,0 -1.426,0.6446 -1.426,1.4258 v 29.2577 c 0,0.781 0.64,1.426 1.426,1.426 h 29.253 c 0.786,0 1.426,-0.645 1.426,-1.426 V 82.0703"
         style="fill:#100f0d;fill-opacity:1;fill-rule:nonzero;stroke:none"
         transform="matrix(0.13333333,0,0,-0.13333333,0,35.226667)" />
      <path
         id="path11"
         d="M 91.2617,196.078 H 45.3906 V 93.6328 h 21.4141 v 81.0392 h 24.457 v 21.406"
         style="fill:#100f0d;fill-opacity:1;fill-rule:nonzero;stroke:none"
         transform="matrix(0.13333333,0,0,-0.13333333,0,35.226667)" />
      <path
         id="path12"
         d="m 121.855,196.078 v -21.406 h 56.583 v -61.176 h 21.406 v 82.582 h -77.989"
         style="fill:#100f0d;fill-opacity:1;fill-rule:nonzero;stroke:none"
         transform="matrix(0.13333333,0,0,-0.13333333,0,35.226667)" />
      <path
         id="path13"
         d="M 178.438,82.9102 V 63.0469 H 45.3906 V 41.6406 H 199.844 v 41.2696 h -21.406"
         style="fill:#100f0d;fill-opacity:1;fill-rule:nonzero;stroke:none"
         transform="matrix(0.13333333,0,0,-0.13333333,0,35.226667)" />
      <path
         id="path14"
         d="m 116.25,129.375 c 0,-0.879 -0.723,-1.602 -1.594,-1.602 H 81.7969 c -0.8789,0 -1.5899,0.723 -1.5899,1.602 v 32.855 c 0,0.879 0.711,1.602 1.5899,1.602 h 32.8591 c 0.871,0 1.594,-0.723 1.594,-1.602 v -32.855"
         style="fill:#ffffff;fill-opacity:1;fill-rule:nonzero;stroke:none"
         transform="matrix(0.13333333,0,0,-0.13333333,0,35.226667)" />
      <path
         id="path15"
         d="m 158.801,129.59 c 0,-0.645 -0.52,-1.172 -1.164,-1.172 H 133.73 c -0.632,0 -1.152,0.527 -1.152,1.172 v 23.902 c 0,0.633 0.52,1.16 1.152,1.16 h 23.907 c 0.644,0 1.164,-0.527 1.164,-1.16 V 129.59"
         style="fill:#ffffff;fill-opacity:1;fill-rule:nonzero;stroke:none"
         transform="matrix(0.13333333,0,0,-0.13333333,0,35.226667)" />
      <path
         id="path16"
         d="m 107.813,91.4453 c 0,-0.625 -0.54,-1.1523 -1.172,-1.1523 H 82.7344 c -0.6446,0 -1.1602,0.5273 -1.1602,1.1523 v 23.9067 c 0,0.644 0.5156,1.171 1.1602,1.171 h 23.9066 c 0.632,0 1.172,-0.527 1.172,-1.171 V 91.4453"
         style="fill:#ffffff;fill-opacity:1;fill-rule:nonzero;stroke:none"
         transform="matrix(0.13333333,0,0,-0.13333333,0,35.226667)" />
      <path
         id="path17"
         d="m 155.496,85.2734 c 0,-0.8007 -0.641,-1.4257 -1.426,-1.4257 h -29.246 c -0.793,0 -1.433,0.625 -1.433,1.4257 v 29.2576 c 0,0.782 0.64,1.426 1.433,1.426 h 29.246 c 0.785,0 1.426,-0.644 1.426,-1.426 V 85.2734"
         style="fill:#ffffff;fill-opacity:1;fill-rule:nonzero;stroke:none"
         transform="matrix(0.13333333,0,0,-0.13333333,0,35.226667)" />
      <path
         id="path18"
         d="m 143.262,102.52 c 0,-0.977 -0.782,-1.758 -1.77,-1.758 h -36.211 c -0.972,0 -1.765,0.781 -1.765,1.758 v 36.234 c 0,0.969 0.793,1.758 1.765,1.758 h 36.211 c 0.988,0 1.77,-0.789 1.77,-1.758 V 102.52"
         style="fill:#100f0d;fill-opacity:1;fill-rule:nonzero;stroke:none"
         transform="matrix(0.13333333,0,0,-0.13333333,0,35.226667)" />
      <path
         id="path19"
         d="m 140.078,105.723 c 0,-0.977 -0.801,-1.758 -1.789,-1.758 h -36.211 c -0.973,0 -1.765,0.781 -1.765,1.758 v 36.226 c 0,0.965 0.792,1.766 1.765,1.766 h 36.211 c 0.988,0 1.789,-0.801 1.789,-1.766 v -36.226"
         style="fill:#ffffff;fill-opacity:1;fill-rule:nonzero;stroke:none"
         transform="matrix(0.13333333,0,0,-0.13333333,0,35.226667)" />
      <path
         id="path20"
         d="m 140.078,105.723 c 0,-0.977 -0.801,-1.758 -1.789,-1.758 h -36.211 c -0.973,0 -1.765,0.781 -1.765,1.758 v 36.226 c 0,0.965 0.792,1.766 1.765,1.766 h 36.211 c 0.988,0 1.789,-0.801 1.789,-1.766 z"
         style="fill:none;stroke:#100f0d;stroke-width:2.5;stroke-linecap:butt;stroke-linejoin:miter;stroke-miterlimit:4;stroke-dasharray:none;stroke-opacity:1"
         transform="matrix(0.13333333,0,0,-0.13333333,0,35.226667)" />
      <path
         id="path21"
         d="M 88.0664,199.281 H 42.1992 V 96.8359 h 21.4024 v 81.0391 h 24.4648 v 21.406"
         style="fill:#ffffff;fill-opacity:1;fill-rule:nonzero;stroke:none"
         transform="matrix(0.13333333,0,0,-0.13333333,0,35.226667)" />
      <path
         id="path22"
         d="m 118.652,199.281 v -21.406 h 56.582 v -61.176 h 21.407 v 82.582 h -77.989"
         style="fill:#ffffff;fill-opacity:1;fill-rule:nonzero;stroke:none"
         transform="matrix(0.13333333,0,0,-0.13333333,0,35.226667)" />
      <path
         id="path23"
         d="M 175.234,86.1133 V 66.2305 H 42.1992 V 44.8242 H 196.641 v 41.2891 h -21.407"
         style="fill:#ffffff;fill-opacity:1;fill-rule:nonzero;stroke:none"
         transform="matrix(0.13333333,0,0,-0.13333333,0,35.226667)" />
    </g>
  </g>
</svg>
