<?xml version="1.0" encoding="UTF-8" standalone="no"?>
<!-- Created with Inkscape (http://www.inkscape.org/) -->

<svg
   version="1.1"
   id="svg1"
   width="47.186668"
   height="31.466667"
   viewBox="0 0 47.186668 31.466667"
   sodipodi:docname="service control.eps"
   xmlns:inkscape="http://www.inkscape.org/namespaces/inkscape"
   xmlns:sodipodi="http://sodipodi.sourceforge.net/DTD/sodipodi-0.dtd"
   xmlns="http://www.w3.org/2000/svg"
   xmlns:svg="http://www.w3.org/2000/svg">
  <defs
     id="defs1" />
  <sodipodi:namedview
     id="namedview1"
     pagecolor="#505050"
     bordercolor="#eeeeee"
     borderopacity="1"
     inkscape:showpageshadow="0"
     inkscape:pageopacity="0"
     inkscape:pagecheckerboard="0"
     inkscape:deskcolor="#d1d1d1">
    <inkscape:page
       x="0"
       y="0"
       inkscape:label="1"
       id="page1"
       width="47.186668"
       height="31.466667"
       margin="0"
       bleed="0" />
  </sodipodi:namedview>
  <g
     id="g1"
     inkscape:groupmode="layer"
     inkscape:label="1">
    <path
       id="path1"
       d="M 312.691,5.48047 V 195.168 H 6.34766 V 5.48047 H 312.691"
       style="fill:#087bbb;fill-opacity:1;fill-rule:nonzero;stroke:none"
       transform="matrix(0.13333333,0,0,-0.13333333,0,31.466667)" />
    <path
       id="path2"
       d="M 312.691,5.48047 V 195.168 H 6.34766 V 5.48047 Z"
       style="fill:none;stroke:#ffffff;stroke-width:4.6;stroke-linecap:butt;stroke-linejoin:miter;stroke-miterlimit:4;stroke-dasharray:none;stroke-opacity:1"
       transform="matrix(0.13333333,0,0,-0.13333333,0,31.466667)" />
    <path
       id="path3"
       d="M 312.027,195.391 H 6.56641 L 54.5156,233.66 H 351.617 V 233.438 45.168 L 312.477,5.59766 V 194.285 l -0.45,1.106"
       style="fill:#087bbb;fill-opacity:1;fill-rule:nonzero;stroke:none"
       transform="matrix(0.13333333,0,0,-0.13333333,0,31.466667)" />
    <path
       id="path4"
       d="M 312.027,195.391 H 6.56641 L 54.5156,233.66 H 351.617 V 233.438 45.168 L 312.477,5.59766 V 194.285 Z"
       style="fill:none;stroke:#ffffff;stroke-width:4.6;stroke-linecap:butt;stroke-linejoin:miter;stroke-miterlimit:4;stroke-dasharray:none;stroke-opacity:1"
       transform="matrix(0.13333333,0,0,-0.13333333,0,31.466667)" />
    <path
       id="path5"
       d="m 312.367,195.723 39.59,38.476"
       style="fill:#000000;fill-opacity:1;fill-rule:nonzero;stroke:#ffffff;stroke-width:4.6;stroke-linecap:butt;stroke-linejoin:miter;stroke-miterlimit:4;stroke-dasharray:none;stroke-opacity:1"
       transform="matrix(0.13333333,0,0,-0.13333333,0,31.466667)" />
    <path
       id="path6"
       d="M 84.6328,112.527 V 89.0547"
       style="fill:#ffffff;fill-opacity:1;fill-rule:nonzero;stroke:none"
       transform="matrix(0.13333333,0,0,-0.13333333,0,31.466667)" />
    <path
       id="path7"
       d="M 51.7383,22.9297 H 87.457 l 39.281,40.1172 h 37.871 l 39.43,-39.4414 h 68.106 v 27.8984 h -52.043 l -40.297,40.293 h -51.539 l -39.516,39.6011 -37.6211,0.04 v 5.105 L 35.8203,121.238 50.6094,106.445 v 5.618 H 81.582 L 81.3281,86.1602 H 51.7383 v 5.1015 L 36.4297,75.957 51.2227,61.1602 v 5.6171 l 30.1054,0.086 V 42.3164 H 51.7383 v 5.0938 L 36.4297,32.1172 51.2227,17.3164 v 5.6133"
       style="fill:#ffffff;fill-opacity:1;fill-rule:nonzero;stroke:none"
       transform="matrix(0.13333333,0,0,-0.13333333,0,31.466667)" />
    <path
       id="path8"
       d="m 265.699,180.313 h -35.722 l -39.278,-40.118 h -37.875 l -39.426,39.422 H 45.2891 v -27.871 h 52.039 l 40.3009,-40.301 h 51.535 l 39.524,-39.5895 37.617,-0.0469 v -5.1172 l 15.312,15.3125 -14.797,14.8047 v -5.6172 h -30.965 l 0.254,25.8986 h 29.59 v -5.125 L 281,127.285 266.207,142.09 v -5.613 l -30.098,-0.098 v 24.551 h 29.59 v -5.117 L 281,171.133 266.207,185.93 v -5.617"
       style="fill:#ffffff;fill-opacity:1;fill-rule:nonzero;stroke:none"
       transform="matrix(0.13333333,0,0,-0.13333333,0,31.466667)" />
  </g>
</svg>
