<?xml version="1.0" encoding="UTF-8" standalone="no"?>
<!-- Created with Inkscape (http://www.inkscape.org/) -->

<svg
   version="1.1"
   id="svg1"
   width="49.546665"
   height="33.573334"
   viewBox="0 0 49.546665 33.573334"
   sodipodi:docname="10700.eps"
   xmlns:inkscape="http://www.inkscape.org/namespaces/inkscape"
   xmlns:sodipodi="http://sodipodi.sourceforge.net/DTD/sodipodi-0.dtd"
   xmlns="http://www.w3.org/2000/svg"
   xmlns:svg="http://www.w3.org/2000/svg">
  <defs
     id="defs1">
    <clipPath
       clipPathUnits="userSpaceOnUse"
       id="clipPath2">
      <path
         d="M 0,1 V 252 H 370 V 1 Z"
         id="path2" />
    </clipPath>
    <clipPath
       clipPathUnits="userSpaceOnUse"
       id="clipPath4">
      <path
         d="M 0,1 V 252 H 370 V 1 Z"
         id="path4" />
    </clipPath>
    <clipPath
       clipPathUnits="userSpaceOnUse"
       id="clipPath6">
      <path
         d="M 0,1 V 252 H 370 V 1 Z"
         id="path6" />
    </clipPath>
    <clipPath
       clipPathUnits="userSpaceOnUse"
       id="clipPath8">
      <path
         d="M 0,1 V 252 H 370 V 1 Z"
         id="path8" />
    </clipPath>
    <clipPath
       clipPathUnits="userSpaceOnUse"
       id="clipPath10">
      <path
         d="M 0,1 V 252 H 370 V 1 Z"
         id="path10" />
    </clipPath>
    <clipPath
       clipPathUnits="userSpaceOnUse"
       id="clipPath12">
      <path
         d="M 0,1 V 252 H 370 V 1 Z"
         id="path12" />
    </clipPath>
    <clipPath
       clipPathUnits="userSpaceOnUse"
       id="clipPath14">
      <path
         d="M 0,1 V 252 H 370 V 1 Z"
         id="path14" />
    </clipPath>
    <clipPath
       clipPathUnits="userSpaceOnUse"
       id="clipPath16">
      <path
         d="M 0,1 V 252 H 370 V 1 Z"
         id="path16" />
    </clipPath>
    <clipPath
       clipPathUnits="userSpaceOnUse"
       id="clipPath18">
      <path
         d="M 0,1 V 252 H 370 V 1 Z"
         id="path18" />
    </clipPath>
    <clipPath
       clipPathUnits="userSpaceOnUse"
       id="clipPath20">
      <path
         d="M 0,1 V 252 H 370 V 1 Z"
         id="path20" />
    </clipPath>
    <clipPath
       clipPathUnits="userSpaceOnUse"
       id="clipPath22">
      <path
         d="M 0,1 V 252 H 370 V 1 Z"
         id="path22" />
    </clipPath>
    <clipPath
       clipPathUnits="userSpaceOnUse"
       id="clipPath24">
      <path
         d="M 0,1 V 252 H 370 V 1 Z"
         id="path24" />
    </clipPath>
  </defs>
  <sodipodi:namedview
     id="namedview1"
     pagecolor="#505050"
     bordercolor="#eeeeee"
     borderopacity="1"
     inkscape:showpageshadow="0"
     inkscape:pageopacity="0"
     inkscape:pagecheckerboard="0"
     inkscape:deskcolor="#d1d1d1">
    <inkscape:page
       x="0"
       y="0"
       inkscape:label="1"
       id="page1"
       width="49.546665"
       height="33.573334"
       margin="0"
       bleed="0" />
  </sodipodi:namedview>
  <g
     id="g1"
     inkscape:groupmode="layer"
     inkscape:label="1">
    <path
       id="path1"
       d="m 369.813,178.285 c 0,-39.504 -82.34,-71.527 -183.883,-71.527 C 84.3477,106.758 2,138.781 2,178.285 V 73.5156 C 2,34.0195 84.3477,1.99219 185.93,1.99219 c 101.543,0 183.883,32.02731 183.883,71.52341 V 178.285"
       style="fill:#087bbb;fill-opacity:1;fill-rule:nonzero;stroke:none"
       transform="matrix(0.13333333,0,0,-0.13333333,0,33.573333)"
       clip-path="url(#clipPath2)" />
    <path
       id="path3"
       d="m 369.813,178.285 c 0,-39.504 -82.34,-71.527 -183.883,-71.527 C 84.3477,106.758 2,138.781 2,178.285 V 73.5156 C 2,34.0195 84.3477,1.99219 185.93,1.99219 c 101.543,0 183.883,32.02731 183.883,71.52341 z"
       style="fill:none;stroke:#ffffff;stroke-width:3.99994;stroke-linecap:butt;stroke-linejoin:miter;stroke-miterlimit:4;stroke-dasharray:none;stroke-opacity:1"
       transform="matrix(0.13333333,0,0,-0.13333333,0,33.573333)"
       clip-path="url(#clipPath4)" />
    <path
       id="path5"
       d="m 185.93,106.758 c 101.543,0 183.883,32.023 183.883,71.527 0,39.504 -82.34,71.524 -183.883,71.524 C 84.3477,249.809 2,217.789 2,178.285 2,138.781 84.3477,106.758 185.93,106.758"
       style="fill:#087bbb;fill-opacity:1;fill-rule:nonzero;stroke:#ffffff;stroke-width:3.99994;stroke-linecap:butt;stroke-linejoin:miter;stroke-miterlimit:4;stroke-dasharray:none;stroke-opacity:1"
       transform="matrix(0.13333333,0,0,-0.13333333,0,33.573333)"
       clip-path="url(#clipPath6)" />
    <path
       id="path7"
       d="m 143.926,206.254 15.183,-22.785 -57.421,-13.274 12.55,10.453 -88.7497,15.165 22.2656,16.691 85.6371,-14.504 10.535,8.254"
       style="fill:#ffffff;fill-opacity:1;fill-rule:nonzero;stroke:none"
       transform="matrix(0.13333333,0,0,-0.13333333,0,33.573333)"
       clip-path="url(#clipPath8)" />
    <path
       id="path9"
       d="m 224.695,151.008 -10.371,23.48 51.797,10.356 -8.98,-8.051 86.328,-14.738 -20.703,-16.575 -85.825,16.114 -12.246,-10.586"
       style="fill:#ffffff;fill-opacity:1;fill-rule:nonzero;stroke:none"
       transform="matrix(0.13333333,0,0,-0.13333333,0,33.573333)"
       clip-path="url(#clipPath10)" />
    <path
       id="path11"
       d="m 196.406,218.688 57.981,15.882 0.679,-24.863 -14.492,2.766 -28.301,-23.485 -27,3.938 29.192,22.976 -18.059,2.786"
       style="fill:#ffffff;fill-opacity:1;fill-rule:nonzero;stroke:none"
       transform="matrix(0.13333333,0,0,-0.13333333,0,33.573333)"
       clip-path="url(#clipPath12)" />
    <path
       id="path13"
       d="m 171.543,129.594 -55.242,-10.356 -2.071,25.551 15.875,-3.449 30.415,25.965 26.914,-4.555 -32.461,-28.316 16.57,-4.84"
       style="fill:#ffffff;fill-opacity:1;fill-rule:nonzero;stroke:none"
       transform="matrix(0.13333333,0,0,-0.13333333,0,33.573333)"
       clip-path="url(#clipPath14)" />
    <path
       id="path15"
       d="m 268.879,53.9492 c 0,-22.664 -35.742,-41.039 -79.777,-41.039 -44.075,0 -79.793,18.375 -79.793,41.039 0,22.668 35.718,41.0469 79.793,41.0469 44.035,0 79.777,-18.3789 79.777,-41.0469"
       style="fill:#ffffff;fill-opacity:1;fill-rule:nonzero;stroke:none"
       transform="matrix(0.13333333,0,0,-0.13333333,0,33.573333)"
       clip-path="url(#clipPath16)" />
    <path
       id="path17"
       d="m 140.203,47.3594 24.668,24.6719 -12.066,12.0742 37.261,2.6172 -2.086,-37.8008 -13.125,13.1289 -24.679,-24.6719 -9.973,9.9805"
       style="fill:#087bbb;fill-opacity:1;fill-rule:nonzero;stroke:none"
       transform="matrix(0.13333333,0,0,-0.13333333,0,33.573333)"
       clip-path="url(#clipPath18)" />
    <path
       id="path19"
       d="m 140.203,47.3594 24.668,24.6719 -12.066,12.0742 37.261,2.6172 -2.086,-37.8008 -13.125,13.1289 -24.679,-24.6719 z"
       style="fill:none;stroke:#ffffff;stroke-width:3.99994;stroke-linecap:butt;stroke-linejoin:miter;stroke-miterlimit:4;stroke-dasharray:none;stroke-opacity:1"
       transform="matrix(0.13333333,0,0,-0.13333333,0,33.573333)"
       clip-path="url(#clipPath20)" />
    <path
       id="path21"
       d="m 184.539,27.4375 24.672,24.6758 -12.07,12.0781 37.246,2.6172 -2.09,-37.8008 -13.149,13.125 -24.628,-24.6758 -9.981,9.9805"
       style="fill:#087bbb;fill-opacity:1;fill-rule:nonzero;stroke:none"
       transform="matrix(0.13333333,0,0,-0.13333333,0,33.573333)"
       clip-path="url(#clipPath22)" />
    <path
       id="path23"
       d="m 184.539,27.4375 24.672,24.6758 -12.07,12.0781 37.246,2.6172 -2.09,-37.8008 -13.149,13.125 L 194.52,17.457 Z"
       style="fill:none;stroke:#ffffff;stroke-width:3.99994;stroke-linecap:butt;stroke-linejoin:miter;stroke-miterlimit:4;stroke-dasharray:none;stroke-opacity:1"
       transform="matrix(0.13333333,0,0,-0.13333333,0,33.573333)"
       clip-path="url(#clipPath24)" />
  </g>
</svg>
