<?xml version="1.0" encoding="UTF-8" standalone="no"?>
<!-- Created with Inkscape (http://www.inkscape.org/) -->

<svg
   version="1.1"
   id="svg1"
   width="41.506668"
   height="55.786667"
   viewBox="0 0 41.506668 55.786667"
   sodipodi:docname="10GE_FCoE.eps"
   xmlns:inkscape="http://www.inkscape.org/namespaces/inkscape"
   xmlns:sodipodi="http://sodipodi.sourceforge.net/DTD/sodipodi-0.dtd"
   xmlns="http://www.w3.org/2000/svg"
   xmlns:svg="http://www.w3.org/2000/svg">
  <defs
     id="defs1" />
  <sodipodi:namedview
     id="namedview1"
     pagecolor="#505050"
     bordercolor="#eeeeee"
     borderopacity="1"
     inkscape:showpageshadow="0"
     inkscape:pageopacity="0"
     inkscape:pagecheckerboard="0"
     inkscape:deskcolor="#d1d1d1">
    <inkscape:page
       x="0"
       y="0"
       inkscape:label="1"
       id="page1"
       width="41.506668"
       height="55.786667"
       margin="0"
       bleed="0" />
  </sodipodi:namedview>
  <g
     id="g1"
     inkscape:groupmode="layer"
     inkscape:label="1">
    <g
       id="group-R5">
      <path
         id="path2"
         d="m 306.305,241.777 -51.34,-48.75 H 5.96094 l 64.50386,48.75 H 306.305"
         style="fill:#087bbb;fill-opacity:1;fill-rule:nonzero;stroke:none"
         transform="matrix(0.13333333,0,0,-0.13333333,0,55.786667)" />
      <path
         id="path3"
         d="m 306.305,241.777 -51.34,-48.75 H 5.96094 l 64.50386,48.75 z"
         style="fill:none;stroke:#ffffff;stroke-width:4;stroke-linecap:butt;stroke-linejoin:miter;stroke-miterlimit:4;stroke-dasharray:none;stroke-opacity:1"
         transform="matrix(0.13333333,0,0,-0.13333333,0,55.786667)" />
      <path
         id="path4"
         d="M 254.965,4.71875 V 193.027 H 5.96094 V 4.71875 H 254.965"
         style="fill:#78b3da;fill-opacity:1;fill-rule:nonzero;stroke:none"
         transform="matrix(0.13333333,0,0,-0.13333333,0,55.786667)" />
      <path
         id="path5"
         d="M 254.965,4.71875 V 193.027 H 5.96094 V 4.71875 Z"
         style="fill:none;stroke:#ffffff;stroke-width:4;stroke-linecap:butt;stroke-linejoin:miter;stroke-miterlimit:4;stroke-dasharray:none;stroke-opacity:1"
         transform="matrix(0.13333333,0,0,-0.13333333,0,55.786667)" />
      <path
         id="path6"
         d="M 301.215,50.957 V 239.262 L 253.473,193.027 V 4.71875 L 301.215,50.957"
         style="fill:#328fc7;fill-opacity:1;fill-rule:nonzero;stroke:none"
         transform="matrix(0.13333333,0,0,-0.13333333,0,55.786667)" />
      <path
         id="path7"
         d="M 301.215,50.957 V 239.262 L 253.473,193.027 V 4.71875 Z"
         style="fill:none;stroke:#ffffff;stroke-width:4;stroke-linecap:butt;stroke-linejoin:miter;stroke-miterlimit:4;stroke-dasharray:none;stroke-opacity:1"
         transform="matrix(0.13333333,0,0,-0.13333333,0,55.786667)" />
      <path
         id="path8"
         d="m 306.305,416.168 -51.34,-48.746 H 5.96094 L 70.4648,416.168 H 306.305"
         style="fill:#087bbb;fill-opacity:1;fill-rule:nonzero;stroke:none"
         transform="matrix(0.13333333,0,0,-0.13333333,0,55.786667)" />
      <path
         id="path9"
         d="m 306.305,416.168 -51.34,-48.746 H 5.96094 l 64.50386,48.746 z"
         style="fill:none;stroke:#ffffff;stroke-width:4;stroke-linecap:butt;stroke-linejoin:miter;stroke-miterlimit:4;stroke-dasharray:none;stroke-opacity:1"
         transform="matrix(0.13333333,0,0,-0.13333333,0,55.786667)" />
      <path
         id="path10"
         d="M 254.965,191.289 V 367.422 H 5.96094 V 191.289 H 254.965"
         style="fill:#087bbb;fill-opacity:1;fill-rule:nonzero;stroke:none"
         transform="matrix(0.13333333,0,0,-0.13333333,0,55.786667)" />
      <path
         id="path11"
         d="M 254.965,191.289 V 367.422 H 5.96094 V 191.289 Z"
         style="fill:none;stroke:#ffffff;stroke-width:4;stroke-linecap:butt;stroke-linejoin:miter;stroke-miterlimit:4;stroke-dasharray:none;stroke-opacity:1"
         transform="matrix(0.13333333,0,0,-0.13333333,0,55.786667)" />
      <path
         id="path12"
         d="M 301.215,237.531 V 413.664 L 253.473,367.422 V 191.289 l 47.742,46.242"
         style="fill:#087bbb;fill-opacity:1;fill-rule:nonzero;stroke:none"
         transform="matrix(0.13333333,0,0,-0.13333333,0,55.786667)" />
      <path
         id="path13"
         d="M 301.215,237.531 V 413.664 L 253.473,367.422 V 191.289 Z"
         style="fill:none;stroke:#ffffff;stroke-width:4;stroke-linecap:butt;stroke-linejoin:miter;stroke-miterlimit:4;stroke-dasharray:none;stroke-opacity:1"
         transform="matrix(0.13333333,0,0,-0.13333333,0,55.786667)" />
      <path
         id="path14"
         d="M 107.34,283.34 H 70.0547 v 9.613 L 56,278.773 70.0547,264.578 v 9.617 H 107.34 v 9.145"
         style="fill:#ffffff;fill-opacity:1;fill-rule:nonzero;stroke:none"
         transform="matrix(0.13333333,0,0,-0.13333333,0,55.786667)" />
      <path
         id="path15"
         d="m 128.402,253.141 v -37.278 h -9.617 l 14.18,-14.05 14.199,14.05 h -9.621 v 37.278 h -9.141"
         style="fill:#ffffff;fill-opacity:1;fill-rule:nonzero;stroke:none"
         transform="matrix(0.13333333,0,0,-0.13333333,0,55.786667)" />
      <path
         id="path16"
         d="m 128.402,303.328 v 37.274 h -9.617 l 14.18,14.058 14.199,-14.058 h -9.621 v -37.274 h -9.141"
         style="fill:#ffffff;fill-opacity:1;fill-rule:nonzero;stroke:none"
         transform="matrix(0.13333333,0,0,-0.13333333,0,55.786667)" />
      <path
         id="path17"
         d="m 158.609,274.195 h 37.254 v -9.617 l 14.094,14.195 -14.094,14.18 v -9.613 h -37.254 v -9.145"
         style="fill:#ffffff;fill-opacity:1;fill-rule:nonzero;stroke:none"
         transform="matrix(0.13333333,0,0,-0.13333333,0,55.786667)" />
      <path
         id="path18"
         d="m 192.934,218.945 c -7,-7.39 -39.149,12.907 -71.778,45.332 -32.6443,32.434 -53.406,64.707 -46.4138,72.094 7,7.391 39.1408,-12.922 71.7658,-45.351 32.637,-32.411 53.43,-64.707 46.426,-72.075 z"
         style="fill:none;stroke:#ffffff;stroke-width:3.4775;stroke-linecap:butt;stroke-linejoin:miter;stroke-miterlimit:4;stroke-dasharray:none;stroke-opacity:1"
         transform="matrix(0.13333333,0,0,-0.13333333,0,55.786667)" />
      <path
         id="path19"
         d="m 191.078,336.914 c 7.383,-6.996 -12.93,-39.121 -45.351,-71.758 -32.43,-32.625 -64.7075,-53.418 -72.0903,-46.418 -7.3906,7 12.9102,39.137 45.3433,71.774 32.422,32.633 64.696,53.414 72.098,46.402 z"
         style="fill:none;stroke:#ffffff;stroke-width:3.4775;stroke-linecap:butt;stroke-linejoin:miter;stroke-miterlimit:4;stroke-dasharray:none;stroke-opacity:1"
         transform="matrix(0.13333333,0,0,-0.13333333,0,55.786667)" />
      <path
         id="path20"
         d="m 148.258,257.109 c 12.312,8.625 15.301,25.571 6.68,37.879 -8.625,12.313 -25.579,15.305 -37.903,6.692 -12.293,-8.61 -15.281,-25.586 -6.66,-37.879 8.605,-12.309 25.566,-15.309 37.883,-6.692"
         style="fill:#bfbebe;fill-opacity:1;fill-rule:nonzero;stroke:none"
         transform="matrix(0.13333333,0,0,-0.13333333,0,55.786667)" />
      <path
         id="path21"
         d="M 122.113,129.082 H 59.5352"
         style="fill:none;stroke:#ffffff;stroke-width:14.25;stroke-linecap:butt;stroke-linejoin:miter;stroke-miterlimit:4;stroke-dasharray:none;stroke-opacity:1"
         transform="matrix(0.13333333,0,0,-0.13333333,0,55.786667)" />
      <path
         id="path22"
         d="m 145.641,149.445 h 69.246"
         style="fill:none;stroke:#ffffff;stroke-width:14.25;stroke-linecap:butt;stroke-linejoin:miter;stroke-miterlimit:4;stroke-dasharray:none;stroke-opacity:1"
         transform="matrix(0.13333333,0,0,-0.13333333,0,55.786667)" />
      <path
         id="path23"
         d="m 198.559,173.105 v -45.664 l 27.519,21.934 z"
         style="fill:#ffffff;fill-opacity:1;fill-rule:nonzero;stroke:#ffffff;stroke-width:1.9;stroke-linecap:butt;stroke-linejoin:miter;stroke-miterlimit:4;stroke-dasharray:none;stroke-opacity:1"
         transform="matrix(0.13333333,0,0,-0.13333333,0,55.786667)" />
      <path
         id="path24"
         d="m 65.9219,105.801 v 45.664 L 38.4023,129.531 Z"
         style="fill:#ffffff;fill-opacity:1;fill-rule:nonzero;stroke:#ffffff;stroke-width:1.9;stroke-linecap:butt;stroke-linejoin:miter;stroke-miterlimit:4;stroke-dasharray:none;stroke-opacity:1"
         transform="matrix(0.13333333,0,0,-0.13333333,0,55.786667)" />
      <path
         id="path25"
         d="M 122.113,46.582 H 59.5352"
         style="fill:none;stroke:#ffffff;stroke-width:14.25;stroke-linecap:butt;stroke-linejoin:miter;stroke-miterlimit:4;stroke-dasharray:none;stroke-opacity:1"
         transform="matrix(0.13333333,0,0,-0.13333333,0,55.786667)" />
      <path
         id="path26"
         d="m 145.641,66.9453 h 69.246"
         style="fill:none;stroke:#ffffff;stroke-width:14.25;stroke-linecap:butt;stroke-linejoin:miter;stroke-miterlimit:4;stroke-dasharray:none;stroke-opacity:1"
         transform="matrix(0.13333333,0,0,-0.13333333,0,55.786667)" />
      <path
         id="path27"
         d="M 198.559,90.6055 V 44.9336 l 27.519,21.9414 z"
         style="fill:#ffffff;fill-opacity:1;fill-rule:nonzero;stroke:#ffffff;stroke-width:1.9;stroke-linecap:butt;stroke-linejoin:miter;stroke-miterlimit:4;stroke-dasharray:none;stroke-opacity:1"
         transform="matrix(0.13333333,0,0,-0.13333333,0,55.786667)" />
      <path
         id="path28"
         d="m 65.9219,23.3008 v 45.664 L 38.4023,47.0313 Z"
         style="fill:#ffffff;fill-opacity:1;fill-rule:nonzero;stroke:#ffffff;stroke-width:1.9;stroke-linecap:butt;stroke-linejoin:miter;stroke-miterlimit:4;stroke-dasharray:none;stroke-opacity:1"
         transform="matrix(0.13333333,0,0,-0.13333333,0,55.786667)" />
    </g>
  </g>
</svg>
