<?xml version="1.0" encoding="UTF-8" standalone="no"?>
<!-- Created with Inkscape (http://www.inkscape.org/) -->

<svg
   version="1.1"
   id="svg1"
   width="61.333332"
   height="36.84"
   viewBox="0 0 61.333332 36.84"
   sodipodi:docname="15200.eps"
   xmlns:inkscape="http://www.inkscape.org/namespaces/inkscape"
   xmlns:sodipodi="http://sodipodi.sourceforge.net/DTD/sodipodi-0.dtd"
   xmlns="http://www.w3.org/2000/svg"
   xmlns:svg="http://www.w3.org/2000/svg">
  <defs
     id="defs1" />
  <sodipodi:namedview
     id="namedview1"
     pagecolor="#505050"
     bordercolor="#eeeeee"
     borderopacity="1"
     inkscape:showpageshadow="0"
     inkscape:pageopacity="0"
     inkscape:pagecheckerboard="0"
     inkscape:deskcolor="#d1d1d1">
    <inkscape:page
       x="0"
       y="0"
       inkscape:label="1"
       id="page1"
       width="61.333332"
       height="36.84"
       margin="0"
       bleed="0" />
  </sodipodi:namedview>
  <g
     id="g1"
     inkscape:groupmode="layer"
     inkscape:label="1">
    <path
       id="path1"
       d="M 36.3203,223.133 H 364.656 L 402.004,188.77 V 33.7695 L 364.656,2.00391 H 34.6563 L 2,33.7695 V 188.77 l 34.3203,34.363"
       style="fill:#087bbb;fill-opacity:1;fill-rule:nonzero;stroke:#ffffff;stroke-width:3.99994;stroke-linecap:butt;stroke-linejoin:miter;stroke-miterlimit:4;stroke-dasharray:none;stroke-opacity:1"
       transform="matrix(0.13333333,0,0,-0.13333333,0,36.84)" />
    <path
       id="path2"
       d="M 36.3203,223.621 H 364.656 l 56.66,50.488 H 92.9766 L 36.3203,223.621"
       style="fill:#087bbb;fill-opacity:1;fill-rule:nonzero;stroke:none"
       transform="matrix(0.13333333,0,0,-0.13333333,0,36.84)" />
    <path
       id="path3"
       d="M 36.3203,223.621 H 364.656 l 56.66,50.488 H 92.9766 Z"
       style="fill:none;stroke:#ffffff;stroke-width:3.99994;stroke-linecap:butt;stroke-linejoin:miter;stroke-miterlimit:4;stroke-dasharray:none;stroke-opacity:1"
       transform="matrix(0.13333333,0,0,-0.13333333,0,36.84)" />
    <path
       id="path4"
       d="m 362.988,223.133 37.344,-34.363 56.66,50.488 -37.344,34.363 -56.66,-50.488"
       style="fill:#087bbb;fill-opacity:1;fill-rule:nonzero;stroke:none"
       transform="matrix(0.13333333,0,0,-0.13333333,0,36.84)" />
    <path
       id="path5"
       d="m 362.988,223.133 37.344,-34.363 56.66,50.488 -37.344,34.363 z"
       style="fill:none;stroke:#ffffff;stroke-width:3.99994;stroke-linecap:butt;stroke-linejoin:miter;stroke-miterlimit:4;stroke-dasharray:none;stroke-opacity:1"
       transform="matrix(0.13333333,0,0,-0.13333333,0,36.84)" />
    <path
       id="path6"
       d="m 15.7813,93.8672 h 374.016 v 38.3906 H 15.7813 Z"
       style="fill:#ffffff;fill-opacity:1;fill-rule:nonzero;stroke:none"
       transform="matrix(0.13333333,0,0,-0.13333333,0,36.84)" />
    <path
       id="path7"
       d="m 239.695,113.23 c -53.484,0 -95.066,39.512 -95.066,90.313"
       style="fill:none;stroke:#ffffff;stroke-width:12;stroke-linecap:round;stroke-linejoin:miter;stroke-miterlimit:1;stroke-dasharray:none;stroke-opacity:1"
       transform="matrix(0.13333333,0,0,-0.13333333,0,36.84)" />
    <path
       id="path8"
       d="m 239.695,119.141 c -53.484,0 -95.066,33.601 -95.066,84.402"
       style="fill:none;stroke:#ffffff;stroke-width:12;stroke-linecap:round;stroke-linejoin:miter;stroke-miterlimit:1;stroke-dasharray:none;stroke-opacity:1"
       transform="matrix(0.13333333,0,0,-0.13333333,0,36.84)" />
    <path
       id="path9"
       d="m 25.7813,119.141 c 53.4765,0 95.0777,33.601 95.0777,84.402"
       style="fill:none;stroke:#ffffff;stroke-width:12;stroke-linecap:round;stroke-linejoin:miter;stroke-miterlimit:1;stroke-dasharray:none;stroke-opacity:1"
       transform="matrix(0.13333333,0,0,-0.13333333,0,36.84)" />
    <path
       id="path10"
       d="m 382.297,119.141 c -53.481,0 -95.063,33.601 -95.063,84.402"
       style="fill:none;stroke:#ffffff;stroke-width:12;stroke-linecap:round;stroke-linejoin:miter;stroke-miterlimit:1;stroke-dasharray:none;stroke-opacity:1"
       transform="matrix(0.13333333,0,0,-0.13333333,0,36.84)" />
    <path
       id="path11"
       d="m 168.391,119.141 c 53.472,0 95.078,33.601 95.078,84.402"
       style="fill:none;stroke:#ffffff;stroke-width:12;stroke-linecap:round;stroke-linejoin:miter;stroke-miterlimit:1;stroke-dasharray:none;stroke-opacity:1"
       transform="matrix(0.13333333,0,0,-0.13333333,0,36.84)" />
    <path
       id="path12"
       d="m 239.695,106.758 c -53.484,0 -95.066,-33.0392 -95.066,-83.8361"
       style="fill:none;stroke:#ffffff;stroke-width:12;stroke-linecap:round;stroke-linejoin:miter;stroke-miterlimit:1;stroke-dasharray:none;stroke-opacity:1"
       transform="matrix(0.13333333,0,0,-0.13333333,0,36.84)" />
    <path
       id="path13"
       d="m 25.7813,106.758 c 53.4765,0 95.0777,-33.0392 95.0777,-83.8361"
       style="fill:none;stroke:#ffffff;stroke-width:12;stroke-linecap:round;stroke-linejoin:miter;stroke-miterlimit:1;stroke-dasharray:none;stroke-opacity:1"
       transform="matrix(0.13333333,0,0,-0.13333333,0,36.84)" />
    <path
       id="path14"
       d="m 382.297,106.758 c -53.481,0 -95.063,-33.0392 -95.063,-83.8361"
       style="fill:none;stroke:#ffffff;stroke-width:12;stroke-linecap:round;stroke-linejoin:miter;stroke-miterlimit:1;stroke-dasharray:none;stroke-opacity:1"
       transform="matrix(0.13333333,0,0,-0.13333333,0,36.84)" />
    <path
       id="path15"
       d="m 168.391,106.758 c 53.472,0 95.078,-33.0392 95.078,-83.8361"
       style="fill:none;stroke:#ffffff;stroke-width:12;stroke-linecap:round;stroke-linejoin:miter;stroke-miterlimit:1;stroke-dasharray:none;stroke-opacity:1"
       transform="matrix(0.13333333,0,0,-0.13333333,0,36.84)" />
    <path
       id="path16"
       d="M 400.344,188.77 V 33.7695 l 56.66,50.4883 V 239.258 l -56.66,-50.488"
       style="fill:#087bbb;fill-opacity:1;fill-rule:nonzero;stroke:none"
       transform="matrix(0.13333333,0,0,-0.13333333,0,36.84)" />
    <path
       id="path17"
       d="M 400.344,188.77 V 33.7695 l 56.66,50.4883 V 239.258 Z"
       style="fill:none;stroke:#ffffff;stroke-width:3.99994;stroke-linecap:butt;stroke-linejoin:miter;stroke-miterlimit:4;stroke-dasharray:none;stroke-opacity:1"
       transform="matrix(0.13333333,0,0,-0.13333333,0,36.84)" />
  </g>
</svg>
