<?xml version="1.0" encoding="UTF-8" standalone="no"?>
<!-- Created with Inkscape (http://www.inkscape.org/) -->

<svg
   version="1.1"
   id="svg1"
   width="49.546665"
   height="49.573334"
   viewBox="0 0 49.546665 49.573334"
   sodipodi:docname="7500ars (7513).eps"
   xmlns:inkscape="http://www.inkscape.org/namespaces/inkscape"
   xmlns:sodipodi="http://sodipodi.sourceforge.net/DTD/sodipodi-0.dtd"
   xmlns="http://www.w3.org/2000/svg"
   xmlns:svg="http://www.w3.org/2000/svg">
  <defs
     id="defs1">
    <clipPath
       clipPathUnits="userSpaceOnUse"
       id="clipPath2">
      <path
         d="M 0,1 V 372 H 370 V 1 Z"
         id="path2" />
    </clipPath>
    <clipPath
       clipPathUnits="userSpaceOnUse"
       id="clipPath4">
      <path
         d="M 0,1 V 372 H 370 V 1 Z"
         id="path4" />
    </clipPath>
    <clipPath
       clipPathUnits="userSpaceOnUse"
       id="clipPath6">
      <path
         d="M 0,1 V 372 H 370 V 1 Z"
         id="path6" />
    </clipPath>
    <clipPath
       clipPathUnits="userSpaceOnUse"
       id="clipPath8">
      <path
         d="M 0,1 V 372 H 370 V 1 Z"
         id="path8" />
    </clipPath>
    <clipPath
       clipPathUnits="userSpaceOnUse"
       id="clipPath10">
      <path
         d="M 0,1 V 372 H 370 V 1 Z"
         id="path10" />
    </clipPath>
    <clipPath
       clipPathUnits="userSpaceOnUse"
       id="clipPath12">
      <path
         d="M 0,1 V 372 H 370 V 1 Z"
         id="path12" />
    </clipPath>
    <clipPath
       clipPathUnits="userSpaceOnUse"
       id="clipPath14">
      <path
         d="M 0,1 V 372 H 370 V 1 Z"
         id="path14" />
    </clipPath>
    <clipPath
       clipPathUnits="userSpaceOnUse"
       id="clipPath16">
      <path
         d="M 0,1 V 372 H 370 V 1 Z"
         id="path16" />
    </clipPath>
    <clipPath
       clipPathUnits="userSpaceOnUse"
       id="clipPath18">
      <path
         d="M 0,1 V 372 H 370 V 1 Z"
         id="path18" />
    </clipPath>
    <clipPath
       clipPathUnits="userSpaceOnUse"
       id="clipPath20">
      <path
         d="M 0,1 V 372 H 370 V 1 Z"
         id="path20" />
    </clipPath>
    <clipPath
       clipPathUnits="userSpaceOnUse"
       id="clipPath22">
      <path
         d="M 0,1 V 372 H 370 V 1 Z"
         id="path22" />
    </clipPath>
    <clipPath
       clipPathUnits="userSpaceOnUse"
       id="clipPath24">
      <path
         d="M 0,1 V 372 H 370 V 1 Z"
         id="path24" />
    </clipPath>
    <clipPath
       clipPathUnits="userSpaceOnUse"
       id="clipPath26">
      <path
         d="M 0,1 V 372 H 370 V 1 Z"
         id="path26" />
    </clipPath>
    <clipPath
       clipPathUnits="userSpaceOnUse"
       id="clipPath28">
      <path
         d="M 0,1 V 372 H 370 V 1 Z"
         id="path28" />
    </clipPath>
    <clipPath
       clipPathUnits="userSpaceOnUse"
       id="clipPath30">
      <path
         d="M 0,1 V 372 H 370 V 1 Z"
         id="path30" />
    </clipPath>
    <clipPath
       clipPathUnits="userSpaceOnUse"
       id="clipPath32">
      <path
         d="M 0,1 V 372 H 370 V 1 Z"
         id="path32" />
    </clipPath>
    <clipPath
       clipPathUnits="userSpaceOnUse"
       id="clipPath34">
      <path
         d="M 0,1 V 372 H 370 V 1 Z"
         id="path34" />
    </clipPath>
    <clipPath
       clipPathUnits="userSpaceOnUse"
       id="clipPath36">
      <path
         d="M 0,1 V 372 H 370 V 1 Z"
         id="path36" />
    </clipPath>
    <clipPath
       clipPathUnits="userSpaceOnUse"
       id="clipPath38">
      <path
         d="M 0,1 V 372 H 370 V 1 Z"
         id="path38" />
    </clipPath>
    <clipPath
       clipPathUnits="userSpaceOnUse"
       id="clipPath40">
      <path
         d="M 0,1 V 372 H 370 V 1 Z"
         id="path40" />
    </clipPath>
    <clipPath
       clipPathUnits="userSpaceOnUse"
       id="clipPath42">
      <path
         d="M 0,1 V 372 H 370 V 1 Z"
         id="path42" />
    </clipPath>
    <clipPath
       clipPathUnits="userSpaceOnUse"
       id="clipPath44">
      <path
         d="M 0,1 V 372 H 370 V 1 Z"
         id="path44" />
    </clipPath>
    <clipPath
       clipPathUnits="userSpaceOnUse"
       id="clipPath46">
      <path
         d="M 0,1 V 372 H 370 V 1 Z"
         id="path46" />
    </clipPath>
  </defs>
  <sodipodi:namedview
     id="namedview1"
     pagecolor="#505050"
     bordercolor="#eeeeee"
     borderopacity="1"
     inkscape:showpageshadow="0"
     inkscape:pageopacity="0"
     inkscape:pagecheckerboard="0"
     inkscape:deskcolor="#d1d1d1">
    <inkscape:page
       x="0"
       y="0"
       inkscape:label="1"
       id="page1"
       width="49.546665"
       height="49.573334"
       margin="0"
       bleed="0" />
  </sodipodi:namedview>
  <g
     id="g1"
     inkscape:groupmode="layer"
     inkscape:label="1">
    <path
       id="path1"
       d="m 369.855,298.324 c 0,-39.5 -82.343,-71.523 -183.925,-71.523 C 84.3477,226.801 2,258.824 2,298.324 V 73.5313 C 2,34.0234 84.3477,1.99219 185.93,1.99219 c 101.582,0 183.925,32.03121 183.925,71.53911 V 298.324"
       style="fill:#087bbb;fill-opacity:1;fill-rule:nonzero;stroke:none"
       transform="matrix(0.13333333,0,0,-0.13333333,0,49.573333)"
       clip-path="url(#clipPath2)" />
    <path
       id="path3"
       d="m 369.855,298.324 c 0,-39.5 -82.343,-71.523 -183.925,-71.523 C 84.3477,226.801 2,258.824 2,298.324 V 73.5313 C 2,34.0234 84.3477,1.99219 185.93,1.99219 c 101.582,0 183.925,32.03121 183.925,71.53911 z"
       style="fill:none;stroke:#ffffff;stroke-width:3.99994;stroke-linecap:butt;stroke-linejoin:miter;stroke-miterlimit:4;stroke-dasharray:none;stroke-opacity:1"
       transform="matrix(0.13333333,0,0,-0.13333333,0,49.573333)"
       clip-path="url(#clipPath4)" />
    <path
       id="path5"
       d="m 185.93,226.801 c 101.582,0 183.925,32.023 183.925,71.523 0,39.512 -82.343,71.524 -183.925,71.524 C 84.3477,369.848 2,337.836 2,298.324 c 0,-39.5 82.3477,-71.523 183.93,-71.523"
       style="fill:#087bbb;fill-opacity:1;fill-rule:nonzero;stroke:none"
       transform="matrix(0.13333333,0,0,-0.13333333,0,49.573333)"
       clip-path="url(#clipPath6)" />
    <path
       id="path7"
       d="m 185.93,226.801 c 101.582,0 183.925,32.023 183.925,71.523 0,39.512 -82.343,71.524 -183.925,71.524 C 84.3477,369.848 2,337.836 2,298.324 c 0,-39.5 82.3477,-71.523 183.93,-71.523 z"
       style="fill:none;stroke:#ffffff;stroke-width:3.99994;stroke-linecap:butt;stroke-linejoin:miter;stroke-miterlimit:4;stroke-dasharray:none;stroke-opacity:1"
       transform="matrix(0.13333333,0,0,-0.13333333,0,49.573333)"
       clip-path="url(#clipPath8)" />
    <path
       id="path9"
       d="m 143.926,326.293 15.183,-22.781 -57.421,-13.274 12.55,10.45 -88.7497,15.167 22.2656,16.688 85.6371,-14.5 10.535,8.25"
       style="fill:#ffffff;fill-opacity:1;fill-rule:nonzero;stroke:none"
       transform="matrix(0.13333333,0,0,-0.13333333,0,49.573333)"
       clip-path="url(#clipPath10)" />
    <path
       id="path11"
       d="m 224.727,271.051 -10.364,23.476 51.797,10.36 -8.98,-8.055 86.328,-14.738 -20.715,-16.571 -85.813,16.114 -12.253,-10.586"
       style="fill:#ffffff;fill-opacity:1;fill-rule:nonzero;stroke:none"
       transform="matrix(0.13333333,0,0,-0.13333333,0,49.573333)"
       clip-path="url(#clipPath12)" />
    <path
       id="path13"
       d="m 171.543,249.645 -55.242,-10.364 -2.071,25.547 15.875,-3.445 30.415,25.965 26.914,-4.559 -32.461,-28.312 16.57,-4.832"
       style="fill:#ffffff;fill-opacity:1;fill-rule:nonzero;stroke:none"
       transform="matrix(0.13333333,0,0,-0.13333333,0,49.573333)"
       clip-path="url(#clipPath14)" />
    <path
       id="path15"
       d="M 340.93,234.73 V 64.7305"
       style="fill:none;stroke:#ffffff;stroke-width:5;stroke-linecap:butt;stroke-linejoin:miter;stroke-miterlimit:4;stroke-dasharray:none;stroke-opacity:1"
       transform="matrix(0.13333333,0,0,-0.13333333,0,49.573333)"
       clip-path="url(#clipPath16)" />
    <path
       id="path17"
       d="m 320.93,223.707 v -170"
       style="fill:none;stroke:#ffffff;stroke-width:5;stroke-linecap:butt;stroke-linejoin:miter;stroke-miterlimit:4;stroke-dasharray:none;stroke-opacity:1"
       transform="matrix(0.13333333,0,0,-0.13333333,0,49.573333)"
       clip-path="url(#clipPath18)" />
    <path
       id="path19"
       d="M 300.496,215.688 V 45.6836"
       style="fill:none;stroke:#ffffff;stroke-width:5;stroke-linecap:butt;stroke-linejoin:miter;stroke-miterlimit:4;stroke-dasharray:none;stroke-opacity:1"
       transform="matrix(0.13333333,0,0,-0.13333333,0,49.573333)"
       clip-path="url(#clipPath20)" />
    <path
       id="path21"
       d="M 276.875,209.105 V 39.1016"
       style="fill:none;stroke:#ffffff;stroke-width:5;stroke-linecap:butt;stroke-linejoin:miter;stroke-miterlimit:4;stroke-dasharray:none;stroke-opacity:1"
       transform="matrix(0.13333333,0,0,-0.13333333,0,49.573333)"
       clip-path="url(#clipPath22)" />
    <path
       id="path23"
       d="M 254.07,204.105 V 34.1016"
       style="fill:none;stroke:#ffffff;stroke-width:5;stroke-linecap:butt;stroke-linejoin:miter;stroke-miterlimit:4;stroke-dasharray:none;stroke-opacity:1"
       transform="matrix(0.13333333,0,0,-0.13333333,0,49.573333)"
       clip-path="url(#clipPath24)" />
    <path
       id="path25"
       d="M 231.477,201.09 V 31.0938"
       style="fill:none;stroke:#ffffff;stroke-width:5;stroke-linecap:butt;stroke-linejoin:miter;stroke-miterlimit:4;stroke-dasharray:none;stroke-opacity:1"
       transform="matrix(0.13333333,0,0,-0.13333333,0,49.573333)"
       clip-path="url(#clipPath26)" />
    <path
       id="path27"
       d="M 207.102,197.563 V 27.5586"
       style="fill:none;stroke:#ffffff;stroke-width:5;stroke-linecap:butt;stroke-linejoin:miter;stroke-miterlimit:4;stroke-dasharray:none;stroke-opacity:1"
       transform="matrix(0.13333333,0,0,-0.13333333,0,49.573333)"
       clip-path="url(#clipPath28)" />
    <path
       id="path29"
       d="M 24.6758,234.73 V 64.7305"
       style="fill:none;stroke:#ffffff;stroke-width:5;stroke-linecap:butt;stroke-linejoin:miter;stroke-miterlimit:4;stroke-dasharray:none;stroke-opacity:1"
       transform="matrix(0.13333333,0,0,-0.13333333,0,49.573333)"
       clip-path="url(#clipPath30)" />
    <path
       id="path31"
       d="m 44.6758,223.707 v -170"
       style="fill:none;stroke:#ffffff;stroke-width:5;stroke-linecap:butt;stroke-linejoin:miter;stroke-miterlimit:4;stroke-dasharray:none;stroke-opacity:1"
       transform="matrix(0.13333333,0,0,-0.13333333,0,49.573333)"
       clip-path="url(#clipPath32)" />
    <path
       id="path33"
       d="M 65.1172,215.688 V 45.6836"
       style="fill:none;stroke:#ffffff;stroke-width:5;stroke-linecap:butt;stroke-linejoin:miter;stroke-miterlimit:4;stroke-dasharray:none;stroke-opacity:1"
       transform="matrix(0.13333333,0,0,-0.13333333,0,49.573333)"
       clip-path="url(#clipPath34)" />
    <path
       id="path35"
       d="M 88.7383,209.105 V 39.1016"
       style="fill:none;stroke:#ffffff;stroke-width:5;stroke-linecap:butt;stroke-linejoin:miter;stroke-miterlimit:4;stroke-dasharray:none;stroke-opacity:1"
       transform="matrix(0.13333333,0,0,-0.13333333,0,49.573333)"
       clip-path="url(#clipPath36)" />
    <path
       id="path37"
       d="M 111.531,204.105 V 34.1016"
       style="fill:none;stroke:#ffffff;stroke-width:5;stroke-linecap:butt;stroke-linejoin:miter;stroke-miterlimit:4;stroke-dasharray:none;stroke-opacity:1"
       transform="matrix(0.13333333,0,0,-0.13333333,0,49.573333)"
       clip-path="url(#clipPath38)" />
    <path
       id="path39"
       d="M 134.141,201.09 V 31.0938"
       style="fill:none;stroke:#ffffff;stroke-width:5;stroke-linecap:butt;stroke-linejoin:miter;stroke-miterlimit:4;stroke-dasharray:none;stroke-opacity:1"
       transform="matrix(0.13333333,0,0,-0.13333333,0,49.573333)"
       clip-path="url(#clipPath40)" />
    <path
       id="path41"
       d="M 158.516,197.563 V 27.5586"
       style="fill:none;stroke:#ffffff;stroke-width:5;stroke-linecap:butt;stroke-linejoin:miter;stroke-miterlimit:4;stroke-dasharray:none;stroke-opacity:1"
       transform="matrix(0.13333333,0,0,-0.13333333,0,49.573333)"
       clip-path="url(#clipPath42)" />
    <path
       id="path43"
       d="M 182.727,196.938 V 26.9336"
       style="fill:none;stroke:#ffffff;stroke-width:5;stroke-linecap:butt;stroke-linejoin:miter;stroke-miterlimit:4;stroke-dasharray:none;stroke-opacity:1"
       transform="matrix(0.13333333,0,0,-0.13333333,0,49.573333)"
       clip-path="url(#clipPath44)" />
    <path
       id="path45"
       d="m 192.656,339.895 58.008,15.878 0.684,-24.863 -14.493,2.762 -28.32,-23.484 -27.012,3.933 29.219,22.981 -18.086,2.793"
       style="fill:#ffffff;fill-opacity:1;fill-rule:nonzero;stroke:none"
       transform="matrix(0.13333333,0,0,-0.13333333,0,49.573333)"
       clip-path="url(#clipPath46)" />
  </g>
</svg>
