<?xml version="1.0" encoding="UTF-8" standalone="no"?>
<!-- Created with Inkscape (http://www.inkscape.org/) -->

<svg
   version="1.1"
   id="svg1"
   width="49.653332"
   height="49.880001"
   viewBox="0 0 49.653332 49.880001"
   sodipodi:docname="carrier routing system.eps"
   xmlns:inkscape="http://www.inkscape.org/namespaces/inkscape"
   xmlns:sodipodi="http://sodipodi.sourceforge.net/DTD/sodipodi-0.dtd"
   xmlns="http://www.w3.org/2000/svg"
   xmlns:svg="http://www.w3.org/2000/svg">
  <defs
     id="defs1" />
  <sodipodi:namedview
     id="namedview1"
     pagecolor="#505050"
     bordercolor="#eeeeee"
     borderopacity="1"
     inkscape:showpageshadow="0"
     inkscape:pageopacity="0"
     inkscape:pagecheckerboard="0"
     inkscape:deskcolor="#d1d1d1">
    <inkscape:page
       x="0"
       y="0"
       inkscape:label="1"
       id="page1"
       width="49.653332"
       height="49.880001"
       margin="0"
       bleed="0" />
  </sodipodi:namedview>
  <g
     id="g1"
     inkscape:groupmode="layer"
     inkscape:label="1">
    <path
       id="path1"
       d="m 2.55859,300.563 c 0,-39.504 82.35551,-71.516 183.92541,-71.516 101.575,0 183.918,32.012 183.918,71.516 V 73.5156 C 370.402,34.0039 288.059,1.99219 186.484,1.99219 84.9141,1.99219 2.55859,34.0039 2.55859,73.5156 V 300.563"
       style="fill:#000000;fill-opacity:1;fill-rule:nonzero;stroke:none"
       transform="matrix(0.13333333,0,0,-0.13333333,0,49.88)" />
    <path
       id="path2"
       d="m 2.55859,300.563 c 0,-39.504 82.35551,-71.516 183.92541,-71.516 101.575,0 183.918,32.012 183.918,71.516 V 73.5156 C 370.402,34.0039 288.059,1.99219 186.484,1.99219 84.9141,1.99219 2.55859,34.0039 2.55859,73.5156 Z"
       style="fill:none;stroke:#ffffff;stroke-width:4;stroke-linecap:butt;stroke-linejoin:miter;stroke-miterlimit:4;stroke-dasharray:none;stroke-opacity:1"
       transform="matrix(0.13333333,0,0,-0.13333333,0,49.88)" />
    <path
       id="path3"
       d="m 369.855,300.563 c 0,-39.504 -82.363,-71.516 -183.925,-71.516 -101.5823,0 -183.92609,32.012 -183.92609,71.516 V 73.5156 C 2.00391,34.0039 84.3477,1.99219 185.93,1.99219 c 101.562,0 183.925,32.01171 183.925,71.52341 V 300.563"
       style="fill:#087bbb;fill-opacity:1;fill-rule:nonzero;stroke:none"
       transform="matrix(0.13333333,0,0,-0.13333333,0,49.88)" />
    <path
       id="path4"
       d="m 369.855,300.563 c 0,-39.504 -82.363,-71.516 -183.925,-71.516 -101.5823,0 -183.92609,32.012 -183.92609,71.516 V 73.5156 C 2.00391,34.0039 84.3477,1.99219 185.93,1.99219 c 101.562,0 183.925,32.01171 183.925,71.52341 z"
       style="fill:none;stroke:#ffffff;stroke-width:4;stroke-linecap:butt;stroke-linejoin:miter;stroke-miterlimit:4;stroke-dasharray:none;stroke-opacity:1"
       transform="matrix(0.13333333,0,0,-0.13333333,0,49.88)" />
    <path
       id="path5"
       d="m 185.93,229.047 c 101.562,0 183.925,32.012 183.925,71.516 0,39.511 -82.363,71.531 -183.925,71.531 -101.5823,0 -183.92609,-32.02 -183.92609,-71.531 0,-39.504 82.34379,-71.516 183.92609,-71.516"
       style="fill:#087bbb;fill-opacity:1;fill-rule:nonzero;stroke:none"
       transform="matrix(0.13333333,0,0,-0.13333333,0,49.88)" />
    <path
       id="path6"
       d="m 185.93,229.047 c 101.562,0 183.925,32.012 183.925,71.516 0,39.511 -82.363,71.531 -183.925,71.531 -101.5823,0 -183.92609,-32.02 -183.92609,-71.531 0,-39.504 82.34379,-71.516 183.92609,-71.516 z"
       style="fill:none;stroke:#ffffff;stroke-width:4;stroke-linecap:butt;stroke-linejoin:miter;stroke-miterlimit:4;stroke-dasharray:none;stroke-opacity:1"
       transform="matrix(0.13333333,0,0,-0.13333333,0,49.88)" />
    <path
       id="path7"
       d="m 146.535,331.012 15.195,-22.793 -57.433,-13.274 12.551,10.461 -88.7503,15.157 22.2656,16.699 85.6327,-14.504 10.539,8.254"
       style="fill:#ffffff;fill-opacity:1;fill-rule:nonzero;stroke:none"
       transform="matrix(0.13333333,0,0,-0.13333333,0,49.88)" />
    <path
       id="path8"
       d="m 227.336,275.758 -10.371,23.476 51.797,10.36 -8.965,-8.047 86.328,-14.746 -20.723,-16.571 -85.82,16.114 -12.246,-10.586"
       style="fill:#ffffff;fill-opacity:1;fill-rule:nonzero;stroke:none"
       transform="matrix(0.13333333,0,0,-0.13333333,0,49.88)" />
    <path
       id="path9"
       d="m 199.016,343.434 58.007,15.886 0.704,-24.851 -14.512,2.754 -28.32,-23.477 -27.012,3.934 29.219,22.98 -18.086,2.774"
       style="fill:#ffffff;fill-opacity:1;fill-rule:nonzero;stroke:none"
       transform="matrix(0.13333333,0,0,-0.13333333,0,49.88)" />
    <path
       id="path10"
       d="M 174.152,254.352 118.906,244 l -2.07,25.547 15.891,-3.457 30.398,25.965 26.914,-4.551 -32.449,-28.32 16.562,-4.832"
       style="fill:#ffffff;fill-opacity:1;fill-rule:nonzero;stroke:none"
       transform="matrix(0.13333333,0,0,-0.13333333,0,49.88)" />
    <path
       id="path11"
       d="m 217.922,94.3359 h -68.848 v 68.8671 h 68.848 V 94.3359"
       style="fill:#ffffff;fill-opacity:1;fill-rule:nonzero;stroke:none"
       transform="matrix(0.13333333,0,0,-0.13333333,0,49.88)" />
    <path
       id="path12"
       d="m 217.922,94.3359 h -68.848 v 68.8671 h 68.848 z"
       style="fill:none;stroke:#000000;stroke-width:4;stroke-linecap:butt;stroke-linejoin:miter;stroke-miterlimit:4;stroke-dasharray:none;stroke-opacity:1"
       transform="matrix(0.13333333,0,0,-0.13333333,0,49.88)" />
    <path
       id="path13"
       d="m 102.863,212.008 0.02,-28.57 -51.8361,-0.04 -0.0196,28.551 51.8357,0.059"
       style="fill:#ffffff;fill-opacity:1;fill-rule:nonzero;stroke:none"
       transform="matrix(0.13333333,0,0,-0.13333333,0,49.88)" />
    <path
       id="path14"
       d="m 102.863,212.008 0.02,-28.57 -51.8361,-0.04 -0.0196,28.551 z"
       style="fill:none;stroke:#000000;stroke-width:4;stroke-linecap:butt;stroke-linejoin:miter;stroke-miterlimit:4;stroke-dasharray:none;stroke-opacity:1"
       transform="matrix(0.13333333,0,0,-0.13333333,0,49.88)" />
    <path
       id="path15"
       d="m 102.863,140.605 0.02,-28.574 -51.8361,-0.039 -0.0196,28.555 51.8357,0.058"
       style="fill:#ffffff;fill-opacity:1;fill-rule:nonzero;stroke:none"
       transform="matrix(0.13333333,0,0,-0.13333333,0,49.88)" />
    <path
       id="path16"
       d="m 102.863,140.605 0.02,-28.574 -51.8361,-0.039 -0.0196,28.555 z"
       style="fill:none;stroke:#000000;stroke-width:4;stroke-linecap:butt;stroke-linejoin:miter;stroke-miterlimit:4;stroke-dasharray:none;stroke-opacity:1"
       transform="matrix(0.13333333,0,0,-0.13333333,0,49.88)" />
    <path
       id="path17"
       d="m 102.863,73.3203 0.02,-28.5742 -51.8361,-0.0195 -0.0196,28.5351 51.8357,0.0586"
       style="fill:#ffffff;fill-opacity:1;fill-rule:nonzero;stroke:none"
       transform="matrix(0.13333333,0,0,-0.13333333,0,49.88)" />
    <path
       id="path18"
       d="m 102.863,73.3203 0.02,-28.5742 -51.8361,-0.0195 -0.0196,28.5351 z"
       style="fill:none;stroke:#000000;stroke-width:4;stroke-linecap:butt;stroke-linejoin:miter;stroke-miterlimit:4;stroke-dasharray:none;stroke-opacity:1"
       transform="matrix(0.13333333,0,0,-0.13333333,0,49.88)" />
    <path
       id="path19"
       d="m 209.523,73.3203 0.02,-28.5742 -51.836,-0.0195 -0.019,28.5351 51.835,0.0586"
       style="fill:#ffffff;fill-opacity:1;fill-rule:nonzero;stroke:none"
       transform="matrix(0.13333333,0,0,-0.13333333,0,49.88)" />
    <path
       id="path20"
       d="m 209.523,73.3203 0.02,-28.5742 -51.836,-0.0195 -0.019,28.5351 z"
       style="fill:none;stroke:#000000;stroke-width:4;stroke-linecap:butt;stroke-linejoin:miter;stroke-miterlimit:4;stroke-dasharray:none;stroke-opacity:1"
       transform="matrix(0.13333333,0,0,-0.13333333,0,49.88)" />
    <path
       id="path21"
       d="m 319.523,212.008 0.02,-28.57 -51.836,-0.04 -0.019,28.551 51.835,0.059"
       style="fill:#ffffff;fill-opacity:1;fill-rule:nonzero;stroke:none"
       transform="matrix(0.13333333,0,0,-0.13333333,0,49.88)" />
    <path
       id="path22"
       d="m 319.523,212.008 0.02,-28.57 -51.836,-0.04 -0.019,28.551 z"
       style="fill:none;stroke:#000000;stroke-width:4;stroke-linecap:butt;stroke-linejoin:miter;stroke-miterlimit:4;stroke-dasharray:none;stroke-opacity:1"
       transform="matrix(0.13333333,0,0,-0.13333333,0,49.88)" />
    <path
       id="path23"
       d="m 209.523,212.008 0.02,-28.57 -51.836,-0.04 -0.019,28.551 51.835,0.059"
       style="fill:#ffffff;fill-opacity:1;fill-rule:nonzero;stroke:none"
       transform="matrix(0.13333333,0,0,-0.13333333,0,49.88)" />
    <path
       id="path24"
       d="m 209.523,212.008 0.02,-28.57 -51.836,-0.04 -0.019,28.551 z"
       style="fill:none;stroke:#000000;stroke-width:4;stroke-linecap:butt;stroke-linejoin:miter;stroke-miterlimit:4;stroke-dasharray:none;stroke-opacity:1"
       transform="matrix(0.13333333,0,0,-0.13333333,0,49.88)" />
    <path
       id="path25"
       d="m 319.523,140.605 0.02,-28.574 -51.836,-0.039 -0.019,28.555 51.835,0.058"
       style="fill:#ffffff;fill-opacity:1;fill-rule:nonzero;stroke:none"
       transform="matrix(0.13333333,0,0,-0.13333333,0,49.88)" />
    <path
       id="path26"
       d="m 319.523,140.605 0.02,-28.574 -51.836,-0.039 -0.019,28.555 z"
       style="fill:none;stroke:#000000;stroke-width:4;stroke-linecap:butt;stroke-linejoin:miter;stroke-miterlimit:4;stroke-dasharray:none;stroke-opacity:1"
       transform="matrix(0.13333333,0,0,-0.13333333,0,49.88)" />
    <path
       id="path27"
       d="m 319.523,73.3203 0.02,-28.5742 -51.836,-0.0195 -0.019,28.5351 51.835,0.0586"
       style="fill:#ffffff;fill-opacity:1;fill-rule:nonzero;stroke:none"
       transform="matrix(0.13333333,0,0,-0.13333333,0,49.88)" />
    <path
       id="path28"
       d="m 319.523,73.3203 0.02,-28.5742 -51.836,-0.0195 -0.019,28.5351 z"
       style="fill:none;stroke:#000000;stroke-width:4;stroke-linecap:butt;stroke-linejoin:miter;stroke-miterlimit:4;stroke-dasharray:none;stroke-opacity:1"
       transform="matrix(0.13333333,0,0,-0.13333333,0,49.88)" />
    <path
       id="path29"
       d="M 78.1836,127.91 H 293.176"
       style="fill:none;stroke:#ffffff;stroke-width:8;stroke-linecap:butt;stroke-linejoin:miter;stroke-miterlimit:4;stroke-dasharray:none;stroke-opacity:1"
       transform="matrix(0.13333333,0,0,-0.13333333,0,49.88)" />
    <path
       id="path30"
       d="M 183.184,192.906 V 57.9102"
       style="fill:none;stroke:#ffffff;stroke-width:8;stroke-linecap:butt;stroke-linejoin:miter;stroke-miterlimit:4;stroke-dasharray:none;stroke-opacity:1"
       transform="matrix(0.13333333,0,0,-0.13333333,0,49.88)" />
    <path
       id="path31"
       d="M 86.9336,57.9102 285.676,196.656"
       style="fill:none;stroke:#ffffff;stroke-width:8;stroke-linecap:butt;stroke-linejoin:miter;stroke-miterlimit:4;stroke-dasharray:none;stroke-opacity:1"
       transform="matrix(0.13333333,0,0,-0.13333333,0,49.88)" />
    <path
       id="path32"
       d="M 281.926,57.9102 83.1836,196.656"
       style="fill:none;stroke:#ffffff;stroke-width:8;stroke-linecap:butt;stroke-linejoin:miter;stroke-miterlimit:4;stroke-dasharray:none;stroke-opacity:1"
       transform="matrix(0.13333333,0,0,-0.13333333,0,49.88)" />
  </g>
</svg>
