<?xml version="1.0" encoding="UTF-8" standalone="no"?>
<!-- Created with Inkscape (http://www.inkscape.org/) -->

<svg
   version="1.1"
   id="svg1"
   width="65.973335"
   height="34.346668"
   viewBox="0 0 65.973335 34.346668"
   sodipodi:docname="CUBE.eps"
   xmlns:inkscape="http://www.inkscape.org/namespaces/inkscape"
   xmlns:sodipodi="http://sodipodi.sourceforge.net/DTD/sodipodi-0.dtd"
   xmlns="http://www.w3.org/2000/svg"
   xmlns:svg="http://www.w3.org/2000/svg">
  <defs
     id="defs1" />
  <sodipodi:namedview
     id="namedview1"
     pagecolor="#505050"
     bordercolor="#eeeeee"
     borderopacity="1"
     inkscape:showpageshadow="0"
     inkscape:pageopacity="0"
     inkscape:pagecheckerboard="0"
     inkscape:deskcolor="#d1d1d1">
    <inkscape:page
       x="0"
       y="0"
       inkscape:label="1"
       id="page1"
       width="65.973335"
       height="34.346668"
       margin="0"
       bleed="0" />
  </sodipodi:namedview>
  <g
     id="g1"
     inkscape:groupmode="layer"
     inkscape:label="1">
    <g
       id="group-R5">
      <path
         id="path2"
         d="M 448.594,4.74609 V 211.836 H 5.46484 V 4.74609 H 448.594"
         style="fill:#087bbb;fill-opacity:1;fill-rule:nonzero;stroke:none"
         transform="matrix(0.13333333,0,0,-0.13333333,0,34.346667)" />
      <path
         id="path3"
         d="M 448.594,4.74609 V 211.836 H 5.46484 V 4.74609 Z"
         style="fill:none;stroke:#ffffff;stroke-width:4;stroke-linecap:butt;stroke-linejoin:miter;stroke-miterlimit:4;stroke-dasharray:none;stroke-opacity:1"
         transform="matrix(0.13333333,0,0,-0.13333333,0,34.346667)" />
      <path
         id="path4"
         d="m 343.34,57.8711 c 21.125,0 38.242,17.1289 38.242,38.2422 0,21.1137 -17.117,38.2347 -38.242,38.2347 -21.113,0 -38.223,-17.121 -38.223,-38.2347 0,-21.1133 17.11,-38.2422 38.223,-38.2422 z"
         style="fill:none;stroke:#ffffff;stroke-width:15;stroke-linecap:butt;stroke-linejoin:miter;stroke-miterlimit:4;stroke-dasharray:none;stroke-opacity:1"
         transform="matrix(0.13333333,0,0,-0.13333333,0,34.346667)" />
      <path
         id="path5"
         d="m 343.34,134.348 h 66.418"
         style="fill:none;stroke:#ffffff;stroke-width:15;stroke-linecap:butt;stroke-linejoin:miter;stroke-miterlimit:4;stroke-dasharray:none;stroke-opacity:1"
         transform="matrix(0.13333333,0,0,-0.13333333,0,34.346667)" />
      <path
         id="path6"
         d="m 410.43,159.254 v -48.07 l 28.965,23.089 z"
         style="fill:#ffffff;fill-opacity:1;fill-rule:nonzero;stroke:#ffffff;stroke-width:2;stroke-linecap:butt;stroke-linejoin:miter;stroke-miterlimit:4;stroke-dasharray:none;stroke-opacity:1"
         transform="matrix(0.13333333,0,0,-0.13333333,0,34.346667)" />
      <path
         id="path7"
         d="M 305.156,95.8398 V 162.25"
         style="fill:none;stroke:#ffffff;stroke-width:15;stroke-linecap:butt;stroke-linejoin:miter;stroke-miterlimit:4;stroke-dasharray:none;stroke-opacity:1"
         transform="matrix(0.13333333,0,0,-0.13333333,0,34.346667)" />
      <path
         id="path8"
         d="m 280.742,162.543 h 48.067 l -23.086,28.961 z"
         style="fill:#ffffff;fill-opacity:1;fill-rule:nonzero;stroke:#ffffff;stroke-width:2;stroke-linecap:butt;stroke-linejoin:miter;stroke-miterlimit:4;stroke-dasharray:none;stroke-opacity:1"
         transform="matrix(0.13333333,0,0,-0.13333333,0,34.346667)" />
      <path
         id="path9"
         d="M 344.297,57.9297 H 277.871"
         style="fill:none;stroke:#ffffff;stroke-width:15;stroke-linecap:butt;stroke-linejoin:miter;stroke-miterlimit:4;stroke-dasharray:none;stroke-opacity:1"
         transform="matrix(0.13333333,0,0,-0.13333333,0,34.346667)" />
      <path
         id="path10"
         d="M 276.934,32.8906 V 80.957 L 247.969,57.8711 Z"
         style="fill:#ffffff;fill-opacity:1;fill-rule:nonzero;stroke:#ffffff;stroke-width:2;stroke-linecap:butt;stroke-linejoin:miter;stroke-miterlimit:4;stroke-dasharray:none;stroke-opacity:1"
         transform="matrix(0.13333333,0,0,-0.13333333,0,34.346667)" />
      <path
         id="path11"
         d="m 108.551,57.8711 c -21.1252,0 -38.2424,17.1289 -38.2424,38.2422 0,21.1137 17.1172,38.2347 38.2424,38.2347 21.113,0 38.222,-17.121 38.222,-38.2347 0,-21.1133 -17.109,-38.2422 -38.222,-38.2422 z"
         style="fill:none;stroke:#ffffff;stroke-width:15;stroke-linecap:butt;stroke-linejoin:miter;stroke-miterlimit:4;stroke-dasharray:none;stroke-opacity:1"
         transform="matrix(0.13333333,0,0,-0.13333333,0,34.346667)" />
      <path
         id="path12"
         d="M 108.551,134.348 H 42.1328"
         style="fill:none;stroke:#ffffff;stroke-width:15;stroke-linecap:butt;stroke-linejoin:miter;stroke-miterlimit:4;stroke-dasharray:none;stroke-opacity:1"
         transform="matrix(0.13333333,0,0,-0.13333333,0,34.346667)" />
      <path
         id="path13"
         d="m 41.4609,159.254 v -48.07 l -28.9648,23.089 z"
         style="fill:#ffffff;fill-opacity:1;fill-rule:nonzero;stroke:#ffffff;stroke-width:2;stroke-linecap:butt;stroke-linejoin:miter;stroke-miterlimit:4;stroke-dasharray:none;stroke-opacity:1"
         transform="matrix(0.13333333,0,0,-0.13333333,0,34.346667)" />
      <path
         id="path14"
         d="M 146.734,95.8398 V 162.25"
         style="fill:none;stroke:#ffffff;stroke-width:15;stroke-linecap:butt;stroke-linejoin:miter;stroke-miterlimit:4;stroke-dasharray:none;stroke-opacity:1"
         transform="matrix(0.13333333,0,0,-0.13333333,0,34.346667)" />
      <path
         id="path15"
         d="m 171.148,162.543 h -48.066 l 23.086,28.961 z"
         style="fill:#ffffff;fill-opacity:1;fill-rule:nonzero;stroke:#ffffff;stroke-width:2;stroke-linecap:butt;stroke-linejoin:miter;stroke-miterlimit:4;stroke-dasharray:none;stroke-opacity:1"
         transform="matrix(0.13333333,0,0,-0.13333333,0,34.346667)" />
      <path
         id="path16"
         d="M 107.594,57.9297 H 174.02"
         style="fill:none;stroke:#ffffff;stroke-width:15;stroke-linecap:butt;stroke-linejoin:miter;stroke-miterlimit:4;stroke-dasharray:none;stroke-opacity:1"
         transform="matrix(0.13333333,0,0,-0.13333333,0,34.346667)" />
      <path
         id="path17"
         d="M 174.957,32.8906 V 80.957 l 28.969,-23.0859 z"
         style="fill:#ffffff;fill-opacity:1;fill-rule:nonzero;stroke:#ffffff;stroke-width:2;stroke-linecap:butt;stroke-linejoin:miter;stroke-miterlimit:4;stroke-dasharray:none;stroke-opacity:1"
         transform="matrix(0.13333333,0,0,-0.13333333,0,34.346667)" />
      <path
         id="path18"
         d="M 447.844,212.086 H 5.71094 L 60.2148,255.582 H 492.844 V 255.332 49.8633 L 448.34,4.86328 V 210.836 l -0.496,1.25"
         style="fill:#087bbb;fill-opacity:1;fill-rule:nonzero;stroke:none"
         transform="matrix(0.13333333,0,0,-0.13333333,0,34.346667)" />
      <path
         id="path19"
         d="M 447.844,212.086 H 5.71094 L 60.2148,255.582 H 492.844 V 255.332 49.8633 L 448.34,4.86328 V 210.836 Z"
         style="fill:none;stroke:#ffffff;stroke-width:4;stroke-linecap:butt;stroke-linejoin:miter;stroke-miterlimit:4;stroke-dasharray:none;stroke-opacity:1"
         transform="matrix(0.13333333,0,0,-0.13333333,0,34.346667)" />
      <path
         id="path20"
         d="m 448.223,212.445 45,43.75"
         style="fill:none;stroke:#ffffff;stroke-width:4;stroke-linecap:butt;stroke-linejoin:miter;stroke-miterlimit:4;stroke-dasharray:none;stroke-opacity:1"
         transform="matrix(0.13333333,0,0,-0.13333333,0,34.346667)" />
      <path
         id="path21"
         d="M 225.852,163.863 V 43.8672"
         style="fill:none;stroke:#ffffff;stroke-width:10;stroke-linecap:butt;stroke-linejoin:miter;stroke-miterlimit:4;stroke-dasharray:none;stroke-opacity:1"
         transform="matrix(0.13333333,0,0,-0.13333333,0,34.346667)" />
    </g>
  </g>
</svg>
