<?xml version="1.0" encoding="UTF-8" standalone="no"?>
<!-- Created with Inkscape (http://www.inkscape.org/) -->

<svg
   version="1.1"
   id="svg1"
   width="63.093334"
   height="35.573334"
   viewBox="0 0 63.093334 35.573334"
   sodipodi:docname="MSE.eps"
   xmlns:inkscape="http://www.inkscape.org/namespaces/inkscape"
   xmlns:sodipodi="http://sodipodi.sourceforge.net/DTD/sodipodi-0.dtd"
   xmlns="http://www.w3.org/2000/svg"
   xmlns:svg="http://www.w3.org/2000/svg">
  <defs
     id="defs1" />
  <sodipodi:namedview
     id="namedview1"
     pagecolor="#505050"
     bordercolor="#eeeeee"
     borderopacity="1"
     inkscape:showpageshadow="0"
     inkscape:pageopacity="0"
     inkscape:pagecheckerboard="0"
     inkscape:deskcolor="#d1d1d1">
    <inkscape:page
       x="0"
       y="0"
       inkscape:label="1"
       id="page1"
       width="63.093334"
       height="35.573334"
       margin="0"
       bleed="0" />
  </sodipodi:namedview>
  <g
     id="g1"
     inkscape:groupmode="layer"
     inkscape:label="1">
    <g
       id="group-R5">
      <path
         id="path2"
         d="M 5.65625,149.18 145.469,262.246 H 468.258 L 352.535,149.18 H 5.65625"
         style="fill:#087bbb;fill-opacity:1;fill-rule:nonzero;stroke:none"
         transform="matrix(0.13333333,0,0,-0.13333333,0,35.573333)" />
      <path
         id="path3"
         d="M 5.65625,149.18 145.469,262.246 H 468.258 L 352.535,149.18 Z"
         style="fill:none;stroke:#ffffff;stroke-width:4;stroke-linecap:butt;stroke-linejoin:miter;stroke-miterlimit:4;stroke-dasharray:none;stroke-opacity:1"
         transform="matrix(0.13333333,0,0,-0.13333333,0,35.573333)" />
      <path
         id="path4"
         d="M 352.535,4.89063 468.258,122.801 v 139.23 L 352.535,149.18 V 4.89063"
         style="fill:#087bbb;fill-opacity:1;fill-rule:nonzero;stroke:none"
         transform="matrix(0.13333333,0,0,-0.13333333,0,35.573333)" />
      <path
         id="path5"
         d="M 352.535,4.89063 468.258,122.801 v 139.23 L 352.535,149.18 Z"
         style="fill:none;stroke:#ffffff;stroke-width:4;stroke-linecap:butt;stroke-linejoin:miter;stroke-miterlimit:4;stroke-dasharray:none;stroke-opacity:1"
         transform="matrix(0.13333333,0,0,-0.13333333,0,35.573333)" />
      <path
         id="path6"
         d="M 352.535,4.77344 V 149.18 H 6.13281 V 4.77344 H 352.535"
         style="fill:#087bbb;fill-opacity:1;fill-rule:nonzero;stroke:none"
         transform="matrix(0.13333333,0,0,-0.13333333,0,35.573333)" />
      <path
         id="path7"
         d="M 352.535,4.77344 V 149.18 H 6.13281 V 4.77344 Z"
         style="fill:none;stroke:#ffffff;stroke-width:4;stroke-linecap:butt;stroke-linejoin:miter;stroke-miterlimit:4;stroke-dasharray:none;stroke-opacity:1"
         transform="matrix(0.13333333,0,0,-0.13333333,0,35.573333)" />
      <path
         id="path8"
         d="m 217.605,169.188 c 20.833,16.074 47.45,23.898 47.45,23.898 31.367,11.406 43.535,24.805 43.535,24.805 29.805,33.339 -26.895,34.101 -26.895,34.101 0,0 -59.484,0.254 -89.703,-29.961 0,0 -15.269,-14.668 -7.156,-27.011 0,0 10.391,-8.723 -0.527,-25.032"
         style="fill:none;stroke:#ffffff;stroke-width:8;stroke-linecap:butt;stroke-linejoin:miter;stroke-miterlimit:1;stroke-dasharray:none;stroke-opacity:1"
         transform="matrix(0.13333333,0,0,-0.13333333,0,35.573333)" />
      <path
         id="path9"
         d="m 218.313,168.613 c -0.872,-0.89 -2.825,-1.582 -4.372,-1.543 l -30.211,0.723 c -1.535,0.039 -2.058,0.801 -1.187,1.687 v 0 c 0.879,0.891 2.824,1.583 4.355,1.555 l 30.219,-0.722 c 1.535,-0.04 2.071,-0.801 1.196,-1.7 z"
         style="fill:none;stroke:#ffffff;stroke-width:2.5;stroke-linecap:butt;stroke-linejoin:miter;stroke-miterlimit:1;stroke-dasharray:none;stroke-opacity:1"
         transform="matrix(0.13333333,0,0,-0.13333333,0,35.573333)" />
      <path
         id="path10"
         d="m 214.426,164.668 c -0.875,-0.898 -2.821,-1.594 -4.36,-1.563 l -30.211,0.723 c -1.531,0.039 -2.062,0.801 -1.195,1.699 v 0 c 0.875,0.879 2.832,1.582 4.367,1.543 l 30.219,-0.722 c 1.52,-0.039 2.067,-0.793 1.18,-1.68 z"
         style="fill:none;stroke:#ffffff;stroke-width:2.5;stroke-linecap:butt;stroke-linejoin:miter;stroke-miterlimit:1;stroke-dasharray:none;stroke-opacity:1"
         transform="matrix(0.13333333,0,0,-0.13333333,0,35.573333)" />
      <path
         id="path11"
         d="m 210.563,160.703 c -0.875,-0.898 -2.836,-1.582 -4.368,-1.555 l -30.218,0.723 c -1.528,0.031 -2.063,0.801 -1.188,1.692 v 0 c 0.879,0.898 2.832,1.589 4.367,1.55 l 30.215,-0.73 c 1.531,-0.031 2.059,-0.781 1.192,-1.68 z"
         style="fill:none;stroke:#ffffff;stroke-width:2.5;stroke-linecap:butt;stroke-linejoin:miter;stroke-miterlimit:1;stroke-dasharray:none;stroke-opacity:1"
         transform="matrix(0.13333333,0,0,-0.13333333,0,35.573333)" />
      <path
         id="path12"
         d="m 302.965,186.648 12.851,-29.246 -43.359,15.926"
         style="fill:#ffffff;fill-opacity:1;fill-rule:nonzero;stroke:none"
         transform="matrix(0.13333333,0,0,-0.13333333,0,35.573333)" />
      <path
         id="path13"
         d="m 299.703,173.172 -21.484,13.281"
         style="fill:none;stroke:#ffffff;stroke-width:4;stroke-linecap:round;stroke-linejoin:miter;stroke-miterlimit:1;stroke-dasharray:none;stroke-opacity:1"
         transform="matrix(0.13333333,0,0,-0.13333333,0,35.573333)" />
      <path
         id="path14"
         d="m 192.777,245.645 -44.32,9.082 14.363,-22.844"
         style="fill:#ffffff;fill-opacity:1;fill-rule:nonzero;stroke:none"
         transform="matrix(0.13333333,0,0,-0.13333333,0,35.573333)" />
      <path
         id="path15"
         d="m 190.199,234.734 -20.574,8.809"
         style="fill:none;stroke:#ffffff;stroke-width:4;stroke-linecap:round;stroke-linejoin:miter;stroke-miterlimit:1;stroke-dasharray:none;stroke-opacity:1"
         transform="matrix(0.13333333,0,0,-0.13333333,0,35.573333)" />
      <path
         id="path16"
         d="M 162.387,173.406 99.4453,167.93 141.875,190.496"
         style="fill:#ffffff;fill-opacity:1;fill-rule:nonzero;stroke:none"
         transform="matrix(0.13333333,0,0,-0.13333333,0,35.573333)" />
      <path
         id="path17"
         d="m 141.719,178.887 25.996,7.527"
         style="fill:none;stroke:#ffffff;stroke-width:4;stroke-linecap:round;stroke-linejoin:miter;stroke-miterlimit:1;stroke-dasharray:none;stroke-opacity:1"
         transform="matrix(0.13333333,0,0,-0.13333333,0,35.573333)" />
      <path
         id="path18"
         d="m 338.766,245.703 51.179,-4.894 -47.371,-15.379"
         style="fill:#ffffff;fill-opacity:1;fill-rule:nonzero;stroke:none"
         transform="matrix(0.13333333,0,0,-0.13333333,0,35.573333)" />
      <path
         id="path19"
         d="m 355.836,236.531 -27.305,-5.136"
         style="fill:none;stroke:#ffffff;stroke-width:4;stroke-linecap:round;stroke-linejoin:miter;stroke-miterlimit:1;stroke-dasharray:none;stroke-opacity:1"
         transform="matrix(0.13333333,0,0,-0.13333333,0,35.573333)" />
      <path
         id="path20"
         d="m 120.313,202.031 52.828,11.746 -37.379,7.422"
         style="fill:#ffffff;fill-opacity:1;fill-rule:nonzero;stroke:none"
         transform="matrix(0.13333333,0,0,-0.13333333,0,35.573333)" />
      <path
         id="path21"
         d="m 103.434,212.234 29.812,-0.156"
         style="fill:none;stroke:#ffffff;stroke-width:4;stroke-linecap:round;stroke-linejoin:miter;stroke-miterlimit:1;stroke-dasharray:none;stroke-opacity:1"
         transform="matrix(0.13333333,0,0,-0.13333333,0,35.573333)" />
      <path
         id="path22"
         d="m 342.594,201.406 29.824,-0.156"
         style="fill:none;stroke:#ffffff;stroke-width:4;stroke-linecap:round;stroke-linejoin:miter;stroke-miterlimit:1;stroke-dasharray:none;stroke-opacity:1"
         transform="matrix(0.13333333,0,0,-0.13333333,0,35.573333)" />
      <path
         id="path23"
         d="m 356.031,213.066 -46.66,-9.171 45,-14.168"
         style="fill:#ffffff;fill-opacity:1;fill-rule:nonzero;stroke:none"
         transform="matrix(0.13333333,0,0,-0.13333333,0,35.573333)" />
      <path
         id="path24"
         d="m 181.379,157.234 c 7.5,-5.625 18.125,-0.437 18.125,-0.437"
         style="fill:none;stroke:#ffffff;stroke-width:2.5;stroke-linecap:butt;stroke-linejoin:miter;stroke-miterlimit:1;stroke-dasharray:none;stroke-opacity:1"
         transform="matrix(0.13333333,0,0,-0.13333333,0,35.573333)" />
      <path
         id="path25"
         d="M 6.1172187,-5.7434772 H 4.3828437 L 3.3633125,-1.2200397 H 3.339875 L 2.308625,-5.7434772 H 0.5508125 v 5.74218751 h 1.125 V -4.8059772 h 0.011719 L 2.742219,-0.00128969 H 3.914094 L 4.992219,-4.8059772 h 0.011719 v 4.80468751 h 1.1132812 z m 0.8642579,3.9726563 c 0,0.7148437 0.3515625,1.92187496 2.4492187,1.92187496 0.5039063,0 2.2734377,-0.15234375 2.2734377,-1.88671876 0,-1.03125 -0.726563,-1.3476562 -1.511719,-1.5351562 L 8.7978828,-3.6223834 c -0.2460937,-0.046875 -0.609375,-0.1523438 -0.609375,-0.5976563 0,-0.515625 0.5390625,-0.6914062 0.9960938,-0.6914062 1.0546874,0 1.1484374,0.609375 1.1835934,0.8671875 h 1.148438 c -0.01172,-0.703125 -0.480469,-1.8515625 -2.2382814,-1.8515625 -1.8632813,0 -2.2148438,1.125 -2.2148438,1.7695312 0,1.2539063 0.9023438,1.4648438 1.828125,1.6875 l 0.609375,0.140625 c 0.6093752,0.140625 1.0429692,0.2695313 1.0429692,0.7148438 0,0.60937496 -0.6328129,0.73828121 -1.1953129,0.73828121 -1.0546875,0 -1.2070313,-0.60937501 -1.21875,-0.92578121 z m 9.8583984,-3.9726563 h -4.230469 v 5.74218751 h 4.359375 V -1.0208209 h -3.1875 v -1.4882813 h 2.800781 v -1.0195312 h -2.800781 v -1.2070313 h 3.058594 z m 0,0"
         style="fill:#ffffff;fill-opacity:1;fill-rule:nonzero;stroke:none"
         aria-label="MSE"
         transform="matrix(1.3333333,0,0,1.3333333,13.359333,29.497813)" />
    </g>
  </g>
</svg>
