<?xml version="1.0" encoding="UTF-8" standalone="no"?>
<!-- Created with Inkscape (http://www.inkscape.org/) -->

<svg
   version="1.1"
   id="svg1"
   width="65.053329"
   height="31.986668"
   viewBox="0 0 65.053329 31.986668"
   sodipodi:docname="Nexus 5000.eps"
   xmlns:inkscape="http://www.inkscape.org/namespaces/inkscape"
   xmlns:sodipodi="http://sodipodi.sourceforge.net/DTD/sodipodi-0.dtd"
   xmlns="http://www.w3.org/2000/svg"
   xmlns:svg="http://www.w3.org/2000/svg">
  <defs
     id="defs1" />
  <sodipodi:namedview
     id="namedview1"
     pagecolor="#505050"
     bordercolor="#eeeeee"
     borderopacity="1"
     inkscape:showpageshadow="0"
     inkscape:pageopacity="0"
     inkscape:pagecheckerboard="0"
     inkscape:deskcolor="#d1d1d1">
    <inkscape:page
       x="0"
       y="0"
       inkscape:label="1"
       id="page1"
       width="65.053329"
       height="31.986668"
       margin="0"
       bleed="0" />
  </sodipodi:namedview>
  <g
     id="g1"
     inkscape:groupmode="layer"
     inkscape:label="1">
    <g
       id="group-R5">
      <path
         id="path2"
         d="M 5.65625,118.672 149.941,235.332 H 483.035 L 363.645,118.672 H 5.65625"
         style="fill:#087bbb;fill-opacity:1;fill-rule:nonzero;stroke:none"
         transform="matrix(0.13333333,0,0,-0.13333333,0,31.986667)" />
      <path
         id="path3"
         d="M 5.65625,118.672 149.941,235.332 h 333.094 l -119.39,-116.66 z"
         style="fill:none;stroke:#ffffff;stroke-width:4;stroke-linecap:butt;stroke-linejoin:miter;stroke-miterlimit:4;stroke-dasharray:none;stroke-opacity:1"
         transform="matrix(0.13333333,0,0,-0.13333333,0,31.986667)" />
      <path
         id="path4"
         d="m 332.898,173.691 8.879,8.887 27.754,-12.617 -48.652,-13.984 11.023,14.531 h -88.648 l 3.184,3.183 h 86.46"
         style="fill:#231f20;fill-opacity:1;fill-rule:nonzero;stroke:none"
         transform="matrix(0.13333333,0,0,-0.13333333,0,31.986667)" />
      <path
         id="path5"
         d="m 279.656,203.438 -3.179,-3.165 h -90.403 l -13.691,-10.644 -23.281,11.406 53.371,15.625 -13.215,-13.222 h 90.398"
         style="fill:#231f20;fill-opacity:1;fill-rule:nonzero;stroke:none"
         transform="matrix(0.13333333,0,0,-0.13333333,0,31.986667)" />
      <path
         id="path6"
         d="m 229.785,153.145 -3.183,-3.184 h -90.84 l -13.692,-10.195 -24.152,11.386 54.68,15.196 -12.344,-13.203 h 89.531"
         style="fill:#231f20;fill-opacity:1;fill-rule:nonzero;stroke:none"
         transform="matrix(0.13333333,0,0,-0.13333333,0,31.986667)" />
      <path
         id="path7"
         d="m 384.094,215.703 8.875,8.867 27.746,-12.168 -48.652,-13.984 10.593,14.102 h -89.093 l 3.183,3.183 h 87.348"
         style="fill:#231f20;fill-opacity:1;fill-rule:nonzero;stroke:none"
         transform="matrix(0.13333333,0,0,-0.13333333,0,31.986667)" />
      <path
         id="path8"
         d="m 333.34,170.645 8.879,8.867 24.246,-10.41 -48.652,-13.985 12.343,12.344 h -89.093 l 3.183,3.184 h 89.094"
         style="fill:#ffffff;fill-opacity:1;fill-rule:nonzero;stroke:none"
         transform="matrix(0.13333333,0,0,-0.13333333,0,31.986667)" />
      <path
         id="path9"
         d="m 276.594,200.391 -3.176,-3.184 h -89.094 l -8.886,-8.887 -24.149,10.528 48.555,13.886 -12.344,-12.343 h 89.094"
         style="fill:#ffffff;fill-opacity:1;fill-rule:nonzero;stroke:none"
         transform="matrix(0.13333333,0,0,-0.13333333,0,31.986667)" />
      <path
         id="path10"
         d="M 363.645,4.85547 483.035,125.164 V 235.137 L 363.645,118.672 V 4.85547"
         style="fill:#087bbb;fill-opacity:1;fill-rule:nonzero;stroke:none"
         transform="matrix(0.13333333,0,0,-0.13333333,0,31.986667)" />
      <path
         id="path11"
         d="M 363.645,4.85547 483.035,125.164 V 235.137 L 363.645,118.672 Z"
         style="fill:none;stroke:#ffffff;stroke-width:4;stroke-linecap:butt;stroke-linejoin:miter;stroke-miterlimit:4;stroke-dasharray:none;stroke-opacity:1"
         transform="matrix(0.13333333,0,0,-0.13333333,0,31.986667)" />
      <path
         id="path12"
         d="m 226.277,150.078 -3.172,-3.183 h -89.089 l -8.887,-8.887 -24.152,10.527 48.554,13.887 -12.343,-12.344 h 89.089"
         style="fill:#ffffff;fill-opacity:1;fill-rule:nonzero;stroke:none"
         transform="matrix(0.13333333,0,0,-0.13333333,0,31.986667)" />
      <path
         id="path13"
         d="m 384.094,212.637 8.875,8.886 24.25,-10.429 -48.656,-13.985 12.343,12.344 h -89.09 l 3.184,3.184 h 89.094"
         style="fill:#ffffff;fill-opacity:1;fill-rule:nonzero;stroke:none"
         transform="matrix(0.13333333,0,0,-0.13333333,0,31.986667)" />
      <path
         id="path14"
         d="M 378.328,208.926 367.395,197.988"
         style="fill:none;stroke:#231f20;stroke-width:2.8;stroke-linecap:round;stroke-linejoin:round;stroke-miterlimit:4;stroke-dasharray:none;stroke-opacity:1"
         transform="matrix(0.13333333,0,0,-0.13333333,0,31.986667)" />
      <path
         id="path15"
         d="M 327.141,166.484 316.199,155.547"
         style="fill:none;stroke:#231f20;stroke-width:2.8;stroke-linecap:round;stroke-linejoin:round;stroke-miterlimit:4;stroke-dasharray:none;stroke-opacity:1"
         transform="matrix(0.13333333,0,0,-0.13333333,0,31.986667)" />
      <path
         id="path16"
         d="m 245.762,172.168 -5.242,-4.375"
         style="fill:none;stroke:#231f20;stroke-width:2.8;stroke-linecap:round;stroke-linejoin:round;stroke-miterlimit:4;stroke-dasharray:none;stroke-opacity:1"
         transform="matrix(0.13333333,0,0,-0.13333333,0,31.986667)" />
      <path
         id="path17"
         d="m 296.953,214.609 -4.812,-4.375"
         style="fill:none;stroke:#231f20;stroke-width:2.8;stroke-linecap:round;stroke-linejoin:round;stroke-miterlimit:4;stroke-dasharray:none;stroke-opacity:1"
         transform="matrix(0.13333333,0,0,-0.13333333,0,31.986667)" />
      <path
         id="path18"
         d="M 363.645,3.32031 V 118.672 H 6.14453 V 2.59766 L 363.645,3.32031"
         style="fill:#087bbb;fill-opacity:1;fill-rule:nonzero;stroke:none"
         transform="matrix(0.13333333,0,0,-0.13333333,0,31.986667)" />
      <path
         id="path19"
         d="M 363.645,3.32031 V 118.672 H 6.14453 V 2.59766 Z"
         style="fill:none;stroke:#ffffff;stroke-width:4;stroke-linecap:butt;stroke-linejoin:miter;stroke-miterlimit:4;stroke-dasharray:none;stroke-opacity:1"
         transform="matrix(0.13333333,0,0,-0.13333333,0,31.986667)" />
      <path
         id="path20"
         d="M 138.32,59.8047 H 71.4922 V 65.918 L 46.2813,56.9141 71.4922,47.8906 v 6.1133 H 138.32 v 5.8008"
         style="fill:#ffffff;fill-opacity:1;fill-rule:nonzero;stroke:none"
         transform="matrix(0.13333333,0,0,-0.13333333,0,31.986667)" />
      <path
         id="path21"
         d="M 176.105,40.6133 V 16.9336 H 158.84 l 25.437,-8.94532 25.45,8.94532 H 192.48 v 23.6797 h -16.375"
         style="fill:#ffffff;fill-opacity:1;fill-rule:nonzero;stroke:none"
         transform="matrix(0.13333333,0,0,-0.13333333,0,31.986667)" />
      <path
         id="path22"
         d="M 176.105,72.5195 V 96.1992 H 158.84 l 25.437,8.9488 25.45,-8.9488 H 192.48 V 72.5195 h -16.375"
         style="fill:#ffffff;fill-opacity:1;fill-rule:nonzero;stroke:none"
         transform="matrix(0.13333333,0,0,-0.13333333,0,31.986667)" />
      <path
         id="path23"
         d="m 230.254,54.0039 h 66.824 v -6.1133 l 25.227,9.0235 -25.227,9.0039 v -6.1133 h -66.824 v -5.8008"
         style="fill:#ffffff;fill-opacity:1;fill-rule:nonzero;stroke:none"
         transform="matrix(0.13333333,0,0,-0.13333333,0,31.986667)" />
      <path
         id="path24"
         d="M 291.797,18.8672 C 279.258,14.1797 221.621,27.0898 163.113,47.6953 104.59,68.3008 67.3359,88.8281 79.8828,93.5156 92.4219,98.2031 150.059,85.3125 208.574,64.6875 267.09,44.082 304.336,23.5742 291.797,18.8672 Z"
         style="fill:none;stroke:#ffffff;stroke-width:4;stroke-linecap:butt;stroke-linejoin:miter;stroke-miterlimit:4;stroke-dasharray:none;stroke-opacity:1"
         transform="matrix(0.13333333,0,0,-0.13333333,0,31.986667)" />
      <path
         id="path25"
         d="M 288.469,93.8672 C 301.711,89.4141 265.293,68.9844 207.156,48.2539 149.004,27.5 91.1445,14.2969 77.9023,18.75 c -13.246,4.4531 23.1527,24.8633 81.3087,45.6055 58.133,20.7617 115.992,33.9648 129.258,29.5117 z"
         style="fill:none;stroke:#ffffff;stroke-width:4;stroke-linecap:butt;stroke-linejoin:miter;stroke-miterlimit:4;stroke-dasharray:none;stroke-opacity:1"
         transform="matrix(0.13333333,0,0,-0.13333333,0,31.986667)" />
      <path
         id="path26"
         d="m 211.688,43.1445 c 22.082,5.4766 27.433,16.25 11.984,24.0821 -15.457,7.8125 -45.859,9.7265 -67.942,4.2382 -22.07,-5.4687 -27.429,-16.25 -11.96,-24.0703 15.441,-7.832 45.847,-9.7304 67.918,-4.25"
         style="fill:#bfbebe;fill-opacity:1;fill-rule:nonzero;stroke:none"
         transform="matrix(0.13333333,0,0,-0.13333333,0,31.986667)" />
    </g>
  </g>
</svg>
