<?xml version="1.0" encoding="UTF-8" standalone="no"?>
<!-- Created with Inkscape (http://www.inkscape.org/) -->

<svg
   version="1.1"
   id="svg1"
   width="58.040001"
   height="42.119999"
   viewBox="0 0 58.040001 42.119999"
   sodipodi:docname="Nexus 1000.eps"
   xmlns:inkscape="http://www.inkscape.org/namespaces/inkscape"
   xmlns:sodipodi="http://sodipodi.sourceforge.net/DTD/sodipodi-0.dtd"
   xmlns="http://www.w3.org/2000/svg"
   xmlns:svg="http://www.w3.org/2000/svg">
  <defs
     id="defs1" />
  <sodipodi:namedview
     id="namedview1"
     pagecolor="#505050"
     bordercolor="#eeeeee"
     borderopacity="1"
     inkscape:showpageshadow="0"
     inkscape:pageopacity="0"
     inkscape:pagecheckerboard="0"
     inkscape:deskcolor="#d1d1d1">
    <inkscape:page
       x="0"
       y="0"
       inkscape:label="1"
       id="page1"
       width="58.040001"
       height="42.119999"
       margin="0"
       bleed="0" />
  </sodipodi:namedview>
  <g
     id="g1"
     inkscape:groupmode="layer"
     inkscape:label="1">
    <g
       id="group-R5">
      <path
         id="path2"
         d="M 5.65625,6.46484 H 387.141 V 257.102 H 5.65625 V 6.46484"
         style="fill:#087bbb;fill-opacity:1;fill-rule:nonzero;stroke:none"
         transform="matrix(0.13333333,0,0,-0.13333333,0,42.12)" />
      <path
         id="path3"
         d="M 5.65625,6.46484 H 387.141 V 257.102 H 5.65625 Z"
         style="fill:none;stroke:#ffffff;stroke-width:4;stroke-linecap:butt;stroke-linejoin:miter;stroke-miterlimit:4;stroke-dasharray:none;stroke-opacity:1"
         transform="matrix(0.13333333,0,0,-0.13333333,0,42.12)" />
      <path
         id="path4"
         d="M 431.023,70.6641 387.141,6.46484 V 257.102 l 43.882,53.222 V 70.6641"
         style="fill:#087bbb;fill-opacity:1;fill-rule:nonzero;stroke:none"
         transform="matrix(0.13333333,0,0,-0.13333333,0,42.12)" />
      <path
         id="path5"
         d="M 431.023,70.6641 387.141,6.46484 V 257.102 l 43.882,53.222 z"
         style="fill:none;stroke:#ffffff;stroke-width:4;stroke-linecap:butt;stroke-linejoin:miter;stroke-miterlimit:4;stroke-dasharray:none;stroke-opacity:1"
         transform="matrix(0.13333333,0,0,-0.13333333,0,42.12)" />
      <path
         id="path6"
         d="M 71.4922,310.324 H 431.023 L 387.141,257.102 H 5.65625 l 65.83595,53.222"
         style="fill:#087bbb;fill-opacity:1;fill-rule:nonzero;stroke:none"
         transform="matrix(0.13333333,0,0,-0.13333333,0,42.12)" />
      <path
         id="path7"
         d="M 71.4922,310.324 H 431.023 L 387.141,257.102 H 5.65625 Z"
         style="fill:none;stroke:#ffffff;stroke-width:4;stroke-linecap:butt;stroke-linejoin:miter;stroke-miterlimit:4;stroke-dasharray:none;stroke-opacity:1"
         transform="matrix(0.13333333,0,0,-0.13333333,0,42.12)" />
      <path
         id="path8"
         d="m 189.316,55.0117 -0.046,33.8867 h 10.156 l 0.039,-33.8867 15.855,-0.0195 -20.933,-37.0039 -20.949,37.0039 15.878,0.0195"
         style="fill:#ffffff;fill-opacity:1;fill-rule:nonzero;stroke:none"
         transform="matrix(0.13333333,0,0,-0.13333333,0,42.12)" />
      <path
         id="path9"
         d="m 70.6641,63.9063 26.6015,45.9567 -10.6445,6.145 -26.5898,-45.9689 -16.6407,9.582 -0.4414,-51.457 44.336,26.1054 -16.6211,9.6368"
         style="fill:#ffffff;fill-opacity:1;fill-rule:nonzero;stroke:none"
         transform="matrix(0.13333333,0,0,-0.13333333,0,42.12)" />
      <path
         id="path10"
         d="m 321.477,63.9063 -26.606,45.9567 10.649,6.145 26.589,-45.9689 16.641,9.582 0.438,-51.457 -44.333,26.1054 16.622,9.6368"
         style="fill:#ffffff;fill-opacity:1;fill-rule:nonzero;stroke:none"
         transform="matrix(0.13333333,0,0,-0.13333333,0,42.12)" />
      <path
         id="path11"
         d="m 255.344,59.1211 -8.821,32.7148 9.817,2.6368 8.797,-32.7266 15.332,4.0859 -10.656,-41.164 -29.801,30.3242 15.332,4.1289"
         style="fill:#ffffff;fill-opacity:1;fill-rule:nonzero;stroke:none"
         transform="matrix(0.13333333,0,0,-0.13333333,0,42.12)" />
      <path
         id="path12"
         d="m 134.855,59.1211 8.817,32.7148 -9.817,2.6368 -8.796,-32.7266 -15.332,4.0859 10.656,-41.164 29.805,30.3242 -15.333,4.1289"
         style="fill:#ffffff;fill-opacity:1;fill-rule:nonzero;stroke:none"
         transform="matrix(0.13333333,0,0,-0.13333333,0,42.12)" />
      <path
         id="path13"
         d="m 111.785,196.055 0.063,-53.106 H 99.5508 l -0.0391,53.106 -19.1875,0.019 25.3278,44.778 25.344,-44.778 -19.211,-0.019"
         style="fill:#ffffff;fill-opacity:1;fill-rule:nonzero;stroke:none"
         transform="matrix(0.13333333,0,0,-0.13333333,0,42.12)" />
      <path
         id="path14"
         d="m 285.305,196.055 0.054,-53.106 h -12.293 l -0.039,53.106 -19.187,0.019 25.332,44.778 25.34,-44.778 -19.207,-0.019"
         style="fill:#ffffff;fill-opacity:1;fill-rule:nonzero;stroke:none"
         transform="matrix(0.13333333,0,0,-0.13333333,0,42.12)" />
      <path
         id="path15"
         d="m 240.02,144.055 c 0,-25.352 -20.555,-45.9183 -45.918,-45.9183 -25.364,0 -45.926,20.5663 -45.926,45.9183 0,25.39 20.562,45.945 45.926,45.945 25.363,0 45.918,-20.555 45.918,-45.945"
         style="fill:#087bbb;fill-opacity:1;fill-rule:nonzero;stroke:none"
         transform="matrix(0.13333333,0,0,-0.13333333,0,42.12)" />
      <path
         id="path16"
         d="m 240.02,144.055 c 0,-25.352 -20.555,-45.9183 -45.918,-45.9183 -25.364,0 -45.926,20.5663 -45.926,45.9183 0,25.39 20.562,45.945 45.926,45.945 25.363,0 45.918,-20.555 45.918,-45.945 z"
         style="fill:none;stroke:#ffffff;stroke-width:8;stroke-linecap:butt;stroke-linejoin:miter;stroke-miterlimit:4;stroke-dasharray:none;stroke-opacity:1"
         transform="matrix(0.13333333,0,0,-0.13333333,0,42.12)" />
    </g>
  </g>
</svg>
