<?xml version="1.0" encoding="UTF-8" standalone="no"?>
<!-- Created with Inkscape (http://www.inkscape.org/) -->

<svg
   version="1.1"
   id="svg1"
   width="52.533333"
   height="42.693333"
   viewBox="0 0 52.533333 42.693333"
   sodipodi:docname="VSD.eps"
   xmlns:inkscape="http://www.inkscape.org/namespaces/inkscape"
   xmlns:sodipodi="http://sodipodi.sourceforge.net/DTD/sodipodi-0.dtd"
   xmlns="http://www.w3.org/2000/svg"
   xmlns:svg="http://www.w3.org/2000/svg">
  <defs
     id="defs1" />
  <sodipodi:namedview
     id="namedview1"
     pagecolor="#505050"
     bordercolor="#eeeeee"
     borderopacity="1"
     inkscape:showpageshadow="0"
     inkscape:pageopacity="0"
     inkscape:pagecheckerboard="0"
     inkscape:deskcolor="#d1d1d1">
    <inkscape:page
       x="0"
       y="0"
       inkscape:label="1"
       id="page1"
       width="52.533333"
       height="42.693333"
       margin="0"
       bleed="0" />
  </sodipodi:namedview>
  <g
     id="g1"
     inkscape:groupmode="layer"
     inkscape:label="1">
    <g
       id="group-R5">
      <path
         id="path2"
         d="M 5.65625,6.46484 H 345.828 V 261.438 H 5.65625 V 6.46484"
         style="fill:#087dbd;fill-opacity:1;fill-rule:nonzero;stroke:none"
         transform="matrix(0.13333333,0,0,-0.13333333,0,42.693333)" />
      <path
         id="path3"
         d="M 5.65625,6.46484 H 345.828 V 261.438 H 5.65625 Z"
         style="fill:none;stroke:#ffffff;stroke-width:4;stroke-linecap:butt;stroke-linejoin:miter;stroke-miterlimit:4;stroke-dasharray:none;stroke-opacity:1"
         transform="matrix(0.13333333,0,0,-0.13333333,0,42.693333)" />
      <path
         id="path4"
         d="M 389.719,70.6523 345.828,6.46484 V 261.438 l 43.891,53.21 V 70.6523"
         style="fill:#087dbd;fill-opacity:1;fill-rule:nonzero;stroke:none"
         transform="matrix(0.13333333,0,0,-0.13333333,0,42.693333)" />
      <path
         id="path5"
         d="M 389.719,70.6523 345.828,6.46484 V 261.438 l 43.891,53.21 z"
         style="fill:none;stroke:#ffffff;stroke-width:4;stroke-linecap:butt;stroke-linejoin:miter;stroke-miterlimit:4;stroke-dasharray:none;stroke-opacity:1"
         transform="matrix(0.13333333,0,0,-0.13333333,0,42.693333)" />
      <path
         id="path6"
         d="M 71.4844,314.648 H 389.719 l -43.891,-53.21 H 5.65625 l 65.82815,53.21"
         style="fill:#087dbd;fill-opacity:1;fill-rule:nonzero;stroke:none"
         transform="matrix(0.13333333,0,0,-0.13333333,0,42.693333)" />
      <path
         id="path7"
         d="M 71.4844,314.648 H 389.719 l -43.891,-53.21 H 5.65625 Z"
         style="fill:none;stroke:#ffffff;stroke-width:4;stroke-linecap:butt;stroke-linejoin:miter;stroke-miterlimit:4;stroke-dasharray:none;stroke-opacity:1"
         transform="matrix(0.13333333,0,0,-0.13333333,0,42.693333)" />
      <path
         id="path8"
         d="M 326.465,125.359 H 38.5078 v 0 -6.316 l -20.1758,10.852 20.1758,11.328 v -6.36 H 326.27 l 0.195,-9.504"
         style="fill:#ffffff;fill-opacity:1;fill-rule:evenodd;stroke:none"
         transform="matrix(0.13333333,0,0,-0.13333333,0,42.693333)" />
      <path
         id="path9"
         d="M 72.2188,220.5 H 279.973 c 8.203,0 14.8,-6.621 14.8,-14.805 V 49.1719 c 0,-8.1641 -6.597,-14.7774 -14.8,-14.7774 H 72.2188 c -8.1758,0 -14.7969,6.6133 -14.7969,14.7774 V 205.695 c 0,8.184 6.6211,14.805 14.7969,14.805"
         style="fill:#ffffff;fill-opacity:1;fill-rule:nonzero;stroke:none"
         transform="matrix(0.13333333,0,0,-0.13333333,0,42.693333)" />
      <path
         id="path10"
         d="M 72.2188,220.5 H 279.973 c 8.203,0 14.8,-6.621 14.8,-14.805 V 49.1719 c 0,-8.1641 -6.597,-14.7774 -14.8,-14.7774 H 72.2188 c -8.1758,0 -14.7969,6.6133 -14.7969,14.7774 V 205.695 c 0,8.184 6.6211,14.805 14.7969,14.805 z"
         style="fill:none;stroke:#ffffff;stroke-width:3.2;stroke-linecap:butt;stroke-linejoin:miter;stroke-miterlimit:4;stroke-dasharray:none;stroke-opacity:1"
         transform="matrix(0.13333333,0,0,-0.13333333,0,42.693333)" />
      <path
         id="path11"
         d="M 173.484,203.848 H 69.0742 V 99.4336 H 173.484 V 203.848"
         style="fill:#78b4db;fill-opacity:1;fill-rule:nonzero;stroke:none"
         transform="matrix(0.13333333,0,0,-0.13333333,0,42.693333)" />
      <path
         id="path12"
         d="M 87.0586,183.914 H 155.527"
         style="fill:none;stroke:#ffffff;stroke-width:4.4;stroke-linecap:round;stroke-linejoin:round;stroke-miterlimit:4;stroke-dasharray:none;stroke-opacity:1"
         transform="matrix(0.13333333,0,0,-0.13333333,0,42.693333)" />
      <path
         id="path13"
         d="M 87.0586,170.371 H 155.527"
         style="fill:none;stroke:#ffffff;stroke-width:4.4;stroke-linecap:round;stroke-linejoin:round;stroke-miterlimit:4;stroke-dasharray:none;stroke-opacity:1"
         transform="matrix(0.13333333,0,0,-0.13333333,0,42.693333)" />
      <path
         id="path14"
         d="M 87.0586,156.824 H 155.527"
         style="fill:none;stroke:#ffffff;stroke-width:4.4;stroke-linecap:round;stroke-linejoin:round;stroke-miterlimit:4;stroke-dasharray:none;stroke-opacity:1"
         transform="matrix(0.13333333,0,0,-0.13333333,0,42.693333)" />
      <path
         id="path15"
         d="M 87.0586,143.289 H 155.527"
         style="fill:none;stroke:#ffffff;stroke-width:4.4;stroke-linecap:round;stroke-linejoin:round;stroke-miterlimit:4;stroke-dasharray:none;stroke-opacity:1"
         transform="matrix(0.13333333,0,0,-0.13333333,0,42.693333)" />
      <path
         id="path16"
         d="M 87.0586,129.746 H 155.527"
         style="fill:none;stroke:#ffffff;stroke-width:4.4;stroke-linecap:round;stroke-linejoin:round;stroke-miterlimit:4;stroke-dasharray:none;stroke-opacity:1"
         transform="matrix(0.13333333,0,0,-0.13333333,0,42.693333)" />
      <path
         id="path17"
         d="M 87.0586,116.199 H 155.527"
         style="fill:none;stroke:#ffffff;stroke-width:4.4;stroke-linecap:round;stroke-linejoin:round;stroke-miterlimit:4;stroke-dasharray:none;stroke-opacity:1"
         transform="matrix(0.13333333,0,0,-0.13333333,0,42.693333)" />
      <path
         id="path18"
         d="M 283.27,156.309 H 168.43 V 41.4531 H 283.27 V 156.309"
         style="fill:#78b4db;fill-opacity:1;fill-rule:nonzero;stroke:none"
         transform="matrix(0.13333333,0,0,-0.13333333,0,42.693333)" />
      <path
         id="path19"
         d="M 283.27,156.309 H 168.43 V 41.4531 h 114.84 z"
         style="fill:none;stroke:#ffffff;stroke-width:3.3;stroke-linecap:round;stroke-linejoin:round;stroke-miterlimit:4;stroke-dasharray:none;stroke-opacity:1"
         transform="matrix(0.13333333,0,0,-0.13333333,0,42.693333)" />
      <path
         id="path20"
         d="m 232.039,91.7969 c 7.336,2.3945 12.668,9.1801 12.668,17.3121 0,10.051 -8.191,18.254 -18.262,18.254 -10.105,0 -18.281,-8.203 -18.281,-18.254 0,-7.871 5.012,-14.4996 11.934,-17.0856 -7.813,-0.5976 -16.219,-2.7929 -24.688,-7.9023 V 36.7969 h 60.867 v 47.3242 c 0,0 -9.988,6.0078 -24.238,7.6758"
         style="fill:#ffffff;fill-opacity:1;fill-rule:nonzero;stroke:none"
         transform="matrix(0.13333333,0,0,-0.13333333,0,42.693333)" />
      <path
         id="path21"
         d="m 324.16,89.2773 h -7.129 v 6.3594 L 296.855,84.3086 317.031,73.457 v 6.3203 h 7.129 V 25.5664 h 9.5 v 54.2109 9.5 h -9.5"
         style="fill:#ffffff;fill-opacity:1;fill-rule:evenodd;stroke:none"
         transform="matrix(0.13333333,0,0,-0.13333333,0,42.693333)" />
      <path
         id="path22"
         d="m 212.938,83.9453 c -0.918,-1.1406 -0.731,-2.8008 0.414,-3.7187 1.128,-0.9102 2.793,-0.7344 3.699,0.3984 0.929,1.1328 0.73,2.793 -0.403,3.7109 -1.128,0.918 -2.793,0.7422 -3.71,-0.3906"
         style="fill:#100f0d;fill-opacity:1;fill-rule:nonzero;stroke:none"
         transform="matrix(0.13333333,0,0,-0.13333333,0,42.693333)" />
      <path
         id="path23"
         d="m 192.98,96.6992 c 2.508,-4.0117 8.668,-9.4648 14.586,-12.7929 3.911,-2.1954 6.821,-2.9688 8.125,-2.3829"
         style="fill:none;stroke:#231f20;stroke-width:2;stroke-linecap:butt;stroke-linejoin:round;stroke-miterlimit:4;stroke-dasharray:none;stroke-opacity:1"
         transform="matrix(0.13333333,0,0,-0.13333333,0,42.693333)" />
      <path
         id="path24"
         d="m 198.777,103.066 c 0,-3.2301 -2.617,-5.859 -5.855,-5.859 -3.242,0 -5.859,2.6289 -5.859,5.859 0,3.243 2.617,5.86 5.859,5.86 3.238,0 5.855,-2.617 5.855,-5.86"
         style="fill:#100f0d;fill-opacity:1;fill-rule:nonzero;stroke:none"
         transform="matrix(0.13333333,0,0,-0.13333333,0,42.693333)" />
      <path
         id="path25"
         d="m 252.371,103.066 c 0,-3.2301 2.641,-5.859 5.871,-5.859 3.235,0 5.86,2.6289 5.86,5.859 0,3.243 -2.625,5.86 -5.86,5.86 -3.23,0 -5.871,-2.617 -5.871,-5.86"
         style="fill:#100f0d;fill-opacity:1;fill-rule:nonzero;stroke:none"
         transform="matrix(0.13333333,0,0,-0.13333333,0,42.693333)" />
      <path
         id="path26"
         d="m 225.449,147.41 c 0,0 35.989,-1.023 35.989,-35.894 v -6.184 l -3.926,0.559 1.621,5.066 c -0.332,34.219 -33.684,33.34 -33.684,33.34 h 0.266 c 0,0 -31.438,1.758 -33.547,-31.992 l 1.492,-6.414 -3.941,-0.559 v 6.184 c 0,34.871 35.996,35.894 35.996,35.894"
         style="fill:#231f20;fill-opacity:1;fill-rule:nonzero;stroke:#231f20;stroke-width:0.6;stroke-linecap:butt;stroke-linejoin:miter;stroke-miterlimit:4;stroke-dasharray:none;stroke-opacity:1"
         transform="matrix(0.13333333,0,0,-0.13333333,0,42.693333)" />
      <path
         id="path27"
         d="m 162.117,118.367 c -1.812,-0.191 -3.426,1.086 -3.64,2.895 -0.207,1.804 1.086,3.426 2.89,3.633 1.809,0.214 3.438,-1.086 3.645,-2.891 0.203,-1.789 -1.106,-3.43 -2.895,-3.637"
         style="fill:#ffffff;fill-opacity:1;fill-rule:nonzero;stroke:none"
         transform="matrix(0.13333333,0,0,-0.13333333,0,42.693333)" />
      <path
         id="path28"
         d="m 162.117,118.367 c -1.812,-0.191 -3.426,1.086 -3.64,2.895 -0.207,1.804 1.086,3.426 2.89,3.633 1.809,0.214 3.438,-1.086 3.645,-2.891 0.203,-1.789 -1.106,-3.43 -2.895,-3.637 z"
         style="fill:none;stroke:#231f20;stroke-width:2.5;stroke-linecap:butt;stroke-linejoin:miter;stroke-miterlimit:4;stroke-dasharray:none;stroke-opacity:1"
         transform="matrix(0.13333333,0,0,-0.13333333,0,42.693333)" />
      <path
         id="path29"
         d="m 164.141,125.441 -5.664,-6.972 -20.118,16.375 5.645,6.972 20.137,-16.375"
         style="fill:#ffffff;fill-opacity:1;fill-rule:nonzero;stroke:none"
         transform="matrix(0.13333333,0,0,-0.13333333,0,42.693333)" />
      <path
         id="path30"
         d="m 164.141,125.441 -5.664,-6.972 -20.118,16.375 5.645,6.972 z"
         style="fill:none;stroke:#231f20;stroke-width:2.5;stroke-linecap:butt;stroke-linejoin:miter;stroke-miterlimit:4;stroke-dasharray:none;stroke-opacity:1"
         transform="matrix(0.13333333,0,0,-0.13333333,0,42.693333)" />
      <path
         id="path31"
         d="m 88.332,156.77 c 1.6407,14.324 14.617,24.628 28.926,22.988 14.297,-1.645 24.617,-14.621 22.984,-28.93 -1.629,-14.312 -14.617,-24.617 -28.933,-22.984 -14.3051,1.64 -24.641,14.617 -22.977,28.926 z m -4.2226,0.488 c -1.9102,-16.653 10.0586,-31.731 26.7106,-33.637 16.653,-1.91 31.746,10.09 33.645,26.731 1.89,16.64 -10.078,31.718 -26.731,33.632 -16.64,1.895 -31.7262,-10.086 -33.6246,-26.726"
         style="fill:#ffffff;fill-opacity:1;fill-rule:nonzero;stroke:none"
         transform="matrix(0.13333333,0,0,-0.13333333,0,42.693333)" />
      <path
         id="path32"
         d="m 88.332,156.77 c 1.6407,14.324 14.617,24.628 28.926,22.988 14.297,-1.645 24.617,-14.621 22.984,-28.93 -1.629,-14.312 -14.617,-24.617 -28.933,-22.984 -14.3051,1.64 -24.641,14.617 -22.977,28.926 z m -4.2226,0.488 c -1.9102,-16.653 10.0586,-31.731 26.7106,-33.637 16.653,-1.91 31.746,10.09 33.645,26.731 1.89,16.64 -10.078,31.718 -26.731,33.632 -16.64,1.895 -31.7262,-10.086 -33.6246,-26.726 z"
         style="fill:none;stroke:#231f20;stroke-width:2.5;stroke-linecap:butt;stroke-linejoin:miter;stroke-miterlimit:4;stroke-dasharray:none;stroke-opacity:1"
         transform="matrix(0.13333333,0,0,-0.13333333,0,42.693333)" />
      <path
         id="path33"
         d="m 91.7773,159.453 c 1.6485,14.317 14.6177,24.641 28.9377,22.981 14.312,-1.633 24.629,-14.621 22.984,-28.926 -1.648,-14.297 -14.617,-24.621 -28.933,-22.981 -14.297,1.629 -24.6176,14.61 -22.9887,28.926 z m -4.207,0.488 c -1.9062,-16.652 10.0781,-31.746 26.7067,-33.64 16.641,-1.914 31.739,10.086 33.645,26.734 1.902,16.621 -10.078,31.723 -26.731,33.637 -16.628,1.894 -31.7379,-10.102 -33.6207,-26.731"
         style="fill:#ffffff;fill-opacity:1;fill-rule:nonzero;stroke:none"
         transform="matrix(0.13333333,0,0,-0.13333333,0,42.693333)" />
      <path
         id="path34"
         d="m 91.7773,159.453 c 1.6485,14.317 14.6177,24.641 28.9377,22.981 14.312,-1.633 24.629,-14.621 22.984,-28.926 -1.648,-14.297 -14.617,-24.621 -28.933,-22.981 -14.297,1.629 -24.6176,14.61 -22.9887,28.926 z m -4.207,0.488 c -1.9062,-16.652 10.0781,-31.746 26.7067,-33.64 16.641,-1.914 31.739,10.086 33.645,26.734 1.902,16.621 -10.078,31.723 -26.731,33.637 -16.628,1.894 -31.7379,-10.102 -33.6207,-26.731 z"
         style="fill:none;stroke:#231f20;stroke-width:2.5;stroke-linecap:butt;stroke-linejoin:miter;stroke-miterlimit:4;stroke-dasharray:none;stroke-opacity:1"
         transform="matrix(0.13333333,0,0,-0.13333333,0,42.693333)" />
      <path
         id="path35"
         d="m 114.23,204.023 v 28.165 h -6.32 l 10.852,20.175 11.328,-20.175 h -6.36 v -27.969 l -9.5,-0.196"
         style="fill:#78b4db;fill-opacity:1;fill-rule:evenodd;stroke:none"
         transform="matrix(0.13333333,0,0,-0.13333333,0,42.693333)" />
    </g>
  </g>
</svg>
