<?xml version="1.0" encoding="UTF-8" standalone="no"?>
<!-- Created with Inkscape (http://www.inkscape.org/) -->

<svg
   version="1.1"
   id="svg1"
   width="41.799999"
   height="55.946667"
   viewBox="0 0 41.799999 55.946667"
   sodipodi:docname="VSS.eps"
   xmlns:inkscape="http://www.inkscape.org/namespaces/inkscape"
   xmlns:sodipodi="http://sodipodi.sourceforge.net/DTD/sodipodi-0.dtd"
   xmlns="http://www.w3.org/2000/svg"
   xmlns:svg="http://www.w3.org/2000/svg">
  <defs
     id="defs1" />
  <sodipodi:namedview
     id="namedview1"
     pagecolor="#505050"
     bordercolor="#eeeeee"
     borderopacity="1"
     inkscape:showpageshadow="0"
     inkscape:pageopacity="0"
     inkscape:pagecheckerboard="0"
     inkscape:deskcolor="#d1d1d1">
    <inkscape:page
       x="0"
       y="0"
       inkscape:label="1"
       id="page1"
       width="41.799999"
       height="55.946667"
       margin="0"
       bleed="0" />
  </sodipodi:namedview>
  <g
     id="g1"
     inkscape:groupmode="layer"
     inkscape:label="1">
    <g
       id="group-R5">
      <path
         id="path2"
         d="M 6.46484,4.79688 V 272.816 H 274.727 V 4.79688 H 6.46484"
         style="fill:#087bbb;fill-opacity:1;fill-rule:nonzero;stroke:none"
         transform="matrix(0.13333333,0,0,-0.13333333,0,55.946667)" />
      <path
         id="path3"
         d="M 6.46484,4.79688 V 272.816 H 274.727 V 4.79688 Z"
         style="fill:none;stroke:#ffffff;stroke-width:4;stroke-linecap:butt;stroke-linejoin:miter;stroke-miterlimit:4;stroke-dasharray:none;stroke-opacity:1"
         transform="matrix(0.13333333,0,0,-0.13333333,0,55.946667)" />
      <path
         id="path4"
         d="M 308.613,38.3516 V 306.371 L 274.727,272.816 V 4.79688 l 33.886,33.55472"
         style="fill:#087bbb;fill-opacity:1;fill-rule:nonzero;stroke:none"
         transform="matrix(0.13333333,0,0,-0.13333333,0,55.946667)" />
      <path
         id="path5"
         d="M 308.613,38.3516 V 306.371 L 274.727,272.816 V 4.79688 Z"
         style="fill:none;stroke:#ffffff;stroke-width:4;stroke-linecap:butt;stroke-linejoin:miter;stroke-miterlimit:4;stroke-dasharray:none;stroke-opacity:1"
         transform="matrix(0.13333333,0,0,-0.13333333,0,55.946667)" />
      <path
         id="path6"
         d="M 55.5078,414.785 6.46484,381.23 H 274.727 l 33.886,33.555 H 55.5078"
         style="fill:#087bbb;fill-opacity:1;fill-rule:nonzero;stroke:none"
         transform="matrix(0.13333333,0,0,-0.13333333,0,55.946667)" />
      <path
         id="path7"
         d="M 55.5078,414.785 6.46484,381.23 H 274.727 l 33.886,33.555 z"
         style="fill:none;stroke:#ffffff;stroke-width:4;stroke-linecap:butt;stroke-linejoin:miter;stroke-miterlimit:4;stroke-dasharray:none;stroke-opacity:1"
         transform="matrix(0.13333333,0,0,-0.13333333,0,55.946667)" />
      <path
         id="path8"
         d="M 6.46484,272.816 V 381.23 H 274.727 V 272.816 H 6.46484"
         style="fill:#087bbb;fill-opacity:1;fill-rule:nonzero;stroke:none"
         transform="matrix(0.13333333,0,0,-0.13333333,0,55.946667)" />
      <path
         id="path9"
         d="M 6.46484,272.816 V 381.23 H 274.727 V 272.816 Z"
         style="fill:none;stroke:#ffffff;stroke-width:4;stroke-linecap:butt;stroke-linejoin:miter;stroke-miterlimit:4;stroke-dasharray:none;stroke-opacity:1"
         transform="matrix(0.13333333,0,0,-0.13333333,0,55.946667)" />
      <path
         id="path10"
         d="M 308.613,306.371 V 414.785 L 274.727,381.23 V 272.816 l 33.886,33.555"
         style="fill:#087bbb;fill-opacity:1;fill-rule:nonzero;stroke:none"
         transform="matrix(0.13333333,0,0,-0.13333333,0,55.946667)" />
      <path
         id="path11"
         d="M 308.613,306.371 V 414.785 L 274.727,381.23 V 272.816 Z"
         style="fill:none;stroke:#ffffff;stroke-width:4;stroke-linecap:butt;stroke-linejoin:miter;stroke-miterlimit:4;stroke-dasharray:none;stroke-opacity:1"
         transform="matrix(0.13333333,0,0,-0.13333333,0,55.946667)" />
      <path
         id="path12"
         d="m 274.727,272.816 33.886,33.555"
         style="fill:#087bbb;fill-opacity:1;fill-rule:nonzero;stroke:#ffffff;stroke-width:4;stroke-linecap:butt;stroke-linejoin:miter;stroke-miterlimit:4;stroke-dasharray:none;stroke-opacity:1"
         transform="matrix(0.13333333,0,0,-0.13333333,0,55.946667)" />
      <path
         id="path13"
         d="m 93.4961,344.32 v 22.368 H 50.2344 V 344.32 h 43.2617"
         style="fill:#ffffff;fill-opacity:1;fill-rule:nonzero;stroke:none"
         transform="matrix(0.13333333,0,0,-0.13333333,0,55.946667)" />
      <path
         id="path14"
         d="m 192.402,344.32 v 22.368 h 43.262 V 344.32 h -43.262"
         style="fill:#ffffff;fill-opacity:1;fill-rule:nonzero;stroke:none"
         transform="matrix(0.13333333,0,0,-0.13333333,0,55.946667)" />
      <path
         id="path15"
         d="M 93.4961,288.051 V 310.57 H 50.2344 v -22.519 h 43.2617"
         style="fill:#ffffff;fill-opacity:1;fill-rule:nonzero;stroke:none"
         transform="matrix(0.13333333,0,0,-0.13333333,0,55.946667)" />
      <path
         id="path16"
         d="m 192.402,288.051 v 22.519 h 43.262 v -22.519 h -43.262"
         style="fill:#ffffff;fill-opacity:1;fill-rule:nonzero;stroke:none"
         transform="matrix(0.13333333,0,0,-0.13333333,0,55.946667)" />
      <path
         id="path17"
         d="M 79.5898,355.508 H 212.48"
         style="fill:#231f20;fill-opacity:1;fill-rule:nonzero;stroke:#ffffff;stroke-width:4;stroke-linecap:butt;stroke-linejoin:miter;stroke-miterlimit:4;stroke-dasharray:none;stroke-opacity:1"
         transform="matrix(0.13333333,0,0,-0.13333333,0,55.946667)" />
      <path
         id="path18"
         d="M 79.5898,299.313 H 212.48"
         style="fill:#231f20;fill-opacity:1;fill-rule:nonzero;stroke:#ffffff;stroke-width:4;stroke-linecap:butt;stroke-linejoin:miter;stroke-miterlimit:4;stroke-dasharray:none;stroke-opacity:1"
         transform="matrix(0.13333333,0,0,-0.13333333,0,55.946667)" />
      <path
         id="path19"
         d="M 71.875,299.313 212.48,355.508"
         style="fill:#231f20;fill-opacity:1;fill-rule:nonzero;stroke:#ffffff;stroke-width:4;stroke-linecap:butt;stroke-linejoin:miter;stroke-miterlimit:4;stroke-dasharray:none;stroke-opacity:1"
         transform="matrix(0.13333333,0,0,-0.13333333,0,55.946667)" />
      <path
         id="path20"
         d="M 71.875,355.508 212.48,299.313"
         style="fill:#231f20;fill-opacity:1;fill-rule:nonzero;stroke:#ffffff;stroke-width:4;stroke-linecap:butt;stroke-linejoin:miter;stroke-miterlimit:4;stroke-dasharray:none;stroke-opacity:1"
         transform="matrix(0.13333333,0,0,-0.13333333,0,55.946667)" />
      <path
         id="path21"
         d="m 90.5117,152.18 v 22.578 h 3.836 l -5.6407,8.512 -5.6562,-8.512 H 86.875 V 152.18 h 3.6367"
         style="fill:#ffffff;fill-opacity:1;fill-rule:nonzero;stroke:none"
         transform="matrix(0.13333333,0,0,-0.13333333,0,55.946667)" />
      <path
         id="path22"
         d="m 79.0078,148.918 -15.9648,15.953 2.7031,2.734 -10.0273,2.012 2.0312,-10.015 2.7148,2.711 15.9649,-15.973 2.5781,2.578"
         style="fill:#ffffff;fill-opacity:1;fill-rule:nonzero;stroke:none"
         transform="matrix(0.13333333,0,0,-0.13333333,0,55.946667)" />
      <path
         id="path23"
         d="M 73.1641,138.469 H 50.5859 v 3.828 l -8.5195,-5.649 8.5195,-5.664 v 3.829 h 22.5782 v 3.656"
         style="fill:#ffffff;fill-opacity:1;fill-rule:nonzero;stroke:none"
         transform="matrix(0.13333333,0,0,-0.13333333,0,55.946667)" />
      <path
         id="path24"
         d="m 76.4297,126.941 -15.9649,-15.972 -2.7148,2.715 -2.0312,-10.043 10.0273,2.05 -2.7031,2.715 15.9648,15.957 -2.5781,2.578"
         style="fill:#ffffff;fill-opacity:1;fill-rule:nonzero;stroke:none"
         transform="matrix(0.13333333,0,0,-0.13333333,0,55.946667)" />
      <path
         id="path25"
         d="M 86.875,121.102 V 98.5234 h -3.8242 l 5.6562,-8.5117 5.6407,8.5117 h -3.836 V 121.102 H 86.875"
         style="fill:#ffffff;fill-opacity:1;fill-rule:nonzero;stroke:none"
         transform="matrix(0.13333333,0,0,-0.13333333,0,55.946667)" />
      <path
         id="path26"
         d="m 100.973,146.34 15.961,15.973 2.707,-2.711 2.039,10.015 -10.032,-2.012 2.711,-2.734 -15.9606,-15.953 2.5746,-2.578"
         style="fill:#ffffff;fill-opacity:1;fill-rule:nonzero;stroke:none"
         transform="matrix(0.13333333,0,0,-0.13333333,0,55.946667)" />
      <path
         id="path27"
         d="m 102.516,117.727 c 10.589,7.402 13.152,21.968 5.738,32.554 -7.402,10.586 -21.9727,13.149 -32.5548,5.742 -10.5859,-7.402 -13.1523,-21.992 -5.7422,-32.554 7.4024,-10.586 21.9961,-13.164 32.559,-5.742"
         style="fill:#ffffff;fill-opacity:1;fill-rule:nonzero;stroke:none"
         transform="matrix(0.13333333,0,0,-0.13333333,0,55.946667)" />
      <path
         id="path28"
         d="m 100.484,124.363 15.957,-15.957 -2.703,-2.715 10.024,-2.05 -2.039,10.043 -2.696,-2.715 -15.964,15.972 -2.579,-2.578"
         style="fill:#ffffff;fill-opacity:1;fill-rule:nonzero;stroke:none"
         transform="matrix(0.13333333,0,0,-0.13333333,0,55.946667)" />
      <path
         id="path29"
         d="m 190.137,152.18 v 22.578 h -3.836 l 5.64,8.512 5.657,-8.512 H 193.77 V 152.18 h -3.633"
         style="fill:#ffffff;fill-opacity:1;fill-rule:nonzero;stroke:none"
         transform="matrix(0.13333333,0,0,-0.13333333,0,55.946667)" />
      <path
         id="path30"
         d="m 201.641,148.918 15.964,15.953 -2.703,2.734 10.02,2.012 -2.031,-10.015 -2.703,2.711 -15.969,-15.973 -2.578,2.578"
         style="fill:#ffffff;fill-opacity:1;fill-rule:nonzero;stroke:none"
         transform="matrix(0.13333333,0,0,-0.13333333,0,55.946667)" />
      <path
         id="path31"
         d="m 207.48,138.469 h 22.579 v 3.828 l 8.515,-5.649 -8.515,-5.664 v 3.829 H 207.48 v 3.656"
         style="fill:#ffffff;fill-opacity:1;fill-rule:nonzero;stroke:none"
         transform="matrix(0.13333333,0,0,-0.13333333,0,55.946667)" />
      <path
         id="path32"
         d="m 204.219,126.941 15.969,-15.972 2.703,2.715 2.031,-10.043 -10.02,2.05 2.703,2.715 -15.964,15.957 2.578,2.578"
         style="fill:#ffffff;fill-opacity:1;fill-rule:nonzero;stroke:none"
         transform="matrix(0.13333333,0,0,-0.13333333,0,55.946667)" />
      <path
         id="path33"
         d="M 193.77,121.102 V 98.5234 h 3.828 l -5.657,-8.5117 -5.64,8.5117 h 3.836 v 22.5786 h 3.633"
         style="fill:#ffffff;fill-opacity:1;fill-rule:nonzero;stroke:none"
         transform="matrix(0.13333333,0,0,-0.13333333,0,55.946667)" />
      <path
         id="path34"
         d="m 179.68,146.34 -15.969,15.973 -2.699,-2.711 -2.047,10.015 10.039,-2.012 -2.715,-2.734 15.957,-15.953 -2.566,-2.578"
         style="fill:#ffffff;fill-opacity:1;fill-rule:nonzero;stroke:none"
         transform="matrix(0.13333333,0,0,-0.13333333,0,55.946667)" />
      <path
         id="path35"
         d="m 178.137,117.727 c -10.598,7.402 -13.16,21.968 -5.742,32.554 7.402,10.586 21.968,13.149 32.554,5.742 10.586,-7.402 13.149,-21.992 5.742,-32.554 -7.41,-10.586 -22,-13.164 -32.554,-5.742"
         style="fill:#ffffff;fill-opacity:1;fill-rule:nonzero;stroke:none"
         transform="matrix(0.13333333,0,0,-0.13333333,0,55.946667)" />
      <path
         id="path36"
         d="m 180.164,124.363 -15.953,-15.957 2.691,-2.715 -10.015,-2.05 2.035,10.043 2.699,-2.715 15.957,15.972 2.586,-2.578"
         style="fill:#ffffff;fill-opacity:1;fill-rule:nonzero;stroke:none"
         transform="matrix(0.13333333,0,0,-0.13333333,0,55.946667)" />
      <path
         id="path37"
         d="m 102.074,136.355 h 76.5"
         style="fill:none;stroke:#ffffff;stroke-width:9.734;stroke-linecap:butt;stroke-linejoin:miter;stroke-miterlimit:4;stroke-dasharray:none;stroke-opacity:1"
         transform="matrix(0.13333333,0,0,-0.13333333,0,55.946667)" />
      <path
         id="path38"
         d="m 145.855,136.57 c 0,-16.402 -2.82,-29.707 -6.292,-29.707 -3.485,0 -6.305,13.305 -6.305,29.707 0,16.407 2.82,29.692 6.305,29.692 3.472,0 6.292,-13.285 6.292,-29.692 z"
         style="fill:none;stroke:#ffffff;stroke-width:4;stroke-linecap:butt;stroke-linejoin:miter;stroke-miterlimit:4;stroke-dasharray:none;stroke-opacity:1"
         transform="matrix(0.13333333,0,0,-0.13333333,0,55.946667)" />
      <path
         id="path39"
         d="M 247.195,54.3867 H 32.3242 V 223.141 H 247.195 Z"
         style="fill:none;stroke:#ffffff;stroke-width:4;stroke-linecap:butt;stroke-linejoin:miter;stroke-miterlimit:4;stroke-dasharray:18, 18;stroke-dashoffset:0;stroke-opacity:1"
         transform="matrix(0.13333333,0,0,-0.13333333,0,55.946667)" />
    </g>
  </g>
</svg>
