<?xml version="1.0" encoding="UTF-8" standalone="no"?>
<!-- Created with Inkscape (http://www.inkscape.org/) -->

<svg
   version="1.1"
   id="svg1"
   width="50.799999"
   height="43.786667"
   viewBox="0 0 50.799999 43.786667"
   sodipodi:docname="workgroup director.eps"
   xmlns:inkscape="http://www.inkscape.org/namespaces/inkscape"
   xmlns:sodipodi="http://sodipodi.sourceforge.net/DTD/sodipodi-0.dtd"
   xmlns="http://www.w3.org/2000/svg"
   xmlns:svg="http://www.w3.org/2000/svg">
  <defs
     id="defs1">
    <clipPath
       clipPathUnits="userSpaceOnUse"
       id="clipPath2">
      <path
         d="M 0,328 H 380 V 0 H 0 Z"
         id="path2" />
    </clipPath>
    <clipPath
       clipPathUnits="userSpaceOnUse"
       id="clipPath4">
      <path
         d="M 0,328 H 380 V 0 H 0 Z"
         id="path4" />
    </clipPath>
    <clipPath
       clipPathUnits="userSpaceOnUse"
       id="clipPath6">
      <path
         d="M 0,328 H 380 V 0 H 0 Z"
         id="path6" />
    </clipPath>
    <clipPath
       clipPathUnits="userSpaceOnUse"
       id="clipPath8">
      <path
         d="M 0,328 H 380 V 0 H 0 Z"
         id="path8" />
    </clipPath>
    <clipPath
       clipPathUnits="userSpaceOnUse"
       id="clipPath10">
      <path
         d="M 0,328 H 380 V 0 H 0 Z"
         id="path10" />
    </clipPath>
    <clipPath
       clipPathUnits="userSpaceOnUse"
       id="clipPath12">
      <path
         d="M 0,328 H 380 V 0 H 0 Z"
         id="path12" />
    </clipPath>
    <clipPath
       clipPathUnits="userSpaceOnUse"
       id="clipPath14">
      <path
         d="M 0,328 H 380 V 0 H 0 Z"
         id="path14" />
    </clipPath>
    <clipPath
       clipPathUnits="userSpaceOnUse"
       id="clipPath16">
      <path
         d="M 0,328 H 380 V 0 H 0 Z"
         id="path16" />
    </clipPath>
    <clipPath
       clipPathUnits="userSpaceOnUse"
       id="clipPath18">
      <path
         d="M 0,328 H 380 V 0 H 0 Z"
         id="path18" />
    </clipPath>
    <clipPath
       clipPathUnits="userSpaceOnUse"
       id="clipPath20">
      <path
         d="M 0,328 H 380 V 0 H 0 Z"
         id="path20" />
    </clipPath>
    <clipPath
       clipPathUnits="userSpaceOnUse"
       id="clipPath22">
      <path
         d="M 0,328 H 380 V 0 H 0 Z"
         id="path22" />
    </clipPath>
    <clipPath
       clipPathUnits="userSpaceOnUse"
       id="clipPath24">
      <path
         d="M 0,328 H 380 V 0 H 0 Z"
         id="path24" />
    </clipPath>
    <clipPath
       clipPathUnits="userSpaceOnUse"
       id="clipPath26">
      <path
         d="M 0,328 H 380 V 0 H 0 Z"
         id="path26" />
    </clipPath>
    <clipPath
       clipPathUnits="userSpaceOnUse"
       id="clipPath28">
      <path
         d="M 0,328 H 380 V 0 H 0 Z"
         id="path28" />
    </clipPath>
    <clipPath
       clipPathUnits="userSpaceOnUse"
       id="clipPath30">
      <path
         d="M 0,328 H 380 V 0 H 0 Z"
         id="path30" />
    </clipPath>
    <clipPath
       clipPathUnits="userSpaceOnUse"
       id="clipPath32">
      <path
         d="M 0,328 H 380 V 0 H 0 Z"
         id="path32" />
    </clipPath>
    <clipPath
       clipPathUnits="userSpaceOnUse"
       id="clipPath34">
      <path
         d="M 0,328 H 380 V 0 H 0 Z"
         id="path34" />
    </clipPath>
    <clipPath
       clipPathUnits="userSpaceOnUse"
       id="clipPath36">
      <path
         d="M 0,328 H 380 V 0 H 0 Z"
         id="path36" />
    </clipPath>
    <clipPath
       clipPathUnits="userSpaceOnUse"
       id="clipPath38">
      <path
         d="M 0,328 H 380 V 0 H 0 Z"
         id="path38" />
    </clipPath>
    <clipPath
       clipPathUnits="userSpaceOnUse"
       id="clipPath40">
      <path
         d="M 0,328 H 380 V 0 H 0 Z"
         id="path40" />
    </clipPath>
    <clipPath
       clipPathUnits="userSpaceOnUse"
       id="clipPath42">
      <path
         d="M 0,328 H 380 V 0 H 0 Z"
         id="path42" />
    </clipPath>
    <clipPath
       clipPathUnits="userSpaceOnUse"
       id="clipPath44">
      <path
         d="M 0,328 H 380 V 0 H 0 Z"
         id="path44" />
    </clipPath>
    <clipPath
       clipPathUnits="userSpaceOnUse"
       id="clipPath46">
      <path
         d="M 0,328 H 380 V 0 H 0 Z"
         id="path46" />
    </clipPath>
    <clipPath
       clipPathUnits="userSpaceOnUse"
       id="clipPath48">
      <path
         d="M 0,328 H 380 V 0 H 0 Z"
         id="path48" />
    </clipPath>
    <clipPath
       clipPathUnits="userSpaceOnUse"
       id="clipPath50">
      <path
         d="M 0,328 H 380 V 0 H 0 Z"
         id="path50" />
    </clipPath>
    <clipPath
       clipPathUnits="userSpaceOnUse"
       id="clipPath52">
      <path
         d="M 0,328 H 380 V 0 H 0 Z"
         id="path52" />
    </clipPath>
    <clipPath
       clipPathUnits="userSpaceOnUse"
       id="clipPath54">
      <path
         d="M 0,328 H 380 V 0 H 0 Z"
         id="path54" />
    </clipPath>
    <clipPath
       clipPathUnits="userSpaceOnUse"
       id="clipPath56">
      <path
         d="M 0,328 H 380 V 0 H 0 Z"
         id="path56" />
    </clipPath>
    <clipPath
       clipPathUnits="userSpaceOnUse"
       id="clipPath58">
      <path
         d="M 0,328 H 380 V 0 H 0 Z"
         id="path58" />
    </clipPath>
  </defs>
  <sodipodi:namedview
     id="namedview1"
     pagecolor="#505050"
     bordercolor="#eeeeee"
     borderopacity="1"
     inkscape:showpageshadow="0"
     inkscape:pageopacity="0"
     inkscape:pagecheckerboard="0"
     inkscape:deskcolor="#d1d1d1">
    <inkscape:page
       x="0"
       y="0"
       inkscape:label="1"
       id="page1"
       width="50.799999"
       height="43.786667"
       margin="0"
       bleed="0" />
  </sodipodi:namedview>
  <g
     id="g1"
     inkscape:groupmode="layer"
     inkscape:label="1">
    <path
       id="path1"
       d="M 312.309,141.852 283.512,103.453 H 44.8789 l 39.0899,39.086 228.3402,-0.687"
       style="fill:#000000;fill-opacity:1;fill-rule:nonzero;stroke:none"
       transform="matrix(0.13333333,0,0,-0.13333333,0,43.786667)"
       clip-path="url(#clipPath2)" />
    <path
       id="path3"
       d="M 312.309,141.852 283.512,103.453 H 44.8789 l 39.0899,39.086 z"
       style="fill:none;stroke:#ffffff;stroke-width:3.99994;stroke-linecap:butt;stroke-linejoin:miter;stroke-miterlimit:4;stroke-dasharray:none;stroke-opacity:1"
       transform="matrix(0.13333333,0,0,-0.13333333,0,43.786667)"
       clip-path="url(#clipPath4)" />
    <path
       id="path5"
       d="m 44.3008,60.2578 h 229.004 v 42.7148 H 44.3008 Z"
       style="fill:#036998;fill-opacity:1;fill-rule:nonzero;stroke:none"
       transform="matrix(0.13333333,0,0,-0.13333333,0,43.786667)"
       clip-path="url(#clipPath6)" />
    <path
       id="path7"
       d="M 44.3008,60.2578 V 102.973 H 273.305 V 60.2578 Z"
       style="fill:none;stroke:#ffffff;stroke-width:3.99994;stroke-linecap:butt;stroke-linejoin:miter;stroke-miterlimit:4;stroke-dasharray:none;stroke-opacity:1"
       transform="matrix(0.13333333,0,0,-0.13333333,0,43.786667)"
       clip-path="url(#clipPath8)" />
    <path
       id="path9"
       d="m 43.5586,112.582 h 228.203 V 284.637 H 43.5586 Z"
       style="fill:#036998;fill-opacity:1;fill-rule:nonzero;stroke:none"
       transform="matrix(0.13333333,0,0,-0.13333333,0,43.786667)"
       clip-path="url(#clipPath10)" />
    <path
       id="path11"
       d="M 43.5586,284.637 H 271.762 V 112.582 H 43.5586 Z"
       style="fill:none;stroke:#ffffff;stroke-width:3.99994;stroke-linecap:butt;stroke-linejoin:miter;stroke-miterlimit:4;stroke-dasharray:none;stroke-opacity:1"
       transform="matrix(0.13333333,0,0,-0.13333333,0,43.786667)"
       clip-path="url(#clipPath12)" />
    <path
       id="path13"
       d="m 271.762,112.582 38.937,38.938 V 323.574 L 271.762,284.637 V 112.582"
       style="fill:#036998;fill-opacity:1;fill-rule:nonzero;stroke:none"
       transform="matrix(0.13333333,0,0,-0.13333333,0,43.786667)"
       clip-path="url(#clipPath14)" />
    <path
       id="path15"
       d="m 271.762,112.582 38.937,38.938 v 172.054 l -38.937,-38.937 z"
       style="fill:none;stroke:#ffffff;stroke-width:3.99994;stroke-linecap:butt;stroke-linejoin:miter;stroke-miterlimit:4;stroke-dasharray:none;stroke-opacity:1"
       transform="matrix(0.13333333,0,0,-0.13333333,0,43.786667)"
       clip-path="url(#clipPath16)" />
    <path
       id="path17"
       d="m 357.984,22.7148 17.461,34.9454 H 335.512 L 318.043,22.7148 h 39.941"
       style="fill:#036998;fill-opacity:1;fill-rule:nonzero;stroke:none"
       transform="matrix(0.13333333,0,0,-0.13333333,0,43.786667)"
       clip-path="url(#clipPath18)" />
    <path
       id="path19"
       d="m 357.984,22.7148 17.461,34.9454 H 335.512 L 318.043,22.7148 Z"
       style="fill:none;stroke:#ffffff;stroke-width:3.99994;stroke-linecap:butt;stroke-linejoin:miter;stroke-miterlimit:4;stroke-dasharray:none;stroke-opacity:1"
       transform="matrix(0.13333333,0,0,-0.13333333,0,43.786667)"
       clip-path="url(#clipPath20)" />
    <path
       id="path21"
       d="m 318.043,11.4844 h 39.9414 V 22.7149 H 318.043 Z"
       style="fill:#036998;fill-opacity:1;fill-rule:nonzero;stroke:none"
       transform="matrix(0.13333333,0,0,-0.13333333,0,43.786667)"
       clip-path="url(#clipPath22)" />
    <path
       id="path23"
       d="m 318.043,22.7148 h 39.941 V 11.4844 h -39.941 z"
       style="fill:none;stroke:#ffffff;stroke-width:3.99994;stroke-linecap:butt;stroke-linejoin:miter;stroke-miterlimit:4;stroke-dasharray:none;stroke-opacity:1"
       transform="matrix(0.13333333,0,0,-0.13333333,0,43.786667)"
       clip-path="url(#clipPath24)" />
    <path
       id="path25"
       d="m 357.66,11.1719 0.11,11.5429 17.468,34.9454 -0.097,-24.0235 -17.481,-22.4648"
       style="fill:#036998;fill-opacity:1;fill-rule:nonzero;stroke:none"
       transform="matrix(0.13333333,0,0,-0.13333333,0,43.786667)"
       clip-path="url(#clipPath26)" />
    <path
       id="path27"
       d="m 357.66,11.1719 0.11,11.5429 17.468,34.9454 -0.097,-24.0235 z"
       style="fill:none;stroke:#ffffff;stroke-width:3.99994;stroke-linecap:butt;stroke-linejoin:miter;stroke-miterlimit:4;stroke-dasharray:none;stroke-opacity:1"
       transform="matrix(0.13333333,0,0,-0.13333333,0,43.786667)"
       clip-path="url(#clipPath28)" />
    <path
       id="path29"
       d="m 273.121,60.1563 v 42.7387 l 38.68,38.687 V 98.8438 l -38.68,-38.6875"
       style="fill:#036998;fill-opacity:1;fill-rule:nonzero;stroke:none"
       transform="matrix(0.13333333,0,0,-0.13333333,0,43.786667)"
       clip-path="url(#clipPath30)" />
    <path
       id="path31"
       d="m 273.121,60.1563 v 42.7387 l 38.68,38.687 V 98.8438 Z"
       style="fill:none;stroke:#ffffff;stroke-width:3.99994;stroke-linecap:butt;stroke-linejoin:miter;stroke-miterlimit:4;stroke-dasharray:none;stroke-opacity:1"
       transform="matrix(0.13333333,0,0,-0.13333333,0,43.786667)"
       clip-path="url(#clipPath32)" />
    <path
       id="path33"
       d="M 81.4414,264.813 H 233.93 c 9.933,0 17.968,-8.047 17.968,-17.969 v -96.34 c 0,-9.922 -8.035,-17.969 -17.968,-17.969 H 81.4414 c -9.9336,0 -17.9805,8.047 -17.9805,17.969 v 96.34 c 0,9.922 8.0469,17.969 17.9805,17.969"
       style="fill:#036998;fill-opacity:1;fill-rule:nonzero;stroke:none"
       transform="matrix(0.13333333,0,0,-0.13333333,0,43.786667)"
       clip-path="url(#clipPath34)" />
    <path
       id="path35"
       d="M 81.4414,264.813 H 233.93 c 9.933,0 17.968,-8.047 17.968,-17.969 v -96.34 c 0,-9.922 -8.035,-17.969 -17.968,-17.969 H 81.4414 c -9.9336,0 -17.9805,8.047 -17.9805,17.969 v 96.34 c 0,9.922 8.0469,17.969 17.9805,17.969 z"
       style="fill:none;stroke:#ffffff;stroke-width:3.99994;stroke-linecap:butt;stroke-linejoin:miter;stroke-miterlimit:4;stroke-dasharray:none;stroke-opacity:1"
       transform="matrix(0.13333333,0,0,-0.13333333,0,43.786667)"
       clip-path="url(#clipPath36)" />
    <path
       id="path37"
       d="M 310.699,323.574 H 88.7344 L 43.5586,284.637 H 271.762 l 38.937,38.937"
       style="fill:#036998;fill-opacity:1;fill-rule:nonzero;stroke:none"
       transform="matrix(0.13333333,0,0,-0.13333333,0,43.786667)"
       clip-path="url(#clipPath38)" />
    <path
       id="path39"
       d="M 310.699,323.574 H 88.7344 L 43.5586,284.637 H 271.762 Z"
       style="fill:none;stroke:#ffffff;stroke-width:3.99994;stroke-linecap:butt;stroke-linejoin:miter;stroke-miterlimit:4;stroke-dasharray:none;stroke-opacity:1"
       transform="matrix(0.13333333,0,0,-0.13333333,0,43.786667)"
       clip-path="url(#clipPath40)" />
    <path
       id="path41"
       d="M 266.508,4.82422 V 18.6719 l 29.883,41.3437 V 34.707 L 266.508,4.82422"
       style="fill:#036998;fill-opacity:1;fill-rule:nonzero;stroke:none"
       transform="matrix(0.13333333,0,0,-0.13333333,0,43.786667)"
       clip-path="url(#clipPath42)" />
    <path
       id="path43"
       d="M 266.508,4.82422 V 18.6719 l 29.883,41.3437 V 34.707 Z"
       style="fill:none;stroke:#ffffff;stroke-width:3.99994;stroke-linecap:butt;stroke-linejoin:miter;stroke-miterlimit:4;stroke-dasharray:none;stroke-opacity:1"
       transform="matrix(0.13333333,0,0,-0.13333333,0,43.786667)"
       clip-path="url(#clipPath44)" />
    <path
       id="path45"
       d="M 266.508,18.4648 H 3.90234 L 33.7852,60.0156 H 296.391 L 266.508,18.4648"
       style="fill:#036998;fill-opacity:1;fill-rule:nonzero;stroke:none"
       transform="matrix(0.13333333,0,0,-0.13333333,0,43.786667)"
       clip-path="url(#clipPath46)" />
    <path
       id="path47"
       d="M 266.508,18.4648 H 3.90234 L 33.7852,60.0156 H 296.391 Z"
       style="fill:none;stroke:#ffffff;stroke-width:3.99994;stroke-linecap:butt;stroke-linejoin:miter;stroke-miterlimit:4;stroke-dasharray:none;stroke-opacity:1"
       transform="matrix(0.13333333,0,0,-0.13333333,0,43.786667)"
       clip-path="url(#clipPath48)" />
    <path
       id="path49"
       d="m 3.74609,4.82422 h 262.762 v 13.6406 H 3.74609 Z"
       style="fill:#036998;fill-opacity:1;fill-rule:nonzero;stroke:none"
       transform="matrix(0.13333333,0,0,-0.13333333,0,43.786667)"
       clip-path="url(#clipPath50)" />
    <path
       id="path51"
       d="M 266.508,18.4648 V 4.82422 H 3.74609 V 18.4648 Z"
       style="fill:none;stroke:#ffffff;stroke-width:3.99994;stroke-linecap:butt;stroke-linejoin:miter;stroke-miterlimit:4;stroke-dasharray:none;stroke-opacity:1"
       transform="matrix(0.13333333,0,0,-0.13333333,0,43.786667)"
       clip-path="url(#clipPath52)" />
    <path
       id="path53"
       d="m 365.465,56.4102 c 31.199,14.9765 6.238,78.6168 -55.93,46.7378"
       style="fill:none;stroke:#036998;stroke-width:5;stroke-linecap:butt;stroke-linejoin:miter;stroke-miterlimit:4;stroke-dasharray:none;stroke-opacity:1"
       transform="matrix(0.13333333,0,0,-0.13333333,0,43.786667)"
       clip-path="url(#clipPath54)" />
    <path
       id="path55"
       d="m 157.113,172.539 c 32.317,0 58.516,11.91 58.516,26.602 0,14.691 -26.199,26.601 -58.516,26.601 -32.324,0 -58.5232,-11.91 -58.5232,-26.601 0,-14.692 26.1992,-26.602 58.5232,-26.602 z"
       style="fill:none;stroke:#ffffff;stroke-width:5;stroke-linecap:butt;stroke-linejoin:miter;stroke-miterlimit:4;stroke-dasharray:none;stroke-opacity:1"
       transform="matrix(0.13333333,0,0,-0.13333333,0,43.786667)"
       clip-path="url(#clipPath56)" />
    <path
       id="path57"
       d="m 157.555,163.023 c 41.492,0 75.125,16.356 75.125,36.532 0,20.175 -33.633,36.535 -75.125,36.535 -41.485,0 -75.1175,-16.36 -75.1175,-36.535 0,-20.176 33.6325,-36.532 75.1175,-36.532 z"
       style="fill:none;stroke:#ffffff;stroke-width:5;stroke-linecap:butt;stroke-linejoin:miter;stroke-miterlimit:4;stroke-dasharray:none;stroke-opacity:1"
       transform="matrix(0.13333333,0,0,-0.13333333,0,43.786667)"
       clip-path="url(#clipPath58)" />
  </g>
</svg>
