<?xml version="1.0" encoding="UTF-8" standalone="no"?>
<!-- Created with Inkscape (http://www.inkscape.org/) -->

<svg
   version="1.1"
   id="svg1"
   width="48.986668"
   height="28.533333"
   viewBox="0 0 48.986668 28.533333"
   sodipodi:docname="fc storage.eps"
   xmlns:inkscape="http://www.inkscape.org/namespaces/inkscape"
   xmlns:sodipodi="http://sodipodi.sourceforge.net/DTD/sodipodi-0.dtd"
   xmlns="http://www.w3.org/2000/svg"
   xmlns:svg="http://www.w3.org/2000/svg">
  <defs
     id="defs1">
    <clipPath
       clipPathUnits="userSpaceOnUse"
       id="clipPath2">
      <path
         d="M 0,3 V 214 H 367 V 3 Z"
         id="path2" />
    </clipPath>
    <clipPath
       clipPathUnits="userSpaceOnUse"
       id="clipPath4">
      <path
         d="M 0,3 V 214 H 367 V 3 Z"
         id="path4" />
    </clipPath>
    <clipPath
       clipPathUnits="userSpaceOnUse"
       id="clipPath6">
      <path
         d="M 0,3 V 214 H 367 V 3 Z"
         id="path6" />
    </clipPath>
    <clipPath
       clipPathUnits="userSpaceOnUse"
       id="clipPath8">
      <path
         d="M 0,3 V 214 H 367 V 3 Z"
         id="path8" />
    </clipPath>
    <clipPath
       clipPathUnits="userSpaceOnUse"
       id="clipPath10">
      <path
         d="M 0,3 V 214 H 367 V 3 Z"
         id="path10" />
    </clipPath>
    <clipPath
       clipPathUnits="userSpaceOnUse"
       id="clipPath12">
      <path
         d="M 0,3 V 214 H 367 V 3 Z"
         id="path12" />
    </clipPath>
    <clipPath
       clipPathUnits="userSpaceOnUse"
       id="clipPath14">
      <path
         d="M 0,3 V 214 H 367 V 3 Z"
         id="path14" />
    </clipPath>
    <clipPath
       clipPathUnits="userSpaceOnUse"
       id="clipPath16">
      <path
         d="M 0,3 V 214 H 367 V 3 Z"
         id="path16" />
    </clipPath>
    <clipPath
       clipPathUnits="userSpaceOnUse"
       id="clipPath18">
      <path
         d="M 0,3 V 214 H 367 V 3 Z"
         id="path18" />
    </clipPath>
    <clipPath
       clipPathUnits="userSpaceOnUse"
       id="clipPath20">
      <path
         d="M 0,3 V 214 H 367 V 3 Z"
         id="path20" />
    </clipPath>
    <clipPath
       clipPathUnits="userSpaceOnUse"
       id="clipPath22">
      <path
         d="M 0,3 V 214 H 367 V 3 Z"
         id="path22" />
    </clipPath>
    <clipPath
       clipPathUnits="userSpaceOnUse"
       id="clipPath24">
      <path
         d="M 0,3 V 214 H 367 V 3 Z"
         id="path24" />
    </clipPath>
    <clipPath
       clipPathUnits="userSpaceOnUse"
       id="clipPath26">
      <path
         d="M 0,3 V 214 H 367 V 3 Z"
         id="path26" />
    </clipPath>
    <clipPath
       clipPathUnits="userSpaceOnUse"
       id="clipPath28">
      <path
         d="M 0,3 V 214 H 367 V 3 Z"
         id="path28" />
    </clipPath>
    <clipPath
       clipPathUnits="userSpaceOnUse"
       id="clipPath30">
      <path
         d="M 0,3 V 214 H 367 V 3 Z"
         id="path30" />
    </clipPath>
    <clipPath
       clipPathUnits="userSpaceOnUse"
       id="clipPath32">
      <path
         d="M 0,3 V 214 H 367 V 3 Z"
         id="path32" />
    </clipPath>
    <clipPath
       clipPathUnits="userSpaceOnUse"
       id="clipPath34">
      <path
         d="M 0,3 V 214 H 367 V 3 Z"
         id="path34" />
    </clipPath>
    <clipPath
       clipPathUnits="userSpaceOnUse"
       id="clipPath36">
      <path
         d="M 0,3 V 214 H 367 V 3 Z"
         id="path36" />
    </clipPath>
    <clipPath
       clipPathUnits="userSpaceOnUse"
       id="clipPath38">
      <path
         d="M 0,3 V 214 H 367 V 3 Z"
         id="path38" />
    </clipPath>
    <clipPath
       clipPathUnits="userSpaceOnUse"
       id="clipPath40">
      <path
         d="M 0,3 V 214 H 367 V 3 Z"
         id="path40" />
    </clipPath>
    <clipPath
       clipPathUnits="userSpaceOnUse"
       id="clipPath42">
      <path
         d="M 0,3 V 214 H 367 V 3 Z"
         id="path42" />
    </clipPath>
  </defs>
  <sodipodi:namedview
     id="namedview1"
     pagecolor="#505050"
     bordercolor="#eeeeee"
     borderopacity="1"
     inkscape:showpageshadow="0"
     inkscape:pageopacity="0"
     inkscape:pagecheckerboard="0"
     inkscape:deskcolor="#d1d1d1">
    <inkscape:page
       x="0"
       y="0"
       inkscape:label="1"
       id="page1"
       width="48.986668"
       height="28.533333"
       margin="0"
       bleed="0" />
  </sodipodi:namedview>
  <g
     id="g1"
     inkscape:groupmode="layer"
     inkscape:label="1">
    <path
       id="path1"
       d="m 4.82813,4 h 330.742 V 182.133 H 4.82813 Z"
       style="fill:#087fbf;fill-opacity:1;fill-rule:nonzero;stroke:none"
       transform="matrix(0.13333333,0,0,-0.13333333,0,28.533333)"
       clip-path="url(#clipPath2)" />
    <path
       id="path3"
       d="M 335.57,4 V 182.133 H 4.82813 L 4.82813,4 Z"
       style="fill:none;stroke:#ffffff;stroke-width:4;stroke-linecap:butt;stroke-linejoin:miter;stroke-miterlimit:4;stroke-dasharray:none;stroke-opacity:1"
       transform="matrix(0.13333333,0,0,-0.13333333,0,28.533333)"
       clip-path="url(#clipPath4)" />
    <path
       id="path5"
       d="m 4.82813,4 h 330.742 V 182.133 H 4.82813 Z"
       style="fill:#087fbf;fill-opacity:1;fill-rule:nonzero;stroke:none"
       transform="matrix(0.13333333,0,0,-0.13333333,0,28.533333)"
       clip-path="url(#clipPath6)" />
    <path
       id="path7"
       d="M 335.57,4 V 182.133 H 4.82813 L 4.82813,4 H 335.57"
       style="fill:none;stroke:#ffffff;stroke-width:4;stroke-linecap:butt;stroke-linejoin:miter;stroke-miterlimit:4;stroke-dasharray:none;stroke-opacity:1"
       transform="matrix(0.13333333,0,0,-0.13333333,0,28.533333)"
       clip-path="url(#clipPath8)" />
    <path
       id="path9"
       d="M 4.82813,182.133 31.8203,209.137 H 362.563 L 335.57,182.133 H 4.82813"
       style="fill:#087fbf;fill-opacity:1;fill-rule:nonzero;stroke:none"
       transform="matrix(0.13333333,0,0,-0.13333333,0,28.533333)"
       clip-path="url(#clipPath10)" />
    <path
       id="path11"
       d="M 4.82813,182.133 31.8203,209.137 H 362.563 L 335.57,182.133 Z"
       style="fill:none;stroke:#ffffff;stroke-width:4;stroke-linecap:butt;stroke-linejoin:miter;stroke-miterlimit:4;stroke-dasharray:none;stroke-opacity:1"
       transform="matrix(0.13333333,0,0,-0.13333333,0,28.533333)"
       clip-path="url(#clipPath12)" />
    <path
       id="path13"
       d="M 4.82813,182.133 31.8203,209.137 H 362.563 L 335.57,182.133 H 4.82813"
       style="fill:#087fbf;fill-opacity:1;fill-rule:nonzero;stroke:#ffffff;stroke-width:4;stroke-linecap:butt;stroke-linejoin:miter;stroke-miterlimit:4;stroke-dasharray:none;stroke-opacity:1"
       transform="matrix(0.13333333,0,0,-0.13333333,0,28.533333)"
       clip-path="url(#clipPath14)" />
    <path
       id="path15"
       d="m 335.57,4 26.993,20.2422 V 209.137 L 335.57,182.133 V 4"
       style="fill:#087fbf;fill-opacity:1;fill-rule:nonzero;stroke:#ffffff;stroke-width:4;stroke-linecap:butt;stroke-linejoin:miter;stroke-miterlimit:4;stroke-dasharray:none;stroke-opacity:1"
       transform="matrix(0.13333333,0,0,-0.13333333,0,28.533333)"
       clip-path="url(#clipPath16)" />
    <path
       id="path17"
       d="m 335.57,4 26.993,20.2422 V 209.137 L 335.57,182.133 V 4"
       style="fill:#087fbf;fill-opacity:1;fill-rule:nonzero;stroke:#ffffff;stroke-width:4;stroke-linecap:butt;stroke-linejoin:miter;stroke-miterlimit:4;stroke-dasharray:none;stroke-opacity:1"
       transform="matrix(0.13333333,0,0,-0.13333333,0,28.533333)"
       clip-path="url(#clipPath18)" />
    <path
       id="path19"
       d="M 31.8203,121.391 V 60.6289 l 6.7383,-6.7383 h 60.7617 l 6.7387,6.7383 v 60.7621 l -6.7387,6.738 H 38.5586 l -6.7383,-6.738"
       style="fill:#087fbf;fill-opacity:1;fill-rule:evenodd;stroke:none"
       transform="matrix(0.13333333,0,0,-0.13333333,0,28.533333)"
       clip-path="url(#clipPath20)" />
    <path
       id="path21"
       d="M 31.8203,121.391 V 60.6289 l 6.7383,-6.7383 h 60.7617 l 6.7387,6.7383 v 60.7621 l -6.7387,6.738 H 38.5586 Z"
       style="fill:none;stroke:#ffffff;stroke-width:4;stroke-linecap:butt;stroke-linejoin:miter;stroke-miterlimit:4;stroke-dasharray:none;stroke-opacity:1"
       transform="matrix(0.13333333,0,0,-0.13333333,0,28.533333)"
       clip-path="url(#clipPath22)" />
    <path
       id="path23"
       d="M 31.8203,121.391 V 60.6289 l 6.7383,-6.7383 h 60.7617 l 6.7387,6.7383 v 60.7621 l -6.7387,6.738 H 38.5586 l -6.7383,-6.738"
       style="fill:#087fbf;fill-opacity:1;fill-rule:nonzero;stroke:#ffffff;stroke-width:4;stroke-linecap:butt;stroke-linejoin:miter;stroke-miterlimit:4;stroke-dasharray:none;stroke-opacity:1"
       transform="matrix(0.13333333,0,0,-0.13333333,0,28.533333)"
       clip-path="url(#clipPath24)" />
    <path
       id="path25"
       d="m 31.8203,121.391 6.7383,-6.758 33.75,-6.746 27.0117,6.746 6.7387,6.758"
       style="fill:#087fbf;fill-opacity:1;fill-rule:nonzero;stroke:#ffffff;stroke-width:4;stroke-linecap:butt;stroke-linejoin:miter;stroke-miterlimit:4;stroke-dasharray:none;stroke-opacity:1"
       transform="matrix(0.13333333,0,0,-0.13333333,0,28.533333)"
       clip-path="url(#clipPath26)" />
    <path
       id="path27"
       d="M 133.066,121.391 V 60.6289 l 6.739,-6.7383 h 60.765 l 6.739,6.7383 v 60.7621 l -6.739,6.738 h -60.765 l -6.739,-6.738"
       style="fill:#087fbf;fill-opacity:1;fill-rule:evenodd;stroke:none"
       transform="matrix(0.13333333,0,0,-0.13333333,0,28.533333)"
       clip-path="url(#clipPath28)" />
    <path
       id="path29"
       d="M 133.066,121.391 V 60.6289 l 6.739,-6.7383 h 60.765 l 6.739,6.7383 v 60.7621 l -6.739,6.738 h -60.765 z"
       style="fill:none;stroke:#ffffff;stroke-width:4;stroke-linecap:butt;stroke-linejoin:miter;stroke-miterlimit:4;stroke-dasharray:none;stroke-opacity:1"
       transform="matrix(0.13333333,0,0,-0.13333333,0,28.533333)"
       clip-path="url(#clipPath30)" />
    <path
       id="path31"
       d="M 133.066,121.391 V 60.6289 l 6.739,-6.7383 h 60.765 l 6.739,6.7383 v 60.7621 l -6.739,6.738 h -60.765 l -6.739,-6.738"
       style="fill:#087fbf;fill-opacity:1;fill-rule:nonzero;stroke:#ffffff;stroke-width:4;stroke-linecap:butt;stroke-linejoin:miter;stroke-miterlimit:4;stroke-dasharray:none;stroke-opacity:1"
       transform="matrix(0.13333333,0,0,-0.13333333,0,28.533333)"
       clip-path="url(#clipPath32)" />
    <path
       id="path33"
       d="m 133.066,121.391 6.739,-6.758 33.758,-6.746 27.007,6.746 6.739,6.758"
       style="fill:#087fbf;fill-opacity:1;fill-rule:nonzero;stroke:#ffffff;stroke-width:4;stroke-linecap:butt;stroke-linejoin:miter;stroke-miterlimit:4;stroke-dasharray:none;stroke-opacity:1"
       transform="matrix(0.13333333,0,0,-0.13333333,0,28.533333)"
       clip-path="url(#clipPath34)" />
    <path
       id="path35"
       d="M 234.32,114.633 V 60.6289 l 6.739,-6.7383 33.75,-6.7578 27.011,6.7578 6.739,6.7383 v 54.0041 l -6.739,6.758 -27.011,6.738 -33.75,-6.738 -6.739,-6.758"
       style="fill:#087fbf;fill-opacity:1;fill-rule:evenodd;stroke:none"
       transform="matrix(0.13333333,0,0,-0.13333333,0,28.533333)"
       clip-path="url(#clipPath36)" />
    <path
       id="path37"
       d="M 234.32,114.633 V 60.6289 l 6.739,-6.7383 33.75,-6.7578 27.011,6.7578 6.739,6.7383 v 54.0041 l -6.739,6.758 -27.011,6.738 -33.75,-6.738 z"
       style="fill:none;stroke:#ffffff;stroke-width:4;stroke-linecap:butt;stroke-linejoin:miter;stroke-miterlimit:4;stroke-dasharray:none;stroke-opacity:1"
       transform="matrix(0.13333333,0,0,-0.13333333,0,28.533333)"
       clip-path="url(#clipPath38)" />
    <path
       id="path39"
       d="M 234.32,114.633 V 60.6289 l 6.739,-6.7383 33.75,-6.7578 27.011,6.7578 6.739,6.7383 v 54.0041 l -6.739,6.758 -27.011,6.738 -33.75,-6.738 -6.739,-6.758"
       style="fill:#087fbf;fill-opacity:1;fill-rule:nonzero;stroke:#ffffff;stroke-width:4;stroke-linecap:butt;stroke-linejoin:miter;stroke-miterlimit:4;stroke-dasharray:none;stroke-opacity:1"
       transform="matrix(0.13333333,0,0,-0.13333333,0,28.533333)"
       clip-path="url(#clipPath40)" />
    <path
       id="path41"
       d="m 234.32,114.633 6.739,-6.746 h 60.761 l 6.739,6.746"
       style="fill:#087fbf;fill-opacity:1;fill-rule:nonzero;stroke:#ffffff;stroke-width:4;stroke-linecap:butt;stroke-linejoin:miter;stroke-miterlimit:4;stroke-dasharray:none;stroke-opacity:1"
       transform="matrix(0.13333333,0,0,-0.13333333,0,28.533333)"
       clip-path="url(#clipPath42)" />
  </g>
</svg>
