<?xml version="1.0" encoding="UTF-8" standalone="no"?>
<!-- Created with Inkscape (http://www.inkscape.org/) -->

<svg
   version="1.1"
   id="svg1"
   width="28.52"
   height="40.68"
   viewBox="0 0 28.52 40.68"
   sodipodi:docname="fibre channel disk subsystem.eps"
   xmlns:inkscape="http://www.inkscape.org/namespaces/inkscape"
   xmlns:sodipodi="http://sodipodi.sourceforge.net/DTD/sodipodi-0.dtd"
   xmlns="http://www.w3.org/2000/svg"
   xmlns:svg="http://www.w3.org/2000/svg">
  <defs
     id="defs1">
    <clipPath
       clipPathUnits="userSpaceOnUse"
       id="clipPath2">
      <path
         d="M 0,305 H 210 V 0 H 0 Z"
         id="path2" />
    </clipPath>
    <clipPath
       clipPathUnits="userSpaceOnUse"
       id="clipPath4">
      <path
         d="M 0,305 H 210 V 0 H 0 Z"
         id="path4" />
    </clipPath>
    <clipPath
       clipPathUnits="userSpaceOnUse"
       id="clipPath6">
      <path
         d="M 0,305 H 210 V 0 H 0 Z"
         id="path6" />
    </clipPath>
    <clipPath
       clipPathUnits="userSpaceOnUse"
       id="clipPath8">
      <path
         d="M 0,305 H 210 V 0 H 0 Z"
         id="path8" />
    </clipPath>
    <clipPath
       clipPathUnits="userSpaceOnUse"
       id="clipPath10">
      <path
         d="M 0,305 H 210 V 0 H 0 Z"
         id="path10" />
    </clipPath>
    <clipPath
       clipPathUnits="userSpaceOnUse"
       id="clipPath12">
      <path
         d="M 0,305 H 210 V 0 H 0 Z"
         id="path12" />
    </clipPath>
    <clipPath
       clipPathUnits="userSpaceOnUse"
       id="clipPath14">
      <path
         d="M 0,305 H 210 V 0 H 0 Z"
         id="path14" />
    </clipPath>
    <clipPath
       clipPathUnits="userSpaceOnUse"
       id="clipPath16">
      <path
         d="M 0,305 H 210 V 0 H 0 Z"
         id="path16" />
    </clipPath>
    <clipPath
       clipPathUnits="userSpaceOnUse"
       id="clipPath18">
      <path
         d="M 0,305 H 210 V 0 H 0 Z"
         id="path18" />
    </clipPath>
    <clipPath
       clipPathUnits="userSpaceOnUse"
       id="clipPath20">
      <path
         d="M 0,305 H 210 V 0 H 0 Z"
         id="path20" />
    </clipPath>
    <clipPath
       clipPathUnits="userSpaceOnUse"
       id="clipPath22">
      <path
         d="M 0,305 H 210 V 0 H 0 Z"
         id="path22" />
    </clipPath>
    <clipPath
       clipPathUnits="userSpaceOnUse"
       id="clipPath24">
      <path
         d="M 0,305 H 210 V 0 H 0 Z"
         id="path24" />
    </clipPath>
    <clipPath
       clipPathUnits="userSpaceOnUse"
       id="clipPath26">
      <path
         d="M 0,305 H 210 V 0 H 0 Z"
         id="path26" />
    </clipPath>
    <clipPath
       clipPathUnits="userSpaceOnUse"
       id="clipPath28">
      <path
         d="M 0,305 H 210 V 0 H 0 Z"
         id="path28" />
    </clipPath>
    <clipPath
       clipPathUnits="userSpaceOnUse"
       id="clipPath30">
      <path
         d="M 0,305 H 210 V 0 H 0 Z"
         id="path30" />
    </clipPath>
    <clipPath
       clipPathUnits="userSpaceOnUse"
       id="clipPath32">
      <path
         d="M 0,305 H 210 V 0 H 0 Z"
         id="path32" />
    </clipPath>
    <clipPath
       clipPathUnits="userSpaceOnUse"
       id="clipPath34">
      <path
         d="M 0,305 H 210 V 0 H 0 Z"
         id="path34" />
    </clipPath>
    <clipPath
       clipPathUnits="userSpaceOnUse"
       id="clipPath36">
      <path
         d="M 0,305 H 210 V 0 H 0 Z"
         id="path36" />
    </clipPath>
    <clipPath
       clipPathUnits="userSpaceOnUse"
       id="clipPath38">
      <path
         d="M 0,305 H 210 V 0 H 0 Z"
         id="path38" />
    </clipPath>
    <clipPath
       clipPathUnits="userSpaceOnUse"
       id="clipPath40">
      <path
         d="M 0,305 H 210 V 0 H 0 Z"
         id="path40" />
    </clipPath>
    <clipPath
       clipPathUnits="userSpaceOnUse"
       id="clipPath42">
      <path
         d="M 0,305 H 210 V 0 H 0 Z"
         id="path42" />
    </clipPath>
    <clipPath
       clipPathUnits="userSpaceOnUse"
       id="clipPath44">
      <path
         d="M 0,305 H 210 V 0 H 0 Z"
         id="path44" />
    </clipPath>
    <clipPath
       clipPathUnits="userSpaceOnUse"
       id="clipPath46">
      <path
         d="M 0,305 H 210 V 0 H 0 Z"
         id="path46" />
    </clipPath>
    <clipPath
       clipPathUnits="userSpaceOnUse"
       id="clipPath48">
      <path
         d="M 0,305 H 210 V 0 H 0 Z"
         id="path48" />
    </clipPath>
    <clipPath
       clipPathUnits="userSpaceOnUse"
       id="clipPath50">
      <path
         d="M 0,305 H 210 V 0 H 0 Z"
         id="path50" />
    </clipPath>
    <clipPath
       clipPathUnits="userSpaceOnUse"
       id="clipPath52">
      <path
         d="M 0,305 H 210 V 0 H 0 Z"
         id="path52" />
    </clipPath>
    <clipPath
       clipPathUnits="userSpaceOnUse"
       id="clipPath54">
      <path
         d="M 0,305 H 210 V 0 H 0 Z"
         id="path54" />
    </clipPath>
    <clipPath
       clipPathUnits="userSpaceOnUse"
       id="clipPath56">
      <path
         d="M 0,305 H 210 V 0 H 0 Z"
         id="path56" />
    </clipPath>
    <clipPath
       clipPathUnits="userSpaceOnUse"
       id="clipPath58">
      <path
         d="M 0,305 H 210 V 0 H 0 Z"
         id="path58" />
    </clipPath>
    <clipPath
       clipPathUnits="userSpaceOnUse"
       id="clipPath60">
      <path
         d="M 0,305 H 210 V 0 H 0 Z"
         id="path60" />
    </clipPath>
    <clipPath
       clipPathUnits="userSpaceOnUse"
       id="clipPath62">
      <path
         d="M 0,305 H 210 V 0 H 0 Z"
         id="path62" />
    </clipPath>
    <clipPath
       clipPathUnits="userSpaceOnUse"
       id="clipPath64">
      <path
         d="M 0,305 H 210 V 0 H 0 Z"
         id="path64" />
    </clipPath>
    <clipPath
       clipPathUnits="userSpaceOnUse"
       id="clipPath66">
      <path
         d="M 0,305 H 210 V 0 H 0 Z"
         id="path66" />
    </clipPath>
    <clipPath
       clipPathUnits="userSpaceOnUse"
       id="clipPath68">
      <path
         d="M 0,305 H 210 V 0 H 0 Z"
         id="path68" />
    </clipPath>
    <clipPath
       clipPathUnits="userSpaceOnUse"
       id="clipPath70">
      <path
         d="M 0,305 H 210 V 0 H 0 Z"
         id="path70" />
    </clipPath>
    <clipPath
       clipPathUnits="userSpaceOnUse"
       id="clipPath72">
      <path
         d="M 0,305 H 210 V 0 H 0 Z"
         id="path72" />
    </clipPath>
    <clipPath
       clipPathUnits="userSpaceOnUse"
       id="clipPath74">
      <path
         d="M 0,305 H 210 V 0 H 0 Z"
         id="path74" />
    </clipPath>
    <clipPath
       clipPathUnits="userSpaceOnUse"
       id="clipPath76">
      <path
         d="M 0,305 H 210 V 0 H 0 Z"
         id="path76" />
    </clipPath>
    <clipPath
       clipPathUnits="userSpaceOnUse"
       id="clipPath78">
      <path
         d="M 0,305 H 210 V 0 H 0 Z"
         id="path78" />
    </clipPath>
    <clipPath
       clipPathUnits="userSpaceOnUse"
       id="clipPath80">
      <path
         d="M 0,305 H 210 V 0 H 0 Z"
         id="path80" />
    </clipPath>
    <clipPath
       clipPathUnits="userSpaceOnUse"
       id="clipPath82">
      <path
         d="M 0,305 H 210 V 0 H 0 Z"
         id="path82" />
    </clipPath>
    <clipPath
       clipPathUnits="userSpaceOnUse"
       id="clipPath84">
      <path
         d="M 0,305 H 210 V 0 H 0 Z"
         id="path84" />
    </clipPath>
    <clipPath
       clipPathUnits="userSpaceOnUse"
       id="clipPath86">
      <path
         d="M 0,305 H 210 V 0 H 0 Z"
         id="path86" />
    </clipPath>
    <clipPath
       clipPathUnits="userSpaceOnUse"
       id="clipPath88">
      <path
         d="M 0,305 H 210 V 0 H 0 Z"
         id="path88" />
    </clipPath>
    <clipPath
       clipPathUnits="userSpaceOnUse"
       id="clipPath90">
      <path
         d="M 0,305 H 210 V 0 H 0 Z"
         id="path90" />
    </clipPath>
    <clipPath
       clipPathUnits="userSpaceOnUse"
       id="clipPath92">
      <path
         d="M 0,305 H 210 V 0 H 0 Z"
         id="path92" />
    </clipPath>
    <clipPath
       clipPathUnits="userSpaceOnUse"
       id="clipPath94">
      <path
         d="M 0,305 H 210 V 0 H 0 Z"
         id="path94" />
    </clipPath>
    <clipPath
       clipPathUnits="userSpaceOnUse"
       id="clipPath96">
      <path
         d="M 0,305 H 210 V 0 H 0 Z"
         id="path96" />
    </clipPath>
    <clipPath
       clipPathUnits="userSpaceOnUse"
       id="clipPath98">
      <path
         d="M 0,305 H 210 V 0 H 0 Z"
         id="path98" />
    </clipPath>
    <clipPath
       clipPathUnits="userSpaceOnUse"
       id="clipPath100">
      <path
         d="M 0,305 H 210 V 0 H 0 Z"
         id="path100" />
    </clipPath>
    <clipPath
       clipPathUnits="userSpaceOnUse"
       id="clipPath102">
      <path
         d="M 0,305 H 210 V 0 H 0 Z"
         id="path102" />
    </clipPath>
    <clipPath
       clipPathUnits="userSpaceOnUse"
       id="clipPath104">
      <path
         d="M 0,305 H 210 V 0 H 0 Z"
         id="path104" />
    </clipPath>
    <clipPath
       clipPathUnits="userSpaceOnUse"
       id="clipPath106">
      <path
         d="M 0,305 H 210 V 0 H 0 Z"
         id="path106" />
    </clipPath>
    <clipPath
       clipPathUnits="userSpaceOnUse"
       id="clipPath108">
      <path
         d="M 0,305 H 210 V 0 H 0 Z"
         id="path108" />
    </clipPath>
    <clipPath
       clipPathUnits="userSpaceOnUse"
       id="clipPath110">
      <path
         d="M 0,305 H 210 V 0 H 0 Z"
         id="path110" />
    </clipPath>
    <clipPath
       clipPathUnits="userSpaceOnUse"
       id="clipPath112">
      <path
         d="M 0,305 H 210 V 0 H 0 Z"
         id="path112" />
    </clipPath>
    <clipPath
       clipPathUnits="userSpaceOnUse"
       id="clipPath114">
      <path
         d="M 0,305 H 210 V 0 H 0 Z"
         id="path114" />
    </clipPath>
    <clipPath
       clipPathUnits="userSpaceOnUse"
       id="clipPath116">
      <path
         d="M 0,305 H 210 V 0 H 0 Z"
         id="path116" />
    </clipPath>
    <clipPath
       clipPathUnits="userSpaceOnUse"
       id="clipPath118">
      <path
         d="M 0,305 H 210 V 0 H 0 Z"
         id="path118" />
    </clipPath>
    <clipPath
       clipPathUnits="userSpaceOnUse"
       id="clipPath120">
      <path
         d="M 0,305 H 210 V 0 H 0 Z"
         id="path120" />
    </clipPath>
    <clipPath
       clipPathUnits="userSpaceOnUse"
       id="clipPath122">
      <path
         d="M 0,305 H 210 V 0 H 0 Z"
         id="path122" />
    </clipPath>
    <clipPath
       clipPathUnits="userSpaceOnUse"
       id="clipPath124">
      <path
         d="M 0,305 H 210 V 0 H 0 Z"
         id="path124" />
    </clipPath>
    <clipPath
       clipPathUnits="userSpaceOnUse"
       id="clipPath126">
      <path
         d="M 0,305 H 210 V 0 H 0 Z"
         id="path126" />
    </clipPath>
    <clipPath
       clipPathUnits="userSpaceOnUse"
       id="clipPath128">
      <path
         d="M 0,305 H 210 V 0 H 0 Z"
         id="path128" />
    </clipPath>
    <clipPath
       clipPathUnits="userSpaceOnUse"
       id="clipPath130">
      <path
         d="M 0,305 H 210 V 0 H 0 Z"
         id="path130" />
    </clipPath>
    <clipPath
       clipPathUnits="userSpaceOnUse"
       id="clipPath132">
      <path
         d="M 0,305 H 210 V 0 H 0 Z"
         id="path132" />
    </clipPath>
    <clipPath
       clipPathUnits="userSpaceOnUse"
       id="clipPath134">
      <path
         d="M 0,305 H 210 V 0 H 0 Z"
         id="path134" />
    </clipPath>
    <clipPath
       clipPathUnits="userSpaceOnUse"
       id="clipPath136">
      <path
         d="M 0,305 H 210 V 0 H 0 Z"
         id="path136" />
    </clipPath>
    <clipPath
       clipPathUnits="userSpaceOnUse"
       id="clipPath138">
      <path
         d="M 0,305 H 210 V 0 H 0 Z"
         id="path138" />
    </clipPath>
    <clipPath
       clipPathUnits="userSpaceOnUse"
       id="clipPath140">
      <path
         d="M 0,305 H 210 V 0 H 0 Z"
         id="path140" />
    </clipPath>
    <clipPath
       clipPathUnits="userSpaceOnUse"
       id="clipPath142">
      <path
         d="M 0,305 H 210 V 0 H 0 Z"
         id="path142" />
    </clipPath>
    <clipPath
       clipPathUnits="userSpaceOnUse"
       id="clipPath144">
      <path
         d="M 0,305 H 210 V 0 H 0 Z"
         id="path144" />
    </clipPath>
    <clipPath
       clipPathUnits="userSpaceOnUse"
       id="clipPath146">
      <path
         d="M 0,305 H 210 V 0 H 0 Z"
         id="path146" />
    </clipPath>
    <clipPath
       clipPathUnits="userSpaceOnUse"
       id="clipPath148">
      <path
         d="M 0,305 H 210 V 0 H 0 Z"
         id="path148" />
    </clipPath>
    <clipPath
       clipPathUnits="userSpaceOnUse"
       id="clipPath150">
      <path
         d="M 0,305 H 210 V 0 H 0 Z"
         id="path150" />
    </clipPath>
    <clipPath
       clipPathUnits="userSpaceOnUse"
       id="clipPath152">
      <path
         d="M 0,305 H 210 V 0 H 0 Z"
         id="path152" />
    </clipPath>
    <clipPath
       clipPathUnits="userSpaceOnUse"
       id="clipPath154">
      <path
         d="M 0,305 H 210 V 0 H 0 Z"
         id="path154" />
    </clipPath>
  </defs>
  <sodipodi:namedview
     id="namedview1"
     pagecolor="#505050"
     bordercolor="#eeeeee"
     borderopacity="1"
     inkscape:showpageshadow="0"
     inkscape:pageopacity="0"
     inkscape:pagecheckerboard="0"
     inkscape:deskcolor="#d1d1d1">
    <inkscape:page
       x="0"
       y="0"
       inkscape:label="1"
       id="page1"
       width="28.52"
       height="40.68"
       margin="0"
       bleed="0" />
  </sodipodi:namedview>
  <g
     id="g1"
     inkscape:groupmode="layer"
     inkscape:label="1">
    <path
       id="path1"
       d="m 6.83203,6.82422 h 153.875 v 245.121 H 6.83203 Z"
       style="fill:#087fbf;fill-opacity:1;fill-rule:nonzero;stroke:none"
       transform="matrix(0.13333333,0,0,-0.13333333,0,40.68)"
       clip-path="url(#clipPath2)" />
    <path
       id="path3"
       d="M 160.707,6.82422 209.859,55.9688 V 301.086 H 55.9727 L 6.83203,251.945 H 160.707 V 6.82422"
       style="fill:#087fbf;fill-opacity:1;fill-rule:nonzero;stroke:none"
       transform="matrix(0.13333333,0,0,-0.13333333,0,40.68)"
       clip-path="url(#clipPath4)" />
    <path
       id="path5"
       d="m 160.707,251.945 49.152,49.141"
       style="fill:#087fbf;fill-opacity:1;fill-rule:nonzero;stroke:none"
       transform="matrix(0.13333333,0,0,-0.13333333,0,40.68)"
       clip-path="url(#clipPath6)" />
    <path
       id="path7"
       d="m 6.83203,6.82422 h 153.875 v 245.121 H 6.83203 Z"
       style="fill:#087fbf;fill-opacity:1;fill-rule:nonzero;stroke:none"
       transform="matrix(0.13333333,0,0,-0.13333333,0,40.68)"
       clip-path="url(#clipPath8)" />
    <path
       id="path9"
       d="M 160.707,251.945 H 6.83203 V 6.82422 H 160.707"
       style="fill:none;stroke:#ffffff;stroke-width:4;stroke-linecap:butt;stroke-linejoin:miter;stroke-miterlimit:4;stroke-dasharray:none;stroke-opacity:1"
       transform="matrix(0.13333333,0,0,-0.13333333,0,40.68)"
       clip-path="url(#clipPath10)" />
    <path
       id="path11"
       d="M 160.707,6.82422 209.859,55.9688 V 301.086 H 55.9727 L 6.83203,251.945 H 160.707 V 6.82422"
       style="fill:#087fbf;fill-opacity:1;fill-rule:nonzero;stroke:none"
       transform="matrix(0.13333333,0,0,-0.13333333,0,40.68)"
       clip-path="url(#clipPath12)" />
    <path
       id="path13"
       d="M 160.707,6.82422 209.859,55.9688 V 301.086 H 55.9727 L 6.83203,251.945 H 160.707 Z"
       style="fill:none;stroke:#ffffff;stroke-width:4;stroke-linecap:butt;stroke-linejoin:miter;stroke-miterlimit:4;stroke-dasharray:none;stroke-opacity:1"
       transform="matrix(0.13333333,0,0,-0.13333333,0,40.68)"
       clip-path="url(#clipPath14)" />
    <path
       id="path15"
       d="m 160.707,251.945 49.152,49.141"
       style="fill:#231f20;fill-opacity:1;fill-rule:nonzero;stroke:#ffffff;stroke-width:4;stroke-linecap:round;stroke-linejoin:round;stroke-miterlimit:4;stroke-dasharray:none;stroke-opacity:1"
       transform="matrix(0.13333333,0,0,-0.13333333,0,40.68)"
       clip-path="url(#clipPath16)" />
    <path
       id="path17"
       d="M 160.707,251.945 H 6.83203 V 6.82422 H 160.707"
       style="fill:none;stroke:#ffffff;stroke-width:4;stroke-linecap:butt;stroke-linejoin:miter;stroke-miterlimit:4;stroke-dasharray:none;stroke-opacity:1"
       transform="matrix(0.13333333,0,0,-0.13333333,0,40.68)"
       clip-path="url(#clipPath18)" />
    <path
       id="path19"
       d="M 160.707,6.82422 209.859,55.9688 V 301.086 H 55.9727 L 6.83203,251.945 H 160.707 Z"
       style="fill:none;stroke:#ffffff;stroke-width:4;stroke-linecap:butt;stroke-linejoin:miter;stroke-miterlimit:4;stroke-dasharray:none;stroke-opacity:1"
       transform="matrix(0.13333333,0,0,-0.13333333,0,40.68)"
       clip-path="url(#clipPath20)" />
    <path
       id="path21"
       d="m 160.707,251.945 49.152,49.141"
       style="fill:none;stroke:#ffffff;stroke-width:4;stroke-linecap:butt;stroke-linejoin:miter;stroke-miterlimit:4;stroke-dasharray:none;stroke-opacity:1"
       transform="matrix(0.13333333,0,0,-0.13333333,0,40.68)"
       clip-path="url(#clipPath22)" />
    <path
       id="path23"
       d="m 79.8281,66.0664 c 0,-6.0781 -13.0547,-11 -29.1601,-11 -16.1133,0 -29.1797,4.9219 -29.1797,11 0,6.0742 13.0664,10.9961 29.1797,10.9961 16.1054,0 29.1601,-4.9219 29.1601,-10.9961"
       style="fill:#ffffff;fill-opacity:1;fill-rule:nonzero;stroke:none"
       transform="matrix(0.13333333,0,0,-0.13333333,0,40.68)"
       clip-path="url(#clipPath24)" />
    <path
       id="path25"
       d="m 79.8281,66.0664 c 0,-6.0781 -13.0547,-11 -29.1601,-11 -16.1133,0 -29.1797,4.9219 -29.1797,11 0,6.0742 13.0664,10.9961 29.1797,10.9961 16.1054,0 29.1601,-4.9219 29.1601,-10.9961 z"
       style="fill:none;stroke:#231f20;stroke-width:3.5;stroke-linecap:round;stroke-linejoin:round;stroke-miterlimit:4;stroke-dasharray:none;stroke-opacity:1"
       transform="matrix(0.13333333,0,0,-0.13333333,0,40.68)"
       clip-path="url(#clipPath26)" />
    <path
       id="path27"
       d="m 59.2813,66.6484 c 0,-1.8125 -3.9258,-3.2812 -8.75,-3.2812 -4.8438,0 -8.75,1.4687 -8.75,3.2812 0,1.836 3.9062,3.3243 8.75,3.3243 4.8242,0 8.75,-1.4883 8.75,-3.3243"
       style="fill:#231f20;fill-opacity:1;fill-rule:nonzero;stroke:none"
       transform="matrix(0.13333333,0,0,-0.13333333,0,40.68)"
       clip-path="url(#clipPath28)" />
    <path
       id="path29"
       d="m 59.2813,72.6641 c 0,-1.8125 -3.9258,-3.3008 -8.75,-3.3008 -4.8438,0 -8.75,1.4883 -8.75,3.3008 0,1.8203 3.9062,3.3047 8.75,3.3047 4.8242,0 8.75,-1.4844 8.75,-3.3047"
       style="fill:#231f20;fill-opacity:1;fill-rule:nonzero;stroke:none"
       transform="matrix(0.13333333,0,0,-0.13333333,0,40.68)"
       clip-path="url(#clipPath30)" />
    <path
       id="path31"
       d="m 79.8281,78.0586 c 0,-6.0742 -13.0547,-10.9961 -29.1601,-10.9961 -16.1133,0 -29.1797,4.9219 -29.1797,10.9961 0,6.0898 13.0664,11.0117 29.1797,11.0117 16.1054,0 29.1601,-4.9219 29.1601,-11.0117"
       style="fill:#ffffff;fill-opacity:1;fill-rule:nonzero;stroke:none"
       transform="matrix(0.13333333,0,0,-0.13333333,0,40.68)"
       clip-path="url(#clipPath32)" />
    <path
       id="path33"
       d="m 79.8281,78.0586 c 0,-6.0742 -13.0547,-10.9961 -29.1601,-10.9961 -16.1133,0 -29.1797,4.9219 -29.1797,10.9961 0,6.0898 13.0664,11.0117 29.1797,11.0117 16.1054,0 29.1601,-4.9219 29.1601,-11.0117 z"
       style="fill:none;stroke:#231f20;stroke-width:3.5;stroke-linecap:round;stroke-linejoin:round;stroke-miterlimit:4;stroke-dasharray:none;stroke-opacity:1"
       transform="matrix(0.13333333,0,0,-0.13333333,0,40.68)"
       clip-path="url(#clipPath34)" />
    <path
       id="path35"
       d="m 59.2813,78.6602 c 0,-1.8125 -3.9258,-3.3008 -8.75,-3.3008 -4.8438,0 -8.75,1.4883 -8.75,3.3008 0,1.8203 3.9062,3.3046 8.75,3.3046 4.8242,0 8.75,-1.4843 8.75,-3.3046"
       style="fill:#231f20;fill-opacity:1;fill-rule:nonzero;stroke:none"
       transform="matrix(0.13333333,0,0,-0.13333333,0,40.68)"
       clip-path="url(#clipPath36)" />
    <path
       id="path37"
       d="m 59.2813,84.6563 c 0,-1.8125 -3.9258,-3.2969 -8.75,-3.2969 -4.8438,0 -8.75,1.4844 -8.75,3.2969 0,1.8359 3.9062,3.3046 8.75,3.3046 4.8242,0 8.75,-1.4687 8.75,-3.3046"
       style="fill:#231f20;fill-opacity:1;fill-rule:nonzero;stroke:none"
       transform="matrix(0.13333333,0,0,-0.13333333,0,40.68)"
       clip-path="url(#clipPath38)" />
    <path
       id="path39"
       d="m 79.8281,90.0664 c 0,-6.0742 -13.0547,-10.9961 -29.1601,-10.9961 -16.1133,0 -29.1797,4.9219 -29.1797,10.9961 0,6.0781 13.0664,10.9996 29.1797,10.9996 16.1054,0 29.1601,-4.9215 29.1601,-10.9996"
       style="fill:#ffffff;fill-opacity:1;fill-rule:nonzero;stroke:none"
       transform="matrix(0.13333333,0,0,-0.13333333,0,40.68)"
       clip-path="url(#clipPath40)" />
    <path
       id="path41"
       d="m 79.8281,90.0664 c 0,-6.0742 -13.0547,-10.9961 -29.1601,-10.9961 -16.1133,0 -29.1797,4.9219 -29.1797,10.9961 0,6.0781 13.0664,10.9996 29.1797,10.9996 16.1054,0 29.1601,-4.9215 29.1601,-10.9996 z"
       style="fill:none;stroke:#231f20;stroke-width:3.5;stroke-linecap:round;stroke-linejoin:round;stroke-miterlimit:4;stroke-dasharray:none;stroke-opacity:1"
       transform="matrix(0.13333333,0,0,-0.13333333,0,40.68)"
       clip-path="url(#clipPath42)" />
    <path
       id="path43"
       d="m 59.2813,90.6523 c 0,-1.8125 -3.9258,-3.2812 -8.75,-3.2812 -4.8438,0 -8.75,1.4687 -8.75,3.2812 0,1.836 3.9062,3.3008 8.75,3.3008 4.8242,0 8.75,-1.4648 8.75,-3.3008"
       style="fill:#231f20;fill-opacity:1;fill-rule:nonzero;stroke:none"
       transform="matrix(0.13333333,0,0,-0.13333333,0,40.68)"
       clip-path="url(#clipPath44)" />
    <path
       id="path45"
       d="m 79.8281,114.055 c 0,-6.059 -13.0547,-10.981 -29.1601,-10.981 -16.1133,0 -29.1797,4.922 -29.1797,10.981 0,6.093 13.0664,11.011 29.1797,11.011 16.1054,0 29.1601,-4.918 29.1601,-11.011"
       style="fill:#ffffff;fill-opacity:1;fill-rule:nonzero;stroke:none"
       transform="matrix(0.13333333,0,0,-0.13333333,0,40.68)"
       clip-path="url(#clipPath46)" />
    <path
       id="path47"
       d="m 79.8281,114.055 c 0,-6.059 -13.0547,-10.981 -29.1601,-10.981 -16.1133,0 -29.1797,4.922 -29.1797,10.981 0,6.093 13.0664,11.011 29.1797,11.011 16.1054,0 29.1601,-4.918 29.1601,-11.011 z"
       style="fill:none;stroke:#231f20;stroke-width:3.5;stroke-linecap:round;stroke-linejoin:round;stroke-miterlimit:4;stroke-dasharray:none;stroke-opacity:1"
       transform="matrix(0.13333333,0,0,-0.13333333,0,40.68)"
       clip-path="url(#clipPath48)" />
    <path
       id="path49"
       d="m 59.2813,114.656 c 0,-1.812 -3.9258,-3.297 -8.75,-3.297 -4.8438,0 -8.75,1.485 -8.75,3.297 0,1.836 3.9062,3.305 8.75,3.305 4.8242,0 8.75,-1.469 8.75,-3.305"
       style="fill:#231f20;fill-opacity:1;fill-rule:nonzero;stroke:none"
       transform="matrix(0.13333333,0,0,-0.13333333,0,40.68)"
       clip-path="url(#clipPath50)" />
    <path
       id="path51"
       d="m 59.2813,120.652 c 0,-1.812 -3.9258,-3.281 -8.75,-3.281 -4.8438,0 -8.75,1.469 -8.75,3.281 0,1.836 3.9062,3.301 8.75,3.301 4.8242,0 8.75,-1.465 8.75,-3.301"
       style="fill:#231f20;fill-opacity:1;fill-rule:nonzero;stroke:none"
       transform="matrix(0.13333333,0,0,-0.13333333,0,40.68)"
       clip-path="url(#clipPath52)" />
    <path
       id="path53"
       d="m 79.8281,126.066 c 0,-6.078 -13.0547,-11 -29.1601,-11 -16.1133,0 -29.1797,4.922 -29.1797,11 0,6.075 13.0664,10.997 29.1797,10.997 16.1054,0 29.1601,-4.922 29.1601,-10.997"
       style="fill:#ffffff;fill-opacity:1;fill-rule:nonzero;stroke:none"
       transform="matrix(0.13333333,0,0,-0.13333333,0,40.68)"
       clip-path="url(#clipPath54)" />
    <path
       id="path55"
       d="m 79.8281,126.066 c 0,-6.078 -13.0547,-11 -29.1601,-11 -16.1133,0 -29.1797,4.922 -29.1797,11 0,6.075 13.0664,10.997 29.1797,10.997 16.1054,0 29.1601,-4.922 29.1601,-10.997 z"
       style="fill:none;stroke:#231f20;stroke-width:3.5;stroke-linecap:round;stroke-linejoin:round;stroke-miterlimit:4;stroke-dasharray:none;stroke-opacity:1"
       transform="matrix(0.13333333,0,0,-0.13333333,0,40.68)"
       clip-path="url(#clipPath56)" />
    <path
       id="path57"
       d="m 59.2813,126.648 c 0,-1.812 -3.9258,-3.281 -8.75,-3.281 -4.8438,0 -8.75,1.469 -8.75,3.281 0,1.836 3.9062,3.325 8.75,3.325 4.8242,0 8.75,-1.489 8.75,-3.325"
       style="fill:#231f20;fill-opacity:1;fill-rule:nonzero;stroke:none"
       transform="matrix(0.13333333,0,0,-0.13333333,0,40.68)"
       clip-path="url(#clipPath58)" />
    <path
       id="path59"
       d="m 59.2813,132.664 c 0,-1.812 -3.9258,-3.301 -8.75,-3.301 -4.8438,0 -8.75,1.489 -8.75,3.301 0,1.82 3.9062,3.305 8.75,3.305 4.8242,0 8.75,-1.485 8.75,-3.305"
       style="fill:#231f20;fill-opacity:1;fill-rule:nonzero;stroke:none"
       transform="matrix(0.13333333,0,0,-0.13333333,0,40.68)"
       clip-path="url(#clipPath60)" />
    <path
       id="path61"
       d="m 79.8281,138.059 c 0,-6.075 -13.0547,-10.996 -29.1601,-10.996 -16.1133,0 -29.1797,4.921 -29.1797,10.996 0,6.089 13.0664,11.011 29.1797,11.011 16.1054,0 29.1601,-4.922 29.1601,-11.011"
       style="fill:#ffffff;fill-opacity:1;fill-rule:nonzero;stroke:none"
       transform="matrix(0.13333333,0,0,-0.13333333,0,40.68)"
       clip-path="url(#clipPath62)" />
    <path
       id="path63"
       d="m 79.8281,138.059 c 0,-6.075 -13.0547,-10.996 -29.1601,-10.996 -16.1133,0 -29.1797,4.921 -29.1797,10.996 0,6.089 13.0664,11.011 29.1797,11.011 16.1054,0 29.1601,-4.922 29.1601,-11.011 z"
       style="fill:none;stroke:#231f20;stroke-width:3.5;stroke-linecap:round;stroke-linejoin:round;stroke-miterlimit:4;stroke-dasharray:none;stroke-opacity:1"
       transform="matrix(0.13333333,0,0,-0.13333333,0,40.68)"
       clip-path="url(#clipPath64)" />
    <path
       id="path65"
       d="m 59.2813,138.66 c 0,-1.812 -3.9258,-3.301 -8.75,-3.301 -4.8438,0 -8.75,1.489 -8.75,3.301 0,1.82 3.9062,3.305 8.75,3.305 4.8242,0 8.75,-1.485 8.75,-3.305"
       style="fill:#231f20;fill-opacity:1;fill-rule:nonzero;stroke:none"
       transform="matrix(0.13333333,0,0,-0.13333333,0,40.68)"
       clip-path="url(#clipPath66)" />
    <path
       id="path67"
       d="m 79.8281,162.063 c 0,-6.079 -13.0547,-10.997 -29.1601,-10.997 -16.1133,0 -29.1797,4.918 -29.1797,10.997 0,6.074 13.0664,10.996 29.1797,10.996 16.1054,0 29.1601,-4.922 29.1601,-10.996"
       style="fill:#ffffff;fill-opacity:1;fill-rule:nonzero;stroke:none"
       transform="matrix(0.13333333,0,0,-0.13333333,0,40.68)"
       clip-path="url(#clipPath68)" />
    <path
       id="path69"
       d="m 79.8281,162.063 c 0,-6.079 -13.0547,-10.997 -29.1601,-10.997 -16.1133,0 -29.1797,4.918 -29.1797,10.997 0,6.074 13.0664,10.996 29.1797,10.996 16.1054,0 29.1601,-4.922 29.1601,-10.996 z"
       style="fill:none;stroke:#231f20;stroke-width:3.5;stroke-linecap:round;stroke-linejoin:round;stroke-miterlimit:4;stroke-dasharray:none;stroke-opacity:1"
       transform="matrix(0.13333333,0,0,-0.13333333,0,40.68)"
       clip-path="url(#clipPath70)" />
    <path
       id="path71"
       d="m 59.2813,162.668 c 0,-1.816 -3.9258,-3.305 -8.75,-3.305 -4.8438,0 -8.75,1.489 -8.75,3.305 0,1.816 3.9062,3.301 8.75,3.301 4.8242,0 8.75,-1.485 8.75,-3.301"
       style="fill:#231f20;fill-opacity:1;fill-rule:nonzero;stroke:none"
       transform="matrix(0.13333333,0,0,-0.13333333,0,40.68)"
       clip-path="url(#clipPath72)" />
    <path
       id="path73"
       d="m 59.2813,168.66 c 0,-1.812 -3.9258,-3.301 -8.75,-3.301 -4.8438,0 -8.75,1.489 -8.75,3.301 0,1.82 3.9062,3.305 8.75,3.305 4.8242,0 8.75,-1.485 8.75,-3.305"
       style="fill:#231f20;fill-opacity:1;fill-rule:nonzero;stroke:none"
       transform="matrix(0.13333333,0,0,-0.13333333,0,40.68)"
       clip-path="url(#clipPath74)" />
    <path
       id="path75"
       d="m 79.8281,174.055 c 0,-6.059 -13.0547,-10.981 -29.1601,-10.981 -16.1133,0 -29.1797,4.922 -29.1797,10.981 0,6.093 13.0664,11.011 29.1797,11.011 16.1054,0 29.1601,-4.918 29.1601,-11.011"
       style="fill:#ffffff;fill-opacity:1;fill-rule:nonzero;stroke:none"
       transform="matrix(0.13333333,0,0,-0.13333333,0,40.68)"
       clip-path="url(#clipPath76)" />
    <path
       id="path77"
       d="m 79.8281,174.055 c 0,-6.059 -13.0547,-10.981 -29.1601,-10.981 -16.1133,0 -29.1797,4.922 -29.1797,10.981 0,6.093 13.0664,11.011 29.1797,11.011 16.1054,0 29.1601,-4.918 29.1601,-11.011 z"
       style="fill:none;stroke:#231f20;stroke-width:3.5;stroke-linecap:round;stroke-linejoin:round;stroke-miterlimit:4;stroke-dasharray:none;stroke-opacity:1"
       transform="matrix(0.13333333,0,0,-0.13333333,0,40.68)"
       clip-path="url(#clipPath78)" />
    <path
       id="path79"
       d="m 59.2813,174.656 c 0,-1.812 -3.9258,-3.297 -8.75,-3.297 -4.8438,0 -8.75,1.485 -8.75,3.297 0,1.836 3.9062,3.305 8.75,3.305 4.8242,0 8.75,-1.469 8.75,-3.305"
       style="fill:#231f20;fill-opacity:1;fill-rule:nonzero;stroke:none"
       transform="matrix(0.13333333,0,0,-0.13333333,0,40.68)"
       clip-path="url(#clipPath80)" />
    <path
       id="path81"
       d="m 59.2813,180.652 c 0,-1.812 -3.9258,-3.281 -8.75,-3.281 -4.8438,0 -8.75,1.469 -8.75,3.281 0,1.836 3.9062,3.301 8.75,3.301 4.8242,0 8.75,-1.465 8.75,-3.301"
       style="fill:#231f20;fill-opacity:1;fill-rule:nonzero;stroke:none"
       transform="matrix(0.13333333,0,0,-0.13333333,0,40.68)"
       clip-path="url(#clipPath82)" />
    <path
       id="path83"
       d="m 79.8281,186.066 c 0,-6.078 -13.0547,-11 -29.1601,-11 -16.1133,0 -29.1797,4.922 -29.1797,11 0,6.075 13.0664,10.997 29.1797,10.997 16.1054,0 29.1601,-4.922 29.1601,-10.997"
       style="fill:#ffffff;fill-opacity:1;fill-rule:nonzero;stroke:none"
       transform="matrix(0.13333333,0,0,-0.13333333,0,40.68)"
       clip-path="url(#clipPath84)" />
    <path
       id="path85"
       d="m 79.8281,186.066 c 0,-6.078 -13.0547,-11 -29.1601,-11 -16.1133,0 -29.1797,4.922 -29.1797,11 0,6.075 13.0664,10.997 29.1797,10.997 16.1054,0 29.1601,-4.922 29.1601,-10.997 z"
       style="fill:none;stroke:#231f20;stroke-width:3.5;stroke-linecap:round;stroke-linejoin:round;stroke-miterlimit:4;stroke-dasharray:none;stroke-opacity:1"
       transform="matrix(0.13333333,0,0,-0.13333333,0,40.68)"
       clip-path="url(#clipPath86)" />
    <path
       id="path87"
       d="m 59.2813,186.648 c 0,-1.812 -3.9258,-3.281 -8.75,-3.281 -4.8438,0 -8.75,1.469 -8.75,3.281 0,1.836 3.9062,3.325 8.75,3.325 4.8242,0 8.75,-1.489 8.75,-3.325"
       style="fill:#231f20;fill-opacity:1;fill-rule:nonzero;stroke:none"
       transform="matrix(0.13333333,0,0,-0.13333333,0,40.68)"
       clip-path="url(#clipPath88)" />
    <path
       id="path89"
       d="m 144.828,66.0664 c 0,-6.0781 -13.055,-11 -29.16,-11 -16.1133,0 -29.1797,4.9219 -29.1797,11 0,6.0742 13.0664,10.9961 29.1797,10.9961 16.105,0 29.16,-4.9219 29.16,-10.9961"
       style="fill:#ffffff;fill-opacity:1;fill-rule:nonzero;stroke:none"
       transform="matrix(0.13333333,0,0,-0.13333333,0,40.68)"
       clip-path="url(#clipPath90)" />
    <path
       id="path91"
       d="m 144.828,66.0664 c 0,-6.0781 -13.055,-11 -29.16,-11 -16.1133,0 -29.1797,4.9219 -29.1797,11 0,6.0742 13.0664,10.9961 29.1797,10.9961 16.105,0 29.16,-4.9219 29.16,-10.9961 z"
       style="fill:none;stroke:#231f20;stroke-width:3.5;stroke-linecap:round;stroke-linejoin:round;stroke-miterlimit:4;stroke-dasharray:none;stroke-opacity:1"
       transform="matrix(0.13333333,0,0,-0.13333333,0,40.68)"
       clip-path="url(#clipPath92)" />
    <path
       id="path93"
       d="m 124.281,66.6484 c 0,-1.8125 -3.926,-3.2812 -8.75,-3.2812 -4.843,0 -8.75,1.4687 -8.75,3.2812 0,1.836 3.907,3.3243 8.75,3.3243 4.824,0 8.75,-1.4883 8.75,-3.3243"
       style="fill:#231f20;fill-opacity:1;fill-rule:nonzero;stroke:none"
       transform="matrix(0.13333333,0,0,-0.13333333,0,40.68)"
       clip-path="url(#clipPath94)" />
    <path
       id="path95"
       d="m 124.281,72.6641 c 0,-1.8125 -3.926,-3.3008 -8.75,-3.3008 -4.843,0 -8.75,1.4883 -8.75,3.3008 0,1.8203 3.907,3.3047 8.75,3.3047 4.824,0 8.75,-1.4844 8.75,-3.3047"
       style="fill:#231f20;fill-opacity:1;fill-rule:nonzero;stroke:none"
       transform="matrix(0.13333333,0,0,-0.13333333,0,40.68)"
       clip-path="url(#clipPath96)" />
    <path
       id="path97"
       d="m 144.828,78.0586 c 0,-6.0742 -13.055,-10.9961 -29.16,-10.9961 -16.1133,0 -29.1797,4.9219 -29.1797,10.9961 0,6.0898 13.0664,11.0117 29.1797,11.0117 16.105,0 29.16,-4.9219 29.16,-11.0117"
       style="fill:#ffffff;fill-opacity:1;fill-rule:nonzero;stroke:none"
       transform="matrix(0.13333333,0,0,-0.13333333,0,40.68)"
       clip-path="url(#clipPath98)" />
    <path
       id="path99"
       d="m 144.828,78.0586 c 0,-6.0742 -13.055,-10.9961 -29.16,-10.9961 -16.1133,0 -29.1797,4.9219 -29.1797,10.9961 0,6.0898 13.0664,11.0117 29.1797,11.0117 16.105,0 29.16,-4.9219 29.16,-11.0117 z"
       style="fill:none;stroke:#231f20;stroke-width:3.5;stroke-linecap:round;stroke-linejoin:round;stroke-miterlimit:4;stroke-dasharray:none;stroke-opacity:1"
       transform="matrix(0.13333333,0,0,-0.13333333,0,40.68)"
       clip-path="url(#clipPath100)" />
    <path
       id="path101"
       d="m 124.281,78.6602 c 0,-1.8125 -3.926,-3.3008 -8.75,-3.3008 -4.843,0 -8.75,1.4883 -8.75,3.3008 0,1.8203 3.907,3.3046 8.75,3.3046 4.824,0 8.75,-1.4843 8.75,-3.3046"
       style="fill:#231f20;fill-opacity:1;fill-rule:nonzero;stroke:none"
       transform="matrix(0.13333333,0,0,-0.13333333,0,40.68)"
       clip-path="url(#clipPath102)" />
    <path
       id="path103"
       d="m 124.281,84.6563 c 0,-1.8125 -3.926,-3.2969 -8.75,-3.2969 -4.843,0 -8.75,1.4844 -8.75,3.2969 0,1.8359 3.907,3.3046 8.75,3.3046 4.824,0 8.75,-1.4687 8.75,-3.3046"
       style="fill:#231f20;fill-opacity:1;fill-rule:nonzero;stroke:none"
       transform="matrix(0.13333333,0,0,-0.13333333,0,40.68)"
       clip-path="url(#clipPath104)" />
    <path
       id="path105"
       d="m 144.828,90.0664 c 0,-6.0742 -13.055,-10.9961 -29.16,-10.9961 -16.1133,0 -29.1797,4.9219 -29.1797,10.9961 0,6.0781 13.0664,10.9996 29.1797,10.9996 16.105,0 29.16,-4.9215 29.16,-10.9996"
       style="fill:#ffffff;fill-opacity:1;fill-rule:nonzero;stroke:none"
       transform="matrix(0.13333333,0,0,-0.13333333,0,40.68)"
       clip-path="url(#clipPath106)" />
    <path
       id="path107"
       d="m 144.828,90.0664 c 0,-6.0742 -13.055,-10.9961 -29.16,-10.9961 -16.1133,0 -29.1797,4.9219 -29.1797,10.9961 0,6.0781 13.0664,10.9996 29.1797,10.9996 16.105,0 29.16,-4.9215 29.16,-10.9996 z"
       style="fill:none;stroke:#231f20;stroke-width:3.5;stroke-linecap:round;stroke-linejoin:round;stroke-miterlimit:4;stroke-dasharray:none;stroke-opacity:1"
       transform="matrix(0.13333333,0,0,-0.13333333,0,40.68)"
       clip-path="url(#clipPath108)" />
    <path
       id="path109"
       d="m 124.281,90.6523 c 0,-1.8125 -3.926,-3.2812 -8.75,-3.2812 -4.843,0 -8.75,1.4687 -8.75,3.2812 0,1.836 3.907,3.3008 8.75,3.3008 4.824,0 8.75,-1.4648 8.75,-3.3008"
       style="fill:#231f20;fill-opacity:1;fill-rule:nonzero;stroke:none"
       transform="matrix(0.13333333,0,0,-0.13333333,0,40.68)"
       clip-path="url(#clipPath110)" />
    <path
       id="path111"
       d="m 144.828,114.055 c 0,-6.059 -13.055,-10.981 -29.16,-10.981 -16.1133,0 -29.1797,4.922 -29.1797,10.981 0,6.093 13.0664,11.011 29.1797,11.011 16.105,0 29.16,-4.918 29.16,-11.011"
       style="fill:#ffffff;fill-opacity:1;fill-rule:nonzero;stroke:none"
       transform="matrix(0.13333333,0,0,-0.13333333,0,40.68)"
       clip-path="url(#clipPath112)" />
    <path
       id="path113"
       d="m 144.828,114.055 c 0,-6.059 -13.055,-10.981 -29.16,-10.981 -16.1133,0 -29.1797,4.922 -29.1797,10.981 0,6.093 13.0664,11.011 29.1797,11.011 16.105,0 29.16,-4.918 29.16,-11.011 z"
       style="fill:none;stroke:#231f20;stroke-width:3.5;stroke-linecap:round;stroke-linejoin:round;stroke-miterlimit:4;stroke-dasharray:none;stroke-opacity:1"
       transform="matrix(0.13333333,0,0,-0.13333333,0,40.68)"
       clip-path="url(#clipPath114)" />
    <path
       id="path115"
       d="m 124.281,114.656 c 0,-1.812 -3.926,-3.297 -8.75,-3.297 -4.843,0 -8.75,1.485 -8.75,3.297 0,1.836 3.907,3.305 8.75,3.305 4.824,0 8.75,-1.469 8.75,-3.305"
       style="fill:#231f20;fill-opacity:1;fill-rule:nonzero;stroke:none"
       transform="matrix(0.13333333,0,0,-0.13333333,0,40.68)"
       clip-path="url(#clipPath116)" />
    <path
       id="path117"
       d="m 124.281,120.652 c 0,-1.812 -3.926,-3.281 -8.75,-3.281 -4.843,0 -8.75,1.469 -8.75,3.281 0,1.836 3.907,3.301 8.75,3.301 4.824,0 8.75,-1.465 8.75,-3.301"
       style="fill:#231f20;fill-opacity:1;fill-rule:nonzero;stroke:none"
       transform="matrix(0.13333333,0,0,-0.13333333,0,40.68)"
       clip-path="url(#clipPath118)" />
    <path
       id="path119"
       d="m 144.828,126.066 c 0,-6.078 -13.055,-11 -29.16,-11 -16.1133,0 -29.1797,4.922 -29.1797,11 0,6.075 13.0664,10.997 29.1797,10.997 16.105,0 29.16,-4.922 29.16,-10.997"
       style="fill:#ffffff;fill-opacity:1;fill-rule:nonzero;stroke:none"
       transform="matrix(0.13333333,0,0,-0.13333333,0,40.68)"
       clip-path="url(#clipPath120)" />
    <path
       id="path121"
       d="m 144.828,126.066 c 0,-6.078 -13.055,-11 -29.16,-11 -16.1133,0 -29.1797,4.922 -29.1797,11 0,6.075 13.0664,10.997 29.1797,10.997 16.105,0 29.16,-4.922 29.16,-10.997 z"
       style="fill:none;stroke:#231f20;stroke-width:3.5;stroke-linecap:round;stroke-linejoin:round;stroke-miterlimit:4;stroke-dasharray:none;stroke-opacity:1"
       transform="matrix(0.13333333,0,0,-0.13333333,0,40.68)"
       clip-path="url(#clipPath122)" />
    <path
       id="path123"
       d="m 124.281,126.648 c 0,-1.812 -3.926,-3.281 -8.75,-3.281 -4.843,0 -8.75,1.469 -8.75,3.281 0,1.836 3.907,3.325 8.75,3.325 4.824,0 8.75,-1.489 8.75,-3.325"
       style="fill:#231f20;fill-opacity:1;fill-rule:nonzero;stroke:none"
       transform="matrix(0.13333333,0,0,-0.13333333,0,40.68)"
       clip-path="url(#clipPath124)" />
    <path
       id="path125"
       d="m 124.281,132.664 c 0,-1.812 -3.926,-3.301 -8.75,-3.301 -4.843,0 -8.75,1.489 -8.75,3.301 0,1.82 3.907,3.305 8.75,3.305 4.824,0 8.75,-1.485 8.75,-3.305"
       style="fill:#231f20;fill-opacity:1;fill-rule:nonzero;stroke:none"
       transform="matrix(0.13333333,0,0,-0.13333333,0,40.68)"
       clip-path="url(#clipPath126)" />
    <path
       id="path127"
       d="m 144.828,138.059 c 0,-6.075 -13.055,-10.996 -29.16,-10.996 -16.1133,0 -29.1797,4.921 -29.1797,10.996 0,6.089 13.0664,11.011 29.1797,11.011 16.105,0 29.16,-4.922 29.16,-11.011"
       style="fill:#ffffff;fill-opacity:1;fill-rule:nonzero;stroke:none"
       transform="matrix(0.13333333,0,0,-0.13333333,0,40.68)"
       clip-path="url(#clipPath128)" />
    <path
       id="path129"
       d="m 144.828,138.059 c 0,-6.075 -13.055,-10.996 -29.16,-10.996 -16.1133,0 -29.1797,4.921 -29.1797,10.996 0,6.089 13.0664,11.011 29.1797,11.011 16.105,0 29.16,-4.922 29.16,-11.011 z"
       style="fill:none;stroke:#231f20;stroke-width:3.5;stroke-linecap:round;stroke-linejoin:round;stroke-miterlimit:4;stroke-dasharray:none;stroke-opacity:1"
       transform="matrix(0.13333333,0,0,-0.13333333,0,40.68)"
       clip-path="url(#clipPath130)" />
    <path
       id="path131"
       d="m 124.281,138.66 c 0,-1.812 -3.926,-3.301 -8.75,-3.301 -4.843,0 -8.75,1.489 -8.75,3.301 0,1.82 3.907,3.305 8.75,3.305 4.824,0 8.75,-1.485 8.75,-3.305"
       style="fill:#231f20;fill-opacity:1;fill-rule:nonzero;stroke:none"
       transform="matrix(0.13333333,0,0,-0.13333333,0,40.68)"
       clip-path="url(#clipPath132)" />
    <path
       id="path133"
       d="m 144.828,162.063 c 0,-6.079 -13.055,-10.997 -29.16,-10.997 -16.1133,0 -29.1797,4.918 -29.1797,10.997 0,6.074 13.0664,10.996 29.1797,10.996 16.105,0 29.16,-4.922 29.16,-10.996"
       style="fill:#ffffff;fill-opacity:1;fill-rule:nonzero;stroke:none"
       transform="matrix(0.13333333,0,0,-0.13333333,0,40.68)"
       clip-path="url(#clipPath134)" />
    <path
       id="path135"
       d="m 144.828,162.063 c 0,-6.079 -13.055,-10.997 -29.16,-10.997 -16.1133,0 -29.1797,4.918 -29.1797,10.997 0,6.074 13.0664,10.996 29.1797,10.996 16.105,0 29.16,-4.922 29.16,-10.996 z"
       style="fill:none;stroke:#231f20;stroke-width:3.5;stroke-linecap:round;stroke-linejoin:round;stroke-miterlimit:4;stroke-dasharray:none;stroke-opacity:1"
       transform="matrix(0.13333333,0,0,-0.13333333,0,40.68)"
       clip-path="url(#clipPath136)" />
    <path
       id="path137"
       d="m 124.281,162.668 c 0,-1.816 -3.926,-3.305 -8.75,-3.305 -4.843,0 -8.75,1.489 -8.75,3.305 0,1.816 3.907,3.301 8.75,3.301 4.824,0 8.75,-1.485 8.75,-3.301"
       style="fill:#231f20;fill-opacity:1;fill-rule:nonzero;stroke:none"
       transform="matrix(0.13333333,0,0,-0.13333333,0,40.68)"
       clip-path="url(#clipPath138)" />
    <path
       id="path139"
       d="m 124.281,168.66 c 0,-1.812 -3.926,-3.301 -8.75,-3.301 -4.843,0 -8.75,1.489 -8.75,3.301 0,1.82 3.907,3.305 8.75,3.305 4.824,0 8.75,-1.485 8.75,-3.305"
       style="fill:#231f20;fill-opacity:1;fill-rule:nonzero;stroke:none"
       transform="matrix(0.13333333,0,0,-0.13333333,0,40.68)"
       clip-path="url(#clipPath140)" />
    <path
       id="path141"
       d="m 144.828,174.055 c 0,-6.059 -13.055,-10.981 -29.16,-10.981 -16.1133,0 -29.1797,4.922 -29.1797,10.981 0,6.093 13.0664,11.011 29.1797,11.011 16.105,0 29.16,-4.918 29.16,-11.011"
       style="fill:#ffffff;fill-opacity:1;fill-rule:nonzero;stroke:none"
       transform="matrix(0.13333333,0,0,-0.13333333,0,40.68)"
       clip-path="url(#clipPath142)" />
    <path
       id="path143"
       d="m 144.828,174.055 c 0,-6.059 -13.055,-10.981 -29.16,-10.981 -16.1133,0 -29.1797,4.922 -29.1797,10.981 0,6.093 13.0664,11.011 29.1797,11.011 16.105,0 29.16,-4.918 29.16,-11.011 z"
       style="fill:none;stroke:#231f20;stroke-width:3.5;stroke-linecap:round;stroke-linejoin:round;stroke-miterlimit:4;stroke-dasharray:none;stroke-opacity:1"
       transform="matrix(0.13333333,0,0,-0.13333333,0,40.68)"
       clip-path="url(#clipPath144)" />
    <path
       id="path145"
       d="m 124.281,174.656 c 0,-1.812 -3.926,-3.297 -8.75,-3.297 -4.843,0 -8.75,1.485 -8.75,3.297 0,1.836 3.907,3.305 8.75,3.305 4.824,0 8.75,-1.469 8.75,-3.305"
       style="fill:#231f20;fill-opacity:1;fill-rule:nonzero;stroke:none"
       transform="matrix(0.13333333,0,0,-0.13333333,0,40.68)"
       clip-path="url(#clipPath146)" />
    <path
       id="path147"
       d="m 124.281,180.652 c 0,-1.812 -3.926,-3.281 -8.75,-3.281 -4.843,0 -8.75,1.469 -8.75,3.281 0,1.836 3.907,3.301 8.75,3.301 4.824,0 8.75,-1.465 8.75,-3.301"
       style="fill:#231f20;fill-opacity:1;fill-rule:nonzero;stroke:none"
       transform="matrix(0.13333333,0,0,-0.13333333,0,40.68)"
       clip-path="url(#clipPath148)" />
    <path
       id="path149"
       d="m 144.828,186.066 c 0,-6.078 -13.055,-11 -29.16,-11 -16.1133,0 -29.1797,4.922 -29.1797,11 0,6.075 13.0664,10.997 29.1797,10.997 16.105,0 29.16,-4.922 29.16,-10.997"
       style="fill:#ffffff;fill-opacity:1;fill-rule:nonzero;stroke:none"
       transform="matrix(0.13333333,0,0,-0.13333333,0,40.68)"
       clip-path="url(#clipPath150)" />
    <path
       id="path151"
       d="m 144.828,186.066 c 0,-6.078 -13.055,-11 -29.16,-11 -16.1133,0 -29.1797,4.922 -29.1797,11 0,6.075 13.0664,10.997 29.1797,10.997 16.105,0 29.16,-4.922 29.16,-10.997 z"
       style="fill:none;stroke:#231f20;stroke-width:3.5;stroke-linecap:round;stroke-linejoin:round;stroke-miterlimit:4;stroke-dasharray:none;stroke-opacity:1"
       transform="matrix(0.13333333,0,0,-0.13333333,0,40.68)"
       clip-path="url(#clipPath152)" />
    <path
       id="path153"
       d="m 124.281,186.648 c 0,-1.812 -3.926,-3.281 -8.75,-3.281 -4.843,0 -8.75,1.469 -8.75,3.281 0,1.836 3.907,3.325 8.75,3.325 4.824,0 8.75,-1.489 8.75,-3.325"
       style="fill:#231f20;fill-opacity:1;fill-rule:nonzero;stroke:none"
       transform="matrix(0.13333333,0,0,-0.13333333,0,40.68)"
       clip-path="url(#clipPath154)" />
  </g>
</svg>
