<?xml version="1.0" encoding="UTF-8" standalone="no"?>
<!-- Created with Inkscape (http://www.inkscape.org/) -->

<svg
   version="1.1"
   id="svg1"
   width="57.906666"
   height="39.786667"
   viewBox="0 0 57.906666 39.786667"
   sodipodi:docname="laptop.eps"
   xmlns:inkscape="http://www.inkscape.org/namespaces/inkscape"
   xmlns:sodipodi="http://sodipodi.sourceforge.net/DTD/sodipodi-0.dtd"
   xmlns="http://www.w3.org/2000/svg"
   xmlns:svg="http://www.w3.org/2000/svg">
  <defs
     id="defs1">
    <clipPath
       clipPathUnits="userSpaceOnUse"
       id="clipPath2">
      <path
         d="M 0,298 H 430 V 0 H 0 Z"
         id="path2" />
    </clipPath>
    <clipPath
       clipPathUnits="userSpaceOnUse"
       id="clipPath4">
      <path
         d="M 0,298 H 430 V 0 H 0 Z"
         id="path4" />
    </clipPath>
    <clipPath
       clipPathUnits="userSpaceOnUse"
       id="clipPath6">
      <path
         d="M 0,298 H 430 V 0 H 0 Z"
         id="path6" />
    </clipPath>
    <clipPath
       clipPathUnits="userSpaceOnUse"
       id="clipPath8">
      <path
         d="M 0,298 H 430 V 0 H 0 Z"
         id="path8" />
    </clipPath>
    <clipPath
       clipPathUnits="userSpaceOnUse"
       id="clipPath10">
      <path
         d="M 0,298 H 430 V 0 H 0 Z"
         id="path10" />
    </clipPath>
    <clipPath
       clipPathUnits="userSpaceOnUse"
       id="clipPath12">
      <path
         d="M 0,298 H 430 V 0 H 0 Z"
         id="path12" />
    </clipPath>
    <clipPath
       clipPathUnits="userSpaceOnUse"
       id="clipPath14">
      <path
         d="M 0,298 H 430 V 0 H 0 Z"
         id="path14" />
    </clipPath>
    <clipPath
       clipPathUnits="userSpaceOnUse"
       id="clipPath16">
      <path
         d="M 0,298 H 430 V 0 H 0 Z"
         id="path16" />
    </clipPath>
    <clipPath
       clipPathUnits="userSpaceOnUse"
       id="clipPath18">
      <path
         d="M 0,298 H 430 V 0 H 0 Z"
         id="path18" />
    </clipPath>
    <clipPath
       clipPathUnits="userSpaceOnUse"
       id="clipPath20">
      <path
         d="M 0,298 H 430 V 0 H 0 Z"
         id="path20" />
    </clipPath>
    <clipPath
       clipPathUnits="userSpaceOnUse"
       id="clipPath22">
      <path
         d="M 0,298 H 430 V 0 H 0 Z"
         id="path22" />
    </clipPath>
    <clipPath
       clipPathUnits="userSpaceOnUse"
       id="clipPath24">
      <path
         d="M 0,298 H 430 V 0 H 0 Z"
         id="path24" />
    </clipPath>
    <clipPath
       clipPathUnits="userSpaceOnUse"
       id="clipPath26">
      <path
         d="M 0,298 H 430 V 0 H 0 Z"
         id="path26" />
    </clipPath>
    <clipPath
       clipPathUnits="userSpaceOnUse"
       id="clipPath28">
      <path
         d="M 0,298 H 430 V 0 H 0 Z"
         id="path28" />
    </clipPath>
    <clipPath
       clipPathUnits="userSpaceOnUse"
       id="clipPath30">
      <path
         d="M 0,298 H 430 V 0 H 0 Z"
         id="path30" />
    </clipPath>
    <clipPath
       clipPathUnits="userSpaceOnUse"
       id="clipPath32">
      <path
         d="M 0,298 H 430 V 0 H 0 Z"
         id="path32" />
    </clipPath>
    <clipPath
       clipPathUnits="userSpaceOnUse"
       id="clipPath34">
      <path
         d="M 0,298 H 430 V 0 H 0 Z"
         id="path34" />
    </clipPath>
    <clipPath
       clipPathUnits="userSpaceOnUse"
       id="clipPath36">
      <path
         d="M 0,298 H 430 V 0 H 0 Z"
         id="path36" />
    </clipPath>
    <clipPath
       clipPathUnits="userSpaceOnUse"
       id="clipPath38">
      <path
         d="M 0,298 H 430 V 0 H 0 Z"
         id="path38" />
    </clipPath>
    <clipPath
       clipPathUnits="userSpaceOnUse"
       id="clipPath40">
      <path
         d="M 0,298 H 430 V 0 H 0 Z"
         id="path40" />
    </clipPath>
    <clipPath
       clipPathUnits="userSpaceOnUse"
       id="clipPath42">
      <path
         d="M 0,298 H 430 V 0 H 0 Z"
         id="path42" />
    </clipPath>
    <clipPath
       clipPathUnits="userSpaceOnUse"
       id="clipPath44">
      <path
         d="M 0,298 H 430 V 0 H 0 Z"
         id="path44" />
    </clipPath>
    <clipPath
       clipPathUnits="userSpaceOnUse"
       id="clipPath46">
      <path
         d="M 0,298 H 430 V 0 H 0 Z"
         id="path46" />
    </clipPath>
    <clipPath
       clipPathUnits="userSpaceOnUse"
       id="clipPath48">
      <path
         d="M 0,298 H 430 V 0 H 0 Z"
         id="path48" />
    </clipPath>
    <clipPath
       clipPathUnits="userSpaceOnUse"
       id="clipPath50">
      <path
         d="M 0,298 H 430 V 0 H 0 Z"
         id="path50" />
    </clipPath>
    <clipPath
       clipPathUnits="userSpaceOnUse"
       id="clipPath52">
      <path
         d="M 0,298 H 430 V 0 H 0 Z"
         id="path52" />
    </clipPath>
    <clipPath
       clipPathUnits="userSpaceOnUse"
       id="clipPath54">
      <path
         d="M 0,298 H 430 V 0 H 0 Z"
         id="path54" />
    </clipPath>
    <clipPath
       clipPathUnits="userSpaceOnUse"
       id="clipPath56">
      <path
         d="M 0,298 H 430 V 0 H 0 Z"
         id="path56" />
    </clipPath>
    <clipPath
       clipPathUnits="userSpaceOnUse"
       id="clipPath58">
      <path
         d="M 0,298 H 430 V 0 H 0 Z"
         id="path58" />
    </clipPath>
    <clipPath
       clipPathUnits="userSpaceOnUse"
       id="clipPath60">
      <path
         d="M 0,298 H 430 V 0 H 0 Z"
         id="path60" />
    </clipPath>
  </defs>
  <sodipodi:namedview
     id="namedview1"
     pagecolor="#505050"
     bordercolor="#eeeeee"
     borderopacity="1"
     inkscape:showpageshadow="0"
     inkscape:pageopacity="0"
     inkscape:pagecheckerboard="0"
     inkscape:deskcolor="#d1d1d1">
    <inkscape:page
       x="0"
       y="0"
       inkscape:label="1"
       id="page1"
       width="57.906666"
       height="39.786667"
       margin="0"
       bleed="0" />
  </sodipodi:namedview>
  <g
     id="g1"
     inkscape:groupmode="layer"
     inkscape:label="1">
    <path
       id="path1"
       d="m 421.738,293.695 10.41,-13.476 -28.164,-154.352 -12.871,7.965 30.625,159.863"
       style="fill:#02709f;fill-opacity:1;fill-rule:nonzero;stroke:none"
       transform="matrix(0.13333333,0,0,-0.13333333,0,39.786667)"
       clip-path="url(#clipPath2)" />
    <path
       id="path3"
       d="m 421.738,293.695 10.41,-13.476 -28.164,-154.352 -12.871,7.965 z"
       style="fill:none;stroke:#ffffff;stroke-width:3.99994;stroke-linecap:butt;stroke-linejoin:miter;stroke-miterlimit:4;stroke-dasharray:none;stroke-opacity:1"
       transform="matrix(0.13333333,0,0,-0.13333333,0,39.786667)"
       clip-path="url(#clipPath4)" />
    <path
       id="path5"
       d="m 120.395,133.832 11.64,-7.965 h 271.949 l -12.871,7.965 H 120.395"
       style="fill:#000000;fill-opacity:1;fill-rule:nonzero;stroke:none"
       transform="matrix(0.13333333,0,0,-0.13333333,0,39.786667)"
       clip-path="url(#clipPath6)" />
    <path
       id="path7"
       d="m 120.395,133.832 11.64,-7.965 h 271.949 l -12.871,7.965 z"
       style="fill:none;stroke:#ffffff;stroke-width:1.99997;stroke-linecap:butt;stroke-linejoin:miter;stroke-miterlimit:4;stroke-dasharray:none;stroke-opacity:1"
       transform="matrix(0.13333333,0,0,-0.13333333,0,39.786667)"
       clip-path="url(#clipPath8)" />
    <path
       id="path9"
       d="M 393.574,121.273 V 94.0234 l -7.051,-6.1289 c 0,0 -16.543,-4.8984 -12.871,-14.6953 L 299.863,4.58984 V 34.6094 l 93.711,86.6636"
       style="fill:#02709f;fill-opacity:1;fill-rule:nonzero;stroke:none"
       transform="matrix(0.13333333,0,0,-0.13333333,0,39.786667)"
       clip-path="url(#clipPath10)" />
    <path
       id="path11"
       d="M 393.574,121.273 V 94.0234 l -7.051,-6.1289 c 0,0 -16.543,-4.8984 -12.871,-14.6953 L 299.863,4.58984 V 34.6094 Z"
       style="fill:none;stroke:#ffffff;stroke-width:3.99994;stroke-linecap:butt;stroke-linejoin:miter;stroke-miterlimit:4;stroke-dasharray:none;stroke-opacity:1"
       transform="matrix(0.13333333,0,0,-0.13333333,0,39.786667)"
       clip-path="url(#clipPath12)" />
    <path
       id="path13"
       d="m 6.17578,4.58984 h 293.688 v 30.0195 H 6.17578 Z"
       style="fill:#02709f;fill-opacity:1;fill-rule:nonzero;stroke:none"
       transform="matrix(0.13333333,0,0,-0.13333333,0,39.786667)"
       clip-path="url(#clipPath14)" />
    <path
       id="path15"
       d="M 6.17578,34.6094 V 4.58984 H 299.863 V 34.6094 H 6.17578"
       style="fill:none;stroke:#ffffff;stroke-width:3.99994;stroke-linecap:butt;stroke-linejoin:miter;stroke-miterlimit:4;stroke-dasharray:none;stroke-opacity:1"
       transform="matrix(0.13333333,0,0,-0.13333333,0,39.786667)"
       clip-path="url(#clipPath16)" />
    <path
       id="path17"
       d="m 123.461,119.438 270.113,1.835 -93.711,-86.6636 H 6.17578 L 123.461,119.438"
       style="fill:#02709f;fill-opacity:1;fill-rule:nonzero;stroke:none"
       transform="matrix(0.13333333,0,0,-0.13333333,0,39.786667)"
       clip-path="url(#clipPath18)" />
    <path
       id="path19"
       d="m 123.461,119.438 270.113,1.835 -93.711,-86.6636 H 6.17578 Z"
       style="fill:none;stroke:#ffffff;stroke-width:3.99994;stroke-linecap:butt;stroke-linejoin:miter;stroke-miterlimit:4;stroke-dasharray:none;stroke-opacity:1"
       transform="matrix(0.13333333,0,0,-0.13333333,0,39.786667)"
       clip-path="url(#clipPath20)" />
    <path
       id="path21"
       d="m 391.113,133.832 30.625,159.863 H 155.316 L 120.395,133.832 h 270.718"
       style="fill:#02709f;fill-opacity:1;fill-rule:nonzero;stroke:none"
       transform="matrix(0.13333333,0,0,-0.13333333,0,39.786667)"
       clip-path="url(#clipPath22)" />
    <path
       id="path23"
       d="m 391.113,133.832 30.625,159.863 H 155.316 L 120.395,133.832 Z"
       style="fill:none;stroke:#ffffff;stroke-width:3.99994;stroke-linecap:butt;stroke-linejoin:miter;stroke-miterlimit:4;stroke-dasharray:none;stroke-opacity:1"
       transform="matrix(0.13333333,0,0,-0.13333333,0,39.786667)"
       clip-path="url(#clipPath24)" />
    <path
       id="path25"
       d="M 368.516,151.719 392.09,271.77 H 175.453 L 151.879,151.719 h 216.637"
       style="fill:#02709f;fill-opacity:1;fill-rule:nonzero;stroke:none"
       transform="matrix(0.13333333,0,0,-0.13333333,0,39.786667)"
       clip-path="url(#clipPath26)" />
    <path
       id="path27"
       d="M 368.516,151.719 392.09,271.77 H 175.453 L 151.879,151.719 Z"
       style="fill:none;stroke:#ffffff;stroke-width:3.99994;stroke-linecap:butt;stroke-linejoin:miter;stroke-miterlimit:4;stroke-dasharray:none;stroke-opacity:1"
       transform="matrix(0.13333333,0,0,-0.13333333,0,39.786667)"
       clip-path="url(#clipPath28)" />
    <path
       id="path29"
       d="M 129.809,117.516 61.6836,62.5117"
       style="fill:none;stroke:#ffffff;stroke-width:1.00006;stroke-linecap:butt;stroke-linejoin:round;stroke-miterlimit:4;stroke-dasharray:none;stroke-opacity:1"
       transform="matrix(0.13333333,0,0,-0.13333333,0,39.786667)"
       clip-path="url(#clipPath30)" />
    <path
       id="path31"
       d="M 151.684,117.516 83.5586,62.5117"
       style="fill:none;stroke:#ffffff;stroke-width:1.00006;stroke-linecap:butt;stroke-linejoin:round;stroke-miterlimit:4;stroke-dasharray:none;stroke-opacity:1"
       transform="matrix(0.13333333,0,0,-0.13333333,0,39.786667)"
       clip-path="url(#clipPath32)" />
    <path
       id="path33"
       d="M 173.559,117.516 105.434,62.5117"
       style="fill:none;stroke:#ffffff;stroke-width:1.00006;stroke-linecap:butt;stroke-linejoin:round;stroke-miterlimit:4;stroke-dasharray:none;stroke-opacity:1"
       transform="matrix(0.13333333,0,0,-0.13333333,0,39.786667)"
       clip-path="url(#clipPath34)" />
    <path
       id="path35"
       d="M 195.434,117.516 127.309,62.5117"
       style="fill:none;stroke:#ffffff;stroke-width:1.00006;stroke-linecap:butt;stroke-linejoin:round;stroke-miterlimit:4;stroke-dasharray:none;stroke-opacity:1"
       transform="matrix(0.13333333,0,0,-0.13333333,0,39.786667)"
       clip-path="url(#clipPath36)" />
    <path
       id="path37"
       d="M 217.305,117.516 149.184,62.5117"
       style="fill:none;stroke:#ffffff;stroke-width:1.00006;stroke-linecap:butt;stroke-linejoin:round;stroke-miterlimit:4;stroke-dasharray:none;stroke-opacity:1"
       transform="matrix(0.13333333,0,0,-0.13333333,0,39.786667)"
       clip-path="url(#clipPath38)" />
    <path
       id="path39"
       d="M 239.18,117.516 171.059,62.5117"
       style="fill:none;stroke:#ffffff;stroke-width:1.00006;stroke-linecap:butt;stroke-linejoin:round;stroke-miterlimit:4;stroke-dasharray:none;stroke-opacity:1"
       transform="matrix(0.13333333,0,0,-0.13333333,0,39.786667)"
       clip-path="url(#clipPath40)" />
    <path
       id="path41"
       d="M 261.055,117.516 192.934,62.5117"
       style="fill:none;stroke:#ffffff;stroke-width:1.00006;stroke-linecap:butt;stroke-linejoin:round;stroke-miterlimit:4;stroke-dasharray:none;stroke-opacity:1"
       transform="matrix(0.13333333,0,0,-0.13333333,0,39.786667)"
       clip-path="url(#clipPath42)" />
    <path
       id="path43"
       d="M 282.93,117.516 214.805,62.5117"
       style="fill:none;stroke:#ffffff;stroke-width:1.00006;stroke-linecap:butt;stroke-linejoin:round;stroke-miterlimit:4;stroke-dasharray:none;stroke-opacity:1"
       transform="matrix(0.13333333,0,0,-0.13333333,0,39.786667)"
       clip-path="url(#clipPath44)" />
    <path
       id="path45"
       d="M 304.805,117.516 236.68,62.5117"
       style="fill:none;stroke:#ffffff;stroke-width:1.00006;stroke-linecap:butt;stroke-linejoin:round;stroke-miterlimit:4;stroke-dasharray:none;stroke-opacity:1"
       transform="matrix(0.13333333,0,0,-0.13333333,0,39.786667)"
       clip-path="url(#clipPath46)" />
    <path
       id="path47"
       d="M 326.68,117.516 258.555,62.5117"
       style="fill:none;stroke:#ffffff;stroke-width:1.00006;stroke-linecap:butt;stroke-linejoin:round;stroke-miterlimit:4;stroke-dasharray:none;stroke-opacity:1"
       transform="matrix(0.13333333,0,0,-0.13333333,0,39.786667)"
       clip-path="url(#clipPath48)" />
    <path
       id="path49"
       d="M 348.555,117.516 280.43,62.5117"
       style="fill:none;stroke:#ffffff;stroke-width:1.00006;stroke-linecap:butt;stroke-linejoin:round;stroke-miterlimit:4;stroke-dasharray:none;stroke-opacity:1"
       transform="matrix(0.13333333,0,0,-0.13333333,0,39.786667)"
       clip-path="url(#clipPath50)" />
    <path
       id="path51"
       d="M 370.43,117.516 302.305,62.5117"
       style="fill:none;stroke:#ffffff;stroke-width:1.00006;stroke-linecap:butt;stroke-linejoin:round;stroke-miterlimit:4;stroke-dasharray:none;stroke-opacity:1"
       transform="matrix(0.13333333,0,0,-0.13333333,0,39.786667)"
       clip-path="url(#clipPath52)" />
    <path
       id="path53"
       d="M 69.3008,68.3125 H 311.816"
       style="fill:none;stroke:#ffffff;stroke-width:1.00006;stroke-linecap:butt;stroke-linejoin:round;stroke-miterlimit:4;stroke-dasharray:none;stroke-opacity:1"
       transform="matrix(0.13333333,0,0,-0.13333333,0,39.786667)"
       clip-path="url(#clipPath54)" />
    <path
       id="path55"
       d="M 85.6094,80.918 H 324.375"
       style="fill:none;stroke:#ffffff;stroke-width:1.00006;stroke-linecap:butt;stroke-linejoin:round;stroke-miterlimit:4;stroke-dasharray:none;stroke-opacity:1"
       transform="matrix(0.13333333,0,0,-0.13333333,0,39.786667)"
       clip-path="url(#clipPath56)" />
    <path
       id="path57"
       d="M 102.523,93.5195 H 340.664"
       style="fill:none;stroke:#ffffff;stroke-width:1.00006;stroke-linecap:butt;stroke-linejoin:round;stroke-miterlimit:4;stroke-dasharray:none;stroke-opacity:1"
       transform="matrix(0.13333333,0,0,-0.13333333,0,39.786667)"
       clip-path="url(#clipPath58)" />
    <path
       id="path59"
       d="M 117.582,106.129 H 357.598"
       style="fill:none;stroke:#ffffff;stroke-width:1.00006;stroke-linecap:butt;stroke-linejoin:round;stroke-miterlimit:4;stroke-dasharray:none;stroke-opacity:1"
       transform="matrix(0.13333333,0,0,-0.13333333,0,39.786667)"
       clip-path="url(#clipPath60)" />
  </g>
</svg>
