<?xml version="1.0" encoding="UTF-8" standalone="no"?>
<!-- Created with Inkscape (http://www.inkscape.org/) -->

<svg
   version="1.1"
   id="svg1"
   width="41.506668"
   height="55.413334"
   viewBox="0 0 41.506668 55.413334"
   sodipodi:docname="pc adapter card.eps"
   xmlns:inkscape="http://www.inkscape.org/namespaces/inkscape"
   xmlns:sodipodi="http://sodipodi.sourceforge.net/DTD/sodipodi-0.dtd"
   xmlns="http://www.w3.org/2000/svg"
   xmlns:svg="http://www.w3.org/2000/svg">
  <defs
     id="defs1">
    <clipPath
       clipPathUnits="userSpaceOnUse"
       id="clipPath2">
      <path
         d="M 0,416 H 310 V 0 H 0 Z"
         id="path2" />
    </clipPath>
    <clipPath
       clipPathUnits="userSpaceOnUse"
       id="clipPath4">
      <path
         d="M 0,416 H 310 V 0 H 0 Z"
         id="path4" />
    </clipPath>
    <clipPath
       clipPathUnits="userSpaceOnUse"
       id="clipPath6">
      <path
         d="M 0,416 H 310 V 0 H 0 Z"
         id="path6" />
    </clipPath>
    <clipPath
       clipPathUnits="userSpaceOnUse"
       id="clipPath8">
      <path
         d="M 0,416 H 310 V 0 H 0 Z"
         id="path8" />
    </clipPath>
    <clipPath
       clipPathUnits="userSpaceOnUse"
       id="clipPath10">
      <path
         d="M 0,416 H 310 V 0 H 0 Z"
         id="path10" />
    </clipPath>
    <clipPath
       clipPathUnits="userSpaceOnUse"
       id="clipPath12">
      <path
         d="M 0,416 H 310 V 0 H 0 Z"
         id="path12" />
    </clipPath>
    <clipPath
       clipPathUnits="userSpaceOnUse"
       id="clipPath14">
      <path
         d="M 0,416 H 310 V 0 H 0 Z"
         id="path14" />
    </clipPath>
    <clipPath
       clipPathUnits="userSpaceOnUse"
       id="clipPath16">
      <path
         d="M 0,416 H 310 V 0 H 0 Z"
         id="path16" />
    </clipPath>
    <clipPath
       clipPathUnits="userSpaceOnUse"
       id="clipPath18">
      <path
         d="M 0,416 H 310 V 0 H 0 Z"
         id="path18" />
    </clipPath>
    <clipPath
       clipPathUnits="userSpaceOnUse"
       id="clipPath20">
      <path
         d="M 0,416 H 310 V 0 H 0 Z"
         id="path20" />
    </clipPath>
    <clipPath
       clipPathUnits="userSpaceOnUse"
       id="clipPath22">
      <path
         d="M 0,416 H 310 V 0 H 0 Z"
         id="path22" />
    </clipPath>
    <clipPath
       clipPathUnits="userSpaceOnUse"
       id="clipPath24">
      <path
         d="M 0,416 H 310 V 0 H 0 Z"
         id="path24" />
    </clipPath>
    <clipPath
       clipPathUnits="userSpaceOnUse"
       id="clipPath26">
      <path
         d="M 0,416 H 310 V 0 H 0 Z"
         id="path26" />
    </clipPath>
    <clipPath
       clipPathUnits="userSpaceOnUse"
       id="clipPath28">
      <path
         d="M 0,416 H 310 V 0 H 0 Z"
         id="path28" />
    </clipPath>
    <clipPath
       clipPathUnits="userSpaceOnUse"
       id="clipPath30">
      <path
         d="M 0,416 H 310 V 0 H 0 Z"
         id="path30" />
    </clipPath>
    <clipPath
       clipPathUnits="userSpaceOnUse"
       id="clipPath32">
      <path
         d="M 0,416 H 310 V 0 H 0 Z"
         id="path32" />
    </clipPath>
    <clipPath
       clipPathUnits="userSpaceOnUse"
       id="clipPath34">
      <path
         d="M 0,416 H 310 V 0 H 0 Z"
         id="path34" />
    </clipPath>
    <clipPath
       clipPathUnits="userSpaceOnUse"
       id="clipPath36">
      <path
         d="M 0,416 H 310 V 0 H 0 Z"
         id="path36" />
    </clipPath>
    <clipPath
       clipPathUnits="userSpaceOnUse"
       id="clipPath38">
      <path
         d="M 0,416 H 310 V 0 H 0 Z"
         id="path38" />
    </clipPath>
    <clipPath
       clipPathUnits="userSpaceOnUse"
       id="clipPath40">
      <path
         d="M 0,416 H 310 V 0 H 0 Z"
         id="path40" />
    </clipPath>
    <clipPath
       clipPathUnits="userSpaceOnUse"
       id="clipPath42">
      <path
         d="M 0,416 H 310 V 0 H 0 Z"
         id="path42" />
    </clipPath>
    <clipPath
       clipPathUnits="userSpaceOnUse"
       id="clipPath44">
      <path
         d="M 0,416 H 310 V 0 H 0 Z"
         id="path44" />
    </clipPath>
    <clipPath
       clipPathUnits="userSpaceOnUse"
       id="clipPath46">
      <path
         d="M 0,416 H 310 V 0 H 0 Z"
         id="path46" />
    </clipPath>
    <clipPath
       clipPathUnits="userSpaceOnUse"
       id="clipPath48">
      <path
         d="M 0,416 H 310 V 0 H 0 Z"
         id="path48" />
    </clipPath>
    <clipPath
       clipPathUnits="userSpaceOnUse"
       id="clipPath50">
      <path
         d="M 0,416 H 310 V 0 H 0 Z"
         id="path50" />
    </clipPath>
    <clipPath
       clipPathUnits="userSpaceOnUse"
       id="clipPath52">
      <path
         d="M 0,416 H 310 V 0 H 0 Z"
         id="path52" />
    </clipPath>
    <clipPath
       clipPathUnits="userSpaceOnUse"
       id="clipPath54">
      <path
         d="M 0,416 H 310 V 0 H 0 Z"
         id="path54" />
    </clipPath>
    <clipPath
       clipPathUnits="userSpaceOnUse"
       id="clipPath56">
      <path
         d="M 0,416 H 310 V 0 H 0 Z"
         id="path56" />
    </clipPath>
    <clipPath
       clipPathUnits="userSpaceOnUse"
       id="clipPath58">
      <path
         d="M 0,416 H 310 V 0 H 0 Z"
         id="path58" />
    </clipPath>
    <clipPath
       clipPathUnits="userSpaceOnUse"
       id="clipPath60">
      <path
         d="M 0,416 H 310 V 0 H 0 Z"
         id="path60" />
    </clipPath>
  </defs>
  <sodipodi:namedview
     id="namedview1"
     pagecolor="#505050"
     bordercolor="#eeeeee"
     borderopacity="1"
     inkscape:showpageshadow="0"
     inkscape:pageopacity="0"
     inkscape:pagecheckerboard="0"
     inkscape:deskcolor="#d1d1d1">
    <inkscape:page
       x="0"
       y="0"
       inkscape:label="1"
       id="page1"
       width="41.506668"
       height="55.413334"
       margin="0"
       bleed="0" />
  </sodipodi:namedview>
  <g
     id="g1"
     inkscape:groupmode="layer"
     inkscape:label="1">
    <path
       id="path1"
       d="M 150.121,28.0547 V 136.805 L 125.473,113.406 V 4.65625 l 24.648,23.39845"
       style="fill:#000000;fill-opacity:1;fill-rule:nonzero;stroke:none"
       transform="matrix(0.13333333,0,0,-0.13333333,0,55.413333)"
       clip-path="url(#clipPath2)" />
    <path
       id="path3"
       d="M 150.121,28.0547 V 136.805 L 125.473,113.406 V 4.65625 Z"
       style="fill:none;stroke:#ffffff;stroke-width:4;stroke-linecap:butt;stroke-linejoin:miter;stroke-miterlimit:4;stroke-dasharray:none;stroke-opacity:1"
       transform="matrix(0.13333333,0,0,-0.13333333,0,55.413333)"
       clip-path="url(#clipPath4)" />
    <path
       id="path5"
       d="m 5.96094,4.65625 h 119.512 v 108.75 H 5.96094 Z"
       style="fill:#026c9b;fill-opacity:1;fill-rule:nonzero;stroke:none"
       transform="matrix(0.13333333,0,0,-0.13333333,0,55.413333)"
       clip-path="url(#clipPath6)" />
    <path
       id="path7"
       d="M 125.473,4.65625 V 113.406 H 5.96094 V 4.65625 Z"
       style="fill:none;stroke:#ffffff;stroke-width:4;stroke-linecap:butt;stroke-linejoin:miter;stroke-miterlimit:4;stroke-dasharray:none;stroke-opacity:1"
       transform="matrix(0.13333333,0,0,-0.13333333,0,55.413333)"
       clip-path="url(#clipPath8)" />
    <path
       id="path9"
       d="m 135.336,4.65625 h 119.512 v 108.75 H 135.336 Z"
       style="fill:#026c9b;fill-opacity:1;fill-rule:nonzero;stroke:none"
       transform="matrix(0.13333333,0,0,-0.13333333,0,55.413333)"
       clip-path="url(#clipPath10)" />
    <path
       id="path11"
       d="M 254.848,4.65625 V 113.406 H 135.336 V 4.65625 Z"
       style="fill:none;stroke:#ffffff;stroke-width:4;stroke-linecap:butt;stroke-linejoin:miter;stroke-miterlimit:4;stroke-dasharray:none;stroke-opacity:1"
       transform="matrix(0.13333333,0,0,-0.13333333,0,55.413333)"
       clip-path="url(#clipPath12)" />
    <path
       id="path13"
       d="m 306.293,164.656 v 246.25 l -51.328,-48.75 v -246.25 l 51.328,48.75"
       style="fill:#026c9b;fill-opacity:1;fill-rule:nonzero;stroke:none"
       transform="matrix(0.13333333,0,0,-0.13333333,0,55.413333)"
       clip-path="url(#clipPath14)" />
    <path
       id="path15"
       d="m 306.293,164.656 v 246.25 l -51.328,-48.75 v -246.25 z"
       style="fill:none;stroke:#ffffff;stroke-width:4;stroke-linecap:butt;stroke-linejoin:miter;stroke-miterlimit:4;stroke-dasharray:none;stroke-opacity:1"
       transform="matrix(0.13333333,0,0,-0.13333333,0,55.413333)"
       clip-path="url(#clipPath16)" />
    <path
       id="path17"
       d="M 306.195,53.4063 V 162.156 l -51.347,-48.75 V 4.65625 l 51.347,48.75005"
       style="fill:#026c9b;fill-opacity:1;fill-rule:nonzero;stroke:none"
       transform="matrix(0.13333333,0,0,-0.13333333,0,55.413333)"
       clip-path="url(#clipPath18)" />
    <path
       id="path19"
       d="M 306.195,53.4063 V 162.156 l -51.347,-48.75 V 4.65625 Z"
       style="fill:none;stroke:#ffffff;stroke-width:4;stroke-linecap:butt;stroke-linejoin:miter;stroke-miterlimit:4;stroke-dasharray:none;stroke-opacity:1"
       transform="matrix(0.13333333,0,0,-0.13333333,0,55.413333)"
       clip-path="url(#clipPath20)" />
    <path
       id="path21"
       d="m 306.293,410.906 -51.328,-48.75 H 5.96094 l 64.51176,48.75 H 306.293"
       style="fill:#026c9b;fill-opacity:1;fill-rule:nonzero;stroke:none"
       transform="matrix(0.13333333,0,0,-0.13333333,0,55.413333)"
       clip-path="url(#clipPath22)" />
    <path
       id="path23"
       d="m 306.293,410.906 -51.328,-48.75 H 5.96094 l 64.51176,48.75 z"
       style="fill:none;stroke:#ffffff;stroke-width:4;stroke-linecap:butt;stroke-linejoin:miter;stroke-miterlimit:4;stroke-dasharray:none;stroke-opacity:1"
       transform="matrix(0.13333333,0,0,-0.13333333,0,55.413333)"
       clip-path="url(#clipPath24)" />
    <path
       id="path25"
       d="m 5.96094,115.906 h 249.004 v 246.25 H 5.96094 Z"
       style="fill:#026c9b;fill-opacity:1;fill-rule:nonzero;stroke:none"
       transform="matrix(0.13333333,0,0,-0.13333333,0,55.413333)"
       clip-path="url(#clipPath26)" />
    <path
       id="path27"
       d="m 254.965,115.906 v 246.25 H 5.96094 v -246.25 z"
       style="fill:none;stroke:#ffffff;stroke-width:4;stroke-linecap:butt;stroke-linejoin:miter;stroke-miterlimit:4;stroke-dasharray:none;stroke-opacity:1"
       transform="matrix(0.13333333,0,0,-0.13333333,0,55.413333)"
       clip-path="url(#clipPath28)" />
    <path
       id="path29"
       d="m 108.266,268.227 -37.891,37.886 6.4258,6.426 -23.7891,4.813 4.8242,-23.778 6.4258,6.422 37.8903,-37.883 6.114,6.114"
       style="fill:#ffffff;fill-opacity:1;fill-rule:nonzero;stroke:none"
       transform="matrix(0.13333333,0,0,-0.13333333,0,55.413333)"
       clip-path="url(#clipPath30)" />
    <path
       id="path31"
       d="M 94.3984,243.426 H 40.8242 v 9.09 L 20.6094,239.102 40.8242,225.691 v 9.09 h 53.5742 v 8.645"
       style="fill:#ffffff;fill-opacity:1;fill-rule:nonzero;stroke:none"
       transform="matrix(0.13333333,0,0,-0.13333333,0,55.413333)"
       clip-path="url(#clipPath32)" />
    <path
       id="path33"
       d="m 102.152,216.094 -37.8903,-37.887 -6.4258,6.426 -4.8242,-23.778 23.7891,4.813 -6.4258,6.426 37.891,37.886 -6.114,6.114"
       style="fill:#ffffff;fill-opacity:1;fill-rule:nonzero;stroke:none"
       transform="matrix(0.13333333,0,0,-0.13333333,0,55.413333)"
       clip-path="url(#clipPath34)" />
    <path
       id="path35"
       d="M 126.957,202.242 V 148.66 h -9.102 l 13.418,-20.222 13.418,20.222 h -9.101 v 53.582 h -8.633"
       style="fill:#ffffff;fill-opacity:1;fill-rule:nonzero;stroke:none"
       transform="matrix(0.13333333,0,0,-0.13333333,0,55.413333)"
       clip-path="url(#clipPath36)" />
    <path
       id="path37"
       d="m 126.957,274.422 v 53.582 h -9.102 l 13.418,20.219 13.418,-20.219 h -9.101 v -53.582 h -8.633"
       style="fill:#ffffff;fill-opacity:1;fill-rule:nonzero;stroke:none"
       transform="matrix(0.13333333,0,0,-0.13333333,0,55.413333)"
       clip-path="url(#clipPath38)" />
    <path
       id="path39"
       d="m 154.281,209.98 37.891,-37.886 -6.426,-6.426 23.77,-4.813 -4.805,23.778 -6.426,-6.426 -37.89,37.887 -6.114,-6.114"
       style="fill:#ffffff;fill-opacity:1;fill-rule:nonzero;stroke:none"
       transform="matrix(0.13333333,0,0,-0.13333333,0,55.413333)"
       clip-path="url(#clipPath40)" />
    <path
       id="path41"
       d="m 168.129,234.781 h 53.574 v -9.09 l 20.235,13.411 -20.235,13.414 v -9.09 h -53.574 v -8.645"
       style="fill:#ffffff;fill-opacity:1;fill-rule:nonzero;stroke:none"
       transform="matrix(0.13333333,0,0,-0.13333333,0,55.413333)"
       clip-path="url(#clipPath42)" />
    <path
       id="path43"
       d="m 160.395,262.113 37.89,37.887 6.426,-6.426 4.805,23.778 -23.77,-4.813 6.426,-6.426 -37.891,-37.886 6.114,-6.114"
       style="fill:#ffffff;fill-opacity:1;fill-rule:nonzero;stroke:none"
       transform="matrix(0.13333333,0,0,-0.13333333,0,55.413333)"
       clip-path="url(#clipPath44)" />
    <path
       id="path45"
       d="m 28.4609,85.5469 h 7.6758 L 24.8672,102.559 13.5781,85.5469 h 7.5977 v -55.75 H 13.5 L 24.7891,12.7813 36.0586,29.7969 h -7.5977 v 55.75"
       style="fill:#ffffff;fill-opacity:1;fill-rule:nonzero;stroke:none"
       transform="matrix(0.13333333,0,0,-0.13333333,0,55.413333)"
       clip-path="url(#clipPath46)" />
    <path
       id="path47"
       d="m 55.8047,85.5469 h 7.6758 L 52.2109,102.559 40.9219,85.5469 h 7.5976 v -55.75 h -7.6757 l 11.2695,-17.0156 11.289,17.0156 h -7.5976 v 55.75"
       style="fill:#ffffff;fill-opacity:1;fill-rule:nonzero;stroke:none"
       transform="matrix(0.13333333,0,0,-0.13333333,0,55.413333)"
       clip-path="url(#clipPath48)" />
    <path
       id="path49"
       d="m 83.1289,85.5469 h 7.6953 L 79.5352,102.559 68.2656,85.5469 h 7.5977 v -55.75 H 68.1875 L 79.457,12.7813 90.7461,29.7969 h -7.6172 v 55.75"
       style="fill:#ffffff;fill-opacity:1;fill-rule:nonzero;stroke:none"
       transform="matrix(0.13333333,0,0,-0.13333333,0,55.413333)"
       clip-path="url(#clipPath50)" />
    <path
       id="path51"
       d="m 110.473,85.5469 h 7.695 L 106.879,102.559 95.6094,85.5469 h 7.5976 v -55.75 H 95.5117 L 106.801,12.7813 118.09,29.7969 h -7.617 v 55.75"
       style="fill:#ffffff;fill-opacity:1;fill-rule:nonzero;stroke:none"
       transform="matrix(0.13333333,0,0,-0.13333333,0,55.413333)"
       clip-path="url(#clipPath52)" />
    <path
       id="path53"
       d="m 157.836,85.5469 h 7.676 l -11.27,17.0121 -11.289,-17.0121 h 7.598 v -55.75 h -7.676 l 11.289,-17.0156 11.27,17.0156 h -7.598 v 55.75"
       style="fill:#ffffff;fill-opacity:1;fill-rule:nonzero;stroke:none"
       transform="matrix(0.13333333,0,0,-0.13333333,0,55.413333)"
       clip-path="url(#clipPath54)" />
    <path
       id="path55"
       d="m 185.18,85.5469 h 7.675 L 181.586,102.559 170.297,85.5469 h 7.598 v -55.75 h -7.676 l 11.269,-17.0156 11.289,17.0156 h -7.597 v 55.75"
       style="fill:#ffffff;fill-opacity:1;fill-rule:nonzero;stroke:none"
       transform="matrix(0.13333333,0,0,-0.13333333,0,55.413333)"
       clip-path="url(#clipPath56)" />
    <path
       id="path57"
       d="m 212.504,85.5469 h 7.695 L 208.91,102.559 197.641,85.5469 h 7.597 v -55.75 h -7.675 l 11.269,-17.0156 11.289,17.0156 h -7.617 v 55.75"
       style="fill:#ffffff;fill-opacity:1;fill-rule:nonzero;stroke:none"
       transform="matrix(0.13333333,0,0,-0.13333333,0,55.413333)"
       clip-path="url(#clipPath58)" />
    <path
       id="path59"
       d="m 239.848,85.5469 h 7.695 l -11.289,17.0121 -11.27,-17.0121 h 7.598 v -55.75 h -7.695 l 11.289,-17.0156 11.289,17.0156 h -7.617 v 55.75"
       style="fill:#ffffff;fill-opacity:1;fill-rule:nonzero;stroke:none"
       transform="matrix(0.13333333,0,0,-0.13333333,0,55.413333)"
       clip-path="url(#clipPath60)" />
  </g>
</svg>
