<?xml version="1.0" encoding="UTF-8" standalone="no"?>
<!-- Created with Inkscape (http://www.inkscape.org/) -->

<svg
   version="1.1"
   id="svg1"
   width="44.200001"
   height="61.52"
   viewBox="0 0 44.200001 61.52"
   sodipodi:docname="pda.eps"
   xmlns:inkscape="http://www.inkscape.org/namespaces/inkscape"
   xmlns:sodipodi="http://sodipodi.sourceforge.net/DTD/sodipodi-0.dtd"
   xmlns="http://www.w3.org/2000/svg"
   xmlns:svg="http://www.w3.org/2000/svg">
  <defs
     id="defs1" />
  <sodipodi:namedview
     id="namedview1"
     pagecolor="#505050"
     bordercolor="#eeeeee"
     borderopacity="1"
     inkscape:showpageshadow="0"
     inkscape:pageopacity="0"
     inkscape:pagecheckerboard="0"
     inkscape:deskcolor="#d1d1d1">
    <inkscape:page
       x="0"
       y="0"
       inkscape:label="1"
       id="page1"
       width="44.200001"
       height="61.52"
       margin="0"
       bleed="0" />
  </sodipodi:namedview>
  <g
     id="g1"
     inkscape:groupmode="layer"
     inkscape:label="1">
    <path
       id="path1"
       d="m 265.891,426.953 c 6.297,10.504 6.257,8.949 8.789,12.777 25.105,38 50.691,19.625 33.34,-15.667 -14.36,-29.18 -15.813,-31.083 -21.379,-40.77 -9.739,-17 -19.571,-35.656 -26.446,-49.199"
       style="fill:none;stroke:#231f20;stroke-width:4;stroke-linecap:butt;stroke-linejoin:miter;stroke-miterlimit:10;stroke-dasharray:none;stroke-opacity:1"
       transform="matrix(0.13333333,0,0,-0.13333333,0,61.52)" />
    <path
       id="path2"
       d="m 290.906,389.801 c 25.305,37.5 49.574,20.164 33.918,-14.301 -13.379,-29.449 -16.941,-30.598 -21.816,-40.965 -9.024,-19.215 -6.211,-16.18 -13.098,-29.734"
       style="fill:none;stroke:#231f20;stroke-width:4;stroke-linecap:butt;stroke-linejoin:miter;stroke-miterlimit:10;stroke-dasharray:none;stroke-opacity:1"
       transform="matrix(0.13333333,0,0,-0.13333333,0,61.52)" />
    <path
       id="path3"
       d="m 239.668,381.504 c 6.934,8.848 7.062,10.637 22.617,39.023 19.551,35.637 -7.949,53.067 -33.562,16.071 -27.129,-39.192 -33.996,-50.387 -49.043,-67.758 -15.071,-17.402 -43.137,-85.207 -60.801,-103.59 -11.789,-12.27 4.871,35.746 3.367,49.746 -3.262,30.375 -4.031,26.875 -7.527,37.567 -3.508,10.695 -25.1877,29.656 -29.7581,13.218 -2.3632,-8.523 -1.2578,-8.793 0.4883,-18.461 0.8906,-4.965 -2.6758,-3.547 -1.6601,-27.363 0.5664,-13.465 -21.0235,-53.586 -27.5586,-71.465 -13.8477,-37.957 1.4531,-39.945 -4.2188,-71.5 -6.2304,-34.609 1.0664,-27.414 -5.1562,-42.195 C 40.625,120.02 5.23438,63.2148 1.75,54.1094"
       style="fill:none;stroke:#231f20;stroke-width:4;stroke-linecap:butt;stroke-linejoin:miter;stroke-miterlimit:10;stroke-dasharray:none;stroke-opacity:1"
       transform="matrix(0.13333333,0,0,-0.13333333,0,61.52)" />
    <path
       id="path4"
       d="m 129.59,248.441 c 20.703,-11.757 1.555,-75.621 1.555,-75.621"
       style="fill:none;stroke:#231f20;stroke-width:4;stroke-linecap:butt;stroke-linejoin:miter;stroke-miterlimit:10;stroke-dasharray:none;stroke-opacity:1"
       transform="matrix(0.13333333,0,0,-0.13333333,0,61.52)" />
    <path
       id="path5"
       d="m 119.766,253.012 c -4.864,6.226 -5.047,10.308 -5.047,10.308"
       style="fill:none;stroke:#231f20;stroke-width:4;stroke-linecap:butt;stroke-linejoin:miter;stroke-miterlimit:10;stroke-dasharray:none;stroke-opacity:1"
       transform="matrix(0.13333333,0,0,-0.13333333,0,61.52)" />
    <path
       id="path6"
       d="M 57.3438,202.676 H 215.625 l 101.66,186.195 H 166.719 L 57.3438,202.676"
       style="fill:#087ebe;fill-opacity:1;fill-rule:evenodd;stroke:#ffffff;stroke-width:4;stroke-linecap:round;stroke-linejoin:round;stroke-miterlimit:10;stroke-dasharray:none;stroke-opacity:1"
       transform="matrix(0.13333333,0,0,-0.13333333,0,61.52)" />
    <path
       id="path7"
       d="m 57.3438,171.855 h 158.281 v 30.8203 H 57.3438 Z"
       style="fill:#087ebe;fill-opacity:1;fill-rule:evenodd;stroke:none"
       transform="matrix(0.13333333,0,0,-0.13333333,0,61.52)" />
    <path
       id="path8"
       d="M 57.3438,202.676 V 171.855 H 215.625 v 30.821 z"
       style="fill:none;stroke:#ffffff;stroke-width:4;stroke-linecap:round;stroke-linejoin:round;stroke-miterlimit:10;stroke-dasharray:none;stroke-opacity:1"
       transform="matrix(0.13333333,0,0,-0.13333333,0,61.52)" />
    <path
       id="path9"
       d="M 317.285,388.871 V 359.984 L 215.625,171.855 v 30.821 l 101.66,186.195"
       style="fill:#087ebe;fill-opacity:1;fill-rule:evenodd;stroke:none"
       transform="matrix(0.13333333,0,0,-0.13333333,0,61.52)" />
    <path
       id="path10"
       d="M 317.285,388.871 V 359.984 L 215.625,171.855 v 30.821 z"
       style="fill:none;stroke:#ffffff;stroke-width:4;stroke-linecap:round;stroke-linejoin:round;stroke-miterlimit:10;stroke-dasharray:none;stroke-opacity:1"
       transform="matrix(0.13333333,0,0,-0.13333333,0,61.52)" />
    <path
       id="path11"
       d="M 290.742,370.09 223.77,245.566 H 100.234 l 72.188,124.524 h 118.32"
       style="fill:#ffffff;fill-opacity:1;fill-rule:evenodd;stroke:none"
       transform="matrix(0.13333333,0,0,-0.13333333,0,61.52)" />
    <path
       id="path12"
       d="M 290.742,370.09 223.77,245.566 H 100.234 l 72.188,124.524 z"
       style="fill:none;stroke:#ffffff;stroke-width:1.926;stroke-linecap:round;stroke-linejoin:round;stroke-miterlimit:10;stroke-dasharray:none;stroke-opacity:1"
       transform="matrix(0.13333333,0,0,-0.13333333,0,61.52)" />
    <path
       id="path13"
       d="M 106.387,228.281 99.0234,214.688 H 84.8438 l 7.832,13.593 h 13.7112"
       style="fill:#ffffff;fill-opacity:1;fill-rule:evenodd;stroke:none"
       transform="matrix(0.13333333,0,0,-0.13333333,0,61.52)" />
    <path
       id="path14"
       d="M 106.387,228.281 99.0234,214.688 H 84.8438 l 7.832,13.593 z"
       style="fill:none;stroke:#ffffff;stroke-width:1.926;stroke-linecap:round;stroke-linejoin:round;stroke-miterlimit:10;stroke-dasharray:none;stroke-opacity:1"
       transform="matrix(0.13333333,0,0,-0.13333333,0,61.52)" />
    <path
       id="path15"
       d="m 215.859,228.281 -7.363,-13.593 h -14.18 l 7.84,13.593 h 13.703"
       style="fill:#ffffff;fill-opacity:1;fill-rule:evenodd;stroke:none"
       transform="matrix(0.13333333,0,0,-0.13333333,0,61.52)" />
    <path
       id="path16"
       d="m 215.859,228.281 -7.363,-13.593 h -14.18 l 7.84,13.593 z"
       style="fill:none;stroke:#ffffff;stroke-width:1.926;stroke-linecap:round;stroke-linejoin:round;stroke-miterlimit:10;stroke-dasharray:none;stroke-opacity:1"
       transform="matrix(0.13333333,0,0,-0.13333333,0,61.52)" />
    <path
       id="path17"
       d="m 188.555,228.281 -7.364,-13.593 h -14.179 l 7.832,13.593 h 13.711"
       style="fill:#ffffff;fill-opacity:1;fill-rule:evenodd;stroke:none"
       transform="matrix(0.13333333,0,0,-0.13333333,0,61.52)" />
    <path
       id="path18"
       d="m 188.555,228.281 -7.364,-13.593 h -14.179 l 7.832,13.593 z"
       style="fill:none;stroke:#ffffff;stroke-width:1.926;stroke-linecap:round;stroke-linejoin:round;stroke-miterlimit:10;stroke-dasharray:none;stroke-opacity:1"
       transform="matrix(0.13333333,0,0,-0.13333333,0,61.52)" />
    <path
       id="path19"
       d="m 159.98,228.281 -7.363,-13.593 h -14.179 l 7.832,13.593 h 13.71"
       style="fill:#ffffff;fill-opacity:1;fill-rule:evenodd;stroke:none"
       transform="matrix(0.13333333,0,0,-0.13333333,0,61.52)" />
    <path
       id="path20"
       d="m 159.98,228.281 -7.363,-13.593 h -14.179 l 7.832,13.593 z"
       style="fill:none;stroke:#ffffff;stroke-width:1.926;stroke-linecap:round;stroke-linejoin:round;stroke-miterlimit:10;stroke-dasharray:none;stroke-opacity:1"
       transform="matrix(0.13333333,0,0,-0.13333333,0,61.52)" />
    <path
       id="path21"
       d="m 132.93,228.281 -7.364,-13.593 h -14.179 l 7.832,13.593 h 13.711"
       style="fill:#ffffff;fill-opacity:1;fill-rule:evenodd;stroke:none"
       transform="matrix(0.13333333,0,0,-0.13333333,0,61.52)" />
    <path
       id="path22"
       d="m 132.93,228.281 -7.364,-13.593 h -14.179 l 7.832,13.593 z"
       style="fill:none;stroke:#ffffff;stroke-width:1.926;stroke-linecap:round;stroke-linejoin:round;stroke-miterlimit:10;stroke-dasharray:none;stroke-opacity:1"
       transform="matrix(0.13333333,0,0,-0.13333333,0,61.52)" />
    <path
       id="path23"
       d="m 111.516,1.16016 c 8.992,13.87894 52.089,77.42574 56.082,78.51954 44.531,12.1445 95.371,111.2113 119.16,140.0783 5.176,6.297 9.629,18.578 11.902,24.351 1.106,2.817 11.184,24.055 16.82,34.09 l 8.954,40.77 1.472,35.84 c 0,0 -14.148,33.976 -22.273,-9.598 l -5.75,-28.039 c -2.641,-4.375 -12.434,-18.719 -14.973,-24.938 -2.539,-6.211 -17.91,-25.343 -17.812,-35.972"
       style="fill:#ffffff;fill-opacity:1;fill-rule:nonzero;stroke:#231f20;stroke-width:4;stroke-linecap:butt;stroke-linejoin:miter;stroke-miterlimit:10;stroke-dasharray:none;stroke-opacity:1"
       transform="matrix(0.13333333,0,0,-0.13333333,0,61.52)" />
  </g>
</svg>
