<?xml version="1.0" encoding="UTF-8" standalone="no"?>
<!-- Created with Inkscape (http://www.inkscape.org/) -->

<svg
   version="1.1"
   id="svg1"
   width="44.400002"
   height="51.266666"
   viewBox="0 0 44.400002 51.266666"
   sodipodi:docname="androgenous person.eps"
   xmlns:inkscape="http://www.inkscape.org/namespaces/inkscape"
   xmlns:sodipodi="http://sodipodi.sourceforge.net/DTD/sodipodi-0.dtd"
   xmlns="http://www.w3.org/2000/svg"
   xmlns:svg="http://www.w3.org/2000/svg">
  <defs
     id="defs1">
    <clipPath
       clipPathUnits="userSpaceOnUse"
       id="clipPath2">
      <path
         d="M 0,4 V 384 H 330 V 4 Z"
         id="path2" />
    </clipPath>
    <clipPath
       clipPathUnits="userSpaceOnUse"
       id="clipPath4">
      <path
         d="M 0,4 V 384 H 330 V 4 Z"
         id="path4" />
    </clipPath>
    <clipPath
       clipPathUnits="userSpaceOnUse"
       id="clipPath6">
      <path
         d="M 0,4 V 384 H 330 V 4 Z"
         id="path6" />
    </clipPath>
    <clipPath
       clipPathUnits="userSpaceOnUse"
       id="clipPath8">
      <path
         d="M 0,4 V 384 H 330 V 4 Z"
         id="path8" />
    </clipPath>
    <clipPath
       clipPathUnits="userSpaceOnUse"
       id="clipPath10">
      <path
         d="M 0,4 V 384 H 330 V 4 Z"
         id="path10" />
    </clipPath>
    <clipPath
       clipPathUnits="userSpaceOnUse"
       id="clipPath12">
      <path
         d="M 0,4 V 384 H 330 V 4 Z"
         id="path12" />
    </clipPath>
    <clipPath
       clipPathUnits="userSpaceOnUse"
       id="clipPath14">
      <path
         d="M 0,4 V 384 H 330 V 4 Z"
         id="path14" />
    </clipPath>
    <clipPath
       clipPathUnits="userSpaceOnUse"
       id="clipPath16">
      <path
         d="M 0,4 V 384 H 330 V 4 Z"
         id="path16" />
    </clipPath>
    <clipPath
       clipPathUnits="userSpaceOnUse"
       id="clipPath18">
      <path
         d="M 0,4 V 384 H 330 V 4 Z"
         id="path18" />
    </clipPath>
    <clipPath
       clipPathUnits="userSpaceOnUse"
       id="clipPath20">
      <path
         d="M 0,4 V 384 H 330 V 4 Z"
         id="path20" />
    </clipPath>
    <clipPath
       clipPathUnits="userSpaceOnUse"
       id="clipPath22">
      <path
         d="M 0,4 V 384 H 330 V 4 Z"
         id="path22" />
    </clipPath>
    <clipPath
       clipPathUnits="userSpaceOnUse"
       id="clipPath24">
      <path
         d="M 0,4 V 384 H 330 V 4 Z"
         id="path24" />
    </clipPath>
    <clipPath
       clipPathUnits="userSpaceOnUse"
       id="clipPath26">
      <path
         d="M 0,4 V 384 H 330 V 4 Z"
         id="path26" />
    </clipPath>
    <clipPath
       clipPathUnits="userSpaceOnUse"
       id="clipPath28">
      <path
         d="M 0,4 V 384 H 330 V 4 Z"
         id="path28" />
    </clipPath>
  </defs>
  <sodipodi:namedview
     id="namedview1"
     pagecolor="#505050"
     bordercolor="#eeeeee"
     borderopacity="1"
     inkscape:showpageshadow="0"
     inkscape:pageopacity="0"
     inkscape:pagecheckerboard="0"
     inkscape:deskcolor="#d1d1d1">
    <inkscape:page
       x="0"
       y="0"
       inkscape:label="1"
       id="page1"
       width="44.400002"
       height="51.266666"
       margin="0"
       bleed="0" />
  </sodipodi:namedview>
  <g
     id="g1"
     inkscape:groupmode="layer"
     inkscape:label="1">
    <path
       id="path1"
       d="m 122.82,338.414 c 0,-24.414 -19.785,-44.211 -44.2067,-44.211 -24.4219,0 -44.207,19.797 -44.207,44.211 0,24.422 19.7851,44.219 44.207,44.219 24.4217,0 44.2067,-19.797 44.2067,-44.219"
       style="fill:#02709f;fill-opacity:1;fill-rule:nonzero;stroke:none"
       transform="matrix(0.13333333,0,0,-0.13333333,0,51.266667)"
       clip-path="url(#clipPath2)" />
    <path
       id="path3"
       d="m 122.82,338.414 c 0,-24.414 -19.785,-44.211 -44.2067,-44.211 -24.4219,0 -44.207,19.797 -44.207,44.211 0,24.422 19.7851,44.219 44.207,44.219 24.4217,0 44.2067,-19.797 44.2067,-44.219 z"
       style="fill:none;stroke:#ffffff;stroke-width:3.99994;stroke-linecap:butt;stroke-linejoin:miter;stroke-miterlimit:4;stroke-dasharray:none;stroke-opacity:1"
       transform="matrix(0.13333333,0,0,-0.13333333,0,51.266667)"
       clip-path="url(#clipPath4)" />
    <path
       id="path5"
       d="m 147.102,2.00391 h 183.855 v 195.441 H 147.102 Z"
       style="fill:#02709f;fill-opacity:1;fill-rule:nonzero;stroke:none"
       transform="matrix(0.13333333,0,0,-0.13333333,0,51.266667)"
       clip-path="url(#clipPath6)" />
    <path
       id="path7"
       d="M 330.957,2.00391 H 147.102 V 197.445 h 183.855 z"
       style="fill:none;stroke:#ffffff;stroke-width:3.99994;stroke-linecap:butt;stroke-linejoin:miter;stroke-miterlimit:4;stroke-dasharray:none;stroke-opacity:1"
       transform="matrix(0.13333333,0,0,-0.13333333,0,51.266667)"
       clip-path="url(#clipPath8)" />
    <path
       id="path9"
       d="m 211.453,198.004 h 106.965 v 24.3633 H 211.453 Z"
       style="fill:#02709f;fill-opacity:1;fill-rule:nonzero;stroke:none"
       transform="matrix(0.13333333,0,0,-0.13333333,0,51.266667)"
       clip-path="url(#clipPath10)" />
    <path
       id="path11"
       d="M 211.453,222.367 H 318.418 V 198.004 H 211.453 Z"
       style="fill:none;stroke:#ffffff;stroke-width:3.99994;stroke-linecap:butt;stroke-linejoin:miter;stroke-miterlimit:4;stroke-dasharray:none;stroke-opacity:1"
       transform="matrix(0.13333333,0,0,-0.13333333,0,51.266667)"
       clip-path="url(#clipPath12)" />
    <path
       id="path13"
       d="m 296.758,284.574 v -62.207 h -83.281 v 83.274 l 73.527,-9.571 c 0,0 9.949,-0.988 9.754,-11.496"
       style="fill:#02709f;fill-opacity:1;fill-rule:nonzero;stroke:none"
       transform="matrix(0.13333333,0,0,-0.13333333,0,51.266667)"
       clip-path="url(#clipPath14)" />
    <path
       id="path15"
       d="m 296.758,284.574 v -62.207 h -83.281 v 83.274 l 73.527,-9.571 c 0,0 9.949,-0.988 9.754,-11.496 z"
       style="fill:none;stroke:#ffffff;stroke-width:3.99994;stroke-linecap:butt;stroke-linejoin:miter;stroke-miterlimit:4;stroke-dasharray:none;stroke-opacity:1"
       transform="matrix(0.13333333,0,0,-0.13333333,0,51.266667)"
       clip-path="url(#clipPath16)" />
    <path
       id="path17"
       d="M 136.172,27.2578 H 85.3906 v 60.043 H 59.9219 V 27.2578 H 9.94141 C 5.55469,27.2578 2,23.7031 2,19.3086 V 10.0313 C 2,5.63672 5.55469,2.08203 9.94141,2.08203 H 136.172 c 4.387,0 7.937,3.55469 7.937,7.94927 v 9.2773 c 0,4.3945 -3.55,7.9492 -7.937,7.9492"
       style="fill:#02709f;fill-opacity:1;fill-rule:nonzero;stroke:none"
       transform="matrix(0.13333333,0,0,-0.13333333,0,51.266667)"
       clip-path="url(#clipPath18)" />
    <path
       id="path19"
       d="M 136.172,27.2578 H 85.3906 v 60.043 H 59.9219 V 27.2578 H 9.94141 C 5.55469,27.2578 2,23.7031 2,19.3086 V 10.0313 C 2,5.63672 5.55469,2.08203 9.94141,2.08203 H 136.172 c 4.387,0 7.937,3.55469 7.937,7.94927 v 9.2773 c 0,4.3945 -3.55,7.9492 -7.937,7.9492 z"
       style="fill:none;stroke:#ffffff;stroke-width:3.99994;stroke-linecap:butt;stroke-linejoin:miter;stroke-miterlimit:4;stroke-dasharray:none;stroke-opacity:1"
       transform="matrix(0.13333333,0,0,-0.13333333,0,51.266667)"
       clip-path="url(#clipPath20)" />
    <path
       id="path21"
       d="M 138.398,115.367 H 33.7305 v 148.692 c 0,4.843 -3.9141,8.757 -8.75,8.757 H 14.7344 c -4.83206,0 -8.74612,-3.914 -8.74612,-8.757 V 96.3633 c 0,-4.8242 3.91406,-8.75 8.74612,-8.75 H 24.9805 138.398 c 4.832,0 8.75,3.9258 8.75,8.75 v 10.2537 c 0,4.824 -3.918,8.75 -8.75,8.75"
       style="fill:#02709f;fill-opacity:1;fill-rule:nonzero;stroke:none"
       transform="matrix(0.13333333,0,0,-0.13333333,0,51.266667)"
       clip-path="url(#clipPath22)" />
    <path
       id="path23"
       d="M 138.398,115.367 H 33.7305 v 148.692 c 0,4.843 -3.9141,8.757 -8.75,8.757 H 14.7344 c -4.83206,0 -8.74612,-3.914 -8.74612,-8.757 V 96.3633 c 0,-4.8242 3.91406,-8.75 8.74612,-8.75 H 24.9805 138.398 c 4.832,0 8.75,3.9258 8.75,8.75 v 10.2537 c 0,4.824 -3.918,8.75 -8.75,8.75 z"
       style="fill:none;stroke:#ffffff;stroke-width:3.99994;stroke-linecap:butt;stroke-linejoin:miter;stroke-miterlimit:4;stroke-dasharray:none;stroke-opacity:1"
       transform="matrix(0.13333333,0,0,-0.13333333,0,51.266667)"
       clip-path="url(#clipPath24)" />
    <path
       id="path25"
       d="m 113.809,284.691 80.351,-58.25 c 3.406,-2.949 5.567,-7.324 5.567,-12.199 0,-8.906 -7.215,-16.121 -16.122,-16.121 -2.714,0 -6.3,0.906 -9.14,2.5 l -67.231,41.551 v -75.449 l 37.942,-0.196 V 117.965 L 37.7656,118.16 v 160.215 c 0,0 0.7032,12.695 21.5313,12.695 h 38.6797 c 0,0 7.3554,-0.371 15.8324,-6.379"
       style="fill:#02709f;fill-opacity:1;fill-rule:nonzero;stroke:none"
       transform="matrix(0.13333333,0,0,-0.13333333,0,51.266667)"
       clip-path="url(#clipPath26)" />
    <path
       id="path27"
       d="m 113.809,284.691 80.351,-58.25 c 3.406,-2.949 5.567,-7.324 5.567,-12.199 0,-8.906 -7.215,-16.121 -16.122,-16.121 -2.714,0 -6.3,0.906 -9.14,2.5 l -67.231,41.551 v -75.449 l 37.942,-0.196 V 117.965 L 37.7656,118.16 v 160.215 c 0,0 0.7032,12.695 21.5313,12.695 h 38.6797 c 0,0 7.3554,-0.371 15.8324,-6.379 z"
       style="fill:none;stroke:#ffffff;stroke-width:3.99994;stroke-linecap:butt;stroke-linejoin:miter;stroke-miterlimit:4;stroke-dasharray:none;stroke-opacity:1"
       transform="matrix(0.13333333,0,0,-0.13333333,0,51.266667)"
       clip-path="url(#clipPath28)" />
  </g>
</svg>
