<?xml version="1.0" encoding="UTF-8" standalone="no"?>
<!-- Created with Inkscape (http://www.inkscape.org/) -->

<svg
   version="1.1"
   id="svg1"
   width="52.186668"
   height="58.52"
   viewBox="0 0 52.186668 58.52"
   sodipodi:docname="running man.eps"
   xmlns:inkscape="http://www.inkscape.org/namespaces/inkscape"
   xmlns:sodipodi="http://sodipodi.sourceforge.net/DTD/sodipodi-0.dtd"
   xmlns="http://www.w3.org/2000/svg"
   xmlns:svg="http://www.w3.org/2000/svg">
  <defs
     id="defs1">
    <clipPath
       clipPathUnits="userSpaceOnUse"
       id="clipPath2">
      <path
         d="M 0,439 H 390 V 0 H 0 Z"
         id="path2" />
    </clipPath>
    <clipPath
       clipPathUnits="userSpaceOnUse"
       id="clipPath4">
      <path
         d="M 0,439 H 390 V 0 H 0 Z"
         id="path4" />
    </clipPath>
    <clipPath
       clipPathUnits="userSpaceOnUse"
       id="clipPath6">
      <path
         d="M 0,439 H 390 V 0 H 0 Z"
         id="path6" />
    </clipPath>
    <clipPath
       clipPathUnits="userSpaceOnUse"
       id="clipPath8">
      <path
         d="M 0,439 H 390 V 0 H 0 Z"
         id="path8" />
    </clipPath>
    <clipPath
       clipPathUnits="userSpaceOnUse"
       id="clipPath10">
      <path
         d="M 0,439 H 390 V 0 H 0 Z"
         id="path10" />
    </clipPath>
    <clipPath
       clipPathUnits="userSpaceOnUse"
       id="clipPath12">
      <path
         d="M 0,439 H 390 V 0 H 0 Z"
         id="path12" />
    </clipPath>
    <clipPath
       clipPathUnits="userSpaceOnUse"
       id="clipPath14">
      <path
         d="M 0,439 H 390 V 0 H 0 Z"
         id="path14" />
    </clipPath>
    <clipPath
       clipPathUnits="userSpaceOnUse"
       id="clipPath16">
      <path
         d="M 0,439 H 390 V 0 H 0 Z"
         id="path16" />
    </clipPath>
    <clipPath
       clipPathUnits="userSpaceOnUse"
       id="clipPath18">
      <path
         d="M 0,439 H 390 V 0 H 0 Z"
         id="path18" />
    </clipPath>
    <clipPath
       clipPathUnits="userSpaceOnUse"
       id="clipPath20">
      <path
         d="M 0,439 H 390 V 0 H 0 Z"
         id="path20" />
    </clipPath>
    <clipPath
       clipPathUnits="userSpaceOnUse"
       id="clipPath22">
      <path
         d="M 0,439 H 390 V 0 H 0 Z"
         id="path22" />
    </clipPath>
    <clipPath
       clipPathUnits="userSpaceOnUse"
       id="clipPath24">
      <path
         d="M 0,439 H 390 V 0 H 0 Z"
         id="path24" />
    </clipPath>
  </defs>
  <sodipodi:namedview
     id="namedview1"
     pagecolor="#505050"
     bordercolor="#eeeeee"
     borderopacity="1"
     inkscape:showpageshadow="0"
     inkscape:pageopacity="0"
     inkscape:pagecheckerboard="0"
     inkscape:deskcolor="#d1d1d1">
    <inkscape:page
       x="0"
       y="0"
       inkscape:label="1"
       id="page1"
       width="52.186668"
       height="58.52"
       margin="0"
       bleed="0" />
  </sodipodi:namedview>
  <g
     id="g1"
     inkscape:groupmode="layer"
     inkscape:label="1">
    <path
       id="path1"
       d="m 296.238,412.402 -23.125,8.125 -34.48,-23.289 22.058,-21.789 1.875,3.223 4.321,-4.031 5.105,-0.266 2.149,5.109 1.843,0.067 0.579,3.429 2.421,-0.539 1.883,4.309 6.196,-2.16 1.609,1.086 0.808,13.183 4.856,2.735 2.109,9.14"
       style="fill:#036998;fill-opacity:1;fill-rule:nonzero;stroke:none"
       transform="matrix(0.13333333,0,0,-0.13333333,0,58.52)"
       clip-path="url(#clipPath2)" />
    <path
       id="path3"
       d="m 298.555,227.168 11.965,12.668 3.511,-4.219 17.578,-4.922 4.219,-14.777 -5.625,0.703 -4.219,-9.141 -2.808,3.516 -7.031,-6.328 -0.707,7.031 -7.032,0.703 -4.218,10.547 -5.633,4.219"
       style="fill:#036998;fill-opacity:1;fill-rule:nonzero;stroke:none"
       transform="matrix(0.13333333,0,0,-0.13333333,0,58.52)"
       clip-path="url(#clipPath4)" />
    <path
       id="path5"
       d="m 83.1953,291.477 -11.457,-6.016 -2.8399,-5.5 -14.2109,-10.145 1.3203,-4.171 12.332,7.746 -11.5039,-12.258 2.5704,-3.203 11.621,9.015 -9.5351,-14.992 3.5547,-2.547 10.3437,12.93 -3.4687,-13.715 4.1992,-1.109 7.3281,17.703 3.2305,0.129 4.8125,-8.352 4.3086,0.254 -2.5703,14.328 1.4297,12.637 -11.4649,7.266"
       style="fill:#036998;fill-opacity:1;fill-rule:nonzero;stroke:none"
       transform="matrix(0.13333333,0,0,-0.13333333,0,58.52)"
       clip-path="url(#clipPath6)" />
    <path
       id="path7"
       d="m 308.406,209.59 4.223,-2.11 -1.406,-4.921 -1.41,-7.735 -6.336,2.813 1.418,7.031 3.511,4.922"
       style="fill:#036998;fill-opacity:1;fill-rule:nonzero;stroke:none"
       transform="matrix(0.13333333,0,0,-0.13333333,0,58.52)"
       clip-path="url(#clipPath8)" />
    <path
       id="path9"
       d="m 336.531,222.949 7.739,-3.515 1.406,-7.032 -6.328,-2.812 v 6.328 l -2.817,7.031"
       style="fill:#036998;fill-opacity:1;fill-rule:nonzero;stroke:none"
       transform="matrix(0.13333333,0,0,-0.13333333,0,58.52)"
       clip-path="url(#clipPath10)" />
    <path
       id="path11"
       d="m 366.063,216.621 -89.317,-31.648 18.93,-62.364 12.73,-10.781 82.981,31.649 -9.141,64.003 -16.183,9.141"
       style="fill:#036998;fill-opacity:1;fill-rule:nonzero;stroke:none"
       transform="matrix(0.13333333,0,0,-0.13333333,0,58.52)"
       clip-path="url(#clipPath12)" />
    <path
       id="path13"
       d="m 304.895,31.6523 -10.559,-9.8437 -14.063,1.4062 -2.824,-11.25 L 280.273,0 h 20.391 L 304.895,4.23047 316.145,0 h 24.609 l 9.141,3.52734 -2.817,7.73436 -23.902,4.9219 -14.77,9.8437 -3.511,5.625"
       style="fill:#036998;fill-opacity:1;fill-rule:nonzero;stroke:none"
       transform="matrix(0.13333333,0,0,-0.13333333,0,58.52)"
       clip-path="url(#clipPath14)" />
    <path
       id="path15"
       d="m 38.8984,82.2773 -7.207,12.4883 4.5274,13.3904 -10.3282,5.274 -12.289,-0.051 L 9.01172,93.5078 12.1758,88.4492 5.53906,78.4297 0,54.4453 l 1.36719,-9.6992 8.17578,0.9961 10.17583,22.1992 12.9101,12.1758 6.2695,2.1601"
       style="fill:#036998;fill-opacity:1;fill-rule:nonzero;stroke:none"
       transform="matrix(0.13333333,0,0,-0.13333333,0,58.52)"
       clip-path="url(#clipPath16)" />
    <path
       id="path17"
       d="m 137.512,222.949 -13.364,11.965 25.317,40.789 10.547,63.293 -25.317,-14.062 -23.211,-41.496 -27.4332,16.171 28.8402,54.161 63.996,39.386 52.754,-1.406 28.828,-21.809 26.023,-35.164 -9.148,-9.843 -3.52,-48.528 36.582,-33.054 -24.617,-19.7 -42.898,37.278 1.406,-46.418"
       style="fill:#036998;fill-opacity:1;fill-rule:nonzero;stroke:none"
       transform="matrix(0.13333333,0,0,-0.13333333,0,58.52)"
       clip-path="url(#clipPath18)" />
    <path
       id="path19"
       d="M 242.297,214.512 282.383,146.992 316.848,47.1289 275.344,33.0586 242.297,124.492 191.66,195.527 165.637,117.461 60.8477,77.3711 44.6758,111.828 l 78.0662,30.242 1.406,9.141 8.442,-0.703 8.433,56.269 -3.511,16.172 104.785,-8.437"
       style="fill:#036998;fill-opacity:1;fill-rule:nonzero;stroke:none"
       transform="matrix(0.13333333,0,0,-0.13333333,0,58.52)"
       clip-path="url(#clipPath20)" />
    <path
       id="path21"
       d="m 134.172,226.289 70.406,-22.43 33.332,15.829"
       style="fill:#036998;fill-opacity:1;fill-rule:nonzero;stroke:none"
       transform="matrix(0.13333333,0,0,-0.13333333,0,58.52)"
       clip-path="url(#clipPath22)" />
    <path
       id="path23"
       d="m 296.445,410.734 7.825,-0.312 -5.375,12.644 -22.332,15.332 -13.719,0.54 -12.114,-6.993 -12.097,-34.707 11.355,8.289 13.125,5.625 1.25,-3.125 6.875,-3.75 6.25,11.25 18.75,-3.125"
       style="fill:#036998;fill-opacity:1;fill-rule:nonzero;stroke:none"
       transform="matrix(0.13333333,0,0,-0.13333333,0,58.52)"
       clip-path="url(#clipPath24)" />
  </g>
</svg>
