<?xml version="1.0" encoding="UTF-8" standalone="no"?>
<!-- Created with Inkscape (http://www.inkscape.org/) -->

<svg
   version="1.1"
   id="svg1"
   width="35.400002"
   height="54.906666"
   viewBox="0 0 35.400002 54.906666"
   sodipodi:docname="sitting woman.eps"
   xmlns:inkscape="http://www.inkscape.org/namespaces/inkscape"
   xmlns:sodipodi="http://sodipodi.sourceforge.net/DTD/sodipodi-0.dtd"
   xmlns="http://www.w3.org/2000/svg"
   xmlns:svg="http://www.w3.org/2000/svg">
  <defs
     id="defs1">
    <clipPath
       clipPathUnits="userSpaceOnUse"
       id="clipPath2">
      <path
         d="M 0,1 V 412 H 266 V 1 Z"
         id="path2" />
    </clipPath>
    <clipPath
       clipPathUnits="userSpaceOnUse"
       id="clipPath4">
      <path
         d="M 0,1 V 412 H 266 V 1 Z"
         id="path4" />
    </clipPath>
    <clipPath
       clipPathUnits="userSpaceOnUse"
       id="clipPath6">
      <path
         d="M 0,1 V 412 H 266 V 1 Z"
         id="path6" />
    </clipPath>
    <clipPath
       clipPathUnits="userSpaceOnUse"
       id="clipPath8">
      <path
         d="M 0,1 V 412 H 266 V 1 Z"
         id="path8" />
    </clipPath>
    <clipPath
       clipPathUnits="userSpaceOnUse"
       id="clipPath10">
      <path
         d="M 0,1 V 412 H 266 V 1 Z"
         id="path10" />
    </clipPath>
    <clipPath
       clipPathUnits="userSpaceOnUse"
       id="clipPath12">
      <path
         d="M 0,1 V 412 H 266 V 1 Z"
         id="path12" />
    </clipPath>
    <clipPath
       clipPathUnits="userSpaceOnUse"
       id="clipPath14">
      <path
         d="M 0,1 V 412 H 266 V 1 Z"
         id="path14" />
    </clipPath>
    <clipPath
       clipPathUnits="userSpaceOnUse"
       id="clipPath16">
      <path
         d="M 0,1 V 412 H 266 V 1 Z"
         id="path16" />
    </clipPath>
    <clipPath
       clipPathUnits="userSpaceOnUse"
       id="clipPath18">
      <path
         d="M 0,1 V 412 H 266 V 1 Z"
         id="path18" />
    </clipPath>
    <clipPath
       clipPathUnits="userSpaceOnUse"
       id="clipPath20">
      <path
         d="M 0,1 V 412 H 266 V 1 Z"
         id="path20" />
    </clipPath>
    <clipPath
       clipPathUnits="userSpaceOnUse"
       id="clipPath22">
      <path
         d="M 0,1 V 412 H 266 V 1 Z"
         id="path22" />
    </clipPath>
    <clipPath
       clipPathUnits="userSpaceOnUse"
       id="clipPath24">
      <path
         d="M 0,1 V 412 H 266 V 1 Z"
         id="path24" />
    </clipPath>
    <clipPath
       clipPathUnits="userSpaceOnUse"
       id="clipPath26">
      <path
         d="M 0,1 V 412 H 266 V 1 Z"
         id="path26" />
    </clipPath>
    <clipPath
       clipPathUnits="userSpaceOnUse"
       id="clipPath28">
      <path
         d="M 0,1 V 412 H 266 V 1 Z"
         id="path28" />
    </clipPath>
    <clipPath
       clipPathUnits="userSpaceOnUse"
       id="clipPath30">
      <path
         d="M 0,1 V 412 H 266 V 1 Z"
         id="path30" />
    </clipPath>
    <clipPath
       clipPathUnits="userSpaceOnUse"
       id="clipPath32">
      <path
         d="M 0,1 V 412 H 266 V 1 Z"
         id="path32" />
    </clipPath>
    <clipPath
       clipPathUnits="userSpaceOnUse"
       id="clipPath34">
      <path
         d="M 0,1 V 412 H 266 V 1 Z"
         id="path34" />
    </clipPath>
    <clipPath
       clipPathUnits="userSpaceOnUse"
       id="clipPath36">
      <path
         d="M 0,1 V 412 H 266 V 1 Z"
         id="path36" />
    </clipPath>
    <clipPath
       clipPathUnits="userSpaceOnUse"
       id="clipPath38">
      <path
         d="M 0,1 V 412 H 266 V 1 Z"
         id="path38" />
    </clipPath>
    <clipPath
       clipPathUnits="userSpaceOnUse"
       id="clipPath40">
      <path
         d="M 0,1 V 412 H 266 V 1 Z"
         id="path40" />
    </clipPath>
    <clipPath
       clipPathUnits="userSpaceOnUse"
       id="clipPath42">
      <path
         d="M 0,1 V 412 H 266 V 1 Z"
         id="path42" />
    </clipPath>
    <clipPath
       clipPathUnits="userSpaceOnUse"
       id="clipPath44">
      <path
         d="M 0,1 V 412 H 266 V 1 Z"
         id="path44" />
    </clipPath>
  </defs>
  <sodipodi:namedview
     id="namedview1"
     pagecolor="#505050"
     bordercolor="#eeeeee"
     borderopacity="1"
     inkscape:showpageshadow="0"
     inkscape:pageopacity="0"
     inkscape:pagecheckerboard="0"
     inkscape:deskcolor="#d1d1d1">
    <inkscape:page
       x="0"
       y="0"
       inkscape:label="1"
       id="page1"
       width="35.400002"
       height="54.906666"
       margin="0"
       bleed="0" />
  </sodipodi:namedview>
  <g
     id="g1"
     inkscape:groupmode="layer"
     inkscape:label="1">
    <path
       id="path1"
       d="M 70.918,363.809 3.65234,365.371 0,362.246 l 19.2969,-58.398 71.4336,3.652 3.1367,3.641 -22.9492,52.668"
       style="fill:#036998;fill-opacity:1;fill-rule:nonzero;stroke:none"
       transform="matrix(0.13333333,0,0,-0.13333333,0,54.906667)"
       clip-path="url(#clipPath2)" />
    <path
       id="path3"
       d="m 159.043,411.777 25.391,-20.839 -3.047,-8.137 2.031,-11.18 4.062,-11.191 24.747,-10.703 6.25,13.035 -6.778,5.215 1.563,11.992 -15.117,29.199 -39.102,2.609"
       style="fill:#036998;fill-opacity:1;fill-rule:nonzero;stroke:none"
       transform="matrix(0.13333333,0,0,-0.13333333,0,54.906667)"
       clip-path="url(#clipPath4)" />
    <path
       id="path5"
       d="m 161.055,401.102 -8.274,-12.266 -2.09,-12.52 -7.293,17.735 17.657,7.051"
       style="fill:#036998;fill-opacity:1;fill-rule:nonzero;stroke:none"
       transform="matrix(0.13333333,0,0,-0.13333333,0,54.906667)"
       clip-path="url(#clipPath6)" />
    <path
       id="path7"
       d="m 154.348,394.57 3.132,-4.172 3.641,-0.515 -1.558,3.125 2.078,4.168 2.089,-4.168 2.09,-4.172 4.688,-2.09 v 4.172 l 2.09,3.652 2.09,-4.172 4.687,-2.605 0.52,3.652 5.73,0.516 -20.852,17.207 -10.945,-0.516 -3.652,-3.652 4.172,-10.43"
       style="fill:#036998;fill-opacity:1;fill-rule:nonzero;stroke:none"
       transform="matrix(0.13333333,0,0,-0.13333333,0,54.906667)"
       clip-path="url(#clipPath8)" />
    <path
       id="path9"
       d="m 157.48,353.906 h 13.028"
       style="fill:#036998;fill-opacity:1;fill-rule:nonzero;stroke:none"
       transform="matrix(0.13333333,0,0,-0.13333333,0,54.906667)"
       clip-path="url(#clipPath10)" />
    <path
       id="path11"
       d="m 151.211,378.406 0.527,-5.215 v -14.597 l -7.304,0.515 -3.653,4.18 3.133,5.734 1.047,5.215 4.172,8.867 2.078,-4.699"
       style="fill:#036998;fill-opacity:1;fill-rule:nonzero;stroke:none"
       transform="matrix(0.13333333,0,0,-0.13333333,0,54.906667)"
       clip-path="url(#clipPath12)" />
    <path
       id="path13"
       d="m 95.4297,305.41 -73.0078,-5.215 -3.125,-4.172 1.0469,-8.339 33.3671,-14.598 73.0001,8.34 1.043,9.383 -32.3243,14.601"
       style="fill:#036998;fill-opacity:1;fill-rule:nonzero;stroke:none"
       transform="matrix(0.13333333,0,0,-0.13333333,0,54.906667)"
       clip-path="url(#clipPath14)" />
    <path
       id="path15"
       d="M 85,317.402 27.6367,314.277 11.9922,358.074 H 67.793 L 85,317.402"
       style="fill:#036998;fill-opacity:1;fill-rule:nonzero;stroke:none"
       transform="matrix(0.13333333,0,0,-0.13333333,0,54.906667)"
       clip-path="url(#clipPath16)" />
    <path
       id="path17"
       d="m 83.957,275.168 -6.7812,11.473 -8.8672,7.293 -0.5156,-3.641 -13.0352,5.73 1.5625,-4.168 -8.3437,3.125 3.125,-5.214 -4.6953,0.527 4.6953,-7.824 5.7343,-5.211 16.6914,-8.352 10.4297,6.262"
       style="fill:#036998;fill-opacity:1;fill-rule:nonzero;stroke:none"
       transform="matrix(0.13333333,0,0,-0.13333333,0,54.906667)"
       clip-path="url(#clipPath18)" />
    <path
       id="path19"
       d="M 100.293,203.23 71.582,197.723 64.5508,187.344 65.1172,169.465 81.4336,99.3359 81.1445,71.9922 70.5859,55.5742 94.043,55.957 l 11.426,8.5743 5.078,1.5234 0.43,13.9336 -7.95,13.6523 -2.441,11.8944 1.582,32.891 -2.7344,19.621 0.8594,45.183"
       style="fill:#036998;fill-opacity:1;fill-rule:nonzero;stroke:none"
       transform="matrix(0.13333333,0,0,-0.13333333,0,54.906667)"
       clip-path="url(#clipPath20)" />
    <path
       id="path21"
       d="m 108.906,85.0781 -5.039,-0.4023 -7.4998,-7.5781 -11.0156,-13.0547 -9.543,-1.9336 3.5195,5.4804 -9.2226,-9.2109 -14.7149,-6.7969 1.0157,-2.8242 15.5273,-3.2695 13.3906,-0.4219 8.4844,3.6445 5.9375,11.5313 4.4999,-16.8828 1.672,-0.0508 7.363,20.9766 -0.156,12.8515 -4.219,7.9414"
       style="fill:#036998;fill-opacity:1;fill-rule:nonzero;stroke:none"
       transform="matrix(0.13333333,0,0,-0.13333333,0,54.906667)"
       clip-path="url(#clipPath22)" />
    <path
       id="path23"
       d="m 137.188,204.871 -34.786,-5.613 -4.8122,-11.004 -2.5117,-8.859 25.7419,-70.129 -0.293,-27.3441 -10.566,-16.4141 23.457,0.3906 11.437,8.5743 5.067,1.5117 0.43,13.9453 -7.942,13.6443 -2.437,11.903 1.59,32.882 -2.747,19.618 -1.628,36.894"
       style="fill:#036998;fill-opacity:1;fill-rule:nonzero;stroke:none"
       transform="matrix(0.13333333,0,0,-0.13333333,0,54.906667)"
       clip-path="url(#clipPath24)" />
    <path
       id="path25"
       d="m 148.281,95.0195 -5.039,-0.4023 -7.48,-7.5859 -11.016,-13.0469 -9.551,-1.9336 3.516,5.4687 -9.219,-9.1992 -14.7264,-6.7969 1.0352,-2.8242 15.5272,-3.2773 13.379,-0.4219 8.484,3.6406 5.95,11.543 4.492,-16.8828 1.68,-0.0586 7.343,20.9844 -0.156,12.8437 -4.219,7.9492"
       style="fill:#036998;fill-opacity:1;fill-rule:nonzero;stroke:none"
       transform="matrix(0.13333333,0,0,-0.13333333,0,54.906667)"
       clip-path="url(#clipPath26)" />
    <path
       id="path27"
       d="m 192.402,343.992 -26.062,-8.34 -26.067,-2.089 -20.859,-7.293 -5.215,-8.352 6.25,-33.367 -8.34,-12.508 h -6.25 l -3.132,-5.219 -12.5122,9.387 H 79.7852 l -10.4297,-8.34 4.1718,-14.601 29.1997,-19.813 21.902,-3.137 10.43,8.352 -11.473,-30.246 -23.9962,-6.258 -9.375,-21.895 9.375,-26.074 50.0582,-9.386 29.2,-3.125 25.039,3.125 13.554,10.429 4.161,12.512 1.054,10.43 6.25,7.304 -8.34,23.985 -2.089,25.019 7.304,-1.035 11.465,5.215 11.477,77.168 -7.297,12.508 -23.985,10.429 -25.039,5.215"
       style="fill:#036998;fill-opacity:1;fill-rule:nonzero;stroke:none"
       transform="matrix(0.13333333,0,0,-0.13333333,0,54.906667)"
       clip-path="url(#clipPath28)" />
    <path
       id="path29"
       d="m 152.988,396.004 11.668,4.172 23.332,-7.5 5,-35 -2.5,-15.832 -27.5,-6.668 -12.5,14.168 -2.5,20.832 5,25.828"
       style="fill:#036998;fill-opacity:1;fill-rule:nonzero;stroke:none"
       transform="matrix(0.13333333,0,0,-0.13333333,0,54.906667)"
       clip-path="url(#clipPath30)" />
    <path
       id="path31"
       d="m 222.441,176.492 -9.375,5 -9.375,-10 -28.75,-4.375 -28.75,11.25 -22.605,30.059 -23.9962,-6.258 -9.375,-21.895 9.375,-26.074 69.1012,-12.082 35.196,2.696 13.554,10.429 5,21.25"
       style="fill:#036998;fill-opacity:1;fill-rule:nonzero;stroke:none"
       transform="matrix(0.13333333,0,0,-0.13333333,0,54.906667)"
       clip-path="url(#clipPath32)" />
    <path
       id="path33"
       d="m 151.738,359.637 6.778,-13.555 4.179,-3.652 4.16,-2.09 1.563,-10.43 -9.902,-5.215 -4.168,-1.562 -14.602,-1.563 -7.305,2.61 -3.652,6.777 4.695,-1.047 3.137,2.61 -5.215,2.089 -3.125,3.653 v 4.687 l 4.16,-2.609 6.27,1.562 -2.617,2.09 -1.035,3.653 6.25,0.519 1.562,4.168 -1.035,3.652 4.687,7.825 5.215,-4.172"
       style="fill:#036998;fill-opacity:1;fill-rule:nonzero;stroke:none"
       transform="matrix(0.13333333,0,0,-0.13333333,0,54.906667)"
       clip-path="url(#clipPath34)" />
    <path
       id="path35"
       d="m 189.316,358.816 0.52,-4.687 -2.082,-2.606 h -3.652 l 2.082,-2.609 3.652,-0.527 -0.52,-3.641 -3.132,-2.09 -4.7,0.516 2.09,-3.641 4.688,-1.574 4.179,2.09 -0.527,-4.695 -2.078,-4.688 -4.699,-1.562 4.179,-2.61 6.25,1.047 -1.562,-4.699 v -5.215 l 3.652,1.563 3.653,4.171 2.597,-3.125 5.215,-2.609 7.832,-2.605 8.86,-1.563 6.777,3.652 1.57,4.168 -4.707,-0.515 -4.687,1.562 3.652,1.563 2.605,3.125 2.61,5.73 -3.125,3.653 -1.563,-3.653 -3.132,-2.078 -0.52,4.688 1.035,4.179 -3.652,-1.047 -4.688,1.047 1.563,4.688 2.09,3.652 -0.528,5.215 -2.082,-2.09 -3.133,-1.047 -4.687,1.047 1.562,3.133 0.528,4.687 -2.617,2.09 -1.036,-2.605 -3.125,1.043 v 5.734 h -10.429 l -6.778,-6.262"
       style="fill:#036998;fill-opacity:1;fill-rule:nonzero;stroke:none"
       transform="matrix(0.13333333,0,0,-0.13333333,0,54.906667)"
       clip-path="url(#clipPath36)" />
    <path
       id="path37"
       d="m 190.566,322.742 -6.875,-8.125 -9.375,9.375 c 0,0 -4.375,-11.875 -7.5,-8.125 l -1.25,7.5 -5.625,-4.375 c 0,0 -13.125,-2.5 -10,0 3.125,2.5 3.125,7.5 3.125,7.5 l 18.75,20 25.625,-1.25 -6.875,-22.5"
       style="fill:#036998;fill-opacity:1;fill-rule:nonzero;stroke:none"
       transform="matrix(0.13333333,0,0,-0.13333333,0,54.906667)"
       clip-path="url(#clipPath38)" />
    <path
       id="path39"
       d="M 172.051,135.254 170.879,90.2734 109.922,76.5508 c -9.531,2.1797 -12.4025,-9.7149 -12.4025,-9.7149 l -0.332,-8.3984 4.8045,-0.1836 -0.312,-7.793 c 4.465,-8.5859 12.597,-0.5 12.597,-0.5 l 0.371,9.5899 49.082,17.1953 -43.808,-32.2148 C 112.207,31.6328 118.328,19.375 118.328,19.375 111.887,8.22266 122.363,0 122.363,0 c 14.114,-7.75391 14.2,9.64844 14.2,9.64844 2.207,10.12496 -7.989,10.52736 -7.989,10.52736 l -2.761,6.1133 53.328,45.0507 62.109,-41.8867 2.715,-7.3164 c -7.168,-14.12107 4.64,-19.39451 4.64,-19.39451 16.668,-3.660159 10.665,11.59371 10.665,11.59371 0.925,8.3672 -5.665,8.625 -5.665,8.625 l -4.582,5.586 c 0,0 -4.277,-1.6328 0.684,2.3789 4.973,4.0039 1.816,15.539 1.816,15.539 l -57.675,32.6954 41.777,-10.8399 8.184,-5.7226 c -0.547,-13.7891 9.218,-9.9688 9.218,-9.9688 10.188,-0.4023 4.618,10.625 4.618,10.625 -3.485,3.1328 -8.204,5.125 -8.204,5.125 l -4.226,8.625 -23.938,6.8438 -36.043,6.707 1.043,39.9333"
       style="fill:#036998;fill-opacity:1;fill-rule:nonzero;stroke:none"
       transform="matrix(0.13333333,0,0,-0.13333333,0,54.906667)"
       clip-path="url(#clipPath40)" />
    <path
       id="path41"
       d="m 157.656,123.191 -80.4685,27.571 c -5.3516,5.496 1.5234,15.215 1.5234,15.215 L 158.105,140.82"
       style="fill:#036998;fill-opacity:1;fill-rule:nonzero;stroke:none"
       transform="matrix(0.13333333,0,0,-0.13333333,0,54.906667)"
       clip-path="url(#clipPath42)" />
    <path
       id="path43"
       d="m 215.293,142.793 -55.801,-21.008 0.606,48.012 c 41.394,106.793 48,106.199 48,106.199 13.797,7.793 17.39,8.399 17.39,8.399 19.805,-1.204 26.856,5.945 26.856,5.945 6.601,5.402 13.203,-2.402 13.203,-2.402 L 215.293,142.793"
       style="fill:#036998;fill-opacity:1;fill-rule:nonzero;stroke:none"
       transform="matrix(0.13333333,0,0,-0.13333333,0,54.906667)"
       clip-path="url(#clipPath44)" />
  </g>
</svg>
