<?xml version="1.0" encoding="UTF-8" standalone="no"?>
<!-- Created with Inkscape (http://www.inkscape.org/) -->

<svg
   version="1.1"
   id="svg1"
   width="80.466667"
   height="38.533333"
   viewBox="0 0 80.466667 38.533333"
   sodipodi:docname="fax.eps"
   xmlns:inkscape="http://www.inkscape.org/namespaces/inkscape"
   xmlns:sodipodi="http://sodipodi.sourceforge.net/DTD/sodipodi-0.dtd"
   xmlns="http://www.w3.org/2000/svg"
   xmlns:svg="http://www.w3.org/2000/svg">
  <defs
     id="defs1">
    <clipPath
       clipPathUnits="userSpaceOnUse"
       id="clipPath2">
      <path
         d="M 0,289 H 600 V 0 H 0 Z"
         id="path2" />
    </clipPath>
    <clipPath
       clipPathUnits="userSpaceOnUse"
       id="clipPath4">
      <path
         d="M 0,289 H 600 V 0 H 0 Z"
         id="path4" />
    </clipPath>
    <clipPath
       clipPathUnits="userSpaceOnUse"
       id="clipPath6">
      <path
         d="M 0,289 H 600 V 0 H 0 Z"
         id="path6" />
    </clipPath>
    <clipPath
       clipPathUnits="userSpaceOnUse"
       id="clipPath8">
      <path
         d="M 0,289 H 600 V 0 H 0 Z"
         id="path8" />
    </clipPath>
    <clipPath
       clipPathUnits="userSpaceOnUse"
       id="clipPath10">
      <path
         d="M 0,289 H 600 V 0 H 0 Z"
         id="path10" />
    </clipPath>
    <clipPath
       clipPathUnits="userSpaceOnUse"
       id="clipPath12">
      <path
         d="M 0,289 H 600 V 0 H 0 Z"
         id="path12" />
    </clipPath>
    <clipPath
       clipPathUnits="userSpaceOnUse"
       id="clipPath14">
      <path
         d="M 0,289 H 600 V 0 H 0 Z"
         id="path14" />
    </clipPath>
    <clipPath
       clipPathUnits="userSpaceOnUse"
       id="clipPath16">
      <path
         d="M 0,289 H 600 V 0 H 0 Z"
         id="path16" />
    </clipPath>
    <clipPath
       clipPathUnits="userSpaceOnUse"
       id="clipPath18">
      <path
         d="M 0,289 H 600 V 0 H 0 Z"
         id="path18" />
    </clipPath>
    <clipPath
       clipPathUnits="userSpaceOnUse"
       id="clipPath20">
      <path
         d="M 0,289 H 600 V 0 H 0 Z"
         id="path20" />
    </clipPath>
    <clipPath
       clipPathUnits="userSpaceOnUse"
       id="clipPath22">
      <path
         d="M 0,289 H 600 V 0 H 0 Z"
         id="path22" />
    </clipPath>
    <clipPath
       clipPathUnits="userSpaceOnUse"
       id="clipPath24">
      <path
         d="M 0,289 H 600 V 0 H 0 Z"
         id="path24" />
    </clipPath>
    <clipPath
       clipPathUnits="userSpaceOnUse"
       id="clipPath26">
      <path
         d="M 0,289 H 600 V 0 H 0 Z"
         id="path26" />
    </clipPath>
    <clipPath
       clipPathUnits="userSpaceOnUse"
       id="clipPath28">
      <path
         d="M 0,289 H 600 V 0 H 0 Z"
         id="path28" />
    </clipPath>
    <clipPath
       clipPathUnits="userSpaceOnUse"
       id="clipPath30">
      <path
         d="M 0,289 H 600 V 0 H 0 Z"
         id="path30" />
    </clipPath>
    <clipPath
       clipPathUnits="userSpaceOnUse"
       id="clipPath32">
      <path
         d="M 0,289 H 600 V 0 H 0 Z"
         id="path32" />
    </clipPath>
    <clipPath
       clipPathUnits="userSpaceOnUse"
       id="clipPath34">
      <path
         d="M 0,289 H 600 V 0 H 0 Z"
         id="path34" />
    </clipPath>
    <clipPath
       clipPathUnits="userSpaceOnUse"
       id="clipPath36">
      <path
         d="M 0,289 H 600 V 0 H 0 Z"
         id="path36" />
    </clipPath>
    <clipPath
       clipPathUnits="userSpaceOnUse"
       id="clipPath38">
      <path
         d="M 0,289 H 600 V 0 H 0 Z"
         id="path38" />
    </clipPath>
    <clipPath
       clipPathUnits="userSpaceOnUse"
       id="clipPath40">
      <path
         d="M 0,289 H 600 V 0 H 0 Z"
         id="path40" />
    </clipPath>
    <clipPath
       clipPathUnits="userSpaceOnUse"
       id="clipPath42">
      <path
         d="M 0,289 H 600 V 0 H 0 Z"
         id="path42" />
    </clipPath>
    <clipPath
       clipPathUnits="userSpaceOnUse"
       id="clipPath44">
      <path
         d="M 0,289 H 600 V 0 H 0 Z"
         id="path44" />
    </clipPath>
    <clipPath
       clipPathUnits="userSpaceOnUse"
       id="clipPath46">
      <path
         d="M 0,289 H 600 V 0 H 0 Z"
         id="path46" />
    </clipPath>
    <clipPath
       clipPathUnits="userSpaceOnUse"
       id="clipPath48">
      <path
         d="M 0,289 H 600 V 0 H 0 Z"
         id="path48" />
    </clipPath>
    <clipPath
       clipPathUnits="userSpaceOnUse"
       id="clipPath50">
      <path
         d="M 0,289 H 600 V 0 H 0 Z"
         id="path50" />
    </clipPath>
    <clipPath
       clipPathUnits="userSpaceOnUse"
       id="clipPath52">
      <path
         d="M 0,289 H 600 V 0 H 0 Z"
         id="path52" />
    </clipPath>
    <clipPath
       clipPathUnits="userSpaceOnUse"
       id="clipPath54">
      <path
         d="M 0,289 H 600 V 0 H 0 Z"
         id="path54" />
    </clipPath>
    <clipPath
       clipPathUnits="userSpaceOnUse"
       id="clipPath56">
      <path
         d="M 0,289 H 600 V 0 H 0 Z"
         id="path56" />
    </clipPath>
    <clipPath
       clipPathUnits="userSpaceOnUse"
       id="clipPath58">
      <path
         d="M 0,289 H 600 V 0 H 0 Z"
         id="path58" />
    </clipPath>
    <clipPath
       clipPathUnits="userSpaceOnUse"
       id="clipPath60">
      <path
         d="M 0,289 H 600 V 0 H 0 Z"
         id="path60" />
    </clipPath>
    <clipPath
       clipPathUnits="userSpaceOnUse"
       id="clipPath62">
      <path
         d="M 0,289 H 600 V 0 H 0 Z"
         id="path62" />
    </clipPath>
  </defs>
  <sodipodi:namedview
     id="namedview1"
     pagecolor="#505050"
     bordercolor="#eeeeee"
     borderopacity="1"
     inkscape:showpageshadow="0"
     inkscape:pageopacity="0"
     inkscape:pagecheckerboard="0"
     inkscape:deskcolor="#d1d1d1">
    <inkscape:page
       x="0"
       y="0"
       inkscape:label="1"
       id="page1"
       width="80.466667"
       height="38.533333"
       margin="0"
       bleed="0" />
  </sodipodi:namedview>
  <g
     id="g1"
     inkscape:groupmode="layer"
     inkscape:label="1">
    <path
       id="path1"
       d="m 5.58984,5.29297 h 397.754 v 131.188 H 5.58984 Z"
       style="fill:#02709f;fill-opacity:1;fill-rule:nonzero;stroke:none"
       transform="matrix(0.13333333,0,0,-0.13333333,0,38.533333)"
       clip-path="url(#clipPath2)" />
    <path
       id="path3"
       d="M 5.58984,5.29297 V 136.48 H 403.344 V 5.29297 Z"
       style="fill:none;stroke:#ffffff;stroke-width:3.99994;stroke-linecap:butt;stroke-linejoin:miter;stroke-miterlimit:4;stroke-dasharray:none;stroke-opacity:1"
       transform="matrix(0.13333333,0,0,-0.13333333,0,38.533333)"
       clip-path="url(#clipPath4)" />
    <path
       id="path5"
       d="M 5.58984,136.48 H 403.344 l 63.117,63.11 H 82.543 L 5.58984,136.48"
       style="fill:#02709f;fill-opacity:1;fill-rule:nonzero;stroke:none"
       transform="matrix(0.13333333,0,0,-0.13333333,0,38.533333)"
       clip-path="url(#clipPath6)" />
    <path
       id="path7"
       d="M 5.58984,136.48 H 403.344 l 63.117,63.11 H 82.543 Z"
       style="fill:none;stroke:#ffffff;stroke-width:3.99994;stroke-linecap:butt;stroke-linejoin:miter;stroke-miterlimit:4;stroke-dasharray:none;stroke-opacity:1"
       transform="matrix(0.13333333,0,0,-0.13333333,0,38.533333)"
       clip-path="url(#clipPath8)" />
    <path
       id="path9"
       d="M 403.344,5.29297 466.461,76.8711 V 199.59 L 403.344,136.48 V 5.29297"
       style="fill:#02709f;fill-opacity:1;fill-rule:nonzero;stroke:none"
       transform="matrix(0.13333333,0,0,-0.13333333,0,38.533333)"
       clip-path="url(#clipPath10)" />
    <path
       id="path11"
       d="M 403.344,5.29297 466.461,76.8711 V 199.59 l -63.117,-63.11 z"
       style="fill:none;stroke:#ffffff;stroke-width:3.99994;stroke-linecap:butt;stroke-linejoin:miter;stroke-miterlimit:4;stroke-dasharray:none;stroke-opacity:1"
       transform="matrix(0.13333333,0,0,-0.13333333,0,38.533333)"
       clip-path="url(#clipPath12)" />
    <path
       id="path13"
       d="m 114.691,214.488 -5.078,-27.129 h 48.977 l -5.09,27.129 h -38.809"
       style="fill:#02709f;fill-opacity:1;fill-rule:nonzero;stroke:none"
       transform="matrix(0.13333333,0,0,-0.13333333,0,38.533333)"
       clip-path="url(#clipPath14)" />
    <path
       id="path15"
       d="m 114.691,214.488 -5.078,-27.129 h 48.977 l -5.09,27.129 z"
       style="fill:none;stroke:#ffffff;stroke-width:3.99994;stroke-linecap:butt;stroke-linejoin:miter;stroke-miterlimit:4;stroke-dasharray:none;stroke-opacity:1"
       transform="matrix(0.13333333,0,0,-0.13333333,0,38.533333)"
       clip-path="url(#clipPath16)" />
    <path
       id="path17"
       d="m 54.0469,170.707 -5.0781,-27.133 h 48.9648 l -5.0781,27.133 H 54.0469"
       style="fill:#02709f;fill-opacity:1;fill-rule:nonzero;stroke:none"
       transform="matrix(0.13333333,0,0,-0.13333333,0,38.533333)"
       clip-path="url(#clipPath18)" />
    <path
       id="path19"
       d="m 54.0469,170.707 -5.0781,-27.133 h 48.9648 l -5.0781,27.133 z"
       style="fill:none;stroke:#ffffff;stroke-width:3.99994;stroke-linecap:butt;stroke-linejoin:miter;stroke-miterlimit:4;stroke-dasharray:none;stroke-opacity:1"
       transform="matrix(0.13333333,0,0,-0.13333333,0,38.533333)"
       clip-path="url(#clipPath20)" />
    <path
       id="path21"
       d="m 120.563,181.438 h 29.832 l -7.032,16.218 -22.8,-16.218"
       style="fill:#02709f;fill-opacity:1;fill-rule:nonzero;stroke:none"
       transform="matrix(0.13333333,0,0,-0.13333333,0,38.533333)"
       clip-path="url(#clipPath22)" />
    <path
       id="path23"
       d="m 120.563,181.438 h 29.832 l -7.032,16.218 z"
       style="fill:none;stroke:#ffffff;stroke-width:3.99994;stroke-linecap:butt;stroke-linejoin:miter;stroke-miterlimit:4;stroke-dasharray:none;stroke-opacity:1"
       transform="matrix(0.13333333,0,0,-0.13333333,0,38.533333)"
       clip-path="url(#clipPath24)" />
    <path
       id="path25"
       d="M 114.691,214.488 C 82.1914,217.875 52.875,179.504 54.0469,170.707 H 92.8555 C 91.6758,179.504 121,217.875 153.5,214.488 h -38.809"
       style="fill:#02709f;fill-opacity:1;fill-rule:nonzero;stroke:none"
       transform="matrix(0.13333333,0,0,-0.13333333,0,38.533333)"
       clip-path="url(#clipPath26)" />
    <path
       id="path27"
       d="M 114.691,214.488 C 82.1914,217.875 52.875,179.504 54.0469,170.707 H 92.8555 C 91.6758,179.504 121,217.875 153.5,214.488 Z"
       style="fill:none;stroke:#ffffff;stroke-width:3.99994;stroke-linecap:butt;stroke-linejoin:miter;stroke-miterlimit:4;stroke-dasharray:none;stroke-opacity:1"
       transform="matrix(0.13333333,0,0,-0.13333333,0,38.533333)"
       clip-path="url(#clipPath28)" />
    <path
       id="path29"
       d="m 158.59,187.359 -8.195,-5.921 -7.032,16.218 L 119.027,180.09 116.5,156.973 97.9336,143.574 92.8555,170.707 C 91.6758,179.504 121,217.875 153.5,214.488 l 5.09,-27.129"
       style="fill:#02709f;fill-opacity:1;fill-rule:nonzero;stroke:none"
       transform="matrix(0.13333333,0,0,-0.13333333,0,38.533333)"
       clip-path="url(#clipPath30)" />
    <path
       id="path31"
       d="m 158.59,187.359 -8.195,-5.921 -7.032,16.218 L 119.027,180.09 116.5,156.973 97.9336,143.574 92.8555,170.707 C 91.6758,179.504 121,217.875 153.5,214.488 Z"
       style="fill:none;stroke:#ffffff;stroke-width:3.99994;stroke-linecap:butt;stroke-linejoin:miter;stroke-miterlimit:4;stroke-dasharray:none;stroke-opacity:1"
       transform="matrix(0.13333333,0,0,-0.13333333,0,38.533333)"
       clip-path="url(#clipPath32)" />
    <path
       id="path33"
       d="m 207.75,285.832 -63.117,-63.105 h 8.633 l 63.105,63.105 h -8.621"
       style="fill:#02709f;fill-opacity:1;fill-rule:nonzero;stroke:none"
       transform="matrix(0.13333333,0,0,-0.13333333,0,38.533333)"
       clip-path="url(#clipPath34)" />
    <path
       id="path35"
       d="m 207.75,285.832 -63.117,-63.105 h 8.633 l 63.105,63.105 z"
       style="fill:none;stroke:#ffffff;stroke-width:3.99994;stroke-linecap:butt;stroke-linejoin:miter;stroke-miterlimit:4;stroke-dasharray:none;stroke-opacity:1"
       transform="matrix(0.13333333,0,0,-0.13333333,0,38.533333)"
       clip-path="url(#clipPath36)" />
    <path
       id="path37"
       d="m 270.707,199.59 -63.113,-63.11 -54.328,86.247 63.105,63.105 54.336,-86.242"
       style="fill:#02709f;fill-opacity:1;fill-rule:nonzero;stroke:none"
       transform="matrix(0.13333333,0,0,-0.13333333,0,38.533333)"
       clip-path="url(#clipPath38)" />
    <path
       id="path39"
       d="m 270.707,199.59 -63.113,-63.11 -54.328,86.247 63.105,63.105 z"
       style="fill:none;stroke:#ffffff;stroke-width:3.99994;stroke-linecap:butt;stroke-linejoin:miter;stroke-miterlimit:4;stroke-dasharray:none;stroke-opacity:1"
       transform="matrix(0.13333333,0,0,-0.13333333,0,38.533333)"
       clip-path="url(#clipPath40)" />
    <path
       id="path41"
       d="m 198.969,136.48 -54.336,86.247 h 8.633 l 54.328,-86.247 h -8.625"
       style="fill:#02709f;fill-opacity:1;fill-rule:nonzero;stroke:none"
       transform="matrix(0.13333333,0,0,-0.13333333,0,38.533333)"
       clip-path="url(#clipPath42)" />
    <path
       id="path43"
       d="m 198.969,136.48 -54.336,86.247 h 8.633 l 54.328,-86.247 z"
       style="fill:none;stroke:#ffffff;stroke-width:3.99994;stroke-linecap:butt;stroke-linejoin:miter;stroke-miterlimit:4;stroke-dasharray:none;stroke-opacity:1"
       transform="matrix(0.13333333,0,0,-0.13333333,0,38.533333)"
       clip-path="url(#clipPath44)" />
    <path
       id="path45"
       d="M 600.902,179.645 536.949,115.191 402.836,67.3789 466.793,131.824 600.902,179.645"
       style="fill:#02709f;fill-opacity:1;fill-rule:nonzero;stroke:#ffffff;stroke-width:3.99994;stroke-linecap:butt;stroke-linejoin:miter;stroke-miterlimit:4;stroke-dasharray:none;stroke-opacity:1"
       transform="matrix(0.13333333,0,0,-0.13333333,0,38.533333)"
       clip-path="url(#clipPath46)" />
    <path
       id="path47"
       d="m 601.41,168.496 -63.945,-64.453 -0.516,11.148 63.953,64.454 0.508,-11.149"
       style="fill:#02709f;fill-opacity:1;fill-rule:nonzero;stroke:none"
       transform="matrix(0.13333333,0,0,-0.13333333,0,38.533333)"
       clip-path="url(#clipPath48)" />
    <path
       id="path49"
       d="m 601.41,168.496 -63.945,-64.453 -0.516,11.148 63.953,64.454 z"
       style="fill:none;stroke:#ffffff;stroke-width:3.99994;stroke-linecap:butt;stroke-linejoin:miter;stroke-miterlimit:4;stroke-dasharray:none;stroke-opacity:1"
       transform="matrix(0.13333333,0,0,-0.13333333,0,38.533333)"
       clip-path="url(#clipPath50)" />
    <path
       id="path51"
       d="m 402.836,67.3789 v -7.3008 l 134.629,43.9649 v 11.148 L 402.836,67.3789"
       style="fill:#02709f;fill-opacity:1;fill-rule:nonzero;stroke:none"
       transform="matrix(0.13333333,0,0,-0.13333333,0,38.533333)"
       clip-path="url(#clipPath52)" />
    <path
       id="path53"
       d="m 402.836,67.3789 v -7.3008 l 134.629,43.9649 v 11.148 z"
       style="fill:none;stroke:#ffffff;stroke-width:3.99994;stroke-linecap:butt;stroke-linejoin:miter;stroke-miterlimit:4;stroke-dasharray:none;stroke-opacity:1"
       transform="matrix(0.13333333,0,0,-0.13333333,0,38.533333)"
       clip-path="url(#clipPath54)" />
    <path
       id="path55"
       d="m 205.102,271.055 51.621,-81.93"
       style="fill:#02709f;fill-opacity:1;fill-rule:nonzero;stroke:#ffffff;stroke-width:3.99994;stroke-linecap:butt;stroke-linejoin:miter;stroke-miterlimit:4;stroke-dasharray:none;stroke-opacity:1"
       transform="matrix(0.13333333,0,0,-0.13333333,0,38.533333)"
       clip-path="url(#clipPath56)" />
    <path
       id="path57"
       d="m 192.484,258.434 51.621,-81.93"
       style="fill:#02709f;fill-opacity:1;fill-rule:nonzero;stroke:#ffffff;stroke-width:3.99994;stroke-linecap:butt;stroke-linejoin:miter;stroke-miterlimit:4;stroke-dasharray:none;stroke-opacity:1"
       transform="matrix(0.13333333,0,0,-0.13333333,0,38.533333)"
       clip-path="url(#clipPath58)" />
    <path
       id="path59"
       d="m 179.867,245.813 51.613,-81.93"
       style="fill:#02709f;fill-opacity:1;fill-rule:nonzero;stroke:#ffffff;stroke-width:3.99994;stroke-linecap:butt;stroke-linejoin:miter;stroke-miterlimit:4;stroke-dasharray:none;stroke-opacity:1"
       transform="matrix(0.13333333,0,0,-0.13333333,0,38.533333)"
       clip-path="url(#clipPath60)" />
    <path
       id="path61"
       d="m 167.242,233.188 51.61,-81.926"
       style="fill:#02709f;fill-opacity:1;fill-rule:nonzero;stroke:#ffffff;stroke-width:3.99994;stroke-linecap:butt;stroke-linejoin:miter;stroke-miterlimit:4;stroke-dasharray:none;stroke-opacity:1"
       transform="matrix(0.13333333,0,0,-0.13333333,0,38.533333)"
       clip-path="url(#clipPath62)" />
  </g>
</svg>
