<?xml version="1.0" encoding="UTF-8" standalone="no"?>
<!-- Created with Inkscape (http://www.inkscape.org/) -->

<svg
   version="1.1"
   id="svg1"
   width="816"
   height="1056"
   viewBox="0 0 816 1056"
   sodipodi:docname="internet streamer.eps"
   xmlns:inkscape="http://www.inkscape.org/namespaces/inkscape"
   xmlns:sodipodi="http://sodipodi.sourceforge.net/DTD/sodipodi-0.dtd"
   xmlns="http://www.w3.org/2000/svg"
   xmlns:svg="http://www.w3.org/2000/svg">
  <defs
     id="defs1" />
  <sodipodi:namedview
     id="namedview1"
     pagecolor="#505050"
     bordercolor="#eeeeee"
     borderopacity="1"
     inkscape:showpageshadow="0"
     inkscape:pageopacity="0"
     inkscape:pagecheckerboard="0"
     inkscape:deskcolor="#d1d1d1">
    <inkscape:page
       x="0"
       y="0"
       inkscape:label="1"
       id="page1"
       width="816"
       height="1056"
       margin="785.98505 165.77347 128.16147 389.89188"
       bleed="0" />
  </sodipodi:namedview>
  <g
     id="g1"
     inkscape:groupmode="layer"
     inkscape:label="1">
    <g
       id="group-R8">
      <path
         id="path2"
         d="m 2926.58,6207.22 v -309.94 h 475.38 v 309.94 h -475.38 v 0 0 0"
         style="fill:#20a3e4;fill-opacity:1;fill-rule:evenodd;stroke:none"
         transform="matrix(0.13333333,0,0,-0.13333333,0,1056)" />
      <path
         id="path3"
         d="m 2926.58,6207.22 v -309.94 h 475.38 v 309.94 h -475.38 v 0 0 z"
         style="fill:none;stroke:#afdff4;stroke-width:4.771;stroke-linecap:square;stroke-linejoin:bevel;stroke-miterlimit:10;stroke-dasharray:none;stroke-opacity:1"
         transform="matrix(0.13333333,0,0,-0.13333333,0,1056)" />
      <path
         id="path4"
         d="m 2926.58,6207.22 38.33,39.69 h 475.38 l -38.33,-39.69 h -475.38 v 0 0 0"
         style="fill:#43b6ea;fill-opacity:1;fill-rule:evenodd;stroke:none"
         transform="matrix(0.13333333,0,0,-0.13333333,0,1056)" />
      <path
         id="path5"
         d="m 2926.58,6207.22 38.33,39.69 h 475.38 l -38.33,-39.69 h -475.38 v 0 0 z"
         style="fill:none;stroke:#afdff4;stroke-width:4.771;stroke-linecap:square;stroke-linejoin:bevel;stroke-miterlimit:10;stroke-dasharray:none;stroke-opacity:1"
         transform="matrix(0.13333333,0,0,-0.13333333,0,1056)" />
      <path
         id="path6"
         d="m 3401.96,6207.22 38.33,39.69 v -309.94 l -38.33,-39.69 v 309.94 0 0 0"
         style="fill:#1d76a0;fill-opacity:1;fill-rule:evenodd;stroke:none"
         transform="matrix(0.13333333,0,0,-0.13333333,0,1056)" />
      <path
         id="path7"
         d="m 3401.96,6207.22 38.33,39.69 v -309.94 l -38.33,-39.69 v 309.94 0 0 z"
         style="fill:none;stroke:#afdff4;stroke-width:4.771;stroke-linecap:square;stroke-linejoin:bevel;stroke-miterlimit:10;stroke-dasharray:none;stroke-opacity:1"
         transform="matrix(0.13333333,0,0,-0.13333333,0,1056)" />
      <path
         id="path8"
         d="m 3308.42,6140.04 v 18.32 l 42.94,-30.54 -42.94,-30.53 v 18.32 h -58.28 v 24.43 h 58.28 v 0 0 0"
         style="fill:#242021;fill-opacity:1;fill-rule:evenodd;stroke:none"
         transform="matrix(0.13333333,0,0,-0.13333333,0,1056)" />
      <path
         id="path9"
         d="m 3069.79,6062.17 v 18.32 l 42.94,-30.54 -42.94,-30.52 v 18.32 h -111.01 v 24.42 h 111.01 v 0 0 0"
         style="fill:#242021;fill-opacity:1;fill-rule:evenodd;stroke:none"
         transform="matrix(0.13333333,0,0,-0.13333333,0,1056)" />
      <path
         id="path10"
         d="m 3308.42,5984.31 v 18.31 l 42.94,-30.53 -42.94,-30.54 v 18.33 h -58.28 v 24.43 h 58.28 v 0 0 0"
         style="fill:#242021;fill-opacity:1;fill-rule:evenodd;stroke:none"
         transform="matrix(0.13333333,0,0,-0.13333333,0,1056)" />
      <path
         id="path11"
         d="m 3302.29,6146.14 v 16.8 l 42.94,-29.01 -42.94,-30.54 v 18.32 h -58.27 v 24.43 h 58.27 v 0 0 0"
         style="fill:#ffffff;fill-opacity:1;fill-rule:evenodd;stroke:none"
         transform="matrix(0.13333333,0,0,-0.13333333,0,1056)" />
      <path
         id="path12"
         d="m 3063.65,6068.28 v 18.32 l 42.94,-30.54 -42.94,-30.53 v 18.32 h -109.47 v 24.43 h 109.47 v 0 0 0"
         style="fill:#ffffff;fill-opacity:1;fill-rule:evenodd;stroke:none"
         transform="matrix(0.13333333,0,0,-0.13333333,0,1056)" />
      <path
         id="path13"
         d="m 3346.76,6062.17 v 18.32 l 44.47,-30.54 -44.47,-30.52 v 18.32 h -98.15 v 24.42 h 98.15 v 0 0 0"
         style="fill:#242021;fill-opacity:1;fill-rule:evenodd;stroke:none"
         transform="matrix(0.13333333,0,0,-0.13333333,0,1056)" />
      <path
         id="path14"
         d="m 3342.16,6068.28 v 18.32 l 42.94,-30.54 -42.94,-30.53 v 18.32 h -99.68 v 24.43 h 99.68 v 0 0 0"
         style="fill:#ffffff;fill-opacity:1;fill-rule:evenodd;stroke:none"
         transform="matrix(0.13333333,0,0,-0.13333333,0,1056)" />
      <path
         id="path15"
         d="m 3302.29,5990.41 v 18.32 l 42.94,-30.53 -42.94,-30.54 v 18.33 h -58.27 v 24.42 h 58.27 v 0 0 0"
         style="fill:#ffffff;fill-opacity:1;fill-rule:evenodd;stroke:none"
         transform="matrix(0.13333333,0,0,-0.13333333,0,1056)" />
      <path
         id="path16"
         d="m 3228.57,6181.26 v -258.03 h -113.4 v 258.03 h 113.4 v 0 0"
         style="fill:#1c7ba7;fill-opacity:1;fill-rule:evenodd;stroke:none"
         transform="matrix(0.13333333,0,0,-0.13333333,0,1056)" />
      <path
         id="path17"
         d="m 3228.57,6181.26 v -258.03 h -113.4 v 258.03 h 113.4 v 0 z"
         style="fill:none;stroke:#8ed0f2;stroke-width:7.157;stroke-linecap:square;stroke-linejoin:miter;stroke-miterlimit:10;stroke-dasharray:none;stroke-opacity:1"
         transform="matrix(0.13333333,0,0,-0.13333333,0,1056)" />
      <path
         id="path18"
         d="m 3197.97,5982.78 v -35.12 h -49.07 v 35.12 h 49.07 v 0 0"
         style="fill:#ffffff;fill-opacity:1;fill-rule:evenodd;stroke:none"
         transform="matrix(0.13333333,0,0,-0.13333333,0,1056)" />
      <path
         id="path19"
         d="m 3197.97,5982.78 v -35.12 h -49.07 v 35.12 h 49.07 v 0 z"
         style="fill:none;stroke:#ffffff;stroke-width:2.3859;stroke-linecap:square;stroke-linejoin:miter;stroke-miterlimit:10;stroke-dasharray:none;stroke-opacity:1"
         transform="matrix(0.13333333,0,0,-0.13333333,0,1056)" />
      <path
         id="path20"
         d="m 3220.92,5947.66 v -10.69 h -9.14 v 10.69 h 9.14 v 0 0"
         style="fill:#ffffff;fill-opacity:1;fill-rule:evenodd;stroke:none"
         transform="matrix(0.13333333,0,0,-0.13333333,0,1056)" />
      <path
         id="path21"
         d="m 3220.92,5947.66 v -10.69 h -9.14 v 10.69 h 9.14 v 0 z"
         style="fill:none;stroke:#ffffff;stroke-width:2.3859;stroke-linecap:square;stroke-linejoin:miter;stroke-miterlimit:10;stroke-dasharray:none;stroke-opacity:1"
         transform="matrix(0.13333333,0,0,-0.13333333,0,1056)" />
      <path
         id="path22"
         d="m 3220.92,5969.04 v -10.69 h -9.14 v 10.69 h 9.14 v 0 0"
         style="fill:#ffffff;fill-opacity:1;fill-rule:evenodd;stroke:none"
         transform="matrix(0.13333333,0,0,-0.13333333,0,1056)" />
      <path
         id="path23"
         d="m 3220.92,5969.04 v -10.69 h -9.14 v 10.69 h 9.14 v 0 z"
         style="fill:none;stroke:#ffffff;stroke-width:2.3859;stroke-linecap:square;stroke-linejoin:miter;stroke-miterlimit:10;stroke-dasharray:none;stroke-opacity:1"
         transform="matrix(0.13333333,0,0,-0.13333333,0,1056)" />
      <path
         id="path24"
         d="m 3220.92,5990.41 v -10.69 h -9.14 v 10.69 h 9.14 v 0 0"
         style="fill:#ffffff;fill-opacity:1;fill-rule:evenodd;stroke:none"
         transform="matrix(0.13333333,0,0,-0.13333333,0,1056)" />
      <path
         id="path25"
         d="m 3220.92,5990.41 v -10.69 h -9.14 v 10.69 h 9.14 v 0 z"
         style="fill:none;stroke:#ffffff;stroke-width:2.3859;stroke-linecap:square;stroke-linejoin:miter;stroke-miterlimit:10;stroke-dasharray:none;stroke-opacity:1"
         transform="matrix(0.13333333,0,0,-0.13333333,0,1056)" />
      <path
         id="path26"
         d="m 3220.92,6010.26 v -9.16 h -9.14 v 9.16 h 9.14 v 0 0"
         style="fill:#ffffff;fill-opacity:1;fill-rule:evenodd;stroke:none"
         transform="matrix(0.13333333,0,0,-0.13333333,0,1056)" />
      <path
         id="path27"
         d="m 3220.92,6010.26 v -9.16 h -9.14 v 9.16 h 9.14 v 0 z"
         style="fill:none;stroke:#ffffff;stroke-width:2.3859;stroke-linecap:square;stroke-linejoin:miter;stroke-miterlimit:10;stroke-dasharray:none;stroke-opacity:1"
         transform="matrix(0.13333333,0,0,-0.13333333,0,1056)" />
      <path
         id="path28"
         d="m 3220.92,6031.63 v -9.16 h -9.14 v 9.16 h 9.14 v 0 0"
         style="fill:#ffffff;fill-opacity:1;fill-rule:evenodd;stroke:none"
         transform="matrix(0.13333333,0,0,-0.13333333,0,1056)" />
      <path
         id="path29"
         d="m 3220.92,6031.63 v -9.16 h -9.14 v 9.16 h 9.14 v 0 z"
         style="fill:none;stroke:#ffffff;stroke-width:2.3859;stroke-linecap:square;stroke-linejoin:miter;stroke-miterlimit:10;stroke-dasharray:none;stroke-opacity:1"
         transform="matrix(0.13333333,0,0,-0.13333333,0,1056)" />
      <path
         id="path30"
         d="m 3220.92,6053.01 v -10.69 h -9.14 v 10.69 h 9.14 v 0 0"
         style="fill:#ffffff;fill-opacity:1;fill-rule:evenodd;stroke:none"
         transform="matrix(0.13333333,0,0,-0.13333333,0,1056)" />
      <path
         id="path31"
         d="m 3220.92,6053.01 v -10.69 h -9.14 v 10.69 h 9.14 v 0 z"
         style="fill:none;stroke:#ffffff;stroke-width:2.3859;stroke-linecap:square;stroke-linejoin:miter;stroke-miterlimit:10;stroke-dasharray:none;stroke-opacity:1"
         transform="matrix(0.13333333,0,0,-0.13333333,0,1056)" />
      <path
         id="path32"
         d="m 3220.92,6074.39 v -10.69 h -9.14 v 10.69 h 9.14 v 0 0"
         style="fill:#ffffff;fill-opacity:1;fill-rule:evenodd;stroke:none"
         transform="matrix(0.13333333,0,0,-0.13333333,0,1056)" />
      <path
         id="path33"
         d="m 3220.92,6074.39 v -10.69 h -9.14 v 10.69 h 9.14 v 0 z"
         style="fill:none;stroke:#ffffff;stroke-width:2.3859;stroke-linecap:square;stroke-linejoin:miter;stroke-miterlimit:10;stroke-dasharray:none;stroke-opacity:1"
         transform="matrix(0.13333333,0,0,-0.13333333,0,1056)" />
      <path
         id="path34"
         d="m 3220.92,6095.76 v -10.69 h -9.14 v 10.69 h 9.14 v 0 0"
         style="fill:#ffffff;fill-opacity:1;fill-rule:evenodd;stroke:none"
         transform="matrix(0.13333333,0,0,-0.13333333,0,1056)" />
      <path
         id="path35"
         d="m 3220.92,6095.76 v -10.69 h -9.14 v 10.69 h 9.14 v 0 z"
         style="fill:none;stroke:#ffffff;stroke-width:2.3859;stroke-linecap:square;stroke-linejoin:miter;stroke-miterlimit:10;stroke-dasharray:none;stroke-opacity:1"
         transform="matrix(0.13333333,0,0,-0.13333333,0,1056)" />
      <path
         id="path36"
         d="m 3220.92,6117.13 v -10.68 h -9.14 v 10.68 h 9.14 v 0 0"
         style="fill:#ffffff;fill-opacity:1;fill-rule:evenodd;stroke:none"
         transform="matrix(0.13333333,0,0,-0.13333333,0,1056)" />
      <path
         id="path37"
         d="m 3220.92,6117.13 v -10.68 h -9.14 v 10.68 h 9.14 v 0 z"
         style="fill:none;stroke:#ffffff;stroke-width:2.3859;stroke-linecap:square;stroke-linejoin:miter;stroke-miterlimit:10;stroke-dasharray:none;stroke-opacity:1"
         transform="matrix(0.13333333,0,0,-0.13333333,0,1056)" />
      <path
         id="path38"
         d="m 3220.92,6136.98 v -9.16 h -9.14 v 9.16 h 9.14 v 0 0"
         style="fill:#ffffff;fill-opacity:1;fill-rule:evenodd;stroke:none"
         transform="matrix(0.13333333,0,0,-0.13333333,0,1056)" />
      <path
         id="path39"
         d="m 3220.92,6136.98 v -9.16 h -9.14 v 9.16 h 9.14 v 0 z"
         style="fill:none;stroke:#ffffff;stroke-width:2.3859;stroke-linecap:square;stroke-linejoin:miter;stroke-miterlimit:10;stroke-dasharray:none;stroke-opacity:1"
         transform="matrix(0.13333333,0,0,-0.13333333,0,1056)" />
      <path
         id="path40"
         d="m 3220.92,6158.36 v -9.16 l -9.14,-1.53 v 10.69 h 9.14 v 0 0"
         style="fill:#ffffff;fill-opacity:1;fill-rule:evenodd;stroke:none"
         transform="matrix(0.13333333,0,0,-0.13333333,0,1056)" />
      <path
         id="path41"
         d="m 3220.92,6158.36 v -9.16 l -9.14,-1.53 v 10.69 h 9.14 v 0 z"
         style="fill:none;stroke:#ffffff;stroke-width:2.3859;stroke-linecap:square;stroke-linejoin:miter;stroke-miterlimit:10;stroke-dasharray:none;stroke-opacity:1"
         transform="matrix(0.13333333,0,0,-0.13333333,0,1056)" />
      <path
         id="path42"
         d="m 3135.1,5947.66 v -10.69 h -9.2 v 10.69 h 9.2 v 0 0"
         style="fill:#ffffff;fill-opacity:1;fill-rule:evenodd;stroke:none"
         transform="matrix(0.13333333,0,0,-0.13333333,0,1056)" />
      <path
         id="path43"
         d="m 3135.1,5947.66 v -10.69 h -9.2 v 10.69 h 9.2 v 0 z"
         style="fill:none;stroke:#ffffff;stroke-width:2.3859;stroke-linecap:square;stroke-linejoin:miter;stroke-miterlimit:10;stroke-dasharray:none;stroke-opacity:1"
         transform="matrix(0.13333333,0,0,-0.13333333,0,1056)" />
      <path
         id="path44"
         d="m 3135.1,5969.04 v -10.69 h -9.2 v 10.69 h 9.2 v 0 0"
         style="fill:#ffffff;fill-opacity:1;fill-rule:evenodd;stroke:none"
         transform="matrix(0.13333333,0,0,-0.13333333,0,1056)" />
      <path
         id="path45"
         d="m 3135.1,5969.04 v -10.69 h -9.2 v 10.69 h 9.2 v 0 z"
         style="fill:none;stroke:#ffffff;stroke-width:2.3859;stroke-linecap:square;stroke-linejoin:miter;stroke-miterlimit:10;stroke-dasharray:none;stroke-opacity:1"
         transform="matrix(0.13333333,0,0,-0.13333333,0,1056)" />
      <path
         id="path46"
         d="m 3135.1,5990.41 v -10.69 h -9.2 v 10.69 h 9.2 v 0 0"
         style="fill:#ffffff;fill-opacity:1;fill-rule:evenodd;stroke:none"
         transform="matrix(0.13333333,0,0,-0.13333333,0,1056)" />
      <path
         id="path47"
         d="m 3135.1,5990.41 v -10.69 h -9.2 v 10.69 h 9.2 v 0 z"
         style="fill:none;stroke:#ffffff;stroke-width:2.3859;stroke-linecap:square;stroke-linejoin:miter;stroke-miterlimit:10;stroke-dasharray:none;stroke-opacity:1"
         transform="matrix(0.13333333,0,0,-0.13333333,0,1056)" />
      <path
         id="path48"
         d="m 3135.1,6010.26 v -9.16 h -9.2 v 9.16 h 9.2 v 0 0"
         style="fill:#ffffff;fill-opacity:1;fill-rule:evenodd;stroke:none"
         transform="matrix(0.13333333,0,0,-0.13333333,0,1056)" />
      <path
         id="path49"
         d="m 3135.1,6010.26 v -9.16 h -9.2 v 9.16 h 9.2 v 0 z"
         style="fill:none;stroke:#ffffff;stroke-width:2.3859;stroke-linecap:square;stroke-linejoin:miter;stroke-miterlimit:10;stroke-dasharray:none;stroke-opacity:1"
         transform="matrix(0.13333333,0,0,-0.13333333,0,1056)" />
      <path
         id="path50"
         d="m 3135.1,6031.63 v -9.16 h -9.2 v 9.16 h 9.2 v 0 0"
         style="fill:#ffffff;fill-opacity:1;fill-rule:evenodd;stroke:none"
         transform="matrix(0.13333333,0,0,-0.13333333,0,1056)" />
      <path
         id="path51"
         d="m 3135.1,6031.63 v -9.16 h -9.2 v 9.16 h 9.2 v 0 z"
         style="fill:none;stroke:#ffffff;stroke-width:2.3859;stroke-linecap:square;stroke-linejoin:miter;stroke-miterlimit:10;stroke-dasharray:none;stroke-opacity:1"
         transform="matrix(0.13333333,0,0,-0.13333333,0,1056)" />
      <path
         id="path52"
         d="m 3135.1,6053.01 v -10.69 h -9.2 v 10.69 h 9.2 v 0 0"
         style="fill:#ffffff;fill-opacity:1;fill-rule:evenodd;stroke:none"
         transform="matrix(0.13333333,0,0,-0.13333333,0,1056)" />
      <path
         id="path53"
         d="m 3135.1,6053.01 v -10.69 h -9.2 v 10.69 h 9.2 v 0 z"
         style="fill:none;stroke:#ffffff;stroke-width:2.3859;stroke-linecap:square;stroke-linejoin:miter;stroke-miterlimit:10;stroke-dasharray:none;stroke-opacity:1"
         transform="matrix(0.13333333,0,0,-0.13333333,0,1056)" />
      <path
         id="path54"
         d="m 3135.1,6074.39 v -10.69 h -9.2 v 10.69 h 9.2 v 0 0"
         style="fill:#ffffff;fill-opacity:1;fill-rule:evenodd;stroke:none"
         transform="matrix(0.13333333,0,0,-0.13333333,0,1056)" />
      <path
         id="path55"
         d="m 3135.1,6074.39 v -10.69 h -9.2 v 10.69 h 9.2 v 0 z"
         style="fill:none;stroke:#ffffff;stroke-width:2.3859;stroke-linecap:square;stroke-linejoin:miter;stroke-miterlimit:10;stroke-dasharray:none;stroke-opacity:1"
         transform="matrix(0.13333333,0,0,-0.13333333,0,1056)" />
      <path
         id="path56"
         d="m 3135.1,6095.76 v -10.69 h -9.2 v 10.69 h 9.2 v 0 0"
         style="fill:#ffffff;fill-opacity:1;fill-rule:evenodd;stroke:none"
         transform="matrix(0.13333333,0,0,-0.13333333,0,1056)" />
      <path
         id="path57"
         d="m 3135.1,6095.76 v -10.69 h -9.2 v 10.69 h 9.2 v 0 z"
         style="fill:none;stroke:#ffffff;stroke-width:2.3859;stroke-linecap:square;stroke-linejoin:miter;stroke-miterlimit:10;stroke-dasharray:none;stroke-opacity:1"
         transform="matrix(0.13333333,0,0,-0.13333333,0,1056)" />
      <path
         id="path58"
         d="m 3135.1,6117.13 v -10.68 h -9.2 v 10.68 h 9.2 v 0 0"
         style="fill:#ffffff;fill-opacity:1;fill-rule:evenodd;stroke:none"
         transform="matrix(0.13333333,0,0,-0.13333333,0,1056)" />
      <path
         id="path59"
         d="m 3135.1,6117.13 v -10.68 h -9.2 v 10.68 h 9.2 v 0 z"
         style="fill:none;stroke:#ffffff;stroke-width:2.3859;stroke-linecap:square;stroke-linejoin:miter;stroke-miterlimit:10;stroke-dasharray:none;stroke-opacity:1"
         transform="matrix(0.13333333,0,0,-0.13333333,0,1056)" />
      <path
         id="path60"
         d="m 3135.1,6136.98 v -9.16 h -9.2 v 9.16 h 9.2 v 0 0"
         style="fill:#ffffff;fill-opacity:1;fill-rule:evenodd;stroke:none"
         transform="matrix(0.13333333,0,0,-0.13333333,0,1056)" />
      <path
         id="path61"
         d="m 3135.1,6136.98 v -9.16 h -9.2 v 9.16 h 9.2 v 0 z"
         style="fill:none;stroke:#ffffff;stroke-width:2.3859;stroke-linecap:square;stroke-linejoin:miter;stroke-miterlimit:10;stroke-dasharray:none;stroke-opacity:1"
         transform="matrix(0.13333333,0,0,-0.13333333,0,1056)" />
      <path
         id="path62"
         d="m 3135.1,6158.36 v -10.69 h -9.2 v 10.69 h 9.2 v 0 0"
         style="fill:#ffffff;fill-opacity:1;fill-rule:evenodd;stroke:none"
         transform="matrix(0.13333333,0,0,-0.13333333,0,1056)" />
      <path
         id="path63"
         d="m 3135.1,6158.36 v -10.69 h -9.2 v 10.69 h 9.2 v 0 z"
         style="fill:none;stroke:#ffffff;stroke-width:2.3859;stroke-linecap:square;stroke-linejoin:miter;stroke-miterlimit:10;stroke-dasharray:none;stroke-opacity:1"
         transform="matrix(0.13333333,0,0,-0.13333333,0,1056)" />
      <path
         id="path64"
         d="m 3197.97,6039.27 v -35.12 h -49.07 v 35.12 h 49.07 v 0 0"
         style="fill:#ffffff;fill-opacity:1;fill-rule:evenodd;stroke:none"
         transform="matrix(0.13333333,0,0,-0.13333333,0,1056)" />
      <path
         id="path65"
         d="m 3197.97,6039.27 v -35.12 h -49.07 v 35.12 h 49.07 v 0 z"
         style="fill:none;stroke:#ffffff;stroke-width:2.3859;stroke-linecap:square;stroke-linejoin:miter;stroke-miterlimit:10;stroke-dasharray:none;stroke-opacity:1"
         transform="matrix(0.13333333,0,0,-0.13333333,0,1056)" />
      <path
         id="path66"
         d="m 3197.97,6095.76 v -35.12 h -49.07 v 35.12 h 49.07 v 0 0"
         style="fill:#ffffff;fill-opacity:1;fill-rule:evenodd;stroke:none"
         transform="matrix(0.13333333,0,0,-0.13333333,0,1056)" />
      <path
         id="path67"
         d="m 3197.97,6095.76 v -35.12 h -49.07 v 35.12 h 49.07 v 0 z"
         style="fill:none;stroke:#ffffff;stroke-width:2.3859;stroke-linecap:square;stroke-linejoin:miter;stroke-miterlimit:10;stroke-dasharray:none;stroke-opacity:1"
         transform="matrix(0.13333333,0,0,-0.13333333,0,1056)" />
      <path
         id="path68"
         d="m 3197.97,6150.72 v -33.59 h -49.07 v 33.59 h 49.07 v 0 0"
         style="fill:#ffffff;fill-opacity:1;fill-rule:evenodd;stroke:none"
         transform="matrix(0.13333333,0,0,-0.13333333,0,1056)" />
      <path
         id="path69"
         d="m 3197.97,6150.72 v -33.59 h -49.07 v 33.59 h 49.07 v 0 z"
         style="fill:none;stroke:#ffffff;stroke-width:2.3859;stroke-linecap:square;stroke-linejoin:miter;stroke-miterlimit:10;stroke-dasharray:none;stroke-opacity:1"
         transform="matrix(0.13333333,0,0,-0.13333333,0,1056)" />
      <path
         id="path70"
         d="m 2998.16,6181.98 c -29.5,5.89 -45.06,-9.21 -42.6,-22.27 l 0.2,-0.71 c -22.99,-3.91 -16.97,-31.03 -5.94,-31.03 l 1.09,0.03 c -2.77,-12.74 24.08,-25.71 39.05,-19.23 l 0.97,1.05 c 5.34,-11.46 24.3,-13.37 43.07,-13.85 16.26,-0.41 25.74,0.87 32.71,7.99 l 1.08,-0.31 c 26.02,-2.1 37.87,15.88 32.19,28.79 l 1.4,0.39 c 8.87,2.35 9.89,22.83 -5.33,25.86 l 0.29,0.79 c 6.61,13.32 -8.98,25.89 -30.6,23.53 l -1.5,0.78 c -15.48,14.01 -60.03,11.73 -65.2,-2.13 z"
         style="fill:#ffffff;fill-opacity:1;fill-rule:nonzero;stroke:#000000;stroke-width:3.9999;stroke-linecap:butt;stroke-linejoin:miter;stroke-miterlimit:4;stroke-dasharray:none;stroke-opacity:1"
         transform="matrix(0.13333333,0,0,-0.13333333,0,1056)" />
      <path
         id="path71"
         d="M 3586.46,6683.04 V 5908.19 H 4774.9 v 774.85 H 3586.46 v 0 0 0"
         style="fill:#20a3e4;fill-opacity:1;fill-rule:evenodd;stroke:none"
         transform="matrix(0.13333333,0,0,-0.13333333,0,1056)" />
      <path
         id="path72"
         d="M 3586.46,6683.04 V 5908.19 H 4774.9 v 774.85 H 3586.46 v 0 0 z"
         style="fill:none;stroke:#afdff4;stroke-width:11.9275;stroke-linecap:square;stroke-linejoin:bevel;stroke-miterlimit:10;stroke-dasharray:none;stroke-opacity:1"
         transform="matrix(0.13333333,0,0,-0.13333333,0,1056)" />
      <path
         id="path73"
         d="m 3586.46,6683.04 95.83,99.24 h 1188.44 l -95.83,-99.24 H 3586.46 v 0 0 0"
         style="fill:#43b6ea;fill-opacity:1;fill-rule:evenodd;stroke:none"
         transform="matrix(0.13333333,0,0,-0.13333333,0,1056)" />
      <path
         id="path74"
         d="m 3586.46,6683.04 95.83,99.24 h 1188.44 l -95.83,-99.24 H 3586.46 v 0 0 z"
         style="fill:none;stroke:#afdff4;stroke-width:11.9275;stroke-linecap:square;stroke-linejoin:bevel;stroke-miterlimit:10;stroke-dasharray:none;stroke-opacity:1"
         transform="matrix(0.13333333,0,0,-0.13333333,0,1056)" />
      <path
         id="path75"
         d="m 4774.9,6683.04 95.83,99.24 v -774.85 l -95.83,-99.24 v 774.85 0 0 0"
         style="fill:#1d76a0;fill-opacity:1;fill-rule:evenodd;stroke:none"
         transform="matrix(0.13333333,0,0,-0.13333333,0,1056)" />
      <path
         id="path76"
         d="m 4774.9,6683.04 95.83,99.24 v -774.85 l -95.83,-99.24 v 774.85 0 0 z"
         style="fill:none;stroke:#afdff4;stroke-width:11.9275;stroke-linecap:square;stroke-linejoin:bevel;stroke-miterlimit:10;stroke-dasharray:none;stroke-opacity:1"
         transform="matrix(0.13333333,0,0,-0.13333333,0,1056)" />
      <path
         id="path77"
         d="m 4541.05,6515.09 v 45.8 l 107.35,-76.34 -107.35,-76.34 v 45.81 h -145.71 v 61.07 h 145.71 v 0 0 0"
         style="fill:#242021;fill-opacity:1;fill-rule:evenodd;stroke:none"
         transform="matrix(0.13333333,0,0,-0.13333333,0,1056)" />
      <path
         id="path78"
         d="m 3944.46,6320.43 v 45.8 l 107.36,-76.35 -107.36,-76.32 v 45.8 h -277.51 v 61.07 h 277.51 v 0 0 0"
         style="fill:#242021;fill-opacity:1;fill-rule:evenodd;stroke:none"
         transform="matrix(0.13333333,0,0,-0.13333333,0,1056)" />
      <path
         id="path79"
         d="m 4541.05,6125.77 v 45.78 l 107.35,-76.32 -107.35,-76.35 v 45.8 h -145.71 v 61.09 h 145.71 v 0 0 0"
         style="fill:#242021;fill-opacity:1;fill-rule:evenodd;stroke:none"
         transform="matrix(0.13333333,0,0,-0.13333333,0,1056)" />
      <path
         id="path80"
         d="m 4525.71,6530.36 v 41.99 l 107.36,-72.53 -107.36,-76.33 v 45.78 h -145.67 v 61.09 h 145.67 v 0 0 0"
         style="fill:#ffffff;fill-opacity:1;fill-rule:evenodd;stroke:none"
         transform="matrix(0.13333333,0,0,-0.13333333,0,1056)" />
      <path
         id="path81"
         d="m 3929.13,6335.7 v 45.8 l 107.35,-76.35 -107.35,-76.33 v 45.8 h -273.68 v 61.08 h 273.68 v 0 0 0"
         style="fill:#ffffff;fill-opacity:1;fill-rule:evenodd;stroke:none"
         transform="matrix(0.13333333,0,0,-0.13333333,0,1056)" />
      <path
         id="path82"
         d="m 4636.89,6320.43 v 45.8 l 111.19,-76.35 -111.19,-76.32 v 45.8 h -245.35 v 61.07 h 245.35 v 0 0 0"
         style="fill:#242021;fill-opacity:1;fill-rule:evenodd;stroke:none"
         transform="matrix(0.13333333,0,0,-0.13333333,0,1056)" />
      <path
         id="path83"
         d="m 4625.39,6335.7 v 45.8 l 107.36,-76.35 -107.36,-76.33 v 45.8 H 4376.2 v 61.08 h 249.19 v 0 0 0"
         style="fill:#ffffff;fill-opacity:1;fill-rule:evenodd;stroke:none"
         transform="matrix(0.13333333,0,0,-0.13333333,0,1056)" />
      <path
         id="path84"
         d="m 4525.71,6141.03 v 45.81 l 107.36,-76.36 -107.36,-76.33 v 45.81 h -145.67 v 61.07 h 145.67 v 0 0 0"
         style="fill:#ffffff;fill-opacity:1;fill-rule:evenodd;stroke:none"
         transform="matrix(0.13333333,0,0,-0.13333333,0,1056)" />
      <path
         id="path85"
         d="m 4341.44,6618.15 v -645.07 h -283.53 v 645.07 h 283.53 v 0 0"
         style="fill:#1c7ba7;fill-opacity:1;fill-rule:evenodd;stroke:none"
         transform="matrix(0.13333333,0,0,-0.13333333,0,1056)" />
      <path
         id="path86"
         d="m 4341.44,6618.15 v -645.07 h -283.53 v 645.07 h 283.53 v 0 z"
         style="fill:none;stroke:#8ed0f2;stroke-width:17.8925;stroke-linecap:square;stroke-linejoin:miter;stroke-miterlimit:10;stroke-dasharray:none;stroke-opacity:1"
         transform="matrix(0.13333333,0,0,-0.13333333,0,1056)" />
      <path
         id="path87"
         d="m 4264.92,6121.95 v -87.8 h -122.67 v 87.8 h 122.67 v 0 0"
         style="fill:#ffffff;fill-opacity:1;fill-rule:evenodd;stroke:none"
         transform="matrix(0.13333333,0,0,-0.13333333,0,1056)" />
      <path
         id="path88"
         d="m 4264.92,6121.95 v -87.8 h -122.67 v 87.8 h 122.67 v 0 z"
         style="fill:none;stroke:#ffffff;stroke-width:5.965;stroke-linecap:square;stroke-linejoin:miter;stroke-miterlimit:10;stroke-dasharray:none;stroke-opacity:1"
         transform="matrix(0.13333333,0,0,-0.13333333,0,1056)" />
      <path
         id="path89"
         d="m 4322.3,6034.15 v -26.72 h -22.85 v 26.72 h 22.85 v 0 0"
         style="fill:#ffffff;fill-opacity:1;fill-rule:evenodd;stroke:none"
         transform="matrix(0.13333333,0,0,-0.13333333,0,1056)" />
      <path
         id="path90"
         d="m 4322.3,6034.15 v -26.72 h -22.85 v 26.72 h 22.85 v 0 z"
         style="fill:none;stroke:#ffffff;stroke-width:5.965;stroke-linecap:square;stroke-linejoin:miter;stroke-miterlimit:10;stroke-dasharray:none;stroke-opacity:1"
         transform="matrix(0.13333333,0,0,-0.13333333,0,1056)" />
      <path
         id="path91"
         d="m 4322.3,6087.58 v -26.7 h -22.85 v 26.7 h 22.85 v 0 0"
         style="fill:#ffffff;fill-opacity:1;fill-rule:evenodd;stroke:none"
         transform="matrix(0.13333333,0,0,-0.13333333,0,1056)" />
      <path
         id="path92"
         d="m 4322.3,6087.58 v -26.7 h -22.85 v 26.7 h 22.85 v 0 z"
         style="fill:none;stroke:#ffffff;stroke-width:5.965;stroke-linecap:square;stroke-linejoin:miter;stroke-miterlimit:10;stroke-dasharray:none;stroke-opacity:1"
         transform="matrix(0.13333333,0,0,-0.13333333,0,1056)" />
      <path
         id="path93"
         d="m 4322.3,6141.03 v -26.72 h -22.85 v 26.72 h 22.85 v 0 0"
         style="fill:#ffffff;fill-opacity:1;fill-rule:evenodd;stroke:none"
         transform="matrix(0.13333333,0,0,-0.13333333,0,1056)" />
      <path
         id="path94"
         d="m 4322.3,6141.03 v -26.72 h -22.85 v 26.72 h 22.85 v 0 z"
         style="fill:none;stroke:#ffffff;stroke-width:5.965;stroke-linecap:square;stroke-linejoin:miter;stroke-miterlimit:10;stroke-dasharray:none;stroke-opacity:1"
         transform="matrix(0.13333333,0,0,-0.13333333,0,1056)" />
      <path
         id="path95"
         d="m 4322.3,6190.64 v -22.89 h -22.85 v 22.89 h 22.85 v 0 0"
         style="fill:#ffffff;fill-opacity:1;fill-rule:evenodd;stroke:none"
         transform="matrix(0.13333333,0,0,-0.13333333,0,1056)" />
      <path
         id="path96"
         d="m 4322.3,6190.64 v -22.89 h -22.85 v 22.89 h 22.85 v 0 z"
         style="fill:none;stroke:#ffffff;stroke-width:5.965;stroke-linecap:square;stroke-linejoin:miter;stroke-miterlimit:10;stroke-dasharray:none;stroke-opacity:1"
         transform="matrix(0.13333333,0,0,-0.13333333,0,1056)" />
      <path
         id="path97"
         d="m 4322.3,6244.08 v -22.9 h -22.85 v 22.9 h 22.85 v 0 0"
         style="fill:#ffffff;fill-opacity:1;fill-rule:evenodd;stroke:none"
         transform="matrix(0.13333333,0,0,-0.13333333,0,1056)" />
      <path
         id="path98"
         d="m 4322.3,6244.08 v -22.9 h -22.85 v 22.9 h 22.85 v 0 z"
         style="fill:none;stroke:#ffffff;stroke-width:5.965;stroke-linecap:square;stroke-linejoin:miter;stroke-miterlimit:10;stroke-dasharray:none;stroke-opacity:1"
         transform="matrix(0.13333333,0,0,-0.13333333,0,1056)" />
      <path
         id="path99"
         d="m 4322.3,6297.52 v -26.72 h -22.85 v 26.72 h 22.85 v 0 0"
         style="fill:#ffffff;fill-opacity:1;fill-rule:evenodd;stroke:none"
         transform="matrix(0.13333333,0,0,-0.13333333,0,1056)" />
      <path
         id="path100"
         d="m 4322.3,6297.52 v -26.72 h -22.85 v 26.72 h 22.85 v 0 z"
         style="fill:none;stroke:#ffffff;stroke-width:5.965;stroke-linecap:square;stroke-linejoin:miter;stroke-miterlimit:10;stroke-dasharray:none;stroke-opacity:1"
         transform="matrix(0.13333333,0,0,-0.13333333,0,1056)" />
      <path
         id="path101"
         d="m 4322.3,6350.96 v -26.72 h -22.85 v 26.72 h 22.85 v 0 0"
         style="fill:#ffffff;fill-opacity:1;fill-rule:evenodd;stroke:none"
         transform="matrix(0.13333333,0,0,-0.13333333,0,1056)" />
      <path
         id="path102"
         d="m 4322.3,6350.96 v -26.72 h -22.85 v 26.72 h 22.85 v 0 z"
         style="fill:none;stroke:#ffffff;stroke-width:5.965;stroke-linecap:square;stroke-linejoin:miter;stroke-miterlimit:10;stroke-dasharray:none;stroke-opacity:1"
         transform="matrix(0.13333333,0,0,-0.13333333,0,1056)" />
      <path
         id="path103"
         d="m 4322.3,6404.39 v -26.72 h -22.85 v 26.72 h 22.85 v 0 0"
         style="fill:#ffffff;fill-opacity:1;fill-rule:evenodd;stroke:none"
         transform="matrix(0.13333333,0,0,-0.13333333,0,1056)" />
      <path
         id="path104"
         d="m 4322.3,6404.39 v -26.72 h -22.85 v 26.72 h 22.85 v 0 z"
         style="fill:none;stroke:#ffffff;stroke-width:5.965;stroke-linecap:square;stroke-linejoin:miter;stroke-miterlimit:10;stroke-dasharray:none;stroke-opacity:1"
         transform="matrix(0.13333333,0,0,-0.13333333,0,1056)" />
      <path
         id="path105"
         d="m 4322.3,6457.83 v -26.72 h -22.85 v 26.72 h 22.85 v 0 0"
         style="fill:#ffffff;fill-opacity:1;fill-rule:evenodd;stroke:none"
         transform="matrix(0.13333333,0,0,-0.13333333,0,1056)" />
      <path
         id="path106"
         d="m 4322.3,6457.83 v -26.72 h -22.85 v 26.72 h 22.85 v 0 z"
         style="fill:none;stroke:#ffffff;stroke-width:5.965;stroke-linecap:square;stroke-linejoin:miter;stroke-miterlimit:10;stroke-dasharray:none;stroke-opacity:1"
         transform="matrix(0.13333333,0,0,-0.13333333,0,1056)" />
      <path
         id="path107"
         d="m 4322.3,6507.46 v -22.91 h -22.85 v 22.91 h 22.85 v 0 0"
         style="fill:#ffffff;fill-opacity:1;fill-rule:evenodd;stroke:none"
         transform="matrix(0.13333333,0,0,-0.13333333,0,1056)" />
      <path
         id="path108"
         d="m 4322.3,6507.46 v -22.91 h -22.85 v 22.91 h 22.85 v 0 z"
         style="fill:none;stroke:#ffffff;stroke-width:5.965;stroke-linecap:square;stroke-linejoin:miter;stroke-miterlimit:10;stroke-dasharray:none;stroke-opacity:1"
         transform="matrix(0.13333333,0,0,-0.13333333,0,1056)" />
      <path
         id="path109"
         d="m 4322.3,6560.89 v -22.9 l -22.85,-3.83 v 26.73 h 22.85 v 0 0"
         style="fill:#ffffff;fill-opacity:1;fill-rule:evenodd;stroke:none"
         transform="matrix(0.13333333,0,0,-0.13333333,0,1056)" />
      <path
         id="path110"
         d="m 4322.3,6560.89 v -22.9 l -22.85,-3.83 v 26.73 h 22.85 v 0 z"
         style="fill:none;stroke:#ffffff;stroke-width:5.965;stroke-linecap:square;stroke-linejoin:miter;stroke-miterlimit:10;stroke-dasharray:none;stroke-opacity:1"
         transform="matrix(0.13333333,0,0,-0.13333333,0,1056)" />
      <path
         id="path111"
         d="m 4107.75,6034.15 v -26.72 h -23 v 26.72 h 23 v 0 0"
         style="fill:#ffffff;fill-opacity:1;fill-rule:evenodd;stroke:none"
         transform="matrix(0.13333333,0,0,-0.13333333,0,1056)" />
      <path
         id="path112"
         d="m 4107.75,6034.15 v -26.72 h -23 v 26.72 h 23 v 0 z"
         style="fill:none;stroke:#ffffff;stroke-width:5.965;stroke-linecap:square;stroke-linejoin:miter;stroke-miterlimit:10;stroke-dasharray:none;stroke-opacity:1"
         transform="matrix(0.13333333,0,0,-0.13333333,0,1056)" />
      <path
         id="path113"
         d="m 4107.75,6087.58 v -26.7 h -23 v 26.7 h 23 v 0 0"
         style="fill:#ffffff;fill-opacity:1;fill-rule:evenodd;stroke:none"
         transform="matrix(0.13333333,0,0,-0.13333333,0,1056)" />
      <path
         id="path114"
         d="m 4107.75,6087.58 v -26.7 h -23 v 26.7 h 23 v 0 z"
         style="fill:none;stroke:#ffffff;stroke-width:5.965;stroke-linecap:square;stroke-linejoin:miter;stroke-miterlimit:10;stroke-dasharray:none;stroke-opacity:1"
         transform="matrix(0.13333333,0,0,-0.13333333,0,1056)" />
      <path
         id="path115"
         d="m 4107.75,6141.03 v -26.72 h -23 v 26.72 h 23 v 0 0"
         style="fill:#ffffff;fill-opacity:1;fill-rule:evenodd;stroke:none"
         transform="matrix(0.13333333,0,0,-0.13333333,0,1056)" />
      <path
         id="path116"
         d="m 4107.75,6141.03 v -26.72 h -23 v 26.72 h 23 v 0 z"
         style="fill:none;stroke:#ffffff;stroke-width:5.965;stroke-linecap:square;stroke-linejoin:miter;stroke-miterlimit:10;stroke-dasharray:none;stroke-opacity:1"
         transform="matrix(0.13333333,0,0,-0.13333333,0,1056)" />
      <path
         id="path117"
         d="m 4107.75,6190.64 v -22.89 h -23 v 22.89 h 23 v 0 0"
         style="fill:#ffffff;fill-opacity:1;fill-rule:evenodd;stroke:none"
         transform="matrix(0.13333333,0,0,-0.13333333,0,1056)" />
      <path
         id="path118"
         d="m 4107.75,6190.64 v -22.89 h -23 v 22.89 h 23 v 0 z"
         style="fill:none;stroke:#ffffff;stroke-width:5.965;stroke-linecap:square;stroke-linejoin:miter;stroke-miterlimit:10;stroke-dasharray:none;stroke-opacity:1"
         transform="matrix(0.13333333,0,0,-0.13333333,0,1056)" />
      <path
         id="path119"
         d="m 4107.75,6244.08 v -22.9 h -23 v 22.9 h 23 v 0 0"
         style="fill:#ffffff;fill-opacity:1;fill-rule:evenodd;stroke:none"
         transform="matrix(0.13333333,0,0,-0.13333333,0,1056)" />
      <path
         id="path120"
         d="m 4107.75,6244.08 v -22.9 h -23 v 22.9 h 23 v 0 z"
         style="fill:none;stroke:#ffffff;stroke-width:5.965;stroke-linecap:square;stroke-linejoin:miter;stroke-miterlimit:10;stroke-dasharray:none;stroke-opacity:1"
         transform="matrix(0.13333333,0,0,-0.13333333,0,1056)" />
      <path
         id="path121"
         d="m 4107.75,6297.52 v -26.72 h -23 v 26.72 h 23 v 0 0"
         style="fill:#ffffff;fill-opacity:1;fill-rule:evenodd;stroke:none"
         transform="matrix(0.13333333,0,0,-0.13333333,0,1056)" />
      <path
         id="path122"
         d="m 4107.75,6297.52 v -26.72 h -23 v 26.72 h 23 v 0 z"
         style="fill:none;stroke:#ffffff;stroke-width:5.965;stroke-linecap:square;stroke-linejoin:miter;stroke-miterlimit:10;stroke-dasharray:none;stroke-opacity:1"
         transform="matrix(0.13333333,0,0,-0.13333333,0,1056)" />
      <path
         id="path123"
         d="m 4107.75,6350.96 v -26.72 h -23 v 26.72 h 23 v 0 0"
         style="fill:#ffffff;fill-opacity:1;fill-rule:evenodd;stroke:none"
         transform="matrix(0.13333333,0,0,-0.13333333,0,1056)" />
      <path
         id="path124"
         d="m 4107.75,6350.96 v -26.72 h -23 v 26.72 h 23 v 0 z"
         style="fill:none;stroke:#ffffff;stroke-width:5.965;stroke-linecap:square;stroke-linejoin:miter;stroke-miterlimit:10;stroke-dasharray:none;stroke-opacity:1"
         transform="matrix(0.13333333,0,0,-0.13333333,0,1056)" />
      <path
         id="path125"
         d="m 4107.75,6404.39 v -26.72 h -23 v 26.72 h 23 v 0 0"
         style="fill:#ffffff;fill-opacity:1;fill-rule:evenodd;stroke:none"
         transform="matrix(0.13333333,0,0,-0.13333333,0,1056)" />
      <path
         id="path126"
         d="m 4107.75,6404.39 v -26.72 h -23 v 26.72 h 23 v 0 z"
         style="fill:none;stroke:#ffffff;stroke-width:5.965;stroke-linecap:square;stroke-linejoin:miter;stroke-miterlimit:10;stroke-dasharray:none;stroke-opacity:1"
         transform="matrix(0.13333333,0,0,-0.13333333,0,1056)" />
      <path
         id="path127"
         d="m 4107.75,6457.83 v -26.72 h -23 v 26.72 h 23 v 0 0"
         style="fill:#ffffff;fill-opacity:1;fill-rule:evenodd;stroke:none"
         transform="matrix(0.13333333,0,0,-0.13333333,0,1056)" />
      <path
         id="path128"
         d="m 4107.75,6457.83 v -26.72 h -23 v 26.72 h 23 v 0 z"
         style="fill:none;stroke:#ffffff;stroke-width:5.965;stroke-linecap:square;stroke-linejoin:miter;stroke-miterlimit:10;stroke-dasharray:none;stroke-opacity:1"
         transform="matrix(0.13333333,0,0,-0.13333333,0,1056)" />
      <path
         id="path129"
         d="m 4107.75,6507.46 v -22.91 h -23 v 22.91 h 23 v 0 0"
         style="fill:#ffffff;fill-opacity:1;fill-rule:evenodd;stroke:none"
         transform="matrix(0.13333333,0,0,-0.13333333,0,1056)" />
      <path
         id="path130"
         d="m 4107.75,6507.46 v -22.91 h -23 v 22.91 h 23 v 0 z"
         style="fill:none;stroke:#ffffff;stroke-width:5.965;stroke-linecap:square;stroke-linejoin:miter;stroke-miterlimit:10;stroke-dasharray:none;stroke-opacity:1"
         transform="matrix(0.13333333,0,0,-0.13333333,0,1056)" />
      <path
         id="path131"
         d="m 4107.75,6560.89 v -26.73 h -23 v 26.73 h 23 v 0 0"
         style="fill:#ffffff;fill-opacity:1;fill-rule:evenodd;stroke:none"
         transform="matrix(0.13333333,0,0,-0.13333333,0,1056)" />
      <path
         id="path132"
         d="m 4107.75,6560.89 v -26.73 h -23 v 26.73 h 23 v 0 z"
         style="fill:none;stroke:#ffffff;stroke-width:5.965;stroke-linecap:square;stroke-linejoin:miter;stroke-miterlimit:10;stroke-dasharray:none;stroke-opacity:1"
         transform="matrix(0.13333333,0,0,-0.13333333,0,1056)" />
      <path
         id="path133"
         d="m 4264.92,6263.17 v -87.79 h -122.67 v 87.79 h 122.67 v 0 0"
         style="fill:#ffffff;fill-opacity:1;fill-rule:evenodd;stroke:none"
         transform="matrix(0.13333333,0,0,-0.13333333,0,1056)" />
      <path
         id="path134"
         d="m 4264.92,6263.17 v -87.79 h -122.67 v 87.79 h 122.67 v 0 z"
         style="fill:none;stroke:#ffffff;stroke-width:5.965;stroke-linecap:square;stroke-linejoin:miter;stroke-miterlimit:10;stroke-dasharray:none;stroke-opacity:1"
         transform="matrix(0.13333333,0,0,-0.13333333,0,1056)" />
      <path
         id="path135"
         d="m 4264.92,6404.39 v -87.79 h -122.67 v 87.79 h 122.67 v 0 0"
         style="fill:#ffffff;fill-opacity:1;fill-rule:evenodd;stroke:none"
         transform="matrix(0.13333333,0,0,-0.13333333,0,1056)" />
      <path
         id="path136"
         d="m 4264.92,6404.39 v -87.79 h -122.67 v 87.79 h 122.67 v 0 z"
         style="fill:none;stroke:#ffffff;stroke-width:5.965;stroke-linecap:square;stroke-linejoin:miter;stroke-miterlimit:10;stroke-dasharray:none;stroke-opacity:1"
         transform="matrix(0.13333333,0,0,-0.13333333,0,1056)" />
      <path
         id="path137"
         d="m 4264.92,6541.81 v -83.98 h -122.67 v 83.98 h 122.67 v 0 0"
         style="fill:#ffffff;fill-opacity:1;fill-rule:evenodd;stroke:none"
         transform="matrix(0.13333333,0,0,-0.13333333,0,1056)" />
      <path
         id="path138"
         d="m 4264.92,6541.81 v -83.98 h -122.67 v 83.98 h 122.67 v 0 z"
         style="fill:none;stroke:#ffffff;stroke-width:5.965;stroke-linecap:square;stroke-linejoin:miter;stroke-miterlimit:10;stroke-dasharray:none;stroke-opacity:1"
         transform="matrix(0.13333333,0,0,-0.13333333,0,1056)" />
      <path
         id="path139"
         d="m 3765.39,6619.96 c -73.73,14.72 -112.62,-23.03 -106.5,-55.68 l 0.52,-1.78 c -57.48,-9.78 -42.44,-77.58 -14.85,-77.58 l 2.71,0.09 c -6.94,-31.87 60.21,-64.29 97.63,-48.08 l 2.42,2.62 c 13.36,-28.65 60.77,-33.44 107.66,-34.63 40.66,-1.03 64.39,2.18 81.82,19.99 l 2.68,-0.79 c 65.04,-5.24 94.68,39.71 80.47,71.97 l 3.49,0.99 c 22.17,5.87 24.74,57.06 -13.3,64.64 l 0.7,1.99 c 16.54,33.3 -22.43,64.71 -76.48,58.81 l -3.76,1.95 c -38.71,35.04 -150.07,29.34 -162.99,-5.32 z"
         style="fill:#ffffff;fill-opacity:1;fill-rule:nonzero;stroke:#000000;stroke-width:10;stroke-linecap:butt;stroke-linejoin:miter;stroke-miterlimit:4;stroke-dasharray:none;stroke-opacity:1"
         transform="matrix(0.13333333,0,0,-0.13333333,0,1056)" />
      <g
         id="group-R10">
        <g
           id="g139">
          <path
             id="path140"
             d="M 4.2886563,-1.8867187 4.9331875,0 H 5.8824063 L 3.550375,-6.4570312 H 2.5542813 L 0.1285,0 H 1.0308438 L 1.6988125,-1.8867187 Z M 1.9683438,-2.6601563 3.0113125,-5.4960937 h 0.011719 L 3.97225,-2.6601563 Z M 10.291586,-3.1171875 C 10.232992,-3.9375 9.7642422,-4.8398437 8.5337734,-4.8398437 c -1.5585937,0 -2.2617187,1.1601562 -2.2617187,2.6132812 0,1.359375 0.7851562,2.3671875 2.109375,2.3671875 1.3710937,0 1.8281253,-1.0546875 1.9101563,-1.8046875 H 9.5298672 c -0.1289063,0.71484375 -0.5976563,1.11328125 -1.125,1.11328125 -1.0898438,0 -1.2890625,-0.99609375 -1.2890625,-1.80468755 0,-0.84375 0.3164062,-1.7812499 1.3007812,-1.7812499 0.6679688,0 1.0195313,0.3867187 1.1132813,1.0195312 z m 2.519531,-0.9375 v -0.65625 h -0.75 v -1.3125 h -0.796875 v 1.3125 H 10.63143 v 0.65625 h 0.632812 v 3.10546875 c 0,0.57421875 0.175781,1.0078125 0.960938,1.0078125 0.08203,0 0.304687,-0.03515625 0.585937,-0.05859375 v -0.62109375 h -0.269531 c -0.164063,0 -0.480469,0 -0.480469,-0.36328125 V -4.0546875 Z M 17.410727,0 v -4.7109375 h -0.796875 v 2.6015625 c 0,0.6796875 -0.292969,1.55859375 -1.300782,1.55859375 -0.503906,0 -0.902343,-0.2578125 -0.902343,-1.03124995 v -3.1289063 h -0.796875 v 3.3867188 c 0,1.12499995 0.84375,1.4648437 1.535156,1.4648437 0.75,0 1.160156,-0.29296875 1.488281,-0.84375 l 0.02344,0.0234375 V 0 Z m 1.886718,-3.28125 c 0.04687,-0.3515625 0.175782,-0.9023437 1.078125,-0.9023437 0.75,0 1.101563,0.2695312 1.101563,0.7617187 0,0.46875 -0.222656,0.5390625 -0.410156,0.5625 l -1.300782,0.1640625 c -1.3125,0.1523437 -1.429687,1.078125 -1.429687,1.4765625 0,0.80859375 0.609375,1.359375 1.476562,1.359375 0.914063,0 1.394532,-0.43359375 1.699219,-0.7734375 0.02344,0.36328125 0.128906,0.7265625 0.832031,0.7265625 0.1875,0 0.304688,-0.05859375 0.433594,-0.09375 v -0.57421875 c -0.09375,0.0117188 -0.1875,0.0351563 -0.257812,0.0351563 -0.164063,0 -0.269532,-0.0820313 -0.269532,-0.28125 V -3.5273438 c 0,-1.2070312 -1.359375,-1.3124999 -1.734375,-1.3124999 -1.171875,0 -1.910156,0.4335937 -1.945312,1.5585937 z m 2.167969,1.6523438 c 0,0.63281245 -0.726562,1.10156245 -1.464844,1.10156245 -0.585937,0 -0.84375,-0.3046875 -0.84375,-0.80859375 0,-0.5976562 0.621094,-0.7148438 1.007813,-0.7734375 0.972656,-0.1171875 1.171875,-0.1992188 1.300781,-0.2929688 z m 2.941406,-4.828125 H 23.609945 V 0 h 0.796875 z m 8.507813,1.8867187 c -0.03516,-0.7148437 -0.257813,-2.0625 -2.519531,-2.0625 -1.570313,0 -2.226563,0.984375 -2.226563,1.9921875 0,1.125 0.949219,1.4296875 1.382813,1.5234375 l 1.3125,0.3046875 c 1.066406,0.2578125 1.382812,0.46875 1.382812,1.1484375 0,0.92578125 -1.066406,1.08984375 -1.6875,1.08984375 -0.832031,0 -1.78125,-0.33984375 -1.78125,-1.51171875 h -0.820312 c 0,0.5976563 0.105468,1.13671875 0.65625,1.640625 0.28125,0.2578125 0.75,0.62109375 1.945312,0.62109375 1.113281,0 2.53125,-0.43359375 2.53125,-1.95703125 0,-1.03125 -0.632812,-1.5351563 -1.464844,-1.734375 L 29.785727,-3.9375 c -0.386719,-0.082031 -0.773438,-0.2695312 -0.773438,-0.8203125 0,-0.9726562 0.925781,-1.125 1.476563,-1.125 0.726562,0 1.558593,0.3164063 1.605468,1.3125 z m 1.995117,-0.140625 H 34.112875 V 0 h 0.796875 z m 0,-0.8554687 v -0.890625 h -0.796875 v 0.890625 z m 4.740234,1.5117187 v -0.65625 h -3.644531 v 0.65625 h 2.625 l -2.835937,3.43359375 V 0 h 3.9375 v -0.65625 h -2.882813 z m 4.013672,2.578125 c -0.02344,0.3515625 -0.46875,0.92578125 -1.207031,0.92578125 -0.914062,0 -1.371094,-0.56249995 -1.371094,-1.54687505 h 3.433594 c 0,-1.6640625 -0.667969,-2.7421874 -2.027344,-2.7421874 -1.546875,0 -2.25,1.1601562 -2.25,2.6132812 0,1.359375 0.785157,2.3671875 2.097657,2.3671875 0.761718,0 1.066406,-0.1875 1.277343,-0.328125 0.597657,-0.3984375 0.820313,-1.0664062 0.84375,-1.2890625 z m -2.578125,-1.2539063 c 0,-0.7265625 0.574219,-1.4062499 1.300782,-1.4062499 0.960937,0 1.277343,0.6796874 1.3125,1.4062499 z m 0,0"
             style="fill:#231f20;fill-opacity:1;fill-rule:nonzero;stroke:none"
             aria-label="Actual Size"
             transform="matrix(1.3333333,0,0,1.3333333,394.07867,216)" />
        </g>
      </g>
      <g
         id="group-R16">
        <g
           id="g140">
          <path
             id="path141"
             d="m 1.1827813,-4.0556641 c 0.035156,-0.4453125 0.082031,-1.5585937 1.2773437,-1.5585937 0.9375,0 1.2539063,0.6328125 1.2539063,1.1367187 0,0.8320313 -0.4804688,1.0898438 -1.1601563,1.4765625 L 1.7218438,-2.5087891 C 0.866375,-2.0166016 0.2804375,-1.3134766 0.2335625,-9.765625e-4 H 4.5577813 V -0.75097656 H 1.1241875 c 0.035156,-0.234375 0.2226563,-0.73828124 1.0898438,-1.20703124 l 0.65625,-0.3632813 c 0.9492187,-0.5039062 1.6875,-0.984375 1.6875,-2.1210937 0,-1.171875 -0.8789063,-1.8867188 -1.9804688,-1.8867188 -0.6796875,0 -2.1796875,0.2109375 -2.1796875,2.2734375 z m 5.4140625,-1.359375 h 2.6835937 v -0.7734375 h -3.28125 l -0.46875,3.3867188 0.6796875,0.035156 c 0.2929688,-0.3867185 0.7148438,-0.597656 1.171875,-0.597656 0.7851563,0 1.40625,0.4921875 1.40625,1.40625 0,0.7851562 -0.515625,1.44140624 -1.3359375,1.44140624 -0.7148437,0 -1.265625,-0.31640625 -1.3476562,-1.05468754 H 5.2960625 c 0.1523438,1.40625004 1.2070313,1.74609379 2.0390625,1.74609379 1.9804688,0 2.296875,-1.52343749 2.296875,-2.22656249 0,-1.3007813 -1.0546875,-2.0273438 -2.0859375,-2.0273438 -0.5625,0 -0.9492187,0.1875 -1.21875,0.3984375 z m 7.2304692,2.3320313 c 0,1.59375 -0.410157,2.54296874 -1.3125,2.54296874 -0.914063,0 -1.324219,-0.94921874 -1.324219,-2.54296874 0,-1.5820313 0.410156,-2.53125 1.324219,-2.53125 0.902343,0 1.3125,0.9492187 1.3125,2.53125 z m 0.855468,0 c 0,-1.3125 -0.351562,-3.2460938 -2.167968,-3.2460938 -1.828125,0 -2.179688,1.9335938 -2.179688,3.2460938 0,1.3125 0.351563,3.25781249 2.179688,3.25781249 1.816406,0 2.167968,-1.94531249 2.167968,-3.25781249 z m 0.679688,-1.6523438 c 0,0.8671875 0.691406,1.5351563 1.535156,1.5351563 0.84375,0 1.535156,-0.6914063 1.535156,-1.5351563 0,-0.84375 -0.691406,-1.5234375 -1.535156,-1.5234375 -0.84375,0 -1.535156,0.6679688 -1.535156,1.5234375 z m 0.632812,0 c 0,-0.4804687 0.398438,-0.890625 0.902344,-0.890625 0.503906,0 0.902344,0.3867188 0.902344,0.890625 0,0.4921875 -0.386719,0.9140625 -0.902344,0.9140625 -0.480469,0 -0.902344,-0.3515625 -0.902344,-0.9140625 z m 3.597657,3.2578125 c 0,0.86718754 0.691406,1.53515629 1.535156,1.53515629 0.84375,0 1.535156,-0.69140625 1.535156,-1.53515629 0,-0.84375 -0.691406,-1.5234375 -1.535156,-1.5234375 -0.84375,0 -1.535156,0.6679688 -1.535156,1.5234375 z m 0.632812,0 c 0,-0.4804687 0.386719,-0.890625 0.902344,-0.890625 0.492187,0 0.902344,0.3867188 0.902344,0.890625 0,0.49218754 -0.386719,0.91406254 -0.914063,0.91406254 -0.46875,0 -0.890625,-0.3515625 -0.890625,-0.91406254 z m 0.808594,-4.8515625 h -0.492188 l -3.5625,6.50390629 h 0.492188 z m 0,0"
             style="fill:#231f20;fill-opacity:1;fill-rule:nonzero;stroke:none"
             aria-label="250%"
             transform="matrix(1.3333333,0,0,1.3333333,548.65733,139.33333)" />
        </g>
      </g>
    </g>
  </g>
</svg>
