<?xml version="1.0" encoding="UTF-8" standalone="no"?>
<!-- Created with Inkscape (http://www.inkscape.org/) -->

<svg
   version="1.1"
   id="svg1"
   width="57.626667"
   height="31.626667"
   viewBox="0 0 57.626667 31.626667"
   sodipodi:docname="ip phone.eps"
   xmlns:inkscape="http://www.inkscape.org/namespaces/inkscape"
   xmlns:sodipodi="http://sodipodi.sourceforge.net/DTD/sodipodi-0.dtd"
   xmlns="http://www.w3.org/2000/svg"
   xmlns:svg="http://www.w3.org/2000/svg">
  <defs
     id="defs1">
    <clipPath
       clipPathUnits="userSpaceOnUse"
       id="clipPath2">
      <path
         d="M 0,237 H 430 V 0 H 0 Z"
         id="path2" />
    </clipPath>
    <clipPath
       clipPathUnits="userSpaceOnUse"
       id="clipPath4">
      <path
         d="M 0,237 H 430 V 0 H 0 Z"
         id="path4" />
    </clipPath>
    <clipPath
       clipPathUnits="userSpaceOnUse"
       id="clipPath6">
      <path
         d="M 0,237 H 430 V 0 H 0 Z"
         id="path6" />
    </clipPath>
    <clipPath
       clipPathUnits="userSpaceOnUse"
       id="clipPath8">
      <path
         d="M 0,237 H 430 V 0 H 0 Z"
         id="path8" />
    </clipPath>
    <clipPath
       clipPathUnits="userSpaceOnUse"
       id="clipPath10">
      <path
         d="M 0,237 H 430 V 0 H 0 Z"
         id="path10" />
    </clipPath>
    <clipPath
       clipPathUnits="userSpaceOnUse"
       id="clipPath12">
      <path
         d="M 0,237 H 430 V 0 H 0 Z"
         id="path12" />
    </clipPath>
    <clipPath
       clipPathUnits="userSpaceOnUse"
       id="clipPath14">
      <path
         d="M 0,237 H 430 V 0 H 0 Z"
         id="path14" />
    </clipPath>
    <clipPath
       clipPathUnits="userSpaceOnUse"
       id="clipPath16">
      <path
         d="M 0,237 H 430 V 0 H 0 Z"
         id="path16" />
    </clipPath>
    <clipPath
       clipPathUnits="userSpaceOnUse"
       id="clipPath18">
      <path
         d="M 0,237 H 430 V 0 H 0 Z"
         id="path18" />
    </clipPath>
    <clipPath
       clipPathUnits="userSpaceOnUse"
       id="clipPath20">
      <path
         d="M 0,237 H 430 V 0 H 0 Z"
         id="path20" />
    </clipPath>
    <clipPath
       clipPathUnits="userSpaceOnUse"
       id="clipPath22">
      <path
         d="M 0,237 H 430 V 0 H 0 Z"
         id="path22" />
    </clipPath>
    <clipPath
       clipPathUnits="userSpaceOnUse"
       id="clipPath24">
      <path
         d="M 0,237 H 430 V 0 H 0 Z"
         id="path24" />
    </clipPath>
    <clipPath
       clipPathUnits="userSpaceOnUse"
       id="clipPath26">
      <path
         d="M 0,237 H 430 V 0 H 0 Z"
         id="path26" />
    </clipPath>
    <clipPath
       clipPathUnits="userSpaceOnUse"
       id="clipPath28">
      <path
         d="M 0,237 H 430 V 0 H 0 Z"
         id="path28" />
    </clipPath>
    <clipPath
       clipPathUnits="userSpaceOnUse"
       id="clipPath30">
      <path
         d="M 0,237 H 430 V 0 H 0 Z"
         id="path30" />
    </clipPath>
    <clipPath
       clipPathUnits="userSpaceOnUse"
       id="clipPath32">
      <path
         d="M 0,237 H 430 V 0 H 0 Z"
         id="path32" />
    </clipPath>
    <clipPath
       clipPathUnits="userSpaceOnUse"
       id="clipPath34">
      <path
         d="M 0,237 H 430 V 0 H 0 Z"
         id="path34" />
    </clipPath>
    <clipPath
       clipPathUnits="userSpaceOnUse"
       id="clipPath36">
      <path
         d="M 0,237 H 430 V 0 H 0 Z"
         id="path36" />
    </clipPath>
    <clipPath
       clipPathUnits="userSpaceOnUse"
       id="clipPath38">
      <path
         d="M 0,237 H 430 V 0 H 0 Z"
         id="path38" />
    </clipPath>
    <clipPath
       clipPathUnits="userSpaceOnUse"
       id="clipPath40">
      <path
         d="M 0,237 H 430 V 0 H 0 Z"
         id="path40" />
    </clipPath>
    <clipPath
       clipPathUnits="userSpaceOnUse"
       id="clipPath42">
      <path
         d="M 0,237 H 430 V 0 H 0 Z"
         id="path42" />
    </clipPath>
    <clipPath
       clipPathUnits="userSpaceOnUse"
       id="clipPath44">
      <path
         d="M 0,237 H 430 V 0 H 0 Z"
         id="path44" />
    </clipPath>
    <clipPath
       clipPathUnits="userSpaceOnUse"
       id="clipPath46">
      <path
         d="M 0,237 H 430 V 0 H 0 Z"
         id="path46" />
    </clipPath>
    <clipPath
       clipPathUnits="userSpaceOnUse"
       id="clipPath48">
      <path
         d="M 0,237 H 430 V 0 H 0 Z"
         id="path48" />
    </clipPath>
    <clipPath
       clipPathUnits="userSpaceOnUse"
       id="clipPath50">
      <path
         d="M 0,237 H 430 V 0 H 0 Z"
         id="path50" />
    </clipPath>
    <clipPath
       clipPathUnits="userSpaceOnUse"
       id="clipPath52">
      <path
         d="M 0,237 H 430 V 0 H 0 Z"
         id="path52" />
    </clipPath>
    <clipPath
       clipPathUnits="userSpaceOnUse"
       id="clipPath54">
      <path
         d="M 0,237 H 430 V 0 H 0 Z"
         id="path54" />
    </clipPath>
    <clipPath
       clipPathUnits="userSpaceOnUse"
       id="clipPath56">
      <path
         d="M 0,237 H 430 V 0 H 0 Z"
         id="path56" />
    </clipPath>
    <clipPath
       clipPathUnits="userSpaceOnUse"
       id="clipPath58">
      <path
         d="M 0,237 H 430 V 0 H 0 Z"
         transform="matrix(0.1,0,0,-0.1,-26.1637,6.9101602)"
         id="path58" />
    </clipPath>
  </defs>
  <sodipodi:namedview
     id="namedview1"
     pagecolor="#505050"
     bordercolor="#eeeeee"
     borderopacity="1"
     inkscape:showpageshadow="0"
     inkscape:pageopacity="0"
     inkscape:pagecheckerboard="0"
     inkscape:deskcolor="#d1d1d1">
    <inkscape:page
       x="0"
       y="0"
       inkscape:label="1"
       id="page1"
       width="57.626667"
       height="31.626667"
       margin="0"
       bleed="0" />
  </sodipodi:namedview>
  <g
     id="g1"
     inkscape:groupmode="layer"
     inkscape:label="1">
    <path
       id="path1"
       d="M 206.27,215.313 H 109.883 L 3.80859,61.6406 c 92.92971,0 92.92971,0.0977 93.55471,0 116.2887,-17.0508 143.9257,-9.2187 252.6167,0 l 78.653,126.1724 h -27.52 l 18.125,27.5 h -190 l -20.625,-27.5 H 185.02 l 21.25,27.5"
       style="fill:#087fbf;fill-opacity:1;fill-rule:nonzero;stroke:none"
       transform="matrix(0.13333333,0,0,-0.13333333,0,31.626667)"
       clip-path="url(#clipPath2)" />
    <path
       id="path3"
       d="M 206.27,215.313 H 109.883 L 3.80859,61.6406 c 92.92971,0 92.92971,0.0977 93.55471,0 116.2887,-17.0508 143.9257,-9.2187 252.6167,0 l 78.653,126.1724 h -27.52 l 18.125,27.5 h -190 l -20.625,-27.5 H 185.02 Z"
       style="fill:none;stroke:#ffffff;stroke-width:4;stroke-linecap:butt;stroke-linejoin:miter;stroke-miterlimit:4;stroke-dasharray:none;stroke-opacity:1"
       transform="matrix(0.13333333,0,0,-0.13333333,0,31.626667)"
       clip-path="url(#clipPath4)" />
    <path
       id="path5"
       d="M 205.43,69.7266 H 137.676 L 175.43,119.57 h 65.41 L 205.43,69.7266"
       style="fill:#087fbf;fill-opacity:1;fill-rule:nonzero;stroke:none"
       transform="matrix(0.13333333,0,0,-0.13333333,0,31.626667)"
       clip-path="url(#clipPath6)" />
    <path
       id="path7"
       d="M 205.43,69.7266 H 137.676 L 175.43,119.57 h 65.41 z"
       style="fill:none;stroke:#ffffff;stroke-width:4;stroke-linecap:butt;stroke-linejoin:miter;stroke-miterlimit:4;stroke-dasharray:none;stroke-opacity:1"
       transform="matrix(0.13333333,0,0,-0.13333333,0,31.626667)"
       clip-path="url(#clipPath8)" />
    <path
       id="path9"
       d="M 428.633,187.813 V 95.1563 L 349.98,11.8359 v 49.8047 l 78.653,126.1724"
       style="fill:#087fbf;fill-opacity:1;fill-rule:nonzero;stroke:none"
       transform="matrix(0.13333333,0,0,-0.13333333,0,31.626667)"
       clip-path="url(#clipPath10)" />
    <path
       id="path11"
       d="M 428.633,187.813 V 95.1563 L 349.98,11.8359 v 49.8047 z"
       style="fill:none;stroke:#ffffff;stroke-width:4;stroke-linecap:butt;stroke-linejoin:miter;stroke-miterlimit:4;stroke-dasharray:none;stroke-opacity:1"
       transform="matrix(0.13333333,0,0,-0.13333333,0,31.626667)"
       clip-path="url(#clipPath12)" />
    <path
       id="path13"
       d="M 349.98,61.6406 428.633,187.813"
       style="fill:#231f20;fill-opacity:1;fill-rule:nonzero;stroke:#ffffff;stroke-width:4;stroke-linecap:butt;stroke-linejoin:miter;stroke-miterlimit:4;stroke-dasharray:none;stroke-opacity:1"
       transform="matrix(0.13333333,0,0,-0.13333333,0,31.626667)"
       clip-path="url(#clipPath14)" />
    <path
       id="path15"
       d="m 155.605,180.215 c -12.89,-14.824 -28.789,-32.11 -38.984,-48.887 L 117.48,120.449 85.6836,71.3086 81.9922,103.281 c 6.0547,24.199 81.1128,119.278 98.3988,130.508 l 3.691,-31.973 -27.656,-31.816 -0.821,10.215"
       style="fill:#087fbf;fill-opacity:1;fill-rule:nonzero;stroke:none"
       transform="matrix(0.13333333,0,0,-0.13333333,0,31.626667)"
       clip-path="url(#clipPath16)" />
    <path
       id="path17"
       d="m 155.605,180.215 c -12.89,-14.824 -28.789,-32.11 -38.984,-48.887 L 117.48,120.449 85.6836,71.3086 81.9922,103.281 c 6.0547,24.199 81.1128,119.278 98.3988,130.508 L 184.082,201.816 156.426,170 Z"
       style="fill:none;stroke:#ffffff;stroke-width:4;stroke-linecap:butt;stroke-linejoin:miter;stroke-miterlimit:4;stroke-dasharray:none;stroke-opacity:1"
       transform="matrix(0.13333333,0,0,-0.13333333,0,31.626667)"
       clip-path="url(#clipPath18)" />
    <path
       id="path19"
       d="M 22.8125,103.281 19.1211,71.3086 H 85.6836 L 81.9922,103.281 H 22.8125"
       style="fill:#087fbf;fill-opacity:1;fill-rule:nonzero;stroke:none"
       transform="matrix(0.13333333,0,0,-0.13333333,0,31.626667)"
       clip-path="url(#clipPath20)" />
    <path
       id="path21"
       d="M 22.8125,103.281 19.1211,71.3086 h 66.5625 l -3.6914,31.9724 z"
       style="fill:none;stroke:#ffffff;stroke-width:4;stroke-linecap:butt;stroke-linejoin:miter;stroke-miterlimit:4;stroke-dasharray:none;stroke-opacity:1"
       transform="matrix(0.13333333,0,0,-0.13333333,0,31.626667)"
       clip-path="url(#clipPath22)" />
    <path
       id="path23"
       d="M 180.391,233.789 C 163.105,222.559 88.0469,127.48 81.9922,103.281 H 22.8125 c 6.0547,24.199 81.1135,119.278 98.3985,130.508 h 59.18"
       style="fill:#087fbf;fill-opacity:1;fill-rule:nonzero;stroke:none"
       transform="matrix(0.13333333,0,0,-0.13333333,0,31.626667)"
       clip-path="url(#clipPath24)" />
    <path
       id="path25"
       d="M 180.391,233.789 C 163.105,222.559 88.0469,127.48 81.9922,103.281 H 22.8125 c 6.0547,24.199 81.1135,119.278 98.3985,130.508 z"
       style="fill:none;stroke:#ffffff;stroke-width:4;stroke-linecap:butt;stroke-linejoin:miter;stroke-miterlimit:4;stroke-dasharray:none;stroke-opacity:1"
       transform="matrix(0.13333333,0,0,-0.13333333,0,31.626667)"
       clip-path="url(#clipPath26)" />
    <path
       id="path27"
       d="m 200.488,152.031 38.985,51.524 h 152.226 l -34.98,-51.524 H 200.488"
       style="fill:#ffffff;fill-opacity:1;fill-rule:nonzero;stroke:none"
       transform="matrix(0.13333333,0,0,-0.13333333,0,31.626667)"
       clip-path="url(#clipPath28)" />
    <path
       id="path29"
       d="m 200.488,152.031 38.985,51.524 h 152.226 l -34.98,-51.524 z"
       style="fill:none;stroke:#ffffff;stroke-width:3.5;stroke-linecap:butt;stroke-linejoin:miter;stroke-miterlimit:4;stroke-dasharray:none;stroke-opacity:1"
       transform="matrix(0.13333333,0,0,-0.13333333,0,31.626667)"
       clip-path="url(#clipPath30)" />
    <path
       id="path31"
       d="m 217.07,161.582 26.211,34.648 H 345.645 L 322.109,161.582 H 217.07"
       style="fill:#087fbf;fill-opacity:1;fill-rule:nonzero;stroke:none"
       transform="matrix(0.13333333,0,0,-0.13333333,0,31.626667)"
       clip-path="url(#clipPath32)" />
    <path
       id="path33"
       d="m 217.07,161.582 26.211,34.648 h 102.364 l -23.536,-34.648 z"
       style="fill:none;stroke:#ffffff;stroke-width:4;stroke-linecap:butt;stroke-linejoin:miter;stroke-miterlimit:4;stroke-dasharray:none;stroke-opacity:1"
       transform="matrix(0.13333333,0,0,-0.13333333,0,31.626667)"
       clip-path="url(#clipPath34)" />
    <path
       id="path35"
       d="M 217.676,119.57 182.266,69.7266"
       style="fill:#087fbf;fill-opacity:1;fill-rule:nonzero;stroke:#ffffff;stroke-width:4;stroke-linecap:butt;stroke-linejoin:miter;stroke-miterlimit:4;stroke-dasharray:none;stroke-opacity:1"
       transform="matrix(0.13333333,0,0,-0.13333333,0,31.626667)"
       clip-path="url(#clipPath36)" />
    <path
       id="path37"
       d="M 196.211,119.57 160.801,69.7266"
       style="fill:#087fbf;fill-opacity:1;fill-rule:nonzero;stroke:#ffffff;stroke-width:4;stroke-linecap:butt;stroke-linejoin:miter;stroke-miterlimit:4;stroke-dasharray:none;stroke-opacity:1"
       transform="matrix(0.13333333,0,0,-0.13333333,0,31.626667)"
       clip-path="url(#clipPath38)" />
    <path
       id="path39"
       d="m 166.895,107.598 h 65.058"
       style="fill:#087fbf;fill-opacity:1;fill-rule:nonzero;stroke:#ffffff;stroke-width:4;stroke-linecap:butt;stroke-linejoin:miter;stroke-miterlimit:4;stroke-dasharray:none;stroke-opacity:1"
       transform="matrix(0.13333333,0,0,-0.13333333,0,31.626667)"
       clip-path="url(#clipPath40)" />
    <path
       id="path41"
       d="m 157.012,94.8828 h 66.367"
       style="fill:#087fbf;fill-opacity:1;fill-rule:nonzero;stroke:#ffffff;stroke-width:4;stroke-linecap:butt;stroke-linejoin:miter;stroke-miterlimit:4;stroke-dasharray:none;stroke-opacity:1"
       transform="matrix(0.13333333,0,0,-0.13333333,0,31.626667)"
       clip-path="url(#clipPath42)" />
    <path
       id="path43"
       d="m 146.523,81.4063 h 67.286"
       style="fill:#087fbf;fill-opacity:1;fill-rule:nonzero;stroke:#ffffff;stroke-width:4;stroke-linecap:butt;stroke-linejoin:miter;stroke-miterlimit:4;stroke-dasharray:none;stroke-opacity:1"
       transform="matrix(0.13333333,0,0,-0.13333333,0,31.626667)"
       clip-path="url(#clipPath44)" />
    <path
       id="path45"
       d="M 349.98,11.8359 C 241.289,2.61719 213.652,-5.21484 97.3633,11.8359 H 3.80859 v 49.8047 c 92.92971,0 92.92971,0.0977 93.55471,0 116.2887,-17.0508 143.9257,-9.2187 252.6167,0 V 11.8359"
       style="fill:#087fbf;fill-opacity:1;fill-rule:nonzero;stroke:none"
       transform="matrix(0.13333333,0,0,-0.13333333,0,31.626667)"
       clip-path="url(#clipPath46)" />
    <path
       id="path47"
       d="M 349.98,11.8359 C 241.289,2.61719 213.652,-5.21484 97.3633,11.8359 H 3.80859 v 49.8047 c 92.92971,0 92.92971,0.0977 93.55471,0 116.2887,-17.0508 143.9257,-9.2187 252.6167,0 z"
       style="fill:none;stroke:#ffffff;stroke-width:4;stroke-linecap:butt;stroke-linejoin:miter;stroke-miterlimit:4;stroke-dasharray:none;stroke-opacity:1"
       transform="matrix(0.13333333,0,0,-0.13333333,0,31.626667)"
       clip-path="url(#clipPath48)" />
    <path
       id="path49"
       d="m 206.27,215.313 v -27.5 h -21.25 l 21.25,27.5"
       style="fill:#087fbf;fill-opacity:1;fill-rule:nonzero;stroke:none"
       transform="matrix(0.13333333,0,0,-0.13333333,0,31.626667)"
       clip-path="url(#clipPath50)" />
    <path
       id="path51"
       d="m 206.27,215.313 v -27.5 h -21.25 z"
       style="fill:none;stroke:#ffffff;stroke-width:4;stroke-linecap:butt;stroke-linejoin:miter;stroke-miterlimit:4;stroke-dasharray:none;stroke-opacity:1"
       transform="matrix(0.13333333,0,0,-0.13333333,0,31.626667)"
       clip-path="url(#clipPath52)" />
    <path
       id="path53"
       d="m 419.238,215.313 v -27.5 h -18.125 l 18.125,27.5"
       style="fill:#231f20;fill-opacity:1;fill-rule:nonzero;stroke:none"
       transform="matrix(0.13333333,0,0,-0.13333333,0,31.626667)"
       clip-path="url(#clipPath54)" />
    <path
       id="path55"
       d="m 419.238,215.313 v -27.5 h -18.125 z"
       style="fill:none;stroke:#ffffff;stroke-width:4;stroke-linecap:butt;stroke-linejoin:miter;stroke-miterlimit:4;stroke-dasharray:none;stroke-opacity:1"
       transform="matrix(0.13333333,0,0,-0.13333333,0,31.626667)"
       clip-path="url(#clipPath56)" />
    <path
       id="path57"
       d="M 1.9232141,-6.5617931 H 0.56383906 V 7.06875e-4 H 1.9232141 Z m 2.6191406,4.21875 h 1.6757812 c 1.2070313,0 1.9804688,-0.8554688 1.9804688,-2.1796875 0,-1.3125 -0.75,-2.0390625 -2.109375,-2.0390625 h -2.90625 V 7.06875e-4 h 1.359375 z m 0,-1.125 v -1.96875 h 1.2539062 c 0.7265625,0 1.0546875,0.3164062 1.0546875,0.984375 0,0.6679687 -0.328125,0.984375 -1.0546875,0.984375 z m 0,0"
       style="fill:#ffffff;fill-opacity:1;fill-rule:nonzero;stroke:none"
       aria-label="IP"
       transform="matrix(1.3333333,0,0,1.3333333,34.884933,22.41312)"
       clip-path="url(#clipPath58)" />
  </g>
</svg>
