<?xml version="1.0" encoding="UTF-8" standalone="no"?>
<!-- Created with Inkscape (http://www.inkscape.org/) -->

<svg
   version="1.1"
   id="svg1"
   width="41.066666"
   height="30.76"
   viewBox="0 0 41.066666 30.76"
   sodipodi:docname="phone.eps"
   xmlns:inkscape="http://www.inkscape.org/namespaces/inkscape"
   xmlns:sodipodi="http://sodipodi.sourceforge.net/DTD/sodipodi-0.dtd"
   xmlns="http://www.w3.org/2000/svg"
   xmlns:svg="http://www.w3.org/2000/svg">
  <defs
     id="defs1" />
  <sodipodi:namedview
     id="namedview1"
     pagecolor="#505050"
     bordercolor="#eeeeee"
     borderopacity="1"
     inkscape:showpageshadow="0"
     inkscape:pageopacity="0"
     inkscape:pagecheckerboard="0"
     inkscape:deskcolor="#d1d1d1">
    <inkscape:page
       x="0"
       y="0"
       inkscape:label="1"
       id="page1"
       width="41.066666"
       height="30.76"
       margin="0"
       bleed="0" />
  </sodipodi:namedview>
  <g
     id="g1"
     inkscape:groupmode="layer"
     inkscape:label="1">
    <path
       id="path1"
       d="m 4.03125,5.82031 h 209.863 v 49.2578 H 4.03125 Z"
       style="fill:#02709f;fill-opacity:1;fill-rule:nonzero;stroke:none"
       transform="matrix(0.13333333,0,0,-0.13333333,0,30.76)" />
    <path
       id="path2"
       d="M 4.03125,5.82031 V 55.0781 H 213.895 V 5.82031 Z"
       style="fill:none;stroke:#ffffff;stroke-width:3.99994;stroke-linecap:butt;stroke-linejoin:miter;stroke-miterlimit:4;stroke-dasharray:none;stroke-opacity:1"
       transform="matrix(0.13333333,0,0,-0.13333333,0,30.76)" />
    <path
       id="path3"
       d="M 213.895,55.0781 H 3.80859 L 103.645,199.988 H 304.434 L 213.895,55.0781"
       style="fill:#02709f;fill-opacity:1;fill-rule:nonzero;stroke:none"
       transform="matrix(0.13333333,0,0,-0.13333333,0,30.76)" />
    <path
       id="path4"
       d="M 213.895,55.0781 H 3.80859 L 103.645,199.988 h 200.789 z"
       style="fill:none;stroke:#ffffff;stroke-width:3.99994;stroke-linecap:butt;stroke-linejoin:miter;stroke-miterlimit:4;stroke-dasharray:none;stroke-opacity:1"
       transform="matrix(0.13333333,0,0,-0.13333333,0,30.76)" />
    <path
       id="path5"
       d="M 304.434,199.988 V 107.344 L 213.895,5.27344 V 55.0781 l 90.539,144.9099"
       style="fill:#02709f;fill-opacity:1;fill-rule:nonzero;stroke:none"
       transform="matrix(0.13333333,0,0,-0.13333333,0,30.76)" />
    <path
       id="path6"
       d="M 304.434,199.988 V 107.344 L 213.895,5.27344 V 55.0781 Z"
       style="fill:none;stroke:#ffffff;stroke-width:3.99994;stroke-linecap:butt;stroke-linejoin:miter;stroke-miterlimit:4;stroke-dasharray:none;stroke-opacity:1"
       transform="matrix(0.13333333,0,0,-0.13333333,0,30.76)" />
    <path
       id="path7"
       d="M 213.895,55.0781 304.434,199.988"
       style="fill:#02709f;fill-opacity:1;fill-rule:nonzero;stroke:#ffffff;stroke-width:3.99994;stroke-linecap:butt;stroke-linejoin:miter;stroke-miterlimit:4;stroke-dasharray:none;stroke-opacity:1"
       transform="matrix(0.13333333,0,0,-0.13333333,0,30.76)" />
    <path
       id="path8"
       d="m 170.02,173.633 c -12.903,-14.824 -28.797,-32.11 -39.004,-48.867 l 0.871,-10.887 -31.809,-49.1329 -3.6796,31.9727 C 102.441,120.918 177.52,215.977 194.805,227.215 l 3.679,-31.981 -27.656,-31.816 -0.808,10.215"
       style="fill:#02709f;fill-opacity:1;fill-rule:nonzero;stroke:none"
       transform="matrix(0.13333333,0,0,-0.13333333,0,30.76)" />
    <path
       id="path9"
       d="m 170.02,173.633 c -12.903,-14.824 -28.797,-32.11 -39.004,-48.867 l 0.871,-10.887 -31.809,-49.1329 -3.6796,31.9727 C 102.441,120.918 177.52,215.977 194.805,227.215 l 3.679,-31.981 -27.656,-31.816 z"
       style="fill:none;stroke:#ffffff;stroke-width:3.99994;stroke-linecap:butt;stroke-linejoin:miter;stroke-miterlimit:4;stroke-dasharray:none;stroke-opacity:1"
       transform="matrix(0.13333333,0,0,-0.13333333,0,30.76)" />
    <path
       id="path10"
       d="M 58.8281,96.7188 55.1484,64.7461 H 100.078 L 96.3984,96.7188 H 58.8281"
       style="fill:#02709f;fill-opacity:1;fill-rule:nonzero;stroke:none"
       transform="matrix(0.13333333,0,0,-0.13333333,0,30.76)" />
    <path
       id="path11"
       d="M 58.8281,96.7188 55.1484,64.7461 h 44.9296 l -3.6796,31.9727 z"
       style="fill:none;stroke:#ffffff;stroke-width:3.99994;stroke-linecap:butt;stroke-linejoin:miter;stroke-miterlimit:4;stroke-dasharray:none;stroke-opacity:1"
       transform="matrix(0.13333333,0,0,-0.13333333,0,30.76)" />
    <path
       id="path12"
       d="M 194.805,227.215 C 177.52,215.977 102.441,120.918 96.3984,96.7188 H 58.8281 C 64.8828,120.918 139.941,215.977 157.227,227.215 h 37.578"
       style="fill:#02709f;fill-opacity:1;fill-rule:nonzero;stroke:none"
       transform="matrix(0.13333333,0,0,-0.13333333,0,30.76)" />
    <path
       id="path13"
       d="M 194.805,227.215 C 177.52,215.977 102.441,120.918 96.3984,96.7188 H 58.8281 C 64.8828,120.918 139.941,215.977 157.227,227.215 Z"
       style="fill:none;stroke:#ffffff;stroke-width:3.99994;stroke-linecap:butt;stroke-linejoin:miter;stroke-miterlimit:4;stroke-dasharray:none;stroke-opacity:1"
       transform="matrix(0.13333333,0,0,-0.13333333,0,30.76)" />
    <path
       id="path14"
       d="m 129.922,71.7383 44.355,63.3007 h 66.758 L 201.406,71.7383 h -71.484"
       style="fill:#02709f;fill-opacity:1;fill-rule:nonzero;stroke:none"
       transform="matrix(0.13333333,0,0,-0.13333333,0,30.76)" />
    <path
       id="path15"
       d="m 129.922,71.7383 44.355,63.3007 h 66.758 L 201.406,71.7383 Z"
       style="fill:none;stroke:#ffffff;stroke-width:3.99994;stroke-linecap:butt;stroke-linejoin:miter;stroke-miterlimit:4;stroke-dasharray:none;stroke-opacity:1"
       transform="matrix(0.13333333,0,0,-0.13333333,0,30.76)" />
    <path
       id="path16"
       d="m 177.578,71.7383 41.211,63.3007"
       style="fill:#02709f;fill-opacity:1;fill-rule:nonzero;stroke:#ffffff;stroke-width:3.99994;stroke-linecap:butt;stroke-linejoin:miter;stroke-miterlimit:4;stroke-dasharray:none;stroke-opacity:1"
       transform="matrix(0.13333333,0,0,-0.13333333,0,30.76)" />
    <path
       id="path17"
       d="m 153.75,71.7383 42.781,63.3007"
       style="fill:#02709f;fill-opacity:1;fill-rule:nonzero;stroke:#ffffff;stroke-width:3.99994;stroke-linecap:butt;stroke-linejoin:miter;stroke-miterlimit:4;stroke-dasharray:none;stroke-opacity:1"
       transform="matrix(0.13333333,0,0,-0.13333333,0,30.76)" />
    <path
       id="path18"
       d="M 211.316,87.5586 H 141.008"
       style="fill:#02709f;fill-opacity:1;fill-rule:nonzero;stroke:#ffffff;stroke-width:3.99994;stroke-linecap:butt;stroke-linejoin:miter;stroke-miterlimit:4;stroke-dasharray:none;stroke-opacity:1"
       transform="matrix(0.13333333,0,0,-0.13333333,0,30.76)" />
    <path
       id="path19"
       d="M 221.223,103.379 H 152.102"
       style="fill:#02709f;fill-opacity:1;fill-rule:nonzero;stroke:#ffffff;stroke-width:3.99994;stroke-linecap:butt;stroke-linejoin:miter;stroke-miterlimit:4;stroke-dasharray:none;stroke-opacity:1"
       transform="matrix(0.13333333,0,0,-0.13333333,0,30.76)" />
    <path
       id="path20"
       d="M 231.133,119.211 H 163.184"
       style="fill:#02709f;fill-opacity:1;fill-rule:nonzero;stroke:#ffffff;stroke-width:3.99994;stroke-linecap:butt;stroke-linejoin:miter;stroke-miterlimit:4;stroke-dasharray:none;stroke-opacity:1"
       transform="matrix(0.13333333,0,0,-0.13333333,0,30.76)" />
  </g>
</svg>
