<?xml version="1.0" encoding="UTF-8" standalone="no"?>
<!-- Created with Inkscape (http://www.inkscape.org/) -->

<svg
   version="1.1"
   id="svg1"
   width="51.693333"
   height="26.773333"
   viewBox="0 0 51.693333 26.773333"
   sodipodi:docname="RF modem.eps"
   xmlns:inkscape="http://www.inkscape.org/namespaces/inkscape"
   xmlns:sodipodi="http://sodipodi.sourceforge.net/DTD/sodipodi-0.dtd"
   xmlns="http://www.w3.org/2000/svg"
   xmlns:svg="http://www.w3.org/2000/svg">
  <defs
     id="defs1" />
  <sodipodi:namedview
     id="namedview1"
     pagecolor="#505050"
     bordercolor="#eeeeee"
     borderopacity="1"
     inkscape:showpageshadow="0"
     inkscape:pageopacity="0"
     inkscape:pagecheckerboard="0"
     inkscape:deskcolor="#d1d1d1">
    <inkscape:page
       x="0"
       y="0"
       inkscape:label="1"
       id="page1"
       width="51.693333"
       height="26.773333"
       margin="0"
       bleed="0" />
  </sodipodi:namedview>
  <g
     id="g1"
     inkscape:groupmode="layer"
     inkscape:label="1">
    <g
       id="group-R5">
      <path
         id="path2"
         d="M 6.07813,68.1445 V 142.59 H 303.852 V 68.1445 H 6.07813"
         style="fill:#2b669e;fill-opacity:1;fill-rule:nonzero;stroke:none"
         transform="matrix(0.13333333,0,0,-0.13333333,0,26.773333)" />
      <path
         id="path3"
         d="M 6.07813,68.1445 V 142.59 H 303.852 V 68.1445 Z"
         style="fill:none;stroke:#ffffff;stroke-width:4;stroke-linecap:butt;stroke-linejoin:miter;stroke-miterlimit:4;stroke-dasharray:none;stroke-opacity:1"
         transform="matrix(0.13333333,0,0,-0.13333333,0,26.773333)" />
      <path
         id="path4"
         d="M 303.852,67.7734 V 142.59 H 5.92188 L 79.5742,198.75 H 345.551 364.75 V 136.426 L 303.852,67.7734"
         style="fill:#2b669e;fill-opacity:1;fill-rule:nonzero;stroke:none"
         transform="matrix(0.13333333,0,0,-0.13333333,0,26.773333)" />
      <path
         id="path5"
         d="M 303.852,67.7734 V 142.59 H 5.92188 L 79.5742,198.75 H 345.551 364.75 v -62.324 z"
         style="fill:none;stroke:#ffffff;stroke-width:4;stroke-linecap:butt;stroke-linejoin:miter;stroke-miterlimit:4;stroke-dasharray:none;stroke-opacity:1"
         transform="matrix(0.13333333,0,0,-0.13333333,0,26.773333)" />
      <path
         id="path6"
         d="m 307.016,143.926 53.39,53.664"
         style="fill:#2b669e;fill-opacity:1;fill-rule:nonzero;stroke:#ffffff;stroke-width:4;stroke-linecap:butt;stroke-linejoin:miter;stroke-miterlimit:4;stroke-dasharray:none;stroke-opacity:1"
         transform="matrix(0.13333333,0,0,-0.13333333,0,26.773333)" />
      <path
         id="path7"
         d="m 82.8359,97.0117 h -47.5 v 13.7503 h 47.5 V 97.0117"
         style="fill:#ffffff;fill-opacity:1;fill-rule:nonzero;stroke:none"
         transform="matrix(0.13333333,0,0,-0.13333333,0,26.773333)" />
      <path
         id="path8"
         d="M 145.336,97.0117 H 97.8359 V 110.762 H 145.336 V 97.0117"
         style="fill:#ffffff;fill-opacity:1;fill-rule:nonzero;stroke:none"
         transform="matrix(0.13333333,0,0,-0.13333333,0,26.773333)" />
      <path
         id="path9"
         d="m 207.836,97.0117 h -47.5 v 13.7503 h 47.5 V 97.0117"
         style="fill:#ffffff;fill-opacity:1;fill-rule:nonzero;stroke:none"
         transform="matrix(0.13333333,0,0,-0.13333333,0,26.773333)" />
      <path
         id="path10"
         d="m 270.336,97.0117 h -47.5 v 13.7503 h 47.5 V 97.0117"
         style="fill:#ffffff;fill-opacity:1;fill-rule:nonzero;stroke:none"
         transform="matrix(0.13333333,0,0,-0.13333333,0,26.773333)" />
      <path
         id="path11"
         d="M 385.16,69.6953 C 387.543,54.2773 382.035,36.3672 369.008,22.207 355.336,7.3125 336.82,0.332031 320.648,2.33594"
         style="fill:none;stroke:#2b669e;stroke-width:4;stroke-linecap:round;stroke-linejoin:round;stroke-miterlimit:1;stroke-dasharray:none;stroke-opacity:1"
         transform="matrix(0.13333333,0,0,-0.13333333,0,26.773333)" />
      <path
         id="path12"
         d="M 378.316,71.3555 C 380.523,57.0117 375.406,40.3516 363.285,27.1797 350.563,13.3203 333.336,6.82422 318.297,8.69141"
         style="fill:none;stroke:#2b669e;stroke-width:4;stroke-linecap:round;stroke-linejoin:round;stroke-miterlimit:1;stroke-dasharray:none;stroke-opacity:1"
         transform="matrix(0.13333333,0,0,-0.13333333,0,26.773333)" />
      <path
         id="path13"
         d="M 371.461,73.0195 C 373.512,59.7461 368.773,44.3359 357.563,32.1484 345.797,19.3359 329.859,13.3203 315.941,15.0508"
         style="fill:none;stroke:#2b669e;stroke-width:4;stroke-linecap:round;stroke-linejoin:round;stroke-miterlimit:1;stroke-dasharray:none;stroke-opacity:1"
         transform="matrix(0.13333333,0,0,-0.13333333,0,26.773333)" />
      <path
         id="path14"
         d="M 364.613,74.6797 C 366.488,62.4805 362.145,48.3203 351.84,37.1172 341.02,25.3438 326.371,19.8125 313.59,21.4063"
         style="fill:none;stroke:#2b669e;stroke-width:4;stroke-linecap:round;stroke-linejoin:round;stroke-miterlimit:1;stroke-dasharray:none;stroke-opacity:1"
         transform="matrix(0.13333333,0,0,-0.13333333,0,26.773333)" />
      <path
         id="path15"
         d="M 357.77,76.3398 C 359.477,65.2266 355.504,52.2969 346.117,42.0898 336.254,31.3555 322.895,26.3164 311.246,27.7539"
         style="fill:none;stroke:#2b669e;stroke-width:4;stroke-linecap:round;stroke-linejoin:round;stroke-miterlimit:1;stroke-dasharray:none;stroke-opacity:1"
         transform="matrix(0.13333333,0,0,-0.13333333,0,26.773333)" />
      <path
         id="path16"
         d="M 350.922,77.9961 C 352.457,67.9609 348.871,56.2773 340.395,47.0625 331.48,37.3633 319.41,32.8125 308.891,34.1094"
         style="fill:none;stroke:#2b669e;stroke-width:4;stroke-linecap:round;stroke-linejoin:round;stroke-miterlimit:1;stroke-dasharray:none;stroke-opacity:1"
         transform="matrix(0.13333333,0,0,-0.13333333,0,26.773333)" />
      <path
         id="path17"
         d="m 344.066,79.6563 c 1.379,-8.9649 -1.824,-19.3907 -9.394,-27.625 -7.957,-8.6524 -18.738,-12.7227 -28.133,-11.5625"
         style="fill:none;stroke:#2b669e;stroke-width:4;stroke-linecap:round;stroke-linejoin:round;stroke-miterlimit:1;stroke-dasharray:none;stroke-opacity:1"
         transform="matrix(0.13333333,0,0,-0.13333333,0,26.773333)" />
      <path
         id="path18"
         d="m 337.223,81.3164 c 1.199,-7.8867 -1.614,-17.0703 -8.274,-24.3125 -7.011,-7.6172 -16.504,-11.2031 -24.765,-10.1797"
         style="fill:none;stroke:#2b669e;stroke-width:4;stroke-linecap:round;stroke-linejoin:round;stroke-miterlimit:1;stroke-dasharray:none;stroke-opacity:1"
         transform="matrix(0.13333333,0,0,-0.13333333,0,26.773333)" />
    </g>
  </g>
</svg>
