<?xml version="1.0" encoding="UTF-8" standalone="no"?>
<!-- Created with Inkscape (http://www.inkscape.org/) -->

<svg
   version="1.1"
   id="svg1"
   width="51.386665"
   height="48.733334"
   viewBox="0 0 51.386665 48.733334"
   sodipodi:docname="scanner.eps"
   xmlns:inkscape="http://www.inkscape.org/namespaces/inkscape"
   xmlns:sodipodi="http://sodipodi.sourceforge.net/DTD/sodipodi-0.dtd"
   xmlns="http://www.w3.org/2000/svg"
   xmlns:svg="http://www.w3.org/2000/svg">
  <defs
     id="defs1" />
  <sodipodi:namedview
     id="namedview1"
     pagecolor="#505050"
     bordercolor="#eeeeee"
     borderopacity="1"
     inkscape:showpageshadow="0"
     inkscape:pageopacity="0"
     inkscape:pagecheckerboard="0"
     inkscape:deskcolor="#d1d1d1">
    <inkscape:page
       x="0"
       y="0"
       inkscape:label="1"
       id="page1"
       width="51.386665"
       height="48.733334"
       margin="0"
       bleed="0" />
  </sodipodi:namedview>
  <g
     id="g1"
     inkscape:groupmode="layer"
     inkscape:label="1">
    <path
       id="path1"
       d="M 128.512,219.578 H 334.34 L 363.578,359.66 H 167.789 L 128.512,219.578"
       style="fill:#036998;fill-opacity:1;fill-rule:nonzero;stroke:none"
       transform="matrix(0.13333333,0,0,-0.13333333,0,48.733333)" />
    <path
       id="path2"
       d="M 128.512,219.578 H 334.34 L 363.578,359.66 H 167.789 Z"
       style="fill:none;stroke:#ffffff;stroke-width:3.99994;stroke-linecap:butt;stroke-linejoin:miter;stroke-miterlimit:4;stroke-dasharray:none;stroke-opacity:1"
       transform="matrix(0.13333333,0,0,-0.13333333,0,48.733333)" />
    <path
       id="path3"
       d="M 128.512,219.578 149.566,179.57 H 355.395 L 334.34,219.578 H 128.512"
       style="fill:#036998;fill-opacity:1;fill-rule:nonzero;stroke:none"
       transform="matrix(0.13333333,0,0,-0.13333333,0,48.733333)" />
    <path
       id="path4"
       d="M 128.512,219.578 149.566,179.57 H 355.395 L 334.34,219.578 Z"
       style="fill:none;stroke:#ffffff;stroke-width:3.99994;stroke-linecap:butt;stroke-linejoin:miter;stroke-miterlimit:4;stroke-dasharray:none;stroke-opacity:1"
       transform="matrix(0.13333333,0,0,-0.13333333,0,48.733333)" />
    <path
       id="path5"
       d="M 363.578,359.66 383.324,322.148 355.395,179.57 334.34,219.578 363.578,359.66"
       style="fill:#036998;fill-opacity:1;fill-rule:nonzero;stroke:#ffffff;stroke-width:3.99994;stroke-linecap:butt;stroke-linejoin:miter;stroke-miterlimit:4;stroke-dasharray:none;stroke-opacity:1"
       transform="matrix(0.13333333,0,0,-0.13333333,0,48.733333)" />
    <path
       id="path6"
       d="M 4.57422,43.5742 H 162.34 L 311.566,215.664 H 163.863 L 4.57422,43.5742"
       style="fill:#036998;fill-opacity:1;fill-rule:nonzero;stroke:#ffffff;stroke-width:3.99994;stroke-linecap:butt;stroke-linejoin:miter;stroke-miterlimit:4;stroke-dasharray:none;stroke-opacity:1"
       transform="matrix(0.13333333,0,0,-0.13333333,0,48.733333)" />
    <path
       id="path7"
       d="M 4.57422,43.5742 25.6289,3.55469 H 183.395 L 162.34,43.5742 H 4.57422"
       style="fill:#036998;fill-opacity:1;fill-rule:nonzero;stroke:none"
       transform="matrix(0.13333333,0,0,-0.13333333,0,48.733333)" />
    <path
       id="path8"
       d="M 4.57422,43.5742 25.6289,3.55469 H 183.395 L 162.34,43.5742 Z"
       style="fill:none;stroke:#ffffff;stroke-width:3.99994;stroke-linecap:butt;stroke-linejoin:miter;stroke-miterlimit:4;stroke-dasharray:none;stroke-opacity:1"
       transform="matrix(0.13333333,0,0,-0.13333333,0,48.733333)" />
    <path
       id="path9"
       d="M 311.566,215.664 331.313,178.145 183.395,3.55469 162.34,43.5742 311.566,215.664"
       style="fill:#036998;fill-opacity:1;fill-rule:nonzero;stroke:#ffffff;stroke-width:3.99994;stroke-linecap:butt;stroke-linejoin:miter;stroke-miterlimit:4;stroke-dasharray:none;stroke-opacity:1"
       transform="matrix(0.13333333,0,0,-0.13333333,0,48.733333)" />
    <path
       id="path10"
       d="m 157.965,200.441 h 16.074 L 163.102,188.43 h -16.055 l 10.918,12.011"
       style="fill:#ffffff;fill-opacity:1;fill-rule:nonzero;stroke:none"
       transform="matrix(0.13333333,0,0,-0.13333333,0,48.733333)" />
    <path
       id="path11"
       d="m 133.363,162.852 19.336,4.511 -10.937,-12.011 -10.516,6.445"
       style="fill:#ffffff;fill-opacity:1;fill-rule:nonzero;stroke:none"
       transform="matrix(0.13333333,0,0,-0.13333333,0,48.733333)" />
    <path
       id="path12"
       d="m 186.07,200.441 h 16.055 L 191.207,188.43 h -16.055 l 10.918,12.011"
       style="fill:#ffffff;fill-opacity:1;fill-rule:nonzero;stroke:none"
       transform="matrix(0.13333333,0,0,-0.13333333,0,48.733333)" />
    <path
       id="path13"
       d="m 214.195,200.441 h 16.055 l -8.918,-12.011 h -18.055 l 10.918,12.011"
       style="fill:#ffffff;fill-opacity:1;fill-rule:nonzero;stroke:none"
       transform="matrix(0.13333333,0,0,-0.13333333,0,48.733333)" />
    <path
       id="path14"
       d="m 242.301,200.441 h 16.082 l -8.926,-12.011 h -16.062 l 8.906,12.011"
       style="fill:#ffffff;fill-opacity:1;fill-rule:nonzero;stroke:none"
       transform="matrix(0.13333333,0,0,-0.13333333,0,48.733333)" />
    <path
       id="path15"
       d="m 126.734,131.094 h 16.063 l -11.356,-11.992 h -16.066 l 11.359,11.992"
       style="fill:#ffffff;fill-opacity:1;fill-rule:nonzero;stroke:none"
       transform="matrix(0.13333333,0,0,-0.13333333,0,48.733333)" />
    <path
       id="path16"
       d="m 154.859,131.094 h 16.055 l -9.355,-11.992 h -18.067 l 11.367,11.992"
       style="fill:#ffffff;fill-opacity:1;fill-rule:nonzero;stroke:none"
       transform="matrix(0.13333333,0,0,-0.13333333,0,48.733333)" />
    <path
       id="path17"
       d="m 182.965,131.094 h 16.074 l -9.355,-11.992 h -16.067 l 9.348,11.992"
       style="fill:#ffffff;fill-opacity:1;fill-rule:nonzero;stroke:none"
       transform="matrix(0.13333333,0,0,-0.13333333,0,48.733333)" />
    <path
       id="path18"
       d="M 94.7109,99.1016 H 110.777 L 100.602,87.0898 H 84.5273 l 10.1836,12.0118"
       style="fill:#ffffff;fill-opacity:1;fill-rule:nonzero;stroke:none"
       transform="matrix(0.13333333,0,0,-0.13333333,0,48.733333)" />
    <path
       id="path19"
       d="m 122.828,99.1016 h 16.063 l -8.172,-12.0118 h -18.078 l 10.187,12.0118"
       style="fill:#ffffff;fill-opacity:1;fill-rule:nonzero;stroke:none"
       transform="matrix(0.13333333,0,0,-0.13333333,0,48.733333)" />
    <path
       id="path20"
       d="m 150.934,99.1016 h 16.082 L 158.824,87.0898 H 142.77 l 8.164,12.0118"
       style="fill:#ffffff;fill-opacity:1;fill-rule:nonzero;stroke:none"
       transform="matrix(0.13333333,0,0,-0.13333333,0,48.733333)" />
    <path
       id="path21"
       d="M 272.426,200.441 H 288.5 L 277.563,188.43 h -16.055 l 10.918,12.011"
       style="fill:#ffffff;fill-opacity:1;fill-rule:nonzero;stroke:none"
       transform="matrix(0.13333333,0,0,-0.13333333,0,48.733333)" />
    <path
       id="path22"
       d="m 232.965,165.234 11.336,-5.586 -2.137,-1.054 -20.129,-5.371 10.93,12.011"
       style="fill:#ffffff;fill-opacity:1;fill-rule:nonzero;stroke:none"
       transform="matrix(0.13333333,0,0,-0.13333333,0,48.733333)" />
    <path
       id="path23"
       d="m 206.07,161.523 c -3.097,-5.156 -15.136,-9.335 -26.925,-9.335 -11.786,0 -18.836,4.179 -15.75,9.335 3.093,5.157 15.156,9.336 26.953,9.336 11.777,0 18.808,-4.179 15.722,-9.336"
       style="fill:#ffffff;fill-opacity:1;fill-rule:nonzero;stroke:none"
       transform="matrix(0.13333333,0,0,-0.13333333,0,48.733333)" />
    <path
       id="path24"
       d="m 302.406,250.645 c -1.718,-6.36 -8.242,-11.512 -14.609,-11.512 H 180.191 c -6.367,0 -10.148,5.152 -8.457,11.512 l 20.879,78.3 c 1.7,6.379 8.242,11.535 14.59,11.535 h 107.625 c 6.367,0 10.156,-5.156 8.438,-11.535 l -20.86,-78.3"
       style="fill:#036998;fill-opacity:1;fill-rule:nonzero;stroke:none"
       transform="matrix(0.13333333,0,0,-0.13333333,0,48.733333)" />
    <path
       id="path25"
       d="m 302.406,250.645 c -1.718,-6.36 -8.242,-11.512 -14.609,-11.512 H 180.191 c -6.367,0 -10.148,5.152 -8.457,11.512 l 20.879,78.3 c 1.7,6.379 8.242,11.535 14.59,11.535 h 107.625 c 6.367,0 10.156,-5.156 8.438,-11.535 z"
       style="fill:none;stroke:#ffffff;stroke-width:3.99994;stroke-linecap:butt;stroke-linejoin:miter;stroke-miterlimit:4;stroke-dasharray:none;stroke-opacity:1"
       transform="matrix(0.13333333,0,0,-0.13333333,0,48.733333)" />
  </g>
</svg>
