<?xml version="1.0" encoding="UTF-8" standalone="no"?>
<!-- Created with Inkscape (http://www.inkscape.org/) -->

<svg
   version="1.1"
   id="svg1"
   width="73.080002"
   height="27.52"
   viewBox="0 0 73.080002 27.52"
   sodipodi:docname="Set top box.eps"
   xmlns:inkscape="http://www.inkscape.org/namespaces/inkscape"
   xmlns:sodipodi="http://sodipodi.sourceforge.net/DTD/sodipodi-0.dtd"
   xmlns="http://www.w3.org/2000/svg"
   xmlns:svg="http://www.w3.org/2000/svg">
  <defs
     id="defs1" />
  <sodipodi:namedview
     id="namedview1"
     pagecolor="#505050"
     bordercolor="#eeeeee"
     borderopacity="1"
     inkscape:showpageshadow="0"
     inkscape:pageopacity="0"
     inkscape:pagecheckerboard="0"
     inkscape:deskcolor="#d1d1d1">
    <inkscape:page
       x="0"
       y="0"
       inkscape:label="1"
       id="page1"
       width="73.080002"
       height="27.52"
       margin="0"
       bleed="0" />
  </sodipodi:namedview>
  <g
     id="g1"
     inkscape:groupmode="layer"
     inkscape:label="1">
    <g
       id="group-R5">
      <path
         id="path2"
         d="M 423.773,8.46875 V 85.5273 H 6.57813 V 8.46875 H 423.773"
         style="fill:#0881c1;fill-opacity:1;fill-rule:nonzero;stroke:none"
         transform="matrix(0.13333333,0,0,-0.13333333,0,27.52)" />
      <path
         id="path3"
         d="M 413.617,11.9922 V 74.8711 H 14.8086 V 11.9922 H 413.617"
         style="fill:#0881c1;fill-opacity:1;fill-rule:nonzero;stroke:none"
         transform="matrix(0.13333333,0,0,-0.13333333,0,27.52)" />
      <path
         id="path4"
         d="M 413.617,11.9922 V 74.8711 H 14.8086 V 11.9922 Z"
         style="fill:none;stroke:#ffffff;stroke-width:4;stroke-linecap:butt;stroke-linejoin:miter;stroke-miterlimit:4;stroke-dasharray:none;stroke-opacity:1"
         transform="matrix(0.13333333,0,0,-0.13333333,0,27.52)" />
      <path
         id="path5"
         d="M 5.64453,84.9414 149.934,201.887 H 543.227 L 423.441,84.9414 H 5.64453"
         style="fill:#0881c1;fill-opacity:1;fill-rule:nonzero;stroke:none"
         transform="matrix(0.13333333,0,0,-0.13333333,0,27.52)" />
      <path
         id="path6"
         d="M 5.64453,84.9414 149.934,201.887 H 543.227 L 423.441,84.9414 Z"
         style="fill:none;stroke:#ffffff;stroke-width:4;stroke-linecap:butt;stroke-linejoin:miter;stroke-miterlimit:4;stroke-dasharray:none;stroke-opacity:1"
         transform="matrix(0.13333333,0,0,-0.13333333,0,27.52)" />
      <path
         id="path7"
         d="M 423.578,4.81641 542.895,123.645 542.973,201.672 423.578,85.1094 V 4.81641"
         style="fill:#0881c1;fill-opacity:1;fill-rule:nonzero;stroke:none"
         transform="matrix(0.13333333,0,0,-0.13333333,0,27.52)" />
      <path
         id="path8"
         d="M 423.578,4.81641 542.895,123.645 542.973,201.672 423.578,85.1094 Z"
         style="fill:none;stroke:#ffffff;stroke-width:4;stroke-linecap:butt;stroke-linejoin:miter;stroke-miterlimit:4;stroke-dasharray:none;stroke-opacity:1"
         transform="matrix(0.13333333,0,0,-0.13333333,0,27.52)" />
      <path
         id="path9"
         d="M 56.5469,34.4727 H 31.8516 v 18.75 h 24.6953 v -18.75"
         style="fill:#ffffff;fill-opacity:1;fill-rule:nonzero;stroke:none"
         transform="matrix(0.13333333,0,0,-0.13333333,0,27.52)" />
      <path
         id="path10"
         d="m 216.547,34.4727 h -24.695 v 18.75 h 24.695 v -18.75"
         style="fill:#ffffff;fill-opacity:1;fill-rule:nonzero;stroke:none"
         transform="matrix(0.13333333,0,0,-0.13333333,0,27.52)" />
      <path
         id="path11"
         d="M 403.207,34.4727 H 378.52 v 18.75 h 24.687 v -18.75"
         style="fill:#ffffff;fill-opacity:1;fill-rule:nonzero;stroke:none"
         transform="matrix(0.13333333,0,0,-0.13333333,0,27.52)" />
      <path
         id="path12"
         d="m 319.242,75.7539 c 14.824,-6.4375 24.629,-17.5703 24.629,-30.2266 0,-19.914 -24.258,-36.04292 -54.168,-36.04292 -29.914,0 -54.172,16.12892 -54.172,36.04292 0,19.9141 24.258,36.043 54.172,36.043 10.899,0 21.043,-2.1367 29.539,-5.8164"
         style="fill:#0881c1;fill-opacity:1;fill-rule:nonzero;stroke:#ffffff;stroke-width:3.731;stroke-linecap:butt;stroke-linejoin:miter;stroke-miterlimit:4;stroke-dasharray:none;stroke-opacity:1"
         transform="matrix(0.13333333,0,0,-0.13333333,0,27.52)" />
      <path
         id="path13"
         d="m 330.746,45.7031 c 0,-14.9297 -18.191,-27.0429 -40.625,-27.0429 -22.441,0 -40.625,12.1132 -40.625,27.0429 0,14.9336 18.184,27.0313 40.625,27.0313 22.434,0 40.625,-12.0977 40.625,-27.0313"
         style="fill:#ffffff;fill-opacity:1;fill-rule:nonzero;stroke:none"
         transform="matrix(0.13333333,0,0,-0.13333333,0,27.52)" />
      <path
         id="path14"
         d="m 330.746,45.7031 c 0,-14.9297 -18.191,-27.0429 -40.625,-27.0429 -22.441,0 -40.625,12.1132 -40.625,27.0429 0,14.9336 18.184,27.0313 40.625,27.0313 22.434,0 40.625,-12.0977 40.625,-27.0313 z"
         style="fill:none;stroke:#ffffff;stroke-width:2.798;stroke-linecap:butt;stroke-linejoin:miter;stroke-miterlimit:4;stroke-dasharray:none;stroke-opacity:1"
         transform="matrix(0.13333333,0,0,-0.13333333,0,27.52)" />
    </g>
  </g>
</svg>
