<?xml version="1.0" encoding="UTF-8" standalone="no"?>
<!-- Created with Inkscape (http://www.inkscape.org/) -->

<svg
   version="1.1"
   id="svg1"
   width="39.16"
   height="35.893333"
   viewBox="0 0 39.16 35.893333"
   sodipodi:docname="softphone.eps"
   xmlns:inkscape="http://www.inkscape.org/namespaces/inkscape"
   xmlns:sodipodi="http://sodipodi.sourceforge.net/DTD/sodipodi-0.dtd"
   xmlns="http://www.w3.org/2000/svg"
   xmlns:svg="http://www.w3.org/2000/svg">
  <defs
     id="defs1">
    <clipPath
       clipPathUnits="userSpaceOnUse"
       id="clipPath2">
      <path
         d="M 0,269 H 290 V 0 H 0 Z"
         id="path2" />
    </clipPath>
    <clipPath
       clipPathUnits="userSpaceOnUse"
       id="clipPath4">
      <path
         d="M 0,269 H 290 V 0 H 0 Z"
         id="path4" />
    </clipPath>
    <clipPath
       clipPathUnits="userSpaceOnUse"
       id="clipPath6">
      <path
         d="M 0,269 H 290 V 0 H 0 Z"
         id="path6" />
    </clipPath>
    <clipPath
       clipPathUnits="userSpaceOnUse"
       id="clipPath8">
      <path
         d="M 0,269 H 290 V 0 H 0 Z"
         id="path8" />
    </clipPath>
    <clipPath
       clipPathUnits="userSpaceOnUse"
       id="clipPath10">
      <path
         d="M 0,269 H 290 V 0 H 0 Z"
         id="path10" />
    </clipPath>
    <clipPath
       clipPathUnits="userSpaceOnUse"
       id="clipPath12">
      <path
         d="M 0,269 H 290 V 0 H 0 Z"
         id="path12" />
    </clipPath>
    <clipPath
       clipPathUnits="userSpaceOnUse"
       id="clipPath14">
      <path
         d="M 0,269 H 290 V 0 H 0 Z"
         id="path14" />
    </clipPath>
    <clipPath
       clipPathUnits="userSpaceOnUse"
       id="clipPath16">
      <path
         d="M 0,269 H 290 V 0 H 0 Z"
         id="path16" />
    </clipPath>
    <clipPath
       clipPathUnits="userSpaceOnUse"
       id="clipPath18">
      <path
         d="M 0,269 H 290 V 0 H 0 Z"
         id="path18" />
    </clipPath>
    <clipPath
       clipPathUnits="userSpaceOnUse"
       id="clipPath20">
      <path
         d="M 0,269 H 290 V 0 H 0 Z"
         id="path20" />
    </clipPath>
    <clipPath
       clipPathUnits="userSpaceOnUse"
       id="clipPath22">
      <path
         d="M 0,269 H 290 V 0 H 0 Z"
         id="path22" />
    </clipPath>
    <clipPath
       clipPathUnits="userSpaceOnUse"
       id="clipPath24">
      <path
         d="M 0,269 H 290 V 0 H 0 Z"
         id="path24" />
    </clipPath>
    <clipPath
       clipPathUnits="userSpaceOnUse"
       id="clipPath26">
      <path
         d="M 0,269 H 290 V 0 H 0 Z"
         id="path26" />
    </clipPath>
    <clipPath
       clipPathUnits="userSpaceOnUse"
       id="clipPath28">
      <path
         d="M 0,269 H 290 V 0 H 0 Z"
         id="path28" />
    </clipPath>
    <clipPath
       clipPathUnits="userSpaceOnUse"
       id="clipPath30">
      <path
         d="M 0,269 H 290 V 0 H 0 Z"
         id="path30" />
    </clipPath>
    <clipPath
       clipPathUnits="userSpaceOnUse"
       id="clipPath32">
      <path
         d="M 0,269 H 290 V 0 H 0 Z"
         id="path32" />
    </clipPath>
    <clipPath
       clipPathUnits="userSpaceOnUse"
       id="clipPath34">
      <path
         d="M 0,269 H 290 V 0 H 0 Z"
         id="path34" />
    </clipPath>
    <clipPath
       clipPathUnits="userSpaceOnUse"
       id="clipPath36">
      <path
         d="M 0,269 H 290 V 0 H 0 Z"
         id="path36" />
    </clipPath>
    <clipPath
       clipPathUnits="userSpaceOnUse"
       id="clipPath38">
      <path
         d="M 0,269 H 290 V 0 H 0 Z"
         id="path38" />
    </clipPath>
    <clipPath
       clipPathUnits="userSpaceOnUse"
       id="clipPath40">
      <path
         d="M 0,269 H 290 V 0 H 0 Z"
         id="path40" />
    </clipPath>
    <clipPath
       clipPathUnits="userSpaceOnUse"
       id="clipPath42">
      <path
         d="M 0,269 H 290 V 0 H 0 Z"
         id="path42" />
    </clipPath>
  </defs>
  <sodipodi:namedview
     id="namedview1"
     pagecolor="#505050"
     bordercolor="#eeeeee"
     borderopacity="1"
     inkscape:showpageshadow="0"
     inkscape:pageopacity="0"
     inkscape:pagecheckerboard="0"
     inkscape:deskcolor="#d1d1d1">
    <inkscape:page
       x="0"
       y="0"
       inkscape:label="1"
       id="page1"
       width="39.16"
       height="35.893333"
       margin="0"
       bleed="0" />
  </sodipodi:namedview>
  <g
     id="g1"
     inkscape:groupmode="layer"
     inkscape:label="1">
    <path
       id="path1"
       d="m 46.6641,33.4883 h 209.59 v 39.207 h -209.59 z"
       style="fill:#036998;fill-opacity:1;fill-rule:nonzero;stroke:none"
       transform="matrix(0.13333333,0,0,-0.13333333,0,35.893333)"
       clip-path="url(#clipPath2)" />
    <path
       id="path3"
       d="m 46.6641,33.4883 v 39.207 H 256.254 v -39.207 z"
       style="fill:none;stroke:#ffffff;stroke-width:3.99994;stroke-linecap:butt;stroke-linejoin:miter;stroke-miterlimit:4;stroke-dasharray:none;stroke-opacity:1"
       transform="matrix(0.13333333,0,0,-0.13333333,0,35.893333)"
       clip-path="url(#clipPath4)" />
    <path
       id="path5"
       d="M 291.723,108.438 V 68.8398 L 256.254,33.0977 V 72.6953 H 46.5078"
       style="fill:#036998;fill-opacity:1;fill-rule:nonzero;stroke:#ffffff;stroke-width:3.99994;stroke-linecap:butt;stroke-linejoin:miter;stroke-miterlimit:4;stroke-dasharray:none;stroke-opacity:1"
       transform="matrix(0.13333333,0,0,-0.13333333,0,35.893333)"
       clip-path="url(#clipPath6)" />
    <path
       id="path7"
       d="M 48.168,108.438 H 291.723"
       style="fill:#036998;fill-opacity:1;fill-rule:nonzero;stroke:#ffffff;stroke-width:3.99994;stroke-linecap:butt;stroke-linejoin:miter;stroke-miterlimit:4;stroke-dasharray:none;stroke-opacity:1"
       transform="matrix(0.13333333,0,0,-0.13333333,0,35.893333)"
       clip-path="url(#clipPath8)" />
    <path
       id="path9"
       d="m 256.254,72.6953 35.469,35.7427"
       style="fill:#036998;fill-opacity:1;fill-rule:nonzero;stroke:#ffffff;stroke-width:3.99994;stroke-linecap:butt;stroke-linejoin:miter;stroke-miterlimit:4;stroke-dasharray:none;stroke-opacity:1"
       transform="matrix(0.13333333,0,0,-0.13333333,0,35.893333)"
       clip-path="url(#clipPath10)" />
    <path
       id="path11"
       d="m 46.5078,73.4961 h 209.473 v 157.941 H 46.5078 Z"
       style="fill:#036998;fill-opacity:1;fill-rule:nonzero;stroke:none"
       transform="matrix(0.13333333,0,0,-0.13333333,0,35.893333)"
       clip-path="url(#clipPath12)" />
    <path
       id="path13"
       d="M 255.98,73.4961 V 231.438 H 46.5078 V 73.4961 Z"
       style="fill:none;stroke:#ffffff;stroke-width:3.99994;stroke-linecap:butt;stroke-linejoin:miter;stroke-miterlimit:4;stroke-dasharray:none;stroke-opacity:1"
       transform="matrix(0.13333333,0,0,-0.13333333,0,35.893333)"
       clip-path="url(#clipPath14)" />
    <path
       id="path15"
       d="m 255.98,73.4961 35.743,35.7419 V 267.18 H 82.25 L 46.5078,231.438 H 255.98 V 73.4961"
       style="fill:#036998;fill-opacity:1;fill-rule:nonzero;stroke:none"
       transform="matrix(0.13333333,0,0,-0.13333333,0,35.893333)"
       clip-path="url(#clipPath16)" />
    <path
       id="path17"
       d="m 255.98,73.4961 35.743,35.7419 V 267.18 H 82.25 L 46.5078,231.438 H 255.98 Z"
       style="fill:none;stroke:#ffffff;stroke-width:3.99994;stroke-linecap:butt;stroke-linejoin:miter;stroke-miterlimit:4;stroke-dasharray:none;stroke-opacity:1"
       transform="matrix(0.13333333,0,0,-0.13333333,0,35.893333)"
       clip-path="url(#clipPath18)" />
    <path
       id="path19"
       d="m 64.7891,91.7852 h 172.891 v 121.359 H 64.7891 Z"
       style="fill:#036998;fill-opacity:1;fill-rule:nonzero;stroke:none"
       transform="matrix(0.13333333,0,0,-0.13333333,0,35.893333)"
       clip-path="url(#clipPath20)" />
    <path
       id="path21"
       d="M 237.68,91.7852 V 213.145 H 64.7891 V 91.7852 Z"
       style="fill:none;stroke:#ffffff;stroke-width:3.99994;stroke-linecap:butt;stroke-linejoin:miter;stroke-miterlimit:4;stroke-dasharray:none;stroke-opacity:1"
       transform="matrix(0.13333333,0,0,-0.13333333,0,35.893333)"
       clip-path="url(#clipPath22)" />
    <path
       id="path23"
       d="m 255.98,231.438 35.743,35.742"
       style="fill:#036998;fill-opacity:1;fill-rule:nonzero;stroke:#ffffff;stroke-width:3.99994;stroke-linecap:butt;stroke-linejoin:miter;stroke-miterlimit:4;stroke-dasharray:none;stroke-opacity:1"
       transform="matrix(0.13333333,0,0,-0.13333333,0,35.893333)"
       clip-path="url(#clipPath24)" />
    <path
       id="path25"
       d="M 245.902,4.83594 V 28.0664 H 4.82813 L 32.2695,55.4961 H 273.324 V 32.2656 L 245.902,4.83594"
       style="fill:#036998;fill-opacity:1;fill-rule:nonzero;stroke:none"
       transform="matrix(0.13333333,0,0,-0.13333333,0,35.893333)"
       clip-path="url(#clipPath26)" />
    <path
       id="path27"
       d="M 245.902,4.83594 V 28.0664 H 4.82813 L 32.2695,55.4961 H 273.324 V 32.2656 Z"
       style="fill:none;stroke:#ffffff;stroke-width:3.99994;stroke-linecap:butt;stroke-linejoin:miter;stroke-miterlimit:4;stroke-dasharray:none;stroke-opacity:1"
       transform="matrix(0.13333333,0,0,-0.13333333,0,35.893333)"
       clip-path="url(#clipPath28)" />
    <path
       id="path29"
       d="m 4.82813,4.83594 h 241.074 v 23.2305 H 4.82813 Z"
       style="fill:#036998;fill-opacity:1;fill-rule:nonzero;stroke:none"
       transform="matrix(0.13333333,0,0,-0.13333333,0,35.893333)"
       clip-path="url(#clipPath30)" />
    <path
       id="path31"
       d="M 245.902,28.0664 V 4.83594 H 4.82813 V 28.0664 Z"
       style="fill:none;stroke:#ffffff;stroke-width:3.99994;stroke-linecap:butt;stroke-linejoin:miter;stroke-miterlimit:4;stroke-dasharray:none;stroke-opacity:1"
       transform="matrix(0.13333333,0,0,-0.13333333,0,35.893333)"
       clip-path="url(#clipPath32)" />
    <path
       id="path33"
       d="m 245.902,28.0664 27.422,27.4297"
       style="fill:#036998;fill-opacity:1;fill-rule:nonzero;stroke:#ffffff;stroke-width:3.99994;stroke-linecap:butt;stroke-linejoin:miter;stroke-miterlimit:4;stroke-dasharray:none;stroke-opacity:1"
       transform="matrix(0.13333333,0,0,-0.13333333,0,35.893333)"
       clip-path="url(#clipPath34)" />
    <path
       id="path35"
       d="m 145.094,176.672 c 0,0 18.875,11.055 32.976,7.598 l 2.942,-9.231 8.828,-16.23 37.305,20.293 -9.543,17.519 -12.676,4.973 c 0,0 -32.84,2.129 -68.301,-15.508 L 130.98,183.02 C 96.9375,162.832 80.9023,134.082 80.9023,134.082 l -2.7343,-13.348 9.5312,-17.519 37.3048,20.293 -8.836,16.23 -6.164,7.481 c 4.785,13.75 24.277,23.574 24.277,23.574 l 10.813,5.879"
       style="fill:#036998;fill-opacity:1;fill-rule:nonzero;stroke:none"
       transform="matrix(0.13333333,0,0,-0.13333333,0,35.893333)"
       clip-path="url(#clipPath36)" />
    <path
       id="path37"
       d="m 145.094,176.672 c 0,0 18.875,11.055 32.976,7.598 l 2.942,-9.231 8.828,-16.23 37.305,20.293 -9.543,17.519 -12.676,4.973 c 0,0 -32.84,2.129 -68.301,-15.508 L 130.98,183.02 C 96.9375,162.832 80.9023,134.082 80.9023,134.082 l -2.7343,-13.348 9.5312,-17.519 37.3048,20.293 -8.836,16.23 -6.164,7.481 c 4.785,13.75 24.277,23.574 24.277,23.574 z"
       style="fill:none;stroke:#ffffff;stroke-width:3.99994;stroke-linecap:butt;stroke-linejoin:miter;stroke-miterlimit:4;stroke-dasharray:none;stroke-opacity:1"
       transform="matrix(0.13333333,0,0,-0.13333333,0,35.893333)"
       clip-path="url(#clipPath38)" />
    <path
       id="path39"
       d="M 116.781,140.363 77.2109,118.84"
       style="fill:#036998;fill-opacity:1;fill-rule:nonzero;stroke:#ffffff;stroke-width:3.99994;stroke-linecap:butt;stroke-linejoin:miter;stroke-miterlimit:4;stroke-dasharray:none;stroke-opacity:1"
       transform="matrix(0.13333333,0,0,-0.13333333,0,35.893333)"
       clip-path="url(#clipPath40)" />
    <path
       id="path41"
       d="M 218.246,195.598 178.695,174.074"
       style="fill:#036998;fill-opacity:1;fill-rule:nonzero;stroke:#ffffff;stroke-width:3.99994;stroke-linecap:butt;stroke-linejoin:miter;stroke-miterlimit:4;stroke-dasharray:none;stroke-opacity:1"
       transform="matrix(0.13333333,0,0,-0.13333333,0,35.893333)"
       clip-path="url(#clipPath42)" />
  </g>
</svg>
