<?xml version="1.0" encoding="UTF-8" standalone="no"?>
<!-- Created with Inkscape (http://www.inkscape.org/) -->

<svg
   version="1.1"
   id="svg1"
   width="34.933334"
   height="34.493332"
   viewBox="0 0 34.933334 34.493332"
   sodipodi:docname="tv.eps"
   xmlns:inkscape="http://www.inkscape.org/namespaces/inkscape"
   xmlns:sodipodi="http://sodipodi.sourceforge.net/DTD/sodipodi-0.dtd"
   xmlns="http://www.w3.org/2000/svg"
   xmlns:svg="http://www.w3.org/2000/svg">
  <defs
     id="defs1">
    <clipPath
       clipPathUnits="userSpaceOnUse"
       id="clipPath2">
      <path
         d="M 0,259 H 260 V 0 H 0 Z"
         id="path2" />
    </clipPath>
    <clipPath
       clipPathUnits="userSpaceOnUse"
       id="clipPath4">
      <path
         d="M 0,259 H 260 V 0 H 0 Z"
         id="path4" />
    </clipPath>
    <clipPath
       clipPathUnits="userSpaceOnUse"
       id="clipPath6">
      <path
         d="M 0,259 H 260 V 0 H 0 Z"
         id="path6" />
    </clipPath>
    <clipPath
       clipPathUnits="userSpaceOnUse"
       id="clipPath8">
      <path
         d="M 0,259 H 260 V 0 H 0 Z"
         id="path8" />
    </clipPath>
    <clipPath
       clipPathUnits="userSpaceOnUse"
       id="clipPath10">
      <path
         d="M 0,259 H 260 V 0 H 0 Z"
         id="path10" />
    </clipPath>
    <clipPath
       clipPathUnits="userSpaceOnUse"
       id="clipPath12">
      <path
         d="M 0,259 H 260 V 0 H 0 Z"
         id="path12" />
    </clipPath>
    <clipPath
       clipPathUnits="userSpaceOnUse"
       id="clipPath14">
      <path
         d="M 0,259 H 260 V 0 H 0 Z"
         id="path14" />
    </clipPath>
    <clipPath
       clipPathUnits="userSpaceOnUse"
       id="clipPath16">
      <path
         d="M 0,259 H 260 V 0 H 0 Z"
         id="path16" />
    </clipPath>
    <clipPath
       clipPathUnits="userSpaceOnUse"
       id="clipPath18">
      <path
         d="M 0,259 H 260 V 0 H 0 Z"
         id="path18" />
    </clipPath>
    <clipPath
       clipPathUnits="userSpaceOnUse"
       id="clipPath20">
      <path
         d="M 0,259 H 260 V 0 H 0 Z"
         id="path20" />
    </clipPath>
    <clipPath
       clipPathUnits="userSpaceOnUse"
       id="clipPath22">
      <path
         d="M 0,259 H 260 V 0 H 0 Z"
         id="path22" />
    </clipPath>
    <clipPath
       clipPathUnits="userSpaceOnUse"
       id="clipPath24">
      <path
         d="M 0,259 H 260 V 0 H 0 Z"
         id="path24" />
    </clipPath>
    <clipPath
       clipPathUnits="userSpaceOnUse"
       id="clipPath26">
      <path
         d="M 0,259 H 260 V 0 H 0 Z"
         id="path26" />
    </clipPath>
    <clipPath
       clipPathUnits="userSpaceOnUse"
       id="clipPath28">
      <path
         d="M 0,259 H 260 V 0 H 0 Z"
         id="path28" />
    </clipPath>
    <clipPath
       clipPathUnits="userSpaceOnUse"
       id="clipPath30">
      <path
         d="M 0,259 H 260 V 0 H 0 Z"
         id="path30" />
    </clipPath>
    <clipPath
       clipPathUnits="userSpaceOnUse"
       id="clipPath32">
      <path
         d="M 0,259 H 260 V 0 H 0 Z"
         id="path32" />
    </clipPath>
    <clipPath
       clipPathUnits="userSpaceOnUse"
       id="clipPath34">
      <path
         d="M 0,259 H 260 V 0 H 0 Z"
         id="path34" />
    </clipPath>
    <clipPath
       clipPathUnits="userSpaceOnUse"
       id="clipPath36">
      <path
         d="M 0,259 H 260 V 0 H 0 Z"
         id="path36" />
    </clipPath>
    <clipPath
       clipPathUnits="userSpaceOnUse"
       id="clipPath38">
      <path
         d="M 0,259 H 260 V 0 H 0 Z"
         id="path38" />
    </clipPath>
    <clipPath
       clipPathUnits="userSpaceOnUse"
       id="clipPath40">
      <path
         d="M 0,259 H 260 V 0 H 0 Z"
         id="path40" />
    </clipPath>
    <clipPath
       clipPathUnits="userSpaceOnUse"
       id="clipPath42">
      <path
         d="M 0,259 H 260 V 0 H 0 Z"
         id="path42" />
    </clipPath>
    <clipPath
       clipPathUnits="userSpaceOnUse"
       id="clipPath44">
      <path
         d="M 0,259 H 260 V 0 H 0 Z"
         id="path44" />
    </clipPath>
    <clipPath
       clipPathUnits="userSpaceOnUse"
       id="clipPath46">
      <path
         d="M 0,259 H 260 V 0 H 0 Z"
         id="path46" />
    </clipPath>
    <clipPath
       clipPathUnits="userSpaceOnUse"
       id="clipPath48">
      <path
         d="M 0,259 H 260 V 0 H 0 Z"
         id="path48" />
    </clipPath>
    <clipPath
       clipPathUnits="userSpaceOnUse"
       id="clipPath50">
      <path
         d="M 0,259 H 260 V 0 H 0 Z"
         id="path50" />
    </clipPath>
    <clipPath
       clipPathUnits="userSpaceOnUse"
       id="clipPath52">
      <path
         d="M 0,259 H 260 V 0 H 0 Z"
         id="path52" />
    </clipPath>
    <clipPath
       clipPathUnits="userSpaceOnUse"
       id="clipPath54">
      <path
         d="M 0,259 H 260 V 0 H 0 Z"
         id="path54" />
    </clipPath>
    <clipPath
       clipPathUnits="userSpaceOnUse"
       id="clipPath56">
      <path
         d="M 0,259 H 260 V 0 H 0 Z"
         id="path56" />
    </clipPath>
    <clipPath
       clipPathUnits="userSpaceOnUse"
       id="clipPath58">
      <path
         d="M 0,259 H 260 V 0 H 0 Z"
         id="path58" />
    </clipPath>
    <clipPath
       clipPathUnits="userSpaceOnUse"
       id="clipPath60">
      <path
         d="M 0,259 H 260 V 0 H 0 Z"
         id="path60" />
    </clipPath>
    <clipPath
       clipPathUnits="userSpaceOnUse"
       id="clipPath62">
      <path
         d="M 0,259 H 260 V 0 H 0 Z"
         id="path62" />
    </clipPath>
    <clipPath
       clipPathUnits="userSpaceOnUse"
       id="clipPath64">
      <path
         d="M 0,259 H 260 V 0 H 0 Z"
         id="path64" />
    </clipPath>
    <clipPath
       clipPathUnits="userSpaceOnUse"
       id="clipPath66">
      <path
         d="M 0,259 H 260 V 0 H 0 Z"
         id="path66" />
    </clipPath>
    <clipPath
       clipPathUnits="userSpaceOnUse"
       id="clipPath68">
      <path
         d="M 0,259 H 260 V 0 H 0 Z"
         id="path68" />
    </clipPath>
    <clipPath
       clipPathUnits="userSpaceOnUse"
       id="clipPath70">
      <path
         d="M 0,259 H 260 V 0 H 0 Z"
         id="path70" />
    </clipPath>
    <clipPath
       clipPathUnits="userSpaceOnUse"
       id="clipPath72">
      <path
         d="M 0,259 H 260 V 0 H 0 Z"
         id="path72" />
    </clipPath>
    <clipPath
       clipPathUnits="userSpaceOnUse"
       id="clipPath74">
      <path
         d="M 0,259 H 260 V 0 H 0 Z"
         id="path74" />
    </clipPath>
    <clipPath
       clipPathUnits="userSpaceOnUse"
       id="clipPath76">
      <path
         d="M 0,259 H 260 V 0 H 0 Z"
         id="path76" />
    </clipPath>
    <clipPath
       clipPathUnits="userSpaceOnUse"
       id="clipPath78">
      <path
         d="M 0,259 H 260 V 0 H 0 Z"
         id="path78" />
    </clipPath>
    <clipPath
       clipPathUnits="userSpaceOnUse"
       id="clipPath80">
      <path
         d="M 0,259 H 260 V 0 H 0 Z"
         id="path80" />
    </clipPath>
    <clipPath
       clipPathUnits="userSpaceOnUse"
       id="clipPath82">
      <path
         d="M 0,259 H 260 V 0 H 0 Z"
         id="path82" />
    </clipPath>
    <clipPath
       clipPathUnits="userSpaceOnUse"
       id="clipPath84">
      <path
         d="M 0,259 H 260 V 0 H 0 Z"
         id="path84" />
    </clipPath>
    <clipPath
       clipPathUnits="userSpaceOnUse"
       id="clipPath86">
      <path
         d="M 0,259 H 260 V 0 H 0 Z"
         id="path86" />
    </clipPath>
    <clipPath
       clipPathUnits="userSpaceOnUse"
       id="clipPath88">
      <path
         d="M 0,259 H 260 V 0 H 0 Z"
         id="path88" />
    </clipPath>
    <clipPath
       clipPathUnits="userSpaceOnUse"
       id="clipPath90">
      <path
         d="M 0,259 H 260 V 0 H 0 Z"
         id="path90" />
    </clipPath>
    <clipPath
       clipPathUnits="userSpaceOnUse"
       id="clipPath92">
      <path
         d="M 0,259 H 260 V 0 H 0 Z"
         id="path92" />
    </clipPath>
    <clipPath
       clipPathUnits="userSpaceOnUse"
       id="clipPath94">
      <path
         d="M 0,259 H 260 V 0 H 0 Z"
         id="path94" />
    </clipPath>
  </defs>
  <sodipodi:namedview
     id="namedview1"
     pagecolor="#505050"
     bordercolor="#eeeeee"
     borderopacity="1"
     inkscape:showpageshadow="0"
     inkscape:pageopacity="0"
     inkscape:pagecheckerboard="0"
     inkscape:deskcolor="#d1d1d1">
    <inkscape:page
       x="0"
       y="0"
       inkscape:label="1"
       id="page1"
       width="34.933334"
       height="34.493332"
       margin="0"
       bleed="0" />
  </sodipodi:namedview>
  <g
     id="g1"
     inkscape:groupmode="layer"
     inkscape:label="1">
    <path
       id="path1"
       d="M 258.188,82.7148 232.074,45.4688 H 5.3125 l 37.4297,37.246 H 258.188"
       style="fill:#036998;fill-opacity:1;fill-rule:nonzero;stroke:none"
       transform="matrix(0.13333333,0,0,-0.13333333,0,34.493333)"
       clip-path="url(#clipPath2)" />
    <path
       id="path3"
       d="M 258.188,82.7148 232.074,45.4688 H 5.3125 l 37.4297,37.246 z"
       style="fill:none;stroke:#ffffff;stroke-width:3.99994;stroke-linecap:butt;stroke-linejoin:miter;stroke-miterlimit:4;stroke-dasharray:none;stroke-opacity:1"
       transform="matrix(0.13333333,0,0,-0.13333333,0,34.493333)"
       clip-path="url(#clipPath4)" />
    <path
       id="path5"
       d="m 5.3125,4.92188 h 216.469 v 40.5469 H 5.3125 Z"
       style="fill:#036998;fill-opacity:1;fill-rule:nonzero;stroke:none"
       transform="matrix(0.13333333,0,0,-0.13333333,0,34.493333)"
       clip-path="url(#clipPath6)" />
    <path
       id="path7"
       d="M 5.3125,4.92188 V 45.4688 H 221.781 V 4.92188 Z"
       style="fill:none;stroke:#ffffff;stroke-width:3.99994;stroke-linecap:butt;stroke-linejoin:miter;stroke-miterlimit:4;stroke-dasharray:none;stroke-opacity:1"
       transform="matrix(0.13333333,0,0,-0.13333333,0,34.493333)"
       clip-path="url(#clipPath8)" />
    <path
       id="path9"
       d="m 5.3125,54.3945 h 215.023 v 162.676 H 5.3125 Z"
       style="fill:#036998;fill-opacity:1;fill-rule:nonzero;stroke:none"
       transform="matrix(0.13333333,0,0,-0.13333333,0,34.493333)"
       clip-path="url(#clipPath10)" />
    <path
       id="path11"
       d="M 5.3125,217.07 H 220.336 V 54.3945 H 5.3125 Z"
       style="fill:none;stroke:#ffffff;stroke-width:3.99994;stroke-linecap:butt;stroke-linejoin:miter;stroke-miterlimit:4;stroke-dasharray:none;stroke-opacity:1"
       transform="matrix(0.13333333,0,0,-0.13333333,0,34.493333)"
       clip-path="url(#clipPath12)" />
    <path
       id="path13"
       d="m 220.336,54.3945 36.797,36.8047 V 253.867 L 220.336,217.07 V 54.3945"
       style="fill:#036998;fill-opacity:1;fill-rule:nonzero;stroke:none"
       transform="matrix(0.13333333,0,0,-0.13333333,0,34.493333)"
       clip-path="url(#clipPath14)" />
    <path
       id="path15"
       d="m 220.336,54.3945 36.797,36.8047 V 253.867 L 220.336,217.07 Z"
       style="fill:none;stroke:#ffffff;stroke-width:3.99994;stroke-linecap:butt;stroke-linejoin:miter;stroke-miterlimit:4;stroke-dasharray:none;stroke-opacity:1"
       transform="matrix(0.13333333,0,0,-0.13333333,0,34.493333)"
       clip-path="url(#clipPath16)" />
    <path
       id="path17"
       d="M 221.605,4.82422 V 45.4688 l 36.583,36.3476 V 41.3945 L 221.605,4.82422"
       style="fill:#036998;fill-opacity:1;fill-rule:nonzero;stroke:none"
       transform="matrix(0.13333333,0,0,-0.13333333,0,34.493333)"
       clip-path="url(#clipPath18)" />
    <path
       id="path19"
       d="M 221.605,4.82422 V 45.4688 l 36.583,36.3476 V 41.3945 Z"
       style="fill:none;stroke:#ffffff;stroke-width:3.99994;stroke-linecap:butt;stroke-linejoin:miter;stroke-miterlimit:4;stroke-dasharray:none;stroke-opacity:1"
       transform="matrix(0.13333333,0,0,-0.13333333,0,34.493333)"
       clip-path="url(#clipPath20)" />
    <path
       id="path21"
       d="M 40.3711,198.32 H 184.555 c 9.394,0 16.992,-7.597 16.992,-16.992 V 90.2344 c 0,-9.375 -7.598,-16.9805 -16.992,-16.9805 H 40.3711 c -9.3945,0 -16.9922,7.6055 -16.9922,16.9805 v 91.0936 c 0,9.395 7.5977,16.992 16.9922,16.992"
       style="fill:#ffffff;fill-opacity:1;fill-rule:nonzero;stroke:none"
       transform="matrix(0.13333333,0,0,-0.13333333,0,34.493333)"
       clip-path="url(#clipPath22)" />
    <path
       id="path23"
       d="M 40.3711,198.32 H 184.555 c 9.394,0 16.992,-7.597 16.992,-16.992 V 90.2344 c 0,-9.375 -7.598,-16.9805 -16.992,-16.9805 H 40.3711 c -9.3945,0 -16.9922,7.6055 -16.9922,16.9805 v 91.0936 c 0,9.395 7.5977,16.992 16.9922,16.992 z"
       style="fill:none;stroke:#ffffff;stroke-width:3.99994;stroke-linecap:butt;stroke-linejoin:miter;stroke-miterlimit:4;stroke-dasharray:none;stroke-opacity:1"
       transform="matrix(0.13333333,0,0,-0.13333333,0,34.493333)"
       clip-path="url(#clipPath24)" />
    <path
       id="path25"
       d="M 257.133,253.867 H 47.2656 L 5.3125,217.07 H 220.336 l 36.797,36.797"
       style="fill:#036998;fill-opacity:1;fill-rule:nonzero;stroke:none"
       transform="matrix(0.13333333,0,0,-0.13333333,0,34.493333)"
       clip-path="url(#clipPath26)" />
    <path
       id="path27"
       d="M 257.133,253.867 H 47.2656 L 5.3125,217.07 H 220.336 Z"
       style="fill:none;stroke:#ffffff;stroke-width:3.99994;stroke-linecap:butt;stroke-linejoin:miter;stroke-miterlimit:4;stroke-dasharray:none;stroke-opacity:1"
       transform="matrix(0.13333333,0,0,-0.13333333,0,34.493333)"
       clip-path="url(#clipPath28)" />
    <path
       id="path29"
       d="m 42.8594,24.6875 c 0,-7.0508 -5.7031,-12.7617 -12.7539,-12.7617 -7.0508,0 -12.7422,5.7109 -12.7422,12.7617 0,7.0391 5.6914,12.7539 12.7422,12.7539 7.0508,0 12.7539,-5.7148 12.7539,-12.7539"
       style="fill:#036998;fill-opacity:1;fill-rule:nonzero;stroke:none"
       transform="matrix(0.13333333,0,0,-0.13333333,0,34.493333)"
       clip-path="url(#clipPath30)" />
    <path
       id="path31"
       d="m 42.8594,24.6875 c 0,-7.0508 -5.7031,-12.7617 -12.7539,-12.7617 -7.0508,0 -12.7422,5.7109 -12.7422,12.7617 0,7.0391 5.6914,12.7539 12.7422,12.7539 7.0508,0 12.7539,-5.7148 12.7539,-12.7539 z"
       style="fill:none;stroke:#ffffff;stroke-width:3.99994;stroke-linecap:butt;stroke-linejoin:miter;stroke-miterlimit:4;stroke-dasharray:none;stroke-opacity:1"
       transform="matrix(0.13333333,0,0,-0.13333333,0,34.493333)"
       clip-path="url(#clipPath32)" />
    <path
       id="path33"
       d="m 211.664,24.6875 c 0,-7.0508 -5.723,-12.7617 -12.754,-12.7617 -7.051,0 -12.773,5.7109 -12.773,12.7617 0,7.0391 5.722,12.7539 12.773,12.7539 7.031,0 12.754,-5.7148 12.754,-12.7539"
       style="fill:#036998;fill-opacity:1;fill-rule:nonzero;stroke:none"
       transform="matrix(0.13333333,0,0,-0.13333333,0,34.493333)"
       clip-path="url(#clipPath34)" />
    <path
       id="path35"
       d="m 211.664,24.6875 c 0,-7.0508 -5.723,-12.7617 -12.754,-12.7617 -7.051,0 -12.773,5.7109 -12.773,12.7617 0,7.0391 5.722,12.7539 12.773,12.7539 7.031,0 12.754,-5.7148 12.754,-12.7539 z"
       style="fill:none;stroke:#ffffff;stroke-width:3.99994;stroke-linecap:butt;stroke-linejoin:miter;stroke-miterlimit:4;stroke-dasharray:none;stroke-opacity:1"
       transform="matrix(0.13333333,0,0,-0.13333333,0,34.493333)"
       clip-path="url(#clipPath36)" />
    <path
       id="path37"
       d="m 91.0352,21.3867 c 0,-3.6328 -2.9493,-6.582 -6.5821,-6.582 -3.6328,0 -6.582,2.9492 -6.582,6.582 0,3.6406 2.9492,6.5821 6.582,6.5821 3.6328,0 6.5821,-2.9415 6.5821,-6.5821"
       style="fill:#036998;fill-opacity:1;fill-rule:nonzero;stroke:none"
       transform="matrix(0.13333333,0,0,-0.13333333,0,34.493333)"
       clip-path="url(#clipPath38)" />
    <path
       id="path39"
       d="m 91.0352,21.3867 c 0,-3.6328 -2.9493,-6.582 -6.5821,-6.582 -3.6328,0 -6.582,2.9492 -6.582,6.582 0,3.6406 2.9492,6.5821 6.582,6.5821 3.6328,0 6.5821,-2.9415 6.5821,-6.5821 z"
       style="fill:none;stroke:#ffffff;stroke-width:3.99994;stroke-linecap:butt;stroke-linejoin:miter;stroke-miterlimit:4;stroke-dasharray:none;stroke-opacity:1"
       transform="matrix(0.13333333,0,0,-0.13333333,0,34.493333)"
       clip-path="url(#clipPath40)" />
    <path
       id="path41"
       d="m 117.383,21.3867 c 0,-3.6328 -2.949,-6.582 -6.602,-6.582 -3.633,0 -6.562,2.9492 -6.562,6.582 0,3.6406 2.929,6.5821 6.562,6.5821 3.653,0 6.602,-2.9415 6.602,-6.5821"
       style="fill:#036998;fill-opacity:1;fill-rule:nonzero;stroke:none"
       transform="matrix(0.13333333,0,0,-0.13333333,0,34.493333)"
       clip-path="url(#clipPath42)" />
    <path
       id="path43"
       d="m 117.383,21.3867 c 0,-3.6328 -2.949,-6.582 -6.602,-6.582 -3.633,0 -6.562,2.9492 -6.562,6.582 0,3.6406 2.929,6.5821 6.562,6.5821 3.653,0 6.602,-2.9415 6.602,-6.5821 z"
       style="fill:none;stroke:#ffffff;stroke-width:3.99994;stroke-linecap:butt;stroke-linejoin:miter;stroke-miterlimit:4;stroke-dasharray:none;stroke-opacity:1"
       transform="matrix(0.13333333,0,0,-0.13333333,0,34.493333)"
       clip-path="url(#clipPath44)" />
    <path
       id="path45"
       d="m 143.734,21.3867 c 0,-3.6328 -2.968,-6.582 -6.601,-6.582 -3.633,0 -6.582,2.9492 -6.582,6.582 0,3.6406 2.949,6.5821 6.582,6.5821 3.633,0 6.601,-2.9415 6.601,-6.5821"
       style="fill:#036998;fill-opacity:1;fill-rule:nonzero;stroke:none"
       transform="matrix(0.13333333,0,0,-0.13333333,0,34.493333)"
       clip-path="url(#clipPath46)" />
    <path
       id="path47"
       d="m 143.734,21.3867 c 0,-3.6328 -2.968,-6.582 -6.601,-6.582 -3.633,0 -6.582,2.9492 -6.582,6.582 0,3.6406 2.949,6.5821 6.582,6.5821 3.633,0 6.601,-2.9415 6.601,-6.5821 z"
       style="fill:none;stroke:#ffffff;stroke-width:3.99994;stroke-linecap:butt;stroke-linejoin:miter;stroke-miterlimit:4;stroke-dasharray:none;stroke-opacity:1"
       transform="matrix(0.13333333,0,0,-0.13333333,0,34.493333)"
       clip-path="url(#clipPath48)" />
    <path
       id="path49"
       d="m 70.4688,177.266 19.2187,17.011 14.2575,-6.582 -1.64,-15.371 4.941,-10.976 -5.488,-14.825 -0.41,-3.339 c -1.094,-3.848 -4.9417,-2.188 -4.9417,-2.188 l -6.7188,-26.308 -18.125,23.605 -2.1875,10.426 -7.707,21.965"
       style="fill:#fbfbfb;fill-opacity:1;fill-rule:nonzero;stroke:none"
       transform="matrix(0.13333333,0,0,-0.13333333,0,34.493333)"
       clip-path="url(#clipPath50)" />
    <path
       id="path51"
       d="m 78.8867,181.551 c 0.8789,-1.102 1.25,-2.586 1.3672,-3.602 0.4883,-4.707 -1.2305,-9.523 -2.9101,-13.926 -0.4493,-1.132 -0.3907,-4.14 -1.7383,-3.261 -1.5625,1.035 -2.8711,3.359 -4.5313,3.933 -2.0703,0.723 -4.2695,-1.375 -6.3398,-2.566 3.8203,-5.117 8.4883,-10.371 6.4765,-17.051 -4.832,7.168 -9.9492,14.246 -13.5625,22.012 -1.9648,4.219 -1.1914,10.39 1.3672,13.887 3.9453,5.39 9.9102,9.961 16.4922,11.621 8.8672,2.265 17.7149,4.101 26.8552,4.207 -8.2614,-4.121 -16.0544,-8.094 -24.0036,-13.66 -0.4102,-0.305 0.1172,-1.094 0.5273,-1.594"
       style="fill:#036998;fill-opacity:1;fill-rule:nonzero;stroke:none"
       transform="matrix(0.13333333,0,0,-0.13333333,0,34.493333)"
       clip-path="url(#clipPath52)" />
    <path
       id="path53"
       d="m 110.078,180.898 c -2.09,-4.043 -4.062,-7.98 -6.543,-11.718 0.156,0.574 -0.137,1.015 -0.605,1.101 -1.172,0.207 -2.696,-0.32 -3.3011,0.285 -0.5859,0.586 -0.5859,2.461 0,3.145 0.6841,0.742 2.8511,-0.402 2.9691,-0.195 4.043,6.484 -3.3988,11.757 -6.1136,17.422 5.9956,0.117 10.7816,-3.848 16.4646,-4.708 -1.172,-1.66 -1.933,-3.515 -2.871,-5.332"
       style="fill:#036998;fill-opacity:1;fill-rule:nonzero;stroke:none"
       transform="matrix(0.13333333,0,0,-0.13333333,0,34.493333)"
       clip-path="url(#clipPath54)" />
    <path
       id="path55"
       d="m 87.6563,169.707 c -0.9766,0.176 -2.5391,-0.117 -2.6172,0.156 -1.6993,5.711 6.1328,3.028 9.6875,4.61 -0.8594,-3.75 -3.0664,-5.52 -7.0703,-4.766"
       style="fill:#036998;fill-opacity:1;fill-rule:nonzero;stroke:none"
       transform="matrix(0.13333333,0,0,-0.13333333,0,34.493333)"
       clip-path="url(#clipPath56)" />
    <path
       id="path57"
       d="m 98.6328,158.281 c -1.3672,0 -2.7344,0 -4.1211,0 1.6211,1.395 3.3399,2.637 5.293,3.516 -0.1953,-1.231 0.1562,-2.383 0.5863,-3.516 -0.5863,0 -1.1722,0 -1.7582,0"
       style="fill:#036998;fill-opacity:1;fill-rule:nonzero;stroke:none"
       transform="matrix(0.13333333,0,0,-0.13333333,0,34.493333)"
       clip-path="url(#clipPath58)" />
    <path
       id="path59"
       d="m 97.4609,151.219 c -2.7539,0 -5.4882,0 -8.2226,0 0.9961,0.937 2.539,1.289 3.5547,1.418 2.6172,0.293 6.0742,2.16 8.184,-1.418 -1.1723,0 -2.3442,0 -3.5161,0"
       style="fill:#036998;fill-opacity:1;fill-rule:nonzero;stroke:none"
       transform="matrix(0.13333333,0,0,-0.13333333,0,34.493333)"
       clip-path="url(#clipPath60)" />
    <path
       id="path61"
       d="m 96.8164,148.73 c 1.9727,-0.839 -0.8398,-0.859 -0.5273,-1.621 -1.543,-0.351 -2.0313,1.075 -2.9493,1.77 1.1719,0 2.461,0.281 3.4766,-0.149"
       style="fill:#036998;fill-opacity:1;fill-rule:nonzero;stroke:none"
       transform="matrix(0.13333333,0,0,-0.13333333,0,34.493333)"
       clip-path="url(#clipPath62)" />
    <path
       id="path63"
       d="m 138.676,91.582 c 0.019,3.8086 0.918,7.7344 1.836,11.777 0.801,3.418 2.285,7.383 1.133,9.61 -1.582,3.066 -5.704,5.664 -9.415,7.097 -10.453,4.036 -20.746,7.747 -30.902,12.395 l -1.6014,-0.606 1.7574,-25.859 -8.8082,-28.2226"
       style="fill:#036998;fill-opacity:1;fill-rule:nonzero;stroke:none"
       transform="matrix(0.13333333,0,0,-0.13333333,0,34.493333)"
       clip-path="url(#clipPath64)" />
    <path
       id="path65"
       d="m 92.6758,76.6406 -18.8086,26.4534 -8.8555,27.863 c -1.6719,-1.113 -3.4375,-2.09 -5.2265,-2.91 -12.8047,-5.879 -23.3204,-7.676 -35.3399,-15.254 0.0781,-24.7657 10.7774,-15.2032 9.375,-39.8555"
       style="fill:#036998;fill-opacity:1;fill-rule:nonzero;stroke:none"
       transform="matrix(0.13333333,0,0,-0.13333333,0,34.493333)"
       clip-path="url(#clipPath66)" />
    <path
       id="path67"
       d="m 90.625,74.082 10.859,31.914 -1.7574,25.859 -3.5352,3.528 -5.8789,-10.879 -19.1016,15.281 c 0,-3.816 -6.2578,-7.551 -6.2578,-7.551 l 8.9141,-27.996 18.8086,-26.4646"
       style="fill:#9ac3d6;fill-opacity:1;fill-rule:nonzero;stroke:none"
       transform="matrix(0.13333333,0,0,-0.13333333,0,34.493333)"
       clip-path="url(#clipPath68)" />
    <path
       id="path69"
       d="m 84.1602,78.0664 4.1015,39.0816 -2.3437,2.95 2.3437,3.808 2.3438,-1.445 1.4843,1.738 2.3438,-3.222 -2.9492,-4.122 4.4336,-34.3042"
       style="fill:#036998;fill-opacity:1;fill-rule:nonzero;stroke:none"
       transform="matrix(0.13333333,0,0,-0.13333333,0,34.493333)"
       clip-path="url(#clipPath70)" />
    <path
       id="path71"
       d="m 119.492,116.531 c -1.855,1.985 -5.293,2.024 -5.273,5.285 2.031,-0.011 4.101,-0.156 5.859,1.18 -3.457,1.27 -5.195,4.406 -5.547,7.668 -0.039,0.422 0.782,2.129 1.407,2.07 1.425,-0.136 1.484,-2.539 2.988,-3.242 0.527,-0.254 0.996,0.098 1.094,0.567 0.449,1.836 -0.196,3.535 -0.528,5.273 1.934,-0.605 5.469,-1.348 5.449,0.586 -0.039,2.898 -4.082,6.102 -1.582,8.457 0.723,0.691 3.555,-2.93 3.829,-0.742 0.234,2.09 -2.813,4.558 -2.618,6.953 0.157,1.68 3.399,2.098 4.024,3.691 1.054,2.657 -1.114,6.055 -0.371,8.543 2.23,7.344 6.586,13.84 10.082,20.723 9.043,0.285 12.441,9.094 27.011,1.387 0.372,-0.203 -1.464,0.109 -1.074,-0.77 0.196,-0.469 0.684,-1.055 1.113,-1.086 2.403,-0.203 5.196,0.235 6.211,-2 0.743,-1.621 -1.699,-3.594 -1.171,-5.058 0.761,-2.227 5.156,-1.211 5.625,-3.184 0.918,-3.789 -3.497,-7.5 -2.911,-10.918 0.332,-1.914 4.668,-2.754 5.977,-5.039 1.543,-2.617 -0.43,-6.426 2.129,-9.191 0.996,1.195 2.226,2.089 3.535,2.941 0.352,-2.305 1.289,-4.414 2.344,-6.465 1.504,2 3.281,3.778 4.707,5.879 1.406,-1.199 0.781,-3.359 0.293,-3.82 -2.5,-2.391 -4.903,-5.567 -8.438,-6.512 -0.468,-0.129 -0.742,-0.441 -0.937,-0.852 l -4.121,2.356 c -0.508,-1.016 2.91,-2.52 1.445,-2.93 l 0.586,-2.343 c 2.129,-2.305 4.648,-0.743 7.051,0 1.23,-4.122 -4.278,-4.649 -4.844,-7.735 -0.273,-1.582 2.656,-1.133 4.258,-0.5 -0.528,-2.918 -3.047,-4.383 -4.688,-6.473"
       style="fill:#036998;fill-opacity:1;fill-rule:nonzero;stroke:none"
       transform="matrix(0.13333333,0,0,-0.13333333,0,34.493333)"
       clip-path="url(#clipPath72)" />
    <path
       id="path73"
       d="m 93.418,73.5078 c 2.6562,12.8594 1.1328,21.082 2.5586,33.6012 7.3434,4.493 15.3514,7.364 23.5154,9.989 l 36.156,7.941 26.758,-3.242 c 5.528,-1.887 11.504,-1.641 17.032,-3.516 4.843,-13.027 -8.672,-28.0076 -3.848,-41.1638 l -3.692,-3.3281"
       style="fill:#036998;fill-opacity:1;fill-rule:nonzero;stroke:none"
       transform="matrix(0.13333333,0,0,-0.13333333,0,34.493333)"
       clip-path="url(#clipPath74)" />
    <path
       id="path75"
       d="m 167.719,107.801 c -0.371,0.137 -0.625,0.656 -1.192,0.5 0,0.793 -0.273,1.816 0.137,2.207 0.391,0.41 1.426,0.137 2.207,0.137 -0.156,-0.567 0.176,-0.879 0.606,-1.165 1.308,4.114 0.117,8.262 -0.45,12.278 -0.214,1.562 -3.554,1.484 -4.492,2.695 -1.836,2.363 -2.871,10.899 -0.43,10.723 6.29,-0.469 6.602,11.765 8.418,18.625 0.743,2.801 -0.703,3.777 -1.894,6.824 -0.82,-0.383 -0.371,-1.465 -0.664,-1.613 -1.328,-0.672 -3.36,-1.512 -4.414,-0.535 -0.586,0.554 -0.586,2.558 0,3.105 1.054,0.918 5.644,1.66 5.586,1.512 1.113,3.215 -0.703,5.793 -2.852,8.683 -1.074,-1.652 -2.148,-2.05 -4.121,-1.757 1.27,1.074 1.191,4.55 -0.312,3.671 -2.5,-1.476 -2.168,-6.015 -6.153,-6.015 0.117,1.699 0.117,3.379 -1.172,4.707 -1.269,-1.875 -2.714,-3.957 -4.648,-3.711 -1.289,0.156 -0.859,3.926 -2.715,2.215 -2.148,-1.953 1.602,-4.657 0.801,-7.313 -1.582,-5.254 -1.524,-10.39 -4.453,-15.39 -0.449,-0.754 -0.391,-1.985 -0.02,-2.793 0.586,-1.309 1.817,-2.188 3.399,-1.828 -0.078,-2.274 -2.539,-0.985 -3.438,-2.411 -0.273,-0.429 -0.273,-1.191 0,-1.648 1.094,-1.899 3.223,-2.024 5.195,-1.809 -0.527,-3.554 -4.55,-4.082 -7.05,-2.363 -0.586,-3.613 1.308,-6.758 4.707,-7.629 -1.582,-2.195 -4.102,-0.39 -5.645,-1.512 -1.992,-1.457 0.508,-4.375 -0.234,-6.718 -0.391,0.828 -1.406,0.761 -1.621,0.468 -1.758,-2.539 0.468,-5.918 1.035,-8.711 0.371,0.84 1.152,0.704 1.738,0.508 1.055,-0.351 0.488,-1.465 0.606,-2.258 -0.586,0 -1.231,0.149 -1.739,-0.085 -1.66,-0.762 0.606,-1.887 -0.019,-2.864 5.586,-3.191 11.914,-5.047 18.164,-4.246 1.64,0.215 3.75,1.192 5.351,2.481 -1.503,1.101 -4.531,0.136 -3.437,2.91 0.488,1.23 2.031,0.781 2.754,0.449 0.918,-0.449 -0.117,-1.797 0.137,-2.742 0.136,-0.481 0.625,-0.891 1.093,-0.547 1.543,1.082 3.321,1.875 3.985,3.531 0.097,0.188 -0.625,0.969 -1.016,0.977 -0.82,0.039 -0.43,-2.039 -1.738,-1.543"
       style="fill:#ffffff;fill-opacity:1;fill-rule:nonzero;stroke:none"
       transform="matrix(0.13333333,0,0,-0.13333333,0,34.493333)"
       clip-path="url(#clipPath76)" />
    <path
       id="path77"
       d="m 160.609,158.457 c -0.254,-0.48 -0.781,-1.094 -1.113,-1.055 -2.539,0.352 -5.137,0.164 -6.484,2.793 3.144,0.957 6.386,2.305 9.199,0.301 0.742,-0.535 -1.133,-1.121 -1.602,-2.039"
       style="fill:#036998;fill-opacity:1;fill-rule:nonzero;stroke:none"
       transform="matrix(0.13333333,0,0,-0.13333333,0,34.493333)"
       clip-path="url(#clipPath78)" />
    <path
       id="path79"
       d="m 168.559,150.156 c -0.664,-1.836 -2.95,-0.254 -4.688,-0.703 1.094,1.817 1.934,2.578 4.121,2.93 0.02,-1.016 0.742,-1.719 0.567,-2.227"
       style="fill:#036998;fill-opacity:1;fill-rule:nonzero;stroke:none"
       transform="matrix(0.13333333,0,0,-0.13333333,0,34.493333)"
       clip-path="url(#clipPath80)" />
    <path
       id="path81"
       d="m 166.352,144.395 c -1.954,-0.223 -3.907,-0.762 -5.899,-0.149 3.047,1.867 6.602,0.969 9.844,1.809 -0.371,-0.332 -0.664,-0.684 -0.449,-1.231 -1.153,-0.136 -2.305,-0.293 -3.496,-0.429"
       style="fill:#000000;fill-opacity:1;fill-rule:nonzero;stroke:none"
       transform="matrix(0.13333333,0,0,-0.13333333,0,34.493333)"
       clip-path="url(#clipPath82)" />
    <path
       id="path83"
       d="m 160.57,103.73 c -1.211,-0.781 -3.398,0.43 -2.754,2.176 0.313,0.832 1.172,1.633 2.207,1.164 1.309,-0.597 1.915,-2.461 0.547,-3.34"
       style="fill:#000000;fill-opacity:1;fill-rule:nonzero;stroke:none"
       transform="matrix(0.13333333,0,0,-0.13333333,0,34.493333)"
       clip-path="url(#clipPath84)" />
    <path
       id="path85"
       d="m 155.355,104.18 c -0.781,-0.34 -0.996,0.937 -1.757,0.586 0.117,0.808 -0.489,1.972 0.605,2.246 0.742,0.195 1.875,0.566 2.266,-0.5 0.351,-0.985 -0.078,-1.844 -1.114,-2.332"
       style="fill:#000000;fill-opacity:1;fill-rule:nonzero;stroke:none"
       transform="matrix(0.13333333,0,0,-0.13333333,0,34.493333)"
       clip-path="url(#clipPath86)" />
    <path
       id="path87"
       d="m 150.648,105.398 c -0.644,-0.085 -1.523,-0.32 -1.679,0.559 -0.117,0.781 -0.547,1.934 0.547,2.246 1.562,0.457 2.929,-0.773 2.226,-2.207 -0.156,-0.32 -0.664,-0.527 -1.094,-0.598"
       style="fill:#000000;fill-opacity:1;fill-rule:nonzero;stroke:none"
       transform="matrix(0.13333333,0,0,-0.13333333,0,34.493333)"
       clip-path="url(#clipPath88)" />
    <path
       id="path89"
       d="m 147.074,107.801 c -0.508,-0.242 -1.386,-0.352 -1.679,0.508 -0.567,1.632 1.425,2.285 2.187,1.593 0.449,-0.398 0.273,-1.699 -0.508,-2.101"
       style="fill:#000000;fill-opacity:1;fill-rule:nonzero;stroke:none"
       transform="matrix(0.13333333,0,0,-0.13333333,0,34.493333)"
       clip-path="url(#clipPath90)" />
    <path
       id="path91"
       d="m 166.059,141.914 c -1.172,-0.059 -2.11,0.313 -3.067,0.879 1.973,0.234 3.906,0.477 5.86,0.723 -0.606,-1.094 -1.504,-1.524 -2.793,-1.602"
       style="fill:#036998;fill-opacity:1;fill-rule:nonzero;stroke:none"
       transform="matrix(0.13333333,0,0,-0.13333333,0,34.493333)"
       clip-path="url(#clipPath92)" />
    <path
       id="path93"
       d="m 36.2891,73.2227 h 155.609 v 8.64063 H 36.2891 Z"
       style="fill:#036998;fill-opacity:1;fill-rule:nonzero;stroke:none"
       transform="matrix(0.13333333,0,0,-0.13333333,0,34.493333)"
       clip-path="url(#clipPath94)" />
  </g>
</svg>
