<?xml version="1.0" encoding="UTF-8" standalone="no"?>
<!-- Created with Inkscape (http://www.inkscape.org/) -->

<svg
   version="1.1"
   id="svg1"
   width="43.173332"
   height="61.946667"
   viewBox="0 0 43.173332 61.946667"
   sodipodi:docname="video camera.eps"
   xmlns:inkscape="http://www.inkscape.org/namespaces/inkscape"
   xmlns:sodipodi="http://sodipodi.sourceforge.net/DTD/sodipodi-0.dtd"
   xmlns="http://www.w3.org/2000/svg"
   xmlns:svg="http://www.w3.org/2000/svg">
  <defs
     id="defs1">
    <clipPath
       clipPathUnits="userSpaceOnUse"
       id="clipPath2">
      <path
         d="M 0,4 V 465 H 320 V 4 Z"
         id="path2" />
    </clipPath>
    <clipPath
       clipPathUnits="userSpaceOnUse"
       id="clipPath4">
      <path
         d="M 0,4 V 465 H 320 V 4 Z"
         id="path4" />
    </clipPath>
    <clipPath
       clipPathUnits="userSpaceOnUse"
       id="clipPath6">
      <path
         d="M 0,4 V 465 H 320 V 4 Z"
         id="path6" />
    </clipPath>
    <clipPath
       clipPathUnits="userSpaceOnUse"
       id="clipPath8">
      <path
         d="M 0,4 V 465 H 320 V 4 Z"
         id="path8" />
    </clipPath>
    <clipPath
       clipPathUnits="userSpaceOnUse"
       id="clipPath10">
      <path
         d="M 0,4 V 465 H 320 V 4 Z"
         id="path10" />
    </clipPath>
    <clipPath
       clipPathUnits="userSpaceOnUse"
       id="clipPath12">
      <path
         d="M 0,4 V 465 H 320 V 4 Z"
         id="path12" />
    </clipPath>
    <clipPath
       clipPathUnits="userSpaceOnUse"
       id="clipPath14">
      <path
         d="M 0,4 V 465 H 320 V 4 Z"
         id="path14" />
    </clipPath>
    <clipPath
       clipPathUnits="userSpaceOnUse"
       id="clipPath16">
      <path
         d="M 0,4 V 465 H 320 V 4 Z"
         id="path16" />
    </clipPath>
    <clipPath
       clipPathUnits="userSpaceOnUse"
       id="clipPath18">
      <path
         d="M 0,4 V 465 H 320 V 4 Z"
         id="path18" />
    </clipPath>
    <clipPath
       clipPathUnits="userSpaceOnUse"
       id="clipPath20">
      <path
         d="M 0,4 V 465 H 320 V 4 Z"
         id="path20" />
    </clipPath>
    <clipPath
       clipPathUnits="userSpaceOnUse"
       id="clipPath22">
      <path
         d="M 0,4 V 465 H 320 V 4 Z"
         id="path22" />
    </clipPath>
    <clipPath
       clipPathUnits="userSpaceOnUse"
       id="clipPath24">
      <path
         d="M 0,4 V 465 H 320 V 4 Z"
         id="path24" />
    </clipPath>
    <clipPath
       clipPathUnits="userSpaceOnUse"
       id="clipPath26">
      <path
         d="M 0,4 V 465 H 320 V 4 Z"
         id="path26" />
    </clipPath>
    <clipPath
       clipPathUnits="userSpaceOnUse"
       id="clipPath28">
      <path
         d="M 0,4 V 465 H 320 V 4 Z"
         id="path28" />
    </clipPath>
    <clipPath
       clipPathUnits="userSpaceOnUse"
       id="clipPath30">
      <path
         d="M 0,4 V 465 H 320 V 4 Z"
         id="path30" />
    </clipPath>
    <clipPath
       clipPathUnits="userSpaceOnUse"
       id="clipPath32">
      <path
         d="M 0,4 V 465 H 320 V 4 Z"
         id="path32" />
    </clipPath>
  </defs>
  <sodipodi:namedview
     id="namedview1"
     pagecolor="#505050"
     bordercolor="#eeeeee"
     borderopacity="1"
     inkscape:showpageshadow="0"
     inkscape:pageopacity="0"
     inkscape:pagecheckerboard="0"
     inkscape:deskcolor="#d1d1d1">
    <inkscape:page
       x="0"
       y="0"
       inkscape:label="1"
       id="page1"
       width="43.173332"
       height="61.946667"
       margin="0"
       bleed="0" />
  </sodipodi:namedview>
  <g
     id="g1"
     inkscape:groupmode="layer"
     inkscape:label="1">
    <path
       id="path1"
       d="M 149.719,339.555 V 0"
       style="fill:none;stroke:#036998;stroke-width:10;stroke-linecap:butt;stroke-linejoin:miter;stroke-miterlimit:4;stroke-dasharray:none;stroke-opacity:1"
       transform="matrix(0.13333333,0,0,-0.13333333,0,61.946667)"
       clip-path="url(#clipPath2)" />
    <path
       id="path3"
       d="M 149.719,339.555 294.98,55.0664"
       style="fill:none;stroke:#036998;stroke-width:10;stroke-linecap:butt;stroke-linejoin:miter;stroke-miterlimit:4;stroke-dasharray:none;stroke-opacity:1"
       transform="matrix(0.13333333,0,0,-0.13333333,0,61.946667)"
       clip-path="url(#clipPath4)" />
    <path
       id="path5"
       d="M 149.719,339.555 4.45313,55.0664"
       style="fill:none;stroke:#036998;stroke-width:10;stroke-linecap:butt;stroke-linejoin:miter;stroke-miterlimit:4;stroke-dasharray:none;stroke-opacity:1"
       transform="matrix(0.13333333,0,0,-0.13333333,0,61.946667)"
       clip-path="url(#clipPath6)" />
    <path
       id="path7"
       d="m 106.211,300.348 h 87.0117 v 78.418 H 106.211 Z"
       style="fill:#036998;fill-opacity:1;fill-rule:nonzero;stroke:none"
       transform="matrix(0.13333333,0,0,-0.13333333,0,61.946667)"
       clip-path="url(#clipPath8)" />
    <path
       id="path9"
       d="m 193.223,300.348 v 78.418 h -87.012 v -78.418 z"
       style="fill:none;stroke:#ffffff;stroke-width:3.99994;stroke-linecap:butt;stroke-linejoin:miter;stroke-miterlimit:4;stroke-dasharray:none;stroke-opacity:1"
       transform="matrix(0.13333333,0,0,-0.13333333,0,61.946667)"
       clip-path="url(#clipPath10)" />
    <path
       id="path11"
       d="m 25.0117,381.438 c -4.5703,0 -8.2734,10.847 -8.2734,24.23 0,13.387 3.7031,24.234 8.2734,24.234 h 43.4649 c 4.5703,0 8.2695,-10.847 8.2695,-24.234 0,-13.383 -3.6992,-24.23 -8.2695,-24.23 H 25.0117"
       style="fill:#036998;fill-opacity:1;fill-rule:nonzero;stroke:none"
       transform="matrix(0.13333333,0,0,-0.13333333,0,61.946667)"
       clip-path="url(#clipPath12)" />
    <path
       id="path13"
       d="m 25.0117,381.438 c -4.5703,0 -8.2734,10.847 -8.2734,24.23 0,13.387 3.7031,24.234 8.2734,24.234 h 43.4649 c 4.5703,0 8.2695,-10.847 8.2695,-24.234 0,-13.383 -3.6992,-24.23 -8.2695,-24.23 z"
       style="fill:none;stroke:#ffffff;stroke-width:3.99994;stroke-linecap:butt;stroke-linejoin:miter;stroke-miterlimit:4;stroke-dasharray:none;stroke-opacity:1"
       transform="matrix(0.13333333,0,0,-0.13333333,0,61.946667)"
       clip-path="url(#clipPath14)" />
    <path
       id="path15"
       d="m 56.9453,348.23 h 185.543 v 84.4219 H 56.9453 Z"
       style="fill:#036998;fill-opacity:1;fill-rule:nonzero;stroke:none"
       transform="matrix(0.13333333,0,0,-0.13333333,0,61.946667)"
       clip-path="url(#clipPath16)" />
    <path
       id="path17"
       d="m 56.9453,348.23 v 84.422 H 242.488 V 348.23 Z"
       style="fill:none;stroke:#ffffff;stroke-width:3.99994;stroke-linecap:butt;stroke-linejoin:miter;stroke-miterlimit:4;stroke-dasharray:none;stroke-opacity:1"
       transform="matrix(0.13333333,0,0,-0.13333333,0,61.946667)"
       clip-path="url(#clipPath18)" />
    <path
       id="path19"
       d="m 242.488,347.965 v 84.687 H 56.8359 l 23.9063,23.903 h 162.8518 22.617 v -84.688 l -23.723,-23.902"
       style="fill:#036998;fill-opacity:1;fill-rule:nonzero;stroke:none"
       transform="matrix(0.13333333,0,0,-0.13333333,0,61.946667)"
       clip-path="url(#clipPath20)" />
    <path
       id="path21"
       d="m 242.488,347.965 v 84.687 H 56.8359 l 23.9063,23.903 h 162.8518 22.617 v -84.688 z"
       style="fill:none;stroke:#ffffff;stroke-width:3.99994;stroke-linecap:butt;stroke-linejoin:miter;stroke-miterlimit:4;stroke-dasharray:none;stroke-opacity:1"
       transform="matrix(0.13333333,0,0,-0.13333333,0,61.946667)"
       clip-path="url(#clipPath22)" />
    <path
       id="path23"
       d="m 242.488,432.652 23.723,23.903"
       style="fill:#036998;fill-opacity:1;fill-rule:nonzero;stroke:#ffffff;stroke-width:3.99994;stroke-linecap:butt;stroke-linejoin:miter;stroke-miterlimit:4;stroke-dasharray:none;stroke-opacity:1"
       transform="matrix(0.13333333,0,0,-0.13333333,0,61.946667)"
       clip-path="url(#clipPath24)" />
    <path
       id="path25"
       d="M 242.488,370.605 H 56.9453"
       style="fill:#036998;fill-opacity:1;fill-rule:nonzero;stroke:#ffffff;stroke-width:3.99994;stroke-linecap:butt;stroke-linejoin:miter;stroke-miterlimit:4;stroke-dasharray:none;stroke-opacity:1"
       transform="matrix(0.13333333,0,0,-0.13333333,0,61.946667)"
       clip-path="url(#clipPath26)" />
    <path
       id="path27"
       d="M 266.211,394.242 242.488,370.344"
       style="fill:#036998;fill-opacity:1;fill-rule:nonzero;stroke:#ffffff;stroke-width:3.99994;stroke-linecap:butt;stroke-linejoin:miter;stroke-miterlimit:4;stroke-dasharray:none;stroke-opacity:1"
       transform="matrix(0.13333333,0,0,-0.13333333,0,61.946667)"
       clip-path="url(#clipPath28)" />
    <path
       id="path29"
       d="m 321.094,461.461 -3.653,-18.047 -65.183,-42.387 -3.188,33.7 72.024,26.734"
       style="fill:#036998;fill-opacity:1;fill-rule:nonzero;stroke:none"
       transform="matrix(0.13333333,0,0,-0.13333333,0,61.946667)"
       clip-path="url(#clipPath30)" />
    <path
       id="path31"
       d="m 321.094,461.461 -3.653,-18.047 -65.183,-42.387 -3.188,33.7 z"
       style="fill:none;stroke:#ffffff;stroke-width:3.99994;stroke-linecap:butt;stroke-linejoin:miter;stroke-miterlimit:4;stroke-dasharray:none;stroke-opacity:1"
       transform="matrix(0.13333333,0,0,-0.13333333,0,61.946667)"
       clip-path="url(#clipPath32)" />
  </g>
</svg>
