<?xml version="1.0" encoding="UTF-8" standalone="no"?>
<!-- Created with Inkscape (http://www.inkscape.org/) -->

<svg
   version="1.1"
   id="svg1"
   width="68.026665"
   height="49.400002"
   viewBox="0 0 68.026665 49.400002"
   sodipodi:docname="government building.eps"
   xmlns:inkscape="http://www.inkscape.org/namespaces/inkscape"
   xmlns:sodipodi="http://sodipodi.sourceforge.net/DTD/sodipodi-0.dtd"
   xmlns="http://www.w3.org/2000/svg"
   xmlns:svg="http://www.w3.org/2000/svg">
  <defs
     id="defs1" />
  <sodipodi:namedview
     id="namedview1"
     pagecolor="#505050"
     bordercolor="#eeeeee"
     borderopacity="1"
     inkscape:showpageshadow="0"
     inkscape:pageopacity="0"
     inkscape:pagecheckerboard="0"
     inkscape:deskcolor="#d1d1d1">
    <inkscape:page
       x="0"
       y="0"
       inkscape:label="1"
       id="page1"
       width="68.026665"
       height="49.400002"
       margin="0"
       bleed="0" />
  </sodipodi:namedview>
  <g
     id="g1"
     inkscape:groupmode="layer"
     inkscape:label="1">
    <path
       id="path1"
       d="m 143.574,195.82 h 223.203 v 34.0313 H 143.574 Z"
       style="fill:#02709f;fill-opacity:1;fill-rule:nonzero;stroke:none"
       transform="matrix(0.13333333,0,0,-0.13333333,0,49.4)" />
    <path
       id="path2"
       d="m 366.777,195.82 v 34.032 H 143.574 V 195.82 Z"
       style="fill:none;stroke:#ffffff;stroke-width:3.99994;stroke-linecap:butt;stroke-linejoin:miter;stroke-miterlimit:4;stroke-dasharray:none;stroke-opacity:1"
       transform="matrix(0.13333333,0,0,-0.13333333,0,49.4)" />
    <path
       id="path3"
       d="m 367.109,229.852 c 0,49.961 -50.07,92.328 -111.828,92.328 -61.765,0 -111.836,-42.367 -111.836,-92.328 h 223.664"
       style="fill:#02709f;fill-opacity:1;fill-rule:nonzero;stroke:none"
       transform="matrix(0.13333333,0,0,-0.13333333,0,49.4)" />
    <path
       id="path4"
       d="m 367.109,229.852 c 0,49.961 -50.07,92.328 -111.828,92.328 -61.765,0 -111.836,-42.367 -111.836,-92.328 z"
       style="fill:none;stroke:#ffffff;stroke-width:3.99994;stroke-linecap:butt;stroke-linejoin:miter;stroke-miterlimit:4;stroke-dasharray:none;stroke-opacity:1"
       transform="matrix(0.13333333,0,0,-0.13333333,0,49.4)" />
    <path
       id="path5"
       d="M 256.492,370.137 V 317.703"
       style="fill:#02709f;fill-opacity:1;fill-rule:nonzero;stroke:#ffffff;stroke-width:3.99994;stroke-linecap:butt;stroke-linejoin:miter;stroke-miterlimit:4;stroke-dasharray:none;stroke-opacity:1"
       transform="matrix(0.13333333,0,0,-0.13333333,0,49.4)" />
    <path
       id="path6"
       d="m 300.715,338.164 c -1.621,-2.441 -20.344,-2.394 -23.637,0 -4.488,3.262 -17.129,3.262 -20.39,-0.809 v 25.672 c 3.261,4.071 15.902,4.071 20.39,0.821 3.293,-2.403 22.016,-2.453 23.637,0 v -25.684"
       style="fill:#02709f;fill-opacity:1;fill-rule:nonzero;stroke:none"
       transform="matrix(0.13333333,0,0,-0.13333333,0,49.4)" />
    <path
       id="path7"
       d="m 300.715,338.164 c -1.621,-2.441 -20.344,-2.394 -23.637,0 -4.488,3.262 -17.129,3.262 -20.39,-0.809 v 25.672 c 3.261,4.071 15.902,4.071 20.39,0.821 3.293,-2.403 22.016,-2.453 23.637,0 z"
       style="fill:none;stroke:#ffffff;stroke-width:3.99994;stroke-linecap:butt;stroke-linejoin:miter;stroke-miterlimit:4;stroke-dasharray:none;stroke-opacity:1"
       transform="matrix(0.13333333,0,0,-0.13333333,0,49.4)" />
    <path
       id="path8"
       d="m 2,2.00391 h 506.176 v 193.816 H 2 Z"
       style="fill:#02709f;fill-opacity:1;fill-rule:nonzero;stroke:none"
       transform="matrix(0.13333333,0,0,-0.13333333,0,49.4)" />
    <path
       id="path9"
       d="M 508.176,2.00391 V 195.82 H 2 V 2.00391 Z"
       style="fill:none;stroke:#ffffff;stroke-width:3.99994;stroke-linecap:butt;stroke-linejoin:miter;stroke-miterlimit:4;stroke-dasharray:none;stroke-opacity:1"
       transform="matrix(0.13333333,0,0,-0.13333333,0,49.4)" />
    <path
       id="path10"
       d="m 317.063,3.66016 0.132,64.19144 c 0,29.0507 -27.632,52.6684 -61.882,52.6684 -34.25,0 -62.012,-23.5552 -62.012,-52.6098 V 3.78906"
       style="fill:#02709f;fill-opacity:1;fill-rule:nonzero;stroke:#ffffff;stroke-width:3.99994;stroke-linecap:butt;stroke-linejoin:miter;stroke-miterlimit:4;stroke-dasharray:none;stroke-opacity:1"
       transform="matrix(0.13333333,0,0,-0.13333333,0,49.4)" />
    <path
       id="path11"
       d="m 24.5977,138.293 h 32.9922 v 30.75 H 24.5977 Z"
       style="fill:#02709f;fill-opacity:1;fill-rule:nonzero;stroke:none"
       transform="matrix(0.13333333,0,0,-0.13333333,0,49.4)" />
    <path
       id="path12"
       d="m 57.5898,138.293 v 30.75 H 24.5977 v -30.75 z"
       style="fill:none;stroke:#ffffff;stroke-width:3.99994;stroke-linecap:butt;stroke-linejoin:miter;stroke-miterlimit:4;stroke-dasharray:none;stroke-opacity:1"
       transform="matrix(0.13333333,0,0,-0.13333333,0,49.4)" />
    <path
       id="path13"
       d="m 24.5977,82.9766 h 32.9922 v 30.7539 H 24.5977 Z"
       style="fill:#02709f;fill-opacity:1;fill-rule:nonzero;stroke:none"
       transform="matrix(0.13333333,0,0,-0.13333333,0,49.4)" />
    <path
       id="path14"
       d="M 57.5898,82.9766 V 113.73 H 24.5977 V 82.9766 Z"
       style="fill:none;stroke:#ffffff;stroke-width:3.99994;stroke-linecap:butt;stroke-linejoin:miter;stroke-miterlimit:4;stroke-dasharray:none;stroke-opacity:1"
       transform="matrix(0.13333333,0,0,-0.13333333,0,49.4)" />
    <path
       id="path15"
       d="m 24.5977,27.6563 h 32.9922 v 30.75 H 24.5977 Z"
       style="fill:#02709f;fill-opacity:1;fill-rule:nonzero;stroke:none"
       transform="matrix(0.13333333,0,0,-0.13333333,0,49.4)" />
    <path
       id="path16"
       d="m 57.5898,27.6563 v 30.75 H 24.5977 v -30.75 z"
       style="fill:none;stroke:#ffffff;stroke-width:3.99994;stroke-linecap:butt;stroke-linejoin:miter;stroke-miterlimit:4;stroke-dasharray:none;stroke-opacity:1"
       transform="matrix(0.13333333,0,0,-0.13333333,0,49.4)" />
    <path
       id="path17"
       d="m 73.4492,138.293 h 32.9961 v 30.75 H 73.4492 Z"
       style="fill:#02709f;fill-opacity:1;fill-rule:nonzero;stroke:none"
       transform="matrix(0.13333333,0,0,-0.13333333,0,49.4)" />
    <path
       id="path18"
       d="m 106.445,138.293 v 30.75 H 73.4492 v -30.75 z"
       style="fill:none;stroke:#ffffff;stroke-width:3.99994;stroke-linecap:butt;stroke-linejoin:miter;stroke-miterlimit:4;stroke-dasharray:none;stroke-opacity:1"
       transform="matrix(0.13333333,0,0,-0.13333333,0,49.4)" />
    <path
       id="path19"
       d="m 73.4492,82.9766 h 32.9961 v 30.7539 H 73.4492 Z"
       style="fill:#02709f;fill-opacity:1;fill-rule:nonzero;stroke:none"
       transform="matrix(0.13333333,0,0,-0.13333333,0,49.4)" />
    <path
       id="path20"
       d="M 106.445,82.9766 V 113.73 H 73.4492 V 82.9766 Z"
       style="fill:none;stroke:#ffffff;stroke-width:3.99994;stroke-linecap:butt;stroke-linejoin:miter;stroke-miterlimit:4;stroke-dasharray:none;stroke-opacity:1"
       transform="matrix(0.13333333,0,0,-0.13333333,0,49.4)" />
    <path
       id="path21"
       d="m 73.4492,27.6563 h 32.9961 v 30.75 H 73.4492 Z"
       style="fill:#02709f;fill-opacity:1;fill-rule:nonzero;stroke:none"
       transform="matrix(0.13333333,0,0,-0.13333333,0,49.4)" />
    <path
       id="path22"
       d="m 106.445,27.6563 v 30.75 H 73.4492 v -30.75 z"
       style="fill:none;stroke:#ffffff;stroke-width:3.99994;stroke-linecap:butt;stroke-linejoin:miter;stroke-miterlimit:4;stroke-dasharray:none;stroke-opacity:1"
       transform="matrix(0.13333333,0,0,-0.13333333,0,49.4)" />
    <path
       id="path23"
       d="m 452.59,138.293 h 32.9844 v 30.75 H 452.59 Z"
       style="fill:#02709f;fill-opacity:1;fill-rule:nonzero;stroke:none"
       transform="matrix(0.13333333,0,0,-0.13333333,0,49.4)" />
    <path
       id="path24"
       d="m 452.59,138.293 v 30.75 h 32.984 v -30.75 z"
       style="fill:none;stroke:#ffffff;stroke-width:3.99994;stroke-linecap:butt;stroke-linejoin:miter;stroke-miterlimit:4;stroke-dasharray:none;stroke-opacity:1"
       transform="matrix(0.13333333,0,0,-0.13333333,0,49.4)" />
    <path
       id="path25"
       d="m 452.59,82.9766 h 32.9844 v 30.7539 H 452.59 Z"
       style="fill:#02709f;fill-opacity:1;fill-rule:nonzero;stroke:none"
       transform="matrix(0.13333333,0,0,-0.13333333,0,49.4)" />
    <path
       id="path26"
       d="M 452.59,82.9766 V 113.73 h 32.984 V 82.9766 Z"
       style="fill:none;stroke:#ffffff;stroke-width:3.99994;stroke-linecap:butt;stroke-linejoin:miter;stroke-miterlimit:4;stroke-dasharray:none;stroke-opacity:1"
       transform="matrix(0.13333333,0,0,-0.13333333,0,49.4)" />
    <path
       id="path27"
       d="m 452.59,27.6563 h 32.9844 v 30.75 H 452.59 Z"
       style="fill:#02709f;fill-opacity:1;fill-rule:nonzero;stroke:none"
       transform="matrix(0.13333333,0,0,-0.13333333,0,49.4)" />
    <path
       id="path28"
       d="m 452.59,27.6563 v 30.75 h 32.984 v -30.75 z"
       style="fill:none;stroke:#ffffff;stroke-width:3.99994;stroke-linecap:butt;stroke-linejoin:miter;stroke-miterlimit:4;stroke-dasharray:none;stroke-opacity:1"
       transform="matrix(0.13333333,0,0,-0.13333333,0,49.4)" />
    <path
       id="path29"
       d="m 403.73,138.293 h 33 v 30.75 h -33 z"
       style="fill:#02709f;fill-opacity:1;fill-rule:nonzero;stroke:none"
       transform="matrix(0.13333333,0,0,-0.13333333,0,49.4)" />
    <path
       id="path30"
       d="m 403.73,138.293 v 30.75 h 33 v -30.75 z"
       style="fill:none;stroke:#ffffff;stroke-width:3.99994;stroke-linecap:butt;stroke-linejoin:miter;stroke-miterlimit:4;stroke-dasharray:none;stroke-opacity:1"
       transform="matrix(0.13333333,0,0,-0.13333333,0,49.4)" />
    <path
       id="path31"
       d="m 403.73,82.9766 h 33 v 30.7539 h -33 z"
       style="fill:#02709f;fill-opacity:1;fill-rule:nonzero;stroke:none"
       transform="matrix(0.13333333,0,0,-0.13333333,0,49.4)" />
    <path
       id="path32"
       d="M 403.73,82.9766 V 113.73 h 33 V 82.9766 Z"
       style="fill:none;stroke:#ffffff;stroke-width:3.99994;stroke-linecap:butt;stroke-linejoin:miter;stroke-miterlimit:4;stroke-dasharray:none;stroke-opacity:1"
       transform="matrix(0.13333333,0,0,-0.13333333,0,49.4)" />
    <path
       id="path33"
       d="m 403.73,27.6563 h 33 v 30.75 h -33 z"
       style="fill:#02709f;fill-opacity:1;fill-rule:nonzero;stroke:none"
       transform="matrix(0.13333333,0,0,-0.13333333,0,49.4)" />
    <path
       id="path34"
       d="m 403.73,27.6563 v 30.75 h 33 v -30.75 z"
       style="fill:none;stroke:#ffffff;stroke-width:3.99994;stroke-linecap:butt;stroke-linejoin:miter;stroke-miterlimit:4;stroke-dasharray:none;stroke-opacity:1"
       transform="matrix(0.13333333,0,0,-0.13333333,0,49.4)" />
    <path
       id="path35"
       d="M 375.461,133.477 256.465,172.473 137.473,133.477 h 237.988"
       style="fill:#02709f;fill-opacity:1;fill-rule:nonzero;stroke:none"
       transform="matrix(0.13333333,0,0,-0.13333333,0,49.4)" />
    <path
       id="path36"
       d="M 375.461,133.477 256.465,172.473 137.473,133.477 Z"
       style="fill:none;stroke:#ffffff;stroke-width:3.99994;stroke-linecap:butt;stroke-linejoin:miter;stroke-miterlimit:4;stroke-dasharray:none;stroke-opacity:1"
       transform="matrix(0.13333333,0,0,-0.13333333,0,49.4)" />
    <path
       id="path37"
       d="m 125.637,214.004 h 261.406 v 15.8477 H 125.637 Z"
       style="fill:#02709f;fill-opacity:1;fill-rule:nonzero;stroke:none"
       transform="matrix(0.13333333,0,0,-0.13333333,0,49.4)" />
    <path
       id="path38"
       d="m 387.043,214.004 v 15.848 H 125.637 v -15.848 z"
       style="fill:none;stroke:#ffffff;stroke-width:3.99994;stroke-linecap:butt;stroke-linejoin:miter;stroke-miterlimit:4;stroke-dasharray:none;stroke-opacity:1"
       transform="matrix(0.13333333,0,0,-0.13333333,0,49.4)" />
    <path
       id="path39"
       d="m 152.59,2.27344 h 20 v 131.25 h -20 z"
       style="fill:#02709f;fill-opacity:1;fill-rule:nonzero;stroke:none"
       transform="matrix(0.13333333,0,0,-0.13333333,0,49.4)" />
    <path
       id="path40"
       d="M 172.59,2.27344 V 133.523 h -20 V 2.27344 Z"
       style="fill:none;stroke:#ffffff;stroke-width:3.99994;stroke-linecap:butt;stroke-linejoin:miter;stroke-miterlimit:4;stroke-dasharray:none;stroke-opacity:1"
       transform="matrix(0.13333333,0,0,-0.13333333,0,49.4)" />
    <path
       id="path41"
       d="m 340.09,2.27344 h 20 v 131.25 h -20 z"
       style="fill:#02709f;fill-opacity:1;fill-rule:nonzero;stroke:none"
       transform="matrix(0.13333333,0,0,-0.13333333,0,49.4)" />
    <path
       id="path42"
       d="M 340.09,2.27344 V 133.523 h 20 V 2.27344 Z"
       style="fill:none;stroke:#ffffff;stroke-width:3.99994;stroke-linecap:butt;stroke-linejoin:miter;stroke-miterlimit:4;stroke-dasharray:none;stroke-opacity:1"
       transform="matrix(0.13333333,0,0,-0.13333333,0,49.4)" />
  </g>
</svg>
