<?xml version="1.0" encoding="UTF-8" standalone="no"?>
<!-- Created with Inkscape (http://www.inkscape.org/) -->

<svg
   version="1.1"
   id="svg1"
   width="35.599998"
   height="43.32"
   viewBox="0 0 35.599998 43.32"
   sodipodi:docname="cisco unified presence server.eps"
   xmlns:inkscape="http://www.inkscape.org/namespaces/inkscape"
   xmlns:sodipodi="http://sodipodi.sourceforge.net/DTD/sodipodi-0.dtd"
   xmlns="http://www.w3.org/2000/svg"
   xmlns:svg="http://www.w3.org/2000/svg">
  <defs
     id="defs1" />
  <sodipodi:namedview
     id="namedview1"
     pagecolor="#505050"
     bordercolor="#eeeeee"
     borderopacity="1"
     inkscape:showpageshadow="0"
     inkscape:pageopacity="0"
     inkscape:pagecheckerboard="0"
     inkscape:deskcolor="#d1d1d1">
    <inkscape:page
       x="0"
       y="0"
       inkscape:label="1"
       id="page1"
       width="35.599998"
       height="43.32"
       margin="0"
       bleed="0" />
  </sodipodi:namedview>
  <g
     id="g1"
     inkscape:groupmode="layer"
     inkscape:label="1">
    <path
       id="path1"
       d="M 168.691,4.46484 V 286.316 H 7.0625 V 4.46484 H 168.691"
       style="fill:#2b659d;fill-opacity:1;fill-rule:nonzero;stroke:none"
       transform="matrix(0.13333333,0,0,-0.13333333,0,43.32)" />
    <path
       id="path2"
       d="M 168.691,4.46484 V 286.316 H 7.0625 V 4.46484 Z"
       style="fill:none;stroke:#ffffff;stroke-width:4;stroke-linecap:butt;stroke-linejoin:miter;stroke-miterlimit:4;stroke-dasharray:none;stroke-opacity:1"
       transform="matrix(0.13333333,0,0,-0.13333333,0,43.32)" />
    <path
       id="path3"
       d="M 7.00391,23.6992 H 167.91"
       style="fill:none;stroke:#ffffff;stroke-width:4;stroke-linecap:butt;stroke-linejoin:miter;stroke-miterlimit:4;stroke-dasharray:none;stroke-opacity:1"
       transform="matrix(0.13333333,0,0,-0.13333333,0,43.32)" />
    <path
       id="path4"
       d="m 160.867,69.4922 c 0,-17.168 -13.902,-31.0742 -31.07,-31.0742 -17.156,0 -31.0665,13.9062 -31.0665,31.0742 0,17.1484 13.9105,31.0738 31.0665,31.0738 17.168,0 31.07,-13.9254 31.07,-31.0738 z"
       style="fill:none;stroke:#ffffff;stroke-width:6;stroke-linecap:butt;stroke-linejoin:miter;stroke-miterlimit:4;stroke-dasharray:none;stroke-opacity:1"
       transform="matrix(0.13333333,0,0,-0.13333333,0,43.32)" />
    <path
       id="path5"
       d="m 138.469,69.4922 c 0,-4.7852 -3.887,-8.6719 -8.672,-8.6719 -4.785,0 -8.664,3.8867 -8.664,8.6719 0,4.7851 3.879,8.6719 8.664,8.6719 4.785,0 8.672,-3.8868 8.672,-8.6719"
       style="fill:#ffffff;fill-opacity:1;fill-rule:nonzero;stroke:none"
       transform="matrix(0.13333333,0,0,-0.13333333,0,43.32)" />
    <path
       id="path6"
       d="m 138.469,69.4922 c 0,-4.7852 -3.887,-8.6719 -8.672,-8.6719 -4.785,0 -8.664,3.8867 -8.664,8.6719 0,4.7851 3.879,8.6719 8.664,8.6719 4.785,0 8.672,-3.8868 8.672,-8.6719 z"
       style="fill:none;stroke:#ffffff;stroke-width:4;stroke-linecap:butt;stroke-linejoin:miter;stroke-miterlimit:4;stroke-dasharray:none;stroke-opacity:1"
       transform="matrix(0.13333333,0,0,-0.13333333,0,43.32)" />
    <path
       id="path7"
       d="M 77.9063,69.4336 C 77.9063,52.2656 64,38.3594 46.832,38.3594 c -17.1523,0 -31.0586,13.9062 -31.0586,31.0742 0,17.1484 13.9063,31.0544 31.0586,31.0544 17.168,0 31.0743,-13.906 31.0743,-31.0544 z"
       style="fill:none;stroke:#ffffff;stroke-width:6;stroke-linecap:butt;stroke-linejoin:miter;stroke-miterlimit:4;stroke-dasharray:none;stroke-opacity:1"
       transform="matrix(0.13333333,0,0,-0.13333333,0,43.32)" />
    <path
       id="path8"
       d="M 34.2891,56.875 59.3906,81.9727"
       style="fill:none;stroke:#ffffff;stroke-width:8;stroke-linecap:round;stroke-linejoin:miter;stroke-miterlimit:4;stroke-dasharray:none;stroke-opacity:1"
       transform="matrix(0.13333333,0,0,-0.13333333,0,43.32)" />
    <path
       id="path9"
       d="M 34.2891,81.9727 59.3906,56.875"
       style="fill:none;stroke:#ffffff;stroke-width:8;stroke-linecap:round;stroke-linejoin:miter;stroke-miterlimit:4;stroke-dasharray:none;stroke-opacity:1"
       transform="matrix(0.13333333,0,0,-0.13333333,0,43.32)" />
    <path
       id="path10"
       d="m 118.605,137.676 c 0,-17.168 -13.921,-31.074 -31.0894,-31.074 -17.1562,0 -31.0703,13.906 -31.0703,31.074 0,17.16 13.9141,31.074 31.0703,31.074 17.1684,0 31.0894,-13.914 31.0894,-31.074 z"
       style="fill:none;stroke:#ffffff;stroke-width:6;stroke-linecap:butt;stroke-linejoin:miter;stroke-miterlimit:4;stroke-dasharray:none;stroke-opacity:1"
       transform="matrix(0.13333333,0,0,-0.13333333,0,43.32)" />
    <path
       id="path11"
       d="M 81.5273,124.004 71.3711,134.16"
       style="fill:none;stroke:#ffffff;stroke-width:8;stroke-linecap:round;stroke-linejoin:miter;stroke-miterlimit:4;stroke-dasharray:none;stroke-opacity:1"
       transform="matrix(0.13333333,0,0,-0.13333333,0,43.32)" />
    <path
       id="path12"
       d="M 104.535,147.012 81.5273,124.004"
       style="fill:none;stroke:#ffffff;stroke-width:8;stroke-linecap:round;stroke-linejoin:miter;stroke-miterlimit:4;stroke-dasharray:none;stroke-opacity:1"
       transform="matrix(0.13333333,0,0,-0.13333333,0,43.32)" />
    <path
       id="path13"
       d="m 7.0625,286.316 56.9648,35.102 H 219.875 L 168.691,286.316 H 7.0625"
       style="fill:#2b659d;fill-opacity:1;fill-rule:nonzero;stroke:none"
       transform="matrix(0.13333333,0,0,-0.13333333,0,43.32)" />
    <path
       id="path14"
       d="m 7.0625,286.316 56.9648,35.102 H 219.875 l -51.184,-35.102 z"
       style="fill:none;stroke:#ffffff;stroke-width:4;stroke-linecap:butt;stroke-linejoin:miter;stroke-miterlimit:4;stroke-dasharray:none;stroke-opacity:1"
       transform="matrix(0.13333333,0,0,-0.13333333,0,43.32)" />
    <path
       id="path15"
       d="m 168.738,4.21094 50.2,40.89846 V 321.16 l -50.2,-33.648 V 4.21094"
       style="fill:#2b659d;fill-opacity:1;fill-rule:nonzero;stroke:none"
       transform="matrix(0.13333333,0,0,-0.13333333,0,43.32)" />
    <path
       id="path16"
       d="m 168.738,4.21094 50.2,40.89846 V 321.16 l -50.2,-33.648 z"
       style="fill:none;stroke:#ffffff;stroke-width:4;stroke-linecap:butt;stroke-linejoin:miter;stroke-miterlimit:4;stroke-dasharray:none;stroke-opacity:1"
       transform="matrix(0.13333333,0,0,-0.13333333,0,43.32)" />
    <path
       id="path17"
       d="M 7.00391,179.895 H 167.91"
       style="fill:none;stroke:#ffffff;stroke-width:3;stroke-linecap:butt;stroke-linejoin:miter;stroke-miterlimit:4;stroke-dasharray:none;stroke-opacity:1"
       transform="matrix(0.13333333,0,0,-0.13333333,0,43.32)" />
    <path
       id="path18"
       d="m 94.9023,235.535 v 30.824 h -75 v -30.824 h 75"
       style="fill:#2b659d;fill-opacity:1;fill-rule:nonzero;stroke:none"
       transform="matrix(0.13333333,0,0,-0.13333333,0,43.32)" />
    <path
       id="path19"
       d="m 94.9023,235.535 v 30.824 h -75 v -30.824 z"
       style="fill:none;stroke:#ffffff;stroke-width:4;stroke-linecap:butt;stroke-linejoin:miter;stroke-miterlimit:4;stroke-dasharray:none;stroke-opacity:1"
       transform="matrix(0.13333333,0,0,-0.13333333,0,43.32)" />
    <path
       id="path20"
       d="M 27.4023,249.895 H 88.2422"
       style="fill:#000000;fill-opacity:1;fill-rule:nonzero;stroke:#ffffff;stroke-width:4;stroke-linecap:butt;stroke-linejoin:miter;stroke-miterlimit:4;stroke-dasharray:none;stroke-opacity:1"
       transform="matrix(0.13333333,0,0,-0.13333333,0,43.32)" />
    <path
       id="path21"
       d="m 218.313,192.844 h 4.824 c 36.152,0 41.89,-32.5 41.89,-32.5 v 33.75 c 0,0 -5.738,32.5 -41.89,32.5 h -5.782"
       style="fill:#ffffff;fill-opacity:1;fill-rule:nonzero;stroke:#231f20;stroke-width:4;stroke-linecap:butt;stroke-linejoin:miter;stroke-miterlimit:4;stroke-dasharray:none;stroke-opacity:1"
       transform="matrix(0.13333333,0,0,-0.13333333,0,43.32)" />
    <path
       id="path22"
       d="m 265.027,195.969 v -40 c -3.922,-47.5 -88.14,-45 -88.14,-45 v -2.5 -32.5002 l -55,55.0002 55,55 v -35 c 0,0 85.64,-2.5 88.14,45"
       style="fill:#ffffff;fill-opacity:1;fill-rule:nonzero;stroke:#000000;stroke-width:4;stroke-linecap:butt;stroke-linejoin:miter;stroke-miterlimit:4;stroke-dasharray:none;stroke-opacity:1"
       transform="matrix(0.13333333,0,0,-0.13333333,0,43.32)" />
  </g>
</svg>
