<?xml version="1.0" encoding="UTF-8" standalone="no"?>
<!-- Created with Inkscape (http://www.inkscape.org/) -->

<svg
   version="1.1"
   id="svg1"
   width="35.693333"
   height="36.040001"
   viewBox="0 0 35.693333 36.040001"
   sodipodi:docname="communications server.eps"
   xmlns:inkscape="http://www.inkscape.org/namespaces/inkscape"
   xmlns:sodipodi="http://sodipodi.sourceforge.net/DTD/sodipodi-0.dtd"
   xmlns="http://www.w3.org/2000/svg"
   xmlns:svg="http://www.w3.org/2000/svg">
  <defs
     id="defs1" />
  <sodipodi:namedview
     id="namedview1"
     pagecolor="#505050"
     bordercolor="#eeeeee"
     borderopacity="1"
     inkscape:showpageshadow="0"
     inkscape:pageopacity="0"
     inkscape:pagecheckerboard="0"
     inkscape:deskcolor="#d1d1d1">
    <inkscape:page
       x="0"
       y="0"
       inkscape:label="1"
       id="page1"
       width="35.693333"
       height="36.040001"
       margin="0"
       bleed="0" />
  </sodipodi:namedview>
  <g
     id="g1"
     inkscape:groupmode="layer"
     inkscape:label="1">
    <path
       id="path1"
       d="m 5.46875,4.75 h 215.996 V 224.496 H 5.46875 Z"
       style="fill:#087bbb;fill-opacity:1;fill-rule:nonzero;stroke:none"
       transform="matrix(0.13333333,0,0,-0.13333333,0,36.04)" />
    <path
       id="path2"
       d="M 221.465,4.75 V 224.496 H 5.46875 V 4.75 Z"
       style="fill:none;stroke:#ffffff;stroke-width:3.99994;stroke-linecap:butt;stroke-linejoin:miter;stroke-miterlimit:4;stroke-dasharray:none;stroke-opacity:1"
       transform="matrix(0.13333333,0,0,-0.13333333,0,36.04)" />
    <path
       id="path3"
       d="m 113.457,77.0078 c 21.121,0 38.242,17.1172 38.242,38.2302 0,21.114 -17.121,38.242 -38.242,38.242 -21.1132,0 -38.2226,-17.128 -38.2226,-38.242 0,-21.113 17.1094,-38.2302 38.2226,-38.2302 z"
       style="fill:none;stroke:#ffffff;stroke-width:15;stroke-linecap:butt;stroke-linejoin:miter;stroke-miterlimit:4;stroke-dasharray:none;stroke-opacity:1"
       transform="matrix(0.13333333,0,0,-0.13333333,0,36.04)" />
    <path
       id="path4"
       d="m 113.457,153.48 h 66.414"
       style="fill:none;stroke:#ffffff;stroke-width:15;stroke-linecap:butt;stroke-linejoin:miter;stroke-miterlimit:4;stroke-dasharray:none;stroke-opacity:1"
       transform="matrix(0.13333333,0,0,-0.13333333,0,36.04)" />
    <path
       id="path5"
       d="m 180.547,178.383 v -48.067 l 28.965,23.086 -28.965,24.981"
       style="fill:#ffffff;fill-opacity:1;fill-rule:nonzero;stroke:none"
       transform="matrix(0.13333333,0,0,-0.13333333,0,36.04)" />
    <path
       id="path6"
       d="m 180.547,178.383 v -48.067 l 28.965,23.086 z"
       style="fill:none;stroke:#ffffff;stroke-width:1.99997;stroke-linecap:butt;stroke-linejoin:miter;stroke-miterlimit:4;stroke-dasharray:none;stroke-opacity:1"
       transform="matrix(0.13333333,0,0,-0.13333333,0,36.04)" />
    <path
       id="path7"
       d="m 75.2734,114.977 v 66.406"
       style="fill:none;stroke:#ffffff;stroke-width:15;stroke-linecap:butt;stroke-linejoin:miter;stroke-miterlimit:4;stroke-dasharray:none;stroke-opacity:1"
       transform="matrix(0.13333333,0,0,-0.13333333,0,36.04)" />
    <path
       id="path8"
       d="M 50.8594,181.676 H 98.9258 L 75.8398,210.629 50.8594,181.676"
       style="fill:#ffffff;fill-opacity:1;fill-rule:nonzero;stroke:none"
       transform="matrix(0.13333333,0,0,-0.13333333,0,36.04)" />
    <path
       id="path9"
       d="m 50.8594,181.676 h 48.0664 l -23.086,28.953 z"
       style="fill:none;stroke:#ffffff;stroke-width:1.99997;stroke-linecap:butt;stroke-linejoin:miter;stroke-miterlimit:4;stroke-dasharray:none;stroke-opacity:1"
       transform="matrix(0.13333333,0,0,-0.13333333,0,36.04)" />
    <path
       id="path10"
       d="M 151.777,115.453 V 49.0469"
       style="fill:none;stroke:#ffffff;stroke-width:15;stroke-linecap:butt;stroke-linejoin:miter;stroke-miterlimit:4;stroke-dasharray:none;stroke-opacity:1"
       transform="matrix(0.13333333,0,0,-0.13333333,0,36.04)" />
    <path
       id="path11"
       d="m 176.172,48.9492 h -48.067 l 23.309,-28.9531 24.758,28.9531"
       style="fill:#ffffff;fill-opacity:1;fill-rule:nonzero;stroke:none"
       transform="matrix(0.13333333,0,0,-0.13333333,0,36.04)" />
    <path
       id="path12"
       d="M 176.172,48.9492 H 128.105 L 151.414,19.9961 Z"
       style="fill:none;stroke:#ffffff;stroke-width:1.99997;stroke-linecap:butt;stroke-linejoin:miter;stroke-miterlimit:4;stroke-dasharray:none;stroke-opacity:1"
       transform="matrix(0.13333333,0,0,-0.13333333,0,36.04)" />
    <path
       id="path13"
       d="M 114.414,77.0547 H 47.9883"
       style="fill:none;stroke:#ffffff;stroke-width:15;stroke-linecap:butt;stroke-linejoin:miter;stroke-miterlimit:4;stroke-dasharray:none;stroke-opacity:1"
       transform="matrix(0.13333333,0,0,-0.13333333,0,36.04)" />
    <path
       id="path14"
       d="M 47.0508,52.0156 V 100.094 L 18.0859,76.9961 47.0508,52.0156"
       style="fill:#ffffff;fill-opacity:1;fill-rule:nonzero;stroke:#ffffff;stroke-width:1.99997;stroke-linecap:butt;stroke-linejoin:miter;stroke-miterlimit:4;stroke-dasharray:none;stroke-opacity:1"
       transform="matrix(0.13333333,0,0,-0.13333333,0,36.04)" />
    <path
       id="path15"
       d="M 220.715,224.742 H 5.71094 L 60.2148,268.238 H 265.715 V 267.992 49.8672 L 221.211,4.86719 V 223.492 l -0.496,1.25"
       style="fill:#087bbb;fill-opacity:1;fill-rule:nonzero;stroke:none"
       transform="matrix(0.13333333,0,0,-0.13333333,0,36.04)" />
    <path
       id="path16"
       d="M 220.715,224.742 H 5.71094 L 60.2148,268.238 H 265.715 V 267.992 49.8672 L 221.211,4.86719 V 223.492 Z"
       style="fill:none;stroke:#ffffff;stroke-width:3.99994;stroke-linecap:butt;stroke-linejoin:miter;stroke-miterlimit:4;stroke-dasharray:none;stroke-opacity:1"
       transform="matrix(0.13333333,0,0,-0.13333333,0,36.04)" />
    <path
       id="path17"
       d="m 221.094,225.102 45,43.75"
       style="fill:none;stroke:#ffffff;stroke-width:3.99994;stroke-linecap:butt;stroke-linejoin:miter;stroke-miterlimit:4;stroke-dasharray:none;stroke-opacity:1"
       transform="matrix(0.13333333,0,0,-0.13333333,0,36.04)" />
  </g>
</svg>
