<?xml version="1.0" encoding="UTF-8" standalone="no"?>
<!-- Created with Inkscape (http://www.inkscape.org/) -->

<svg
   version="1.1"
   id="svg1"
   width="45.853333"
   height="37.666668"
   viewBox="0 0 45.853333 37.666668"
   sodipodi:docname="directory server.eps"
   xmlns:inkscape="http://www.inkscape.org/namespaces/inkscape"
   xmlns:sodipodi="http://sodipodi.sourceforge.net/DTD/sodipodi-0.dtd"
   xmlns="http://www.w3.org/2000/svg"
   xmlns:svg="http://www.w3.org/2000/svg">
  <defs
     id="defs1">
    <clipPath
       clipPathUnits="userSpaceOnUse"
       id="clipPath2">
      <path
         d="M 0,2 V 283 H 340 V 2 Z"
         id="path2" />
    </clipPath>
    <clipPath
       clipPathUnits="userSpaceOnUse"
       id="clipPath4">
      <path
         d="M 0,2 V 283 H 340 V 2 Z"
         id="path4" />
    </clipPath>
    <clipPath
       clipPathUnits="userSpaceOnUse"
       id="clipPath6">
      <path
         d="M 0,2 V 283 H 340 V 2 Z"
         id="path6" />
    </clipPath>
    <clipPath
       clipPathUnits="userSpaceOnUse"
       id="clipPath8">
      <path
         d="M 0,2 V 283 H 340 V 2 Z"
         id="path8" />
    </clipPath>
    <clipPath
       clipPathUnits="userSpaceOnUse"
       id="clipPath10">
      <path
         d="M 0,2 V 283 H 340 V 2 Z"
         id="path10" />
    </clipPath>
    <clipPath
       clipPathUnits="userSpaceOnUse"
       id="clipPath12">
      <path
         d="M 0,2 V 283 H 340 V 2 Z"
         id="path12" />
    </clipPath>
    <clipPath
       clipPathUnits="userSpaceOnUse"
       id="clipPath14">
      <path
         d="M 0,2 V 283 H 340 V 2 Z"
         id="path14" />
    </clipPath>
    <clipPath
       clipPathUnits="userSpaceOnUse"
       id="clipPath16">
      <path
         d="M 0,2 V 283 H 340 V 2 Z"
         id="path16" />
    </clipPath>
  </defs>
  <sodipodi:namedview
     id="namedview1"
     pagecolor="#505050"
     bordercolor="#eeeeee"
     borderopacity="1"
     inkscape:showpageshadow="0"
     inkscape:pageopacity="0"
     inkscape:pagecheckerboard="0"
     inkscape:deskcolor="#d1d1d1">
    <inkscape:page
       x="0"
       y="0"
       inkscape:label="1"
       id="page1"
       width="45.853333"
       height="37.666668"
       margin="0"
       bleed="0" />
  </sodipodi:namedview>
  <g
     id="g1"
     inkscape:groupmode="layer"
     inkscape:label="1">
    <path
       id="path1"
       d="M 303.598,1.60938 341.234,29.1875 183.852,279.813 146.801,257.605"
       style="fill:#087fbf;fill-opacity:1;fill-rule:nonzero;stroke:#ffffff;stroke-width:4;stroke-linecap:butt;stroke-linejoin:miter;stroke-miterlimit:4;stroke-dasharray:none;stroke-opacity:1"
       transform="matrix(0.13333333,0,0,-0.13333333,0,37.666667)"
       clip-path="url(#clipPath2)" />
    <path
       id="path3"
       d="M 3.42188,3.05859 303.461,2.85938 146.078,255.672 3.42188,3.05859"
       style="fill:#087fbf;fill-opacity:1;fill-rule:nonzero;stroke:#ffffff;stroke-width:4;stroke-linecap:butt;stroke-linejoin:miter;stroke-miterlimit:4;stroke-dasharray:none;stroke-opacity:1"
       transform="matrix(0.13333333,0,0,-0.13333333,0,37.666667)"
       clip-path="url(#clipPath4)" />
    <path
       id="path5"
       d="m 146.254,80.6367 c 11.992,0 21.719,9.7227 21.719,21.7153 0,11.996 -9.727,21.718 -21.719,21.718 -11.992,0 -21.719,-9.722 -21.719,-21.718 0,-11.9926 9.727,-21.7153 21.719,-21.7153"
       style="fill:#ffffff;fill-opacity:1;fill-rule:nonzero;stroke:none"
       transform="matrix(0.13333333,0,0,-0.13333333,0,37.666667)"
       clip-path="url(#clipPath6)" />
    <path
       id="path7"
       d="m 146.254,159.988 c 11.992,0 21.719,9.731 21.719,21.723 0,12 -9.727,21.727 -21.719,21.727 -11.992,0 -21.719,-9.727 -21.719,-21.727 0,-11.992 9.727,-21.723 21.719,-21.723"
       style="fill:#ffffff;fill-opacity:1;fill-rule:nonzero;stroke:none"
       transform="matrix(0.13333333,0,0,-0.13333333,0,37.666667)"
       clip-path="url(#clipPath8)" />
    <path
       id="path9"
       d="m 204.809,22.0703 c 12.004,0 21.73,9.7266 21.73,21.7305 0,11.9883 -9.726,21.7187 -21.73,21.7187 -11.993,0 -21.719,-9.7304 -21.719,-21.7187 0,-12.0039 9.726,-21.7305 21.719,-21.7305"
       style="fill:#ffffff;fill-opacity:1;fill-rule:nonzero;stroke:none"
       transform="matrix(0.13333333,0,0,-0.13333333,0,37.666667)"
       clip-path="url(#clipPath10)" />
    <path
       id="path11"
       d="m 88.3242,22.7031 c 12.0038,0 21.7308,9.7305 21.7308,21.7305 0,12 -9.727,21.7266 -21.7308,21.7266 -11.9922,0 -21.7187,-9.7266 -21.7187,-21.7266 0,-12 9.7265,-21.7305 21.7187,-21.7305"
       style="fill:#ffffff;fill-opacity:1;fill-rule:nonzero;stroke:none"
       transform="matrix(0.13333333,0,0,-0.13333333,0,37.666667)"
       clip-path="url(#clipPath12)" />
    <path
       id="path13"
       d="M 146.117,177.234 V 103.633 L 86.918,44.4336"
       style="fill:none;stroke:#ffffff;stroke-width:10;stroke-linecap:butt;stroke-linejoin:miter;stroke-miterlimit:4;stroke-dasharray:none;stroke-opacity:1"
       transform="matrix(0.13333333,0,0,-0.13333333,0,37.666667)"
       clip-path="url(#clipPath14)" />
    <path
       id="path15"
       d="M 146.117,100.438 200.512,46.0352"
       style="fill:none;stroke:#ffffff;stroke-width:10;stroke-linecap:butt;stroke-linejoin:miter;stroke-miterlimit:4;stroke-dasharray:none;stroke-opacity:1"
       transform="matrix(0.13333333,0,0,-0.13333333,0,37.666667)"
       clip-path="url(#clipPath16)" />
  </g>
</svg>
