<?xml version="1.0" encoding="UTF-8" standalone="no"?>
<!-- Created with Inkscape (http://www.inkscape.org/) -->

<svg
   version="1.1"
   id="svg1"
   width="48.866669"
   height="33.119999"
   viewBox="0 0 48.866669 33.119999"
   sodipodi:docname="microwebserver.eps"
   xmlns:inkscape="http://www.inkscape.org/namespaces/inkscape"
   xmlns:sodipodi="http://sodipodi.sourceforge.net/DTD/sodipodi-0.dtd"
   xmlns="http://www.w3.org/2000/svg"
   xmlns:svg="http://www.w3.org/2000/svg">
  <defs
     id="defs1" />
  <sodipodi:namedview
     id="namedview1"
     pagecolor="#505050"
     bordercolor="#eeeeee"
     borderopacity="1"
     inkscape:showpageshadow="0"
     inkscape:pageopacity="0"
     inkscape:pagecheckerboard="0"
     inkscape:deskcolor="#d1d1d1">
    <inkscape:page
       x="0"
       y="0"
       inkscape:label="1"
       id="page1"
       width="48.866669"
       height="33.119999"
       margin="0"
       bleed="0" />
  </sodipodi:namedview>
  <g
     id="g1"
     inkscape:groupmode="layer"
     inkscape:label="1">
    <path
       id="path1"
       d="m 364.734,175.84 c 0,-38.945 -81.199,-70.527 -181.367,-70.527 C 83.1953,105.313 2,136.895 2,175.84 V 72.5273 C 2,33.5742 83.1953,1.99219 183.367,1.99219 c 100.168,0 181.367,31.58201 181.367,70.53511 V 175.84"
       style="fill:#026c9b;fill-opacity:1;fill-rule:nonzero;stroke:none"
       transform="matrix(0.13333333,0,0,-0.13333333,0,33.12)" />
    <path
       id="path2"
       d="m 364.734,175.84 c 0,-38.945 -81.199,-70.527 -181.367,-70.527 C 83.1953,105.313 2,136.895 2,175.84 V 72.5273 C 2,33.5742 83.1953,1.99219 183.367,1.99219 c 100.168,0 181.367,31.58201 181.367,70.53511 z"
       style="fill:none;stroke:#ffffff;stroke-width:4;stroke-linecap:butt;stroke-linejoin:miter;stroke-miterlimit:4;stroke-dasharray:none;stroke-opacity:1"
       transform="matrix(0.13333333,0,0,-0.13333333,0,33.12)" />
    <path
       id="path3"
       d="m 364.734,175.84 c 0,-38.945 -81.199,-70.527 -181.367,-70.527 C 83.1953,105.313 2,136.895 2,175.84 V 72.5273 C 2,33.5742 83.1953,1.99219 183.367,1.99219 c 100.168,0 181.367,31.58201 181.367,70.53511 V 175.84"
       style="fill:#026c9b;fill-opacity:1;fill-rule:nonzero;stroke:none"
       transform="matrix(0.13333333,0,0,-0.13333333,0,33.12)" />
    <path
       id="path4"
       d="m 364.734,175.84 c 0,-38.945 -81.199,-70.527 -181.367,-70.527 C 83.1953,105.313 2,136.895 2,175.84 V 72.5273 C 2,33.5742 83.1953,1.99219 183.367,1.99219 c 100.168,0 181.367,31.58201 181.367,70.53511 z"
       style="fill:none;stroke:#ffffff;stroke-width:4;stroke-linecap:butt;stroke-linejoin:miter;stroke-miterlimit:4;stroke-dasharray:none;stroke-opacity:1"
       transform="matrix(0.13333333,0,0,-0.13333333,0,33.12)" />
    <path
       id="path5"
       d="m 183.367,105.313 c 100.168,0 181.367,31.582 181.367,70.527 0,38.953 -81.199,70.535 -181.367,70.535 C 83.1953,246.375 2,214.793 2,175.84 2,136.895 83.1953,105.313 183.367,105.313"
       style="fill:#026c9b;fill-opacity:1;fill-rule:nonzero;stroke:#ffffff;stroke-width:4;stroke-linecap:butt;stroke-linejoin:miter;stroke-miterlimit:4;stroke-dasharray:none;stroke-opacity:1"
       transform="matrix(0.13333333,0,0,-0.13333333,0,33.12)" />
    <path
       id="path6"
       d="m 265.945,154.707 39.563,-14.57 -39.363,-18.535 -0.071,11.132 -197.2342,0.262 -0.4492,14.797 197.4764,0.437 0.078,6.477"
       style="fill:#026c9b;fill-opacity:1;fill-rule:nonzero;stroke:none"
       transform="matrix(0.13333333,0,0,-0.13333333,0,33.12)" />
    <path
       id="path7"
       d="m 108.047,195.41 h 9.016 c 5.171,-22.129 5.679,-24.941 6.414,-29.562 h 0.109 c 0.738,4.218 1.355,8.332 5.633,29.562 h 8.957 c 4.722,-22.187 5.113,-24.328 6.012,-29.562 h 0.121 c 0.679,3.828 1.343,7.316 6.589,29.562 h 8.555 l -11.379,-40.43 h -8.101 c -4.16,19.825 -4.907,23.758 -6.25,31.532 h -0.11 c -1.242,-7.774 -1.925,-10.703 -6.25,-31.532 h -7.883 l -11.433,40.43"
       style="fill:#ffffff;fill-opacity:1;fill-rule:nonzero;stroke:none"
       transform="matrix(0.13333333,0,0,-0.13333333,0,33.12)" />
    <path
       id="path8"
       d="m 161.16,195.41 h 9.016 c 5.176,-22.129 5.683,-24.941 6.418,-29.562 h 0.117 c 0.723,4.218 1.348,8.332 5.625,29.562 h 8.953 c 4.727,-22.187 5.125,-24.328 6.024,-29.562 h 0.121 c 0.664,3.828 1.343,7.316 6.582,29.562 h 8.55 l -11.367,-40.43 h -8.101 c -4.184,19.825 -4.907,23.758 -6.25,31.532 h -0.118 c -1.242,-7.774 -1.917,-10.703 -6.25,-31.532 h -7.882 l -11.438,40.43"
       style="fill:#ffffff;fill-opacity:1;fill-rule:nonzero;stroke:none"
       transform="matrix(0.13333333,0,0,-0.13333333,0,33.12)" />
    <path
       id="path9"
       d="m 214.285,195.41 h 9.004 c 5.18,-22.129 5.688,-24.941 6.43,-29.562 h 0.105 c 0.735,4.218 1.348,8.332 5.637,29.562 h 8.941 c 4.731,-22.187 5.129,-24.328 6.028,-29.562 h 0.105 c 0.688,3.828 1.36,7.316 6.594,29.562 h 8.562 l -11.375,-40.43 h -8.117 c -4.16,19.825 -4.89,23.758 -6.25,31.532 h -0.105 c -1.239,-7.774 -1.914,-10.703 -6.25,-31.532 h -7.879 l -11.43,40.43"
       style="fill:#ffffff;fill-opacity:1;fill-rule:nonzero;stroke:none"
       transform="matrix(0.13333333,0,0,-0.13333333,0,33.12)" />
  </g>
</svg>
