<?xml version="1.0" encoding="UTF-8" standalone="no"?>
<!-- Created with Inkscape (http://www.inkscape.org/) -->

<svg
   version="1.1"
   id="svg1"
   width="28.360001"
   height="40.546665"
   viewBox="0 0 28.360001 40.546665"
   sodipodi:docname="moh server.eps"
   xmlns:inkscape="http://www.inkscape.org/namespaces/inkscape"
   xmlns:sodipodi="http://sodipodi.sourceforge.net/DTD/sodipodi-0.dtd"
   xmlns="http://www.w3.org/2000/svg"
   xmlns:svg="http://www.w3.org/2000/svg">
  <defs
     id="defs1">
    <clipPath
       clipPathUnits="userSpaceOnUse"
       id="clipPath2">
      <path
         d="M 0,4 V 304 H 210 V 4 Z"
         id="path2" />
    </clipPath>
    <clipPath
       clipPathUnits="userSpaceOnUse"
       id="clipPath4">
      <path
         d="M 0,4 V 304 H 210 V 4 Z"
         id="path4" />
    </clipPath>
    <clipPath
       clipPathUnits="userSpaceOnUse"
       id="clipPath6">
      <path
         d="M 0,4 V 304 H 210 V 4 Z"
         id="path6" />
    </clipPath>
    <clipPath
       clipPathUnits="userSpaceOnUse"
       id="clipPath8">
      <path
         d="M 0,4 V 304 H 210 V 4 Z"
         id="path8" />
    </clipPath>
    <clipPath
       clipPathUnits="userSpaceOnUse"
       id="clipPath10">
      <path
         d="M 0,4 V 304 H 210 V 4 Z"
         id="path10" />
    </clipPath>
    <clipPath
       clipPathUnits="userSpaceOnUse"
       id="clipPath12">
      <path
         d="M 0,4 V 304 H 210 V 4 Z"
         id="path12" />
    </clipPath>
    <clipPath
       clipPathUnits="userSpaceOnUse"
       id="clipPath14">
      <path
         d="M 0,4 V 304 H 210 V 4 Z"
         id="path14" />
    </clipPath>
    <clipPath
       clipPathUnits="userSpaceOnUse"
       id="clipPath16">
      <path
         d="M 0,4 V 304 H 210 V 4 Z"
         id="path16" />
    </clipPath>
    <clipPath
       clipPathUnits="userSpaceOnUse"
       id="clipPath18">
      <path
         d="M 0,4 V 304 H 210 V 4 Z"
         id="path18" />
    </clipPath>
    <clipPath
       clipPathUnits="userSpaceOnUse"
       id="clipPath20">
      <path
         d="M 0,4 V 304 H 210 V 4 Z"
         id="path20" />
    </clipPath>
    <clipPath
       clipPathUnits="userSpaceOnUse"
       id="clipPath22">
      <path
         d="M 0,4 V 304 H 210 V 4 Z"
         id="path22" />
    </clipPath>
    <clipPath
       clipPathUnits="userSpaceOnUse"
       id="clipPath24">
      <path
         d="M 0,4 V 304 H 210 V 4 Z"
         id="path24" />
    </clipPath>
    <clipPath
       clipPathUnits="userSpaceOnUse"
       id="clipPath26">
      <path
         d="M 0,4 V 304 H 210 V 4 Z"
         id="path26" />
    </clipPath>
    <clipPath
       clipPathUnits="userSpaceOnUse"
       id="clipPath28">
      <path
         d="M 0,4 V 304 H 210 V 4 Z"
         id="path28" />
    </clipPath>
    <clipPath
       clipPathUnits="userSpaceOnUse"
       id="clipPath30">
      <path
         d="M 0,4 V 304 H 210 V 4 Z"
         id="path30" />
    </clipPath>
  </defs>
  <sodipodi:namedview
     id="namedview1"
     pagecolor="#505050"
     bordercolor="#eeeeee"
     borderopacity="1"
     inkscape:showpageshadow="0"
     inkscape:pageopacity="0"
     inkscape:pagecheckerboard="0"
     inkscape:deskcolor="#d1d1d1">
    <inkscape:page
       x="0"
       y="0"
       inkscape:label="1"
       id="page1"
       width="28.360001"
       height="40.546665"
       margin="0"
       bleed="0" />
  </sodipodi:namedview>
  <g
     id="g1"
     inkscape:groupmode="layer"
     inkscape:label="1">
    <path
       id="path1"
       d="m 4.82813,4.82813 h 153.867 v 245.273 H 4.82813 Z"
       style="fill:#02709f;fill-opacity:1;fill-rule:nonzero;stroke:none"
       transform="matrix(0.13333333,0,0,-0.13333333,0,40.546667)"
       clip-path="url(#clipPath2)" />
    <path
       id="path3"
       d="M 158.695,250.102 H 4.82813 V 4.82813 H 158.695"
       style="fill:none;stroke:#ffffff;stroke-width:3.99994;stroke-linecap:butt;stroke-linejoin:miter;stroke-miterlimit:4;stroke-dasharray:none;stroke-opacity:1"
       transform="matrix(0.13333333,0,0,-0.13333333,0,40.546667)"
       clip-path="url(#clipPath4)" />
    <path
       id="path5"
       d="M 207.855,299.242 H 53.9688 L 4.82813,250.102 H 158.695 l 49.16,49.14"
       style="fill:#02709f;fill-opacity:1;fill-rule:nonzero;stroke:none"
       transform="matrix(0.13333333,0,0,-0.13333333,0,40.546667)"
       clip-path="url(#clipPath6)" />
    <path
       id="path7"
       d="M 207.855,299.242 H 53.9688 L 4.82813,250.102 H 158.695 Z"
       style="fill:none;stroke:#ffffff;stroke-width:3.99994;stroke-linecap:butt;stroke-linejoin:miter;stroke-miterlimit:4;stroke-dasharray:none;stroke-opacity:1"
       transform="matrix(0.13333333,0,0,-0.13333333,0,40.546667)"
       clip-path="url(#clipPath8)" />
    <path
       id="path9"
       d="M 158.695,250.102 V 4.82813 l 49.16,49.14067 V 299.242 l -49.16,-49.14"
       style="fill:#02709f;fill-opacity:1;fill-rule:nonzero;stroke:none"
       transform="matrix(0.13333333,0,0,-0.13333333,0,40.546667)"
       clip-path="url(#clipPath10)" />
    <path
       id="path11"
       d="M 158.695,250.102 V 4.82813 l 49.16,49.14067 V 299.242 Z"
       style="fill:none;stroke:#ffffff;stroke-width:3.99994;stroke-linecap:butt;stroke-linejoin:miter;stroke-miterlimit:4;stroke-dasharray:none;stroke-opacity:1"
       transform="matrix(0.13333333,0,0,-0.13333333,0,40.546667)"
       clip-path="url(#clipPath12)" />
    <path
       id="path13"
       d="m 158.695,250.102 49.16,49.14"
       style="fill:#02709f;fill-opacity:1;fill-rule:nonzero;stroke:#ffffff;stroke-width:3.99994;stroke-linecap:butt;stroke-linejoin:miter;stroke-miterlimit:4;stroke-dasharray:none;stroke-opacity:1"
       transform="matrix(0.13333333,0,0,-0.13333333,0,40.546667)"
       clip-path="url(#clipPath14)" />
    <path
       id="path15"
       d="M 7.30859,154.469 H 157.309"
       style="fill:none;stroke:#ffffff;stroke-width:3.99994;stroke-linecap:butt;stroke-linejoin:miter;stroke-miterlimit:4;stroke-dasharray:none;stroke-opacity:1"
       transform="matrix(0.13333333,0,0,-0.13333333,0,40.546667)"
       clip-path="url(#clipPath16)" />
    <path
       id="path17"
       d="M 7.30859,41.9688 H 157.309"
       style="fill:none;stroke:#ffffff;stroke-width:3.99994;stroke-linecap:butt;stroke-linejoin:miter;stroke-miterlimit:4;stroke-dasharray:none;stroke-opacity:1"
       transform="matrix(0.13333333,0,0,-0.13333333,0,40.546667)"
       clip-path="url(#clipPath18)" />
    <path
       id="path19"
       d="m 42.3086,212.105 h 43.75"
       style="fill:none;stroke:#ffffff;stroke-width:3.99994;stroke-linecap:butt;stroke-linejoin:miter;stroke-miterlimit:4;stroke-dasharray:none;stroke-opacity:1"
       transform="matrix(0.13333333,0,0,-0.13333333,0,40.546667)"
       clip-path="url(#clipPath20)" />
    <path
       id="path21"
       d="m 102.309,196.996 v 31.359 H 24.8086 v -31.359 z"
       style="fill:none;stroke:#ffffff;stroke-width:3.99994;stroke-linecap:butt;stroke-linejoin:miter;stroke-miterlimit:4;stroke-dasharray:none;stroke-opacity:1"
       transform="matrix(0.13333333,0,0,-0.13333333,0,40.546667)"
       clip-path="url(#clipPath22)" />
    <path
       id="path23"
       d="m 56.1758,47.8945 -3.2617,113.7505 82.8709,31.699 1.641,-129.1995 h -4.883 L 126.859,137.27 60.2383,113.707 v -65 l -4.0625,-0.8125"
       style="fill:#ffffff;fill-opacity:1;fill-rule:nonzero;stroke:none"
       transform="matrix(0.13333333,0,0,-0.13333333,0,40.546667)"
       clip-path="url(#clipPath24)" />
    <path
       id="path25"
       d="m 136.977,61.4414 c 0.468,-7.8437 -9.141,-14.7851 -21.446,-15.5195 -12.324,-0.7305 -22.6951,5.0195 -23.1638,12.8633 -0.4688,7.8398 9.1408,14.7851 21.4648,15.5156 12.324,0.7422 22.676,-5.0195 23.145,-12.8594"
       style="fill:#ffffff;fill-opacity:1;fill-rule:nonzero;stroke:none"
       transform="matrix(0.13333333,0,0,-0.13333333,0,40.546667)"
       clip-path="url(#clipPath26)" />
    <path
       id="path27"
       d="M 60.1602,44.3789 C 60.6289,36.5391 51.0195,29.5938 38.6953,28.8516 26.3711,28.1211 16.0195,33.8828 15.5508,41.7227 c -0.4688,7.832 9.1406,14.7851 21.4648,15.5195 12.3047,0.7422 22.6758,-5.0195 23.1446,-12.8633"
       style="fill:#ffffff;fill-opacity:1;fill-rule:nonzero;stroke:none"
       transform="matrix(0.13333333,0,0,-0.13333333,0,40.546667)"
       clip-path="url(#clipPath28)" />
    <path
       id="path29"
       d="M 125.766,148.98 62.3867,127.047 v 12.187 l 63.3793,21.934 V 148.98"
       style="fill:#7f7f7f;fill-opacity:1;fill-rule:nonzero;stroke:none"
       transform="matrix(0.13333333,0,0,-0.13333333,0,40.546667)"
       clip-path="url(#clipPath30)" />
  </g>
</svg>
