<?xml version="1.0" encoding="UTF-8" standalone="no"?>
<!-- Created with Inkscape (http://www.inkscape.org/) -->

<svg
   version="1.1"
   id="svg1"
   width="23.68"
   height="63.946667"
   viewBox="0 0 23.68 63.946667"
   sodipodi:docname="radio tower.eps"
   xmlns:inkscape="http://www.inkscape.org/namespaces/inkscape"
   xmlns:sodipodi="http://sodipodi.sourceforge.net/DTD/sodipodi-0.dtd"
   xmlns="http://www.w3.org/2000/svg"
   xmlns:svg="http://www.w3.org/2000/svg">
  <defs
     id="defs1">
    <clipPath
       clipPathUnits="userSpaceOnUse"
       id="clipPath8">
      <path
         d="m 131.871,444.238 5.195,6.367 h 3.575 v -33.457 h 21.504 l 1.992,-1.992 h 1.992 l 3.379,3.387 c 3.398,1.398 5.39,-4.98 5.39,-4.98 v -2.383 c 0,0 -1.992,-6.375 -5.39,-4.989 l -3.379,3.387 h -1.992 l -1.992,-1.98 h -21.504 v -33.465 h -3.575 l -5.195,6.375 v 63.73"
         id="path8" />
    </clipPath>
    <linearGradient
       x1="0"
       y1="0"
       x2="1"
       y2="0"
       gradientUnits="userSpaceOnUse"
       gradientTransform="matrix(43.0274,0,0,-116.475,133.433,470.605)"
       spreadMethod="pad"
       id="linearGradient10">
      <stop
         style="stop-opacity:1;stop-color:#333333"
         offset="0"
         id="stop9" />
      <stop
         style="stop-opacity:1;stop-color:#ffffff"
         offset="1"
         id="stop10" />
    </linearGradient>
    <clipPath
       clipPathUnits="userSpaceOnUse"
       id="clipPath10">
      <path
         d="m 131.871,444.238 5.195,6.367 h 3.575 v -33.457 h 21.504 l 1.992,-1.992 h 1.992 l 3.379,3.387 c 3.398,1.398 5.39,-4.98 5.39,-4.98 v -2.383 c 0,0 -1.992,-6.375 -5.39,-4.989 l -3.379,3.387 h -1.992 l -1.992,-1.98 h -21.504 v -33.465 h -3.575 l -5.195,6.375 v 63.73"
         id="path10" />
    </clipPath>
    <clipPath
       clipPathUnits="userSpaceOnUse"
       id="clipPath15">
      <path
         d="m 131.871,444.238 5.195,6.367 h 3.575 v -33.457 h 21.504 l 1.992,-1.992 h 1.992 l 3.379,3.387 c 3.398,1.398 5.39,-4.98 5.39,-4.98 v -2.383 c 0,0 -1.992,-6.375 -5.39,-4.989 l -3.379,3.387 h -1.992 l -1.992,-1.98 h -21.504 v -33.465 h -3.575 l -5.195,6.375 v 63.73"
         id="path15" />
    </clipPath>
    <linearGradient
       x1="0"
       y1="0"
       x2="1"
       y2="0"
       gradientUnits="userSpaceOnUse"
       gradientTransform="matrix(43.0274,0,0,-116.475,133.433,470.605)"
       spreadMethod="pad"
       id="linearGradient17">
      <stop
         style="stop-opacity:1;stop-color:#333333"
         offset="0"
         id="stop16" />
      <stop
         style="stop-opacity:1;stop-color:#ffffff"
         offset="1"
         id="stop17" />
    </linearGradient>
    <clipPath
       clipPathUnits="userSpaceOnUse"
       id="clipPath17">
      <path
         d="m 131.871,444.238 5.195,6.367 h 3.575 v -33.457 h 21.504 l 1.992,-1.992 h 1.992 l 3.379,3.387 c 3.398,1.398 5.39,-4.98 5.39,-4.98 v -2.383 c 0,0 -1.992,-6.375 -5.39,-4.989 l -3.379,3.387 h -1.992 l -1.992,-1.98 h -21.504 v -33.465 h -3.575 l -5.195,6.375 v 63.73"
         id="path17" />
    </clipPath>
    <clipPath
       clipPathUnits="userSpaceOnUse"
       id="clipPath22">
      <path
         d="m 131.871,340.984 5.195,6.379 h 3.575 v -33.468 h 21.504 l 1.992,-1.993 h 1.992 l 3.379,3.399 c 3.398,1.387 5.39,-4.988 5.39,-4.988 v -2.383 c 0,0 -1.992,-6.379 -5.39,-4.981 l -3.379,3.391 h -1.992 l -1.992,-1.996 h -21.504 v -33.457 h -3.575 l -5.195,6.371 v 63.726"
         id="path22" />
    </clipPath>
    <linearGradient
       x1="0"
       y1="0"
       x2="1"
       y2="0"
       gradientUnits="userSpaceOnUse"
       gradientTransform="matrix(43.0274,0,0,-116.475,133.433,367.363)"
       spreadMethod="pad"
       id="linearGradient24">
      <stop
         style="stop-opacity:1;stop-color:#333333"
         offset="0"
         id="stop23" />
      <stop
         style="stop-opacity:1;stop-color:#ffffff"
         offset="1"
         id="stop24" />
    </linearGradient>
    <clipPath
       clipPathUnits="userSpaceOnUse"
       id="clipPath24">
      <path
         d="m 131.871,340.984 5.195,6.379 h 3.575 v -33.468 h 21.504 l 1.992,-1.993 h 1.992 l 3.379,3.399 c 3.398,1.387 5.39,-4.988 5.39,-4.988 v -2.383 c 0,0 -1.992,-6.379 -5.39,-4.981 l -3.379,3.391 h -1.992 l -1.992,-1.996 h -21.504 v -33.457 h -3.575 l -5.195,6.371 v 63.726"
         id="path24" />
    </clipPath>
    <clipPath
       clipPathUnits="userSpaceOnUse"
       id="clipPath29">
      <path
         d="m 131.871,340.984 5.195,6.379 h 3.575 v -33.468 h 21.504 l 1.992,-1.993 h 1.992 l 3.379,3.399 c 3.398,1.387 5.39,-4.988 5.39,-4.988 v -2.383 c 0,0 -1.992,-6.379 -5.39,-4.981 l -3.379,3.391 h -1.992 l -1.992,-1.996 h -21.504 v -33.457 h -3.575 l -5.195,6.371 v 63.726"
         id="path29" />
    </clipPath>
    <linearGradient
       x1="0"
       y1="0"
       x2="1"
       y2="0"
       gradientUnits="userSpaceOnUse"
       gradientTransform="matrix(43.0274,0,0,-116.475,133.433,367.363)"
       spreadMethod="pad"
       id="linearGradient31">
      <stop
         style="stop-opacity:1;stop-color:#333333"
         offset="0"
         id="stop30" />
      <stop
         style="stop-opacity:1;stop-color:#ffffff"
         offset="1"
         id="stop31" />
    </linearGradient>
    <clipPath
       clipPathUnits="userSpaceOnUse"
       id="clipPath31">
      <path
         d="m 131.871,340.984 5.195,6.379 h 3.575 v -33.468 h 21.504 l 1.992,-1.993 h 1.992 l 3.379,3.399 c 3.398,1.387 5.39,-4.988 5.39,-4.988 v -2.383 c 0,0 -1.992,-6.379 -5.39,-4.981 l -3.379,3.391 h -1.992 l -1.992,-1.996 h -21.504 v -33.457 h -3.575 l -5.195,6.371 v 63.726"
         id="path31" />
    </clipPath>
  </defs>
  <sodipodi:namedview
     id="namedview1"
     pagecolor="#505050"
     bordercolor="#eeeeee"
     borderopacity="1"
     inkscape:showpageshadow="0"
     inkscape:pageopacity="0"
     inkscape:pagecheckerboard="0"
     inkscape:deskcolor="#d1d1d1">
    <inkscape:page
       x="0"
       y="0"
       inkscape:label="1"
       id="page1"
       width="23.68"
       height="63.946667"
       margin="0"
       bleed="0" />
  </sodipodi:namedview>
  <g
     id="g1"
     inkscape:groupmode="layer"
     inkscape:label="1">
    <path
       id="path1"
       d="m 45.5352,225.82 h 62.9961 V 449.824 H 45.5352 Z"
       style="fill:#ffffff;fill-opacity:1;fill-rule:nonzero;stroke:none"
       transform="matrix(0.13333333,0,0,-0.13333333,0,63.946667)" />
    <path
       id="path2"
       d="M 108.531,225.82 H 45.5352 v 224.004 h 62.9958 z"
       style="fill:none;stroke:#02709f;stroke-width:8.00003;stroke-linecap:butt;stroke-linejoin:miter;stroke-miterlimit:1;stroke-dasharray:none;stroke-opacity:1"
       transform="matrix(0.13333333,0,0,-0.13333333,0,63.946667)" />
    <path
       id="path3"
       d="M 3.97656,3.57422 45.5352,227.566 H 108.531 L 145.719,3.57422"
       style="fill:#ffffff;fill-opacity:1;fill-rule:nonzero;stroke:#02709f;stroke-width:8.00003;stroke-linecap:butt;stroke-linejoin:miter;stroke-miterlimit:1;stroke-dasharray:none;stroke-opacity:1"
       transform="matrix(0.13333333,0,0,-0.13333333,0,63.946667)" />
    <path
       id="path4"
       d="M 1.78906,3.57422 131.285,68.3203 26.2891,127.82 l 87.4959,54.25 -64.7537,43.75 57.7617,77 -59.5078,49.004 61.2458,54.25 -62.9958,42"
       style="fill:none;stroke:#02709f;stroke-width:8.00003;stroke-linecap:butt;stroke-linejoin:miter;stroke-miterlimit:1;stroke-dasharray:none;stroke-opacity:1"
       transform="matrix(0.13333333,0,0,-0.13333333,0,63.946667)" />
    <path
       id="path5"
       d="M 146.773,3.57422 21.7969,68.3203 126.793,127.82 l -87.4961,54.25 64.7461,43.75 -57.7461,77 59.5001,49.004 -61.2462,54.25 63.0042,42"
       style="fill:none;stroke:#02709f;stroke-width:8.00003;stroke-linecap:butt;stroke-linejoin:miter;stroke-miterlimit:1;stroke-dasharray:none;stroke-opacity:1"
       transform="matrix(0.13333333,0,0,-0.13333333,0,63.946667)" />
    <path
       id="path6"
       d="M 104.797,449.824 H 47.0391 l 14.4062,27.91 h 28.3008 z"
       style="fill:none;stroke:#02709f;stroke-width:8.00003;stroke-linecap:butt;stroke-linejoin:miter;stroke-miterlimit:1;stroke-dasharray:none;stroke-opacity:1"
       transform="matrix(0.13333333,0,0,-0.13333333,0,63.946667)" />
    <path
       id="path7"
       d="m 131.871,444.238 5.195,6.367 h 3.575 v -33.457 h 21.504 l 1.992,-1.992 h 1.992 l 3.379,3.387 c 3.398,1.398 5.39,-4.98 5.39,-4.98 v -2.383 c 0,0 -1.992,-6.375 -5.39,-4.989 l -3.379,3.387 h -1.992 l -1.992,-1.98 h -21.504 v -33.465 h -3.575 l -5.195,6.375 v 63.73"
       style="fill:#333333;fill-opacity:1;fill-rule:nonzero;stroke:none"
       transform="matrix(0.13333333,0,0,-0.13333333,0,63.946667)"
       clip-path="url(#clipPath8)" />
    <path
       id="path9"
       d="m 131.871,444.238 5.195,6.367 h 3.575 v -33.457 h 21.504 l 1.992,-1.992 h 1.992 l 3.379,3.387 c 3.398,1.398 5.39,-4.98 5.39,-4.98 v -2.383 c 0,0 -1.992,-6.375 -5.39,-4.989 l -3.379,3.387 h -1.992 l -1.992,-1.98 h -21.504 v -33.465 h -3.575 l -5.195,6.375 v 63.73"
       style="fill:url(#linearGradient10);fill-opacity:1;fill-rule:nonzero;stroke:none"
       transform="matrix(0.13333333,0,0,-0.13333333,0,63.946667)"
       clip-path="url(#clipPath10)" />
    <path
       id="path11"
       d="m 131.871,444.238 5.195,6.367 h 3.575 v -33.457 h 21.504 l 1.992,-1.992 h 1.992 l 3.379,3.387 c 3.398,1.398 5.39,-4.98 5.39,-4.98 v -2.383 c 0,0 -1.992,-6.375 -5.39,-4.989 l -3.379,3.387 h -1.992 l -1.992,-1.98 h -21.504 v -33.465 h -3.575 l -5.195,6.375 z"
       style="fill:none;stroke:#000000;stroke-width:8.00003;stroke-linecap:butt;stroke-linejoin:miter;stroke-miterlimit:1;stroke-dasharray:none;stroke-opacity:1"
       transform="matrix(0.13333333,0,0,-0.13333333,0,63.946667)" />
    <path
       id="path12"
       d="m 131.871,380.508 h -11.152 c -5.977,6.777 -5.176,20.711 -5.176,20.711 h -11.551 v 9.551 3.195 9.558 h 11.551 c 0,0 -0.801,13.938 5.176,20.715 h 11.152 v -63.73"
       style="fill:#b2b2b2;fill-opacity:1;fill-rule:nonzero;stroke:none"
       transform="matrix(0.13333333,0,0,-0.13333333,0,63.946667)" />
    <path
       id="path13"
       d="m 131.871,380.508 h -11.152 c -5.977,6.777 -5.176,20.711 -5.176,20.711 h -11.551 v 9.551 3.195 9.558 h 11.551 c 0,0 -0.801,13.938 5.176,20.715 h 11.152 z"
       style="fill:none;stroke:#000000;stroke-width:8.00003;stroke-linecap:butt;stroke-linejoin:miter;stroke-miterlimit:1;stroke-dasharray:none;stroke-opacity:1"
       transform="matrix(0.13333333,0,0,-0.13333333,0,63.946667)" />
    <path
       id="path14"
       d="m 131.871,444.238 5.195,6.367 h 3.575 v -33.457 h 21.504 l 1.992,-1.992 h 1.992 l 3.379,3.387 c 3.398,1.398 5.39,-4.98 5.39,-4.98 v -2.383 c 0,0 -1.992,-6.375 -5.39,-4.989 l -3.379,3.387 h -1.992 l -1.992,-1.98 h -21.504 v -33.465 h -3.575 l -5.195,6.375 v 63.73"
       style="fill:#333333;fill-opacity:1;fill-rule:nonzero;stroke:none"
       transform="matrix(0.13333333,0,0,-0.13333333,0,63.946667)"
       clip-path="url(#clipPath15)" />
    <path
       id="path16"
       d="m 131.871,444.238 5.195,6.367 h 3.575 v -33.457 h 21.504 l 1.992,-1.992 h 1.992 l 3.379,3.387 c 3.398,1.398 5.39,-4.98 5.39,-4.98 v -2.383 c 0,0 -1.992,-6.375 -5.39,-4.989 l -3.379,3.387 h -1.992 l -1.992,-1.98 h -21.504 v -33.465 h -3.575 l -5.195,6.375 v 63.73"
       style="fill:url(#linearGradient17);fill-opacity:1;fill-rule:nonzero;stroke:none"
       transform="matrix(0.13333333,0,0,-0.13333333,0,63.946667)"
       clip-path="url(#clipPath17)" />
    <path
       id="path18"
       d="m 131.871,444.238 5.195,6.367 h 3.575 v -33.457 h 21.504 l 1.992,-1.992 h 1.992 l 3.379,3.387 c 3.398,1.398 5.39,-4.98 5.39,-4.98 v -2.383 c 0,0 -1.992,-6.375 -5.39,-4.989 l -3.379,3.387 h -1.992 l -1.992,-1.98 h -21.504 v -33.465 h -3.575 l -5.195,6.375 z"
       style="fill:none;stroke:#02709f;stroke-width:8.00003;stroke-linecap:butt;stroke-linejoin:miter;stroke-miterlimit:1;stroke-dasharray:none;stroke-opacity:1"
       transform="matrix(0.13333333,0,0,-0.13333333,0,63.946667)" />
    <path
       id="path19"
       d="m 131.871,380.508 h -11.152 c -5.977,6.777 -5.176,20.711 -5.176,20.711 h -11.551 v 9.551 3.195 9.558 h 11.551 c 0,0 -0.801,13.938 5.176,20.715 h 11.152 v -63.73"
       style="fill:#b2b2b2;fill-opacity:1;fill-rule:nonzero;stroke:none"
       transform="matrix(0.13333333,0,0,-0.13333333,0,63.946667)" />
    <path
       id="path20"
       d="m 131.871,380.508 h -11.152 c -5.977,6.777 -5.176,20.711 -5.176,20.711 h -11.551 v 9.551 3.195 9.558 h 11.551 c 0,0 -0.801,13.938 5.176,20.715 h 11.152 z"
       style="fill:none;stroke:#02709f;stroke-width:8.00003;stroke-linecap:butt;stroke-linejoin:miter;stroke-miterlimit:1;stroke-dasharray:none;stroke-opacity:1"
       transform="matrix(0.13333333,0,0,-0.13333333,0,63.946667)" />
    <path
       id="path21"
       d="m 131.871,340.984 5.195,6.379 h 3.575 v -33.468 h 21.504 l 1.992,-1.993 h 1.992 l 3.379,3.399 c 3.398,1.387 5.39,-4.988 5.39,-4.988 v -2.383 c 0,0 -1.992,-6.379 -5.39,-4.981 l -3.379,3.391 h -1.992 l -1.992,-1.996 h -21.504 v -33.457 h -3.575 l -5.195,6.371 v 63.726"
       style="fill:#333333;fill-opacity:1;fill-rule:nonzero;stroke:none"
       transform="matrix(0.13333333,0,0,-0.13333333,0,63.946667)"
       clip-path="url(#clipPath22)" />
    <path
       id="path23"
       d="m 131.871,340.984 5.195,6.379 h 3.575 v -33.468 h 21.504 l 1.992,-1.993 h 1.992 l 3.379,3.399 c 3.398,1.387 5.39,-4.988 5.39,-4.988 v -2.383 c 0,0 -1.992,-6.379 -5.39,-4.981 l -3.379,3.391 h -1.992 l -1.992,-1.996 h -21.504 v -33.457 h -3.575 l -5.195,6.371 v 63.726"
       style="fill:url(#linearGradient24);fill-opacity:1;fill-rule:nonzero;stroke:none"
       transform="matrix(0.13333333,0,0,-0.13333333,0,63.946667)"
       clip-path="url(#clipPath24)" />
    <path
       id="path25"
       d="m 131.871,340.984 5.195,6.379 h 3.575 v -33.468 h 21.504 l 1.992,-1.993 h 1.992 l 3.379,3.399 c 3.398,1.387 5.39,-4.988 5.39,-4.988 v -2.383 c 0,0 -1.992,-6.379 -5.39,-4.981 l -3.379,3.391 h -1.992 l -1.992,-1.996 h -21.504 v -33.457 h -3.575 l -5.195,6.371 z"
       style="fill:none;stroke:#000000;stroke-width:8.00003;stroke-linecap:butt;stroke-linejoin:miter;stroke-miterlimit:1;stroke-dasharray:none;stroke-opacity:1"
       transform="matrix(0.13333333,0,0,-0.13333333,0,63.946667)" />
    <path
       id="path26"
       d="m 131.871,277.258 h -11.152 c -5.977,6.773 -5.176,20.711 -5.176,20.711 h -11.551 v 9.558 3.188 9.558 h 11.551 c 0,0 -0.801,13.938 5.176,20.711 h 11.152 v -63.726"
       style="fill:#b2b2b2;fill-opacity:1;fill-rule:nonzero;stroke:none"
       transform="matrix(0.13333333,0,0,-0.13333333,0,63.946667)" />
    <path
       id="path27"
       d="m 131.871,277.258 h -11.152 c -5.977,6.773 -5.176,20.711 -5.176,20.711 h -11.551 v 9.558 3.188 9.558 h 11.551 c 0,0 -0.801,13.938 5.176,20.711 h 11.152 z"
       style="fill:none;stroke:#000000;stroke-width:8.00003;stroke-linecap:butt;stroke-linejoin:miter;stroke-miterlimit:1;stroke-dasharray:none;stroke-opacity:1"
       transform="matrix(0.13333333,0,0,-0.13333333,0,63.946667)" />
    <path
       id="path28"
       d="m 131.871,340.984 5.195,6.379 h 3.575 v -33.468 h 21.504 l 1.992,-1.993 h 1.992 l 3.379,3.399 c 3.398,1.387 5.39,-4.988 5.39,-4.988 v -2.383 c 0,0 -1.992,-6.379 -5.39,-4.981 l -3.379,3.391 h -1.992 l -1.992,-1.996 h -21.504 v -33.457 h -3.575 l -5.195,6.371 v 63.726"
       style="fill:#333333;fill-opacity:1;fill-rule:nonzero;stroke:none"
       transform="matrix(0.13333333,0,0,-0.13333333,0,63.946667)"
       clip-path="url(#clipPath29)" />
    <path
       id="path30"
       d="m 131.871,340.984 5.195,6.379 h 3.575 v -33.468 h 21.504 l 1.992,-1.993 h 1.992 l 3.379,3.399 c 3.398,1.387 5.39,-4.988 5.39,-4.988 v -2.383 c 0,0 -1.992,-6.379 -5.39,-4.981 l -3.379,3.391 h -1.992 l -1.992,-1.996 h -21.504 v -33.457 h -3.575 l -5.195,6.371 v 63.726"
       style="fill:url(#linearGradient31);fill-opacity:1;fill-rule:nonzero;stroke:none"
       transform="matrix(0.13333333,0,0,-0.13333333,0,63.946667)"
       clip-path="url(#clipPath31)" />
    <path
       id="path32"
       d="m 131.871,340.984 5.195,6.379 h 3.575 v -33.468 h 21.504 l 1.992,-1.993 h 1.992 l 3.379,3.399 c 3.398,1.387 5.39,-4.988 5.39,-4.988 v -2.383 c 0,0 -1.992,-6.379 -5.39,-4.981 l -3.379,3.391 h -1.992 l -1.992,-1.996 h -21.504 v -33.457 h -3.575 l -5.195,6.371 z"
       style="fill:none;stroke:#02709f;stroke-width:8.00003;stroke-linecap:butt;stroke-linejoin:miter;stroke-miterlimit:1;stroke-dasharray:none;stroke-opacity:1"
       transform="matrix(0.13333333,0,0,-0.13333333,0,63.946667)" />
    <path
       id="path33"
       d="m 131.871,277.258 h -11.152 c -5.977,6.773 -5.176,20.711 -5.176,20.711 h -11.551 v 9.558 3.188 9.558 h 11.551 c 0,0 -0.801,13.938 5.176,20.711 h 11.152 v -63.726"
       style="fill:#b2b2b2;fill-opacity:1;fill-rule:nonzero;stroke:none"
       transform="matrix(0.13333333,0,0,-0.13333333,0,63.946667)" />
    <path
       id="path34"
       d="m 131.871,277.258 h -11.152 c -5.977,6.773 -5.176,20.711 -5.176,20.711 h -11.551 v 9.558 3.188 9.558 h 11.551 c 0,0 -0.801,13.938 5.176,20.711 h 11.152 z"
       style="fill:none;stroke:#02709f;stroke-width:8.00003;stroke-linecap:butt;stroke-linejoin:miter;stroke-miterlimit:1;stroke-dasharray:none;stroke-opacity:1"
       transform="matrix(0.13333333,0,0,-0.13333333,0,63.946667)" />
  </g>
</svg>
