<?xml version="1.0" encoding="UTF-8" standalone="no"?>
<!-- Created with Inkscape (http://www.inkscape.org/) -->

<svg
   version="1.1"
   id="svg1"
   width="42.653332"
   height="49.32"
   viewBox="0 0 42.653332 49.32"
   sodipodi:docname="software based server.eps"
   xmlns:inkscape="http://www.inkscape.org/namespaces/inkscape"
   xmlns:sodipodi="http://sodipodi.sourceforge.net/DTD/sodipodi-0.dtd"
   xmlns="http://www.w3.org/2000/svg"
   xmlns:svg="http://www.w3.org/2000/svg">
  <defs
     id="defs1" />
  <sodipodi:namedview
     id="namedview1"
     pagecolor="#505050"
     bordercolor="#eeeeee"
     borderopacity="1"
     inkscape:showpageshadow="0"
     inkscape:pageopacity="0"
     inkscape:pagecheckerboard="0"
     inkscape:deskcolor="#d1d1d1">
    <inkscape:page
       x="0"
       y="0"
       inkscape:label="1"
       id="page1"
       width="42.653332"
       height="49.32"
       margin="0"
       bleed="0" />
  </sodipodi:namedview>
  <g
     id="g1"
     inkscape:groupmode="layer"
     inkscape:label="1">
    <path
       id="path1"
       d="m 4.82813,4.82422 h 153.879 v 245.125 H 4.82813 Z"
       style="fill:#036998;fill-opacity:1;fill-rule:nonzero;stroke:none"
       transform="matrix(0.13333333,0,0,-0.13333333,0,49.32)" />
    <path
       id="path2"
       d="M 158.707,249.949 H 4.82813 V 4.82422 H 158.707"
       style="fill:none;stroke:#ffffff;stroke-width:3.99994;stroke-linecap:butt;stroke-linejoin:miter;stroke-miterlimit:4;stroke-dasharray:none;stroke-opacity:1"
       transform="matrix(0.13333333,0,0,-0.13333333,0,49.32)" />
    <path
       id="path3"
       d="M 158.707,4.82422 207.855,53.9648 V 299.102 H 53.9688 L 4.82813,249.949 H 158.707 V 4.82422"
       style="fill:#036998;fill-opacity:1;fill-rule:nonzero;stroke:none"
       transform="matrix(0.13333333,0,0,-0.13333333,0,49.32)" />
    <path
       id="path4"
       d="M 158.707,4.82422 207.855,53.9648 V 299.102 H 53.9688 L 4.82813,249.949 H 158.707 Z"
       style="fill:none;stroke:#ffffff;stroke-width:3.99994;stroke-linecap:butt;stroke-linejoin:miter;stroke-miterlimit:4;stroke-dasharray:none;stroke-opacity:1"
       transform="matrix(0.13333333,0,0,-0.13333333,0,49.32)" />
    <path
       id="path5"
       d="m 158.707,249.949 49.148,49.153"
       style="fill:#000000;fill-opacity:1;fill-rule:nonzero;stroke:#ffffff;stroke-width:3.99994;stroke-linecap:butt;stroke-linejoin:miter;stroke-miterlimit:4;stroke-dasharray:none;stroke-opacity:1"
       transform="matrix(0.13333333,0,0,-0.13333333,0,49.32)" />
    <path
       id="path6"
       d="M 7.30859,154.465 H 157.309"
       style="fill:#036998;fill-opacity:1;fill-rule:nonzero;stroke:#ffffff;stroke-width:3.99994;stroke-linecap:butt;stroke-linejoin:miter;stroke-miterlimit:4;stroke-dasharray:none;stroke-opacity:1"
       transform="matrix(0.13333333,0,0,-0.13333333,0,49.32)" />
    <path
       id="path7"
       d="M 7.30859,41.9648 H 157.309"
       style="fill:#036998;fill-opacity:1;fill-rule:nonzero;stroke:#ffffff;stroke-width:3.99994;stroke-linecap:butt;stroke-linejoin:miter;stroke-miterlimit:4;stroke-dasharray:none;stroke-opacity:1"
       transform="matrix(0.13333333,0,0,-0.13333333,0,49.32)" />
    <path
       id="path8"
       d="m 42.3086,211.965 h 43.75"
       style="fill:#036998;fill-opacity:1;fill-rule:nonzero;stroke:#ffffff;stroke-width:3.99994;stroke-linecap:butt;stroke-linejoin:miter;stroke-miterlimit:4;stroke-dasharray:none;stroke-opacity:1"
       transform="matrix(0.13333333,0,0,-0.13333333,0,49.32)" />
    <path
       id="path9"
       d="m 24.8086,196.965 h 77.5 v 31.25 h -77.5 z"
       style="fill:#036998;fill-opacity:1;fill-rule:nonzero;stroke:none"
       transform="matrix(0.13333333,0,0,-0.13333333,0,49.32)" />
    <path
       id="path10"
       d="m 102.309,196.965 v 31.25 H 24.8086 v -31.25 z"
       style="fill:none;stroke:#ffffff;stroke-width:3.99994;stroke-linecap:butt;stroke-linejoin:miter;stroke-miterlimit:4;stroke-dasharray:none;stroke-opacity:1"
       transform="matrix(0.13333333,0,0,-0.13333333,0,49.32)" />
    <path
       id="path11"
       d="m 318.598,368.273 -5.02,-2.96 H 118.93 l 4.98,3.078 194.688,-0.118"
       style="fill:#036998;fill-opacity:1;fill-rule:nonzero;stroke:none"
       transform="matrix(0.13333333,0,0,-0.13333333,0,49.32)" />
    <path
       id="path12"
       d="m 318.637,175.305 -0.039,192.968 -5.02,-3.8 V 170.664 l 5.059,4.641"
       style="fill:#036998;fill-opacity:1;fill-rule:nonzero;stroke:none"
       transform="matrix(0.13333333,0,0,-0.13333333,0,49.32)" />
    <path
       id="path13"
       d="M 127.777,170.664 H 313.578 V 365.313 H 118.93 V 179.512 l 8.847,-8.848"
       style="fill:#036998;fill-opacity:1;fill-rule:nonzero;stroke:none"
       transform="matrix(0.13333333,0,0,-0.13333333,0,49.32)" />
    <path
       id="path14"
       d="M 127.777,170.664 H 313.578 V 365.313 H 118.93 V 179.512 Z"
       style="fill:none;stroke:#ffffff;stroke-width:3.99994;stroke-linecap:butt;stroke-linejoin:miter;stroke-miterlimit:4;stroke-dasharray:none;stroke-opacity:1"
       transform="matrix(0.13333333,0,0,-0.13333333,0,49.32)" />
    <path
       id="path15"
       d="M 298.832,365.313 V 253.027 c 0,-8.156 -6.641,-6.629 -6.641,-6.629 H 139.574 c 0,0 -5.898,-0.742 -5.898,5.899 v 113.016"
       style="fill:none;stroke:#ffffff;stroke-width:3.99994;stroke-linecap:butt;stroke-linejoin:miter;stroke-miterlimit:4;stroke-dasharray:none;stroke-opacity:1"
       transform="matrix(0.13333333,0,0,-0.13333333,0,49.32)" />
    <path
       id="path16"
       d="m 130.785,345.402 v 8.848 h -8.847 v -8.848 z"
       style="fill:none;stroke:#ffffff;stroke-width:3.99994;stroke-linecap:butt;stroke-linejoin:miter;stroke-miterlimit:4;stroke-dasharray:none;stroke-opacity:1"
       transform="matrix(0.13333333,0,0,-0.13333333,0,49.32)" />
    <path
       id="path17"
       d="m 310.688,345.402 v 8.848 h -8.848 v -8.848 z"
       style="fill:none;stroke:#ffffff;stroke-width:3.99994;stroke-linecap:butt;stroke-linejoin:miter;stroke-miterlimit:4;stroke-dasharray:none;stroke-opacity:1"
       transform="matrix(0.13333333,0,0,-0.13333333,0,49.32)" />
    <path
       id="path18"
       d="M 267.348,227.434 V 172.773 H 151.586 v 55.403 c 0,5.898 6.641,5.152 6.641,5.152 h 103.222 c 6.633,0 5.899,-5.894 5.899,-5.894"
       style="fill:#ffffff;fill-opacity:1;fill-rule:nonzero;stroke:none"
       transform="matrix(0.13333333,0,0,-0.13333333,0,49.32)" />
    <path
       id="path19"
       d="M 267.348,227.434 V 172.773 H 151.586 v 55.403 c 0,5.898 6.641,5.152 6.641,5.152 h 103.222 c 6.633,0 5.899,-5.894 5.899,-5.894 z"
       style="fill:none;stroke:#036998;stroke-width:3.99994;stroke-linecap:butt;stroke-linejoin:miter;stroke-miterlimit:4;stroke-dasharray:none;stroke-opacity:1"
       transform="matrix(0.13333333,0,0,-0.13333333,0,49.32)" />
    <path
       id="path20"
       d="m 298.832,170.664 v 56.77 c 0,0 0.742,5.894 -5.898,5.894 H 158.383 c 0,0 -6.641,0.746 -6.641,-5.152 v -53.93"
       style="fill:none;stroke:#ffffff;stroke-width:3.99994;stroke-linecap:butt;stroke-linejoin:miter;stroke-miterlimit:4;stroke-dasharray:none;stroke-opacity:1"
       transform="matrix(0.13333333,0,0,-0.13333333,0,49.32)" />
    <path
       id="path21"
       d="m 173.863,176.563 h 22.8594 v 53.0859 H 173.863 Z"
       style="fill:#036998;fill-opacity:1;fill-rule:nonzero;stroke:none"
       transform="matrix(0.13333333,0,0,-0.13333333,0,49.32)" />
    <path
       id="path22"
       d="m 196.723,176.563 v 53.085 h -22.86 v -53.085 z"
       style="fill:none;stroke:#ffffff;stroke-width:3.99994;stroke-linecap:butt;stroke-linejoin:miter;stroke-miterlimit:4;stroke-dasharray:none;stroke-opacity:1"
       transform="matrix(0.13333333,0,0,-0.13333333,0,49.32)" />
    <path
       id="path23"
       d="m 254.34,267.59 c 20.773,20.762 20.773,54.433 0,75.203 -20.762,20.762 -54.434,20.762 -75.195,0 -20.77,-20.77 -20.77,-54.441 0,-75.203 20.761,-20.774 54.433,-20.774 75.195,0"
       style="fill:#ffffff;fill-opacity:1;fill-rule:nonzero;stroke:none"
       transform="matrix(0.13333333,0,0,-0.13333333,0,49.32)" />
    <path
       id="path24"
       d="m 313.578,364.57 5.156,3.692"
       style="fill:none;stroke:#ffffff;stroke-width:3.99994;stroke-linecap:butt;stroke-linejoin:miter;stroke-miterlimit:4;stroke-dasharray:none;stroke-opacity:1"
       transform="matrix(0.13333333,0,0,-0.13333333,0,49.32)" />
    <path
       id="path25"
       d="m 209.926,314.328 -25.43,24.91"
       style="fill:none;stroke:#036998;stroke-width:5;stroke-linecap:butt;stroke-linejoin:miter;stroke-miterlimit:4;stroke-dasharray:none;stroke-opacity:1"
       transform="matrix(0.13333333,0,0,-0.13333333,0,49.32)" />
    <path
       id="path26"
       d="m 221.156,284.961 16.035,16.035 -17.363,1.965 1.328,-18"
       style="fill:#036998;fill-opacity:1;fill-rule:nonzero;stroke:none"
       transform="matrix(0.13333333,0,0,-0.13333333,0,49.32)" />
    <path
       id="path27"
       d="m 196.215,310.488 16.035,16.047 1.965,-17.375 -18,1.328"
       style="fill:#036998;fill-opacity:1;fill-rule:nonzero;stroke:none"
       transform="matrix(0.13333333,0,0,-0.13333333,0,49.32)" />
    <path
       id="path28"
       d="m 250.727,272.129 -24.981,24.98"
       style="fill:none;stroke:#036998;stroke-width:5;stroke-linecap:butt;stroke-linejoin:miter;stroke-miterlimit:4;stroke-dasharray:none;stroke-opacity:1"
       transform="matrix(0.13333333,0,0,-0.13333333,0,49.32)" />
    <path
       id="path29"
       d="m 221,310.754 18.77,18.172"
       style="fill:none;stroke:#036998;stroke-width:5;stroke-linecap:butt;stroke-linejoin:miter;stroke-miterlimit:4;stroke-dasharray:none;stroke-opacity:1"
       transform="matrix(0.13333333,0,0,-0.13333333,0,49.32)" />
    <path
       id="path30"
       d="m 231.684,337.461 16.046,-16.035 1.961,17.363 -18.007,-1.328"
       style="fill:#036998;fill-opacity:1;fill-rule:nonzero;stroke:none"
       transform="matrix(0.13333333,0,0,-0.13333333,0,49.32)" />
    <path
       id="path31"
       d="m 184.633,290.488 16.035,-16.043 -17.363,-1.953 1.328,17.996"
       style="fill:#036998;fill-opacity:1;fill-rule:nonzero;stroke:none"
       transform="matrix(0.13333333,0,0,-0.13333333,0,49.32)" />
    <path
       id="path32"
       d="m 191.625,280.871 21.074,20.984"
       style="fill:none;stroke:#036998;stroke-width:5;stroke-linecap:butt;stroke-linejoin:miter;stroke-miterlimit:4;stroke-dasharray:none;stroke-opacity:1"
       transform="matrix(0.13333333,0,0,-0.13333333,0,49.32)" />
  </g>
</svg>
