<?xml version="1.0" encoding="UTF-8" standalone="no"?>
<!-- Created with Inkscape (http://www.inkscape.org/) -->

<svg
   version="1.1"
   id="svg1"
   width="35"
   height="53.026669"
   viewBox="0 0 35 53.026669"
   sodipodi:docname="storage server.eps"
   xmlns:inkscape="http://www.inkscape.org/namespaces/inkscape"
   xmlns:sodipodi="http://sodipodi.sourceforge.net/DTD/sodipodi-0.dtd"
   xmlns="http://www.w3.org/2000/svg"
   xmlns:svg="http://www.w3.org/2000/svg">
  <defs
     id="defs1">
    <clipPath
       clipPathUnits="userSpaceOnUse"
       id="clipPath2">
      <path
         d="M 0,398 H 260 V 0 H 0 Z"
         id="path2" />
    </clipPath>
    <clipPath
       clipPathUnits="userSpaceOnUse"
       id="clipPath4">
      <path
         d="M 0,398 H 260 V 0 H 0 Z"
         id="path4" />
    </clipPath>
    <clipPath
       clipPathUnits="userSpaceOnUse"
       id="clipPath6">
      <path
         d="M 0,398 H 260 V 0 H 0 Z"
         id="path6" />
    </clipPath>
    <clipPath
       clipPathUnits="userSpaceOnUse"
       id="clipPath8">
      <path
         d="M 0,398 H 260 V 0 H 0 Z"
         id="path8" />
    </clipPath>
    <clipPath
       clipPathUnits="userSpaceOnUse"
       id="clipPath10">
      <path
         d="M 0,398 H 260 V 0 H 0 Z"
         id="path10" />
    </clipPath>
    <clipPath
       clipPathUnits="userSpaceOnUse"
       id="clipPath12">
      <path
         d="M 0,398 H 260 V 0 H 0 Z"
         id="path12" />
    </clipPath>
    <clipPath
       clipPathUnits="userSpaceOnUse"
       id="clipPath14">
      <path
         d="M 0,398 H 260 V 0 H 0 Z"
         id="path14" />
    </clipPath>
    <clipPath
       clipPathUnits="userSpaceOnUse"
       id="clipPath16">
      <path
         d="M 0,398 H 260 V 0 H 0 Z"
         id="path16" />
    </clipPath>
    <clipPath
       clipPathUnits="userSpaceOnUse"
       id="clipPath18">
      <path
         d="M 0,398 H 260 V 0 H 0 Z"
         id="path18" />
    </clipPath>
    <clipPath
       clipPathUnits="userSpaceOnUse"
       id="clipPath20">
      <path
         d="M 0,398 H 260 V 0 H 0 Z"
         id="path20" />
    </clipPath>
    <clipPath
       clipPathUnits="userSpaceOnUse"
       id="clipPath22">
      <path
         d="M 0,398 H 260 V 0 H 0 Z"
         id="path22" />
    </clipPath>
    <clipPath
       clipPathUnits="userSpaceOnUse"
       id="clipPath24">
      <path
         d="M 0,398 H 260 V 0 H 0 Z"
         id="path24" />
    </clipPath>
    <clipPath
       clipPathUnits="userSpaceOnUse"
       id="clipPath26">
      <path
         d="M 0,398 H 260 V 0 H 0 Z"
         id="path26" />
    </clipPath>
    <clipPath
       clipPathUnits="userSpaceOnUse"
       id="clipPath28">
      <path
         d="M 0,398 H 260 V 0 H 0 Z"
         id="path28" />
    </clipPath>
    <clipPath
       clipPathUnits="userSpaceOnUse"
       id="clipPath30">
      <path
         d="M 0,398 H 260 V 0 H 0 Z"
         id="path30" />
    </clipPath>
    <clipPath
       clipPathUnits="userSpaceOnUse"
       id="clipPath32">
      <path
         d="M 0,398 H 260 V 0 H 0 Z"
         id="path32" />
    </clipPath>
    <clipPath
       clipPathUnits="userSpaceOnUse"
       id="clipPath34">
      <path
         d="M 0,398 H 260 V 0 H 0 Z"
         id="path34" />
    </clipPath>
    <clipPath
       clipPathUnits="userSpaceOnUse"
       id="clipPath36">
      <path
         d="M 0,398 H 260 V 0 H 0 Z"
         id="path36" />
    </clipPath>
    <clipPath
       clipPathUnits="userSpaceOnUse"
       id="clipPath38">
      <path
         d="M 0,398 H 260 V 0 H 0 Z"
         id="path38" />
    </clipPath>
    <clipPath
       clipPathUnits="userSpaceOnUse"
       id="clipPath40">
      <path
         d="M 0,398 H 260 V 0 H 0 Z"
         id="path40" />
    </clipPath>
    <clipPath
       clipPathUnits="userSpaceOnUse"
       id="clipPath42">
      <path
         d="M 0,398 H 260 V 0 H 0 Z"
         id="path42" />
    </clipPath>
    <clipPath
       clipPathUnits="userSpaceOnUse"
       id="clipPath44">
      <path
         d="M 0,398 H 260 V 0 H 0 Z"
         id="path44" />
    </clipPath>
    <clipPath
       clipPathUnits="userSpaceOnUse"
       id="clipPath46">
      <path
         d="M 0,398 H 260 V 0 H 0 Z"
         id="path46" />
    </clipPath>
    <clipPath
       clipPathUnits="userSpaceOnUse"
       id="clipPath48">
      <path
         d="M 0,398 H 260 V 0 H 0 Z"
         id="path48" />
    </clipPath>
    <clipPath
       clipPathUnits="userSpaceOnUse"
       id="clipPath50">
      <path
         d="M 0,398 H 260 V 0 H 0 Z"
         id="path50" />
    </clipPath>
    <clipPath
       clipPathUnits="userSpaceOnUse"
       id="clipPath52">
      <path
         d="M 0,398 H 260 V 0 H 0 Z"
         id="path52" />
    </clipPath>
    <clipPath
       clipPathUnits="userSpaceOnUse"
       id="clipPath54">
      <path
         d="M 0,398 H 260 V 0 H 0 Z"
         id="path54" />
    </clipPath>
    <clipPath
       clipPathUnits="userSpaceOnUse"
       id="clipPath56">
      <path
         d="M 0,398 H 260 V 0 H 0 Z"
         id="path56" />
    </clipPath>
  </defs>
  <sodipodi:namedview
     id="namedview1"
     pagecolor="#505050"
     bordercolor="#eeeeee"
     borderopacity="1"
     inkscape:showpageshadow="0"
     inkscape:pageopacity="0"
     inkscape:pagecheckerboard="0"
     inkscape:deskcolor="#d1d1d1">
    <inkscape:page
       x="0"
       y="0"
       inkscape:label="1"
       id="page1"
       width="35"
       height="53.026669"
       margin="0"
       bleed="0" />
  </sodipodi:namedview>
  <g
     id="g1"
     inkscape:groupmode="layer"
     inkscape:label="1">
    <path
       id="path1"
       d="m 57.4531,4.82422 h 153.875 v 341.777 H 57.4531 Z"
       style="fill:#026c9b;fill-opacity:1;fill-rule:nonzero;stroke:none"
       transform="matrix(0.13333333,0,0,-0.13333333,0,53.026667)"
       clip-path="url(#clipPath2)" />
    <path
       id="path3"
       d="M 211.328,346.602 H 57.4531 V 4.82422 H 211.328"
       style="fill:none;stroke:#ffffff;stroke-width:4;stroke-linecap:butt;stroke-linejoin:miter;stroke-miterlimit:4;stroke-dasharray:none;stroke-opacity:1"
       transform="matrix(0.13333333,0,0,-0.13333333,0,53.026667)"
       clip-path="url(#clipPath4)" />
    <path
       id="path5"
       d="M 211.328,4.82422 260.48,53.9648 V 395.742 H 106.594 L 57.4531,346.602 H 211.328 V 4.82422"
       style="fill:#026c9b;fill-opacity:1;fill-rule:nonzero;stroke:none"
       transform="matrix(0.13333333,0,0,-0.13333333,0,53.026667)"
       clip-path="url(#clipPath6)" />
    <path
       id="path7"
       d="M 211.328,4.82422 260.48,53.9648 V 395.742 H 106.594 L 57.4531,346.602 H 211.328 Z"
       style="fill:none;stroke:#ffffff;stroke-width:4;stroke-linecap:butt;stroke-linejoin:miter;stroke-miterlimit:4;stroke-dasharray:none;stroke-opacity:1"
       transform="matrix(0.13333333,0,0,-0.13333333,0,53.026667)"
       clip-path="url(#clipPath8)" />
    <path
       id="path9"
       d="m 211.328,346.602 49.152,49.14"
       style="fill:#026c9b;fill-opacity:1;fill-rule:nonzero;stroke:#ffffff;stroke-width:4;stroke-linecap:butt;stroke-linejoin:miter;stroke-miterlimit:4;stroke-dasharray:none;stroke-opacity:1"
       transform="matrix(0.13333333,0,0,-0.13333333,0,53.026667)"
       clip-path="url(#clipPath10)" />
    <path
       id="path11"
       d="m 70.7813,190.273 h 77.5 v 11.25 h -77.5 z"
       style="fill:#026c9b;fill-opacity:1;fill-rule:nonzero;stroke:none"
       transform="matrix(0.13333333,0,0,-0.13333333,0,53.026667)"
       clip-path="url(#clipPath12)" />
    <path
       id="path13"
       d="m 148.281,190.273 v 11.25 H 70.7813 v -11.25 z"
       style="fill:none;stroke:#ffffff;stroke-width:4;stroke-linecap:butt;stroke-linejoin:miter;stroke-miterlimit:4;stroke-dasharray:none;stroke-opacity:1"
       transform="matrix(0.13333333,0,0,-0.13333333,0,53.026667)"
       clip-path="url(#clipPath14)" />
    <path
       id="path15"
       d="m 70.7813,166.953 h 77.5 v 11.25 h -77.5 z"
       style="fill:#026c9b;fill-opacity:1;fill-rule:nonzero;stroke:none"
       transform="matrix(0.13333333,0,0,-0.13333333,0,53.026667)"
       clip-path="url(#clipPath16)" />
    <path
       id="path17"
       d="m 148.281,166.953 v 11.25 H 70.7813 v -11.25 z"
       style="fill:none;stroke:#ffffff;stroke-width:4;stroke-linecap:butt;stroke-linejoin:miter;stroke-miterlimit:4;stroke-dasharray:none;stroke-opacity:1"
       transform="matrix(0.13333333,0,0,-0.13333333,0,53.026667)"
       clip-path="url(#clipPath18)" />
    <path
       id="path19"
       d="m 70.7813,143.613 h 77.5 v 11.25 h -77.5 z"
       style="fill:#026c9b;fill-opacity:1;fill-rule:nonzero;stroke:none"
       transform="matrix(0.13333333,0,0,-0.13333333,0,53.026667)"
       clip-path="url(#clipPath20)" />
    <path
       id="path21"
       d="m 148.281,143.613 v 11.25 H 70.7813 v -11.25 z"
       style="fill:none;stroke:#ffffff;stroke-width:4;stroke-linecap:butt;stroke-linejoin:miter;stroke-miterlimit:4;stroke-dasharray:none;stroke-opacity:1"
       transform="matrix(0.13333333,0,0,-0.13333333,0,53.026667)"
       clip-path="url(#clipPath22)" />
    <path
       id="path23"
       d="m 70.7813,120.293 h 77.5 v 11.25 h -77.5 z"
       style="fill:#026c9b;fill-opacity:1;fill-rule:nonzero;stroke:none"
       transform="matrix(0.13333333,0,0,-0.13333333,0,53.026667)"
       clip-path="url(#clipPath24)" />
    <path
       id="path25"
       d="m 148.281,120.293 v 11.25 H 70.7813 v -11.25 z"
       style="fill:none;stroke:#ffffff;stroke-width:4;stroke-linecap:butt;stroke-linejoin:miter;stroke-miterlimit:4;stroke-dasharray:none;stroke-opacity:1"
       transform="matrix(0.13333333,0,0,-0.13333333,0,53.026667)"
       clip-path="url(#clipPath26)" />
    <path
       id="path27"
       d="m 70.7813,96.9531 h 77.5 v 11.25 h -77.5 z"
       style="fill:#026c9b;fill-opacity:1;fill-rule:nonzero;stroke:none"
       transform="matrix(0.13333333,0,0,-0.13333333,0,53.026667)"
       clip-path="url(#clipPath28)" />
    <path
       id="path29"
       d="M 148.281,96.9531 V 108.203 H 70.7813 V 96.9531 Z"
       style="fill:none;stroke:#ffffff;stroke-width:4;stroke-linecap:butt;stroke-linejoin:miter;stroke-miterlimit:4;stroke-dasharray:none;stroke-opacity:1"
       transform="matrix(0.13333333,0,0,-0.13333333,0,53.026667)"
       clip-path="url(#clipPath30)" />
    <path
       id="path31"
       d="m 70.7813,73.6328 h 77.5 v 11.25 h -77.5 z"
       style="fill:#026c9b;fill-opacity:1;fill-rule:nonzero;stroke:none"
       transform="matrix(0.13333333,0,0,-0.13333333,0,53.026667)"
       clip-path="url(#clipPath32)" />
    <path
       id="path33"
       d="m 148.281,73.6328 v 11.25 H 70.7813 v -11.25 z"
       style="fill:none;stroke:#ffffff;stroke-width:4;stroke-linecap:butt;stroke-linejoin:miter;stroke-miterlimit:4;stroke-dasharray:none;stroke-opacity:1"
       transform="matrix(0.13333333,0,0,-0.13333333,0,53.026667)"
       clip-path="url(#clipPath34)" />
    <path
       id="path35"
       d="m 70.7813,50.293 h 77.5 v 11.25 h -77.5 z"
       style="fill:#026c9b;fill-opacity:1;fill-rule:nonzero;stroke:none"
       transform="matrix(0.13333333,0,0,-0.13333333,0,53.026667)"
       clip-path="url(#clipPath36)" />
    <path
       id="path37"
       d="m 148.281,50.293 v 11.25 H 70.7813 v -11.25 z"
       style="fill:none;stroke:#ffffff;stroke-width:4;stroke-linecap:butt;stroke-linejoin:miter;stroke-miterlimit:4;stroke-dasharray:none;stroke-opacity:1"
       transform="matrix(0.13333333,0,0,-0.13333333,0,53.026667)"
       clip-path="url(#clipPath38)" />
    <path
       id="path39"
       d="m 70.7813,26.9727 h 77.5 v 11.25 h -77.5 z"
       style="fill:#026c9b;fill-opacity:1;fill-rule:nonzero;stroke:none"
       transform="matrix(0.13333333,0,0,-0.13333333,0,53.026667)"
       clip-path="url(#clipPath40)" />
    <path
       id="path41"
       d="m 148.281,26.9727 v 11.25 H 70.7813 v -11.25 z"
       style="fill:none;stroke:#ffffff;stroke-width:4;stroke-linecap:butt;stroke-linejoin:miter;stroke-miterlimit:4;stroke-dasharray:none;stroke-opacity:1"
       transform="matrix(0.13333333,0,0,-0.13333333,0,53.026667)"
       clip-path="url(#clipPath42)" />
    <path
       id="path43"
       d="m 157.617,306.816 c 0,-15.918 -34.844,-28.808 -77.8123,-28.808 C 36.8359,278.008 2,290.898 2,306.816 V 240.41 c 0,-15.898 34.8359,-28.808 77.8047,-28.808 42.9683,0 77.8123,12.91 77.8123,28.808 v 66.406"
       style="fill:#026c9b;fill-opacity:1;fill-rule:nonzero;stroke:none"
       transform="matrix(0.13333333,0,0,-0.13333333,0,53.026667)"
       clip-path="url(#clipPath44)" />
    <path
       id="path45"
       d="m 157.617,306.816 c 0,-15.918 -34.844,-28.808 -77.8123,-28.808 C 36.8359,278.008 2,290.898 2,306.816 V 240.41 c 0,-15.898 34.8359,-28.808 77.8047,-28.808 42.9683,0 77.8123,12.91 77.8123,28.808 z"
       style="fill:none;stroke:#ffffff;stroke-width:4;stroke-linecap:butt;stroke-linejoin:miter;stroke-miterlimit:4;stroke-dasharray:none;stroke-opacity:1"
       transform="matrix(0.13333333,0,0,-0.13333333,0,53.026667)"
       clip-path="url(#clipPath46)" />
    <path
       id="path47"
       d="m 79.8047,278.008 c 42.9683,0 77.8123,12.89 77.8123,28.808 0,15.918 -34.844,28.829 -77.8123,28.829 C 36.8359,335.645 2,322.734 2,306.816 2,290.898 36.8359,278.008 79.8047,278.008"
       style="fill:#026c9b;fill-opacity:1;fill-rule:nonzero;stroke:#ffffff;stroke-width:4;stroke-linecap:butt;stroke-linejoin:miter;stroke-miterlimit:4;stroke-dasharray:none;stroke-opacity:1"
       transform="matrix(0.13333333,0,0,-0.13333333,0,53.026667)"
       clip-path="url(#clipPath48)" />
    <path
       id="path49"
       d="m 240.945,246.816 c 0,-15.918 -34.84,-28.808 -77.808,-28.808 -42.973,0 -77.805,12.89 -77.805,28.808 V 180.41 c 0,-15.898 34.832,-28.808 77.805,-28.808 42.968,0 77.808,12.91 77.808,28.808 v 66.406"
       style="fill:#026c9b;fill-opacity:1;fill-rule:nonzero;stroke:none"
       transform="matrix(0.13333333,0,0,-0.13333333,0,53.026667)"
       clip-path="url(#clipPath50)" />
    <path
       id="path51"
       d="m 240.945,246.816 c 0,-15.918 -34.84,-28.808 -77.808,-28.808 -42.973,0 -77.805,12.89 -77.805,28.808 V 180.41 c 0,-15.898 34.832,-28.808 77.805,-28.808 42.968,0 77.808,12.91 77.808,28.808 z"
       style="fill:none;stroke:#ffffff;stroke-width:4;stroke-linecap:butt;stroke-linejoin:miter;stroke-miterlimit:4;stroke-dasharray:none;stroke-opacity:1"
       transform="matrix(0.13333333,0,0,-0.13333333,0,53.026667)"
       clip-path="url(#clipPath52)" />
    <path
       id="path53"
       d="m 163.137,218.008 c 42.968,0 77.808,12.89 77.808,28.808 0,15.918 -34.84,28.829 -77.808,28.829 -42.973,0 -77.805,-12.911 -77.805,-28.829 0,-15.918 34.832,-28.808 77.805,-28.808"
       style="fill:#026c9b;fill-opacity:1;fill-rule:nonzero;stroke:none"
       transform="matrix(0.13333333,0,0,-0.13333333,0,53.026667)"
       clip-path="url(#clipPath54)" />
    <path
       id="path55"
       d="m 163.137,218.008 c 42.968,0 77.808,12.89 77.808,28.808 0,15.918 -34.84,28.829 -77.808,28.829 -42.973,0 -77.805,-12.911 -77.805,-28.829 0,-15.918 34.832,-28.808 77.805,-28.808 z"
       style="fill:none;stroke:#ffffff;stroke-width:4;stroke-linecap:butt;stroke-linejoin:miter;stroke-miterlimit:4;stroke-dasharray:none;stroke-opacity:1"
       transform="matrix(0.13333333,0,0,-0.13333333,0,53.026667)"
       clip-path="url(#clipPath56)" />
  </g>
</svg>
