<?xml version="1.0" encoding="UTF-8" standalone="no"?>
<!-- Created with Inkscape (http://www.inkscape.org/) -->

<svg
   version="1.1"
   id="svg1"
   width="54.106667"
   height="43.360001"
   viewBox="0 0 54.106667 43.360001"
   sodipodi:docname="sun workstation.eps"
   xmlns:inkscape="http://www.inkscape.org/namespaces/inkscape"
   xmlns:sodipodi="http://sodipodi.sourceforge.net/DTD/sodipodi-0.dtd"
   xmlns="http://www.w3.org/2000/svg"
   xmlns:svg="http://www.w3.org/2000/svg">
  <defs
     id="defs1" />
  <sodipodi:namedview
     id="namedview1"
     pagecolor="#505050"
     bordercolor="#eeeeee"
     borderopacity="1"
     inkscape:showpageshadow="0"
     inkscape:pageopacity="0"
     inkscape:pagecheckerboard="0"
     inkscape:deskcolor="#d1d1d1">
    <inkscape:page
       x="0"
       y="0"
       inkscape:label="1"
       id="page1"
       width="54.106667"
       height="43.360001"
       margin="0"
       bleed="0" />
  </sodipodi:namedview>
  <g
     id="g1"
     inkscape:groupmode="layer"
     inkscape:label="1">
    <path
       id="path1"
       d="m 50.4648,68.1875 h 228.707 v 42.7852 H 50.4648 Z"
       style="fill:#036998;fill-opacity:1;fill-rule:nonzero;stroke:none"
       transform="matrix(0.13333333,0,0,-0.13333333,0,43.36)" />
    <path
       id="path2"
       d="M 50.4648,68.1875 V 110.973 H 279.172 V 68.1875 Z"
       style="fill:none;stroke:#ffffff;stroke-width:3.99994;stroke-linecap:butt;stroke-linejoin:miter;stroke-miterlimit:4;stroke-dasharray:none;stroke-opacity:1"
       transform="matrix(0.13333333,0,0,-0.13333333,0,43.36)" />
    <path
       id="path3"
       d="M 317.883,149.977 V 106.762 L 279.172,67.7578 V 110.973 H 50.2969"
       style="fill:#036998;fill-opacity:1;fill-rule:nonzero;stroke:#ffffff;stroke-width:3.99994;stroke-linecap:butt;stroke-linejoin:miter;stroke-miterlimit:4;stroke-dasharray:none;stroke-opacity:1"
       transform="matrix(0.13333333,0,0,-0.13333333,0,43.36)" />
    <path
       id="path4"
       d="M 52.1055,149.977 H 317.883"
       style="fill:#036998;fill-opacity:1;fill-rule:nonzero;stroke:#ffffff;stroke-width:3.99994;stroke-linecap:butt;stroke-linejoin:miter;stroke-miterlimit:4;stroke-dasharray:none;stroke-opacity:1"
       transform="matrix(0.13333333,0,0,-0.13333333,0,43.36)" />
    <path
       id="path5"
       d="m 279.172,110.973 38.711,39.004"
       style="fill:#036998;fill-opacity:1;fill-rule:nonzero;stroke:#ffffff;stroke-width:3.99994;stroke-linecap:butt;stroke-linejoin:miter;stroke-miterlimit:4;stroke-dasharray:none;stroke-opacity:1"
       transform="matrix(0.13333333,0,0,-0.13333333,0,43.36)" />
    <path
       id="path6"
       d="M 267.859,36.918 V 62.2695 H 4.82813 L 34.7617,92.2031 H 297.805 V 66.8516 L 267.859,36.918"
       style="fill:#036998;fill-opacity:1;fill-rule:nonzero;stroke:none"
       transform="matrix(0.13333333,0,0,-0.13333333,0,43.36)" />
    <path
       id="path7"
       d="M 267.859,36.918 V 62.2695 H 4.82813 L 34.7617,92.2031 H 297.805 V 66.8516 Z"
       style="fill:none;stroke:#ffffff;stroke-width:3.99994;stroke-linecap:butt;stroke-linejoin:miter;stroke-miterlimit:4;stroke-dasharray:none;stroke-opacity:1"
       transform="matrix(0.13333333,0,0,-0.13333333,0,43.36)" />
    <path
       id="path8"
       d="m 4.82813,36.918 h 263.031 V 62.2696 H 4.82813 Z"
       style="fill:#036998;fill-opacity:1;fill-rule:nonzero;stroke:none"
       transform="matrix(0.13333333,0,0,-0.13333333,0,43.36)" />
    <path
       id="path9"
       d="M 267.859,62.2695 V 36.918 H 4.82813 v 25.3515 z"
       style="fill:none;stroke:#ffffff;stroke-width:3.99994;stroke-linecap:butt;stroke-linejoin:miter;stroke-miterlimit:4;stroke-dasharray:none;stroke-opacity:1"
       transform="matrix(0.13333333,0,0,-0.13333333,0,43.36)" />
    <path
       id="path10"
       d="m 267.859,62.2695 29.946,29.9336"
       style="fill:#036998;fill-opacity:1;fill-rule:nonzero;stroke:#ffffff;stroke-width:3.99994;stroke-linecap:butt;stroke-linejoin:miter;stroke-miterlimit:4;stroke-dasharray:none;stroke-opacity:1"
       transform="matrix(0.13333333,0,0,-0.13333333,0,43.36)" />
    <path
       id="path11"
       d="m 50.2969,111.844 h 228.582 v 172.34 H 50.2969 Z"
       style="fill:#036998;fill-opacity:1;fill-rule:nonzero;stroke:none"
       transform="matrix(0.13333333,0,0,-0.13333333,0,43.36)" />
    <path
       id="path12"
       d="m 278.879,111.844 v 172.34 H 50.2969 v -172.34 z"
       style="fill:none;stroke:#ffffff;stroke-width:3.99994;stroke-linecap:butt;stroke-linejoin:miter;stroke-miterlimit:4;stroke-dasharray:none;stroke-opacity:1"
       transform="matrix(0.13333333,0,0,-0.13333333,0,43.36)" />
    <path
       id="path13"
       d="m 278.879,111.844 39.004,39.004 v 172.34 H 89.293 L 50.2969,284.184 H 278.879 v -172.34"
       style="fill:#036998;fill-opacity:1;fill-rule:nonzero;stroke:none"
       transform="matrix(0.13333333,0,0,-0.13333333,0,43.36)" />
    <path
       id="path14"
       d="m 278.879,111.844 39.004,39.004 v 172.34 H 89.293 L 50.2969,284.184 H 278.879 Z"
       style="fill:none;stroke:#ffffff;stroke-width:3.99994;stroke-linecap:butt;stroke-linejoin:miter;stroke-miterlimit:4;stroke-dasharray:none;stroke-opacity:1"
       transform="matrix(0.13333333,0,0,-0.13333333,0,43.36)" />
    <path
       id="path15"
       d="M 70.25,131.801 H 258.914 V 264.227 H 70.25 Z"
       style="fill:#036998;fill-opacity:1;fill-rule:nonzero;stroke:none"
       transform="matrix(0.13333333,0,0,-0.13333333,0,43.36)" />
    <path
       id="path16"
       d="M 258.914,131.801 V 264.227 H 70.25 V 131.801 Z"
       style="fill:none;stroke:#ffffff;stroke-width:3.99994;stroke-linecap:butt;stroke-linejoin:miter;stroke-miterlimit:4;stroke-dasharray:none;stroke-opacity:1"
       transform="matrix(0.13333333,0,0,-0.13333333,0,43.36)" />
    <path
       id="path17"
       d="m 278.879,284.184 39.004,39.004"
       style="fill:#036998;fill-opacity:1;fill-rule:nonzero;stroke:#ffffff;stroke-width:3.99994;stroke-linecap:butt;stroke-linejoin:miter;stroke-miterlimit:4;stroke-dasharray:none;stroke-opacity:1"
       transform="matrix(0.13333333,0,0,-0.13333333,0,43.36)" />
    <path
       id="path18"
       d="M 402.98,29.7695 363.508,84.5156 326.086,57.5352 365.574,2.79297 402.98,29.7695"
       style="fill:#036998;fill-opacity:1;fill-rule:nonzero;stroke:#ffffff;stroke-width:3.99994;stroke-linecap:butt;stroke-linejoin:miter;stroke-miterlimit:4;stroke-dasharray:none;stroke-opacity:1"
       transform="matrix(0.13333333,0,0,-0.13333333,0,43.36)" />
    <path
       id="path19"
       d="m 345.52,71.7148 c -6.743,11.25 -18.872,4.336 -16.309,23.0586 2.637,19.2536 -10.297,31.9886 -33.75,21.3786"
       style="fill:none;stroke:#036998;stroke-width:3.99994;stroke-linecap:butt;stroke-linejoin:miter;stroke-miterlimit:4;stroke-dasharray:none;stroke-opacity:1"
       transform="matrix(0.13333333,0,0,-0.13333333,0,43.36)" />
  </g>
</svg>
