<?xml version="1.0" encoding="UTF-8" standalone="no"?>
<!-- Created with Inkscape (http://www.inkscape.org/) -->

<svg
   version="1.1"
   id="svg1"
   width="31.973333"
   height="44.48"
   viewBox="0 0 31.973333 44.48"
   sodipodi:docname="unity server.eps"
   xmlns:inkscape="http://www.inkscape.org/namespaces/inkscape"
   xmlns:sodipodi="http://sodipodi.sourceforge.net/DTD/sodipodi-0.dtd"
   xmlns="http://www.w3.org/2000/svg"
   xmlns:svg="http://www.w3.org/2000/svg">
  <defs
     id="defs1">
    <clipPath
       clipPathUnits="userSpaceOnUse"
       id="clipPath2">
      <path
         d="M 0,3 V 334 H 240 V 3 Z"
         id="path2" />
    </clipPath>
    <clipPath
       clipPathUnits="userSpaceOnUse"
       id="clipPath4">
      <path
         d="M 0,3 V 334 H 240 V 3 Z"
         id="path4" />
    </clipPath>
    <clipPath
       clipPathUnits="userSpaceOnUse"
       id="clipPath6">
      <path
         d="M 0,3 V 334 H 240 V 3 Z"
         id="path6" />
    </clipPath>
    <clipPath
       clipPathUnits="userSpaceOnUse"
       id="clipPath8">
      <path
         d="M 0,3 V 334 H 240 V 3 Z"
         id="path8" />
    </clipPath>
    <clipPath
       clipPathUnits="userSpaceOnUse"
       id="clipPath10">
      <path
         d="M 0,3 V 334 H 240 V 3 Z"
         id="path10" />
    </clipPath>
    <clipPath
       clipPathUnits="userSpaceOnUse"
       id="clipPath12">
      <path
         d="M 0,3 V 334 H 240 V 3 Z"
         id="path12" />
    </clipPath>
    <clipPath
       clipPathUnits="userSpaceOnUse"
       id="clipPath14">
      <path
         d="M 0,3 V 334 H 240 V 3 Z"
         id="path14" />
    </clipPath>
    <clipPath
       clipPathUnits="userSpaceOnUse"
       id="clipPath16">
      <path
         d="M 0,3 V 334 H 240 V 3 Z"
         id="path16" />
    </clipPath>
    <clipPath
       clipPathUnits="userSpaceOnUse"
       id="clipPath18">
      <path
         d="M 0,3 V 334 H 240 V 3 Z"
         id="path18" />
    </clipPath>
    <clipPath
       clipPathUnits="userSpaceOnUse"
       id="clipPath20">
      <path
         d="M 0,3 V 334 H 240 V 3 Z"
         id="path20" />
    </clipPath>
    <clipPath
       clipPathUnits="userSpaceOnUse"
       id="clipPath22">
      <path
         d="M 0,3 V 334 H 240 V 3 Z"
         id="path22" />
    </clipPath>
    <clipPath
       clipPathUnits="userSpaceOnUse"
       id="clipPath24">
      <path
         d="M 0,3 V 334 H 240 V 3 Z"
         id="path24" />
    </clipPath>
    <clipPath
       clipPathUnits="userSpaceOnUse"
       id="clipPath26">
      <path
         d="M 0,3 V 334 H 240 V 3 Z"
         id="path26" />
    </clipPath>
    <clipPath
       clipPathUnits="userSpaceOnUse"
       id="clipPath28">
      <path
         d="M 0,3 V 334 H 240 V 3 Z"
         id="path28" />
    </clipPath>
    <clipPath
       clipPathUnits="userSpaceOnUse"
       id="clipPath30">
      <path
         d="M 0,3 V 334 H 240 V 3 Z"
         id="path30" />
    </clipPath>
    <clipPath
       clipPathUnits="userSpaceOnUse"
       id="clipPath32">
      <path
         d="M 0,3 V 334 H 240 V 3 Z"
         id="path32" />
    </clipPath>
    <clipPath
       clipPathUnits="userSpaceOnUse"
       id="clipPath34">
      <path
         d="M 0,3 V 334 H 240 V 3 Z"
         id="path34" />
    </clipPath>
    <clipPath
       clipPathUnits="userSpaceOnUse"
       id="clipPath36">
      <path
         d="M 0,3 V 334 H 240 V 3 Z"
         id="path36" />
    </clipPath>
    <clipPath
       clipPathUnits="userSpaceOnUse"
       id="clipPath38">
      <path
         d="M 0,3 V 334 H 240 V 3 Z"
         id="path38" />
    </clipPath>
    <clipPath
       clipPathUnits="userSpaceOnUse"
       id="clipPath40">
      <path
         d="M 0,3 V 334 H 240 V 3 Z"
         id="path40" />
    </clipPath>
    <clipPath
       clipPathUnits="userSpaceOnUse"
       id="clipPath42">
      <path
         d="M 0,3 V 334 H 240 V 3 Z"
         id="path42" />
    </clipPath>
    <clipPath
       clipPathUnits="userSpaceOnUse"
       id="clipPath44">
      <path
         d="M 0,3 V 334 H 240 V 3 Z"
         id="path44" />
    </clipPath>
  </defs>
  <sodipodi:namedview
     id="namedview1"
     pagecolor="#505050"
     bordercolor="#eeeeee"
     borderopacity="1"
     inkscape:showpageshadow="0"
     inkscape:pageopacity="0"
     inkscape:pagecheckerboard="0"
     inkscape:deskcolor="#d1d1d1">
    <inkscape:page
       x="0"
       y="0"
       inkscape:label="1"
       id="page1"
       width="31.973333"
       height="44.48"
       margin="0"
       bleed="0" />
  </sodipodi:namedview>
  <g
     id="g1"
     inkscape:groupmode="layer"
     inkscape:label="1">
    <path
       id="path1"
       d="m 4.82813,4.82422 h 183.879 v 277.637 H 4.82813 Z"
       style="fill:#026c9b;fill-opacity:1;fill-rule:nonzero;stroke:none"
       transform="matrix(0.13333333,0,0,-0.13333333,0,44.48)"
       clip-path="url(#clipPath2)" />
    <path
       id="path3"
       d="M 188.707,282.461 H 4.82813 V 4.82422 H 188.707"
       style="fill:none;stroke:#ffffff;stroke-width:4;stroke-linecap:butt;stroke-linejoin:miter;stroke-miterlimit:4;stroke-dasharray:none;stroke-opacity:1"
       transform="matrix(0.13333333,0,0,-0.13333333,0,44.48)"
       clip-path="url(#clipPath4)" />
    <path
       id="path5"
       d="M 188.707,4.82422 237.848,53.9648 V 331.602 H 53.9688 L 4.82813,282.461 H 188.707 V 4.82422"
       style="fill:#026c9b;fill-opacity:1;fill-rule:nonzero;stroke:none"
       transform="matrix(0.13333333,0,0,-0.13333333,0,44.48)"
       clip-path="url(#clipPath6)" />
    <path
       id="path7"
       d="M 188.707,4.82422 237.848,53.9648 V 331.602 H 53.9688 L 4.82813,282.461 H 188.707 Z"
       style="fill:none;stroke:#ffffff;stroke-width:4;stroke-linecap:butt;stroke-linejoin:miter;stroke-miterlimit:4;stroke-dasharray:none;stroke-opacity:1"
       transform="matrix(0.13333333,0,0,-0.13333333,0,44.48)"
       clip-path="url(#clipPath8)" />
    <path
       id="path9"
       d="m 188.707,282.461 49.141,49.141"
       style="fill:#026c9b;fill-opacity:1;fill-rule:nonzero;stroke:#ffffff;stroke-width:4;stroke-linecap:butt;stroke-linejoin:miter;stroke-miterlimit:4;stroke-dasharray:none;stroke-opacity:1"
       transform="matrix(0.13333333,0,0,-0.13333333,0,44.48)"
       clip-path="url(#clipPath10)" />
    <path
       id="path11"
       d="M 7.30859,204.465 H 187.32"
       style="fill:none;stroke:#ffffff;stroke-width:4;stroke-linecap:butt;stroke-linejoin:miter;stroke-miterlimit:4;stroke-dasharray:none;stroke-opacity:1"
       transform="matrix(0.13333333,0,0,-0.13333333,0,44.48)"
       clip-path="url(#clipPath12)" />
    <path
       id="path13"
       d="M 7.30859,31.9727 H 187.32"
       style="fill:none;stroke:#ffffff;stroke-width:4;stroke-linecap:butt;stroke-linejoin:miter;stroke-miterlimit:4;stroke-dasharray:none;stroke-opacity:1"
       transform="matrix(0.13333333,0,0,-0.13333333,0,44.48)"
       clip-path="url(#clipPath14)" />
    <path
       id="path15"
       d="m 42.3086,244.465 h 43.75"
       style="fill:none;stroke:#ffffff;stroke-width:4;stroke-linecap:butt;stroke-linejoin:miter;stroke-miterlimit:4;stroke-dasharray:none;stroke-opacity:1"
       transform="matrix(0.13333333,0,0,-0.13333333,0,44.48)"
       clip-path="url(#clipPath16)" />
    <path
       id="path17"
       d="m 102.32,229.465 v 31.25 H 24.8086 v -31.25 z"
       style="fill:none;stroke:#ffffff;stroke-width:4;stroke-linecap:butt;stroke-linejoin:miter;stroke-miterlimit:4;stroke-dasharray:none;stroke-opacity:1"
       transform="matrix(0.13333333,0,0,-0.13333333,0,44.48)"
       clip-path="url(#clipPath18)" />
    <path
       id="path19"
       d="m 109.359,111.164 c 0,-10.578 -6.386,-15.1171 -16.5113,-15.1171 -3.7032,0 -9.1914,0.8867 -12.7735,4.8711 -2.1797,2.461 -3.0195,5.703 -3.1367,9.746 v 26.652 h 8.5742 v -26.093 c 0,-5.598 3.2422,-8.067 7.168,-8.067 5.7617,0 8.1173,2.801 8.1173,7.664 v 26.496 h 8.562 v -26.152"
       style="fill:#ffffff;fill-opacity:1;fill-rule:nonzero;stroke:none"
       transform="matrix(0.13333333,0,0,-0.13333333,0,44.48)"
       clip-path="url(#clipPath20)" />
    <path
       id="path21"
       d="m 93.3359,88.2617 c 16.9021,0 30.5941,13.6913 30.5941,30.5973 0,16.883 -13.692,30.586 -30.5941,30.586 -16.8867,0 -30.5859,-13.703 -30.5859,-30.586 0,-16.906 13.6992,-30.5973 30.5859,-30.5973 z"
       style="fill:none;stroke:#ffffff;stroke-width:7;stroke-linecap:butt;stroke-linejoin:miter;stroke-miterlimit:4;stroke-dasharray:none;stroke-opacity:1"
       transform="matrix(0.13333333,0,0,-0.13333333,0,44.48)"
       clip-path="url(#clipPath22)" />
    <path
       id="path23"
       d="M 93.3359,149.445 H 146.422"
       style="fill:none;stroke:#ffffff;stroke-width:7;stroke-linecap:butt;stroke-linejoin:miter;stroke-miterlimit:4;stroke-dasharray:none;stroke-opacity:1"
       transform="matrix(0.13333333,0,0,-0.13333333,0,44.48)"
       clip-path="url(#clipPath24)" />
    <path
       id="path25"
       d="m 149.332,165.527 v -30.761 l 18.535,14.777 -18.535,15.984"
       style="fill:#ffffff;fill-opacity:1;fill-rule:nonzero;stroke:none"
       transform="matrix(0.13333333,0,0,-0.13333333,0,44.48)"
       clip-path="url(#clipPath26)" />
    <path
       id="path27"
       d="m 149.332,165.527 v -30.761 l 18.535,14.777 z"
       style="fill:none;stroke:#ffffff;stroke-width:1.28;stroke-linecap:butt;stroke-linejoin:miter;stroke-miterlimit:4;stroke-dasharray:none;stroke-opacity:1"
       transform="matrix(0.13333333,0,0,-0.13333333,0,44.48)"
       clip-path="url(#clipPath28)" />
    <path
       id="path29"
       d="m 62.7891,118.633 v 53.125"
       style="fill:none;stroke:#ffffff;stroke-width:7;stroke-linecap:butt;stroke-linejoin:miter;stroke-miterlimit:4;stroke-dasharray:none;stroke-opacity:1"
       transform="matrix(0.13333333,0,0,-0.13333333,0,44.48)"
       clip-path="url(#clipPath30)" />
    <path
       id="path31"
       d="M 47.0859,174.355 H 77.8555 L 63.0703,192.891 47.0859,174.355"
       style="fill:#ffffff;fill-opacity:1;fill-rule:nonzero;stroke:none"
       transform="matrix(0.13333333,0,0,-0.13333333,0,44.48)"
       clip-path="url(#clipPath32)" />
    <path
       id="path33"
       d="M 47.0859,174.355 H 77.8555 L 63.0703,192.891 Z"
       style="fill:none;stroke:#ffffff;stroke-width:1.28;stroke-linecap:butt;stroke-linejoin:miter;stroke-miterlimit:4;stroke-dasharray:none;stroke-opacity:1"
       transform="matrix(0.13333333,0,0,-0.13333333,0,44.48)"
       clip-path="url(#clipPath34)" />
    <path
       id="path35"
       d="M 124,119.023 V 65.8984"
       style="fill:none;stroke:#ffffff;stroke-width:7;stroke-linecap:butt;stroke-linejoin:miter;stroke-miterlimit:4;stroke-dasharray:none;stroke-opacity:1"
       transform="matrix(0.13333333,0,0,-0.13333333,0,44.48)"
       clip-path="url(#clipPath36)" />
    <path
       id="path37"
       d="M 139.645,63.457 H 108.902 L 123.824,44.9219 139.645,63.457"
       style="fill:#ffffff;fill-opacity:1;fill-rule:nonzero;stroke:none"
       transform="matrix(0.13333333,0,0,-0.13333333,0,44.48)"
       clip-path="url(#clipPath38)" />
    <path
       id="path39"
       d="M 139.645,63.457 H 108.902 L 123.824,44.9219 Z"
       style="fill:none;stroke:#ffffff;stroke-width:1.28;stroke-linecap:butt;stroke-linejoin:miter;stroke-miterlimit:4;stroke-dasharray:none;stroke-opacity:1"
       transform="matrix(0.13333333,0,0,-0.13333333,0,44.48)"
       clip-path="url(#clipPath40)" />
    <path
       id="path41"
       d="M 94.0977,88.3008 H 40.9609"
       style="fill:none;stroke:#ffffff;stroke-width:7;stroke-linecap:butt;stroke-linejoin:miter;stroke-miterlimit:4;stroke-dasharray:none;stroke-opacity:1"
       transform="matrix(0.13333333,0,0,-0.13333333,0,44.48)"
       clip-path="url(#clipPath42)" />
    <path
       id="path43"
       d="M 40.7188,72.1094 V 102.871 L 22.1836,88.1055 40.7188,72.1094"
       style="fill:#ffffff;fill-opacity:1;fill-rule:nonzero;stroke:#ffffff;stroke-width:1.28;stroke-linecap:butt;stroke-linejoin:miter;stroke-miterlimit:4;stroke-dasharray:none;stroke-opacity:1"
       transform="matrix(0.13333333,0,0,-0.13333333,0,44.48)"
       clip-path="url(#clipPath44)" />
  </g>
</svg>
