<?xml version="1.0" encoding="UTF-8" standalone="no"?>
<!-- Created with Inkscape (http://www.inkscape.org/) -->

<svg
   version="1.1"
   id="svg1"
   width="35.693333"
   height="36.040001"
   viewBox="0 0 35.693333 36.040001"
   sodipodi:docname="voice commserver.eps"
   xmlns:inkscape="http://www.inkscape.org/namespaces/inkscape"
   xmlns:sodipodi="http://sodipodi.sourceforge.net/DTD/sodipodi-0.dtd"
   xmlns="http://www.w3.org/2000/svg"
   xmlns:svg="http://www.w3.org/2000/svg">
  <defs
     id="defs1" />
  <sodipodi:namedview
     id="namedview1"
     pagecolor="#505050"
     bordercolor="#eeeeee"
     borderopacity="1"
     inkscape:showpageshadow="0"
     inkscape:pageopacity="0"
     inkscape:pagecheckerboard="0"
     inkscape:deskcolor="#d1d1d1">
    <inkscape:page
       x="0"
       y="0"
       inkscape:label="1"
       id="page1"
       width="35.693333"
       height="36.040001"
       margin="0"
       bleed="0" />
  </sodipodi:namedview>
  <g
     id="g1"
     inkscape:groupmode="layer"
     inkscape:label="1">
    <path
       id="path1"
       d="m 5.46875,4.75 h 215.996 V 224.496 H 5.46875 Z"
       style="fill:#036998;fill-opacity:1;fill-rule:nonzero;stroke:none"
       transform="matrix(0.13333333,0,0,-0.13333333,0,36.04)" />
    <path
       id="path2"
       d="M 221.465,4.75 V 224.496 H 5.46875 V 4.75 Z"
       style="fill:none;stroke:#ffffff;stroke-width:3.99994;stroke-linecap:butt;stroke-linejoin:miter;stroke-miterlimit:4;stroke-dasharray:none;stroke-opacity:1"
       transform="matrix(0.13333333,0,0,-0.13333333,0,36.04)" />
    <path
       id="path3"
       d="m 113.77,68.3047 c 25.664,0 46.484,20.8125 46.484,46.4843 0,25.664 -20.82,46.465 -46.484,46.465 -25.6645,0 -46.477,-20.801 -46.477,-46.465 0,-25.6718 20.8125,-46.4843 46.477,-46.4843 z"
       style="fill:none;stroke:#ffffff;stroke-width:6.99997;stroke-linecap:butt;stroke-linejoin:miter;stroke-miterlimit:4;stroke-dasharray:none;stroke-opacity:1"
       transform="matrix(0.13333333,0,0,-0.13333333,0,36.04)" />
    <path
       id="path4"
       d="m 113.77,161.254 h 80.722"
       style="fill:none;stroke:#ffffff;stroke-width:6.99997;stroke-linecap:butt;stroke-linejoin:miter;stroke-miterlimit:4;stroke-dasharray:none;stroke-opacity:1"
       transform="matrix(0.13333333,0,0,-0.13333333,0,36.04)" />
    <path
       id="path5"
       d="m 180.547,185.883 v -48.067 l 28.965,23.086 -28.965,24.981"
       style="fill:#ffffff;fill-opacity:1;fill-rule:nonzero;stroke:none"
       transform="matrix(0.13333333,0,0,-0.13333333,0,36.04)" />
    <path
       id="path6"
       d="m 180.547,185.883 v -48.067 l 28.965,23.086 z"
       style="fill:none;stroke:#ffffff;stroke-width:1.99997;stroke-linecap:butt;stroke-linejoin:miter;stroke-miterlimit:4;stroke-dasharray:none;stroke-opacity:1"
       transform="matrix(0.13333333,0,0,-0.13333333,0,36.04)" />
    <path
       id="path7"
       d="M 67.3516,114.457 V 195.18"
       style="fill:none;stroke:#ffffff;stroke-width:6.99997;stroke-linecap:butt;stroke-linejoin:miter;stroke-miterlimit:4;stroke-dasharray:none;stroke-opacity:1"
       transform="matrix(0.13333333,0,0,-0.13333333,0,36.04)" />
    <path
       id="path8"
       d="M 43.3594,181.676 H 91.4258 L 68.3398,210.629 43.3594,181.676"
       style="fill:#ffffff;fill-opacity:1;fill-rule:nonzero;stroke:none"
       transform="matrix(0.13333333,0,0,-0.13333333,0,36.04)" />
    <path
       id="path9"
       d="m 43.3594,181.676 h 48.0664 l -23.086,28.953 z"
       style="fill:none;stroke:#ffffff;stroke-width:1.99997;stroke-linecap:butt;stroke-linejoin:miter;stroke-miterlimit:4;stroke-dasharray:none;stroke-opacity:1"
       transform="matrix(0.13333333,0,0,-0.13333333,0,36.04)" />
    <path
       id="path10"
       d="M 160.344,115.043 V 34.3203"
       style="fill:none;stroke:#ffffff;stroke-width:6.99997;stroke-linecap:butt;stroke-linejoin:miter;stroke-miterlimit:4;stroke-dasharray:none;stroke-opacity:1"
       transform="matrix(0.13333333,0,0,-0.13333333,0,36.04)" />
    <path
       id="path11"
       d="m 184.922,48.9492 h -48.067 l 23.309,-28.9531 24.758,28.9531"
       style="fill:#ffffff;fill-opacity:1;fill-rule:nonzero;stroke:none"
       transform="matrix(0.13333333,0,0,-0.13333333,0,36.04)" />
    <path
       id="path12"
       d="M 184.922,48.9492 H 136.855 L 160.164,19.9961 Z"
       style="fill:none;stroke:#ffffff;stroke-width:1.99997;stroke-linecap:butt;stroke-linejoin:miter;stroke-miterlimit:4;stroke-dasharray:none;stroke-opacity:1"
       transform="matrix(0.13333333,0,0,-0.13333333,0,36.04)" />
    <path
       id="path13"
       d="M 114.922,68.3633 H 34.1992"
       style="fill:none;stroke:#ffffff;stroke-width:6.99997;stroke-linecap:butt;stroke-linejoin:miter;stroke-miterlimit:4;stroke-dasharray:none;stroke-opacity:1"
       transform="matrix(0.13333333,0,0,-0.13333333,0,36.04)" />
    <path
       id="path14"
       d="M 47.0508,44.5156 V 92.5938 L 18.0859,69.4961 47.0508,44.5156"
       style="fill:#ffffff;fill-opacity:1;fill-rule:nonzero;stroke:#ffffff;stroke-width:1.99997;stroke-linecap:butt;stroke-linejoin:miter;stroke-miterlimit:4;stroke-dasharray:none;stroke-opacity:1"
       transform="matrix(0.13333333,0,0,-0.13333333,0,36.04)" />
    <path
       id="path15"
       d="M 220.715,224.742 H 5.71094 L 60.2148,268.238 H 265.715 V 267.992 49.8672 L 221.211,4.86719 V 223.492 l -0.496,1.25"
       style="fill:#036998;fill-opacity:1;fill-rule:nonzero;stroke:none"
       transform="matrix(0.13333333,0,0,-0.13333333,0,36.04)" />
    <path
       id="path16"
       d="M 220.715,224.742 H 5.71094 L 60.2148,268.238 H 265.715 V 267.992 49.8672 L 221.211,4.86719 V 223.492 Z"
       style="fill:none;stroke:#ffffff;stroke-width:3.99994;stroke-linecap:butt;stroke-linejoin:miter;stroke-miterlimit:4;stroke-dasharray:none;stroke-opacity:1"
       transform="matrix(0.13333333,0,0,-0.13333333,0,36.04)" />
    <path
       id="path17"
       d="m 221.094,225.102 45,43.75"
       style="fill:#036998;fill-opacity:1;fill-rule:nonzero;stroke:#ffffff;stroke-width:3.99994;stroke-linecap:butt;stroke-linejoin:miter;stroke-miterlimit:4;stroke-dasharray:none;stroke-opacity:1"
       transform="matrix(0.13333333,0,0,-0.13333333,0,36.04)" />
    <path
       id="path18"
       d="m 3.574215,-0.00128906 2.25,-6.56250004 H 4.46484 L 3.0351525,-1.6184766 1.5703088,-6.5637891 H 0.21093375 l 2.21484375,6.56250004 z m 0,0"
       style="fill:#ffffff;fill-opacity:1;fill-rule:nonzero;stroke:none"
       aria-label="V"
       transform="matrix(1.3333333,0,0,1.3333333,11.04688,25.49)" />
  </g>
</svg>
