<?xml version="1.0" encoding="UTF-8" standalone="no"?>
<!-- Created with Inkscape (http://www.inkscape.org/) -->

<svg
   version="1.1"
   id="svg1"
   width="47.880001"
   height="40.426666"
   viewBox="0 0 47.880001 40.426666"
   sodipodi:docname="workstation.eps"
   xmlns:inkscape="http://www.inkscape.org/namespaces/inkscape"
   xmlns:sodipodi="http://sodipodi.sourceforge.net/DTD/sodipodi-0.dtd"
   xmlns="http://www.w3.org/2000/svg"
   xmlns:svg="http://www.w3.org/2000/svg">
  <defs
     id="defs1">
    <clipPath
       clipPathUnits="userSpaceOnUse"
       id="clipPath2">
      <path
         d="M 0,3 V 303 H 359 V 3 Z"
         id="path2" />
    </clipPath>
    <clipPath
       clipPathUnits="userSpaceOnUse"
       id="clipPath4">
      <path
         d="M 0,3 V 303 H 359 V 3 Z"
         id="path4" />
    </clipPath>
    <clipPath
       clipPathUnits="userSpaceOnUse"
       id="clipPath6">
      <path
         d="M 0,3 V 303 H 359 V 3 Z"
         id="path6" />
    </clipPath>
    <clipPath
       clipPathUnits="userSpaceOnUse"
       id="clipPath8">
      <path
         d="M 0,3 V 303 H 359 V 3 Z"
         id="path8" />
    </clipPath>
    <clipPath
       clipPathUnits="userSpaceOnUse"
       id="clipPath10">
      <path
         d="M 0,3 V 303 H 359 V 3 Z"
         id="path10" />
    </clipPath>
    <clipPath
       clipPathUnits="userSpaceOnUse"
       id="clipPath12">
      <path
         d="M 0,3 V 303 H 359 V 3 Z"
         id="path12" />
    </clipPath>
    <clipPath
       clipPathUnits="userSpaceOnUse"
       id="clipPath14">
      <path
         d="M 0,3 V 303 H 359 V 3 Z"
         id="path14" />
    </clipPath>
    <clipPath
       clipPathUnits="userSpaceOnUse"
       id="clipPath16">
      <path
         d="M 0,3 V 303 H 359 V 3 Z"
         id="path16" />
    </clipPath>
    <clipPath
       clipPathUnits="userSpaceOnUse"
       id="clipPath18">
      <path
         d="M 0,3 V 303 H 359 V 3 Z"
         id="path18" />
    </clipPath>
    <clipPath
       clipPathUnits="userSpaceOnUse"
       id="clipPath20">
      <path
         d="M 0,3 V 303 H 359 V 3 Z"
         id="path20" />
    </clipPath>
    <clipPath
       clipPathUnits="userSpaceOnUse"
       id="clipPath22">
      <path
         d="M 0,3 V 303 H 359 V 3 Z"
         id="path22" />
    </clipPath>
    <clipPath
       clipPathUnits="userSpaceOnUse"
       id="clipPath24">
      <path
         d="M 0,3 V 303 H 359 V 3 Z"
         id="path24" />
    </clipPath>
    <clipPath
       clipPathUnits="userSpaceOnUse"
       id="clipPath26">
      <path
         d="M 0,3 V 303 H 359 V 3 Z"
         id="path26" />
    </clipPath>
    <clipPath
       clipPathUnits="userSpaceOnUse"
       id="clipPath28">
      <path
         d="M 0,3 V 303 H 359 V 3 Z"
         id="path28" />
    </clipPath>
    <clipPath
       clipPathUnits="userSpaceOnUse"
       id="clipPath30">
      <path
         d="M 0,3 V 303 H 359 V 3 Z"
         id="path30" />
    </clipPath>
    <clipPath
       clipPathUnits="userSpaceOnUse"
       id="clipPath32">
      <path
         d="M 0,3 V 303 H 359 V 3 Z"
         id="path32" />
    </clipPath>
    <clipPath
       clipPathUnits="userSpaceOnUse"
       id="clipPath34">
      <path
         d="M 0,3 V 303 H 359 V 3 Z"
         id="path34" />
    </clipPath>
    <clipPath
       clipPathUnits="userSpaceOnUse"
       id="clipPath36">
      <path
         d="M 0,3 V 303 H 359 V 3 Z"
         id="path36" />
    </clipPath>
    <clipPath
       clipPathUnits="userSpaceOnUse"
       id="clipPath38">
      <path
         d="M 0,3 V 303 H 359 V 3 Z"
         id="path38" />
    </clipPath>
    <clipPath
       clipPathUnits="userSpaceOnUse"
       id="clipPath40">
      <path
         d="M 0,3 V 303 H 359 V 3 Z"
         id="path40" />
    </clipPath>
    <clipPath
       clipPathUnits="userSpaceOnUse"
       id="clipPath42">
      <path
         d="M 0,3 V 303 H 359 V 3 Z"
         id="path42" />
    </clipPath>
    <clipPath
       clipPathUnits="userSpaceOnUse"
       id="clipPath44">
      <path
         d="M 0,3 V 303 H 359 V 3 Z"
         id="path44" />
    </clipPath>
    <clipPath
       clipPathUnits="userSpaceOnUse"
       id="clipPath46">
      <path
         d="M 0,3 V 303 H 359 V 3 Z"
         id="path46" />
    </clipPath>
    <clipPath
       clipPathUnits="userSpaceOnUse"
       id="clipPath48">
      <path
         d="M 0,3 V 303 H 359 V 3 Z"
         id="path48" />
    </clipPath>
    <clipPath
       clipPathUnits="userSpaceOnUse"
       id="clipPath50">
      <path
         d="M 0,3 V 303 H 359 V 3 Z"
         id="path50" />
    </clipPath>
    <clipPath
       clipPathUnits="userSpaceOnUse"
       id="clipPath52">
      <path
         d="M 0,3 V 303 H 359 V 3 Z"
         id="path52" />
    </clipPath>
    <clipPath
       clipPathUnits="userSpaceOnUse"
       id="clipPath54">
      <path
         d="M 0,3 V 303 H 359 V 3 Z"
         id="path54" />
    </clipPath>
    <clipPath
       clipPathUnits="userSpaceOnUse"
       id="clipPath56">
      <path
         d="M 0,3 V 303 H 359 V 3 Z"
         id="path56" />
    </clipPath>
    <clipPath
       clipPathUnits="userSpaceOnUse"
       id="clipPath58">
      <path
         d="M 0,3 V 303 H 359 V 3 Z"
         id="path58" />
    </clipPath>
    <clipPath
       clipPathUnits="userSpaceOnUse"
       id="clipPath60">
      <path
         d="M 0,3 V 303 H 359 V 3 Z"
         id="path60" />
    </clipPath>
    <clipPath
       clipPathUnits="userSpaceOnUse"
       id="clipPath62">
      <path
         d="M 0,3 V 303 H 359 V 3 Z"
         id="path62" />
    </clipPath>
    <clipPath
       clipPathUnits="userSpaceOnUse"
       id="clipPath64">
      <path
         d="M 0,3 V 303 H 359 V 3 Z"
         id="path64" />
    </clipPath>
    <clipPath
       clipPathUnits="userSpaceOnUse"
       id="clipPath66">
      <path
         d="M 0,3 V 303 H 359 V 3 Z"
         id="path66" />
    </clipPath>
    <clipPath
       clipPathUnits="userSpaceOnUse"
       id="clipPath68">
      <path
         d="M 0,3 V 303 H 359 V 3 Z"
         id="path68" />
    </clipPath>
    <clipPath
       clipPathUnits="userSpaceOnUse"
       id="clipPath70">
      <path
         d="M 0,3 V 303 H 359 V 3 Z"
         id="path70" />
    </clipPath>
    <clipPath
       clipPathUnits="userSpaceOnUse"
       id="clipPath72">
      <path
         d="M 0,3 V 303 H 359 V 3 Z"
         id="path72" />
    </clipPath>
    <clipPath
       clipPathUnits="userSpaceOnUse"
       id="clipPath74">
      <path
         d="M 0,3 V 303 H 359 V 3 Z"
         id="path74" />
    </clipPath>
    <clipPath
       clipPathUnits="userSpaceOnUse"
       id="clipPath76">
      <path
         d="M 0,3 V 303 H 359 V 3 Z"
         id="path76" />
    </clipPath>
    <clipPath
       clipPathUnits="userSpaceOnUse"
       id="clipPath78">
      <path
         d="M 0,3 V 303 H 359 V 3 Z"
         id="path78" />
    </clipPath>
    <clipPath
       clipPathUnits="userSpaceOnUse"
       id="clipPath80">
      <path
         d="M 0,3 V 303 H 359 V 3 Z"
         id="path80" />
    </clipPath>
    <clipPath
       clipPathUnits="userSpaceOnUse"
       id="clipPath82">
      <path
         d="M 0,3 V 303 H 359 V 3 Z"
         id="path82" />
    </clipPath>
    <clipPath
       clipPathUnits="userSpaceOnUse"
       id="clipPath84">
      <path
         d="M 0,3 V 303 H 359 V 3 Z"
         id="path84" />
    </clipPath>
    <clipPath
       clipPathUnits="userSpaceOnUse"
       id="clipPath86">
      <path
         d="M 0,3 V 303 H 359 V 3 Z"
         id="path86" />
    </clipPath>
    <clipPath
       clipPathUnits="userSpaceOnUse"
       id="clipPath88">
      <path
         d="M 0,3 V 303 H 359 V 3 Z"
         id="path88" />
    </clipPath>
  </defs>
  <sodipodi:namedview
     id="namedview1"
     pagecolor="#505050"
     bordercolor="#eeeeee"
     borderopacity="1"
     inkscape:showpageshadow="0"
     inkscape:pageopacity="0"
     inkscape:pagecheckerboard="0"
     inkscape:deskcolor="#d1d1d1">
    <inkscape:page
       x="0"
       y="0"
       inkscape:label="1"
       id="page1"
       width="47.880001"
       height="40.426666"
       margin="0"
       bleed="0" />
  </sodipodi:namedview>
  <g
     id="g1"
     inkscape:groupmode="layer"
     inkscape:label="1">
    <path
       id="path1"
       d="m 326.262,47.8906 c 4.058,4.8828 -18.164,11.5235 6.851,15.625 15.996,2.6367 64.399,31.0821 -49.121,32.5703"
       style="fill:none;stroke:#000000;stroke-width:3.99994;stroke-linecap:round;stroke-linejoin:round;stroke-miterlimit:4;stroke-dasharray:none;stroke-opacity:1"
       transform="matrix(0.13333333,0,0,-0.13333333,0,40.426667)"
       clip-path="url(#clipPath2)" />
    <path
       id="path3"
       d="m 66.5586,56.2109 h 183.508 V 83.9257 H 66.5586 Z"
       style="fill:#036998;fill-opacity:1;fill-rule:nonzero;stroke:none"
       transform="matrix(0.13333333,0,0,-0.13333333,0,40.426667)"
       clip-path="url(#clipPath4)" />
    <path
       id="path5"
       d="M 66.5586,56.2109 V 83.9258 H 250.066 V 56.2109 Z"
       style="fill:none;stroke:#ffffff;stroke-width:3.99994;stroke-linecap:butt;stroke-linejoin:miter;stroke-miterlimit:4;stroke-dasharray:none;stroke-opacity:1"
       transform="matrix(0.13333333,0,0,-0.13333333,0,40.426667)"
       clip-path="url(#clipPath6)" />
    <path
       id="path7"
       d="m 249.895,56.1133 v 27.8125 l 37.007,37.6952 V 93.125 L 249.895,56.1133"
       style="fill:#036998;fill-opacity:1;fill-rule:nonzero;stroke:none"
       transform="matrix(0.13333333,0,0,-0.13333333,0,40.426667)"
       clip-path="url(#clipPath8)" />
    <path
       id="path9"
       d="m 249.895,56.1133 v 27.8125 l 37.007,37.6952 V 93.125 Z"
       style="fill:none;stroke:#ffffff;stroke-width:3.99994;stroke-linecap:butt;stroke-linejoin:miter;stroke-miterlimit:4;stroke-dasharray:none;stroke-opacity:1"
       transform="matrix(0.13333333,0,0,-0.13333333,0,40.426667)"
       clip-path="url(#clipPath10)" />
    <path
       id="path11"
       d="m 66.5586,51.2109 h 183.508 V 83.9257 H 66.5586 Z"
       style="fill:#036998;fill-opacity:1;fill-rule:nonzero;stroke:none"
       transform="matrix(0.13333333,0,0,-0.13333333,0,40.426667)"
       clip-path="url(#clipPath12)" />
    <path
       id="path13"
       d="M 66.5586,51.2109 V 83.9258 H 250.066 V 51.2109 Z"
       style="fill:none;stroke:#ffffff;stroke-width:3.99994;stroke-linecap:butt;stroke-linejoin:miter;stroke-miterlimit:4;stroke-dasharray:none;stroke-opacity:1"
       transform="matrix(0.13333333,0,0,-0.13333333,0,40.426667)"
       clip-path="url(#clipPath14)" />
    <path
       id="path15"
       d="m 249.895,51.1133 v 32.8125 l 37.007,37.6952 V 88.125 L 249.895,51.1133"
       style="fill:#036998;fill-opacity:1;fill-rule:nonzero;stroke:none"
       transform="matrix(0.13333333,0,0,-0.13333333,0,40.426667)"
       clip-path="url(#clipPath16)" />
    <path
       id="path17"
       d="m 249.895,51.1133 v 32.8125 l 37.007,37.6952 V 88.125 Z"
       style="fill:none;stroke:#ffffff;stroke-width:3.99994;stroke-linecap:butt;stroke-linejoin:miter;stroke-miterlimit:4;stroke-dasharray:none;stroke-opacity:1"
       transform="matrix(0.13333333,0,0,-0.13333333,0,40.426667)"
       clip-path="url(#clipPath18)" />
    <path
       id="path19"
       d="M 299.758,126.621 273.816,88.9258 H 45.4453 L 82.2031,126.621 H 299.758"
       style="fill:#036998;fill-opacity:1;fill-rule:nonzero;stroke:none"
       transform="matrix(0.13333333,0,0,-0.13333333,0,40.426667)"
       clip-path="url(#clipPath20)" />
    <path
       id="path21"
       d="M 299.758,126.621 273.816,88.9258 H 45.4453 l 36.7578,37.6952 z"
       style="fill:none;stroke:#ffffff;stroke-width:3.99994;stroke-linecap:butt;stroke-linejoin:miter;stroke-miterlimit:4;stroke-dasharray:none;stroke-opacity:1"
       transform="matrix(0.13333333,0,0,-0.13333333,0,40.426667)"
       clip-path="url(#clipPath22)" />
    <path
       id="path23"
       d="m 44.8984,76.2109 h 218.508 V 88.9257 H 44.8984 Z"
       style="fill:#036998;fill-opacity:1;fill-rule:nonzero;stroke:none"
       transform="matrix(0.13333333,0,0,-0.13333333,0,40.426667)"
       clip-path="url(#clipPath24)" />
    <path
       id="path25"
       d="M 44.8984,76.2109 V 88.9258 H 263.406 V 76.2109 Z"
       style="fill:none;stroke:#ffffff;stroke-width:3.99994;stroke-linecap:butt;stroke-linejoin:miter;stroke-miterlimit:4;stroke-dasharray:none;stroke-opacity:1"
       transform="matrix(0.13333333,0,0,-0.13333333,0,40.426667)"
       clip-path="url(#clipPath26)" />
    <path
       id="path27"
       d="m 263.215,76.1133 v 12.8125 l 37.027,37.6952 V 113.125 L 263.215,76.1133"
       style="fill:#036998;fill-opacity:1;fill-rule:nonzero;stroke:none"
       transform="matrix(0.13333333,0,0,-0.13333333,0,40.426667)"
       clip-path="url(#clipPath28)" />
    <path
       id="path29"
       d="m 263.215,76.1133 v 12.8125 l 37.027,37.6952 v -13.496 z"
       style="fill:none;stroke:#ffffff;stroke-width:3.99994;stroke-linecap:butt;stroke-linejoin:miter;stroke-miterlimit:4;stroke-dasharray:none;stroke-opacity:1"
       transform="matrix(0.13333333,0,0,-0.13333333,0,40.426667)"
       clip-path="url(#clipPath30)" />
    <path
       id="path31"
       d="M 299.758,126.621 273.816,88.9258 H 45.4453 L 82.2031,126.621 H 299.758"
       style="fill:#036998;fill-opacity:1;fill-rule:nonzero;stroke:none"
       transform="matrix(0.13333333,0,0,-0.13333333,0,40.426667)"
       clip-path="url(#clipPath32)" />
    <path
       id="path33"
       d="M 299.758,126.621 273.816,88.9258 H 45.4453 l 36.7578,37.6952 z"
       style="fill:none;stroke:#ffffff;stroke-width:3.99994;stroke-linecap:butt;stroke-linejoin:miter;stroke-miterlimit:4;stroke-dasharray:none;stroke-opacity:1"
       transform="matrix(0.13333333,0,0,-0.13333333,0,40.426667)"
       clip-path="url(#clipPath34)" />
    <path
       id="path35"
       d="m 44.8984,76.2109 h 218.508 V 88.9257 H 44.8984 Z"
       style="fill:#036998;fill-opacity:1;fill-rule:nonzero;stroke:none"
       transform="matrix(0.13333333,0,0,-0.13333333,0,40.426667)"
       clip-path="url(#clipPath36)" />
    <path
       id="path37"
       d="M 44.8984,76.2109 V 88.9258 H 263.406 V 76.2109 Z"
       style="fill:none;stroke:#ffffff;stroke-width:3.99994;stroke-linecap:butt;stroke-linejoin:miter;stroke-miterlimit:4;stroke-dasharray:none;stroke-opacity:1"
       transform="matrix(0.13333333,0,0,-0.13333333,0,40.426667)"
       clip-path="url(#clipPath38)" />
    <path
       id="path39"
       d="m 263.215,76.1133 v 12.8125 l 37.027,37.6952 V 113.125 L 263.215,76.1133"
       style="fill:#036998;fill-opacity:1;fill-rule:nonzero;stroke:none"
       transform="matrix(0.13333333,0,0,-0.13333333,0,40.426667)"
       clip-path="url(#clipPath40)" />
    <path
       id="path41"
       d="m 263.215,76.1133 v 12.8125 l 37.027,37.6952 v -13.496 z"
       style="fill:none;stroke:#ffffff;stroke-width:3.99994;stroke-linecap:butt;stroke-linejoin:miter;stroke-miterlimit:4;stroke-dasharray:none;stroke-opacity:1"
       transform="matrix(0.13333333,0,0,-0.13333333,0,40.426667)"
       clip-path="url(#clipPath42)" />
    <path
       id="path43"
       d="M 300.945,299.922 H 103.609 L 45.8555,286.336 H 274.441 l 26.504,13.586"
       style="fill:#036998;fill-opacity:1;fill-rule:nonzero;stroke:none"
       transform="matrix(0.13333333,0,0,-0.13333333,0,40.426667)"
       clip-path="url(#clipPath44)" />
    <path
       id="path45"
       d="M 300.945,299.922 H 103.609 L 45.8555,286.336 H 274.441 Z"
       style="fill:none;stroke:#ffffff;stroke-width:3.99994;stroke-linecap:butt;stroke-linejoin:miter;stroke-miterlimit:4;stroke-dasharray:none;stroke-opacity:1"
       transform="matrix(0.13333333,0,0,-0.13333333,0,40.426667)"
       clip-path="url(#clipPath46)" />
    <path
       id="path47"
       d="m 264.563,104.922 -10.098,8.34 H 69.0586 l 9.7852,-8.34 H 264.563"
       style="fill:#036998;fill-opacity:1;fill-rule:nonzero;stroke:none"
       transform="matrix(0.13333333,0,0,-0.13333333,0,40.426667)"
       clip-path="url(#clipPath48)" />
    <path
       id="path49"
       d="m 264.563,104.922 -10.098,8.34 H 69.0586 l 9.7852,-8.34 z"
       style="fill:none;stroke:#ffffff;stroke-width:3.99994;stroke-linecap:butt;stroke-linejoin:miter;stroke-miterlimit:4;stroke-dasharray:none;stroke-opacity:1"
       transform="matrix(0.13333333,0,0,-0.13333333,0,40.426667)"
       clip-path="url(#clipPath50)" />
    <path
       id="path51"
       d="m 265.691,106.379 -12.769,8.543 47.266,25 -30.43,-30.098 -4.067,-3.445"
       style="fill:#036998;fill-opacity:1;fill-rule:nonzero;stroke:none"
       transform="matrix(0.13333333,0,0,-0.13333333,0,40.426667)"
       clip-path="url(#clipPath52)" />
    <path
       id="path53"
       d="m 265.691,106.379 -12.769,8.543 47.266,25 -30.43,-30.098 z"
       style="fill:none;stroke:#ffffff;stroke-width:3.99994;stroke-linecap:butt;stroke-linejoin:miter;stroke-miterlimit:4;stroke-dasharray:none;stroke-opacity:1"
       transform="matrix(0.13333333,0,0,-0.13333333,0,40.426667)"
       clip-path="url(#clipPath54)" />
    <path
       id="path55"
       d="M 274.441,286.336 V 115.867 l 26.504,24.629 v 159.426 l -26.504,-13.586"
       style="fill:#036998;fill-opacity:1;fill-rule:nonzero;stroke:none"
       transform="matrix(0.13333333,0,0,-0.13333333,0,40.426667)"
       clip-path="url(#clipPath56)" />
    <path
       id="path57"
       d="M 274.441,286.336 V 115.867 l 26.504,24.629 v 159.426 z"
       style="fill:none;stroke:#ffffff;stroke-width:3.99994;stroke-linecap:butt;stroke-linejoin:miter;stroke-miterlimit:4;stroke-dasharray:none;stroke-opacity:1"
       transform="matrix(0.13333333,0,0,-0.13333333,0,40.426667)"
       clip-path="url(#clipPath58)" />
    <path
       id="path59"
       d="m 45.8555,113.992 h 228.586 V 286.336 H 45.8555 Z"
       style="fill:#036998;fill-opacity:1;fill-rule:nonzero;stroke:none"
       transform="matrix(0.13333333,0,0,-0.13333333,0,40.426667)"
       clip-path="url(#clipPath60)" />
    <path
       id="path61"
       d="M 274.441,113.992 V 286.336 H 45.8555 V 113.992 Z"
       style="fill:none;stroke:#ffffff;stroke-width:3.99994;stroke-linecap:butt;stroke-linejoin:miter;stroke-miterlimit:4;stroke-dasharray:none;stroke-opacity:1"
       transform="matrix(0.13333333,0,0,-0.13333333,0,40.426667)"
       clip-path="url(#clipPath62)" />
    <path
       id="path63"
       d="M 255.227,6.48438 V 19.7461 L 283.84,59.3047 V 35.0898 L 255.227,6.48438"
       style="fill:#036998;fill-opacity:1;fill-rule:nonzero;stroke:none"
       transform="matrix(0.13333333,0,0,-0.13333333,0,40.426667)"
       clip-path="url(#clipPath64)" />
    <path
       id="path65"
       d="M 255.227,6.48438 V 19.7461 L 283.84,59.3047 V 35.0898 Z"
       style="fill:none;stroke:#ffffff;stroke-width:3.99994;stroke-linecap:butt;stroke-linejoin:miter;stroke-miterlimit:4;stroke-dasharray:none;stroke-opacity:1"
       transform="matrix(0.13333333,0,0,-0.13333333,0,40.426667)"
       clip-path="url(#clipPath66)" />
    <path
       id="path67"
       d="m 3.10156,6.48438 h 252.125 v 13.0664 H 3.10156 Z"
       style="fill:#036998;fill-opacity:1;fill-rule:nonzero;stroke:none"
       transform="matrix(0.13333333,0,0,-0.13333333,0,40.426667)"
       clip-path="url(#clipPath68)" />
    <path
       id="path69"
       d="M 255.227,19.5508 V 6.48438 H 3.10156 V 19.5508 Z"
       style="fill:none;stroke:#ffffff;stroke-width:3.99994;stroke-linecap:butt;stroke-linejoin:miter;stroke-miterlimit:4;stroke-dasharray:none;stroke-opacity:1"
       transform="matrix(0.13333333,0,0,-0.13333333,0,40.426667)"
       clip-path="url(#clipPath70)" />
    <path
       id="path71"
       d="M 326.926,16.9414 343.66,50.3906 H 305.438 L 288.723,16.9414 h 38.203"
       style="fill:#036998;fill-opacity:1;fill-rule:nonzero;stroke:none"
       transform="matrix(0.13333333,0,0,-0.13333333,0,40.426667)"
       clip-path="url(#clipPath72)" />
    <path
       id="path73"
       d="M 326.926,16.9414 343.66,50.3906 H 305.438 L 288.723,16.9414 Z"
       style="fill:none;stroke:#ffffff;stroke-width:3.99994;stroke-linecap:butt;stroke-linejoin:miter;stroke-miterlimit:4;stroke-dasharray:none;stroke-opacity:1"
       transform="matrix(0.13333333,0,0,-0.13333333,0,40.426667)"
       clip-path="url(#clipPath74)" />
    <path
       id="path75"
       d="m 288.723,6.19141 h 38.2031 v 10.75 H 288.723 Z"
       style="fill:#036998;fill-opacity:1;fill-rule:nonzero;stroke:none"
       transform="matrix(0.13333333,0,0,-0.13333333,0,40.426667)"
       clip-path="url(#clipPath76)" />
    <path
       id="path77"
       d="m 288.723,16.9414 h 38.203 V 6.19141 h -38.203 z"
       style="fill:none;stroke:#ffffff;stroke-width:3.99994;stroke-linecap:butt;stroke-linejoin:miter;stroke-miterlimit:4;stroke-dasharray:none;stroke-opacity:1"
       transform="matrix(0.13333333,0,0,-0.13333333,0,40.426667)"
       clip-path="url(#clipPath78)" />
    <path
       id="path79"
       d="M 326.633,5.89844 326.73,16.9414 343.445,50.3906 343.352,27.4023 326.633,5.89844"
       style="fill:#036998;fill-opacity:1;fill-rule:nonzero;stroke:#ffffff;stroke-width:3.99994;stroke-linecap:butt;stroke-linejoin:miter;stroke-miterlimit:4;stroke-dasharray:none;stroke-opacity:1"
       transform="matrix(0.13333333,0,0,-0.13333333,0,40.426667)"
       clip-path="url(#clipPath80)" />
    <path
       id="path81"
       d="M 255.227,19.5508 H 3.90234 L 32.5039,59.3047 H 283.84 L 255.227,19.5508"
       style="fill:#036998;fill-opacity:1;fill-rule:nonzero;stroke:none"
       transform="matrix(0.13333333,0,0,-0.13333333,0,40.426667)"
       clip-path="url(#clipPath82)" />
    <path
       id="path83"
       d="M 255.227,19.5508 H 3.90234 L 32.5039,59.3047 H 283.84 Z"
       style="fill:none;stroke:#ffffff;stroke-width:3.99994;stroke-linecap:butt;stroke-linejoin:miter;stroke-miterlimit:4;stroke-dasharray:none;stroke-opacity:1"
       transform="matrix(0.13333333,0,0,-0.13333333,0,40.426667)"
       clip-path="url(#clipPath84)" />
    <path
       id="path85"
       d="M 79.0586,268.34 H 239.602 c 10.449,0 18.906,-8.469 18.906,-18.918 V 148.008 c 0,-10.449 -8.457,-18.926 -18.906,-18.926 H 79.0586 c -10.4492,0 -18.918,8.477 -18.918,18.926 v 101.414 c 0,10.449 8.4688,18.918 18.918,18.918"
       style="fill:#036998;fill-opacity:1;fill-rule:nonzero;stroke:none"
       transform="matrix(0.13333333,0,0,-0.13333333,0,40.426667)"
       clip-path="url(#clipPath86)" />
    <path
       id="path87"
       d="M 79.0586,268.34 H 239.602 c 10.449,0 18.906,-8.469 18.906,-18.918 V 148.008 c 0,-10.449 -8.457,-18.926 -18.906,-18.926 H 79.0586 c -10.4492,0 -18.918,8.477 -18.918,18.926 v 101.414 c 0,10.449 8.4688,18.918 18.918,18.918 z"
       style="fill:none;stroke:#ffffff;stroke-width:3.99994;stroke-linecap:butt;stroke-linejoin:miter;stroke-miterlimit:4;stroke-dasharray:none;stroke-opacity:1"
       transform="matrix(0.13333333,0,0,-0.13333333,0,40.426667)"
       clip-path="url(#clipPath88)" />
  </g>
</svg>
