<?xml version="1.0" encoding="UTF-8" standalone="no"?>
<!-- Created with Inkscape (http://www.inkscape.org/) -->

<svg
   version="1.1"
   id="svg1"
   width="40.386665"
   height="41.959999"
   viewBox="0 0 40.386665 41.959999"
   sodipodi:docname="web browser.eps"
   xmlns:inkscape="http://www.inkscape.org/namespaces/inkscape"
   xmlns:sodipodi="http://sodipodi.sourceforge.net/DTD/sodipodi-0.dtd"
   xmlns="http://www.w3.org/2000/svg"
   xmlns:svg="http://www.w3.org/2000/svg">
  <defs
     id="defs1">
    <clipPath
       clipPathUnits="userSpaceOnUse"
       id="clipPath2">
      <path
         d="M 0,4 V 315 H 300 V 4 Z"
         id="path2" />
    </clipPath>
    <clipPath
       clipPathUnits="userSpaceOnUse"
       id="clipPath4">
      <path
         d="M 0,4 V 315 H 300 V 4 Z"
         id="path4" />
    </clipPath>
    <clipPath
       clipPathUnits="userSpaceOnUse"
       id="clipPath6">
      <path
         d="M 0,4 V 315 H 300 V 4 Z"
         id="path6" />
    </clipPath>
    <clipPath
       clipPathUnits="userSpaceOnUse"
       id="clipPath8">
      <path
         d="M 0,4 V 315 H 300 V 4 Z"
         id="path8" />
    </clipPath>
    <clipPath
       clipPathUnits="userSpaceOnUse"
       id="clipPath10">
      <path
         d="M 0,4 V 315 H 300 V 4 Z"
         id="path10" />
    </clipPath>
    <clipPath
       clipPathUnits="userSpaceOnUse"
       id="clipPath12">
      <path
         d="M 0,4 V 315 H 300 V 4 Z"
         id="path12" />
    </clipPath>
    <clipPath
       clipPathUnits="userSpaceOnUse"
       id="clipPath14">
      <path
         d="M 0,4 V 315 H 300 V 4 Z"
         id="path14" />
    </clipPath>
    <clipPath
       clipPathUnits="userSpaceOnUse"
       id="clipPath16">
      <path
         d="M 0,4 V 315 H 300 V 4 Z"
         id="path16" />
    </clipPath>
    <clipPath
       clipPathUnits="userSpaceOnUse"
       id="clipPath18">
      <path
         d="M 0,4 V 315 H 300 V 4 Z"
         id="path18" />
    </clipPath>
    <clipPath
       clipPathUnits="userSpaceOnUse"
       id="clipPath20">
      <path
         d="M 0,4 V 315 H 300 V 4 Z"
         id="path20" />
    </clipPath>
    <clipPath
       clipPathUnits="userSpaceOnUse"
       id="clipPath22">
      <path
         d="M 0,4 V 315 H 300 V 4 Z"
         id="path22" />
    </clipPath>
    <clipPath
       clipPathUnits="userSpaceOnUse"
       id="clipPath24">
      <path
         d="M 0,4 V 315 H 300 V 4 Z"
         id="path24" />
    </clipPath>
    <clipPath
       clipPathUnits="userSpaceOnUse"
       id="clipPath26">
      <path
         d="M 0,4 V 315 H 300 V 4 Z"
         id="path26" />
    </clipPath>
    <clipPath
       clipPathUnits="userSpaceOnUse"
       id="clipPath28">
      <path
         d="M 0,4 V 315 H 300 V 4 Z"
         id="path28" />
    </clipPath>
    <clipPath
       clipPathUnits="userSpaceOnUse"
       id="clipPath30">
      <path
         d="M 0,4 V 315 H 300 V 4 Z"
         id="path30" />
    </clipPath>
    <clipPath
       clipPathUnits="userSpaceOnUse"
       id="clipPath32">
      <path
         d="M 0,4 V 315 H 300 V 4 Z"
         id="path32" />
    </clipPath>
    <clipPath
       clipPathUnits="userSpaceOnUse"
       id="clipPath34">
      <path
         d="M 0,4 V 315 H 300 V 4 Z"
         id="path34" />
    </clipPath>
    <clipPath
       clipPathUnits="userSpaceOnUse"
       id="clipPath36">
      <path
         d="M 0,4 V 315 H 300 V 4 Z"
         id="path36" />
    </clipPath>
    <clipPath
       clipPathUnits="userSpaceOnUse"
       id="clipPath38">
      <path
         d="M 0,4 V 315 H 300 V 4 Z"
         id="path38" />
    </clipPath>
  </defs>
  <sodipodi:namedview
     id="namedview1"
     pagecolor="#505050"
     bordercolor="#eeeeee"
     borderopacity="1"
     inkscape:showpageshadow="0"
     inkscape:pageopacity="0"
     inkscape:pagecheckerboard="0"
     inkscape:deskcolor="#d1d1d1">
    <inkscape:page
       x="0"
       y="0"
       inkscape:label="1"
       id="page1"
       width="40.386665"
       height="41.959999"
       margin="0"
       bleed="0" />
  </sodipodi:namedview>
  <g
     id="g1"
     inkscape:groupmode="layer"
     inkscape:label="1">
    <path
       id="path1"
       d="m 41.7695,62.1875 3.75,44.8045 H 264.617 l -3.75,-44.8045 H 41.7695"
       style="fill:#036998;fill-opacity:1;fill-rule:nonzero;stroke:none"
       transform="matrix(0.13333333,0,0,-0.13333333,0,41.96)"
       clip-path="url(#clipPath2)" />
    <path
       id="path3"
       d="m 41.7695,62.1875 3.75,44.8045 H 264.617 l -3.75,-44.8045 z"
       style="fill:none;stroke:#ffffff;stroke-width:3.99994;stroke-linecap:butt;stroke-linejoin:miter;stroke-miterlimit:4;stroke-dasharray:none;stroke-opacity:1"
       transform="matrix(0.13333333,0,0,-0.13333333,0,41.96)"
       clip-path="url(#clipPath4)" />
    <path
       id="path5"
       d="M 255.813,4.82422 V 17.9102 l 28.589,39.7265 V 33.418 L 255.813,4.82422"
       style="fill:#036998;fill-opacity:1;fill-rule:nonzero;stroke:none"
       transform="matrix(0.13333333,0,0,-0.13333333,0,41.96)"
       clip-path="url(#clipPath6)" />
    <path
       id="path7"
       d="M 255.813,4.82422 V 17.9102 l 28.589,39.7265 V 33.418 Z"
       style="fill:none;stroke:#ffffff;stroke-width:3.99994;stroke-linecap:butt;stroke-linejoin:miter;stroke-miterlimit:4;stroke-dasharray:none;stroke-opacity:1"
       transform="matrix(0.13333333,0,0,-0.13333333,0,41.96)"
       clip-path="url(#clipPath8)" />
    <path
       id="path9"
       d="m 3.94531,4.82422 h 251.867 v 13.0859 H 3.94531 Z"
       style="fill:#036998;fill-opacity:1;fill-rule:nonzero;stroke:none"
       transform="matrix(0.13333333,0,0,-0.13333333,0,41.96)"
       clip-path="url(#clipPath10)" />
    <path
       id="path11"
       d="M 255.813,17.9102 V 4.82422 H 3.94531 V 17.9102 Z"
       style="fill:none;stroke:#ffffff;stroke-width:3.99994;stroke-linecap:butt;stroke-linejoin:miter;stroke-miterlimit:4;stroke-dasharray:none;stroke-opacity:1"
       transform="matrix(0.13333333,0,0,-0.13333333,0,41.96)"
       clip-path="url(#clipPath12)" />
    <path
       id="path13"
       d="m 43.2148,107.949 h 217.613 V 272.605 H 43.2148 Z"
       style="fill:#036998;fill-opacity:1;fill-rule:nonzero;stroke:none"
       transform="matrix(0.13333333,0,0,-0.13333333,0,41.96)"
       clip-path="url(#clipPath14)" />
    <path
       id="path15"
       d="M 43.2148,272.605 H 260.828 V 107.949 H 43.2148 Z"
       style="fill:none;stroke:#ffffff;stroke-width:3.99994;stroke-linecap:butt;stroke-linejoin:miter;stroke-miterlimit:4;stroke-dasharray:none;stroke-opacity:1"
       transform="matrix(0.13333333,0,0,-0.13333333,0,41.96)"
       clip-path="url(#clipPath16)" />
    <path
       id="path17"
       d="m 260.828,107.949 37.27,37.266 v 164.652 l -37.27,-37.262 V 107.949"
       style="fill:#036998;fill-opacity:1;fill-rule:nonzero;stroke:none"
       transform="matrix(0.13333333,0,0,-0.13333333,0,41.96)"
       clip-path="url(#clipPath18)" />
    <path
       id="path19"
       d="m 260.828,107.949 37.27,37.266 v 164.652 l -37.27,-37.262 z"
       style="fill:none;stroke:#ffffff;stroke-width:3.99994;stroke-linecap:butt;stroke-linejoin:miter;stroke-miterlimit:4;stroke-dasharray:none;stroke-opacity:1"
       transform="matrix(0.13333333,0,0,-0.13333333,0,41.96)"
       clip-path="url(#clipPath20)" />
    <path
       id="path21"
       d="M 255.813,17.9102 H 3.94531 L 33.0859,57.6367 H 284.402 L 255.813,17.9102"
       style="fill:#036998;fill-opacity:1;fill-rule:nonzero;stroke:none"
       transform="matrix(0.13333333,0,0,-0.13333333,0,41.96)"
       clip-path="url(#clipPath22)" />
    <path
       id="path23"
       d="M 255.813,17.9102 H 3.94531 L 33.0859,57.6367 H 284.402 Z"
       style="fill:none;stroke:#ffffff;stroke-width:3.99994;stroke-linecap:butt;stroke-linejoin:miter;stroke-miterlimit:4;stroke-dasharray:none;stroke-opacity:1"
       transform="matrix(0.13333333,0,0,-0.13333333,0,41.96)"
       clip-path="url(#clipPath24)" />
    <path
       id="path25"
       d="m 262.141,57.3906 v 51.5354 l 37.019,36.777 V 94.4141 L 262.141,57.3906"
       style="fill:#036998;fill-opacity:1;fill-rule:nonzero;stroke:none"
       transform="matrix(0.13333333,0,0,-0.13333333,0,41.96)"
       clip-path="url(#clipPath26)" />
    <path
       id="path27"
       d="m 262.141,57.3906 v 51.5354 l 37.019,36.777 V 94.4141 Z"
       style="fill:none;stroke:#ffffff;stroke-width:3.99994;stroke-linecap:butt;stroke-linejoin:miter;stroke-miterlimit:4;stroke-dasharray:none;stroke-opacity:1"
       transform="matrix(0.13333333,0,0,-0.13333333,0,41.96)"
       clip-path="url(#clipPath28)" />
    <path
       id="path29"
       d="M 78.6914,253.637 H 224.641 c 9.492,0 17.183,-7.699 17.183,-17.192 v -92.207 c 0,-9.492 -7.691,-17.199 -17.183,-17.199 H 78.6914 c -9.5,0 -17.1992,7.707 -17.1992,17.199 v 92.207 c 0,9.493 7.6992,17.192 17.1992,17.192"
       style="fill:#ffffff;fill-opacity:1;fill-rule:nonzero;stroke:none"
       transform="matrix(0.13333333,0,0,-0.13333333,0,41.96)"
       clip-path="url(#clipPath30)" />
    <path
       id="path31"
       d="M 298.098,309.867 H 85.6719 L 43.2148,272.605 H 260.828 l 37.27,37.262"
       style="fill:#036998;fill-opacity:1;fill-rule:nonzero;stroke:none"
       transform="matrix(0.13333333,0,0,-0.13333333,0,41.96)"
       clip-path="url(#clipPath32)" />
    <path
       id="path33"
       d="M 298.098,309.867 H 85.6719 L 43.2148,272.605 H 260.828 Z"
       style="fill:none;stroke:#ffffff;stroke-width:3.99994;stroke-linecap:butt;stroke-linejoin:miter;stroke-miterlimit:4;stroke-dasharray:none;stroke-opacity:1"
       transform="matrix(0.13333333,0,0,-0.13333333,0,41.96)"
       clip-path="url(#clipPath34)" />
    <path
       id="path35"
       d="m 126.211,224.004 c -26.6797,5.32 -40.7618,-8.34 -38.5469,-20.156 l 0.1875,-0.645 c -20.793,-3.535 -15.3399,-28.066 -5.3633,-28.066 l 0.9805,0.027 c -2.3243,-16.922 22.6762,-26.922 35.3322,-17.402 l 0.879,0.957 c 3.965,-16.102 57.715,-17.352 68.55,-5.301 l 0.981,-0.293 c 23.531,-1.887 34.258,14.375 29.117,26.055 l 1.274,0.351 c 8.015,2.129 8.945,20.653 -4.829,23.399 l 0.266,0.711 c 5.984,12.062 -8.113,23.429 -27.684,21.281 l -1.359,0.711 c -13.992,12.683 -54.308,10.617 -58.976,-1.922 l -0.809,0.293"
       style="fill:#036998;fill-opacity:1;fill-rule:nonzero;stroke:none"
       transform="matrix(0.13333333,0,0,-0.13333333,0,41.96)"
       clip-path="url(#clipPath36)" />
    <path
       id="path37"
       d="m 126.211,224.004 c -26.6797,5.32 -40.7618,-8.34 -38.5469,-20.156 l 0.1875,-0.645 c -20.793,-3.535 -15.3399,-28.066 -5.3633,-28.066 l 0.9805,0.027 c -2.3243,-16.922 22.6762,-26.922 35.3322,-17.402 l 0.879,0.957 c 3.965,-16.102 57.715,-17.352 68.55,-5.301 l 0.981,-0.293 c 23.531,-1.887 34.258,14.375 29.117,26.055 l 1.274,0.351 c 8.015,2.129 8.945,20.653 -4.829,23.399 l 0.266,0.711 c 5.984,12.062 -8.113,23.429 -27.684,21.281 l -1.359,0.711 c -13.992,12.683 -54.308,10.617 -58.976,-1.922 z"
       style="fill:none;stroke:#ffffff;stroke-width:3.99994;stroke-linecap:butt;stroke-linejoin:miter;stroke-miterlimit:4;stroke-dasharray:none;stroke-opacity:1"
       transform="matrix(0.13333333,0,0,-0.13333333,0,41.96)"
       clip-path="url(#clipPath38)" />
  </g>
</svg>
