<?xml version="1.0" encoding="UTF-8" standalone="no"?>
<!-- Created with Inkscape (http://www.inkscape.org/) -->

<svg
   version="1.1"
   id="svg1"
   width="49.533333"
   height="35.373333"
   viewBox="0 0 49.533333 35.373333"
   sodipodi:docname="detector.eps"
   xmlns:inkscape="http://www.inkscape.org/namespaces/inkscape"
   xmlns:sodipodi="http://sodipodi.sourceforge.net/DTD/sodipodi-0.dtd"
   xmlns="http://www.w3.org/2000/svg"
   xmlns:svg="http://www.w3.org/2000/svg">
  <defs
     id="defs1" />
  <sodipodi:namedview
     id="namedview1"
     pagecolor="#505050"
     bordercolor="#eeeeee"
     borderopacity="1"
     inkscape:showpageshadow="0"
     inkscape:pageopacity="0"
     inkscape:pagecheckerboard="0"
     inkscape:deskcolor="#d1d1d1">
    <inkscape:page
       x="0"
       y="0"
       inkscape:label="1"
       id="page1"
       width="49.533333"
       height="35.373333"
       margin="0"
       bleed="0" />
  </sodipodi:namedview>
  <g
     id="g1"
     inkscape:groupmode="layer"
     inkscape:label="1">
    <path
       id="path1"
       d="M 308.48,4.23828 V 213.75 H 7.13281 V 4.23828 H 308.48"
       style="fill:#087bbb;fill-opacity:1;fill-rule:nonzero;stroke:none"
       transform="matrix(0.13333333,0,0,-0.13333333,0,35.373333)" />
    <path
       id="path2"
       d="M 308.48,4.23828 V 213.75 H 7.13281 V 4.23828 Z"
       style="fill:none;stroke:#ffffff;stroke-width:4;stroke-linecap:butt;stroke-linejoin:miter;stroke-miterlimit:4;stroke-dasharray:none;stroke-opacity:1"
       transform="matrix(0.13333333,0,0,-0.13333333,0,35.373333)" />
    <path
       id="path3"
       d="m 308.48,213.75 57.454,47.316 H 84.8672 L 7.13281,213.75 H 308.48"
       style="fill:#087bbb;fill-opacity:1;fill-rule:nonzero;stroke:none"
       transform="matrix(0.13333333,0,0,-0.13333333,0,35.373333)" />
    <path
       id="path4"
       d="m 308.48,213.75 57.454,47.316 H 84.8672 L 7.13281,213.75 Z"
       style="fill:none;stroke:#ffffff;stroke-width:4;stroke-linecap:butt;stroke-linejoin:miter;stroke-miterlimit:4;stroke-dasharray:none;stroke-opacity:1"
       transform="matrix(0.13333333,0,0,-0.13333333,0,35.373333)" />
    <path
       id="path5"
       d="M 365.934,51.543 V 261.066 L 308.48,213.75 V 4.23828 L 365.934,51.543"
       style="fill:#087bbb;fill-opacity:1;fill-rule:nonzero;stroke:none"
       transform="matrix(0.13333333,0,0,-0.13333333,0,35.373333)" />
    <path
       id="path6"
       d="M 365.934,51.543 V 261.066 L 308.48,213.75 V 4.23828 Z"
       style="fill:none;stroke:#ffffff;stroke-width:4;stroke-linecap:butt;stroke-linejoin:miter;stroke-miterlimit:4;stroke-dasharray:none;stroke-opacity:1"
       transform="matrix(0.13333333,0,0,-0.13333333,0,35.373333)" />
    <path
       id="path7"
       d="m 26.6836,88.7813 h 90.0004 l 45,89.9997 62.5,-127.4997 22.5,37.5 h 45"
       style="fill:none;stroke:#ffffff;stroke-width:10;stroke-linecap:round;stroke-linejoin:round;stroke-miterlimit:4;stroke-dasharray:none;stroke-opacity:1"
       transform="matrix(0.13333333,0,0,-0.13333333,0,35.373333)" />
    <path
       id="path8"
       d="m 55.1016,14.6875 c 5.2734,0 9.5507,4.2773 9.5507,9.5508 0,5.2539 -4.2773,9.5312 -9.5507,9.5312 -5.2735,0 -9.5508,-4.2773 -9.5508,-9.5312 0,-5.2735 4.2773,-9.5508 9.5508,-9.5508"
       style="fill:#ffffff;fill-opacity:1;fill-rule:nonzero;stroke:none"
       transform="matrix(0.13333333,0,0,-0.13333333,0,35.373333)" />
    <path
       id="path9"
       d="m 55.1016,14.6875 c 5.2734,0 9.5507,4.2773 9.5507,9.5508 0,5.2539 -4.2773,9.5312 -9.5507,9.5312 -5.2735,0 -9.5508,-4.2773 -9.5508,-9.5312 0,-5.2735 4.2773,-9.5508 9.5508,-9.5508 z"
       style="fill:none;stroke:#000000;stroke-width:3.7;stroke-linecap:butt;stroke-linejoin:miter;stroke-miterlimit:4;stroke-dasharray:none;stroke-opacity:1"
       transform="matrix(0.13333333,0,0,-0.13333333,0,35.373333)" />
    <path
       id="path10"
       d="M 46.9297,34.4141 65.582,16.1914 118.285,70.1367 99.6328,88.3594 46.9297,34.4141"
       style="fill:#ffffff;fill-opacity:1;fill-rule:nonzero;stroke:#000000;stroke-width:3.7;stroke-linecap:butt;stroke-linejoin:miter;stroke-miterlimit:4;stroke-dasharray:none;stroke-opacity:1"
       transform="matrix(0.13333333,0,0,-0.13333333,0,35.373333)" />
    <path
       id="path11"
       d="m 92.1719,128.086 c 0,-39.4337 32.0901,-71.5235 71.5231,-71.5235 39.434,0 71.524,32.0898 71.524,71.5235 0,39.434 -32.09,71.523 -71.524,71.523 -39.433,0 -71.5231,-32.089 -71.5231,-71.523 z m 10.0001,0 c 0,33.926 27.598,61.523 61.523,61.523 33.918,0 61.524,-27.597 61.524,-61.523 0,-33.9258 -27.606,-61.5235 -61.524,-61.5235 -33.925,0 -61.523,27.5977 -61.523,61.5235"
       style="fill:#ffffff;fill-opacity:1;fill-rule:nonzero;stroke:none"
       transform="matrix(0.13333333,0,0,-0.13333333,0,35.373333)" />
    <path
       id="path12"
       d="m 92.1719,128.086 c 0,-39.4337 32.0901,-71.5235 71.5231,-71.5235 39.434,0 71.524,32.0898 71.524,71.5235 0,39.434 -32.09,71.523 -71.524,71.523 -39.433,0 -71.5231,-32.089 -71.5231,-71.523 z m 10.0001,0 c 0,33.926 27.598,61.523 61.523,61.523 33.918,0 61.524,-27.597 61.524,-61.523 0,-33.9258 -27.606,-61.5235 -61.524,-61.5235 -33.925,0 -61.523,27.5977 -61.523,61.5235 z"
       style="fill:none;stroke:#000000;stroke-width:3.7;stroke-linecap:butt;stroke-linejoin:miter;stroke-miterlimit:4;stroke-dasharray:none;stroke-opacity:1"
       transform="matrix(0.13333333,0,0,-0.13333333,0,35.373333)" />
    <path
       id="path13"
       d="m 83.793,123.965 c 0,-39.4337 32.09,-71.5236 71.523,-71.5236 39.426,0 71.516,32.0899 71.516,71.5236 0,39.433 -32.09,71.523 -71.516,71.523 -39.433,0 -71.523,-32.09 -71.523,-71.523 z m 10,0 c 0,33.926 27.598,61.523 61.523,61.523 33.918,0 61.516,-27.597 61.516,-61.523 0,-33.9259 -27.598,-61.5236 -61.516,-61.5236 -33.925,0 -61.523,27.5977 -61.523,61.5236"
       style="fill:#ffffff;fill-opacity:1;fill-rule:nonzero;stroke:none"
       transform="matrix(0.13333333,0,0,-0.13333333,0,35.373333)" />
    <path
       id="path14"
       d="m 83.793,123.965 c 0,-39.4337 32.09,-71.5236 71.523,-71.5236 39.426,0 71.516,32.0899 71.516,71.5236 0,39.433 -32.09,71.523 -71.516,71.523 -39.433,0 -71.523,-32.09 -71.523,-71.523 z m 10,0 c 0,33.926 27.598,61.523 61.523,61.523 33.918,0 61.516,-27.597 61.516,-61.523 0,-33.9259 -27.598,-61.5236 -61.516,-61.5236 -33.925,0 -61.523,27.5977 -61.523,61.5236 z"
       style="fill:none;stroke:#000000;stroke-width:3.7;stroke-linecap:butt;stroke-linejoin:miter;stroke-miterlimit:4;stroke-dasharray:none;stroke-opacity:1"
       transform="matrix(0.13333333,0,0,-0.13333333,0,35.373333)" />
  </g>
</svg>
