<?xml version="1.0" encoding="UTF-8" standalone="no"?>
<!-- Created with Inkscape (http://www.inkscape.org/) -->

<svg
   version="1.1"
   id="svg1"
   width="33.946667"
   height="53.973331"
   viewBox="0 0 33.946667 53.973331"
   sodipodi:docname="firewall service module (fwsm).eps"
   xmlns:inkscape="http://www.inkscape.org/namespaces/inkscape"
   xmlns:sodipodi="http://sodipodi.sourceforge.net/DTD/sodipodi-0.dtd"
   xmlns="http://www.w3.org/2000/svg"
   xmlns:svg="http://www.w3.org/2000/svg">
  <defs
     id="defs1">
    <clipPath
       clipPathUnits="userSpaceOnUse"
       id="clipPath2">
      <path
         d="M 0,4 V 405 H 250 V 4 Z"
         id="path2" />
    </clipPath>
    <clipPath
       clipPathUnits="userSpaceOnUse"
       id="clipPath4">
      <path
         d="M 0,4 V 405 H 250 V 4 Z"
         id="path4" />
    </clipPath>
    <clipPath
       clipPathUnits="userSpaceOnUse"
       id="clipPath6">
      <path
         d="M 0,4 V 405 H 250 V 4 Z"
         id="path6" />
    </clipPath>
    <clipPath
       clipPathUnits="userSpaceOnUse"
       id="clipPath8">
      <path
         d="M 0,4 V 405 H 250 V 4 Z"
         id="path8" />
    </clipPath>
    <clipPath
       clipPathUnits="userSpaceOnUse"
       id="clipPath10">
      <path
         d="M 0,4 V 405 H 250 V 4 Z"
         id="path10" />
    </clipPath>
    <clipPath
       clipPathUnits="userSpaceOnUse"
       id="clipPath12">
      <path
         d="M 0,4 V 405 H 250 V 4 Z"
         id="path12" />
    </clipPath>
    <clipPath
       clipPathUnits="userSpaceOnUse"
       id="clipPath14">
      <path
         d="M 0,4 V 405 H 250 V 4 Z"
         id="path14" />
    </clipPath>
    <clipPath
       clipPathUnits="userSpaceOnUse"
       id="clipPath16">
      <path
         d="M 0,4 V 405 H 250 V 4 Z"
         id="path16" />
    </clipPath>
    <clipPath
       clipPathUnits="userSpaceOnUse"
       id="clipPath18">
      <path
         d="M 0,4 V 405 H 250 V 4 Z"
         id="path18" />
    </clipPath>
    <clipPath
       clipPathUnits="userSpaceOnUse"
       id="clipPath20">
      <path
         d="M 0,4 V 405 H 250 V 4 Z"
         id="path20" />
    </clipPath>
    <clipPath
       clipPathUnits="userSpaceOnUse"
       id="clipPath22">
      <path
         d="M 0,4 V 405 H 250 V 4 Z"
         id="path22" />
    </clipPath>
    <clipPath
       clipPathUnits="userSpaceOnUse"
       id="clipPath24">
      <path
         d="M 0,4 V 405 H 250 V 4 Z"
         id="path24" />
    </clipPath>
    <clipPath
       clipPathUnits="userSpaceOnUse"
       id="clipPath26">
      <path
         d="M 0,4 V 405 H 250 V 4 Z"
         id="path26" />
    </clipPath>
    <clipPath
       clipPathUnits="userSpaceOnUse"
       id="clipPath28">
      <path
         d="M 0,4 V 405 H 250 V 4 Z"
         id="path28" />
    </clipPath>
    <clipPath
       clipPathUnits="userSpaceOnUse"
       id="clipPath30">
      <path
         d="M 0,4 V 405 H 250 V 4 Z"
         id="path30" />
    </clipPath>
    <clipPath
       clipPathUnits="userSpaceOnUse"
       id="clipPath32">
      <path
         d="M 0,4 V 405 H 250 V 4 Z"
         id="path32" />
    </clipPath>
    <clipPath
       clipPathUnits="userSpaceOnUse"
       id="clipPath34">
      <path
         d="M 0,4 V 405 H 250 V 4 Z"
         id="path34" />
    </clipPath>
    <clipPath
       clipPathUnits="userSpaceOnUse"
       id="clipPath36">
      <path
         d="M 0,4 V 405 H 250 V 4 Z"
         id="path36" />
    </clipPath>
    <clipPath
       clipPathUnits="userSpaceOnUse"
       id="clipPath38">
      <path
         d="M 0,4 V 405 H 250 V 4 Z"
         id="path38" />
    </clipPath>
    <clipPath
       clipPathUnits="userSpaceOnUse"
       id="clipPath40">
      <path
         d="M 0,4 V 405 H 250 V 4 Z"
         id="path40" />
    </clipPath>
    <clipPath
       clipPathUnits="userSpaceOnUse"
       id="clipPath42">
      <path
         d="M 0,4 V 405 H 250 V 4 Z"
         id="path42" />
    </clipPath>
    <clipPath
       clipPathUnits="userSpaceOnUse"
       id="clipPath44">
      <path
         d="M 0,4 V 405 H 250 V 4 Z"
         id="path44" />
    </clipPath>
    <clipPath
       clipPathUnits="userSpaceOnUse"
       id="clipPath46">
      <path
         d="M 0,4 V 405 H 250 V 4 Z"
         id="path46" />
    </clipPath>
    <clipPath
       clipPathUnits="userSpaceOnUse"
       id="clipPath48">
      <path
         d="M 0,4 V 405 H 250 V 4 Z"
         id="path48" />
    </clipPath>
    <clipPath
       clipPathUnits="userSpaceOnUse"
       id="clipPath50">
      <path
         d="M 0,4 V 405 H 250 V 4 Z"
         id="path50" />
    </clipPath>
    <clipPath
       clipPathUnits="userSpaceOnUse"
       id="clipPath52">
      <path
         d="M 0,4 V 405 H 250 V 4 Z"
         id="path52" />
    </clipPath>
    <clipPath
       clipPathUnits="userSpaceOnUse"
       id="clipPath54">
      <path
         d="M 0,4 V 405 H 250 V 4 Z"
         id="path54" />
    </clipPath>
    <clipPath
       clipPathUnits="userSpaceOnUse"
       id="clipPath56">
      <path
         d="M 0,4 V 405 H 250 V 4 Z"
         id="path56" />
    </clipPath>
    <clipPath
       clipPathUnits="userSpaceOnUse"
       id="clipPath58">
      <path
         d="M 0,4 V 405 H 250 V 4 Z"
         id="path58" />
    </clipPath>
    <clipPath
       clipPathUnits="userSpaceOnUse"
       id="clipPath60">
      <path
         d="M 0,4 V 405 H 250 V 4 Z"
         id="path60" />
    </clipPath>
    <clipPath
       clipPathUnits="userSpaceOnUse"
       id="clipPath62">
      <path
         d="M 0,4 V 405 H 250 V 4 Z"
         id="path62" />
    </clipPath>
    <clipPath
       clipPathUnits="userSpaceOnUse"
       id="clipPath64">
      <path
         d="M 0,4 V 405 H 250 V 4 Z"
         id="path64" />
    </clipPath>
    <clipPath
       clipPathUnits="userSpaceOnUse"
       id="clipPath66">
      <path
         d="M 0,4 V 405 H 250 V 4 Z"
         id="path66" />
    </clipPath>
    <clipPath
       clipPathUnits="userSpaceOnUse"
       id="clipPath68">
      <path
         d="M 0,4 V 405 H 250 V 4 Z"
         id="path68" />
    </clipPath>
    <clipPath
       clipPathUnits="userSpaceOnUse"
       id="clipPath70">
      <path
         d="M 0,4 V 405 H 250 V 4 Z"
         id="path70" />
    </clipPath>
    <clipPath
       clipPathUnits="userSpaceOnUse"
       id="clipPath72">
      <path
         d="M 0,4 V 405 H 250 V 4 Z"
         id="path72" />
    </clipPath>
    <clipPath
       clipPathUnits="userSpaceOnUse"
       id="clipPath74">
      <path
         d="M 0,4 V 405 H 250 V 4 Z"
         id="path74" />
    </clipPath>
    <clipPath
       clipPathUnits="userSpaceOnUse"
       id="clipPath76">
      <path
         d="M 0,4 V 405 H 250 V 4 Z"
         id="path76" />
    </clipPath>
    <clipPath
       clipPathUnits="userSpaceOnUse"
       id="clipPath78">
      <path
         d="M 0,4 V 405 H 250 V 4 Z"
         id="path78" />
    </clipPath>
    <clipPath
       clipPathUnits="userSpaceOnUse"
       id="clipPath80">
      <path
         d="M 0,4 V 405 H 250 V 4 Z"
         id="path80" />
    </clipPath>
    <clipPath
       clipPathUnits="userSpaceOnUse"
       id="clipPath82">
      <path
         d="M 0,4 V 405 H 250 V 4 Z"
         id="path82" />
    </clipPath>
    <clipPath
       clipPathUnits="userSpaceOnUse"
       id="clipPath84">
      <path
         d="M 0,4 V 405 H 250 V 4 Z"
         id="path84" />
    </clipPath>
    <clipPath
       clipPathUnits="userSpaceOnUse"
       id="clipPath86">
      <path
         d="M 0,4 V 405 H 250 V 4 Z"
         id="path86" />
    </clipPath>
    <clipPath
       clipPathUnits="userSpaceOnUse"
       id="clipPath88">
      <path
         d="M 0,4 V 405 H 250 V 4 Z"
         id="path88" />
    </clipPath>
    <clipPath
       clipPathUnits="userSpaceOnUse"
       id="clipPath90">
      <path
         d="M 0,4 V 405 H 250 V 4 Z"
         id="path90" />
    </clipPath>
    <clipPath
       clipPathUnits="userSpaceOnUse"
       id="clipPath92">
      <path
         d="M 0,4 V 405 H 250 V 4 Z"
         id="path92" />
    </clipPath>
  </defs>
  <sodipodi:namedview
     id="namedview1"
     pagecolor="#505050"
     bordercolor="#eeeeee"
     borderopacity="1"
     inkscape:showpageshadow="0"
     inkscape:pageopacity="0"
     inkscape:pagecheckerboard="0"
     inkscape:deskcolor="#d1d1d1">
    <inkscape:page
       x="0"
       y="0"
       inkscape:label="1"
       id="page1"
       width="33.946667"
       height="53.973331"
       margin="0"
       bleed="0" />
  </sodipodi:namedview>
  <g
     id="g1"
     inkscape:groupmode="layer"
     inkscape:label="1">
    <path
       id="path1"
       d="m 250.121,400.621 -27.5,-31.113 H 5.32813 L 40.9414,400.621 H 250.121"
       style="fill:#087fbf;fill-opacity:1;fill-rule:nonzero;stroke:none"
       transform="matrix(0.13333333,0,0,-0.13333333,0,53.973333)"
       clip-path="url(#clipPath2)" />
    <path
       id="path3"
       d="m 250.121,400.621 -27.5,-31.113 H 5.32813 l 35.61327,31.113 z"
       style="fill:none;stroke:#ffffff;stroke-width:4;stroke-linecap:butt;stroke-linejoin:miter;stroke-miterlimit:4;stroke-dasharray:none;stroke-opacity:1"
       transform="matrix(0.13333333,0,0,-0.13333333,0,53.973333)"
       clip-path="url(#clipPath4)" />
    <path
       id="path5"
       d="m 5.32813,282.516 h 217.293 v 88.3008 H 5.32813 Z"
       style="fill:#087fbf;fill-opacity:1;fill-rule:nonzero;stroke:none"
       transform="matrix(0.13333333,0,0,-0.13333333,0,53.973333)"
       clip-path="url(#clipPath6)" />
    <path
       id="path7"
       d="m 5.32813,282.516 v 88.3 H 222.621 v -88.3 z"
       style="fill:none;stroke:#ffffff;stroke-width:4;stroke-linecap:butt;stroke-linejoin:miter;stroke-miterlimit:4;stroke-dasharray:none;stroke-opacity:1"
       transform="matrix(0.13333333,0,0,-0.13333333,0,53.973333)"
       clip-path="url(#clipPath8)" />
    <path
       id="path9"
       d="m 250.074,311.441 v 88.309 l -27.453,-28.934 v -88.3 l 27.453,28.925"
       style="fill:#087fbf;fill-opacity:1;fill-rule:nonzero;stroke:none"
       transform="matrix(0.13333333,0,0,-0.13333333,0,53.973333)"
       clip-path="url(#clipPath10)" />
    <path
       id="path11"
       d="m 250.074,311.441 v 88.309 l -27.453,-28.934 v -88.3 z"
       style="fill:none;stroke:#ffffff;stroke-width:4;stroke-linecap:butt;stroke-linejoin:miter;stroke-miterlimit:4;stroke-dasharray:none;stroke-opacity:1"
       transform="matrix(0.13333333,0,0,-0.13333333,0,53.973333)"
       clip-path="url(#clipPath12)" />
    <path
       id="path13"
       d="M 222.621,283.461 V 109.863 l 27.453,28.926 v 173.609 l -27.453,-28.937"
       style="fill:#087fbf;fill-opacity:1;fill-rule:nonzero;stroke:none"
       transform="matrix(0.13333333,0,0,-0.13333333,0,53.973333)"
       clip-path="url(#clipPath14)" />
    <path
       id="path15"
       d="M 222.621,283.461 V 109.863 l 27.453,28.926 v 173.609 z"
       style="fill:none;stroke:#ffffff;stroke-width:4;stroke-linecap:butt;stroke-linejoin:miter;stroke-miterlimit:4;stroke-dasharray:none;stroke-opacity:1"
       transform="matrix(0.13333333,0,0,-0.13333333,0,53.973333)"
       clip-path="url(#clipPath16)" />
    <path
       id="path17"
       d="M 221.559,343.082 H 6.42188"
       style="fill:none;stroke:#ffffff;stroke-width:4;stroke-linecap:round;stroke-linejoin:round;stroke-miterlimit:4;stroke-dasharray:none;stroke-opacity:1"
       transform="matrix(0.13333333,0,0,-0.13333333,0,53.973333)"
       clip-path="url(#clipPath18)" />
    <path
       id="path19"
       d="M 238.004,387.926 H 22.8555"
       style="fill:none;stroke:#ffffff;stroke-width:4;stroke-linecap:round;stroke-linejoin:round;stroke-miterlimit:4;stroke-dasharray:none;stroke-opacity:1"
       transform="matrix(0.13333333,0,0,-0.13333333,0,53.973333)"
       clip-path="url(#clipPath20)" />
    <path
       id="path21"
       d="M 221.559,313.277 H 6.42188"
       style="fill:none;stroke:#ffffff;stroke-width:4;stroke-linecap:round;stroke-linejoin:round;stroke-miterlimit:4;stroke-dasharray:none;stroke-opacity:1"
       transform="matrix(0.13333333,0,0,-0.13333333,0,53.973333)"
       clip-path="url(#clipPath22)" />
    <path
       id="path23"
       d="M 250.707,374.047 223.324,344.078"
       style="fill:none;stroke:#ffffff;stroke-width:4;stroke-linecap:round;stroke-linejoin:round;stroke-miterlimit:4;stroke-dasharray:none;stroke-opacity:1"
       transform="matrix(0.13333333,0,0,-0.13333333,0,53.973333)"
       clip-path="url(#clipPath24)" />
    <path
       id="path25"
       d="M 250.707,344.234 223.324,314.273"
       style="fill:none;stroke:#ffffff;stroke-width:4;stroke-linecap:round;stroke-linejoin:round;stroke-miterlimit:4;stroke-dasharray:none;stroke-opacity:1"
       transform="matrix(0.13333333,0,0,-0.13333333,0,53.973333)"
       clip-path="url(#clipPath26)" />
    <path
       id="path27"
       d="M 70.1523,370.406 V 343.344"
       style="fill:#231f20;fill-opacity:1;fill-rule:nonzero;stroke:#ffffff;stroke-width:4;stroke-linecap:round;stroke-linejoin:round;stroke-miterlimit:4;stroke-dasharray:none;stroke-opacity:1"
       transform="matrix(0.13333333,0,0,-0.13333333,0,53.973333)"
       clip-path="url(#clipPath28)" />
    <path
       id="path29"
       d="M 153.355,370.406 V 343.344"
       style="fill:none;stroke:#ffffff;stroke-width:4;stroke-linecap:round;stroke-linejoin:round;stroke-miterlimit:4;stroke-dasharray:none;stroke-opacity:1"
       transform="matrix(0.13333333,0,0,-0.13333333,0,53.973333)"
       clip-path="url(#clipPath30)" />
    <path
       id="path31"
       d="M 70.1523,311.801 V 284.762"
       style="fill:none;stroke:#ffffff;stroke-width:4;stroke-linecap:round;stroke-linejoin:round;stroke-miterlimit:4;stroke-dasharray:none;stroke-opacity:1"
       transform="matrix(0.13333333,0,0,-0.13333333,0,53.973333)"
       clip-path="url(#clipPath32)" />
    <path
       id="path33"
       d="M 153.355,311.801 V 284.762"
       style="fill:none;stroke:#ffffff;stroke-width:4;stroke-linecap:round;stroke-linejoin:round;stroke-miterlimit:4;stroke-dasharray:none;stroke-opacity:1"
       transform="matrix(0.13333333,0,0,-0.13333333,0,53.973333)"
       clip-path="url(#clipPath34)" />
    <path
       id="path35"
       d="M 113.414,341.773 V 314.711"
       style="fill:none;stroke:#ffffff;stroke-width:4;stroke-linecap:round;stroke-linejoin:round;stroke-miterlimit:4;stroke-dasharray:none;stroke-opacity:1"
       transform="matrix(0.13333333,0,0,-0.13333333,0,53.973333)"
       clip-path="url(#clipPath36)" />
    <path
       id="path37"
       d="M 30.2188,341.773 V 314.711"
       style="fill:none;stroke:#ffffff;stroke-width:4;stroke-linecap:round;stroke-linejoin:round;stroke-miterlimit:4;stroke-dasharray:none;stroke-opacity:1"
       transform="matrix(0.13333333,0,0,-0.13333333,0,53.973333)"
       clip-path="url(#clipPath38)" />
    <path
       id="path39"
       d="M 196.605,341.773 V 314.711"
       style="fill:none;stroke:#ffffff;stroke-width:4;stroke-linecap:round;stroke-linejoin:round;stroke-miterlimit:4;stroke-dasharray:none;stroke-opacity:1"
       transform="matrix(0.13333333,0,0,-0.13333333,0,53.973333)"
       clip-path="url(#clipPath40)" />
    <path
       id="path41"
       d="M 101.012,401.715 70.1523,370.895"
       style="fill:none;stroke:#ffffff;stroke-width:4;stroke-linecap:round;stroke-linejoin:round;stroke-miterlimit:4;stroke-dasharray:none;stroke-opacity:1"
       transform="matrix(0.13333333,0,0,-0.13333333,0,53.973333)"
       clip-path="url(#clipPath42)" />
    <path
       id="path43"
       d="m 184.195,401.715 -30.84,-30.82"
       style="fill:none;stroke:#ffffff;stroke-width:4;stroke-linecap:round;stroke-linejoin:round;stroke-miterlimit:4;stroke-dasharray:none;stroke-opacity:1"
       transform="matrix(0.13333333,0,0,-0.13333333,0,53.973333)"
       clip-path="url(#clipPath44)" />
    <path
       id="path45"
       d="m 5.32813,111.301 h 217.293 v 172.16 H 5.32813 Z"
       style="fill:#087fbf;fill-opacity:1;fill-rule:nonzero;stroke:none"
       transform="matrix(0.13333333,0,0,-0.13333333,0,53.973333)"
       clip-path="url(#clipPath46)" />
    <path
       id="path47"
       d="M 222.621,283.461 V 111.301 H 5.32813 v 172.16"
       style="fill:none;stroke:#ffffff;stroke-width:4;stroke-linecap:butt;stroke-linejoin:miter;stroke-miterlimit:4;stroke-dasharray:none;stroke-opacity:1"
       transform="matrix(0.13333333,0,0,-0.13333333,0,53.973333)"
       clip-path="url(#clipPath48)" />
    <path
       id="path49"
       d="m 5.32813,5.01563 h 217.293 v 106.66 H 5.32813 Z"
       style="fill:#087fbf;fill-opacity:1;fill-rule:nonzero;stroke:none"
       transform="matrix(0.13333333,0,0,-0.13333333,0,53.973333)"
       clip-path="url(#clipPath50)" />
    <path
       id="path51"
       d="M 5.32813,5.01563 V 111.676 H 222.621 V 5.01563 Z"
       style="fill:none;stroke:#ffffff;stroke-width:4;stroke-linecap:butt;stroke-linejoin:miter;stroke-miterlimit:4;stroke-dasharray:none;stroke-opacity:1"
       transform="matrix(0.13333333,0,0,-0.13333333,0,53.973333)"
       clip-path="url(#clipPath52)" />
    <path
       id="path53"
       d="M 250.074,33.9414 V 139.883 L 222.621,110.957 V 5.01563 l 27.453,28.92577"
       style="fill:#087fbf;fill-opacity:1;fill-rule:nonzero;stroke:none"
       transform="matrix(0.13333333,0,0,-0.13333333,0,53.973333)"
       clip-path="url(#clipPath54)" />
    <path
       id="path55"
       d="M 250.074,33.9414 V 139.883 L 222.621,110.957 V 5.01563 Z"
       style="fill:none;stroke:#ffffff;stroke-width:4;stroke-linecap:butt;stroke-linejoin:miter;stroke-miterlimit:4;stroke-dasharray:none;stroke-opacity:1"
       transform="matrix(0.13333333,0,0,-0.13333333,0,53.973333)"
       clip-path="url(#clipPath56)" />
    <path
       id="path57"
       d="m 117.555,217.477 v 37.578 h 6.367 l -9.395,14.179 -9.414,-14.179 h 6.375 v -37.578 h 6.067"
       style="fill:#ffffff;fill-opacity:1;fill-rule:nonzero;stroke:none"
       transform="matrix(0.13333333,0,0,-0.13333333,0,53.973333)"
       clip-path="url(#clipPath58)" />
    <path
       id="path59"
       d="m 98.3828,212.047 -26.5703,26.582 4.5117,4.5 -16.6797,3.371 3.3672,-16.68 4.5117,4.512 26.5625,-26.574 4.2969,4.289"
       style="fill:#ffffff;fill-opacity:1;fill-rule:nonzero;stroke:none"
       transform="matrix(0.13333333,0,0,-0.13333333,0,53.973333)"
       clip-path="url(#clipPath60)" />
    <path
       id="path61"
       d="M 88.668,194.652 H 51.0898 v 6.379 l -14.1796,-9.414 14.1796,-9.406 v 6.379 H 88.668 v 6.062"
       style="fill:#ffffff;fill-opacity:1;fill-rule:nonzero;stroke:none"
       transform="matrix(0.13333333,0,0,-0.13333333,0,53.973333)"
       clip-path="url(#clipPath62)" />
    <path
       id="path63"
       d="m 94.0859,175.484 -26.5625,-26.562 -4.5117,4.492 -3.3672,-16.68 16.6797,3.379 -4.5117,4.512 26.5703,26.57 -4.2969,4.289"
       style="fill:#ffffff;fill-opacity:1;fill-rule:nonzero;stroke:none"
       transform="matrix(0.13333333,0,0,-0.13333333,0,53.973333)"
       clip-path="url(#clipPath64)" />
    <path
       id="path65"
       d="m 111.488,178.93 v -72.539 h -6.375 l 9.414,-14.1879 9.395,14.1879 h -6.367 v 72.539 h -6.067"
       style="fill:#ffffff;fill-opacity:1;fill-rule:nonzero;stroke:none"
       transform="matrix(0.13333333,0,0,-0.13333333,0,53.973333)"
       clip-path="url(#clipPath66)" />
    <path
       id="path67"
       d="m 130.66,171.195 26.57,-26.57 -4.5,-4.512 16.68,-3.379 -3.379,16.68 -4.504,-4.492 -26.582,26.562 -4.285,-4.289"
       style="fill:#ffffff;fill-opacity:1;fill-rule:nonzero;stroke:none"
       transform="matrix(0.13333333,0,0,-0.13333333,0,53.973333)"
       clip-path="url(#clipPath68)" />
    <path
       id="path69"
       d="m 140.375,188.59 h 37.578 v -6.379 l 14.192,9.406 -14.192,9.414 v -6.379 h -37.578 v -6.062"
       style="fill:#ffffff;fill-opacity:1;fill-rule:nonzero;stroke:none"
       transform="matrix(0.13333333,0,0,-0.13333333,0,53.973333)"
       clip-path="url(#clipPath70)" />
    <path
       id="path71"
       d="m 134.945,207.758 26.582,26.574 4.504,-4.512 3.379,16.68 -16.68,-3.371 4.5,-4.5 -26.57,-26.582 4.285,-4.289"
       style="fill:#ffffff;fill-opacity:1;fill-rule:nonzero;stroke:none"
       transform="matrix(0.13333333,0,0,-0.13333333,0,53.973333)"
       clip-path="url(#clipPath72)" />
    <path
       id="path73"
       d="m 137.516,160.133 c 17.597,12.324 21.875,36.582 9.558,54.18 -12.332,17.605 -36.601,21.894 -54.199,9.558 C 75.2773,211.539 71,187.281 83.3242,169.684 95.6484,152.086 119.906,147.809 137.516,160.133"
       style="fill:#ffffff;fill-opacity:1;fill-rule:nonzero;stroke:none"
       transform="matrix(0.13333333,0,0,-0.13333333,0,53.973333)"
       clip-path="url(#clipPath74)" />
    <path
       id="path75"
       d="M 238.102,387.105 V 300.629"
       style="fill:none;stroke:#ffffff;stroke-width:4;stroke-linecap:round;stroke-linejoin:round;stroke-miterlimit:4;stroke-dasharray:none;stroke-opacity:1"
       transform="matrix(0.13333333,0,0,-0.13333333,0,53.973333)"
       clip-path="url(#clipPath76)" />
    <path
       id="path77"
       d="m 112.191,69.6641 h 57.207 v 5.6718 L 188.129,63.9805 169.398,52.3203 v 5.6719 h -57.207 v 11.6719"
       style="fill:#ffffff;fill-opacity:1;fill-rule:nonzero;stroke:none"
       transform="matrix(0.13333333,0,0,-0.13333333,0,53.973333)"
       clip-path="url(#clipPath78)" />
    <path
       id="path79"
       d="m 112.191,34.0781 h 57.207 v 5.6836 L 188.129,28.4023 169.398,16.7422 v 5.6758 h -57.207 v 11.6601"
       style="fill:#ffffff;fill-opacity:1;fill-rule:nonzero;stroke:none"
       transform="matrix(0.13333333,0,0,-0.13333333,0,53.973333)"
       clip-path="url(#clipPath80)" />
    <path
       id="path81"
       d="M 113.473,86.6836 H 56.2656 v 5.6758 L 37.5352,81 56.2656,69.3516 v 5.664 h 57.2074 v 11.668"
       style="fill:#ffffff;fill-opacity:1;fill-rule:nonzero;stroke:none"
       transform="matrix(0.13333333,0,0,-0.13333333,0,53.973333)"
       clip-path="url(#clipPath82)" />
    <path
       id="path83"
       d="M 113.473,51.1094 H 56.2656 v 5.6719 L 37.5352,45.4258 56.2656,33.7656 v 5.6641 h 57.2074 v 11.6797"
       style="fill:#ffffff;fill-opacity:1;fill-rule:nonzero;stroke:none"
       transform="matrix(0.13333333,0,0,-0.13333333,0,53.973333)"
       clip-path="url(#clipPath84)" />
    <path
       id="path85"
       d="M 221.559,283.082 H 6.42188"
       style="fill:none;stroke:#ffffff;stroke-width:4;stroke-linecap:round;stroke-linejoin:round;stroke-miterlimit:4;stroke-dasharray:none;stroke-opacity:1"
       transform="matrix(0.13333333,0,0,-0.13333333,0,53.973333)"
       clip-path="url(#clipPath86)" />
    <path
       id="path87"
       d="M 250.707,314.047 223.324,284.078"
       style="fill:none;stroke:#ffffff;stroke-width:4;stroke-linecap:round;stroke-linejoin:round;stroke-miterlimit:4;stroke-dasharray:none;stroke-opacity:1"
       transform="matrix(0.13333333,0,0,-0.13333333,0,53.973333)"
       clip-path="url(#clipPath88)" />
    <path
       id="path89"
       d="M 221.559,111.832 H 6.42188"
       style="fill:none;stroke:#ffffff;stroke-width:4;stroke-linecap:round;stroke-linejoin:round;stroke-miterlimit:4;stroke-dasharray:none;stroke-opacity:1"
       transform="matrix(0.13333333,0,0,-0.13333333,0,53.973333)"
       clip-path="url(#clipPath90)" />
    <path
       id="path91"
       d="M 249.273,138.492 224.039,112.105"
       style="fill:none;stroke:#ffffff;stroke-width:4;stroke-linecap:round;stroke-linejoin:round;stroke-miterlimit:4;stroke-dasharray:none;stroke-opacity:1"
       transform="matrix(0.13333333,0,0,-0.13333333,0,53.973333)"
       clip-path="url(#clipPath92)" />
  </g>
</svg>
