<?xml version="1.0" encoding="UTF-8" standalone="no"?>
<!-- Created with Inkscape (http://www.inkscape.org/) -->

<svg
   version="1.1"
   id="svg1"
   width="31.946667"
   height="14.88"
   viewBox="0 0 31.946667 14.88"
   sodipodi:docname="key.eps"
   xmlns:inkscape="http://www.inkscape.org/namespaces/inkscape"
   xmlns:sodipodi="http://sodipodi.sourceforge.net/DTD/sodipodi-0.dtd"
   xmlns="http://www.w3.org/2000/svg"
   xmlns:svg="http://www.w3.org/2000/svg">
  <defs
     id="defs1">
    <clipPath
       clipPathUnits="userSpaceOnUse"
       id="clipPath2">
      <path
         d="M 0,1 V 112 H 240 V 1 Z"
         id="path2" />
    </clipPath>
    <clipPath
       clipPathUnits="userSpaceOnUse"
       id="clipPath4">
      <path
         d="M 0,1 V 112 H 240 V 1 Z"
         id="path4" />
    </clipPath>
    <clipPath
       clipPathUnits="userSpaceOnUse"
       id="clipPath6">
      <path
         d="M 0,1 V 112 H 240 V 1 Z"
         id="path6" />
    </clipPath>
    <clipPath
       clipPathUnits="userSpaceOnUse"
       id="clipPath8">
      <path
         d="M 0,1 V 112 H 240 V 1 Z"
         id="path8" />
    </clipPath>
    <clipPath
       clipPathUnits="userSpaceOnUse"
       id="clipPath10">
      <path
         d="M 0,1 V 112 H 240 V 1 Z"
         id="path10" />
    </clipPath>
    <clipPath
       clipPathUnits="userSpaceOnUse"
       id="clipPath12">
      <path
         d="M 0,1 V 112 H 240 V 1 Z"
         id="path12" />
    </clipPath>
    <clipPath
       clipPathUnits="userSpaceOnUse"
       id="clipPath14">
      <path
         d="M 0,1 V 112 H 240 V 1 Z"
         id="path14" />
    </clipPath>
    <clipPath
       clipPathUnits="userSpaceOnUse"
       id="clipPath16">
      <path
         d="M 0,1 V 112 H 240 V 1 Z"
         id="path16" />
    </clipPath>
    <clipPath
       clipPathUnits="userSpaceOnUse"
       id="clipPath18">
      <path
         d="M 0,1 V 112 H 240 V 1 Z"
         id="path18" />
    </clipPath>
    <clipPath
       clipPathUnits="userSpaceOnUse"
       id="clipPath20">
      <path
         d="M 0,1 V 112 H 240 V 1 Z"
         id="path20" />
    </clipPath>
    <clipPath
       clipPathUnits="userSpaceOnUse"
       id="clipPath22">
      <path
         d="M 0,1 V 112 H 240 V 1 Z"
         id="path22" />
    </clipPath>
    <clipPath
       clipPathUnits="userSpaceOnUse"
       id="clipPath24">
      <path
         d="M 0,1 V 112 H 240 V 1 Z"
         id="path24" />
    </clipPath>
  </defs>
  <sodipodi:namedview
     id="namedview1"
     pagecolor="#505050"
     bordercolor="#eeeeee"
     borderopacity="1"
     inkscape:showpageshadow="0"
     inkscape:pageopacity="0"
     inkscape:pagecheckerboard="0"
     inkscape:deskcolor="#d1d1d1">
    <inkscape:page
       x="0"
       y="0"
       inkscape:label="1"
       id="page1"
       width="31.946667"
       height="14.88"
       margin="0"
       bleed="0" />
  </sodipodi:namedview>
  <g
     id="g1"
     inkscape:groupmode="layer"
     inkscape:label="1">
    <path
       id="path1"
       d="m 63.7305,50.4688 c 12.3711,0 22.3906,10.0234 22.3906,22.3945 0,12.3672 -10.0195,22.3867 -22.3906,22.3867 -12.3633,0 -22.3907,-10.0195 -22.3907,-22.3867 0,-12.3711 10.0274,-22.3945 22.3907,-22.3945 z"
       style="fill:none;stroke:#b2b2b2;stroke-width:15;stroke-linecap:butt;stroke-linejoin:miter;stroke-miterlimit:4;stroke-dasharray:none;stroke-opacity:1"
       transform="matrix(0.13333333,0,0,-0.13333333,0,14.88)"
       clip-path="url(#clipPath2)" />
    <path
       id="path3"
       d="m 63.7305,6.92969 c 12.3711,0 22.3906,10.02341 22.3906,22.38671 0,12.3672 -10.0195,22.3945 -22.3906,22.3945 -12.3633,0 -22.3907,-10.0273 -22.3907,-22.3945 0,-12.3633 10.0274,-22.38671 22.3907,-22.38671 z"
       style="fill:none;stroke:#b2b2b2;stroke-width:15;stroke-linecap:butt;stroke-linejoin:miter;stroke-miterlimit:4;stroke-dasharray:none;stroke-opacity:1"
       transform="matrix(0.13333333,0,0,-0.13333333,0,14.88)"
       clip-path="url(#clipPath4)" />
    <path
       id="path5"
       d="m 30.6055,33.4492 c 9.8906,0 17.9218,8.0196 17.9218,17.9141 0,9.8906 -8.0312,17.9101 -17.9218,17.9101 -9.8907,0 -17.9102,-8.0195 -17.9102,-17.9101 0,-9.8945 8.0195,-17.9141 17.9102,-17.9141 z"
       style="fill:none;stroke:#b2b2b2;stroke-width:15;stroke-linecap:butt;stroke-linejoin:miter;stroke-miterlimit:4;stroke-dasharray:none;stroke-opacity:1"
       transform="matrix(0.13333333,0,0,-0.13333333,0,14.88)"
       clip-path="url(#clipPath6)" />
    <path
       id="path7"
       d="m 84.4648,86.6133 c 0.0938,-8.336 3.4375,-15.836 6.7657,-23.336 2.5,-5.8359 8.3281,-10.8359 14.9995,-13.3359"
       style="fill:none;stroke:#b2b2b2;stroke-width:15;stroke-linecap:butt;stroke-linejoin:miter;stroke-miterlimit:4;stroke-dasharray:none;stroke-opacity:1"
       transform="matrix(0.13333333,0,0,-0.13333333,0,14.88)"
       clip-path="url(#clipPath8)" />
    <path
       id="path9"
       d="m 84.4648,14.1133 c 0.0938,8.3281 3.4375,15.8281 6.7657,23.3281 2.5,5.8359 8.3281,10.8359 14.9995,13.3359"
       style="fill:none;stroke:#b2b2b2;stroke-width:15;stroke-linecap:butt;stroke-linejoin:miter;stroke-miterlimit:4;stroke-dasharray:none;stroke-opacity:1"
       transform="matrix(0.13333333,0,0,-0.13333333,0,14.88)"
       clip-path="url(#clipPath10)" />
    <path
       id="path11"
       d="m 56.3398,59.8438 c 12.3633,0 22.3907,10.0234 22.3907,22.3945 0,12.3672 -10.0274,22.3867 -22.3907,22.3867 -12.3671,0 -22.3945,-10.0195 -22.3945,-22.3867 0,-12.3711 10.0274,-22.3945 22.3945,-22.3945 z"
       style="fill:none;stroke:#02709f;stroke-width:15;stroke-linecap:butt;stroke-linejoin:miter;stroke-miterlimit:4;stroke-dasharray:none;stroke-opacity:1"
       transform="matrix(0.13333333,0,0,-0.13333333,0,14.88)"
       clip-path="url(#clipPath12)" />
    <path
       id="path13"
       d="m 56.3398,16.3047 c 12.3633,0 22.3907,10.0234 22.3907,22.3867 0,12.3672 -10.0274,22.3945 -22.3907,22.3945 -12.3671,0 -22.3945,-10.0273 -22.3945,-22.3945 0,-12.3633 10.0274,-22.3867 22.3945,-22.3867 z"
       style="fill:none;stroke:#02709f;stroke-width:15;stroke-linecap:butt;stroke-linejoin:miter;stroke-miterlimit:4;stroke-dasharray:none;stroke-opacity:1"
       transform="matrix(0.13333333,0,0,-0.13333333,0,14.88)"
       clip-path="url(#clipPath14)" />
    <path
       id="path15"
       d="m 23.2148,42.8242 c 9.8907,0 17.9063,8.0156 17.9063,17.9141 0,9.8906 -8.0156,17.9101 -17.9063,17.9101 -9.8945,0 -17.91402,-8.0195 -17.91402,-17.9101 0,-9.8985 8.01952,-17.9141 17.91402,-17.9141 z"
       style="fill:none;stroke:#02709f;stroke-width:15;stroke-linecap:butt;stroke-linejoin:miter;stroke-miterlimit:4;stroke-dasharray:none;stroke-opacity:1"
       transform="matrix(0.13333333,0,0,-0.13333333,0,14.88)"
       clip-path="url(#clipPath16)" />
    <path
       id="path17"
       d="m 77.0586,95.9805 c 0.1172,-8.3282 3.4375,-15.8282 6.7812,-23.3282 2.5,-5.8359 8.336,-10.8359 15,-13.3359"
       style="fill:none;stroke:#02709f;stroke-width:15;stroke-linecap:butt;stroke-linejoin:miter;stroke-miterlimit:4;stroke-dasharray:none;stroke-opacity:1"
       transform="matrix(0.13333333,0,0,-0.13333333,0,14.88)"
       clip-path="url(#clipPath18)" />
    <path
       id="path19"
       d="m 77.0586,23.4883 c 0.1172,8.3281 3.4375,15.8281 6.7812,23.3281 2.5,5.8359 8.336,10.8359 15,13.3359"
       style="fill:none;stroke:#000000;stroke-width:15;stroke-linecap:butt;stroke-linejoin:miter;stroke-miterlimit:4;stroke-dasharray:none;stroke-opacity:1"
       transform="matrix(0.13333333,0,0,-0.13333333,0,14.88)"
       clip-path="url(#clipPath20)" />
    <path
       id="path21"
       d="M 239.563,36.8164 V 60.1523 H 137.605 c -1.328,5.543 -3.789,9.2735 -6.589,9.2735 -2.801,0 -5.254,-3.7305 -6.59,-9.2735 h -1.723 c -1.308,5.7774 -3.808,9.6915 -6.687,9.6915 -2.879,0 -5.379,-3.9141 -6.692,-9.6915 H 92.2656 v -19.164 h 17.2654 c 1.36,-5.3203 3.75,-8.8594 6.485,-8.8594 2.746,0 5.129,3.5391 6.496,8.8594 h 1.914 c 1.336,-5.5469 3.789,-9.2774 6.59,-9.2774 2.8,0 5.261,3.7305 6.589,9.2774 h 76.333 V 3.69141 h 24.332 v 9.16409 h -10.997 v 6.4609 h 11.665 v 9.1641 h -11.665 v 8.3359 h 12.29"
       style="fill:#b2b2b2;fill-opacity:1;fill-rule:nonzero;stroke:none"
       transform="matrix(0.13333333,0,0,-0.13333333,0,14.88)"
       clip-path="url(#clipPath22)" />
    <path
       id="path23"
       d="M 232.18,46.1914 V 69.5273 H 130.203 c -1.324,5.543 -3.765,9.2774 -6.582,9.2774 -2.808,0 -5.254,-3.7344 -6.582,-9.2774 h -1.726 c -1.309,5.7813 -3.821,9.6915 -6.692,9.6915 -2.879,0 -5.391,-3.9102 -6.695,-9.6915 H 84.8711 v -19.164 h 17.2699 c 1.343,-5.3203 3.75,-8.8594 6.48,-8.8594 2.734,0 5.141,3.5391 6.484,8.8594 h 1.934 c 1.328,-5.5469 3.774,-9.2774 6.582,-9.2774 2.817,0 5.258,3.7305 6.582,9.2774 h 76.34 V 13.0664 h 24.336 v 9.1641 h -11.008 v 6.4609 h 11.684 v 9.1641 h -11.684 v 8.3359 h 12.309"
       style="fill:#02709f;fill-opacity:1;fill-rule:nonzero;stroke:none"
       transform="matrix(0.13333333,0,0,-0.13333333,0,14.88)"
       clip-path="url(#clipPath24)" />
  </g>
</svg>
