<?xml version="1.0" encoding="UTF-8" standalone="no"?>
<!-- Created with Inkscape (http://www.inkscape.org/) -->

<svg
   version="1.1"
   id="svg1"
   width="38.226665"
   height="38.226665"
   viewBox="0 0 38.226665 38.226665"
   sodipodi:docname="token.eps"
   xmlns:inkscape="http://www.inkscape.org/namespaces/inkscape"
   xmlns:sodipodi="http://sodipodi.sourceforge.net/DTD/sodipodi-0.dtd"
   xmlns="http://www.w3.org/2000/svg"
   xmlns:svg="http://www.w3.org/2000/svg">
  <defs
     id="defs1" />
  <sodipodi:namedview
     id="namedview1"
     pagecolor="#505050"
     bordercolor="#eeeeee"
     borderopacity="1"
     inkscape:showpageshadow="0"
     inkscape:pageopacity="0"
     inkscape:pagecheckerboard="0"
     inkscape:deskcolor="#d1d1d1">
    <inkscape:page
       x="0"
       y="0"
       inkscape:label="1"
       id="page1"
       width="38.226665"
       height="38.226665"
       margin="0"
       bleed="0" />
  </sodipodi:namedview>
  <g
     id="g1"
     inkscape:groupmode="layer"
     inkscape:label="1">
    <path
       id="path1"
       d="m 143.363,1.96484 c 78.086,0 141.387,63.30856 141.387,141.39416 0,78.086 -63.301,141.399 -141.387,141.399 C 65.2773,284.758 1.95703,221.445 1.95703,143.359 1.95703,65.2734 65.2773,1.96484 143.363,1.96484"
       style="fill:#ffffff;fill-opacity:1;fill-rule:nonzero;stroke:#036998;stroke-width:3.99994;stroke-linecap:butt;stroke-linejoin:miter;stroke-miterlimit:4;stroke-dasharray:none;stroke-opacity:1"
       transform="matrix(0.13333333,0,0,-0.13333333,0,38.226667)" />
    <path
       id="path2"
       d="M 2.4732453,-4.5235531 H 4.1490266 V -5.0977719 H 0.15293281 v 0.5742188 H 1.8287141 v 4.523437475 h 0.6445312 z m 3.703125,0.75 c -1.03125,0 -1.6523437,0.7382812 -1.6523437,1.96875 0,1.24218748 0.6210937,1.96874998 1.6640625,1.96874998 1.03125,0 1.6523437,-0.73828125 1.6523437,-1.94531248 0,-1.265625 -0.5976562,-1.9921875 -1.6640625,-1.9921875 z m 0.011719,0.5390625 c 0.65625,0 1.0546875,0.5390625 1.0546875,1.453125 0,0.86718748 -0.4101563,1.40624998 -1.0546875,1.40624998 -0.65625,0 -1.0546875,-0.5390625 -1.0546875,-1.42968748 0,-0.890625 0.3984375,-1.4296875 1.0546875,-1.4296875 z M 9.1529328,-5.0977719 H 8.5787141 V -1.15625e-4 H 9.1529328 V -1.4298031 l 0.5742188,-0.5625 1.2304684,1.992187475 h 0.726563 l -1.5,-2.402343775 1.277344,-1.265625 h -0.75 l -1.5585942,1.5585938 z m 6.1025392,3.4570313 c 0,-0.5507813 -0.03516,-0.890625 -0.140625,-1.1601563 -0.246094,-0.609375 -0.796875,-0.9726562 -1.488281,-0.9726562 -1.019532,0 -1.675782,0.7734375 -1.675782,1.9921875 0,1.20703123 0.632813,1.94531248 1.664063,1.94531248 0.84375,0 1.417969,-0.48046875 1.570312,-1.27734378 h -0.585937 c -0.164063,0.48046878 -0.492188,0.73828128 -0.960938,0.73828128 -0.375,0 -0.691406,-0.17578125 -0.878906,-0.48046875 C 12.618753,-1.0665219 12.560159,-1.2774594 12.560159,-1.6407406 Z m -2.683594,-0.46875 c 0.04687,-0.6796875 0.457031,-1.125 1.054688,-1.125 0.585937,0 1.007812,0.46875 1.007812,1.125 z m 3.480469,-1.5585938 v 3.667968775 h 0.585937 V -2.0274594 c 0,-0.7382812 0.386719,-1.2304687 0.996094,-1.2304687 0.457031,0 0.75,0.28125 0.75,0.7148437 v 2.542968775 h 0.585938 V -2.7657406 c 0,-0.609375 -0.457032,-1.0078125 -1.160157,-1.0078125 -0.550781,0 -0.902343,0.2109375 -1.21875,0.7265625 V -3.6680844 Z M 3.8326203,5.8094547 h 1.6757813 c 0.5859375,0 0.84375,0.2695312 0.84375,0.9023437 l -0.011719,0.4570313 c 0,0.3164062 0.058594,0.6210937 0.1523438,0.8320312 H 7.2779328 V 7.8367984 C 7.0318391,7.6727359 6.9849641,7.4852359 6.9732453,6.8172672 6.9615266,5.9735172 6.8326203,5.7157047 6.2818391,5.4813297 c 0.5742187,-0.28125 0.8085937,-0.6328125 0.8085937,-1.21875 0,-0.8789063 -0.5507812,-1.359375 -1.5585937,-1.359375 h -2.34375 v 5.0976562 h 0.6445312 z m 0,-0.5742188 V 3.4774234 h 1.5703125 c 0.3632813,0 0.5742188,0.058594 0.7382813,0.1875 0.1757812,0.1523438 0.2695312,0.3867188 0.2695312,0.6796875 0,0.609375 -0.3164062,0.890625 -1.0078125,0.890625 z M 8.6402375,4.3328922 H 8.0543 v 3.6679687 h 0.5859375 z m 0,-1.4296875 H 8.0425813 V 3.6297672 H 8.6402375 Z M 9.6304719,4.3328922 V 8.0008609 H 10.216409 V 5.9735172 c 0,-0.7382813 0.386719,-1.2304688 0.996094,-1.2304688 0.457031,0 0.75,0.28125 0.75,0.7148438 v 2.5429687 h 0.585938 v -2.765625 c 0,-0.609375 -0.457032,-1.0078125 -1.160157,-1.0078125 -0.550781,0 -0.902343,0.2109375 -1.21875,0.7265625 V 4.3328922 Z m 6.2255861,0 V 4.8719547 C 15.563089,4.4266422 15.246683,4.2274234 14.777933,4.2274234 c -0.890625,0 -1.5,0.8320313 -1.5,2.0039063 0,0.609375 0.140625,1.0664062 0.457031,1.4296875 0.28125,0.328125 0.621094,0.5039062 1.007813,0.5039062 0.433593,0 0.75,-0.1992187 1.054687,-0.65625 v 0.1875 c 0,0.9726563 -0.269531,1.3359375 -0.996094,1.3359375 -0.492187,0 -0.75,-0.1875 -0.808593,-0.609375 H 13.39512 c 0.05859,0.6796875 0.597657,1.1015625 1.394532,1.1015625 0.539062,0 0.984375,-0.1757812 1.21875,-0.46875 0.28125,-0.3398437 0.386718,-0.796875 0.386718,-1.6523437 V 4.3328922 Z m -1.019531,0.4335937 c 0.621093,0 0.960937,0.515625 0.960937,1.453125 0,0.890625 -0.351562,1.40625 -0.960937,1.40625 -0.597657,0 -0.949219,-0.5273437 -0.949219,-1.4296875 0,-0.890625 0.351562,-1.4296875 0.949219,-1.4296875 z m 0,0"
       style="fill:#036998;fill-opacity:1;fill-rule:nonzero;stroke:none"
       aria-label="Token&#10;Ring"
       transform="matrix(1.3333333,0,0,1.3333333,6.1359333,16.445467)" />
  </g>
</svg>
