<?xml version="1.0" encoding="UTF-8" standalone="no"?>
<!-- Created with Inkscape (http://www.inkscape.org/) -->

<svg
   version="1.1"
   id="svg1"
   width="50.360001"
   height="45.253334"
   viewBox="0 0 50.360001 45.253334"
   sodipodi:docname="ciscosecurity.eps"
   xmlns:inkscape="http://www.inkscape.org/namespaces/inkscape"
   xmlns:sodipodi="http://sodipodi.sourceforge.net/DTD/sodipodi-0.dtd"
   xmlns="http://www.w3.org/2000/svg"
   xmlns:svg="http://www.w3.org/2000/svg">
  <defs
     id="defs1" />
  <sodipodi:namedview
     id="namedview1"
     pagecolor="#505050"
     bordercolor="#eeeeee"
     borderopacity="1"
     inkscape:showpageshadow="0"
     inkscape:pageopacity="0"
     inkscape:pagecheckerboard="0"
     inkscape:deskcolor="#d1d1d1">
    <inkscape:page
       x="0"
       y="0"
       inkscape:label="1"
       id="page1"
       width="50.360001"
       height="45.253334"
       margin="0"
       bleed="0" />
  </sodipodi:namedview>
  <g
     id="g1"
     inkscape:groupmode="layer"
     inkscape:label="1">
    <path
       id="path1"
       d="m 5.03516,52.9492 h 314.746 v 59.0625 H 5.03516 Z"
       style="fill:#087bbb;fill-opacity:1;fill-rule:nonzero;stroke:none"
       transform="matrix(0.13333333,0,0,-0.13333333,0,45.253333)" />
    <path
       id="path2"
       d="M 319.781,52.9492 V 112.012 H 5.03516 V 52.9492 Z"
       style="fill:none;stroke:#ffffff;stroke-width:3.99994;stroke-linecap:butt;stroke-linejoin:miter;stroke-miterlimit:4;stroke-dasharray:none;stroke-opacity:1"
       transform="matrix(0.13333333,0,0,-0.13333333,0,45.253333)" />
    <path
       id="path3"
       d="M 223.375,78.5742 H 302.75"
       style="fill:#087bbb;fill-opacity:1;fill-rule:nonzero;stroke:#ffffff;stroke-width:3.99994;stroke-linecap:butt;stroke-linejoin:miter;stroke-miterlimit:4;stroke-dasharray:none;stroke-opacity:1"
       transform="matrix(0.13333333,0,0,-0.13333333,0,45.253333)" />
    <path
       id="path4"
       d="M 223.375,81.4063 H 302.75"
       style="fill:#087bbb;fill-opacity:1;fill-rule:nonzero;stroke:#ffffff;stroke-width:3.99994;stroke-linecap:butt;stroke-linejoin:miter;stroke-miterlimit:4;stroke-dasharray:none;stroke-opacity:1"
       transform="matrix(0.13333333,0,0,-0.13333333,0,45.253333)" />
    <path
       id="path5"
       d="m 372.613,108.945 v 52.93 L 319.742,111.777 V 52.9492 l 52.871,55.9958"
       style="fill:#087bbb;fill-opacity:1;fill-rule:nonzero;stroke:none"
       transform="matrix(0.13333333,0,0,-0.13333333,0,45.253333)" />
    <path
       id="path6"
       d="m 372.613,108.945 v 52.93 L 319.742,111.777 V 52.9492 Z"
       style="fill:none;stroke:#ffffff;stroke-width:3.99994;stroke-linecap:butt;stroke-linejoin:miter;stroke-miterlimit:4;stroke-dasharray:none;stroke-opacity:1"
       transform="matrix(0.13333333,0,0,-0.13333333,0,45.253333)" />
    <path
       id="path7"
       d="M 263.863,4.82422 V 18.0859 l 28.614,39.5508 V 33.418 L 263.863,4.82422"
       style="fill:#087bbb;fill-opacity:1;fill-rule:nonzero;stroke:none"
       transform="matrix(0.13333333,0,0,-0.13333333,0,45.253333)" />
    <path
       id="path8"
       d="M 263.863,4.82422 V 18.0859 l 28.614,39.5508 V 33.418 Z"
       style="fill:none;stroke:#ffffff;stroke-width:3.99994;stroke-linecap:butt;stroke-linejoin:miter;stroke-miterlimit:4;stroke-dasharray:none;stroke-opacity:1"
       transform="matrix(0.13333333,0,0,-0.13333333,0,45.253333)" />
    <path
       id="path9"
       d="m 11.7344,4.82422 h 252.129 v 13.0664 H 11.7344 Z"
       style="fill:#087bbb;fill-opacity:1;fill-rule:nonzero;stroke:none"
       transform="matrix(0.13333333,0,0,-0.13333333,0,45.253333)" />
    <path
       id="path10"
       d="M 263.863,17.8906 V 4.82422 H 11.7344 V 17.8906 Z"
       style="fill:none;stroke:#ffffff;stroke-width:3.99994;stroke-linecap:butt;stroke-linejoin:miter;stroke-miterlimit:4;stroke-dasharray:none;stroke-opacity:1"
       transform="matrix(0.13333333,0,0,-0.13333333,0,45.253333)" />
    <path
       id="path11"
       d="M 263.863,17.8906 H 12.543 L 41.1367,57.6367 H 292.477 L 263.863,17.8906"
       style="fill:#087bbb;fill-opacity:1;fill-rule:nonzero;stroke:none"
       transform="matrix(0.13333333,0,0,-0.13333333,0,45.253333)" />
    <path
       id="path12"
       d="M 263.863,17.8906 H 12.543 L 41.1367,57.6367 H 292.477 Z"
       style="fill:none;stroke:#ffffff;stroke-width:3.99994;stroke-linecap:butt;stroke-linejoin:miter;stroke-miterlimit:4;stroke-dasharray:none;stroke-opacity:1"
       transform="matrix(0.13333333,0,0,-0.13333333,0,45.253333)" />
    <path
       id="path13"
       d="M 372.613,161.758 H 57.7695 L 5.03516,112.012 H 319.781 l 52.832,49.746"
       style="fill:#087bbb;fill-opacity:1;fill-rule:nonzero;stroke:none"
       transform="matrix(0.13333333,0,0,-0.13333333,0,45.253333)" />
    <path
       id="path14"
       d="M 372.613,161.758 H 57.7695 L 5.03516,112.012 H 319.781 Z"
       style="fill:none;stroke:#ffffff;stroke-width:3.99994;stroke-linecap:butt;stroke-linejoin:miter;stroke-miterlimit:4;stroke-dasharray:none;stroke-opacity:1"
       transform="matrix(0.13333333,0,0,-0.13333333,0,45.253333)" />
    <path
       id="path15"
       d="M 313.316,161.543 H 102.613 L 67.3086,128.262 H 278.004 l 35.312,33.281"
       style="fill:#087bbb;fill-opacity:1;fill-rule:nonzero;stroke:none"
       transform="matrix(0.13333333,0,0,-0.13333333,0,45.253333)" />
    <path
       id="path16"
       d="M 313.316,161.543 H 102.613 L 67.3086,128.262 H 278.004 Z"
       style="fill:none;stroke:#ffffff;stroke-width:3.99994;stroke-linecap:butt;stroke-linejoin:miter;stroke-miterlimit:4;stroke-dasharray:none;stroke-opacity:1"
       transform="matrix(0.13333333,0,0,-0.13333333,0,45.253333)" />
    <path
       id="path17"
       d="m 61.3242,141.27 h 217.012 V 300.333 H 61.3242 Z"
       style="fill:#087bbb;fill-opacity:1;fill-rule:nonzero;stroke:none"
       transform="matrix(0.13333333,0,0,-0.13333333,0,45.253333)" />
    <path
       id="path18"
       d="M 278.336,141.27 V 300.332 H 61.3242 V 141.27 Z"
       style="fill:none;stroke:#ffffff;stroke-width:3.99994;stroke-linecap:butt;stroke-linejoin:miter;stroke-miterlimit:4;stroke-dasharray:none;stroke-opacity:1"
       transform="matrix(0.13333333,0,0,-0.13333333,0,45.253333)" />
    <path
       id="path19"
       d="m 79.6523,265.449 c 0,15.977 16.5625,18.34 16.5625,18.34 0,0 127.7262,0 143.0982,0 20.097,0 19.511,-18.926 19.511,-18.926 0,0 0,-78.047 0,-89.297 0,-11.23 -15.371,-15.957 -15.371,-15.957 0,0 -130.683,0 -144.8749,0 -14.1875,0 -18.9258,14.786 -18.9258,14.786 v 91.054"
       style="fill:#087bbb;fill-opacity:1;fill-rule:nonzero;stroke:none"
       transform="matrix(0.13333333,0,0,-0.13333333,0,45.253333)" />
    <path
       id="path20"
       d="m 79.6523,265.449 c 0,15.977 16.5625,18.34 16.5625,18.34 0,0 127.7262,0 143.0982,0 20.097,0 19.511,-18.926 19.511,-18.926 0,0 0,-78.047 0,-89.297 0,-11.23 -15.371,-15.957 -15.371,-15.957 0,0 -130.683,0 -144.8749,0 -14.1875,0 -18.9258,14.786 -18.9258,14.786 z"
       style="fill:none;stroke:#ffffff;stroke-width:3.99994;stroke-linecap:butt;stroke-linejoin:miter;stroke-miterlimit:4;stroke-dasharray:none;stroke-opacity:1"
       transform="matrix(0.13333333,0,0,-0.13333333,0,45.253333)" />
    <path
       id="path21"
       d="M 314.703,334.629 H 97.6914 L 61.3242,300.332 H 278.336 l 36.367,34.297"
       style="fill:#087bbb;fill-opacity:1;fill-rule:nonzero;stroke:none"
       transform="matrix(0.13333333,0,0,-0.13333333,0,45.253333)" />
    <path
       id="path22"
       d="M 314.703,334.629 H 97.6914 L 61.3242,300.332 H 278.336 Z"
       style="fill:none;stroke:#ffffff;stroke-width:3.99994;stroke-linecap:butt;stroke-linejoin:miter;stroke-miterlimit:4;stroke-dasharray:none;stroke-opacity:1"
       transform="matrix(0.13333333,0,0,-0.13333333,0,45.253333)" />
    <path
       id="path23"
       d="M 314.703,175.078 V 334.707 L 278.688,300.645 V 141.016 l 36.015,34.062"
       style="fill:#087bbb;fill-opacity:1;fill-rule:nonzero;stroke:none"
       transform="matrix(0.13333333,0,0,-0.13333333,0,45.253333)" />
    <path
       id="path24"
       d="M 314.703,175.078 V 334.707 L 278.688,300.645 V 141.016 Z"
       style="fill:none;stroke:#ffffff;stroke-width:3.99994;stroke-linecap:butt;stroke-linejoin:miter;stroke-miterlimit:4;stroke-dasharray:none;stroke-opacity:1"
       transform="matrix(0.13333333,0,0,-0.13333333,0,45.253333)" />
    <path
       id="path25"
       d="M 203.551,256.719 V 184.863"
       style="fill:#087bbb;fill-opacity:1;fill-rule:nonzero;stroke:#ffffff;stroke-width:3.99994;stroke-linecap:butt;stroke-linejoin:miter;stroke-miterlimit:4;stroke-dasharray:none;stroke-opacity:1"
       transform="matrix(0.13333333,0,0,-0.13333333,0,45.253333)" />
    <path
       id="path26"
       d="m 133.355,184.863 v 82.356"
       style="fill:#087bbb;fill-opacity:1;fill-rule:nonzero;stroke:#ffffff;stroke-width:3.99994;stroke-linecap:butt;stroke-linejoin:miter;stroke-miterlimit:4;stroke-dasharray:none;stroke-opacity:1"
       transform="matrix(0.13333333,0,0,-0.13333333,0,45.253333)" />
    <path
       id="path27"
       d="m 133.355,184.609 c 14.844,-33.808 28.348,3.985 28.348,3.985 h 66.152 c -6.746,-17.547 -16.199,-18.895 -16.199,-18.895 h -62.109 c -12.149,1.348 -16.192,14.91 -16.192,14.91"
       style="fill:#087bbb;fill-opacity:1;fill-rule:nonzero;stroke:none"
       transform="matrix(0.13333333,0,0,-0.13333333,0,45.253333)" />
    <path
       id="path28"
       d="m 133.355,184.609 c 14.844,-33.808 28.348,3.985 28.348,3.985 h 66.152 c -6.746,-17.547 -16.199,-18.895 -16.199,-18.895 h -62.109 c -12.149,1.348 -16.192,14.91 -16.192,14.91 z"
       style="fill:none;stroke:#ffffff;stroke-width:3.99994;stroke-linecap:butt;stroke-linejoin:miter;stroke-miterlimit:4;stroke-dasharray:none;stroke-opacity:1"
       transform="matrix(0.13333333,0,0,-0.13333333,0,45.253333)" />
    <path
       id="path29"
       d="m 149.547,226.641 h 39.16"
       style="fill:#087bbb;fill-opacity:1;fill-rule:nonzero;stroke:#ffffff;stroke-width:3.99994;stroke-linecap:butt;stroke-linejoin:miter;stroke-miterlimit:4;stroke-dasharray:none;stroke-opacity:1"
       transform="matrix(0.13333333,0,0,-0.13333333,0,45.253333)" />
    <path
       id="path30"
       d="m 149.547,218.547 h 39.16"
       style="fill:#087bbb;fill-opacity:1;fill-rule:nonzero;stroke:#ffffff;stroke-width:3.99994;stroke-linecap:butt;stroke-linejoin:miter;stroke-miterlimit:4;stroke-dasharray:none;stroke-opacity:1"
       transform="matrix(0.13333333,0,0,-0.13333333,0,45.253333)" />
    <path
       id="path31"
       d="m 149.547,207.754 h 39.16"
       style="fill:#087bbb;fill-opacity:1;fill-rule:nonzero;stroke:#ffffff;stroke-width:3.99994;stroke-linecap:butt;stroke-linejoin:miter;stroke-miterlimit:4;stroke-dasharray:none;stroke-opacity:1"
       transform="matrix(0.13333333,0,0,-0.13333333,0,45.253333)" />
    <path
       id="path32"
       d="m 149.547,199.648 h 39.16"
       style="fill:#087bbb;fill-opacity:1;fill-rule:nonzero;stroke:#ffffff;stroke-width:3.99994;stroke-linecap:butt;stroke-linejoin:miter;stroke-miterlimit:4;stroke-dasharray:none;stroke-opacity:1"
       transform="matrix(0.13333333,0,0,-0.13333333,0,45.253333)" />
    <path
       id="path33"
       d="m 202.633,259.043 -4.043,12.148 h -65.051 c 0,0 -10.801,1.36 -13.504,-17.539 v -14.863 h 13.133 v 20.254"
       style="fill:#087bbb;fill-opacity:1;fill-rule:nonzero;stroke:#ffffff;stroke-width:3.99994;stroke-linecap:butt;stroke-linejoin:miter;stroke-miterlimit:4;stroke-dasharray:none;stroke-opacity:1"
       transform="matrix(0.13333333,0,0,-0.13333333,0,45.253333)" />
    <path
       id="path34"
       d="m 132.047,271.191 c 0,0 -10.801,1.36 -13.508,-17.539 v -14.863"
       style="fill:#087bbb;fill-opacity:1;fill-rule:nonzero;stroke:#ffffff;stroke-width:3.99994;stroke-linecap:butt;stroke-linejoin:miter;stroke-miterlimit:4;stroke-dasharray:none;stroke-opacity:1"
       transform="matrix(0.13333333,0,0,-0.13333333,0,45.253333)" />
    <path
       id="path35"
       d="m 149.547,246.895 h 39.16"
       style="fill:#087bbb;fill-opacity:1;fill-rule:nonzero;stroke:#ffffff;stroke-width:3.99994;stroke-linecap:butt;stroke-linejoin:miter;stroke-miterlimit:4;stroke-dasharray:none;stroke-opacity:1"
       transform="matrix(0.13333333,0,0,-0.13333333,0,45.253333)" />
    <path
       id="path36"
       d="m 149.547,255 h 39.16"
       style="fill:#087bbb;fill-opacity:1;fill-rule:nonzero;stroke:#ffffff;stroke-width:3.99994;stroke-linecap:butt;stroke-linejoin:miter;stroke-miterlimit:4;stroke-dasharray:none;stroke-opacity:1"
       transform="matrix(0.13333333,0,0,-0.13333333,0,45.253333)" />
    <path
       id="path37"
       d="m 134.438,184.238 v 76.973"
       style="fill:#087bbb;fill-opacity:1;fill-rule:nonzero;stroke:#ffffff;stroke-width:3.99994;stroke-linecap:butt;stroke-linejoin:miter;stroke-miterlimit:4;stroke-dasharray:none;stroke-opacity:1"
       transform="matrix(0.13333333,0,0,-0.13333333,0,45.253333)" />
  </g>
</svg>
