<?xml version="1.0" encoding="UTF-8" standalone="no"?>
<!-- Created with Inkscape (http://www.inkscape.org/) -->

<svg
   version="1.1"
   id="svg1"
   width="57.16"
   height="28.76"
   viewBox="0 0 57.16 28.76"
   sodipodi:docname="100baset hub.eps"
   xmlns:inkscape="http://www.inkscape.org/namespaces/inkscape"
   xmlns:sodipodi="http://sodipodi.sourceforge.net/DTD/sodipodi-0.dtd"
   xmlns="http://www.w3.org/2000/svg"
   xmlns:svg="http://www.w3.org/2000/svg">
  <defs
     id="defs1" />
  <sodipodi:namedview
     id="namedview1"
     pagecolor="#505050"
     bordercolor="#eeeeee"
     borderopacity="1"
     inkscape:showpageshadow="0"
     inkscape:pageopacity="0"
     inkscape:pagecheckerboard="0"
     inkscape:deskcolor="#d1d1d1">
    <inkscape:page
       x="0"
       y="0"
       inkscape:label="1"
       id="page1"
       width="57.16"
       height="28.76"
       margin="0"
       bleed="0" />
  </sodipodi:namedview>
  <g
     id="g1"
     inkscape:groupmode="layer"
     inkscape:label="1">
    <path
       id="path1"
       d="m 375.805,111.859 49.699,101.864 H 81.3906 L 4.02734,111.859 H 375.805"
       style="fill:#087bbb;fill-opacity:1;fill-rule:nonzero;stroke:none"
       transform="matrix(0.13333333,0,0,-0.13333333,0,28.76)" />
    <path
       id="path2"
       d="m 375.805,111.859 49.699,101.864 H 81.3906 L 4.02734,111.859 Z"
       style="fill:none;stroke:#ffffff;stroke-width:3.99994;stroke-linecap:butt;stroke-linejoin:miter;stroke-miterlimit:4;stroke-dasharray:none;stroke-opacity:1"
       transform="matrix(0.13333333,0,0,-0.13333333,0,28.76)" />
    <path
       id="path3"
       d="m 425.523,121.273 -0.019,92.45 -49.699,-101.864 V 2.00391 L 425.523,121.273"
       style="fill:#087bbb;fill-opacity:1;fill-rule:nonzero;stroke:none"
       transform="matrix(0.13333333,0,0,-0.13333333,0,28.76)" />
    <path
       id="path4"
       d="m 425.523,121.273 -0.019,92.45 -49.699,-101.864 V 2.00391 Z"
       style="fill:none;stroke:#ffffff;stroke-width:3.99994;stroke-linecap:butt;stroke-linejoin:miter;stroke-miterlimit:4;stroke-dasharray:none;stroke-opacity:1"
       transform="matrix(0.13333333,0,0,-0.13333333,0,28.76)" />
    <path
       id="path5"
       d="M 375.805,2.00391 V 111.859 H 3.98047 L 4.11719,2.00391 H 375.805"
       style="fill:#087bbb;fill-opacity:1;fill-rule:nonzero;stroke:none"
       transform="matrix(0.13333333,0,0,-0.13333333,0,28.76)" />
    <path
       id="path6"
       d="M 375.805,2.00391 V 111.859 H 3.98047 L 4.11719,2.00391 Z"
       style="fill:none;stroke:#ffffff;stroke-width:3.99994;stroke-linecap:butt;stroke-linejoin:miter;stroke-miterlimit:4;stroke-dasharray:none;stroke-opacity:1"
       transform="matrix(0.13333333,0,0,-0.13333333,0,28.76)" />
    <path
       id="path7"
       d="m 363.004,165.773 -139.816,18.29 -6.454,-9.958 -121.5934,0.129 -14.8906,-16.789 125.723,0.059 -6.289,-9.688 163.32,17.957"
       style="fill:#ffffff;fill-opacity:1;fill-rule:nonzero;stroke:none"
       transform="matrix(0.13333333,0,0,-0.13333333,0,28.76)" />
  </g>
</svg>
