<?xml version="1.0" encoding="UTF-8" standalone="no"?>
<!-- Created with Inkscape (http://www.inkscape.org/) -->

<svg
   version="1.1"
   id="svg1"
   width="65.080002"
   height="33.746666"
   viewBox="0 0 65.080002 33.746666"
   sodipodi:docname="access gateway.eps"
   xmlns:inkscape="http://www.inkscape.org/namespaces/inkscape"
   xmlns:sodipodi="http://sodipodi.sourceforge.net/DTD/sodipodi-0.dtd"
   xmlns="http://www.w3.org/2000/svg"
   xmlns:svg="http://www.w3.org/2000/svg">
  <defs
     id="defs1">
    <clipPath
       clipPathUnits="userSpaceOnUse"
       id="clipPath2">
      <path
         d="M 0,3 V 253 H 488 V 3 Z"
         id="path2" />
    </clipPath>
    <clipPath
       clipPathUnits="userSpaceOnUse"
       id="clipPath4">
      <path
         d="M 0,3 V 253 H 488 V 3 Z"
         id="path4" />
    </clipPath>
    <clipPath
       clipPathUnits="userSpaceOnUse"
       id="clipPath6">
      <path
         d="M 0,3 V 253 H 488 V 3 Z"
         id="path6" />
    </clipPath>
    <clipPath
       clipPathUnits="userSpaceOnUse"
       id="clipPath8">
      <path
         d="M 0,3 V 253 H 488 V 3 Z"
         id="path8" />
    </clipPath>
    <clipPath
       clipPathUnits="userSpaceOnUse"
       id="clipPath10">
      <path
         d="M 0,3 V 253 H 488 V 3 Z"
         id="path10" />
    </clipPath>
    <clipPath
       clipPathUnits="userSpaceOnUse"
       id="clipPath12">
      <path
         d="M 0,3 V 253 H 488 V 3 Z"
         id="path12" />
    </clipPath>
    <clipPath
       clipPathUnits="userSpaceOnUse"
       id="clipPath14">
      <path
         d="M 0,3 V 253 H 488 V 3 Z"
         id="path14" />
    </clipPath>
    <clipPath
       clipPathUnits="userSpaceOnUse"
       id="clipPath16">
      <path
         d="M 0,3 V 253 H 488 V 3 Z"
         id="path16" />
    </clipPath>
    <clipPath
       clipPathUnits="userSpaceOnUse"
       id="clipPath18">
      <path
         d="M 0,3 V 253 H 488 V 3 Z"
         id="path18" />
    </clipPath>
    <clipPath
       clipPathUnits="userSpaceOnUse"
       id="clipPath20">
      <path
         d="M 0,3 V 253 H 488 V 3 Z"
         id="path20" />
    </clipPath>
    <clipPath
       clipPathUnits="userSpaceOnUse"
       id="clipPath22">
      <path
         d="M 0,3 V 253 H 488 V 3 Z"
         id="path22" />
    </clipPath>
    <clipPath
       clipPathUnits="userSpaceOnUse"
       id="clipPath24">
      <path
         d="M 0,3 V 253 H 488 V 3 Z"
         id="path24" />
    </clipPath>
    <clipPath
       clipPathUnits="userSpaceOnUse"
       id="clipPath26">
      <path
         d="M 0,3 V 253 H 488 V 3 Z"
         transform="matrix(0.1,0,0,-0.1,-27.752701,4.3113299)"
         id="path26" />
    </clipPath>
    <clipPath
       clipPathUnits="userSpaceOnUse"
       id="clipPath28">
      <path
         d="M 0,3 V 253 H 488 V 3 Z"
         id="path28" />
    </clipPath>
    <clipPath
       clipPathUnits="userSpaceOnUse"
       id="clipPath30">
      <path
         d="M 0,3 V 253 H 488 V 3 Z"
         id="path30" />
    </clipPath>
    <clipPath
       clipPathUnits="userSpaceOnUse"
       id="clipPath32">
      <path
         d="M 0,3 V 253 H 488 V 3 Z"
         id="path32" />
    </clipPath>
    <clipPath
       clipPathUnits="userSpaceOnUse"
       id="clipPath34">
      <path
         d="M 0,3 V 253 H 488 V 3 Z"
         id="path34" />
    </clipPath>
    <clipPath
       clipPathUnits="userSpaceOnUse"
       id="clipPath36">
      <path
         d="M 0,3 V 253 H 488 V 3 Z"
         id="path36" />
    </clipPath>
  </defs>
  <sodipodi:namedview
     id="namedview1"
     pagecolor="#505050"
     bordercolor="#eeeeee"
     borderopacity="1"
     inkscape:showpageshadow="0"
     inkscape:pageopacity="0"
     inkscape:pagecheckerboard="0"
     inkscape:deskcolor="#d1d1d1">
    <inkscape:page
       x="0"
       y="0"
       inkscape:label="1"
       id="page1"
       width="65.080002"
       height="33.746666"
       margin="0"
       bleed="0" />
  </sodipodi:namedview>
  <g
     id="g1"
     inkscape:groupmode="layer"
     inkscape:label="1">
    <path
       id="path1"
       d="m 6.58203,8.76953 h 357.195 v 123.445 H 6.58203 Z"
       style="fill:#087bbb;fill-opacity:1;fill-rule:nonzero;stroke:none"
       transform="matrix(0.13333333,0,0,-0.13333333,0,33.746667)"
       clip-path="url(#clipPath2)" />
    <path
       id="path3"
       d="M 363.777,8.76953 V 132.215 H 6.58203 V 8.76953 Z"
       style="fill:none;stroke:#ffffff;stroke-width:3.99994;stroke-linecap:butt;stroke-linejoin:miter;stroke-miterlimit:4;stroke-dasharray:none;stroke-opacity:1"
       transform="matrix(0.13333333,0,0,-0.13333333,0,33.746667)"
       clip-path="url(#clipPath4)" />
    <path
       id="path5"
       d="M 5.64453,131.633 149.934,248.574 H 483.23 L 363.445,131.633 H 5.64453"
       style="fill:#087bbb;fill-opacity:1;fill-rule:nonzero;stroke:none"
       transform="matrix(0.13333333,0,0,-0.13333333,0,33.746667)"
       clip-path="url(#clipPath6)" />
    <path
       id="path7"
       d="M 5.64453,131.633 149.934,248.574 H 483.23 L 363.445,131.633 Z"
       style="fill:none;stroke:#ffffff;stroke-width:3.99994;stroke-linecap:butt;stroke-linejoin:miter;stroke-miterlimit:4;stroke-dasharray:none;stroke-opacity:1"
       transform="matrix(0.13333333,0,0,-0.13333333,0,33.746667)"
       clip-path="url(#clipPath8)" />
    <path
       id="path9"
       d="M 363.586,5.10547 482.898,134.031 482.98,248.359 363.586,131.797 V 5.10547"
       style="fill:#087bbb;fill-opacity:1;fill-rule:nonzero;stroke:none"
       transform="matrix(0.13333333,0,0,-0.13333333,0,33.746667)"
       clip-path="url(#clipPath10)" />
    <path
       id="path11"
       d="M 363.586,5.10547 482.898,134.031 482.98,248.359 363.586,131.797 Z"
       style="fill:none;stroke:#ffffff;stroke-width:3.99994;stroke-linecap:butt;stroke-linejoin:miter;stroke-miterlimit:4;stroke-dasharray:none;stroke-opacity:1"
       transform="matrix(0.13333333,0,0,-0.13333333,0,33.746667)"
       clip-path="url(#clipPath12)" />
    <path
       id="path13"
       d="m 215.027,162.059 -6.929,-5.684 h -89.094 l -8.875,-8.887 -24.1524,10.528 48.5544,13.879 -8.593,-9.836 h 89.089"
       style="fill:#ffffff;fill-opacity:1;fill-rule:nonzero;stroke:none"
       transform="matrix(0.13333333,0,0,-0.13333333,0,33.746667)"
       clip-path="url(#clipPath14)" />
    <path
       id="path15"
       d="m 285.027,205.809 -6.929,-5.684 h -89.094 l -8.875,-8.887 -24.152,10.528 48.554,13.879 -8.593,-9.836 h 89.089"
       style="fill:#ffffff;fill-opacity:1;fill-rule:nonzero;stroke:none"
       transform="matrix(0.13333333,0,0,-0.13333333,0,33.746667)"
       clip-path="url(#clipPath16)" />
    <path
       id="path17"
       d="m 230.742,177.52 6.922,5.671 h 89.106 l 8.875,8.887 24.16,-10.527 -48.567,-13.875 8.598,9.844 h -89.094"
       style="fill:#ffffff;fill-opacity:1;fill-rule:nonzero;stroke:none"
       transform="matrix(0.13333333,0,0,-0.13333333,0,33.746667)"
       clip-path="url(#clipPath18)" />
    <path
       id="path19"
       d="m 276.992,221.27 6.922,5.671 h 89.106 l 8.875,8.887 24.16,-10.527 -48.567,-13.875 8.598,9.844 h -89.094"
       style="fill:#ffffff;fill-opacity:1;fill-rule:nonzero;stroke:none"
       transform="matrix(0.13333333,0,0,-0.13333333,0,33.746667)"
       clip-path="url(#clipPath20)" />
    <path
       id="path21"
       d="m 261.438,30.2422 h 84 v 84.0039 h -84 z"
       style="fill:#087bbb;fill-opacity:1;fill-rule:nonzero;stroke:none"
       transform="matrix(0.13333333,0,0,-0.13333333,0,33.746667)"
       clip-path="url(#clipPath22)" />
    <path
       id="path23"
       d="m 345.438,30.2422 v 84.0038 h -84 V 30.2422 Z"
       style="fill:none;stroke:#ffffff;stroke-width:3.99994;stroke-linecap:butt;stroke-linejoin:miter;stroke-miterlimit:4;stroke-dasharray:none;stroke-opacity:1"
       transform="matrix(0.13333333,0,0,-0.13333333,0,33.746667)"
       clip-path="url(#clipPath24)" />
    <path
       id="path25"
       d="M 3.1408547,0.00133 5.1681984,-5.8346075 H 4.3713234 L 2.7541359,-0.889295 1.0431984,-5.8346075 H 0.23460469 L 2.3322609,0.00133 Z m 0,0"
       style="fill:#ffffff;fill-opacity:1;fill-rule:nonzero;stroke:none"
       aria-label="V"
       transform="matrix(1.3333333,0,0,1.3333333,37.0036,27.998227)"
       clip-path="url(#clipPath26)" />
    <path
       id="path27"
       d="m 126.863,33.8281 c 50.688,3.3086 90.727,21.9727 89.446,41.6797 -1.289,19.707 -43.411,33.0082 -94.09,29.7072 C 71.5234,101.902 31.4844,83.2539 32.7734,63.5352 34.0625,43.8281 76.1797,30.5273 126.863,33.8281"
       style="fill:#087bbb;fill-opacity:1;fill-rule:nonzero;stroke:#ffffff;stroke-width:3.99994;stroke-linecap:butt;stroke-linejoin:miter;stroke-miterlimit:4;stroke-dasharray:none;stroke-opacity:1"
       transform="matrix(0.13333333,0,0,-0.13333333,0,33.746667)"
       clip-path="url(#clipPath28)" />
    <path
       id="path29"
       d="m 102.664,82.1094 8.32,-10.8789 -28.2106,-8.4883 5.918,5.6172 -44.7773,4.6875 10.5781,9.0508 43.1914,-4.4532 4.9804,4.4649"
       style="fill:#ffffff;fill-opacity:1;fill-rule:nonzero;stroke:none"
       transform="matrix(0.13333333,0,0,-0.13333333,0,33.746667)"
       clip-path="url(#clipPath30)" />
    <path
       id="path31"
       d="m 144.785,57.168 -5.937,11.3789 25.507,6.8633 -4.218,-4.3164 43.554,-4.543 -9.796,-8.9453 -43.348,5.2461 -5.762,-5.6836"
       style="fill:#ffffff;fill-opacity:1;fill-rule:nonzero;stroke:none"
       transform="matrix(0.13333333,0,0,-0.13333333,0,33.746667)"
       clip-path="url(#clipPath32)" />
    <path
       id="path33"
       d="m 128.445,90.0195 28.442,9.8164 1.14,-12.3867 -7.324,0.8985 -13.359,-12.625 -13.614,1.082 13.848,12.4141 -9.133,0.8007"
       style="fill:#ffffff;fill-opacity:1;fill-rule:nonzero;stroke:none"
       transform="matrix(0.13333333,0,0,-0.13333333,0,33.746667)"
       clip-path="url(#clipPath34)" />
    <path
       id="path35"
       d="m 118.945,44.7656 -27.2262,-6.9726 -1.8672,12.6836 8.039,-1.211 14.3284,13.9492 13.57,-1.3984 -15.269,-15.1758 8.425,-1.875"
       style="fill:#ffffff;fill-opacity:1;fill-rule:nonzero;stroke:none"
       transform="matrix(0.13333333,0,0,-0.13333333,0,33.746667)"
       clip-path="url(#clipPath36)" />
  </g>
</svg>
