<?xml version="1.0" encoding="UTF-8" standalone="no"?>
<!-- Created with Inkscape (http://www.inkscape.org/) -->

<svg
   version="1.1"
   id="svg1"
   width="49.173332"
   height="21.906668"
   viewBox="0 0 49.173332 21.906668"
   sodipodi:docname="accesspoint.eps"
   xmlns:inkscape="http://www.inkscape.org/namespaces/inkscape"
   xmlns:sodipodi="http://sodipodi.sourceforge.net/DTD/sodipodi-0.dtd"
   xmlns="http://www.w3.org/2000/svg"
   xmlns:svg="http://www.w3.org/2000/svg">
  <defs
     id="defs1">
    <clipPath
       clipPathUnits="userSpaceOnUse"
       id="clipPath2">
      <path
         d="M 0,4 V 164 H 369 V 4 Z"
         id="path2" />
    </clipPath>
    <clipPath
       clipPathUnits="userSpaceOnUse"
       id="clipPath4">
      <path
         d="M 0,4 V 164 H 369 V 4 Z"
         id="path4" />
    </clipPath>
    <clipPath
       clipPathUnits="userSpaceOnUse"
       id="clipPath6">
      <path
         d="M 0,4 V 164 H 369 V 4 Z"
         id="path6" />
    </clipPath>
    <clipPath
       clipPathUnits="userSpaceOnUse"
       id="clipPath8">
      <path
         d="M 0,4 V 164 H 369 V 4 Z"
         id="path8" />
    </clipPath>
    <clipPath
       clipPathUnits="userSpaceOnUse"
       id="clipPath10">
      <path
         d="M 0,4 V 164 H 369 V 4 Z"
         id="path10" />
    </clipPath>
    <clipPath
       clipPathUnits="userSpaceOnUse"
       id="clipPath12">
      <path
         d="M 0,4 V 164 H 369 V 4 Z"
         id="path12" />
    </clipPath>
    <clipPath
       clipPathUnits="userSpaceOnUse"
       id="clipPath14">
      <path
         d="M 0,4 V 164 H 369 V 4 Z"
         id="path14" />
    </clipPath>
    <clipPath
       clipPathUnits="userSpaceOnUse"
       id="clipPath16">
      <path
         d="M 0,4 V 164 H 369 V 4 Z"
         id="path16" />
    </clipPath>
    <clipPath
       clipPathUnits="userSpaceOnUse"
       id="clipPath18">
      <path
         d="M 0,4 V 164 H 369 V 4 Z"
         id="path18" />
    </clipPath>
    <clipPath
       clipPathUnits="userSpaceOnUse"
       id="clipPath20">
      <path
         d="M 0,4 V 164 H 369 V 4 Z"
         id="path20" />
    </clipPath>
    <clipPath
       clipPathUnits="userSpaceOnUse"
       id="clipPath22">
      <path
         d="M 0,4 V 164 H 369 V 4 Z"
         id="path22" />
    </clipPath>
    <clipPath
       clipPathUnits="userSpaceOnUse"
       id="clipPath24">
      <path
         d="M 0,4 V 164 H 369 V 4 Z"
         id="path24" />
    </clipPath>
    <clipPath
       clipPathUnits="userSpaceOnUse"
       id="clipPath26">
      <path
         d="M 0,4 V 164 H 369 V 4 Z"
         id="path26" />
    </clipPath>
    <clipPath
       clipPathUnits="userSpaceOnUse"
       id="clipPath28">
      <path
         d="M 0,4 V 164 H 369 V 4 Z"
         id="path28" />
    </clipPath>
    <clipPath
       clipPathUnits="userSpaceOnUse"
       id="clipPath30">
      <path
         d="M 0,4 V 164 H 369 V 4 Z"
         id="path30" />
    </clipPath>
    <clipPath
       clipPathUnits="userSpaceOnUse"
       id="clipPath32">
      <path
         d="M 0,4 V 164 H 369 V 4 Z"
         id="path32" />
    </clipPath>
  </defs>
  <sodipodi:namedview
     id="namedview1"
     pagecolor="#505050"
     bordercolor="#eeeeee"
     borderopacity="1"
     inkscape:showpageshadow="0"
     inkscape:pageopacity="0"
     inkscape:pagecheckerboard="0"
     inkscape:deskcolor="#d1d1d1">
    <inkscape:page
       x="0"
       y="0"
       inkscape:label="1"
       id="page1"
       width="49.173332"
       height="21.906668"
       margin="0"
       bleed="0" />
  </sodipodi:namedview>
  <g
     id="g1"
     inkscape:groupmode="layer"
     inkscape:label="1">
    <path
       id="path1"
       d="M 6.07031,102.715 83.0039,159.578 H 364.059 L 308.121,102.715 H 6.07031"
       style="fill:#087bbb;fill-opacity:1;fill-rule:nonzero;stroke:none"
       transform="matrix(0.13333333,0,0,-0.13333333,0,21.906667)"
       clip-path="url(#clipPath2)" />
    <path
       id="path3"
       d="M 6.07031,102.715 83.0039,159.578 H 364.059 l -55.938,-56.863 z"
       style="fill:none;stroke:#ffffff;stroke-width:3.99994;stroke-linecap:butt;stroke-linejoin:miter;stroke-miterlimit:4;stroke-dasharray:none;stroke-opacity:1"
       transform="matrix(0.13333333,0,0,-0.13333333,0,21.906667)"
       clip-path="url(#clipPath4)" />
    <path
       id="path5"
       d="M 308.121,4.87109 364.059,61.543 v 97.859 L 308.121,102.715 V 4.87109"
       style="fill:#087bbb;fill-opacity:1;fill-rule:nonzero;stroke:none"
       transform="matrix(0.13333333,0,0,-0.13333333,0,21.906667)"
       clip-path="url(#clipPath6)" />
    <path
       id="path7"
       d="M 308.121,4.87109 364.059,61.543 v 97.859 l -55.938,-56.687 z"
       style="fill:none;stroke:#ffffff;stroke-width:3.99994;stroke-linecap:butt;stroke-linejoin:miter;stroke-miterlimit:4;stroke-dasharray:none;stroke-opacity:1"
       transform="matrix(0.13333333,0,0,-0.13333333,0,21.906667)"
       clip-path="url(#clipPath8)" />
    <path
       id="path9"
       d="m 6.5,4.77344 h 301.621 v 97.9414 H 6.5 Z"
       style="fill:#087bbb;fill-opacity:1;fill-rule:nonzero;stroke:none"
       transform="matrix(0.13333333,0,0,-0.13333333,0,21.906667)"
       clip-path="url(#clipPath10)" />
    <path
       id="path11"
       d="M 308.121,4.77344 V 102.715 H 6.5 V 4.77344 Z"
       style="fill:none;stroke:#ffffff;stroke-width:3.99994;stroke-linecap:butt;stroke-linejoin:miter;stroke-miterlimit:4;stroke-dasharray:none;stroke-opacity:1"
       transform="matrix(0.13333333,0,0,-0.13333333,0,21.906667)"
       clip-path="url(#clipPath12)" />
    <path
       id="path13"
       d="m 284.137,52.9961 c 0,0 -19.571,-50.31251 -43.106,0.1484 -23.496,50.4295 -43.105,0.1094 -43.105,0.1094 0,0 -19.551,-50.34374 -43.067,0.0938 -23.496,50.4413 -42.988,-0.3125 -42.988,-0.3125 0,0 -19.5233,-50.35161 -43.0468,0.1093 -23.5078,50.4295 -43.0078,0.1446 -43.0078,0.1446"
       style="fill:none;stroke:#ffffff;stroke-width:4.49997;stroke-linecap:round;stroke-linejoin:miter;stroke-miterlimit:1;stroke-dasharray:none;stroke-opacity:1"
       transform="matrix(0.13333333,0,0,-0.13333333,0,21.906667)"
       clip-path="url(#clipPath14)" />
    <path
       id="path15"
       d="m 25.8164,52.9961 c 0,0 19.5703,-50.31251 43.0938,0.1484 23.5078,50.4295 43.1168,0.1094 43.1168,0.1094 0,0 19.551,-50.34374 43.047,0.0938 23.516,50.4413 43.008,-0.3125 43.008,-0.3125 0,0 19.512,-50.35161 43.047,0.1093 23.496,50.4295 43.008,0.1446 43.008,0.1446"
       style="fill:none;stroke:#ffffff;stroke-width:8.99994;stroke-linecap:round;stroke-linejoin:miter;stroke-miterlimit:1;stroke-dasharray:none;stroke-opacity:1"
       transform="matrix(0.13333333,0,0,-0.13333333,0,21.906667)"
       clip-path="url(#clipPath16)" />
    <path
       id="path17"
       d="m 288.668,52.9961 c 0,0 -19.57,-50.31251 -43.105,0.1484 -23.497,50.4295 -43.106,0.1094 -43.106,0.1094 0,0 -19.551,-50.35546 -43.066,0.0938 -23.496,50.4413 -42.989,-0.3125 -42.989,-0.3125 0,0 -19.5231,-50.35161 -43.0465,0.1093 -23.5078,50.4295 -43.0078,0.1368 -43.0078,0.1368"
       style="fill:none;stroke:#231f20;stroke-width:4.49997;stroke-linecap:round;stroke-linejoin:miter;stroke-miterlimit:1;stroke-dasharray:none;stroke-opacity:1"
       transform="matrix(0.13333333,0,0,-0.13333333,0,21.906667)"
       clip-path="url(#clipPath18)" />
    <path
       id="path19"
       d="m 30.3477,52.9961 c 0,0 19.5703,-50.31251 43.0937,0.1484 23.5078,50.4295 43.1176,0.1094 43.1176,0.1094 0,0 19.55,-50.35546 43.046,0.0938 23.516,50.4413 43.008,-0.3125 43.008,-0.3125 0,0 19.512,-50.35161 43.047,0.1093 23.496,50.4295 43.008,0.1368 43.008,0.1368"
       style="fill:none;stroke:#231f20;stroke-width:8.99994;stroke-linecap:round;stroke-linejoin:miter;stroke-miterlimit:1;stroke-dasharray:none;stroke-opacity:1"
       transform="matrix(0.13333333,0,0,-0.13333333,0,21.906667)"
       clip-path="url(#clipPath20)" />
    <path
       id="path21"
       d="m 284.137,52.9961 c 0,0 -19.571,-50.31251 -43.106,0.1484 -23.496,50.4295 -43.105,0.1094 -43.105,0.1094 0,0 -19.551,-50.34374 -43.067,0.0938 -23.496,50.4413 -42.988,-0.3125 -42.988,-0.3125 0,0 -19.5233,-50.35161 -43.0468,0.1093 -23.5078,50.4295 -43.0078,0.1446 -43.0078,0.1446"
       style="fill:none;stroke:#ffffff;stroke-width:4.49997;stroke-linecap:round;stroke-linejoin:miter;stroke-miterlimit:1;stroke-dasharray:none;stroke-opacity:1"
       transform="matrix(0.13333333,0,0,-0.13333333,0,21.906667)"
       clip-path="url(#clipPath22)" />
    <path
       id="path23"
       d="m 25.8164,52.9961 c 0,0 19.5703,-50.31251 43.0938,0.1484 23.5078,50.4295 43.1168,0.1094 43.1168,0.1094 0,0 19.551,-50.34374 43.047,0.0938 23.516,50.4413 43.008,-0.3125 43.008,-0.3125 0,0 19.512,-50.35161 43.047,0.1093 23.496,50.4295 43.008,0.1446 43.008,0.1446"
       style="fill:none;stroke:#ffffff;stroke-width:8.99994;stroke-linecap:round;stroke-linejoin:miter;stroke-miterlimit:1;stroke-dasharray:none;stroke-opacity:1"
       transform="matrix(0.13333333,0,0,-0.13333333,0,21.906667)"
       clip-path="url(#clipPath24)" />
    <path
       id="path25"
       d="m 288.668,52.9961 c 0,0 -19.57,-50.31251 -43.105,0.1484 -23.497,50.4295 -43.106,0.1094 -43.106,0.1094 0,0 -19.551,-50.35546 -43.066,0.0938 -23.496,50.4413 -42.989,-0.3125 -42.989,-0.3125 0,0 -19.5231,-50.35161 -43.0465,0.1093 -23.5078,50.4295 -43.0078,0.1368 -43.0078,0.1368"
       style="fill:none;stroke:#231f20;stroke-width:4.49997;stroke-linecap:round;stroke-linejoin:miter;stroke-miterlimit:1;stroke-dasharray:none;stroke-opacity:1"
       transform="matrix(0.13333333,0,0,-0.13333333,0,21.906667)"
       clip-path="url(#clipPath26)" />
    <path
       id="path27"
       d="m 30.3477,52.9961 c 0,0 19.5703,-50.31251 43.0937,0.1484 23.5078,50.4295 43.1176,0.1094 43.1176,0.1094 0,0 19.55,-50.35546 43.046,0.0938 23.516,50.4413 43.008,-0.3125 43.008,-0.3125 0,0 19.512,-50.35161 43.047,0.1093 23.496,50.4295 43.008,0.1368 43.008,0.1368"
       style="fill:none;stroke:#231f20;stroke-width:8.99994;stroke-linecap:round;stroke-linejoin:miter;stroke-miterlimit:1;stroke-dasharray:none;stroke-opacity:1"
       transform="matrix(0.13333333,0,0,-0.13333333,0,21.906667)"
       clip-path="url(#clipPath28)" />
    <path
       id="path29"
       d="m 284.137,52.9961 c 0,0 -19.571,-50.31251 -43.106,0.1484 -23.496,50.4295 -43.105,0.1094 -43.105,0.1094 0,0 -19.551,-50.34374 -43.067,0.0938 -23.496,50.4413 -42.988,-0.3125 -42.988,-0.3125 0,0 -19.5233,-50.35161 -43.0468,0.1093 -23.5078,50.4295 -43.0078,0.1446 -43.0078,0.1446"
       style="fill:none;stroke:#ffffff;stroke-width:4.49997;stroke-linecap:round;stroke-linejoin:miter;stroke-miterlimit:1;stroke-dasharray:none;stroke-opacity:1"
       transform="matrix(0.13333333,0,0,-0.13333333,0,21.906667)"
       clip-path="url(#clipPath30)" />
    <path
       id="path31"
       d="m 25.8164,52.9961 c 0,0 19.5703,-50.31251 43.0938,0.1484 23.5078,50.4295 43.1168,0.1094 43.1168,0.1094 0,0 19.551,-50.34374 43.047,0.0938 23.516,50.4413 43.008,-0.3125 43.008,-0.3125 0,0 19.512,-50.35161 43.047,0.1093 23.496,50.4295 43.008,0.1446 43.008,0.1446"
       style="fill:none;stroke:#ffffff;stroke-width:8.99994;stroke-linecap:round;stroke-linejoin:miter;stroke-miterlimit:1;stroke-dasharray:none;stroke-opacity:1"
       transform="matrix(0.13333333,0,0,-0.13333333,0,21.906667)"
       clip-path="url(#clipPath32)" />
  </g>
</svg>
