<?xml version="1.0" encoding="UTF-8" standalone="no"?>
<!-- Created with Inkscape (http://www.inkscape.org/) -->

<svg
   version="1.1"
   id="svg1"
   width="41.799999"
   height="52.813332"
   viewBox="0 0 41.799999 52.813332"
   sodipodi:docname="atm tag switch router.eps"
   xmlns:inkscape="http://www.inkscape.org/namespaces/inkscape"
   xmlns:sodipodi="http://sodipodi.sourceforge.net/DTD/sodipodi-0.dtd"
   xmlns="http://www.w3.org/2000/svg"
   xmlns:svg="http://www.w3.org/2000/svg">
  <defs
     id="defs1">
    <clipPath
       clipPathUnits="userSpaceOnUse"
       id="clipPath2">
      <path
         d="M 0,396 H 310 V 0 H 0 Z"
         id="path2" />
    </clipPath>
    <clipPath
       clipPathUnits="userSpaceOnUse"
       id="clipPath4">
      <path
         d="M 0,396 H 310 V 0 H 0 Z"
         id="path4" />
    </clipPath>
    <clipPath
       clipPathUnits="userSpaceOnUse"
       id="clipPath6">
      <path
         d="M 0,396 H 310 V 0 H 0 Z"
         id="path6" />
    </clipPath>
    <clipPath
       clipPathUnits="userSpaceOnUse"
       id="clipPath8">
      <path
         d="M 0,396 H 310 V 0 H 0 Z"
         id="path8" />
    </clipPath>
    <clipPath
       clipPathUnits="userSpaceOnUse"
       id="clipPath10">
      <path
         d="M 0,396 H 310 V 0 H 0 Z"
         id="path10" />
    </clipPath>
    <clipPath
       clipPathUnits="userSpaceOnUse"
       id="clipPath12">
      <path
         d="M 0,396 H 310 V 0 H 0 Z"
         id="path12" />
    </clipPath>
    <clipPath
       clipPathUnits="userSpaceOnUse"
       id="clipPath14">
      <path
         d="M 0,396 H 310 V 0 H 0 Z"
         id="path14" />
    </clipPath>
    <clipPath
       clipPathUnits="userSpaceOnUse"
       id="clipPath16">
      <path
         d="M 0,396 H 310 V 0 H 0 Z"
         id="path16" />
    </clipPath>
    <clipPath
       clipPathUnits="userSpaceOnUse"
       id="clipPath18">
      <path
         d="M 0,396 H 310 V 0 H 0 Z"
         id="path18" />
    </clipPath>
    <clipPath
       clipPathUnits="userSpaceOnUse"
       id="clipPath20">
      <path
         d="M 0,396 H 310 V 0 H 0 Z"
         id="path20" />
    </clipPath>
    <clipPath
       clipPathUnits="userSpaceOnUse"
       id="clipPath22">
      <path
         d="M 0,396 H 310 V 0 H 0 Z"
         id="path22" />
    </clipPath>
    <clipPath
       clipPathUnits="userSpaceOnUse"
       id="clipPath24">
      <path
         d="M 0,396 H 310 V 0 H 0 Z"
         id="path24" />
    </clipPath>
    <clipPath
       clipPathUnits="userSpaceOnUse"
       id="clipPath26">
      <path
         d="M 0,396 H 310 V 0 H 0 Z"
         id="path26" />
    </clipPath>
    <clipPath
       clipPathUnits="userSpaceOnUse"
       id="clipPath28">
      <path
         d="M 0,396 H 310 V 0 H 0 Z"
         id="path28" />
    </clipPath>
    <clipPath
       clipPathUnits="userSpaceOnUse"
       id="clipPath30">
      <path
         d="M 0,396 H 310 V 0 H 0 Z"
         id="path30" />
    </clipPath>
    <clipPath
       clipPathUnits="userSpaceOnUse"
       id="clipPath32">
      <path
         d="M 0,396 H 310 V 0 H 0 Z"
         id="path32" />
    </clipPath>
    <clipPath
       clipPathUnits="userSpaceOnUse"
       id="clipPath34">
      <path
         d="M 0,396 H 310 V 0 H 0 Z"
         id="path34" />
    </clipPath>
    <clipPath
       clipPathUnits="userSpaceOnUse"
       id="clipPath36">
      <path
         d="M 0,396 H 310 V 0 H 0 Z"
         id="path36" />
    </clipPath>
    <clipPath
       clipPathUnits="userSpaceOnUse"
       id="clipPath38">
      <path
         d="M 0,396 H 310 V 0 H 0 Z"
         id="path38" />
    </clipPath>
    <clipPath
       clipPathUnits="userSpaceOnUse"
       id="clipPath40">
      <path
         d="M 0,396 H 310 V 0 H 0 Z"
         id="path40" />
    </clipPath>
    <clipPath
       clipPathUnits="userSpaceOnUse"
       id="clipPath42">
      <path
         d="M 0,396 H 310 V 0 H 0 Z"
         id="path42" />
    </clipPath>
    <clipPath
       clipPathUnits="userSpaceOnUse"
       id="clipPath44">
      <path
         d="M 0,396 H 310 V 0 H 0 Z"
         id="path44" />
    </clipPath>
    <clipPath
       clipPathUnits="userSpaceOnUse"
       id="clipPath46">
      <path
         d="M 0,396 H 310 V 0 H 0 Z"
         id="path46" />
    </clipPath>
    <clipPath
       clipPathUnits="userSpaceOnUse"
       id="clipPath48">
      <path
         d="M 0,396 H 310 V 0 H 0 Z"
         id="path48" />
    </clipPath>
    <clipPath
       clipPathUnits="userSpaceOnUse"
       id="clipPath50">
      <path
         d="M 0,396 H 310 V 0 H 0 Z"
         id="path50" />
    </clipPath>
    <clipPath
       clipPathUnits="userSpaceOnUse"
       id="clipPath52">
      <path
         d="M 0,396 H 310 V 0 H 0 Z"
         id="path52" />
    </clipPath>
    <clipPath
       clipPathUnits="userSpaceOnUse"
       id="clipPath54">
      <path
         d="M 0,396 H 310 V 0 H 0 Z"
         id="path54" />
    </clipPath>
    <clipPath
       clipPathUnits="userSpaceOnUse"
       id="clipPath56">
      <path
         d="M 0,396 H 310 V 0 H 0 Z"
         id="path56" />
    </clipPath>
    <clipPath
       clipPathUnits="userSpaceOnUse"
       id="clipPath58">
      <path
         d="M 0,396 H 310 V 0 H 0 Z"
         id="path58" />
    </clipPath>
    <clipPath
       clipPathUnits="userSpaceOnUse"
       id="clipPath60">
      <path
         d="M 0,396 H 310 V 0 H 0 Z"
         id="path60" />
    </clipPath>
    <clipPath
       clipPathUnits="userSpaceOnUse"
       id="clipPath62">
      <path
         d="M 0,396 H 310 V 0 H 0 Z"
         id="path62" />
    </clipPath>
    <clipPath
       clipPathUnits="userSpaceOnUse"
       id="clipPath64">
      <path
         d="M 0,396 H 310 V 0 H 0 Z"
         id="path64" />
    </clipPath>
    <clipPath
       clipPathUnits="userSpaceOnUse"
       id="clipPath66">
      <path
         d="M 0,396 H 310 V 0 H 0 Z"
         id="path66" />
    </clipPath>
    <clipPath
       clipPathUnits="userSpaceOnUse"
       id="clipPath68">
      <path
         d="M 0,396 H 310 V 0 H 0 Z"
         id="path68" />
    </clipPath>
    <clipPath
       clipPathUnits="userSpaceOnUse"
       id="clipPath70">
      <path
         d="M 0,396 H 310 V 0 H 0 Z"
         id="path70" />
    </clipPath>
    <clipPath
       clipPathUnits="userSpaceOnUse"
       id="clipPath72">
      <path
         d="M 0,396 H 310 V 0 H 0 Z"
         id="path72" />
    </clipPath>
    <clipPath
       clipPathUnits="userSpaceOnUse"
       id="clipPath74">
      <path
         d="M 0,396 H 310 V 0 H 0 Z"
         id="path74" />
    </clipPath>
    <clipPath
       clipPathUnits="userSpaceOnUse"
       id="clipPath76">
      <path
         d="M 0,396 H 310 V 0 H 0 Z"
         id="path76" />
    </clipPath>
    <clipPath
       clipPathUnits="userSpaceOnUse"
       id="clipPath78">
      <path
         d="M 0,396 H 310 V 0 H 0 Z"
         id="path78" />
    </clipPath>
    <clipPath
       clipPathUnits="userSpaceOnUse"
       id="clipPath80">
      <path
         d="M 0,396 H 310 V 0 H 0 Z"
         id="path80" />
    </clipPath>
  </defs>
  <sodipodi:namedview
     id="namedview1"
     pagecolor="#505050"
     bordercolor="#eeeeee"
     borderopacity="1"
     inkscape:showpageshadow="0"
     inkscape:pageopacity="0"
     inkscape:pagecheckerboard="0"
     inkscape:deskcolor="#d1d1d1">
    <inkscape:page
       x="0"
       y="0"
       inkscape:label="1"
       id="page1"
       width="41.799999"
       height="52.813332"
       margin="0"
       bleed="0" />
  </sodipodi:namedview>
  <g
     id="g1"
     inkscape:groupmode="layer"
     inkscape:label="1">
    <path
       id="path1"
       d="m 6.46484,4.79688 h 268.262 v 244.266 H 6.46484 Z"
       style="fill:#087bbb;fill-opacity:1;fill-rule:nonzero;stroke:none"
       transform="matrix(0.13333333,0,0,-0.13333333,0,52.813333)"
       clip-path="url(#clipPath2)" />
    <path
       id="path3"
       d="M 6.46484,4.79688 V 249.063 H 274.727 V 4.79688 Z"
       style="fill:none;stroke:#ffffff;stroke-width:3.99994;stroke-linecap:butt;stroke-linejoin:miter;stroke-miterlimit:4;stroke-dasharray:none;stroke-opacity:1"
       transform="matrix(0.13333333,0,0,-0.13333333,0,52.813333)"
       clip-path="url(#clipPath4)" />
    <path
       id="path5"
       d="M 308.613,38.3398 V 282.617 L 274.727,249.063 V 4.79688 l 33.886,33.54292"
       style="fill:#087bbb;fill-opacity:1;fill-rule:nonzero;stroke:none"
       transform="matrix(0.13333333,0,0,-0.13333333,0,52.813333)"
       clip-path="url(#clipPath6)" />
    <path
       id="path7"
       d="M 308.613,38.3398 V 282.617 L 274.727,249.063 V 4.79688 Z"
       style="fill:none;stroke:#ffffff;stroke-width:3.99994;stroke-linecap:butt;stroke-linejoin:miter;stroke-miterlimit:4;stroke-dasharray:none;stroke-opacity:1"
       transform="matrix(0.13333333,0,0,-0.13333333,0,52.813333)"
       clip-path="url(#clipPath8)" />
    <path
       id="path9"
       d="M 55.5078,391.262 6.46484,357.715 H 274.727 l 33.886,33.547 H 55.5078"
       style="fill:#087bbb;fill-opacity:1;fill-rule:nonzero;stroke:none"
       transform="matrix(0.13333333,0,0,-0.13333333,0,52.813333)"
       clip-path="url(#clipPath10)" />
    <path
       id="path11"
       d="M 55.5078,391.262 6.46484,357.715 H 274.727 l 33.886,33.547 z"
       style="fill:none;stroke:#ffffff;stroke-width:3.99994;stroke-linecap:butt;stroke-linejoin:miter;stroke-miterlimit:4;stroke-dasharray:none;stroke-opacity:1"
       transform="matrix(0.13333333,0,0,-0.13333333,0,52.813333)"
       clip-path="url(#clipPath12)" />
    <path
       id="path13"
       d="m 6.46484,249.063 h 268.262 V 357.715 H 6.46484 Z"
       style="fill:#087bbb;fill-opacity:1;fill-rule:nonzero;stroke:none"
       transform="matrix(0.13333333,0,0,-0.13333333,0,52.813333)"
       clip-path="url(#clipPath14)" />
    <path
       id="path15"
       d="M 6.46484,249.063 V 357.715 H 274.727 V 249.063 Z"
       style="fill:none;stroke:#ffffff;stroke-width:3.99994;stroke-linecap:butt;stroke-linejoin:miter;stroke-miterlimit:4;stroke-dasharray:none;stroke-opacity:1"
       transform="matrix(0.13333333,0,0,-0.13333333,0,52.813333)"
       clip-path="url(#clipPath16)" />
    <path
       id="path17"
       d="M 308.613,282.617 V 391.262 L 274.727,357.715 V 249.063 l 33.886,33.554"
       style="fill:#087bbb;fill-opacity:1;fill-rule:nonzero;stroke:none"
       transform="matrix(0.13333333,0,0,-0.13333333,0,52.813333)"
       clip-path="url(#clipPath18)" />
    <path
       id="path19"
       d="M 308.613,282.617 V 391.262 L 274.727,357.715 V 249.063 Z"
       style="fill:none;stroke:#ffffff;stroke-width:3.99994;stroke-linecap:butt;stroke-linejoin:miter;stroke-miterlimit:4;stroke-dasharray:none;stroke-opacity:1"
       transform="matrix(0.13333333,0,0,-0.13333333,0,52.813333)"
       clip-path="url(#clipPath20)" />
    <path
       id="path21"
       d="M 274.727,249.063 H 6.46484"
       style="fill:#231f20;fill-opacity:1;fill-rule:nonzero;stroke:#ffffff;stroke-width:3.99994;stroke-linecap:butt;stroke-linejoin:miter;stroke-miterlimit:4;stroke-dasharray:none;stroke-opacity:1"
       transform="matrix(0.13333333,0,0,-0.13333333,0,52.813333)"
       clip-path="url(#clipPath22)" />
    <path
       id="path23"
       d="m 274.727,249.063 33.886,33.554"
       style="fill:#231f20;fill-opacity:1;fill-rule:nonzero;stroke:#ffffff;stroke-width:3.99994;stroke-linecap:butt;stroke-linejoin:miter;stroke-miterlimit:4;stroke-dasharray:none;stroke-opacity:1"
       transform="matrix(0.13333333,0,0,-0.13333333,0,52.813333)"
       clip-path="url(#clipPath24)" />
    <path
       id="path25"
       d="m 56.0352,326.398 h 43.2617 v 22.5078 H 56.0352 Z"
       style="fill:#231f20;fill-opacity:1;fill-rule:nonzero;stroke:none"
       transform="matrix(0.13333333,0,0,-0.13333333,0,52.813333)"
       clip-path="url(#clipPath26)" />
    <path
       id="path27"
       d="m 198.184,326.398 h 43.2813 v 22.5078 H 198.184 Z"
       style="fill:#231f20;fill-opacity:1;fill-rule:nonzero;stroke:none"
       transform="matrix(0.13333333,0,0,-0.13333333,0,52.813333)"
       clip-path="url(#clipPath28)" />
    <path
       id="path29"
       d="m 56.0352,270.098 h 43.2617 v 22.5195 H 56.0352 Z"
       style="fill:#231f20;fill-opacity:1;fill-rule:nonzero;stroke:none"
       transform="matrix(0.13333333,0,0,-0.13333333,0,52.813333)"
       clip-path="url(#clipPath30)" />
    <path
       id="path31"
       d="m 198.184,270.098 h 43.2813 v 22.5195 H 198.184 Z"
       style="fill:#231f20;fill-opacity:1;fill-rule:nonzero;stroke:none"
       transform="matrix(0.13333333,0,0,-0.13333333,0,52.813333)"
       clip-path="url(#clipPath32)" />
    <path
       id="path33"
       d="M 85.3906,335.48 H 218.281"
       style="fill:none;stroke:#231f20;stroke-width:3.99994;stroke-linecap:butt;stroke-linejoin:miter;stroke-miterlimit:4;stroke-dasharray:none;stroke-opacity:1"
       transform="matrix(0.13333333,0,0,-0.13333333,0,52.813333)"
       clip-path="url(#clipPath34)" />
    <path
       id="path35"
       d="M 85.3906,279.18 H 218.281"
       style="fill:none;stroke:#231f20;stroke-width:3.99994;stroke-linecap:butt;stroke-linejoin:miter;stroke-miterlimit:4;stroke-dasharray:none;stroke-opacity:1"
       transform="matrix(0.13333333,0,0,-0.13333333,0,52.813333)"
       clip-path="url(#clipPath36)" />
    <path
       id="path37"
       d="m 77.6758,279.18 140.6052,56.3"
       style="fill:none;stroke:#231f20;stroke-width:3.99994;stroke-linecap:butt;stroke-linejoin:miter;stroke-miterlimit:4;stroke-dasharray:none;stroke-opacity:1"
       transform="matrix(0.13333333,0,0,-0.13333333,0,52.813333)"
       clip-path="url(#clipPath38)" />
    <path
       id="path39"
       d="M 77.6758,335.48 218.281,279.18"
       style="fill:none;stroke:#231f20;stroke-width:3.99994;stroke-linecap:butt;stroke-linejoin:miter;stroke-miterlimit:4;stroke-dasharray:none;stroke-opacity:1"
       transform="matrix(0.13333333,0,0,-0.13333333,0,52.813333)"
       clip-path="url(#clipPath40)" />
    <path
       id="path41"
       d="m 50.2344,320.598 h 43.2617 v 22.5195 H 50.2344 Z"
       style="fill:#ffffff;fill-opacity:1;fill-rule:nonzero;stroke:none"
       transform="matrix(0.13333333,0,0,-0.13333333,0,52.813333)"
       clip-path="url(#clipPath42)" />
    <path
       id="path43"
       d="m 192.402,320.598 h 43.2617 v 22.5195 H 192.402 Z"
       style="fill:#ffffff;fill-opacity:1;fill-rule:nonzero;stroke:none"
       transform="matrix(0.13333333,0,0,-0.13333333,0,52.813333)"
       clip-path="url(#clipPath44)" />
    <path
       id="path45"
       d="m 50.2344,264.297 h 43.2617 v 22.5195 H 50.2344 Z"
       style="fill:#ffffff;fill-opacity:1;fill-rule:nonzero;stroke:none"
       transform="matrix(0.13333333,0,0,-0.13333333,0,52.813333)"
       clip-path="url(#clipPath46)" />
    <path
       id="path47"
       d="m 192.402,264.297 h 43.2617 v 22.5195 H 192.402 Z"
       style="fill:#ffffff;fill-opacity:1;fill-rule:nonzero;stroke:none"
       transform="matrix(0.13333333,0,0,-0.13333333,0,52.813333)"
       clip-path="url(#clipPath48)" />
    <path
       id="path49"
       d="M 79.5898,331.855 H 212.48"
       style="fill:none;stroke:#ffffff;stroke-width:3.99994;stroke-linecap:butt;stroke-linejoin:miter;stroke-miterlimit:4;stroke-dasharray:none;stroke-opacity:1"
       transform="matrix(0.13333333,0,0,-0.13333333,0,52.813333)"
       clip-path="url(#clipPath50)" />
    <path
       id="path51"
       d="M 79.5898,275.559 H 212.48"
       style="fill:none;stroke:#ffffff;stroke-width:3.99994;stroke-linecap:butt;stroke-linejoin:miter;stroke-miterlimit:4;stroke-dasharray:none;stroke-opacity:1"
       transform="matrix(0.13333333,0,0,-0.13333333,0,52.813333)"
       clip-path="url(#clipPath52)" />
    <path
       id="path53"
       d="M 71.875,275.559 212.48,331.855"
       style="fill:none;stroke:#ffffff;stroke-width:3.99994;stroke-linecap:butt;stroke-linejoin:miter;stroke-miterlimit:4;stroke-dasharray:none;stroke-opacity:1"
       transform="matrix(0.13333333,0,0,-0.13333333,0,52.813333)"
       clip-path="url(#clipPath54)" />
    <path
       id="path55"
       d="M 71.875,331.855 212.48,275.559"
       style="fill:none;stroke:#ffffff;stroke-width:3.99994;stroke-linecap:butt;stroke-linejoin:miter;stroke-miterlimit:4;stroke-dasharray:none;stroke-opacity:1"
       transform="matrix(0.13333333,0,0,-0.13333333,0,52.813333)"
       clip-path="url(#clipPath56)" />
    <path
       id="path57"
       d="m 69.5508,65.5586 h 47.9102 l 66.094,135.1564 h 45.683"
       style="fill:none;stroke:#231f20;stroke-width:14.25;stroke-linecap:butt;stroke-linejoin:miter;stroke-miterlimit:4;stroke-dasharray:none;stroke-opacity:1"
       transform="matrix(0.13333333,0,0,-0.13333333,0,52.813333)"
       clip-path="url(#clipPath58)" />
    <path
       id="path59"
       d="m 215.84,224.934 v -47.95 l 28.887,23.036 -28.887,24.914"
       style="fill:#231f20;fill-opacity:1;fill-rule:nonzero;stroke:none"
       transform="matrix(0.13333333,0,0,-0.13333333,0,52.813333)"
       clip-path="url(#clipPath60)" />
    <path
       id="path61"
       d="M 77.832,40.8789 V 88.8281 L 48.9258,65.7891 77.832,40.8789"
       style="fill:#231f20;fill-opacity:1;fill-rule:nonzero;stroke:none"
       transform="matrix(0.13333333,0,0,-0.13333333,0,52.813333)"
       clip-path="url(#clipPath62)" />
    <path
       id="path63"
       d="M 71.2305,36.3477 V 84.2969 L 42.3438,61.2617 71.2305,36.3477"
       style="fill:#ffffff;fill-opacity:1;fill-rule:nonzero;stroke:none"
       transform="matrix(0.13333333,0,0,-0.13333333,0,52.813333)"
       clip-path="url(#clipPath64)" />
    <path
       id="path65"
       d="m 210.488,221.027 v -47.953 l 28.907,23.039 -28.907,24.914"
       style="fill:#ffffff;fill-opacity:1;fill-rule:nonzero;stroke:none"
       transform="matrix(0.13333333,0,0,-0.13333333,0,52.813333)"
       clip-path="url(#clipPath66)" />
    <path
       id="path67"
       d="m 77.832,175.879 v 47.949 L 48.9258,200.789 77.832,175.879"
       style="fill:#231f20;fill-opacity:1;fill-rule:nonzero;stroke:none"
       transform="matrix(0.13333333,0,0,-0.13333333,0,52.813333)"
       clip-path="url(#clipPath68)" />
    <path
       id="path69"
       d="m 71.2305,171.348 v 47.949 L 42.3438,196.262 71.2305,171.348"
       style="fill:#ffffff;fill-opacity:1;fill-rule:nonzero;stroke:none"
       transform="matrix(0.13333333,0,0,-0.13333333,0,52.813333)"
       clip-path="url(#clipPath70)" />
    <path
       id="path71"
       d="m 230.195,65.0586 h -47.09 L 115.762,200.859 H 75.6641"
       style="fill:none;stroke:#231f20;stroke-width:14.25;stroke-linecap:butt;stroke-linejoin:miter;stroke-miterlimit:4;stroke-dasharray:none;stroke-opacity:1"
       transform="matrix(0.13333333,0,0,-0.13333333,0,52.813333)"
       clip-path="url(#clipPath72)" />
    <path
       id="path73"
       d="m 229.043,60.8203 h -49.59 L 112.129,196.633 H 60.7813"
       style="fill:none;stroke:#ffffff;stroke-width:14.25;stroke-linecap:butt;stroke-linejoin:miter;stroke-miterlimit:4;stroke-dasharray:none;stroke-opacity:1"
       transform="matrix(0.13333333,0,0,-0.13333333,0,52.813333)"
       clip-path="url(#clipPath74)" />
    <path
       id="path75"
       d="m 61.0938,61.0352 h 47.9102 l 66.699,135.1488 h 51.934"
       style="fill:none;stroke:#ffffff;stroke-width:14.25;stroke-linecap:butt;stroke-linejoin:miter;stroke-miterlimit:4;stroke-dasharray:none;stroke-opacity:1"
       transform="matrix(0.13333333,0,0,-0.13333333,0,52.813333)"
       clip-path="url(#clipPath76)" />
    <path
       id="path77"
       d="M 215.84,89.3086 V 41.3594 l 28.887,23.0351 -28.887,24.9141"
       style="fill:#231f20;fill-opacity:1;fill-rule:nonzero;stroke:none"
       transform="matrix(0.13333333,0,0,-0.13333333,0,52.813333)"
       clip-path="url(#clipPath78)" />
    <path
       id="path79"
       d="M 210.488,85.4023 V 37.4492 l 28.907,23.0391 -28.907,24.914"
       style="fill:#ffffff;fill-opacity:1;fill-rule:nonzero;stroke:none"
       transform="matrix(0.13333333,0,0,-0.13333333,0,52.813333)"
       clip-path="url(#clipPath80)" />
  </g>
</svg>
