<?xml version="1.0" encoding="UTF-8" standalone="no"?>
<!-- Created with Inkscape (http://www.inkscape.org/) -->

<svg
   version="1.1"
   id="svg1"
   width="41.426666"
   height="40.919998"
   viewBox="0 0 41.426666 40.919998"
   sodipodi:docname="atm fast gigabit etherswitch.eps"
   xmlns:inkscape="http://www.inkscape.org/namespaces/inkscape"
   xmlns:sodipodi="http://sodipodi.sourceforge.net/DTD/sodipodi-0.dtd"
   xmlns="http://www.w3.org/2000/svg"
   xmlns:svg="http://www.w3.org/2000/svg">
  <defs
     id="defs1">
    <clipPath
       clipPathUnits="userSpaceOnUse"
       id="clipPath2">
      <path
         d="M 0,307 H 310 V 0 H 0 Z"
         id="path2" />
    </clipPath>
    <clipPath
       clipPathUnits="userSpaceOnUse"
       id="clipPath4">
      <path
         d="M 0,307 H 310 V 0 H 0 Z"
         id="path4" />
    </clipPath>
    <clipPath
       clipPathUnits="userSpaceOnUse"
       id="clipPath6">
      <path
         d="M 0,307 H 310 V 0 H 0 Z"
         id="path6" />
    </clipPath>
    <clipPath
       clipPathUnits="userSpaceOnUse"
       id="clipPath8">
      <path
         d="M 0,307 H 310 V 0 H 0 Z"
         id="path8" />
    </clipPath>
    <clipPath
       clipPathUnits="userSpaceOnUse"
       id="clipPath10">
      <path
         d="M 0,307 H 310 V 0 H 0 Z"
         id="path10" />
    </clipPath>
    <clipPath
       clipPathUnits="userSpaceOnUse"
       id="clipPath12">
      <path
         d="M 0,307 H 310 V 0 H 0 Z"
         id="path12" />
    </clipPath>
    <clipPath
       clipPathUnits="userSpaceOnUse"
       id="clipPath14">
      <path
         d="M 0,307 H 310 V 0 H 0 Z"
         id="path14" />
    </clipPath>
    <clipPath
       clipPathUnits="userSpaceOnUse"
       id="clipPath16">
      <path
         d="M 0,307 H 310 V 0 H 0 Z"
         id="path16" />
    </clipPath>
    <clipPath
       clipPathUnits="userSpaceOnUse"
       id="clipPath18">
      <path
         d="M 0,307 H 310 V 0 H 0 Z"
         id="path18" />
    </clipPath>
    <clipPath
       clipPathUnits="userSpaceOnUse"
       id="clipPath20">
      <path
         d="M 0,307 H 310 V 0 H 0 Z"
         id="path20" />
    </clipPath>
    <clipPath
       clipPathUnits="userSpaceOnUse"
       id="clipPath22">
      <path
         d="M 0,307 H 310 V 0 H 0 Z"
         id="path22" />
    </clipPath>
    <clipPath
       clipPathUnits="userSpaceOnUse"
       id="clipPath24">
      <path
         d="M 0,307 H 310 V 0 H 0 Z"
         id="path24" />
    </clipPath>
    <clipPath
       clipPathUnits="userSpaceOnUse"
       id="clipPath26">
      <path
         d="M 0,307 H 310 V 0 H 0 Z"
         id="path26" />
    </clipPath>
    <clipPath
       clipPathUnits="userSpaceOnUse"
       id="clipPath28">
      <path
         d="M 0,307 H 310 V 0 H 0 Z"
         id="path28" />
    </clipPath>
    <clipPath
       clipPathUnits="userSpaceOnUse"
       id="clipPath30">
      <path
         d="M 0,307 H 310 V 0 H 0 Z"
         id="path30" />
    </clipPath>
    <clipPath
       clipPathUnits="userSpaceOnUse"
       id="clipPath32">
      <path
         d="M 0,307 H 310 V 0 H 0 Z"
         id="path32" />
    </clipPath>
    <clipPath
       clipPathUnits="userSpaceOnUse"
       id="clipPath34">
      <path
         d="M 0,307 H 310 V 0 H 0 Z"
         id="path34" />
    </clipPath>
    <clipPath
       clipPathUnits="userSpaceOnUse"
       id="clipPath36">
      <path
         d="M 0,307 H 310 V 0 H 0 Z"
         id="path36" />
    </clipPath>
    <clipPath
       clipPathUnits="userSpaceOnUse"
       id="clipPath38">
      <path
         d="M 0,307 H 310 V 0 H 0 Z"
         id="path38" />
    </clipPath>
    <clipPath
       clipPathUnits="userSpaceOnUse"
       id="clipPath40">
      <path
         d="M 0,307 H 310 V 0 H 0 Z"
         id="path40" />
    </clipPath>
    <clipPath
       clipPathUnits="userSpaceOnUse"
       id="clipPath42">
      <path
         d="M 0,307 H 310 V 0 H 0 Z"
         id="path42" />
    </clipPath>
    <clipPath
       clipPathUnits="userSpaceOnUse"
       id="clipPath44">
      <path
         d="M 0,307 H 310 V 0 H 0 Z"
         id="path44" />
    </clipPath>
    <clipPath
       clipPathUnits="userSpaceOnUse"
       id="clipPath46">
      <path
         d="M 0,307 H 310 V 0 H 0 Z"
         id="path46" />
    </clipPath>
  </defs>
  <sodipodi:namedview
     id="namedview1"
     pagecolor="#505050"
     bordercolor="#eeeeee"
     borderopacity="1"
     inkscape:showpageshadow="0"
     inkscape:pageopacity="0"
     inkscape:pagecheckerboard="0"
     inkscape:deskcolor="#d1d1d1">
    <inkscape:page
       x="0"
       y="0"
       inkscape:label="1"
       id="page1"
       width="41.426666"
       height="40.919998"
       margin="0"
       bleed="0" />
  </sodipodi:namedview>
  <g
     id="g1"
     inkscape:groupmode="layer"
     inkscape:label="1">
    <path
       id="path1"
       d="m 5.81641,4.60938 h 226.746 v 230.734 H 5.81641 Z"
       style="fill:#087bbb;fill-opacity:1;fill-rule:nonzero;stroke:none"
       transform="matrix(0.13333333,0,0,-0.13333333,0,40.92)"
       clip-path="url(#clipPath2)" />
    <path
       id="path3"
       d="M 232.563,4.60938 V 235.344 H 5.81641 V 4.60938 Z"
       style="fill:none;stroke:#ffffff;stroke-width:3.99994;stroke-linecap:butt;stroke-linejoin:miter;stroke-miterlimit:4;stroke-dasharray:none;stroke-opacity:1"
       transform="matrix(0.13333333,0,0,-0.13333333,0,40.92)"
       clip-path="url(#clipPath4)" />
    <path
       id="path5"
       d="M 46.5977,55.7617 H 94.5078 L 160.59,190.906 h 45.683"
       style="fill:none;stroke:#231f20;stroke-width:14.25;stroke-linecap:butt;stroke-linejoin:miter;stroke-miterlimit:4;stroke-dasharray:none;stroke-opacity:1"
       transform="matrix(0.13333333,0,0,-0.13333333,0,40.92)"
       clip-path="url(#clipPath6)" />
    <path
       id="path7"
       d="M 192.875,215.129 V 167.18 l 28.887,23.035 -28.887,24.914"
       style="fill:#231f20;fill-opacity:1;fill-rule:nonzero;stroke:none"
       transform="matrix(0.13333333,0,0,-0.13333333,0,40.92)"
       clip-path="url(#clipPath8)" />
    <path
       id="path9"
       d="M 54.8594,31.0742 V 79.0234 L 25.9727,55.9883 54.8594,31.0742"
       style="fill:#231f20;fill-opacity:1;fill-rule:nonzero;stroke:none"
       transform="matrix(0.13333333,0,0,-0.13333333,0,40.92)"
       clip-path="url(#clipPath10)" />
    <path
       id="path11"
       d="M 48.2656,26.543 V 74.4922 L 19.3789,51.4531 48.2656,26.543"
       style="fill:#ffffff;fill-opacity:1;fill-rule:nonzero;stroke:none"
       transform="matrix(0.13333333,0,0,-0.13333333,0,40.92)"
       clip-path="url(#clipPath12)" />
    <path
       id="path13"
       d="m 187.535,211.223 v -47.95 l 28.887,23.036 -28.887,24.914"
       style="fill:#ffffff;fill-opacity:1;fill-rule:nonzero;stroke:none"
       transform="matrix(0.13333333,0,0,-0.13333333,0,40.92)"
       clip-path="url(#clipPath14)" />
    <path
       id="path15"
       d="m 54.8594,166.074 v 47.949 L 25.9727,190.988 54.8594,166.074"
       style="fill:#231f20;fill-opacity:1;fill-rule:nonzero;stroke:none"
       transform="matrix(0.13333333,0,0,-0.13333333,0,40.92)"
       clip-path="url(#clipPath16)" />
    <path
       id="path17"
       d="m 48.2656,161.543 v 47.949 l -28.8867,-23.039 28.8867,-24.91"
       style="fill:#ffffff;fill-opacity:1;fill-rule:nonzero;stroke:none"
       transform="matrix(0.13333333,0,0,-0.13333333,0,40.92)"
       clip-path="url(#clipPath18)" />
    <path
       id="path19"
       d="M 207.23,55.2539 H 160.133 L 92.7969,191.066 H 52.6992"
       style="fill:none;stroke:#231f20;stroke-width:14.25;stroke-linecap:butt;stroke-linejoin:miter;stroke-miterlimit:4;stroke-dasharray:none;stroke-opacity:1"
       transform="matrix(0.13333333,0,0,-0.13333333,0,40.92)"
       clip-path="url(#clipPath20)" />
    <path
       id="path21"
       d="M 206.09,51.0156 H 156.488 L 89.1641,186.836 H 37.8086"
       style="fill:none;stroke:#ffffff;stroke-width:14.25;stroke-linecap:butt;stroke-linejoin:miter;stroke-miterlimit:4;stroke-dasharray:none;stroke-opacity:1"
       transform="matrix(0.13333333,0,0,-0.13333333,0,40.92)"
       clip-path="url(#clipPath22)" />
    <path
       id="path23"
       d="M 305.57,302.539 232.563,235.422 H 5.55078 L 86.6641,302.539 H 305.57"
       style="fill:#087bbb;fill-opacity:1;fill-rule:nonzero;stroke:none"
       transform="matrix(0.13333333,0,0,-0.13333333,0,40.92)"
       clip-path="url(#clipPath24)" />
    <path
       id="path25"
       d="M 305.57,302.539 232.563,235.422 H 5.55078 l 81.11332,67.117 z"
       style="fill:none;stroke:#ffffff;stroke-width:3.99994;stroke-linecap:butt;stroke-linejoin:miter;stroke-miterlimit:4;stroke-dasharray:none;stroke-opacity:1"
       transform="matrix(0.13333333,0,0,-0.13333333,0,40.92)"
       clip-path="url(#clipPath26)" />
    <path
       id="path27"
       d="M 305.844,93.1172 V 302.383 L 232.563,235.195 V 5.50781 l 73.281,87.60939"
       style="fill:#087bbb;fill-opacity:1;fill-rule:nonzero;stroke:none"
       transform="matrix(0.13333333,0,0,-0.13333333,0,40.92)"
       clip-path="url(#clipPath28)" />
    <path
       id="path29"
       d="M 305.844,93.1172 V 302.383 L 232.563,235.195 V 5.50781 Z"
       style="fill:none;stroke:#ffffff;stroke-width:3.99994;stroke-linecap:butt;stroke-linejoin:miter;stroke-miterlimit:4;stroke-dasharray:none;stroke-opacity:1"
       transform="matrix(0.13333333,0,0,-0.13333333,0,40.92)"
       clip-path="url(#clipPath30)" />
    <path
       id="path31"
       d="m 38.1211,51.2305 h 47.918 L 152.75,186.379 h 51.922"
       style="fill:none;stroke:#ffffff;stroke-width:14.25;stroke-linecap:butt;stroke-linejoin:miter;stroke-miterlimit:4;stroke-dasharray:none;stroke-opacity:1"
       transform="matrix(0.13333333,0,0,-0.13333333,0,40.92)"
       clip-path="url(#clipPath32)" />
    <path
       id="path33"
       d="M 192.875,79.5039 V 31.5547 l 28.887,23.0351 -28.887,24.9141"
       style="fill:#231f20;fill-opacity:1;fill-rule:nonzero;stroke:none"
       transform="matrix(0.13333333,0,0,-0.13333333,0,40.92)"
       clip-path="url(#clipPath34)" />
    <path
       id="path35"
       d="M 187.535,75.5977 V 27.6484 l 28.887,23.0352 -28.887,24.9141"
       style="fill:#ffffff;fill-opacity:1;fill-rule:nonzero;stroke:none"
       transform="matrix(0.13333333,0,0,-0.13333333,0,40.92)"
       clip-path="url(#clipPath36)" />
    <path
       id="path37"
       d="m 232.73,290.91 9.571,7.195 29.922,-9.863 -52.453,-11.328 11.418,11.418 h -52.024 l 3.43,2.578 h 50.136"
       style="fill:#231f20;fill-opacity:1;fill-rule:nonzero;stroke:none"
       transform="matrix(0.13333333,0,0,-0.13333333,0,40.92)"
       clip-path="url(#clipPath38)" />
    <path
       id="path39"
       d="m 191.488,261.496 9.582,7.195 26.141,-8.437 -52.449,-11.328 8.808,8.644 h -52.023 l 7.922,3.926 h 52.019"
       style="fill:#ffffff;fill-opacity:1;fill-rule:nonzero;stroke:none"
       transform="matrix(0.13333333,0,0,-0.13333333,0,40.92)"
       clip-path="url(#clipPath40)" />
    <path
       id="path41"
       d="m 165.863,280.957 -4.324,-4.609 h -43.047 l -8.672,-5.157 -26.0466,8.516 52.3556,11.25 -13.313,-10 h 43.047"
       style="fill:#ffffff;fill-opacity:1;fill-rule:nonzero;stroke:none"
       transform="matrix(0.13333333,0,0,-0.13333333,0,40.92)"
       clip-path="url(#clipPath42)" />
    <path
       id="path43"
       d="m 128.688,251.348 -6.114,-4.61 H 79.5273 l -6.8867,-5.164 -26.0351,8.524 52.3554,11.242 -13.3125,-9.992 h 43.0396"
       style="fill:#ffffff;fill-opacity:1;fill-rule:nonzero;stroke:none"
       transform="matrix(0.13333333,0,0,-0.13333333,0,40.92)"
       clip-path="url(#clipPath44)" />
    <path
       id="path45"
       d="m 232.73,288.43 9.571,7.195 26.14,-8.445 -52.449,-11.321 9.715,7.969 h -52.031 l 7.023,4.602 h 52.031"
       style="fill:#ffffff;fill-opacity:1;fill-rule:nonzero;stroke:none"
       transform="matrix(0.13333333,0,0,-0.13333333,0,40.92)"
       clip-path="url(#clipPath46)" />
  </g>
</svg>
