<?xml version="1.0" encoding="UTF-8" standalone="no"?>
<!-- Created with Inkscape (http://www.inkscape.org/) -->

<svg
   version="1.1"
   id="svg1"
   width="49.546665"
   height="49.880001"
   viewBox="0 0 49.546665 49.880001"
   sodipodi:docname="broadband router.eps"
   xmlns:inkscape="http://www.inkscape.org/namespaces/inkscape"
   xmlns:sodipodi="http://sodipodi.sourceforge.net/DTD/sodipodi-0.dtd"
   xmlns="http://www.w3.org/2000/svg"
   xmlns:svg="http://www.w3.org/2000/svg">
  <defs
     id="defs1">
    <clipPath
       clipPathUnits="userSpaceOnUse"
       id="clipPath2">
      <path
         d="M 0,4 V 374 H 370 V 4 Z"
         id="path2" />
    </clipPath>
    <clipPath
       clipPathUnits="userSpaceOnUse"
       id="clipPath4">
      <path
         d="M 0,4 V 374 H 370 V 4 Z"
         id="path4" />
    </clipPath>
    <clipPath
       clipPathUnits="userSpaceOnUse"
       id="clipPath6">
      <path
         d="M 0,4 V 374 H 370 V 4 Z"
         id="path6" />
    </clipPath>
    <clipPath
       clipPathUnits="userSpaceOnUse"
       id="clipPath8">
      <path
         d="M 0,4 V 374 H 370 V 4 Z"
         id="path8" />
    </clipPath>
    <clipPath
       clipPathUnits="userSpaceOnUse"
       id="clipPath10">
      <path
         d="M 0,4 V 374 H 370 V 4 Z"
         id="path10" />
    </clipPath>
    <clipPath
       clipPathUnits="userSpaceOnUse"
       id="clipPath12">
      <path
         d="M 0,4 V 374 H 370 V 4 Z"
         id="path12" />
    </clipPath>
    <clipPath
       clipPathUnits="userSpaceOnUse"
       id="clipPath14">
      <path
         d="M 0,4 V 374 H 370 V 4 Z"
         id="path14" />
    </clipPath>
    <clipPath
       clipPathUnits="userSpaceOnUse"
       id="clipPath16">
      <path
         d="M 0,4 V 374 H 370 V 4 Z"
         id="path16" />
    </clipPath>
    <clipPath
       clipPathUnits="userSpaceOnUse"
       id="clipPath18">
      <path
         d="M 0,4 V 374 H 370 V 4 Z"
         id="path18" />
    </clipPath>
    <clipPath
       clipPathUnits="userSpaceOnUse"
       id="clipPath20">
      <path
         d="M 0,4 V 374 H 370 V 4 Z"
         id="path20" />
    </clipPath>
    <clipPath
       clipPathUnits="userSpaceOnUse"
       id="clipPath22">
      <path
         d="M 0,4 V 374 H 370 V 4 Z"
         id="path22" />
    </clipPath>
    <clipPath
       clipPathUnits="userSpaceOnUse"
       id="clipPath24">
      <path
         d="M 0,4 V 374 H 370 V 4 Z"
         id="path24" />
    </clipPath>
    <clipPath
       clipPathUnits="userSpaceOnUse"
       id="clipPath26">
      <path
         d="M 0,4 V 374 H 370 V 4 Z"
         id="path26" />
    </clipPath>
    <clipPath
       clipPathUnits="userSpaceOnUse"
       id="clipPath28">
      <path
         d="M 0,4 V 374 H 370 V 4 Z"
         id="path28" />
    </clipPath>
    <clipPath
       clipPathUnits="userSpaceOnUse"
       id="clipPath30">
      <path
         d="M 0,4 V 374 H 370 V 4 Z"
         id="path30" />
    </clipPath>
    <clipPath
       clipPathUnits="userSpaceOnUse"
       id="clipPath32">
      <path
         d="M 0,4 V 374 H 370 V 4 Z"
         id="path32" />
    </clipPath>
  </defs>
  <sodipodi:namedview
     id="namedview1"
     pagecolor="#505050"
     bordercolor="#eeeeee"
     borderopacity="1"
     inkscape:showpageshadow="0"
     inkscape:pageopacity="0"
     inkscape:pagecheckerboard="0"
     inkscape:deskcolor="#d1d1d1">
    <inkscape:page
       x="0"
       y="0"
       inkscape:label="1"
       id="page1"
       width="49.546665"
       height="49.880001"
       margin="0"
       bleed="0" />
  </sodipodi:namedview>
  <g
     id="g1"
     inkscape:groupmode="layer"
     inkscape:label="1">
    <path
       id="path1"
       d="m 369.855,300.578 c 0,-39.504 -82.343,-71.523 -183.925,-71.523 C 84.3477,229.055 2,261.074 2,300.578 V 73.5273 C 2,34.0156 84.3477,1.99219 185.93,1.99219 c 101.582,0 183.925,32.02341 183.925,71.53511 V 300.578"
       style="fill:#087bbb;fill-opacity:1;fill-rule:nonzero;stroke:none"
       transform="matrix(0.13333333,0,0,-0.13333333,0,49.88)"
       clip-path="url(#clipPath2)" />
    <path
       id="path3"
       d="m 369.855,300.578 c 0,-39.504 -82.343,-71.523 -183.925,-71.523 C 84.3477,229.055 2,261.074 2,300.578 V 73.5273 C 2,34.0156 84.3477,1.99219 185.93,1.99219 c 101.582,0 183.925,32.02341 183.925,71.53511 z"
       style="fill:none;stroke:#ffffff;stroke-width:3.99994;stroke-linecap:butt;stroke-linejoin:miter;stroke-miterlimit:4;stroke-dasharray:none;stroke-opacity:1"
       transform="matrix(0.13333333,0,0,-0.13333333,0,49.88)"
       clip-path="url(#clipPath4)" />
    <path
       id="path5"
       d="m 185.93,229.055 c 101.582,0 183.925,32.019 183.925,71.523 0,39.512 -82.343,71.531 -183.925,71.531 C 84.3477,372.109 2,340.09 2,300.578 2,261.074 84.3477,229.055 185.93,229.055"
       style="fill:#087bbb;fill-opacity:1;fill-rule:nonzero;stroke:#ffffff;stroke-width:3.99994;stroke-linecap:butt;stroke-linejoin:miter;stroke-miterlimit:4;stroke-dasharray:none;stroke-opacity:1"
       transform="matrix(0.13333333,0,0,-0.13333333,0,49.88)"
       clip-path="url(#clipPath6)" />
    <path
       id="path7"
       d="M 165.945,191.379 V 54.707 l 159.797,66.074 -159.797,70.598"
       style="fill:#ffffff;fill-opacity:1;fill-rule:nonzero;stroke:none"
       transform="matrix(0.13333333,0,0,-0.13333333,0,49.88)"
       clip-path="url(#clipPath8)" />
    <path
       id="path9"
       d="m 148.699,192.656 0.024,-28.562 -51.8363,-0.039 -0.0234,28.543 51.8357,0.058"
       style="fill:#ffffff;fill-opacity:1;fill-rule:nonzero;stroke:none"
       transform="matrix(0.13333333,0,0,-0.13333333,0,49.88)"
       clip-path="url(#clipPath10)" />
    <path
       id="path11"
       d="m 148.699,192.656 0.024,-28.562 -51.8363,-0.039 -0.0234,28.543 z"
       style="fill:none;stroke:#231f20;stroke-width:3.99994;stroke-linecap:butt;stroke-linejoin:miter;stroke-miterlimit:4;stroke-dasharray:none;stroke-opacity:1"
       transform="matrix(0.13333333,0,0,-0.13333333,0,49.88)"
       clip-path="url(#clipPath12)" />
    <path
       id="path13"
       d="m 148.699,155.41 0.024,-28.562 -51.8363,-0.039 -0.0234,28.543 51.8357,0.058"
       style="fill:#ffffff;fill-opacity:1;fill-rule:nonzero;stroke:none"
       transform="matrix(0.13333333,0,0,-0.13333333,0,49.88)"
       clip-path="url(#clipPath14)" />
    <path
       id="path15"
       d="m 148.699,155.41 0.024,-28.562 -51.8363,-0.039 -0.0234,28.543 z"
       style="fill:none;stroke:#231f20;stroke-width:3.99994;stroke-linecap:butt;stroke-linejoin:miter;stroke-miterlimit:4;stroke-dasharray:none;stroke-opacity:1"
       transform="matrix(0.13333333,0,0,-0.13333333,0,49.88)"
       clip-path="url(#clipPath16)" />
    <path
       id="path17"
       d="m 148.699,117.414 0.024,-28.5742 -51.8363,-0.0312 -0.0234,28.5464 51.8357,0.059"
       style="fill:#ffffff;fill-opacity:1;fill-rule:nonzero;stroke:none"
       transform="matrix(0.13333333,0,0,-0.13333333,0,49.88)"
       clip-path="url(#clipPath18)" />
    <path
       id="path19"
       d="M 148.699,117.414 148.723,88.8398 96.8867,88.8086 96.8633,117.355 Z"
       style="fill:none;stroke:#231f20;stroke-width:3.99994;stroke-linecap:butt;stroke-linejoin:miter;stroke-miterlimit:4;stroke-dasharray:none;stroke-opacity:1"
       transform="matrix(0.13333333,0,0,-0.13333333,0,49.88)"
       clip-path="url(#clipPath20)" />
    <path
       id="path21"
       d="m 148.699,79.4141 0.024,-28.5743 -51.8363,-0.0273 -0.0234,28.5352 51.8357,0.0664"
       style="fill:#ffffff;fill-opacity:1;fill-rule:nonzero;stroke:none"
       transform="matrix(0.13333333,0,0,-0.13333333,0,49.88)"
       clip-path="url(#clipPath22)" />
    <path
       id="path23"
       d="M 148.699,79.4141 148.723,50.8398 96.8867,50.8125 96.8633,79.3477 Z"
       style="fill:none;stroke:#231f20;stroke-width:3.99994;stroke-linecap:butt;stroke-linejoin:miter;stroke-miterlimit:4;stroke-dasharray:none;stroke-opacity:1"
       transform="matrix(0.13333333,0,0,-0.13333333,0,49.88)"
       clip-path="url(#clipPath24)" />
    <path
       id="path25"
       d="m 146.531,331.016 15.199,-22.782 -57.421,-13.273 12.539,10.461 -88.7425,15.156 22.2539,16.688 85.6486,-14.5 10.523,8.25"
       style="fill:#ffffff;fill-opacity:1;fill-rule:nonzero;stroke:none"
       transform="matrix(0.13333333,0,0,-0.13333333,0,49.88)"
       clip-path="url(#clipPath26)" />
    <path
       id="path27"
       d="m 227.336,275.773 -10.356,23.477 51.797,10.359 -8.98,-8.054 86.324,-14.739 -20.723,-16.57 -85.796,16.113 -12.266,-10.586"
       style="fill:#ffffff;fill-opacity:1;fill-rule:nonzero;stroke:none"
       transform="matrix(0.13333333,0,0,-0.13333333,0,49.88)"
       clip-path="url(#clipPath28)" />
    <path
       id="path29"
       d="m 199.023,343.449 58.016,15.887 0.688,-24.863 -14.504,2.765 -28.313,-23.476 -27.019,3.926 29.226,22.988 -18.094,2.773"
       style="fill:#ffffff;fill-opacity:1;fill-rule:nonzero;stroke:none"
       transform="matrix(0.13333333,0,0,-0.13333333,0,49.88)"
       clip-path="url(#clipPath30)" />
    <path
       id="path31"
       d="m 174.16,254.367 -55.246,-10.363 -2.066,25.547 15.879,-3.446 30.41,25.965 26.914,-4.558 -32.461,-28.313 16.57,-4.832"
       style="fill:#ffffff;fill-opacity:1;fill-rule:nonzero;stroke:none"
       transform="matrix(0.13333333,0,0,-0.13333333,0,49.88)"
       clip-path="url(#clipPath32)" />
  </g>
</svg>
