<?xml version="1.0" encoding="UTF-8" standalone="no"?>
<!-- Created with Inkscape (http://www.inkscape.org/) -->

<svg
   version="1.1"
   id="svg1"
   width="42.386665"
   height="37.893333"
   viewBox="0 0 42.386665 37.893333"
   sodipodi:docname="cisco hub.eps"
   xmlns:inkscape="http://www.inkscape.org/namespaces/inkscape"
   xmlns:sodipodi="http://sodipodi.sourceforge.net/DTD/sodipodi-0.dtd"
   xmlns="http://www.w3.org/2000/svg"
   xmlns:svg="http://www.w3.org/2000/svg">
  <defs
     id="defs1">
    <clipPath
       clipPathUnits="userSpaceOnUse"
       id="clipPath2">
      <path
         d="M 0,4 V 284 H 318 V 4 Z"
         id="path2" />
    </clipPath>
    <clipPath
       clipPathUnits="userSpaceOnUse"
       id="clipPath4">
      <path
         d="M 0,4 V 284 H 318 V 4 Z"
         id="path4" />
    </clipPath>
    <clipPath
       clipPathUnits="userSpaceOnUse"
       id="clipPath6">
      <path
         d="M 0,4 V 284 H 318 V 4 Z"
         id="path6" />
    </clipPath>
    <clipPath
       clipPathUnits="userSpaceOnUse"
       id="clipPath8">
      <path
         d="M 0,4 V 284 H 318 V 4 Z"
         id="path8" />
    </clipPath>
    <clipPath
       clipPathUnits="userSpaceOnUse"
       id="clipPath10">
      <path
         d="M 0,4 V 284 H 318 V 4 Z"
         id="path10" />
    </clipPath>
    <clipPath
       clipPathUnits="userSpaceOnUse"
       id="clipPath12">
      <path
         d="M 0,4 V 284 H 318 V 4 Z"
         id="path12" />
    </clipPath>
    <clipPath
       clipPathUnits="userSpaceOnUse"
       id="clipPath14">
      <path
         d="M 0,4 V 284 H 318 V 4 Z"
         id="path14" />
    </clipPath>
    <clipPath
       clipPathUnits="userSpaceOnUse"
       id="clipPath16">
      <path
         d="M 0,4 V 284 H 318 V 4 Z"
         id="path16" />
    </clipPath>
    <clipPath
       clipPathUnits="userSpaceOnUse"
       id="clipPath18">
      <path
         d="M 0,4 V 284 H 318 V 4 Z"
         id="path18" />
    </clipPath>
    <clipPath
       clipPathUnits="userSpaceOnUse"
       id="clipPath20">
      <path
         d="M 0,4 V 284 H 318 V 4 Z"
         id="path20" />
    </clipPath>
    <clipPath
       clipPathUnits="userSpaceOnUse"
       id="clipPath22">
      <path
         d="M 0,4 V 284 H 318 V 4 Z"
         id="path22" />
    </clipPath>
    <clipPath
       clipPathUnits="userSpaceOnUse"
       id="clipPath24">
      <path
         d="M 0,4 V 284 H 318 V 4 Z"
         id="path24" />
    </clipPath>
    <clipPath
       clipPathUnits="userSpaceOnUse"
       id="clipPath26">
      <path
         d="M 0,4 V 284 H 318 V 4 Z"
         id="path26" />
    </clipPath>
    <clipPath
       clipPathUnits="userSpaceOnUse"
       id="clipPath28">
      <path
         d="M 0,4 V 284 H 318 V 4 Z"
         id="path28" />
    </clipPath>
    <clipPath
       clipPathUnits="userSpaceOnUse"
       id="clipPath30">
      <path
         d="M 0,4 V 284 H 318 V 4 Z"
         id="path30" />
    </clipPath>
    <clipPath
       clipPathUnits="userSpaceOnUse"
       id="clipPath32">
      <path
         d="M 0,4 V 284 H 318 V 4 Z"
         id="path32" />
    </clipPath>
  </defs>
  <sodipodi:namedview
     id="namedview1"
     pagecolor="#505050"
     bordercolor="#eeeeee"
     borderopacity="1"
     inkscape:showpageshadow="0"
     inkscape:pageopacity="0"
     inkscape:pagecheckerboard="0"
     inkscape:deskcolor="#d1d1d1">
    <inkscape:page
       x="0"
       y="0"
       inkscape:label="1"
       id="page1"
       width="42.386665"
       height="37.893333"
       margin="0"
       bleed="0" />
  </sodipodi:namedview>
  <g
     id="g1"
     inkscape:groupmode="layer"
     inkscape:label="1">
    <path
       id="path1"
       d="m 4.74609,4.91016 h 276.555 v 241.738 H 4.74609 Z"
       style="fill:#087bbb;fill-opacity:1;fill-rule:nonzero;stroke:none"
       transform="matrix(0.13333333,0,0,-0.13333333,0,37.893333)"
       clip-path="url(#clipPath2)" />
    <path
       id="path3"
       d="M 4.74609,4.91016 V 246.648 H 281.301 V 4.91016 Z"
       style="fill:none;stroke:#ffffff;stroke-width:3.99994;stroke-linecap:butt;stroke-linejoin:miter;stroke-miterlimit:4;stroke-dasharray:none;stroke-opacity:1"
       transform="matrix(0.13333333,0,0,-0.13333333,0,37.893333)"
       clip-path="url(#clipPath4)" />
    <path
       id="path5"
       d="M 36.6094,279.324 4.74609,246.648 H 281.301 l 31.863,32.676 H 36.6094"
       style="fill:#087bbb;fill-opacity:1;fill-rule:nonzero;stroke:none"
       transform="matrix(0.13333333,0,0,-0.13333333,0,37.893333)"
       clip-path="url(#clipPath6)" />
    <path
       id="path7"
       d="M 36.6094,279.324 4.74609,246.648 H 281.301 l 31.863,32.676 z"
       style="fill:none;stroke:#ffffff;stroke-width:3.99994;stroke-linecap:butt;stroke-linejoin:miter;stroke-miterlimit:4;stroke-dasharray:none;stroke-opacity:1"
       transform="matrix(0.13333333,0,0,-0.13333333,0,37.893333)"
       clip-path="url(#clipPath8)" />
    <path
       id="path9"
       d="M 313.164,37.5898 V 279.324 L 281.301,246.648 V 4.91016 l 31.863,32.67964"
       style="fill:#087bbb;fill-opacity:1;fill-rule:nonzero;stroke:none"
       transform="matrix(0.13333333,0,0,-0.13333333,0,37.893333)"
       clip-path="url(#clipPath10)" />
    <path
       id="path11"
       d="M 313.164,37.5898 V 279.324 L 281.301,246.648 V 4.91016 Z"
       style="fill:none;stroke:#ffffff;stroke-width:3.99994;stroke-linecap:butt;stroke-linejoin:miter;stroke-miterlimit:4;stroke-dasharray:none;stroke-opacity:1"
       transform="matrix(0.13333333,0,0,-0.13333333,0,37.893333)"
       clip-path="url(#clipPath12)" />
    <path
       id="path13"
       d="m 30.6563,24.1328 h 228.289 v 200.27 H 30.6563 Z"
       style="fill:#087bbb;fill-opacity:1;fill-rule:nonzero;stroke:none"
       transform="matrix(0.13333333,0,0,-0.13333333,0,37.893333)"
       clip-path="url(#clipPath14)" />
    <path
       id="path15"
       d="M 258.945,224.402 H 30.6563 V 24.1328 H 258.945 Z"
       style="fill:none;stroke:#ffffff;stroke-width:3.99994;stroke-linecap:butt;stroke-linejoin:miter;stroke-miterlimit:4;stroke-dasharray:none;stroke-opacity:1"
       transform="matrix(0.13333333,0,0,-0.13333333,0,37.893333)"
       clip-path="url(#clipPath16)" />
    <path
       id="path17"
       d="m 245.754,151.141 c 0,-21.524 -44.863,-38.961 -100.195,-38.961 -55.3363,0 -100.1996,17.437 -100.1996,38.961 V 94.0703 c 0,-21.5195 44.8633,-38.9648 100.1996,-38.9648 55.332,0 100.195,17.4453 100.195,38.9648 v 57.0707"
       style="fill:#087bbb;fill-opacity:1;fill-rule:nonzero;stroke:none"
       transform="matrix(0.13333333,0,0,-0.13333333,0,37.893333)"
       clip-path="url(#clipPath18)" />
    <path
       id="path19"
       d="m 245.754,151.141 c 0,-21.524 -44.863,-38.961 -100.195,-38.961 -55.3363,0 -100.1996,17.437 -100.1996,38.961 V 94.0703 c 0,-21.5195 44.8633,-38.9648 100.1996,-38.9648 55.332,0 100.195,17.4453 100.195,38.9648 z"
       style="fill:none;stroke:#ffffff;stroke-width:3.99994;stroke-linecap:butt;stroke-linejoin:miter;stroke-miterlimit:4;stroke-dasharray:none;stroke-opacity:1"
       transform="matrix(0.13333333,0,0,-0.13333333,0,37.893333)"
       clip-path="url(#clipPath20)" />
    <path
       id="path21"
       d="m 145.559,112.18 c 55.332,0 100.195,17.437 100.195,38.961 0,21.523 -44.863,38.964 -100.195,38.964 -55.3363,0 -100.1996,-17.441 -100.1996,-38.964 0,-21.524 44.8633,-38.961 100.1996,-38.961"
       style="fill:#087bbb;fill-opacity:1;fill-rule:nonzero;stroke:none"
       transform="matrix(0.13333333,0,0,-0.13333333,0,37.893333)"
       clip-path="url(#clipPath22)" />
    <path
       id="path23"
       d="m 145.559,112.18 c 55.332,0 100.195,17.437 100.195,38.961 0,21.523 -44.863,38.964 -100.195,38.964 -55.3363,0 -100.1996,-17.441 -100.1996,-38.964 0,-21.524 44.8633,-38.961 100.1996,-38.961 z"
       style="fill:none;stroke:#ffffff;stroke-width:3.99994;stroke-linecap:butt;stroke-linejoin:miter;stroke-miterlimit:4;stroke-dasharray:none;stroke-opacity:1"
       transform="matrix(0.13333333,0,0,-0.13333333,0,37.893333)"
       clip-path="url(#clipPath24)" />
    <path
       id="path25"
       d="m 122.664,166.379 8.281,-12.414 -31.2848,-7.227 6.8318,5.692 -48.3357,8.261 12.125,9.094 46.6527,-7.898 5.73,4.492"
       style="fill:#ffffff;fill-opacity:1;fill-rule:nonzero;stroke:none"
       transform="matrix(0.13333333,0,0,-0.13333333,0,37.893333)"
       clip-path="url(#clipPath26)" />
    <path
       id="path27"
       d="m 166.688,136.277 -5.641,12.793 28.211,5.649 -4.895,-4.399 47.032,-8.023 -11.29,-9.027 -46.738,8.781 -6.679,-5.774"
       style="fill:#ffffff;fill-opacity:1;fill-rule:nonzero;stroke:none"
       transform="matrix(0.13333333,0,0,-0.13333333,0,37.893333)"
       clip-path="url(#clipPath28)" />
    <path
       id="path29"
       d="m 151.262,173.152 31.597,8.653 0.383,-13.543 -7.898,1.504 -15.434,-12.793 -14.707,2.136 15.918,12.524 -9.859,1.519"
       style="fill:#ffffff;fill-opacity:1;fill-rule:nonzero;stroke:none"
       transform="matrix(0.13333333,0,0,-0.13333333,0,37.893333)"
       clip-path="url(#clipPath30)" />
    <path
       id="path31"
       d="m 137.727,124.617 -30.098,-5.644 -1.137,13.925 8.653,-1.882 16.566,14.148 14.668,-2.48 -17.688,-15.426 9.036,-2.641"
       style="fill:#ffffff;fill-opacity:1;fill-rule:nonzero;stroke:none"
       transform="matrix(0.13333333,0,0,-0.13333333,0,37.893333)"
       clip-path="url(#clipPath32)" />
  </g>
</svg>
