<?xml version="1.0" encoding="UTF-8" standalone="no"?>
<!-- Created with Inkscape (http://www.inkscape.org/) -->

<svg
   version="1.1"
   id="svg1"
   width="43.919998"
   height="57.653332"
   viewBox="0 0 43.919998 57.653332"
   sodipodi:docname="class 4_5 switch.eps"
   xmlns:inkscape="http://www.inkscape.org/namespaces/inkscape"
   xmlns:sodipodi="http://sodipodi.sourceforge.net/DTD/sodipodi-0.dtd"
   xmlns="http://www.w3.org/2000/svg"
   xmlns:svg="http://www.w3.org/2000/svg">
  <defs
     id="defs1">
    <clipPath
       clipPathUnits="userSpaceOnUse"
       id="clipPath2">
      <path
         d="M 0,2 V 432 H 329 V 2 Z"
         id="path2" />
    </clipPath>
    <clipPath
       clipPathUnits="userSpaceOnUse"
       id="clipPath4">
      <path
         d="M 0,2 V 432 H 329 V 2 Z"
         id="path4" />
    </clipPath>
    <clipPath
       clipPathUnits="userSpaceOnUse"
       id="clipPath6">
      <path
         d="M 0,2 V 432 H 329 V 2 Z"
         id="path6" />
    </clipPath>
    <clipPath
       clipPathUnits="userSpaceOnUse"
       id="clipPath8">
      <path
         d="M 0,2 V 432 H 329 V 2 Z"
         id="path8" />
    </clipPath>
    <clipPath
       clipPathUnits="userSpaceOnUse"
       id="clipPath10">
      <path
         d="M 0,2 V 432 H 329 V 2 Z"
         id="path10" />
    </clipPath>
    <clipPath
       clipPathUnits="userSpaceOnUse"
       id="clipPath12">
      <path
         d="M 0,2 V 432 H 329 V 2 Z"
         id="path12" />
    </clipPath>
    <clipPath
       clipPathUnits="userSpaceOnUse"
       id="clipPath14">
      <path
         d="M 0,2 V 432 H 329 V 2 Z"
         id="path14" />
    </clipPath>
    <clipPath
       clipPathUnits="userSpaceOnUse"
       id="clipPath16">
      <path
         d="M 0,2 V 432 H 329 V 2 Z"
         id="path16" />
    </clipPath>
    <clipPath
       clipPathUnits="userSpaceOnUse"
       id="clipPath18">
      <path
         d="M 0,2 V 432 H 329 V 2 Z"
         id="path18" />
    </clipPath>
    <clipPath
       clipPathUnits="userSpaceOnUse"
       id="clipPath20">
      <path
         d="M 0,2 V 432 H 329 V 2 Z"
         id="path20" />
    </clipPath>
    <clipPath
       clipPathUnits="userSpaceOnUse"
       id="clipPath22">
      <path
         d="M 0,2 V 432 H 329 V 2 Z"
         id="path22" />
    </clipPath>
    <clipPath
       clipPathUnits="userSpaceOnUse"
       id="clipPath24">
      <path
         d="M 0,2 V 432 H 329 V 2 Z"
         id="path24" />
    </clipPath>
    <clipPath
       clipPathUnits="userSpaceOnUse"
       id="clipPath26">
      <path
         d="M 0,2 V 432 H 329 V 2 Z"
         id="path26" />
    </clipPath>
  </defs>
  <sodipodi:namedview
     id="namedview1"
     pagecolor="#505050"
     bordercolor="#eeeeee"
     borderopacity="1"
     inkscape:showpageshadow="0"
     inkscape:pageopacity="0"
     inkscape:pagecheckerboard="0"
     inkscape:deskcolor="#d1d1d1">
    <inkscape:page
       x="0"
       y="0"
       inkscape:label="1"
       id="page1"
       width="43.919998"
       height="57.653332"
       margin="0"
       bleed="0" />
  </sodipodi:namedview>
  <g
     id="g1"
     inkscape:groupmode="layer"
     inkscape:label="1">
    <path
       id="path1"
       d="m 257.434,358.633 70.418,69.66 -0.887,-0.488 H 84.7266 L 5.3125,358.137 H 257.434 v 0.496"
       style="fill:#087bbb;fill-opacity:1;fill-rule:nonzero;stroke:none"
       transform="matrix(0.13333333,0,0,-0.13333333,0,57.653333)"
       clip-path="url(#clipPath2)" />
    <path
       id="path3"
       d="m 257.434,358.633 70.418,69.66 -0.887,-0.488 H 84.7266 L 5.3125,358.137 H 257.434 Z"
       style="fill:none;stroke:#ffffff;stroke-width:3.99994;stroke-linecap:butt;stroke-linejoin:miter;stroke-miterlimit:4;stroke-dasharray:none;stroke-opacity:1"
       transform="matrix(0.13333333,0,0,-0.13333333,0,57.653333)"
       clip-path="url(#clipPath4)" />
    <path
       id="path5"
       d="m 5.3125,5.08984 h 252.121 v 353.047 H 5.3125 Z"
       style="fill:#087bbb;fill-opacity:1;fill-rule:nonzero;stroke:none"
       transform="matrix(0.13333333,0,0,-0.13333333,0,57.653333)"
       clip-path="url(#clipPath6)" />
    <path
       id="path7"
       d="M 257.434,5.08984 V 358.137 H 5.3125 V 5.08984 Z"
       style="fill:none;stroke:#ffffff;stroke-width:3.99994;stroke-linecap:butt;stroke-linejoin:miter;stroke-miterlimit:4;stroke-dasharray:none;stroke-opacity:1"
       transform="matrix(0.13333333,0,0,-0.13333333,0,57.653333)"
       clip-path="url(#clipPath8)" />
    <path
       id="path9"
       d="M 257.434,193.27 H 5.3125"
       style="fill:#231f20;fill-opacity:1;fill-rule:nonzero;stroke:#ffffff;stroke-width:3.99994;stroke-linecap:butt;stroke-linejoin:miter;stroke-miterlimit:4;stroke-dasharray:none;stroke-opacity:1"
       transform="matrix(0.13333333,0,0,-0.13333333,0,57.653333)"
       clip-path="url(#clipPath10)" />
    <path
       id="path11"
       d="M 36.9141,110.203 H 115.137"
       style="fill:#231f20;fill-opacity:1;fill-rule:nonzero;stroke:#ffffff;stroke-width:3.99994;stroke-linecap:butt;stroke-linejoin:miter;stroke-miterlimit:4;stroke-dasharray:none;stroke-opacity:1"
       transform="matrix(0.13333333,0,0,-0.13333333,0,57.653333)"
       clip-path="url(#clipPath12)" />
    <path
       id="path13"
       d="M 36.9141,93.3672 H 115.137"
       style="fill:#231f20;fill-opacity:1;fill-rule:nonzero;stroke:#ffffff;stroke-width:3.99994;stroke-linecap:butt;stroke-linejoin:miter;stroke-miterlimit:4;stroke-dasharray:none;stroke-opacity:1"
       transform="matrix(0.13333333,0,0,-0.13333333,0,57.653333)"
       clip-path="url(#clipPath14)" />
    <path
       id="path15"
       d="M 36.9141,76.5313 H 115.137"
       style="fill:#231f20;fill-opacity:1;fill-rule:nonzero;stroke:#ffffff;stroke-width:3.99994;stroke-linecap:butt;stroke-linejoin:miter;stroke-miterlimit:4;stroke-dasharray:none;stroke-opacity:1"
       transform="matrix(0.13333333,0,0,-0.13333333,0,57.653333)"
       clip-path="url(#clipPath16)" />
    <path
       id="path17"
       d="M 36.9141,59.6953 H 115.137"
       style="fill:#231f20;fill-opacity:1;fill-rule:nonzero;stroke:#ffffff;stroke-width:3.99994;stroke-linecap:butt;stroke-linejoin:miter;stroke-miterlimit:4;stroke-dasharray:none;stroke-opacity:1"
       transform="matrix(0.13333333,0,0,-0.13333333,0,57.653333)"
       clip-path="url(#clipPath18)" />
    <path
       id="path19"
       d="M 36.9141,42.8711 H 115.137"
       style="fill:#231f20;fill-opacity:1;fill-rule:nonzero;stroke:#ffffff;stroke-width:3.99994;stroke-linecap:butt;stroke-linejoin:miter;stroke-miterlimit:4;stroke-dasharray:none;stroke-opacity:1"
       transform="matrix(0.13333333,0,0,-0.13333333,0,57.653333)"
       clip-path="url(#clipPath20)" />
    <path
       id="path21"
       d="M 327.363,80.3125 V 427.629 L 257.434,358.527 V 5.08984 l 69.929,75.22266"
       style="fill:#087bbb;fill-opacity:1;fill-rule:nonzero;stroke:none"
       transform="matrix(0.13333333,0,0,-0.13333333,0,57.653333)"
       clip-path="url(#clipPath22)" />
    <path
       id="path23"
       d="M 327.363,80.3125 V 427.629 L 257.434,358.527 V 5.08984 Z"
       style="fill:none;stroke:#ffffff;stroke-width:3.99994;stroke-linecap:butt;stroke-linejoin:miter;stroke-miterlimit:4;stroke-dasharray:none;stroke-opacity:1"
       transform="matrix(0.13333333,0,0,-0.13333333,0,57.653333)"
       clip-path="url(#clipPath24)" />
    <path
       id="path25"
       d="M 257.434,189.734 H 5.3125"
       style="fill:#231f20;fill-opacity:1;fill-rule:nonzero;stroke:#ffffff;stroke-width:3.99994;stroke-linecap:butt;stroke-linejoin:miter;stroke-miterlimit:4;stroke-dasharray:none;stroke-opacity:1"
       transform="matrix(0.13333333,0,0,-0.13333333,0,57.653333)"
       clip-path="url(#clipPath26)" />
  </g>
</svg>
