<?xml version="1.0" encoding="UTF-8" standalone="no"?>
<!-- Created with Inkscape (http://www.inkscape.org/) -->

<svg
   version="1.1"
   id="svg1"
   width="55.413334"
   height="41.799999"
   viewBox="0 0 55.413334 41.799999"
   sodipodi:docname="content switch module.eps"
   xmlns:inkscape="http://www.inkscape.org/namespaces/inkscape"
   xmlns:sodipodi="http://sodipodi.sourceforge.net/DTD/sodipodi-0.dtd"
   xmlns="http://www.w3.org/2000/svg"
   xmlns:svg="http://www.w3.org/2000/svg">
  <defs
     id="defs1">
    <clipPath
       clipPathUnits="userSpaceOnUse"
       id="clipPath2">
      <path
         d="M 0,3 V 313 H 416 V 3 Z"
         id="path2" />
    </clipPath>
    <clipPath
       clipPathUnits="userSpaceOnUse"
       id="clipPath4">
      <path
         d="M 0,3 V 313 H 416 V 3 Z"
         id="path4" />
    </clipPath>
    <clipPath
       clipPathUnits="userSpaceOnUse"
       id="clipPath6">
      <path
         d="M 0,3 V 313 H 416 V 3 Z"
         id="path6" />
    </clipPath>
    <clipPath
       clipPathUnits="userSpaceOnUse"
       id="clipPath8">
      <path
         d="M 0,3 V 313 H 416 V 3 Z"
         id="path8" />
    </clipPath>
    <clipPath
       clipPathUnits="userSpaceOnUse"
       id="clipPath10">
      <path
         d="M 0,3 V 313 H 416 V 3 Z"
         id="path10" />
    </clipPath>
    <clipPath
       clipPathUnits="userSpaceOnUse"
       id="clipPath12">
      <path
         d="M 0,3 V 313 H 416 V 3 Z"
         id="path12" />
    </clipPath>
    <clipPath
       clipPathUnits="userSpaceOnUse"
       id="clipPath14">
      <path
         d="M 0,3 V 313 H 416 V 3 Z"
         id="path14" />
    </clipPath>
    <clipPath
       clipPathUnits="userSpaceOnUse"
       id="clipPath16">
      <path
         d="M 0,3 V 313 H 416 V 3 Z"
         id="path16" />
    </clipPath>
    <clipPath
       clipPathUnits="userSpaceOnUse"
       id="clipPath18">
      <path
         d="M 0,3 V 313 H 416 V 3 Z"
         id="path18" />
    </clipPath>
    <clipPath
       clipPathUnits="userSpaceOnUse"
       id="clipPath20">
      <path
         d="M 0,3 V 313 H 416 V 3 Z"
         id="path20" />
    </clipPath>
    <clipPath
       clipPathUnits="userSpaceOnUse"
       id="clipPath22">
      <path
         d="M 0,3 V 313 H 416 V 3 Z"
         id="path22" />
    </clipPath>
    <clipPath
       clipPathUnits="userSpaceOnUse"
       id="clipPath24">
      <path
         d="M 0,3 V 313 H 416 V 3 Z"
         id="path24" />
    </clipPath>
    <clipPath
       clipPathUnits="userSpaceOnUse"
       id="clipPath26">
      <path
         d="M 0,3 V 313 H 416 V 3 Z"
         id="path26" />
    </clipPath>
    <clipPath
       clipPathUnits="userSpaceOnUse"
       id="clipPath28">
      <path
         d="M 0,3 V 313 H 416 V 3 Z"
         id="path28" />
    </clipPath>
    <clipPath
       clipPathUnits="userSpaceOnUse"
       id="clipPath30">
      <path
         d="M 0,3 V 313 H 416 V 3 Z"
         id="path30" />
    </clipPath>
    <clipPath
       clipPathUnits="userSpaceOnUse"
       id="clipPath32">
      <path
         d="M 0,3 V 313 H 416 V 3 Z"
         id="path32" />
    </clipPath>
    <clipPath
       clipPathUnits="userSpaceOnUse"
       id="clipPath34">
      <path
         d="M 0,3 V 313 H 416 V 3 Z"
         id="path34" />
    </clipPath>
    <clipPath
       clipPathUnits="userSpaceOnUse"
       id="clipPath36">
      <path
         d="M 0,3 V 313 H 416 V 3 Z"
         id="path36" />
    </clipPath>
    <clipPath
       clipPathUnits="userSpaceOnUse"
       id="clipPath38">
      <path
         d="M 0,3 V 313 H 416 V 3 Z"
         id="path38" />
    </clipPath>
    <clipPath
       clipPathUnits="userSpaceOnUse"
       id="clipPath40">
      <path
         d="M 0,3 V 313 H 416 V 3 Z"
         id="path40" />
    </clipPath>
    <clipPath
       clipPathUnits="userSpaceOnUse"
       id="clipPath42">
      <path
         d="M 0,3 V 313 H 416 V 3 Z"
         id="path42" />
    </clipPath>
    <clipPath
       clipPathUnits="userSpaceOnUse"
       id="clipPath44">
      <path
         d="M 0,3 V 313 H 416 V 3 Z"
         id="path44" />
    </clipPath>
    <clipPath
       clipPathUnits="userSpaceOnUse"
       id="clipPath46">
      <path
         d="M 0,3 V 313 H 416 V 3 Z"
         id="path46" />
    </clipPath>
    <clipPath
       clipPathUnits="userSpaceOnUse"
       id="clipPath48">
      <path
         d="M 0,3 V 313 H 416 V 3 Z"
         id="path48" />
    </clipPath>
    <clipPath
       clipPathUnits="userSpaceOnUse"
       id="clipPath50">
      <path
         d="M 0,3 V 313 H 416 V 3 Z"
         id="path50" />
    </clipPath>
    <clipPath
       clipPathUnits="userSpaceOnUse"
       id="clipPath52">
      <path
         d="M 0,3 V 313 H 416 V 3 Z"
         id="path52" />
    </clipPath>
    <clipPath
       clipPathUnits="userSpaceOnUse"
       id="clipPath54">
      <path
         d="M 0,3 V 313 H 416 V 3 Z"
         id="path54" />
    </clipPath>
    <clipPath
       clipPathUnits="userSpaceOnUse"
       id="clipPath56">
      <path
         d="M 0,3 V 313 H 416 V 3 Z"
         id="path56" />
    </clipPath>
    <clipPath
       clipPathUnits="userSpaceOnUse"
       id="clipPath58">
      <path
         d="M 0,3 V 313 H 416 V 3 Z"
         id="path58" />
    </clipPath>
    <clipPath
       clipPathUnits="userSpaceOnUse"
       id="clipPath60">
      <path
         d="M 0,3 V 313 H 416 V 3 Z"
         id="path60" />
    </clipPath>
    <clipPath
       clipPathUnits="userSpaceOnUse"
       id="clipPath62">
      <path
         d="M 0,3 V 313 H 416 V 3 Z"
         id="path62" />
    </clipPath>
    <clipPath
       clipPathUnits="userSpaceOnUse"
       id="clipPath64">
      <path
         d="M 0,3 V 313 H 416 V 3 Z"
         id="path64" />
    </clipPath>
    <clipPath
       clipPathUnits="userSpaceOnUse"
       id="clipPath66">
      <path
         d="M 0,3 V 313 H 416 V 3 Z"
         id="path66" />
    </clipPath>
  </defs>
  <sodipodi:namedview
     id="namedview1"
     pagecolor="#505050"
     bordercolor="#eeeeee"
     borderopacity="1"
     inkscape:showpageshadow="0"
     inkscape:pageopacity="0"
     inkscape:pagecheckerboard="0"
     inkscape:deskcolor="#d1d1d1">
    <inkscape:page
       x="0"
       y="0"
       inkscape:label="1"
       id="page1"
       width="55.413334"
       height="41.799999"
       margin="0"
       bleed="0" />
  </sodipodi:namedview>
  <g
     id="g1"
     inkscape:groupmode="layer"
     inkscape:label="1">
    <path
       id="path1"
       d="m 111.492,3.96484 h 268.004 v 268.273 H 111.492 Z"
       style="fill:#087bbb;fill-opacity:1;fill-rule:nonzero;stroke:none"
       transform="matrix(0.13333333,0,0,-0.13333333,0,41.8)"
       clip-path="url(#clipPath2)" />
    <path
       id="path3"
       d="M 379.496,3.96484 H 111.492 V 272.238 h 268.004 z"
       style="fill:none;stroke:#ffffff;stroke-width:3.99994;stroke-linecap:butt;stroke-linejoin:miter;stroke-miterlimit:4;stroke-dasharray:none;stroke-opacity:1"
       transform="matrix(0.13333333,0,0,-0.13333333,0,41.8)"
       clip-path="url(#clipPath4)" />
    <path
       id="path5"
       d="M 142.832,306.887 H 410.844 L 377.289,273 H 109.285 l 33.547,33.887"
       style="fill:#087bbb;fill-opacity:1;fill-rule:nonzero;stroke:none"
       transform="matrix(0.13333333,0,0,-0.13333333,0,41.8)"
       clip-path="url(#clipPath6)" />
    <path
       id="path7"
       d="M 142.832,306.887 H 410.844 L 377.289,273 H 109.285 Z"
       style="fill:none;stroke:#ffffff;stroke-width:3.99994;stroke-linecap:butt;stroke-linejoin:miter;stroke-miterlimit:4;stroke-dasharray:none;stroke-opacity:1"
       transform="matrix(0.13333333,0,0,-0.13333333,0,41.8)"
       clip-path="url(#clipPath8)" />
    <path
       id="path9"
       d="M 411.996,55.5195 378.441,6.46484 V 274.738 l 33.555,33.875 V 55.5195"
       style="fill:#087bbb;fill-opacity:1;fill-rule:nonzero;stroke:none"
       transform="matrix(0.13333333,0,0,-0.13333333,0,41.8)"
       clip-path="url(#clipPath10)" />
    <path
       id="path11"
       d="M 411.996,55.5195 378.441,6.46484 V 274.738 l 33.555,33.875 z"
       style="fill:none;stroke:#ffffff;stroke-width:3.99994;stroke-linecap:butt;stroke-linejoin:miter;stroke-miterlimit:4;stroke-dasharray:none;stroke-opacity:1"
       transform="matrix(0.13333333,0,0,-0.13333333,0,41.8)"
       clip-path="url(#clipPath12)" />
    <path
       id="path13"
       d="m 2.84375,3.96484 h 108.648 v 268.273 H 2.84375 Z"
       style="fill:#087bbb;fill-opacity:1;fill-rule:nonzero;stroke:none"
       transform="matrix(0.13333333,0,0,-0.13333333,0,41.8)"
       clip-path="url(#clipPath14)" />
    <path
       id="path15"
       d="M 111.492,3.96484 H 2.84375 V 272.238 H 111.492 Z"
       style="fill:none;stroke:#ffffff;stroke-width:3.99994;stroke-linecap:butt;stroke-linejoin:miter;stroke-miterlimit:4;stroke-dasharray:none;stroke-opacity:1"
       transform="matrix(0.13333333,0,0,-0.13333333,0,41.8)"
       clip-path="url(#clipPath16)" />
    <path
       id="path17"
       d="M 38.3477,306.887 H 147.004 L 113.445,273 H 4.79297 l 33.55473,33.887"
       style="fill:#087bbb;fill-opacity:1;fill-rule:nonzero;stroke:#ffffff;stroke-width:3.99994;stroke-linecap:butt;stroke-linejoin:miter;stroke-miterlimit:4;stroke-dasharray:none;stroke-opacity:1"
       transform="matrix(0.13333333,0,0,-0.13333333,0,41.8)"
       clip-path="url(#clipPath18)" />
    <path
       id="path19"
       d="M 111.492,272.238 V 3.96484"
       style="fill:#087bbb;fill-opacity:1;fill-rule:nonzero;stroke:#ffffff;stroke-width:3.99994;stroke-linecap:butt;stroke-linejoin:miter;stroke-miterlimit:4;stroke-dasharray:none;stroke-opacity:1"
       transform="matrix(0.13333333,0,0,-0.13333333,0,41.8)"
       clip-path="url(#clipPath20)" />
    <path
       id="path21"
       d="M 113.445,175.496 H 4.79297"
       style="fill:#231f20;fill-opacity:1;fill-rule:nonzero;stroke:#ffffff;stroke-width:3.99994;stroke-linecap:butt;stroke-linejoin:miter;stroke-miterlimit:4;stroke-dasharray:none;stroke-opacity:1"
       transform="matrix(0.13333333,0,0,-0.13333333,0,41.8)"
       clip-path="url(#clipPath22)" />
    <path
       id="path23"
       d="m 206.527,143.906 h -57.992 v 9.836 l -21.887,-14.512 21.887,-14.511 v 9.82 h 57.992 v 9.367"
       style="fill:#ffffff;fill-opacity:1;fill-rule:nonzero;stroke:none"
       transform="matrix(0.13333333,0,0,-0.13333333,0,41.8)"
       clip-path="url(#clipPath24)" />
    <path
       id="path25"
       d="m 214.906,114.328 -41.011,-41.0155 -6.954,6.9609 -5.211,-25.7421 25.743,5.207 -6.953,6.9609 41.007,41.0078 -6.621,6.621"
       style="fill:#ffffff;fill-opacity:1;fill-rule:nonzero;stroke:none"
       transform="matrix(0.13333333,0,0,-0.13333333,0,41.8)"
       clip-path="url(#clipPath26)" />
    <path
       id="path27"
       d="M 241.742,99.3281 V 41.3398 h -9.824 l 14.512,-21.8945 14.511,21.8945 h -9.843 v 57.9883 h -9.356"
       style="fill:#ffffff;fill-opacity:1;fill-rule:nonzero;stroke:none"
       transform="matrix(0.13333333,0,0,-0.13333333,0,41.8)"
       clip-path="url(#clipPath28)" />
    <path
       id="path29"
       d="m 271.332,107.707 40.996,-41.0078 -6.953,-6.9609 25.742,-5.207 -5.215,25.7421 -6.953,-6.9609 -40.996,41.0155 -6.621,-6.621"
       style="fill:#ffffff;fill-opacity:1;fill-rule:nonzero;stroke:none"
       transform="matrix(0.13333333,0,0,-0.13333333,0,41.8)"
       clip-path="url(#clipPath30)" />
    <path
       id="path31"
       d="m 286.332,134.539 h 57.988 v -9.82 l 21.895,14.511 -21.895,14.512 v -9.836 h -57.988 v -9.367"
       style="fill:#ffffff;fill-opacity:1;fill-rule:nonzero;stroke:none"
       transform="matrix(0.13333333,0,0,-0.13333333,0,41.8)"
       clip-path="url(#clipPath32)" />
    <path
       id="path33"
       d="m 277.953,164.133 40.996,41.004 6.953,-6.953 5.215,25.742 -25.742,-5.215 6.953,-6.953 -40.996,-41.004 6.621,-6.621"
       style="fill:#ffffff;fill-opacity:1;fill-rule:nonzero;stroke:none"
       transform="matrix(0.13333333,0,0,-0.13333333,0,41.8)"
       clip-path="url(#clipPath34)" />
    <path
       id="path35"
       d="m 251.098,179.133 v 57.988 h 9.843 l -14.511,21.883 -14.512,-21.883 h 9.824 v -57.988 h 9.356"
       style="fill:#ffffff;fill-opacity:1;fill-rule:nonzero;stroke:none"
       transform="matrix(0.13333333,0,0,-0.13333333,0,41.8)"
       clip-path="url(#clipPath36)" />
    <path
       id="path37"
       d="m 221.527,170.754 -41.007,41.004 6.953,6.953 -25.743,5.215 5.211,-25.742 6.954,6.953 41.011,-41.004 6.621,6.621"
       style="fill:#ffffff;fill-opacity:1;fill-rule:nonzero;stroke:none"
       transform="matrix(0.13333333,0,0,-0.13333333,0,41.8)"
       clip-path="url(#clipPath38)" />
    <path
       id="path39"
       d="m 295.023,174.707 c -19.023,27.16 -56.464,33.762 -83.613,14.746 -27.172,-19.023 -33.773,-56.465 -14.746,-83.621 19.024,-27.1679 56.465,-33.7695 83.613,-14.7461 27.168,19.0231 33.77,56.4651 14.746,83.6211"
       style="fill:#ffffff;fill-opacity:1;fill-rule:nonzero;stroke:none"
       transform="matrix(0.13333333,0,0,-0.13333333,0,41.8)"
       clip-path="url(#clipPath40)" />
    <path
       id="path41"
       d="M 47.0313,224.199 H 29.6289 v 2.961 l -6.5625,-4.355 6.5625,-4.356 v 2.949 h 17.4024 v 2.801"
       style="fill:#ffffff;fill-opacity:1;fill-rule:nonzero;stroke:none"
       transform="matrix(0.13333333,0,0,-0.13333333,0,41.8)"
       clip-path="url(#clipPath42)" />
    <path
       id="path43"
       d="m 49.5391,215.324 -12.293,-12.304 -2.0898,2.089 -1.5625,-7.714 7.7265,1.562 -2.0937,2.078 12.3047,12.305 -1.9922,1.984"
       style="fill:#ffffff;fill-opacity:1;fill-rule:nonzero;stroke:none"
       transform="matrix(0.13333333,0,0,-0.13333333,0,41.8)"
       clip-path="url(#clipPath44)" />
    <path
       id="path45"
       d="M 57.5977,210.832 V 193.43 h -2.9493 l 4.3555,-6.563 4.3555,6.563 h -2.9571 v 17.402 h -2.8046"
       style="fill:#ffffff;fill-opacity:1;fill-rule:nonzero;stroke:none"
       transform="matrix(0.13333333,0,0,-0.13333333,0,41.8)"
       clip-path="url(#clipPath46)" />
    <path
       id="path47"
       d="m 66.4727,213.34 12.2968,-12.305 -2.0781,-2.078 7.7227,-1.562 -1.5703,7.714 -2.0821,-2.089 -12.3047,12.304 -1.9843,-1.984"
       style="fill:#ffffff;fill-opacity:1;fill-rule:nonzero;stroke:none"
       transform="matrix(0.13333333,0,0,-0.13333333,0,41.8)"
       clip-path="url(#clipPath48)" />
    <path
       id="path49"
       d="m 70.9688,221.398 h 17.3984 v -2.949 l 6.5625,4.356 -6.5625,4.355 v -2.961 H 70.9688 v -2.801"
       style="fill:#ffffff;fill-opacity:1;fill-rule:nonzero;stroke:none"
       transform="matrix(0.13333333,0,0,-0.13333333,0,41.8)"
       clip-path="url(#clipPath50)" />
    <path
       id="path51"
       d="m 68.457,230.266 12.3047,12.304 2.0821,-2.09 1.5703,7.723 -7.7227,-1.562 2.0781,-2.078 -12.2968,-12.305 1.9843,-1.992"
       style="fill:#ffffff;fill-opacity:1;fill-rule:nonzero;stroke:none"
       transform="matrix(0.13333333,0,0,-0.13333333,0,41.8)"
       clip-path="url(#clipPath52)" />
    <path
       id="path53"
       d="m 60.4023,234.766 v 17.394 h 2.9571 l -4.3555,6.57 -4.3555,-6.57 h 2.9493 v -17.394 h 2.8046"
       style="fill:#ffffff;fill-opacity:1;fill-rule:nonzero;stroke:none"
       transform="matrix(0.13333333,0,0,-0.13333333,0,41.8)"
       clip-path="url(#clipPath54)" />
    <path
       id="path55"
       d="m 51.5313,232.258 -12.3047,12.305 2.0937,2.078 -7.7265,1.562 1.5625,-7.723 2.0898,2.09 12.293,-12.304 1.9922,1.992"
       style="fill:#ffffff;fill-opacity:1;fill-rule:nonzero;stroke:none"
       transform="matrix(0.13333333,0,0,-0.13333333,0,41.8)"
       clip-path="url(#clipPath56)" />
    <path
       id="path57"
       d="m 73.5859,233.438 c -5.7148,8.156 -16.9453,10.128 -25.0898,4.425 -8.1523,-5.703 -10.1367,-16.933 -4.4219,-25.09 5.7031,-8.152 16.9336,-10.125 25.086,-4.421 8.1445,5.703 10.125,16.941 4.4257,25.086"
       style="fill:#ffffff;fill-opacity:1;fill-rule:nonzero;stroke:none"
       transform="matrix(0.13333333,0,0,-0.13333333,0,41.8)"
       clip-path="url(#clipPath58)" />
    <path
       id="path59"
       d="M 52.9609,87.7852 V 39.5625 H 44.7852 L 56.8438,21.3594 68.9141,39.5625 h -8.1719 v 48.2227 h -7.7813"
       style="fill:#ffffff;fill-opacity:1;fill-rule:nonzero;stroke:none"
       transform="matrix(0.13333333,0,0,-0.13333333,0,41.8)"
       clip-path="url(#clipPath60)" />
    <path
       id="path61"
       d="M 66.3555,88.8984 82.8438,43.5938 75.1563,40.7891 92.7227,27.8242 97.832,49.0547 90.1563,46.2422 73.6602,91.5625 66.3555,88.8984"
       style="fill:#ffffff;fill-opacity:1;fill-rule:nonzero;stroke:none"
       transform="matrix(0.13333333,0,0,-0.13333333,0,41.8)"
       clip-path="url(#clipPath62)" />
    <path
       id="path63"
       d="M 47.6484,88.8984 31.1602,43.5938 38.8477,40.7891 21.2813,27.8242 l -5.1094,21.2305 7.6758,-2.8125 16.4961,45.3203 7.3046,-2.6641"
       style="fill:#ffffff;fill-opacity:1;fill-rule:nonzero;stroke:none"
       transform="matrix(0.13333333,0,0,-0.13333333,0,41.8)"
       clip-path="url(#clipPath64)" />
    <path
       id="path65"
       d="M 52.9609,162.551 V 116.066 H 44.7852 L 56.8438,97.8633 68.9141,116.066 h -8.1719 v 46.485 h -7.7813"
       style="fill:#ffffff;fill-opacity:1;fill-rule:nonzero;stroke:none"
       transform="matrix(0.13333333,0,0,-0.13333333,0,41.8)"
       clip-path="url(#clipPath66)" />
  </g>
</svg>
