<?xml version="1.0" encoding="UTF-8" standalone="no"?>
<!-- Created with Inkscape (http://www.inkscape.org/) -->

<svg
   version="1.1"
   id="svg1"
   width="41.506668"
   height="55.413334"
   viewBox="0 0 41.506668 55.413334"
   sodipodi:docname="content switch.eps"
   xmlns:inkscape="http://www.inkscape.org/namespaces/inkscape"
   xmlns:sodipodi="http://sodipodi.sourceforge.net/DTD/sodipodi-0.dtd"
   xmlns="http://www.w3.org/2000/svg"
   xmlns:svg="http://www.w3.org/2000/svg">
  <defs
     id="defs1">
    <clipPath
       clipPathUnits="userSpaceOnUse"
       id="clipPath2">
      <path
         d="M 0,416 H 310 V 0 H 0 Z"
         id="path2" />
    </clipPath>
    <clipPath
       clipPathUnits="userSpaceOnUse"
       id="clipPath4">
      <path
         d="M 0,416 H 310 V 0 H 0 Z"
         id="path4" />
    </clipPath>
    <clipPath
       clipPathUnits="userSpaceOnUse"
       id="clipPath6">
      <path
         d="M 0,416 H 310 V 0 H 0 Z"
         id="path6" />
    </clipPath>
    <clipPath
       clipPathUnits="userSpaceOnUse"
       id="clipPath8">
      <path
         d="M 0,416 H 310 V 0 H 0 Z"
         id="path8" />
    </clipPath>
    <clipPath
       clipPathUnits="userSpaceOnUse"
       id="clipPath10">
      <path
         d="M 0,416 H 310 V 0 H 0 Z"
         id="path10" />
    </clipPath>
    <clipPath
       clipPathUnits="userSpaceOnUse"
       id="clipPath12">
      <path
         d="M 0,416 H 310 V 0 H 0 Z"
         id="path12" />
    </clipPath>
    <clipPath
       clipPathUnits="userSpaceOnUse"
       id="clipPath14">
      <path
         d="M 0,416 H 310 V 0 H 0 Z"
         id="path14" />
    </clipPath>
    <clipPath
       clipPathUnits="userSpaceOnUse"
       id="clipPath16">
      <path
         d="M 0,416 H 310 V 0 H 0 Z"
         id="path16" />
    </clipPath>
    <clipPath
       clipPathUnits="userSpaceOnUse"
       id="clipPath18">
      <path
         d="M 0,416 H 310 V 0 H 0 Z"
         id="path18" />
    </clipPath>
    <clipPath
       clipPathUnits="userSpaceOnUse"
       id="clipPath20">
      <path
         d="M 0,416 H 310 V 0 H 0 Z"
         id="path20" />
    </clipPath>
    <clipPath
       clipPathUnits="userSpaceOnUse"
       id="clipPath22">
      <path
         d="M 0,416 H 310 V 0 H 0 Z"
         id="path22" />
    </clipPath>
    <clipPath
       clipPathUnits="userSpaceOnUse"
       id="clipPath24">
      <path
         d="M 0,416 H 310 V 0 H 0 Z"
         id="path24" />
    </clipPath>
    <clipPath
       clipPathUnits="userSpaceOnUse"
       id="clipPath26">
      <path
         d="M 0,416 H 310 V 0 H 0 Z"
         id="path26" />
    </clipPath>
    <clipPath
       clipPathUnits="userSpaceOnUse"
       id="clipPath28">
      <path
         d="M 0,416 H 310 V 0 H 0 Z"
         id="path28" />
    </clipPath>
    <clipPath
       clipPathUnits="userSpaceOnUse"
       id="clipPath30">
      <path
         d="M 0,416 H 310 V 0 H 0 Z"
         id="path30" />
    </clipPath>
    <clipPath
       clipPathUnits="userSpaceOnUse"
       id="clipPath32">
      <path
         d="M 0,416 H 310 V 0 H 0 Z"
         id="path32" />
    </clipPath>
    <clipPath
       clipPathUnits="userSpaceOnUse"
       id="clipPath34">
      <path
         d="M 0,416 H 310 V 0 H 0 Z"
         id="path34" />
    </clipPath>
    <clipPath
       clipPathUnits="userSpaceOnUse"
       id="clipPath36">
      <path
         d="M 0,416 H 310 V 0 H 0 Z"
         id="path36" />
    </clipPath>
    <clipPath
       clipPathUnits="userSpaceOnUse"
       id="clipPath38">
      <path
         d="M 0,416 H 310 V 0 H 0 Z"
         id="path38" />
    </clipPath>
    <clipPath
       clipPathUnits="userSpaceOnUse"
       id="clipPath40">
      <path
         d="M 0,416 H 310 V 0 H 0 Z"
         id="path40" />
    </clipPath>
    <clipPath
       clipPathUnits="userSpaceOnUse"
       id="clipPath42">
      <path
         d="M 0,416 H 310 V 0 H 0 Z"
         id="path42" />
    </clipPath>
  </defs>
  <sodipodi:namedview
     id="namedview1"
     pagecolor="#505050"
     bordercolor="#eeeeee"
     borderopacity="1"
     inkscape:showpageshadow="0"
     inkscape:pageopacity="0"
     inkscape:pagecheckerboard="0"
     inkscape:deskcolor="#d1d1d1">
    <inkscape:page
       x="0"
       y="0"
       inkscape:label="1"
       id="page1"
       width="41.506668"
       height="55.413334"
       margin="0"
       bleed="0" />
  </sodipodi:namedview>
  <g
     id="g1"
     inkscape:groupmode="layer"
     inkscape:label="1">
    <path
       id="path1"
       d="M 306.293,53.4063 V 410.906 l -51.348,-48.75 V 4.65625 l 51.348,48.75005"
       style="fill:#087bbb;fill-opacity:1;fill-rule:nonzero;stroke:none"
       transform="matrix(0.13333333,0,0,-0.13333333,0,55.413333)"
       clip-path="url(#clipPath2)" />
    <path
       id="path3"
       d="M 306.293,53.4063 V 410.906 l -51.348,-48.75 V 4.65625 Z"
       style="fill:none;stroke:#ffffff;stroke-width:3.99994;stroke-linecap:butt;stroke-linejoin:miter;stroke-miterlimit:4;stroke-dasharray:none;stroke-opacity:1"
       transform="matrix(0.13333333,0,0,-0.13333333,0,55.413333)"
       clip-path="url(#clipPath4)" />
    <path
       id="path5"
       d="m 306.293,410.906 -51.348,-48.75 H 5.96094 l 64.49216,48.75 H 306.293"
       style="fill:#087bbb;fill-opacity:1;fill-rule:nonzero;stroke:none"
       transform="matrix(0.13333333,0,0,-0.13333333,0,55.413333)"
       clip-path="url(#clipPath6)" />
    <path
       id="path7"
       d="m 306.293,410.906 -51.348,-48.75 H 5.96094 l 64.49216,48.75 z"
       style="fill:none;stroke:#ffffff;stroke-width:3.99994;stroke-linecap:butt;stroke-linejoin:miter;stroke-miterlimit:4;stroke-dasharray:none;stroke-opacity:1"
       transform="matrix(0.13333333,0,0,-0.13333333,0,55.413333)"
       clip-path="url(#clipPath8)" />
    <path
       id="path9"
       d="m 5.96094,115.906 h 248.984 v 246.25 H 5.96094 Z"
       style="fill:#087bbb;fill-opacity:1;fill-rule:nonzero;stroke:none"
       transform="matrix(0.13333333,0,0,-0.13333333,0,55.413333)"
       clip-path="url(#clipPath10)" />
    <path
       id="path11"
       d="m 254.945,115.906 v 246.25 H 5.96094 v -246.25 z"
       style="fill:none;stroke:#ffffff;stroke-width:3.99994;stroke-linecap:butt;stroke-linejoin:miter;stroke-miterlimit:4;stroke-dasharray:none;stroke-opacity:1"
       transform="matrix(0.13333333,0,0,-0.13333333,0,55.413333)"
       clip-path="url(#clipPath12)" />
    <path
       id="path13"
       d="m 5.96094,4.65625 h 248.984 v 108.75 H 5.96094 Z"
       style="fill:#087bbb;fill-opacity:1;fill-rule:nonzero;stroke:none"
       transform="matrix(0.13333333,0,0,-0.13333333,0,55.413333)"
       clip-path="url(#clipPath14)" />
    <path
       id="path15"
       d="M 254.945,4.65625 V 113.406 H 5.96094 V 4.65625 Z"
       style="fill:none;stroke:#ffffff;stroke-width:3.99994;stroke-linecap:butt;stroke-linejoin:miter;stroke-miterlimit:4;stroke-dasharray:none;stroke-opacity:1"
       transform="matrix(0.13333333,0,0,-0.13333333,0,55.413333)"
       clip-path="url(#clipPath16)" />
    <path
       id="path17"
       d="m 108.246,268.223 -37.871,37.89 6.4258,6.426 -23.7891,4.813 4.8164,-23.778 6.4258,6.426 37.8791,-37.891 6.113,6.114"
       style="fill:#ffffff;fill-opacity:1;fill-rule:nonzero;stroke:none"
       transform="matrix(0.13333333,0,0,-0.13333333,0,55.413333)"
       clip-path="url(#clipPath18)" />
    <path
       id="path19"
       d="M 94.3984,243.426 H 40.8242 v 9.094 L 20.6016,239.102 40.8242,225.691 v 9.094 h 53.5742 v 8.641"
       style="fill:#ffffff;fill-opacity:1;fill-rule:nonzero;stroke:none"
       transform="matrix(0.13333333,0,0,-0.13333333,0,55.413333)"
       clip-path="url(#clipPath20)" />
    <path
       id="path21"
       d="m 102.133,216.094 -37.8791,-37.891 -6.4258,6.426 -4.8164,-23.781 23.7891,4.816 -6.4258,6.426 37.871,37.89 -6.113,6.114"
       style="fill:#ffffff;fill-opacity:1;fill-rule:nonzero;stroke:none"
       transform="matrix(0.13333333,0,0,-0.13333333,0,55.413333)"
       clip-path="url(#clipPath22)" />
    <path
       id="path23"
       d="M 126.938,202.246 V 148.66 h -9.083 l 13.399,-20.222 13.418,20.222 h -9.082 v 53.586 h -8.652"
       style="fill:#ffffff;fill-opacity:1;fill-rule:nonzero;stroke:none"
       transform="matrix(0.13333333,0,0,-0.13333333,0,55.413333)"
       clip-path="url(#clipPath24)" />
    <path
       id="path25"
       d="m 126.938,274.422 v 53.586 h -9.083 l 13.399,20.215 13.418,-20.215 h -9.082 v -53.586 h -8.652"
       style="fill:#ffffff;fill-opacity:1;fill-rule:nonzero;stroke:none"
       transform="matrix(0.13333333,0,0,-0.13333333,0,55.413333)"
       clip-path="url(#clipPath26)" />
    <path
       id="path27"
       d="m 154.273,209.98 37.879,-37.89 -6.425,-6.426 23.789,-4.816 -4.825,23.781 -6.425,-6.426 -37.879,37.891 -6.114,-6.114"
       style="fill:#ffffff;fill-opacity:1;fill-rule:nonzero;stroke:none"
       transform="matrix(0.13333333,0,0,-0.13333333,0,55.413333)"
       clip-path="url(#clipPath28)" />
    <path
       id="path29"
       d="m 168.129,234.785 h 53.574 v -9.094 l 20.227,13.411 -20.227,13.418 v -9.094 h -53.574 v -8.641"
       style="fill:#ffffff;fill-opacity:1;fill-rule:nonzero;stroke:none"
       transform="matrix(0.13333333,0,0,-0.13333333,0,55.413333)"
       clip-path="url(#clipPath30)" />
    <path
       id="path31"
       d="m 160.387,262.109 37.879,37.891 6.425,-6.426 4.825,23.778 -23.789,-4.813 6.425,-6.426 -37.879,-37.89 6.114,-6.114"
       style="fill:#ffffff;fill-opacity:1;fill-rule:nonzero;stroke:none"
       transform="matrix(0.13333333,0,0,-0.13333333,0,55.413333)"
       clip-path="url(#clipPath32)" />
    <path
       id="path33"
       d="m 164.145,193.75 c 25.273,17.695 31.425,52.539 13.722,77.82 -17.707,25.285 -52.551,31.426 -77.824,13.723 C 74.7695,267.598 68.6172,232.754 86.3242,207.469 104.027,182.188 138.871,176.055 164.145,193.75"
       style="fill:#ffffff;fill-opacity:1;fill-rule:nonzero;stroke:#231f20;stroke-width:3.99994;stroke-linecap:butt;stroke-linejoin:miter;stroke-miterlimit:4;stroke-dasharray:none;stroke-opacity:1"
       transform="matrix(0.13333333,0,0,-0.13333333,0,55.413333)"
       clip-path="url(#clipPath34)" />
    <path
       id="path35"
       d="m 133.637,54.9609 h 53.574 v -9.082 l 20.227,13.3984 -20.227,13.418 v -9.082 h -53.574 v -8.6524"
       style="fill:#ffffff;fill-opacity:1;fill-rule:nonzero;stroke:none"
       transform="matrix(0.13333333,0,0,-0.13333333,0,55.413333)"
       clip-path="url(#clipPath36)" />
    <path
       id="path37"
       d="m 132.398,69.8438 50.34,18.3203 3.117,-8.5352 14.415,19.5117 -23.594,5.6834 3.113,-8.5349 -50.351,-18.3203 2.96,-8.125"
       style="fill:#ffffff;fill-opacity:1;fill-rule:nonzero;stroke:none"
       transform="matrix(0.13333333,0,0,-0.13333333,0,55.413333)"
       clip-path="url(#clipPath38)" />
    <path
       id="path39"
       d="m 132.398,49.0625 50.34,-18.3203 3.117,8.5351 14.415,-19.5117 -23.594,-5.6836 3.113,8.5352 -50.351,18.3203 2.96,8.125"
       style="fill:#ffffff;fill-opacity:1;fill-rule:nonzero;stroke:none"
       transform="matrix(0.13333333,0,0,-0.13333333,0,55.413333)"
       clip-path="url(#clipPath40)" />
    <path
       id="path41"
       d="m 50.5625,54.9609 h 51.6485 v -9.082 l 20.227,13.3984 -20.227,13.418 v -9.082 H 50.5625 v -8.6524"
       style="fill:#ffffff;fill-opacity:1;fill-rule:nonzero;stroke:none"
       transform="matrix(0.13333333,0,0,-0.13333333,0,55.413333)"
       clip-path="url(#clipPath42)" />
  </g>
</svg>
