<?xml version="1.0" encoding="UTF-8" standalone="no"?>
<!-- Created with Inkscape (http://www.inkscape.org/) -->

<svg
   version="1.1"
   id="svg1"
   width="42.186668"
   height="47.253334"
   viewBox="0 0 42.186668 47.253334"
   sodipodi:docname="generic gateway.eps"
   xmlns:inkscape="http://www.inkscape.org/namespaces/inkscape"
   xmlns:sodipodi="http://sodipodi.sourceforge.net/DTD/sodipodi-0.dtd"
   xmlns="http://www.w3.org/2000/svg"
   xmlns:svg="http://www.w3.org/2000/svg">
  <defs
     id="defs1">
    <clipPath
       clipPathUnits="userSpaceOnUse"
       id="clipPath2">
      <path
         d="M 0,4 V 354 H 316 V 4 Z"
         id="path2" />
    </clipPath>
    <clipPath
       clipPathUnits="userSpaceOnUse"
       id="clipPath4">
      <path
         d="M 0,4 V 354 H 316 V 4 Z"
         id="path4" />
    </clipPath>
    <clipPath
       clipPathUnits="userSpaceOnUse"
       id="clipPath6">
      <path
         d="M 0,4 V 354 H 316 V 4 Z"
         id="path6" />
    </clipPath>
    <clipPath
       clipPathUnits="userSpaceOnUse"
       id="clipPath8">
      <path
         d="M 0,4 V 354 H 316 V 4 Z"
         id="path8" />
    </clipPath>
    <clipPath
       clipPathUnits="userSpaceOnUse"
       id="clipPath10">
      <path
         d="M 0,4 V 354 H 316 V 4 Z"
         id="path10" />
    </clipPath>
    <clipPath
       clipPathUnits="userSpaceOnUse"
       id="clipPath12">
      <path
         d="M 0,4 V 354 H 316 V 4 Z"
         id="path12" />
    </clipPath>
    <clipPath
       clipPathUnits="userSpaceOnUse"
       id="clipPath14">
      <path
         d="M 0,4 V 354 H 316 V 4 Z"
         id="path14" />
    </clipPath>
    <clipPath
       clipPathUnits="userSpaceOnUse"
       id="clipPath16">
      <path
         d="M 0,4 V 354 H 316 V 4 Z"
         id="path16" />
    </clipPath>
    <clipPath
       clipPathUnits="userSpaceOnUse"
       id="clipPath18">
      <path
         d="M 0,4 V 354 H 316 V 4 Z"
         id="path18" />
    </clipPath>
    <clipPath
       clipPathUnits="userSpaceOnUse"
       id="clipPath20">
      <path
         d="M 0,4 V 354 H 316 V 4 Z"
         id="path20" />
    </clipPath>
    <clipPath
       clipPathUnits="userSpaceOnUse"
       id="clipPath22">
      <path
         d="M 0,4 V 354 H 316 V 4 Z"
         id="path22" />
    </clipPath>
    <clipPath
       clipPathUnits="userSpaceOnUse"
       id="clipPath24">
      <path
         d="M 0,4 V 354 H 316 V 4 Z"
         id="path24" />
    </clipPath>
    <clipPath
       clipPathUnits="userSpaceOnUse"
       id="clipPath26">
      <path
         d="M 0,4 V 354 H 316 V 4 Z"
         id="path26" />
    </clipPath>
    <clipPath
       clipPathUnits="userSpaceOnUse"
       id="clipPath28">
      <path
         d="M 0,4 V 354 H 316 V 4 Z"
         id="path28" />
    </clipPath>
    <clipPath
       clipPathUnits="userSpaceOnUse"
       id="clipPath30">
      <path
         d="M 0,4 V 354 H 316 V 4 Z"
         id="path30" />
    </clipPath>
    <clipPath
       clipPathUnits="userSpaceOnUse"
       id="clipPath32">
      <path
         d="M 0,4 V 354 H 316 V 4 Z"
         id="path32" />
    </clipPath>
  </defs>
  <sodipodi:namedview
     id="namedview1"
     pagecolor="#505050"
     bordercolor="#eeeeee"
     borderopacity="1"
     inkscape:showpageshadow="0"
     inkscape:pageopacity="0"
     inkscape:pagecheckerboard="0"
     inkscape:deskcolor="#d1d1d1">
    <inkscape:page
       x="0"
       y="0"
       inkscape:label="1"
       id="page1"
       width="42.186668"
       height="47.253334"
       margin="0"
       bleed="0" />
  </sodipodi:namedview>
  <g
     id="g1"
     inkscape:groupmode="layer"
     inkscape:label="1">
    <path
       id="path1"
       d="m 314.664,291.566 c 0,-33.57 -69.98,-60.796 -156.328,-60.796 C 71.9922,230.77 2,257.996 2,291.566 V 62.7891 C 2,29.1953 71.9922,1.99219 158.336,1.99219 c 86.348,0 156.328,27.20311 156.328,60.79691 V 291.566"
       style="fill:#087fbf;fill-opacity:1;fill-rule:nonzero;stroke:none"
       transform="matrix(0.13333333,0,0,-0.13333333,0,47.253333)"
       clip-path="url(#clipPath2)" />
    <path
       id="path3"
       d="m 314.664,291.566 c 0,-33.57 -69.98,-60.796 -156.328,-60.796 C 71.9922,230.77 2,257.996 2,291.566 V 62.7891 C 2,29.1953 71.9922,1.99219 158.336,1.99219 c 86.348,0 156.328,27.20311 156.328,60.79691 z"
       style="fill:none;stroke:#ffffff;stroke-width:4;stroke-linecap:butt;stroke-linejoin:miter;stroke-miterlimit:4;stroke-dasharray:none;stroke-opacity:1"
       transform="matrix(0.13333333,0,0,-0.13333333,0,47.253333)"
       clip-path="url(#clipPath4)" />
    <path
       id="path5"
       d="m 158.336,230.77 c 86.348,0 156.328,27.226 156.328,60.796 0,33.586 -69.98,60.797 -156.328,60.797 C 71.9922,352.363 2,325.152 2,291.566 2,257.996 71.9922,230.77 158.336,230.77"
       style="fill:#087fbf;fill-opacity:1;fill-rule:nonzero;stroke:#ffffff;stroke-width:4;stroke-linecap:butt;stroke-linejoin:miter;stroke-miterlimit:4;stroke-dasharray:none;stroke-opacity:1"
       transform="matrix(0.13333333,0,0,-0.13333333,0,47.253333)"
       clip-path="url(#clipPath6)" />
    <path
       id="path7"
       d="m 122.633,315.34 12.91,-19.36 -48.8047,-11.289 10.664,8.883 -75.4296,12.899 18.9179,14.179 72.7974,-12.316 8.945,7.004"
       style="fill:#ffffff;fill-opacity:1;fill-rule:nonzero;stroke:none"
       transform="matrix(0.13333333,0,0,-0.13333333,0,47.253333)"
       clip-path="url(#clipPath8)" />
    <path
       id="path9"
       d="m 191.324,268.395 -8.828,19.949 44.043,8.801 -7.637,-6.836 73.379,-12.536 -17.597,-14.082 -72.95,13.696 -10.41,-8.992"
       style="fill:#ffffff;fill-opacity:1;fill-rule:nonzero;stroke:none"
       transform="matrix(0.13333333,0,0,-0.13333333,0,47.253333)"
       clip-path="url(#clipPath10)" />
    <path
       id="path11"
       d="m 167.262,325.918 49.297,13.496 0.586,-21.133 -12.325,2.352 -24.082,-19.949 -22.949,3.336 24.824,19.519 -15.351,2.379"
       style="fill:#ffffff;fill-opacity:1;fill-rule:nonzero;stroke:none"
       transform="matrix(0.13333333,0,0,-0.13333333,0,47.253333)"
       clip-path="url(#clipPath12)" />
    <path
       id="path13"
       d="m 146.129,250.18 -46.9767,-8.797 -1.7578,21.726 13.4965,-2.933 25.843,22.058 22.891,-3.867 -27.598,-24.07 14.102,-4.117"
       style="fill:#ffffff;fill-opacity:1;fill-rule:nonzero;stroke:none"
       transform="matrix(0.13333333,0,0,-0.13333333,0,47.253333)"
       clip-path="url(#clipPath14)" />
    <path
       id="path15"
       d="m 160.738,150.594 v 49.289 h 8.379 l -12.344,18.594 -12.343,-18.594 h 8.359 v -49.289 h 7.949"
       style="fill:#ffffff;fill-opacity:1;fill-rule:nonzero;stroke:none"
       transform="matrix(0.13333333,0,0,-0.13333333,0,47.253333)"
       clip-path="url(#clipPath16)" />
    <path
       id="path17"
       d="m 135.602,143.473 -34.848,34.847 5.906,5.907 -21.8827,4.433 4.4336,-21.879 5.9063,5.91 34.8598,-34.843 5.625,5.625"
       style="fill:#ffffff;fill-opacity:1;fill-rule:nonzero;stroke:none"
       transform="matrix(0.13333333,0,0,-0.13333333,0,47.253333)"
       clip-path="url(#clipPath18)" />
    <path
       id="path19"
       d="M 122.867,120.645 H 73.5664 v 8.367 L 54.9609,116.68 73.5664,104.324 v 8.371 h 49.3006 v 7.95"
       style="fill:#ffffff;fill-opacity:1;fill-rule:nonzero;stroke:none"
       transform="matrix(0.13333333,0,0,-0.13333333,0,47.253333)"
       clip-path="url(#clipPath20)" />
    <path
       id="path21"
       d="m 129.977,95.5117 -34.8598,-34.8633 -5.9063,5.9102 -4.4336,-21.8828 21.8827,4.4336 -5.906,5.9101 34.848,34.8633 -5.625,5.6289"
       style="fill:#ffffff;fill-opacity:1;fill-rule:nonzero;stroke:none"
       transform="matrix(0.13333333,0,0,-0.13333333,0,47.253333)"
       clip-path="url(#clipPath22)" />
    <path
       id="path23"
       d="M 152.789,82.7578 V 33.4727 h -8.359 l 12.343,-18.6094 12.344,18.6094 h -8.379 v 49.2851 h -7.949"
       style="fill:#ffffff;fill-opacity:1;fill-rule:nonzero;stroke:none"
       transform="matrix(0.13333333,0,0,-0.13333333,0,47.253333)"
       clip-path="url(#clipPath24)" />
    <path
       id="path25"
       d="m 177.945,89.8828 34.844,-34.8633 -5.918,-5.9101 21.895,-4.4336 -4.434,21.8828 -5.918,-5.9102 -34.844,34.8633 -5.625,-5.6289"
       style="fill:#ffffff;fill-opacity:1;fill-rule:nonzero;stroke:none"
       transform="matrix(0.13333333,0,0,-0.13333333,0,47.253333)"
       clip-path="url(#clipPath26)" />
    <path
       id="path27"
       d="m 190.68,112.695 h 49.297 v -8.371 l 18.593,12.356 -18.593,12.332 v -8.367 H 190.68 v -7.95"
       style="fill:#ffffff;fill-opacity:1;fill-rule:nonzero;stroke:none"
       transform="matrix(0.13333333,0,0,-0.13333333,0,47.253333)"
       clip-path="url(#clipPath28)" />
    <path
       id="path29"
       d="m 183.57,137.848 34.844,34.843 5.918,-5.91 4.434,21.879 -21.895,-4.433 5.918,-5.907 -34.844,-34.847 5.625,-5.625"
       style="fill:#ffffff;fill-opacity:1;fill-rule:nonzero;stroke:none"
       transform="matrix(0.13333333,0,0,-0.13333333,0,47.253333)"
       clip-path="url(#clipPath30)" />
    <path
       id="path31"
       d="m 186.93,75.3555 c 23.086,16.1718 28.691,47.9925 12.519,71.0895 -16.172,23.09 -47.988,28.7 -71.074,12.535 -23.082,-16.171 -28.6875,-48 -12.52,-71.0894 16.172,-23.0898 47.989,-28.6875 71.075,-12.5351"
       style="fill:#ffffff;fill-opacity:1;fill-rule:nonzero;stroke:none"
       transform="matrix(0.13333333,0,0,-0.13333333,0,47.253333)"
       clip-path="url(#clipPath32)" />
  </g>
</svg>
