<?xml version="1.0" encoding="UTF-8" standalone="no"?>
<!-- Created with Inkscape (http://www.inkscape.org/) -->

<svg
   version="1.1"
   id="svg1"
   width="32.453335"
   height="48.626667"
   viewBox="0 0 32.453335 48.626667"
   sodipodi:docname="generic softswitch.eps"
   xmlns:inkscape="http://www.inkscape.org/namespaces/inkscape"
   xmlns:sodipodi="http://sodipodi.sourceforge.net/DTD/sodipodi-0.dtd"
   xmlns="http://www.w3.org/2000/svg"
   xmlns:svg="http://www.w3.org/2000/svg">
  <defs
     id="defs1">
    <clipPath
       clipPathUnits="userSpaceOnUse"
       id="clipPath2">
      <path
         d="M 0,4 V 365 H 240 V 4 Z"
         id="path2" />
    </clipPath>
    <clipPath
       clipPathUnits="userSpaceOnUse"
       id="clipPath4">
      <path
         d="M 0,4 V 365 H 240 V 4 Z"
         id="path4" />
    </clipPath>
    <clipPath
       clipPathUnits="userSpaceOnUse"
       id="clipPath6">
      <path
         d="M 0,4 V 365 H 240 V 4 Z"
         id="path6" />
    </clipPath>
    <clipPath
       clipPathUnits="userSpaceOnUse"
       id="clipPath8">
      <path
         d="M 0,4 V 365 H 240 V 4 Z"
         id="path8" />
    </clipPath>
    <clipPath
       clipPathUnits="userSpaceOnUse"
       id="clipPath10">
      <path
         d="M 0,4 V 365 H 240 V 4 Z"
         id="path10" />
    </clipPath>
    <clipPath
       clipPathUnits="userSpaceOnUse"
       id="clipPath12">
      <path
         d="M 0,4 V 365 H 240 V 4 Z"
         id="path12" />
    </clipPath>
    <clipPath
       clipPathUnits="userSpaceOnUse"
       id="clipPath14">
      <path
         d="M 0,4 V 365 H 240 V 4 Z"
         id="path14" />
    </clipPath>
    <clipPath
       clipPathUnits="userSpaceOnUse"
       id="clipPath16">
      <path
         d="M 0,4 V 365 H 240 V 4 Z"
         id="path16" />
    </clipPath>
  </defs>
  <sodipodi:namedview
     id="namedview1"
     pagecolor="#505050"
     bordercolor="#eeeeee"
     borderopacity="1"
     inkscape:showpageshadow="0"
     inkscape:pageopacity="0"
     inkscape:pagecheckerboard="0"
     inkscape:deskcolor="#d1d1d1">
    <inkscape:page
       x="0"
       y="0"
       inkscape:label="1"
       id="page1"
       width="32.453335"
       height="48.626667"
       margin="0"
       bleed="0" />
  </sodipodi:namedview>
  <g
     id="g1"
     inkscape:groupmode="layer"
     inkscape:label="1">
    <path
       id="path1"
       d="m 6.46875,5.16406 h 185.246 v 317.297 H 6.46875 Z"
       style="fill:#087fbf;fill-opacity:1;fill-rule:nonzero;stroke:none"
       transform="matrix(0.13333333,0,0,-0.13333333,0,48.626667)"
       clip-path="url(#clipPath2)" />
    <path
       id="path3"
       d="M 6.46875,5.16406 V 322.461 H 191.715 V 5.16406 Z"
       style="fill:none;stroke:#ffffff;stroke-width:4;stroke-linecap:butt;stroke-linejoin:miter;stroke-miterlimit:4;stroke-dasharray:none;stroke-opacity:1"
       transform="matrix(0.13333333,0,0,-0.13333333,0,48.626667)"
       clip-path="url(#clipPath4)" />
    <path
       id="path5"
       d="M 62.0352,360.457 6.46875,322.461 H 191.715 l 46.074,37.996 H 62.0352"
       style="fill:#087fbf;fill-opacity:1;fill-rule:nonzero;stroke:none"
       transform="matrix(0.13333333,0,0,-0.13333333,0,48.626667)"
       clip-path="url(#clipPath6)" />
    <path
       id="path7"
       d="M 62.0352,360.457 6.46875,322.461 H 191.715 l 46.074,37.996 z"
       style="fill:none;stroke:#ffffff;stroke-width:4;stroke-linecap:butt;stroke-linejoin:miter;stroke-miterlimit:4;stroke-dasharray:none;stroke-opacity:1"
       transform="matrix(0.13333333,0,0,-0.13333333,0,48.626667)"
       clip-path="url(#clipPath8)" />
    <path
       id="path9"
       d="M 237.789,55.7148 V 360.457 L 191.715,322.461 V 5.16406 l 46.074,50.55074"
       style="fill:#087fbf;fill-opacity:1;fill-rule:nonzero;stroke:none"
       transform="matrix(0.13333333,0,0,-0.13333333,0,48.626667)"
       clip-path="url(#clipPath10)" />
    <path
       id="path11"
       d="M 237.789,55.7148 V 360.457 L 191.715,322.461 V 5.16406 Z"
       style="fill:none;stroke:#ffffff;stroke-width:4;stroke-linecap:butt;stroke-linejoin:miter;stroke-miterlimit:4;stroke-dasharray:none;stroke-opacity:1"
       transform="matrix(0.13333333,0,0,-0.13333333,0,48.626667)"
       clip-path="url(#clipPath12)" />
    <path
       id="path13"
       d="m 78.4336,266.16 83.5744,0.051 v -10.574 l -83.5744,-0.039 -0.0195,-16.504 -37.9414,21.797 37.9414,21.804 0.0195,-16.535"
       style="fill:#ffffff;fill-opacity:1;fill-rule:nonzero;stroke:none"
       transform="matrix(0.13333333,0,0,-0.13333333,0,48.626667)"
       clip-path="url(#clipPath14)" />
    <path
       id="path15"
       d="m 131.93,179.016 -83.5667,-0.063 v 10.578 l 83.5667,0.039 0.039,16.516 37.929,-21.809 -37.929,-21.804 -0.039,16.543"
       style="fill:#ffffff;fill-opacity:1;fill-rule:nonzero;stroke:none"
       transform="matrix(0.13333333,0,0,-0.13333333,0,48.626667)"
       clip-path="url(#clipPath16)" />
  </g>
</svg>
