<?xml version="1.0" encoding="UTF-8" standalone="no"?>
<!-- Created with Inkscape (http://www.inkscape.org/) -->

<svg
   version="1.1"
   id="svg1"
   width="42.826668"
   height="45.253334"
   viewBox="0 0 42.826668 45.253334"
   sodipodi:docname="intelliswitch stack.eps"
   xmlns:inkscape="http://www.inkscape.org/namespaces/inkscape"
   xmlns:sodipodi="http://sodipodi.sourceforge.net/DTD/sodipodi-0.dtd"
   xmlns="http://www.w3.org/2000/svg"
   xmlns:svg="http://www.w3.org/2000/svg">
  <defs
     id="defs1" />
  <sodipodi:namedview
     id="namedview1"
     pagecolor="#505050"
     bordercolor="#eeeeee"
     borderopacity="1"
     inkscape:showpageshadow="0"
     inkscape:pageopacity="0"
     inkscape:pagecheckerboard="0"
     inkscape:deskcolor="#d1d1d1">
    <inkscape:page
       x="0"
       y="0"
       inkscape:label="1"
       id="page1"
       width="42.826668"
       height="45.253334"
       margin="0"
       bleed="0" />
  </sodipodi:namedview>
  <g
     id="g1"
     inkscape:groupmode="layer"
     inkscape:label="1">
    <path
       id="path1"
       d="M 5.82031,176.184 H 240.508"
       style="fill:none;stroke:#ffffff;stroke-width:4.14;stroke-linecap:butt;stroke-linejoin:miter;stroke-miterlimit:4;stroke-dasharray:none;stroke-opacity:1"
       transform="matrix(0.13333333,0,0,-0.13333333,0,45.253333)" />
    <path
       id="path2"
       d="M 240.52,3.76953 V 80.5859 H 5.83203 V 3.76953 H 240.52"
       style="fill:#087bbb;fill-opacity:1;fill-rule:nonzero;stroke:none"
       transform="matrix(0.13333333,0,0,-0.13333333,0,45.253333)" />
    <path
       id="path3"
       d="M 240.52,3.76953 V 80.5859 H 5.83203 V 3.76953 Z"
       style="fill:none;stroke:#ffffff;stroke-width:4;stroke-linecap:butt;stroke-linejoin:miter;stroke-miterlimit:4;stroke-dasharray:none;stroke-opacity:1"
       transform="matrix(0.13333333,0,0,-0.13333333,0,45.253333)" />
    <path
       id="path4"
       d="M 316.074,150.145 240.52,80.6641 H 5.55859 L 89.5117,150.145 H 316.074"
       style="fill:#000000;fill-opacity:1;fill-rule:nonzero;stroke:none"
       transform="matrix(0.13333333,0,0,-0.13333333,0,45.253333)" />
    <path
       id="path5"
       d="M 316.074,150.145 240.52,80.6641 H 5.55859 L 89.5117,150.145 Z"
       style="fill:none;stroke:#ffffff;stroke-width:3.6;stroke-linecap:butt;stroke-linejoin:miter;stroke-miterlimit:4;stroke-dasharray:none;stroke-opacity:1"
       transform="matrix(0.13333333,0,0,-0.13333333,0,45.253333)" />
    <path
       id="path6"
       d="M 316.367,78.1367 V 149.98 L 240.52,80.4375 V 4.71875 l 75.847,73.41795"
       style="fill:#087bbb;fill-opacity:1;fill-rule:nonzero;stroke:none"
       transform="matrix(0.13333333,0,0,-0.13333333,0,45.253333)" />
    <path
       id="path7"
       d="M 316.367,78.1367 V 149.98 L 240.52,80.4375 V 4.71875 Z"
       style="fill:none;stroke:#ffffff;stroke-width:4;stroke-linecap:butt;stroke-linejoin:miter;stroke-miterlimit:4;stroke-dasharray:none;stroke-opacity:1"
       transform="matrix(0.13333333,0,0,-0.13333333,0,45.253333)" />
    <path
       id="path8"
       d="M 240.52,96.2305 V 173.02 H 5.83203 V 96.2305 H 240.52"
       style="fill:#087bbb;fill-opacity:1;fill-rule:nonzero;stroke:none"
       transform="matrix(0.13333333,0,0,-0.13333333,0,45.253333)" />
    <path
       id="path9"
       d="M 240.52,96.2305 V 173.02 H 5.83203 V 96.2305 Z"
       style="fill:none;stroke:#ffffff;stroke-width:4;stroke-linecap:butt;stroke-linejoin:miter;stroke-miterlimit:4;stroke-dasharray:none;stroke-opacity:1"
       transform="matrix(0.13333333,0,0,-0.13333333,0,45.253333)" />
    <path
       id="path10"
       d="M 316.074,245.156 240.52,175.676 H 5.55859 l 83.95311,69.48 H 316.074"
       style="fill:#000000;fill-opacity:1;fill-rule:nonzero;stroke:none"
       transform="matrix(0.13333333,0,0,-0.13333333,0,45.253333)" />
    <path
       id="path11"
       d="M 316.074,245.156 240.52,175.676 H 5.55859 l 83.95311,69.48 z"
       style="fill:none;stroke:#ffffff;stroke-width:3.6;stroke-linecap:butt;stroke-linejoin:miter;stroke-miterlimit:4;stroke-dasharray:none;stroke-opacity:1"
       transform="matrix(0.13333333,0,0,-0.13333333,0,45.253333)" />
    <path
       id="path12"
       d="m 316.367,162.82 v 76.36 L 240.52,169.641 V 93.918 l 75.847,68.902"
       style="fill:#087bbb;fill-opacity:1;fill-rule:nonzero;stroke:none"
       transform="matrix(0.13333333,0,0,-0.13333333,0,45.253333)" />
    <path
       id="path13"
       d="m 316.367,162.82 v 76.36 L 240.52,169.641 V 93.918 Z"
       style="fill:none;stroke:#ffffff;stroke-width:4;stroke-linecap:butt;stroke-linejoin:miter;stroke-miterlimit:4;stroke-dasharray:none;stroke-opacity:1"
       transform="matrix(0.13333333,0,0,-0.13333333,0,45.253333)" />
    <path
       id="path14"
       d="m 240.52,188.594 v 76.82 H 5.83203 v -76.82 H 240.52"
       style="fill:#087bbb;fill-opacity:1;fill-rule:nonzero;stroke:none"
       transform="matrix(0.13333333,0,0,-0.13333333,0,45.253333)" />
    <path
       id="path15"
       d="m 240.52,188.594 v 76.82 H 5.83203 v -76.82 z"
       style="fill:none;stroke:#ffffff;stroke-width:4;stroke-linecap:butt;stroke-linejoin:miter;stroke-miterlimit:4;stroke-dasharray:none;stroke-opacity:1"
       transform="matrix(0.13333333,0,0,-0.13333333,0,45.253333)" />
    <path
       id="path16"
       d="M 316.074,334.961 240.52,265.492 H 5.55859 L 89.5117,334.961 H 316.074"
       style="fill:#087bbb;fill-opacity:1;fill-rule:nonzero;stroke:none"
       transform="matrix(0.13333333,0,0,-0.13333333,0,45.253333)" />
    <path
       id="path17"
       d="M 316.074,334.961 240.52,265.492 H 5.55859 l 83.95311,69.469 z"
       style="fill:none;stroke:#ffffff;stroke-width:4;stroke-linecap:butt;stroke-linejoin:miter;stroke-miterlimit:4;stroke-dasharray:none;stroke-opacity:1"
       transform="matrix(0.13333333,0,0,-0.13333333,0,45.253333)" />
    <path
       id="path18"
       d="m 316.367,259.727 v 75.078 L 240.52,265.266 v -75.723 l 75.847,70.184"
       style="fill:#087bbb;fill-opacity:1;fill-rule:nonzero;stroke:none"
       transform="matrix(0.13333333,0,0,-0.13333333,0,45.253333)" />
    <path
       id="path19"
       d="m 316.367,259.727 v 75.078 L 240.52,265.266 v -75.723 z"
       style="fill:none;stroke:#ffffff;stroke-width:4;stroke-linecap:butt;stroke-linejoin:miter;stroke-miterlimit:4;stroke-dasharray:none;stroke-opacity:1"
       transform="matrix(0.13333333,0,0,-0.13333333,0,45.253333)" />
    <path
       id="path20"
       d="m 198,295.059 9.91,7.445 27.063,-8.731 -54.289,-11.722 9.121,8.949 h -53.856 l 8.203,4.059 H 198"
       style="fill:#000000;fill-opacity:1;fill-rule:nonzero;stroke:none"
       transform="matrix(0.13333333,0,0,-0.13333333,0,45.253333)" />
    <path
       id="path21"
       d="m 171.477,315.207 -4.485,-4.769 h -44.551 l -8.972,-5.34 -26.9534,8.812 54.1794,11.637 -13.781,-10.34 h 44.563"
       style="fill:#000000;fill-opacity:1;fill-rule:nonzero;stroke:none"
       transform="matrix(0.13333333,0,0,-0.13333333,0,45.253333)" />
    <path
       id="path22"
       d="m 133,284.555 -6.328,-4.758 H 82.1094 l -7.1172,-5.359 -26.9492,8.828 54.184,11.636 -13.7778,-10.347 H 133"
       style="fill:#000000;fill-opacity:1;fill-rule:nonzero;stroke:none"
       transform="matrix(0.13333333,0,0,-0.13333333,0,45.253333)" />
    <path
       id="path23"
       d="m 240.684,322.938 9.902,7.445 27.051,-8.738 -54.278,-11.723 10.059,8.254 h -53.855 l 7.265,4.762 h 53.856"
       style="fill:#000000;fill-opacity:1;fill-rule:nonzero;stroke:none"
       transform="matrix(0.13333333,0,0,-0.13333333,0,45.253333)" />
    <path
       id="path24"
       d="m 198,292.477 9.91,7.445 27.063,-8.731 -54.289,-11.722 9.121,8.945 h -53.856 l 8.203,4.063 H 198"
       style="fill:#ffffff;fill-opacity:1;fill-rule:nonzero;stroke:none"
       transform="matrix(0.13333333,0,0,-0.13333333,0,45.253333)" />
    <path
       id="path25"
       d="m 171.477,312.621 -4.485,-4.766 h -44.551 l -8.972,-5.339 -26.9534,8.812 54.1794,11.637 -13.781,-10.344 h 44.563"
       style="fill:#ffffff;fill-opacity:1;fill-rule:nonzero;stroke:none"
       transform="matrix(0.13333333,0,0,-0.13333333,0,45.253333)" />
    <path
       id="path26"
       d="m 133,281.973 -6.328,-4.766 H 82.1094 l -7.1172,-5.352 -26.9492,8.825 54.184,11.64 -13.7778,-10.347 H 133"
       style="fill:#ffffff;fill-opacity:1;fill-rule:nonzero;stroke:none"
       transform="matrix(0.13333333,0,0,-0.13333333,0,45.253333)" />
    <path
       id="path27"
       d="m 240.684,320.355 9.902,7.442 27.051,-8.734 -54.278,-11.723 10.059,8.25 h -53.855 l 7.265,4.765 h 53.856"
       style="fill:#ffffff;fill-opacity:1;fill-rule:nonzero;stroke:none"
       transform="matrix(0.13333333,0,0,-0.13333333,0,45.253333)" />
    <path
       id="path28"
       d="m 131.211,179.852 v 51.961 h 8.82 l -13.008,19.609 -13.007,-19.609 h 8.816 v -51.961 h 8.379"
       style="fill:#ffffff;fill-opacity:1;fill-rule:nonzero;stroke:none"
       transform="matrix(0.13333333,0,0,-0.13333333,0,45.253333)" />
    <path
       id="path29"
       d="m 104.707,162.012 -36.7382,36.738 6.2304,6.23 -23.0664,4.68 4.668,-23.078 6.2305,6.238 36.7382,-36.734 5.9375,5.926"
       style="fill:#ffffff;fill-opacity:1;fill-rule:nonzero;stroke:none"
       transform="matrix(0.13333333,0,0,-0.13333333,0,45.253333)" />
    <path
       id="path30"
       d="M 91.2695,137.969 H 39.3086 v 8.801 l -19.6094,-13.008 19.6094,-13 v 8.82 h 51.9609 v 8.387"
       style="fill:#ffffff;fill-opacity:1;fill-rule:nonzero;stroke:none"
       transform="matrix(0.13333333,0,0,-0.13333333,0,45.253333)" />
    <path
       id="path31"
       d="m 98.7695,111.457 -36.7382,-36.7382 -6.2305,6.2187 -4.668,-23.0547 23.0664,4.6758 -6.2304,6.2305 36.7382,36.7379 -5.9375,5.93"
       style="fill:#ffffff;fill-opacity:1;fill-rule:nonzero;stroke:none"
       transform="matrix(0.13333333,0,0,-0.13333333,0,45.253333)" />
    <path
       id="path32"
       d="m 122.832,98.0195 v -51.957 h -8.816 l 13.007,-19.6172 13.008,19.6172 h -8.82 v 51.957 h -8.379"
       style="fill:#ffffff;fill-opacity:1;fill-rule:nonzero;stroke:none"
       transform="matrix(0.13333333,0,0,-0.13333333,0,45.253333)" />
    <path
       id="path33"
       d="m 149.336,105.527 36.738,-36.7379 -6.23,-6.2305 23.066,-4.6758 -4.668,23.0547 -6.23,-6.2187 -36.739,36.7382 -5.937,-5.93"
       style="fill:#ffffff;fill-opacity:1;fill-rule:nonzero;stroke:none"
       transform="matrix(0.13333333,0,0,-0.13333333,0,45.253333)" />
    <path
       id="path34"
       d="m 162.773,129.582 h 51.965 v -8.82 l 19.61,13 -19.61,13.008 v -8.801 h -51.965 v -8.387"
       style="fill:#ffffff;fill-opacity:1;fill-rule:nonzero;stroke:none"
       transform="matrix(0.13333333,0,0,-0.13333333,0,45.253333)" />
    <path
       id="path35"
       d="m 155.273,156.086 36.739,36.734 6.23,-6.238 4.668,23.078 -23.066,-4.68 6.23,-6.23 -36.738,-36.738 5.937,-5.926"
       style="fill:#ffffff;fill-opacity:1;fill-rule:nonzero;stroke:none"
       transform="matrix(0.13333333,0,0,-0.13333333,0,45.253333)" />
    <path
       id="path36"
       d="m 149.641,102.141 c 17.156,12.007 21.328,35.664 9.304,52.839 -12.011,17.149 -35.664,21.321 -52.832,9.309 C 88.957,152.273 84.7969,128.613 96.8086,111.457 108.82,94.2891 132.473,90.1172 149.641,102.141"
       style="fill:#ffffff;fill-opacity:1;fill-rule:nonzero;stroke:#000000;stroke-width:2.52;stroke-linecap:butt;stroke-linejoin:miter;stroke-miterlimit:4;stroke-dasharray:none;stroke-opacity:1"
       transform="matrix(0.13333333,0,0,-0.13333333,0,45.253333)" />
    <path
       id="path37"
       d="m 304.934,165.762 c -3.762,-48.731 -18.196,-87.3636 -32.239,-86.2815 -14.031,1.0976 -22.363,41.4645 -18.601,90.2075 3.758,48.722 18.191,87.359 32.234,86.269 14.035,-1.078 22.363,-41.465 18.606,-90.195 z"
       style="fill:none;stroke:#ffffff;stroke-width:9;stroke-linecap:butt;stroke-linejoin:miter;stroke-miterlimit:4;stroke-dasharray:none;stroke-opacity:1"
       transform="matrix(0.13333333,0,0,-0.13333333,0,45.253333)" />
  </g>
</svg>
