<?xml version="1.0" encoding="UTF-8" standalone="no"?>
<!-- Created with Inkscape (http://www.inkscape.org/) -->

<svg
   version="1.1"
   id="svg1"
   width="49.546665"
   height="43.573334"
   viewBox="0 0 49.546665 43.573334"
   sodipodi:docname="ip telephony router.eps"
   xmlns:inkscape="http://www.inkscape.org/namespaces/inkscape"
   xmlns:sodipodi="http://sodipodi.sourceforge.net/DTD/sodipodi-0.dtd"
   xmlns="http://www.w3.org/2000/svg"
   xmlns:svg="http://www.w3.org/2000/svg">
  <defs
     id="defs1">
    <clipPath
       clipPathUnits="userSpaceOnUse"
       id="clipPath2">
      <path
         d="M 0,327 H 370 V 0 H 0 Z"
         id="path2" />
    </clipPath>
    <clipPath
       clipPathUnits="userSpaceOnUse"
       id="clipPath4">
      <path
         d="M 0,327 H 370 V 0 H 0 Z"
         id="path4" />
    </clipPath>
    <clipPath
       clipPathUnits="userSpaceOnUse"
       id="clipPath6">
      <path
         d="M 0,327 H 370 V 0 H 0 Z"
         id="path6" />
    </clipPath>
    <clipPath
       clipPathUnits="userSpaceOnUse"
       id="clipPath8">
      <path
         d="M 0,327 H 370 V 0 H 0 Z"
         id="path8" />
    </clipPath>
    <clipPath
       clipPathUnits="userSpaceOnUse"
       id="clipPath10">
      <path
         d="M 0,327 H 370 V 0 H 0 Z"
         id="path10" />
    </clipPath>
    <clipPath
       clipPathUnits="userSpaceOnUse"
       id="clipPath12">
      <path
         d="M 0,327 H 370 V 0 H 0 Z"
         id="path12" />
    </clipPath>
    <clipPath
       clipPathUnits="userSpaceOnUse"
       id="clipPath14">
      <path
         d="M 0,327 H 370 V 0 H 0 Z"
         id="path14" />
    </clipPath>
    <clipPath
       clipPathUnits="userSpaceOnUse"
       id="clipPath16">
      <path
         d="M 0,327 H 370 V 0 H 0 Z"
         id="path16" />
    </clipPath>
    <clipPath
       clipPathUnits="userSpaceOnUse"
       id="clipPath18">
      <path
         d="M 0,327 H 370 V 0 H 0 Z"
         id="path18" />
    </clipPath>
    <clipPath
       clipPathUnits="userSpaceOnUse"
       id="clipPath20">
      <path
         d="M 0,327 H 370 V 0 H 0 Z"
         id="path20" />
    </clipPath>
    <clipPath
       clipPathUnits="userSpaceOnUse"
       id="clipPath22">
      <path
         d="M 0,327 H 370 V 0 H 0 Z"
         id="path22" />
    </clipPath>
    <clipPath
       clipPathUnits="userSpaceOnUse"
       id="clipPath24">
      <path
         d="M 0,327 H 370 V 0 H 0 Z"
         id="path24" />
    </clipPath>
    <clipPath
       clipPathUnits="userSpaceOnUse"
       id="clipPath26">
      <path
         d="M 0,327 H 370 V 0 H 0 Z"
         id="path26" />
    </clipPath>
    <clipPath
       clipPathUnits="userSpaceOnUse"
       id="clipPath28">
      <path
         d="M 0,327 H 370 V 0 H 0 Z"
         id="path28" />
    </clipPath>
    <clipPath
       clipPathUnits="userSpaceOnUse"
       id="clipPath30">
      <path
         d="M 0,327 H 370 V 0 H 0 Z"
         id="path30" />
    </clipPath>
    <clipPath
       clipPathUnits="userSpaceOnUse"
       id="clipPath32">
      <path
         d="M 0,327 H 370 V 0 H 0 Z"
         id="path32" />
    </clipPath>
    <clipPath
       clipPathUnits="userSpaceOnUse"
       id="clipPath34">
      <path
         d="M 0,327 H 370 V 0 H 0 Z"
         id="path34" />
    </clipPath>
    <clipPath
       clipPathUnits="userSpaceOnUse"
       id="clipPath36">
      <path
         d="M 0,327 H 370 V 0 H 0 Z"
         id="path36" />
    </clipPath>
    <clipPath
       clipPathUnits="userSpaceOnUse"
       id="clipPath38">
      <path
         d="M 0,327 H 370 V 0 H 0 Z"
         id="path38" />
    </clipPath>
    <clipPath
       clipPathUnits="userSpaceOnUse"
       id="clipPath40">
      <path
         d="M 0,327 H 370 V 0 H 0 Z"
         id="path40" />
    </clipPath>
    <clipPath
       clipPathUnits="userSpaceOnUse"
       id="clipPath42">
      <path
         d="M 0,327 H 370 V 0 H 0 Z"
         id="path42" />
    </clipPath>
    <clipPath
       clipPathUnits="userSpaceOnUse"
       id="clipPath44">
      <path
         d="M 0,327 H 370 V 0 H 0 Z"
         id="path44" />
    </clipPath>
    <clipPath
       clipPathUnits="userSpaceOnUse"
       id="clipPath46">
      <path
         d="M 0,327 H 370 V 0 H 0 Z"
         id="path46" />
    </clipPath>
    <clipPath
       clipPathUnits="userSpaceOnUse"
       id="clipPath48">
      <path
         d="M 0,327 H 370 V 0 H 0 Z"
         id="path48" />
    </clipPath>
  </defs>
  <sodipodi:namedview
     id="namedview1"
     pagecolor="#505050"
     bordercolor="#eeeeee"
     borderopacity="1"
     inkscape:showpageshadow="0"
     inkscape:pageopacity="0"
     inkscape:pagecheckerboard="0"
     inkscape:deskcolor="#d1d1d1">
    <inkscape:page
       x="0"
       y="0"
       inkscape:label="1"
       id="page1"
       width="49.546665"
       height="43.573334"
       margin="0"
       bleed="0" />
  </sodipodi:namedview>
  <g
     id="g1"
     inkscape:groupmode="layer"
     inkscape:label="1">
    <path
       id="path1"
       d="m 369.855,253.293 c 0,-39.516 -82.343,-71.535 -183.925,-71.535 C 84.3477,181.758 2,213.777 2,253.293 V 73.5156 c 0,-39.5 82.3477,-71.52341 183.93,-71.52341 101.582,0 183.925,32.02341 183.925,71.52341 V 253.293"
       style="fill:#087fbf;fill-opacity:1;fill-rule:nonzero;stroke:none"
       transform="matrix(0.13333333,0,0,-0.13333333,0,43.573333)"
       clip-path="url(#clipPath2)" />
    <path
       id="path3"
       d="m 369.855,253.293 c 0,-39.516 -82.343,-71.535 -183.925,-71.535 C 84.3477,181.758 2,213.777 2,253.293 V 73.5156 c 0,-39.5 82.3477,-71.52341 183.93,-71.52341 101.582,0 183.925,32.02341 183.925,71.52341 z"
       style="fill:none;stroke:#ffffff;stroke-width:4;stroke-linecap:butt;stroke-linejoin:miter;stroke-miterlimit:4;stroke-dasharray:none;stroke-opacity:1"
       transform="matrix(0.13333333,0,0,-0.13333333,0,43.573333)"
       clip-path="url(#clipPath4)" />
    <path
       id="path5"
       d="m 185.93,181.758 c 101.582,0 183.925,32.019 183.925,71.535 0,39.492 -82.343,71.512 -183.925,71.512 C 84.3477,324.805 2,292.785 2,253.293 2,213.777 84.3477,181.758 185.93,181.758"
       style="fill:#087fbf;fill-opacity:1;fill-rule:nonzero;stroke:#ffffff;stroke-width:4;stroke-linecap:butt;stroke-linejoin:miter;stroke-miterlimit:4;stroke-dasharray:none;stroke-opacity:1"
       transform="matrix(0.13333333,0,0,-0.13333333,0,43.573333)"
       clip-path="url(#clipPath6)" />
    <path
       id="path7"
       d="m 143.914,281.25 15.195,-22.781 -57.421,-13.274 12.542,10.45 -88.7534,15.168 22.2656,16.687 85.6488,-14.5 10.523,8.25"
       style="fill:#ffffff;fill-opacity:1;fill-rule:nonzero;stroke:none"
       transform="matrix(0.13333333,0,0,-0.13333333,0,43.573333)"
       clip-path="url(#clipPath8)" />
    <path
       id="path9"
       d="m 224.719,226.008 -10.356,23.484 51.797,10.352 -8.98,-8.047 86.328,-14.746 -20.727,-16.571 -85.801,16.114 -12.261,-10.586"
       style="fill:#ffffff;fill-opacity:1;fill-rule:nonzero;stroke:none"
       transform="matrix(0.13333333,0,0,-0.13333333,0,43.573333)"
       clip-path="url(#clipPath10)" />
    <path
       id="path11"
       d="m 196.395,293.684 58.031,15.886 0.679,-24.863 -14.507,2.766 -28.301,-23.477 -27.031,3.926 29.238,22.976 -18.109,2.786"
       style="fill:#ffffff;fill-opacity:1;fill-rule:nonzero;stroke:none"
       transform="matrix(0.13333333,0,0,-0.13333333,0,43.573333)"
       clip-path="url(#clipPath12)" />
    <path
       id="path13"
       d="m 171.531,204.59 -55.23,-10.352 -2.071,25.559 15.875,-3.457 30.415,25.965 26.914,-4.551 -32.461,-28.32 16.558,-4.844"
       style="fill:#ffffff;fill-opacity:1;fill-rule:nonzero;stroke:none"
       transform="matrix(0.13333333,0,0,-0.13333333,0,43.573333)"
       clip-path="url(#clipPath14)" />
    <path
       id="path15"
       d="m 278.684,54.9609 v 45.9571 l -27.7,-22.0782 27.7,-23.8789"
       style="fill:#ffffff;fill-opacity:1;fill-rule:nonzero;stroke:none"
       transform="matrix(0.13333333,0,0,-0.13333333,0,43.573333)"
       clip-path="url(#clipPath16)" />
    <path
       id="path17"
       d="m 278.684,54.9609 v 45.9571 l -27.7,-22.0782 z"
       style="fill:none;stroke:#ffffff;stroke-width:0.76;stroke-linecap:butt;stroke-linejoin:miter;stroke-miterlimit:4;stroke-dasharray:none;stroke-opacity:1"
       transform="matrix(0.13333333,0,0,-0.13333333,0,43.573333)"
       clip-path="url(#clipPath18)" />
    <path
       id="path19"
       d="M 82.9961,54.9609 V 100.918 L 110.676,78.8398 82.9961,54.9609"
       style="fill:#ffffff;fill-opacity:1;fill-rule:nonzero;stroke:#ffffff;stroke-width:0.76;stroke-linecap:butt;stroke-linejoin:miter;stroke-miterlimit:4;stroke-dasharray:none;stroke-opacity:1"
       transform="matrix(0.13333333,0,0,-0.13333333,0,43.573333)"
       clip-path="url(#clipPath20)" />
    <path
       id="path21"
       d="M 101.57,146.191 V 100.234 L 73.8789,122.297 101.57,146.191"
       style="fill:#ffffff;fill-opacity:1;fill-rule:nonzero;stroke:none"
       transform="matrix(0.13333333,0,0,-0.13333333,0,43.573333)"
       clip-path="url(#clipPath22)" />
    <path
       id="path23"
       d="M 101.57,146.191 V 100.234 L 73.8789,122.297 Z"
       style="fill:none;stroke:#ffffff;stroke-width:0.76;stroke-linecap:butt;stroke-linejoin:miter;stroke-miterlimit:4;stroke-dasharray:none;stroke-opacity:1"
       transform="matrix(0.13333333,0,0,-0.13333333,0,43.573333)"
       clip-path="url(#clipPath24)" />
    <path
       id="path25"
       d="m 257.996,146.191 v -45.957 l 27.695,22.063 -27.695,23.894"
       style="fill:#ffffff;fill-opacity:1;fill-rule:nonzero;stroke:none"
       transform="matrix(0.13333333,0,0,-0.13333333,0,43.573333)"
       clip-path="url(#clipPath26)" />
    <path
       id="path27"
       d="m 257.996,146.191 v -45.957 l 27.695,22.063 z"
       style="fill:none;stroke:#ffffff;stroke-width:0.76;stroke-linecap:butt;stroke-linejoin:miter;stroke-miterlimit:4;stroke-dasharray:none;stroke-opacity:1"
       transform="matrix(0.13333333,0,0,-0.13333333,0,43.573333)"
       clip-path="url(#clipPath28)" />
    <path
       id="path29"
       d="M 264.016,123.801 H 247.297"
       style="fill:none;stroke:#ffffff;stroke-width:7.6;stroke-linecap:butt;stroke-linejoin:miter;stroke-miterlimit:4;stroke-dasharray:none;stroke-opacity:1"
       transform="matrix(0.13333333,0,0,-0.13333333,0,43.573333)"
       clip-path="url(#clipPath30)" />
    <path
       id="path31"
       d="M 269.855,79.2109 H 290.77"
       style="fill:none;stroke:#ffffff;stroke-width:7.6;stroke-linecap:butt;stroke-linejoin:miter;stroke-miterlimit:4;stroke-dasharray:none;stroke-opacity:1"
       transform="matrix(0.13333333,0,0,-0.13333333,0,43.573333)"
       clip-path="url(#clipPath32)" />
    <path
       id="path33"
       d="M 90.4023,79.2109 H 68.1133"
       style="fill:none;stroke:#ffffff;stroke-width:7.6;stroke-linecap:butt;stroke-linejoin:miter;stroke-miterlimit:4;stroke-dasharray:none;stroke-opacity:1"
       transform="matrix(0.13333333,0,0,-0.13333333,0,43.573333)"
       clip-path="url(#clipPath34)" />
    <path
       id="path35"
       d="M 91.3555,122.41 H 112.273"
       style="fill:none;stroke:#ffffff;stroke-width:7.6;stroke-linecap:butt;stroke-linejoin:miter;stroke-miterlimit:4;stroke-dasharray:none;stroke-opacity:1"
       transform="matrix(0.13333333,0,0,-0.13333333,0,43.573333)"
       clip-path="url(#clipPath36)" />
    <path
       id="path37"
       d="M 228.977,121.445 228.84,37.9609 h -96.738 l -0.122,83.4841 h 96.997"
       style="fill:#ffffff;fill-opacity:1;fill-rule:nonzero;stroke:none"
       transform="matrix(0.13333333,0,0,-0.13333333,0,43.573333)"
       clip-path="url(#clipPath38)" />
    <path
       id="path39"
       d="M 228.977,121.445 228.84,37.9609 h -96.738 l -0.122,83.4841 z"
       style="fill:none;stroke:#087fbf;stroke-width:3.5;stroke-linecap:butt;stroke-linejoin:miter;stroke-miterlimit:4;stroke-dasharray:none;stroke-opacity:1"
       transform="matrix(0.13333333,0,0,-0.13333333,0,43.573333)"
       clip-path="url(#clipPath40)" />
    <path
       id="path41"
       d="m 218.621,97.5195 h -76.016 v 15.2145 h 76.016 z"
       style="fill:none;stroke:#087fbf;stroke-width:3.5;stroke-linecap:butt;stroke-linejoin:miter;stroke-miterlimit:4;stroke-dasharray:none;stroke-opacity:1"
       transform="matrix(0.13333333,0,0,-0.13333333,0,43.573333)"
       clip-path="url(#clipPath42)" />
    <path
       id="path43"
       d="m 218.621,45.9688 h -76.016 v 37.996 h 76.016 z"
       style="fill:none;stroke:#087fbf;stroke-width:3.5;stroke-linecap:butt;stroke-linejoin:miter;stroke-miterlimit:4;stroke-dasharray:none;stroke-opacity:1"
       transform="matrix(0.13333333,0,0,-0.13333333,0,43.573333)"
       clip-path="url(#clipPath44)" />
    <path
       id="path45"
       d="m 200.344,151.121 c 0,0 4.785,0.539 5.855,-4.266 l 1.059,-15.429 31.93,-5.313 3.183,6.914 -7.984,19.153 c -40.957,10.117 -55.317,6.914 -55.317,6.914 h 1.582 c 0,0 -14.351,3.203 -55.332,-6.914 l -7.965,-19.153 3.18,-6.914 31.938,5.313 1.05,15.429 c 1.055,4.805 5.864,4.266 5.864,4.266 h 40.957"
       style="fill:#ffffff;fill-opacity:1;fill-rule:nonzero;stroke:none"
       transform="matrix(0.13333333,0,0,-0.13333333,0,43.573333)"
       clip-path="url(#clipPath46)" />
    <path
       id="path47"
       d="M 218.621,90.8789 H 142.605"
       style="fill:none;stroke:#087fbf;stroke-width:3.5;stroke-linecap:butt;stroke-linejoin:miter;stroke-miterlimit:4;stroke-dasharray:none;stroke-opacity:1"
       transform="matrix(0.13333333,0,0,-0.13333333,0,43.573333)"
       clip-path="url(#clipPath48)" />
  </g>
</svg>
