<?xml version="1.0" encoding="UTF-8" standalone="no"?>
<!-- Created with Inkscape (http://www.inkscape.org/) -->

<svg
   version="1.1"
   id="svg1"
   width="41.586666"
   height="41.306667"
   viewBox="0 0 41.586666 41.306667"
   sodipodi:docname="layer 3 switch.eps"
   xmlns:inkscape="http://www.inkscape.org/namespaces/inkscape"
   xmlns:sodipodi="http://sodipodi.sourceforge.net/DTD/sodipodi-0.dtd"
   xmlns="http://www.w3.org/2000/svg"
   xmlns:svg="http://www.w3.org/2000/svg">
  <defs
     id="defs1">
    <clipPath
       clipPathUnits="userSpaceOnUse"
       id="clipPath2">
      <path
         d="M 0,0 V 310 H 310 V 0 Z"
         id="path2" />
    </clipPath>
    <clipPath
       clipPathUnits="userSpaceOnUse"
       id="clipPath4">
      <path
         d="M 0,0 V 310 H 310 V 0 Z"
         id="path4" />
    </clipPath>
    <clipPath
       clipPathUnits="userSpaceOnUse"
       id="clipPath6">
      <path
         d="M 0,0 V 310 H 310 V 0 Z"
         id="path6" />
    </clipPath>
    <clipPath
       clipPathUnits="userSpaceOnUse"
       id="clipPath8">
      <path
         d="M 0,0 V 310 H 310 V 0 Z"
         id="path8" />
    </clipPath>
    <clipPath
       clipPathUnits="userSpaceOnUse"
       id="clipPath10">
      <path
         d="M 0,0 V 310 H 310 V 0 Z"
         id="path10" />
    </clipPath>
    <clipPath
       clipPathUnits="userSpaceOnUse"
       id="clipPath12">
      <path
         d="M 0,0 V 310 H 310 V 0 Z"
         id="path12" />
    </clipPath>
    <clipPath
       clipPathUnits="userSpaceOnUse"
       id="clipPath14">
      <path
         d="M 0,0 V 310 H 310 V 0 Z"
         id="path14" />
    </clipPath>
    <clipPath
       clipPathUnits="userSpaceOnUse"
       id="clipPath16">
      <path
         d="M 0,0 V 310 H 310 V 0 Z"
         id="path16" />
    </clipPath>
    <clipPath
       clipPathUnits="userSpaceOnUse"
       id="clipPath18">
      <path
         d="M 0,0 V 310 H 310 V 0 Z"
         id="path18" />
    </clipPath>
    <clipPath
       clipPathUnits="userSpaceOnUse"
       id="clipPath20">
      <path
         d="M 0,0 V 310 H 310 V 0 Z"
         id="path20" />
    </clipPath>
    <clipPath
       clipPathUnits="userSpaceOnUse"
       id="clipPath22">
      <path
         d="M 0,0 V 310 H 310 V 0 Z"
         id="path22" />
    </clipPath>
    <clipPath
       clipPathUnits="userSpaceOnUse"
       id="clipPath24">
      <path
         d="M 0,0 V 310 H 310 V 0 Z"
         id="path24" />
    </clipPath>
    <clipPath
       clipPathUnits="userSpaceOnUse"
       id="clipPath26">
      <path
         d="M 0,0 V 310 H 310 V 0 Z"
         id="path26" />
    </clipPath>
    <clipPath
       clipPathUnits="userSpaceOnUse"
       id="clipPath28">
      <path
         d="M 0,0 V 310 H 310 V 0 Z"
         id="path28" />
    </clipPath>
    <clipPath
       clipPathUnits="userSpaceOnUse"
       id="clipPath30">
      <path
         d="M 0,0 V 310 H 310 V 0 Z"
         id="path30" />
    </clipPath>
    <clipPath
       clipPathUnits="userSpaceOnUse"
       id="clipPath32">
      <path
         d="M 0,0 V 310 H 310 V 0 Z"
         id="path32" />
    </clipPath>
    <clipPath
       clipPathUnits="userSpaceOnUse"
       id="clipPath34">
      <path
         d="M 0,0 V 310 H 310 V 0 Z"
         id="path34" />
    </clipPath>
    <clipPath
       clipPathUnits="userSpaceOnUse"
       id="clipPath36">
      <path
         d="M 0,0 V 310 H 310 V 0 Z"
         id="path36" />
    </clipPath>
    <clipPath
       clipPathUnits="userSpaceOnUse"
       id="clipPath38">
      <path
         d="M 0,0 V 310 H 310 V 0 Z"
         id="path38" />
    </clipPath>
    <clipPath
       clipPathUnits="userSpaceOnUse"
       id="clipPath40">
      <path
         d="M 0,0 V 310 H 310 V 0 Z"
         id="path40" />
    </clipPath>
  </defs>
  <sodipodi:namedview
     id="namedview1"
     pagecolor="#505050"
     bordercolor="#eeeeee"
     borderopacity="1"
     inkscape:showpageshadow="0"
     inkscape:pageopacity="0"
     inkscape:pagecheckerboard="0"
     inkscape:deskcolor="#d1d1d1">
    <inkscape:page
       x="0"
       y="0"
       inkscape:label="1"
       id="page1"
       width="41.586666"
       height="41.306667"
       margin="0"
       bleed="0" />
  </sodipodi:namedview>
  <g
     id="g1"
     inkscape:groupmode="layer"
     inkscape:label="1">
    <path
       id="path1"
       d="m 6.19922,4.79688 h 267.07 v 266.824 h -267.07 z"
       style="fill:#087fbf;fill-opacity:1;fill-rule:nonzero;stroke:none"
       transform="matrix(0.13333333,0,0,-0.13333333,0,41.306667)"
       clip-path="url(#clipPath2)" />
    <path
       id="path3"
       d="M 6.19922,4.79688 V 271.621 H 273.27 V 4.79688 Z"
       style="fill:none;stroke:#ffffff;stroke-width:4;stroke-linecap:butt;stroke-linejoin:miter;stroke-miterlimit:4;stroke-dasharray:none;stroke-opacity:1"
       transform="matrix(0.13333333,0,0,-0.13333333,0,41.306667)"
       clip-path="url(#clipPath4)" />
    <path
       id="path5"
       d="M 307.004,38.2031 V 305.027 L 273.27,271.621 V 4.79688 l 33.734,33.40622"
       style="fill:#087fbf;fill-opacity:1;fill-rule:nonzero;stroke:none"
       transform="matrix(0.13333333,0,0,-0.13333333,0,41.306667)"
       clip-path="url(#clipPath6)" />
    <path
       id="path7"
       d="M 307.004,38.2031 V 305.027 L 273.27,271.621 V 4.79688 Z"
       style="fill:none;stroke:#ffffff;stroke-width:4;stroke-linecap:butt;stroke-linejoin:miter;stroke-miterlimit:4;stroke-dasharray:none;stroke-opacity:1"
       transform="matrix(0.13333333,0,0,-0.13333333,0,41.306667)"
       clip-path="url(#clipPath8)" />
    <path
       id="path9"
       d="M 52.5977,306.941 6.19922,273.543 H 273.27 l 33.734,33.398 H 52.5977"
       style="fill:#087fbf;fill-opacity:1;fill-rule:nonzero;stroke:none"
       transform="matrix(0.13333333,0,0,-0.13333333,0,41.306667)"
       clip-path="url(#clipPath10)" />
    <path
       id="path11"
       d="M 52.5977,306.941 6.19922,273.543 H 273.27 l 33.734,33.398 z"
       style="fill:none;stroke:#ffffff;stroke-width:4;stroke-linecap:butt;stroke-linejoin:miter;stroke-miterlimit:4;stroke-dasharray:none;stroke-opacity:1"
       transform="matrix(0.13333333,0,0,-0.13333333,0,41.306667)"
       clip-path="url(#clipPath12)" />
    <path
       id="path13"
       d="M 273.27,271.621 H 6.19922"
       style="fill:#087fbf;fill-opacity:1;fill-rule:nonzero;stroke:#ffffff;stroke-width:4;stroke-linecap:butt;stroke-linejoin:miter;stroke-miterlimit:4;stroke-dasharray:none;stroke-opacity:1"
       transform="matrix(0.13333333,0,0,-0.13333333,0,41.306667)"
       clip-path="url(#clipPath14)" />
    <path
       id="path15"
       d="m 273.27,271.621 33.734,33.406"
       style="fill:#087fbf;fill-opacity:1;fill-rule:nonzero;stroke:#ffffff;stroke-width:4;stroke-linecap:butt;stroke-linejoin:miter;stroke-miterlimit:4;stroke-dasharray:none;stroke-opacity:1"
       transform="matrix(0.13333333,0,0,-0.13333333,0,41.306667)"
       clip-path="url(#clipPath16)" />
    <path
       id="path17"
       d="M 273.27,271.621 V 4.79688"
       style="fill:#087fbf;fill-opacity:1;fill-rule:nonzero;stroke:#ffffff;stroke-width:4;stroke-linecap:butt;stroke-linejoin:miter;stroke-miterlimit:4;stroke-dasharray:none;stroke-opacity:1"
       transform="matrix(0.13333333,0,0,-0.13333333,0,41.306667)"
       clip-path="url(#clipPath18)" />
    <path
       id="path19"
       d="M 273.27,271.621 H 6.19922"
       style="fill:#087fbf;fill-opacity:1;fill-rule:nonzero;stroke:#ffffff;stroke-width:4;stroke-linecap:butt;stroke-linejoin:miter;stroke-miterlimit:4;stroke-dasharray:none;stroke-opacity:1"
       transform="matrix(0.13333333,0,0,-0.13333333,0,41.306667)"
       clip-path="url(#clipPath20)" />
    <path
       id="path21"
       d="m 273.27,271.621 33.734,33.406"
       style="fill:#087fbf;fill-opacity:1;fill-rule:nonzero;stroke:#ffffff;stroke-width:4;stroke-linecap:butt;stroke-linejoin:miter;stroke-miterlimit:4;stroke-dasharray:none;stroke-opacity:1"
       transform="matrix(0.13333333,0,0,-0.13333333,0,41.306667)"
       clip-path="url(#clipPath22)" />
    <path
       id="path23"
       d="m 145.52,177.012 v 57.722 h 9.793 l -14.454,21.797 -14.453,-21.797 h 9.793 v -57.722 h 9.321"
       style="fill:#ffffff;fill-opacity:1;fill-rule:nonzero;stroke:none"
       transform="matrix(0.13333333,0,0,-0.13333333,0,41.306667)"
       clip-path="url(#clipPath24)" />
    <path
       id="path25"
       d="m 116.063,168.672 -40.8208,40.82 6.9258,6.922 -25.625,5.195 5.1836,-25.632 6.9257,6.921 40.8207,-40.82 6.59,6.594"
       style="fill:#ffffff;fill-opacity:1;fill-rule:nonzero;stroke:none"
       transform="matrix(0.13333333,0,0,-0.13333333,0,41.306667)"
       clip-path="url(#clipPath26)" />
    <path
       id="path27"
       d="M 101.133,141.941 H 43.3984 v 9.797 l -21.789,-14.453 21.789,-14.441 v 9.785 h 57.7346 v 9.312"
       style="fill:#ffffff;fill-opacity:1;fill-rule:nonzero;stroke:none"
       transform="matrix(0.13333333,0,0,-0.13333333,0,41.306667)"
       clip-path="url(#clipPath28)" />
    <path
       id="path29"
       d="m 109.473,112.488 -40.8207,-40.8161 -6.9257,6.9219 -5.1836,-25.625 25.625,5.1835 -6.9258,6.9375 40.8208,40.8162 -6.59,6.582"
       style="fill:#ffffff;fill-opacity:1;fill-rule:nonzero;stroke:none"
       transform="matrix(0.13333333,0,0,-0.13333333,0,41.306667)"
       clip-path="url(#clipPath30)" />
    <path
       id="path31"
       d="M 136.199,97.5664 V 39.8359 h -9.793 l 14.453,-21.8007 14.454,21.8007 h -9.793 v 57.7305 h -9.321"
       style="fill:#ffffff;fill-opacity:1;fill-rule:nonzero;stroke:none"
       transform="matrix(0.13333333,0,0,-0.13333333,0,41.306667)"
       clip-path="url(#clipPath32)" />
    <path
       id="path33"
       d="m 165.652,105.906 40.825,-40.8162 -6.926,-6.9375 25.625,-5.1835 -5.188,25.625 -6.922,-6.9219 -40.82,40.8161 -6.594,-6.582"
       style="fill:#ffffff;fill-opacity:1;fill-rule:nonzero;stroke:none"
       transform="matrix(0.13333333,0,0,-0.13333333,0,41.306667)"
       clip-path="url(#clipPath34)" />
    <path
       id="path35"
       d="m 180.586,132.629 h 57.734 v -9.785 l 21.785,14.441 -21.785,14.453 v -9.797 h -57.734 v -9.312"
       style="fill:#ffffff;fill-opacity:1;fill-rule:nonzero;stroke:none"
       transform="matrix(0.13333333,0,0,-0.13333333,0,41.306667)"
       clip-path="url(#clipPath36)" />
    <path
       id="path37"
       d="m 172.246,162.078 40.82,40.82 6.922,-6.921 5.188,25.632 -25.625,-5.195 6.926,-6.922 -40.825,-40.82 6.594,-6.594"
       style="fill:#ffffff;fill-opacity:1;fill-rule:nonzero;stroke:none"
       transform="matrix(0.13333333,0,0,-0.13333333,0,41.306667)"
       clip-path="url(#clipPath38)" />
    <path
       id="path39"
       d="m 176.289,88.418 c 27.246,19.07 33.867,56.621 14.785,83.855 -19.062,27.247 -56.621,33.868 -83.855,14.786 C 79.9805,167.988 73.3594,130.438 92.4297,103.203 111.504,75.9688 149.055,69.3438 176.289,88.418"
       style="fill:#ffffff;fill-opacity:1;fill-rule:nonzero;stroke:#087fbf;stroke-width:4;stroke-linecap:butt;stroke-linejoin:miter;stroke-miterlimit:4;stroke-dasharray:none;stroke-opacity:1"
       transform="matrix(0.13333333,0,0,-0.13333333,0,41.306667)"
       clip-path="url(#clipPath40)" />
  </g>
</svg>
