<?xml version="1.0" encoding="UTF-8" standalone="no"?>
<!-- Created with Inkscape (http://www.inkscape.org/) -->

<svg
   version="1.1"
   id="svg1"
   width="67.746666"
   height="37.720001"
   viewBox="0 0 67.746666 37.720001"
   sodipodi:docname="3200 mobile access router.eps"
   xmlns:inkscape="http://www.inkscape.org/namespaces/inkscape"
   xmlns:sodipodi="http://sodipodi.sourceforge.net/DTD/sodipodi-0.dtd"
   xmlns="http://www.w3.org/2000/svg"
   xmlns:svg="http://www.w3.org/2000/svg">
  <defs
     id="defs1">
    <clipPath
       clipPathUnits="userSpaceOnUse"
       id="clipPath2">
      <path
         d="M 0,2 V 283 H 508 V 2 Z"
         id="path2" />
    </clipPath>
    <clipPath
       clipPathUnits="userSpaceOnUse"
       id="clipPath4">
      <path
         d="M 0,2 V 283 H 508 V 2 Z"
         id="path4" />
    </clipPath>
    <clipPath
       clipPathUnits="userSpaceOnUse"
       id="clipPath6">
      <path
         d="M 0,2 V 283 H 508 V 2 Z"
         id="path6" />
    </clipPath>
    <clipPath
       clipPathUnits="userSpaceOnUse"
       id="clipPath8">
      <path
         d="M 0,2 V 283 H 508 V 2 Z"
         id="path8" />
    </clipPath>
    <clipPath
       clipPathUnits="userSpaceOnUse"
       id="clipPath10">
      <path
         d="M 0,2 V 283 H 508 V 2 Z"
         id="path10" />
    </clipPath>
    <clipPath
       clipPathUnits="userSpaceOnUse"
       id="clipPath12">
      <path
         d="M 0,2 V 283 H 508 V 2 Z"
         id="path12" />
    </clipPath>
    <clipPath
       clipPathUnits="userSpaceOnUse"
       id="clipPath14">
      <path
         d="M 0,2 V 283 H 508 V 2 Z"
         id="path14" />
    </clipPath>
    <clipPath
       clipPathUnits="userSpaceOnUse"
       id="clipPath16">
      <path
         d="M 0,2 V 283 H 508 V 2 Z"
         id="path16" />
    </clipPath>
    <clipPath
       clipPathUnits="userSpaceOnUse"
       id="clipPath18">
      <path
         d="M 0,2 V 283 H 508 V 2 Z"
         id="path18" />
    </clipPath>
    <clipPath
       clipPathUnits="userSpaceOnUse"
       id="clipPath20">
      <path
         d="M 0,2 V 283 H 508 V 2 Z"
         id="path20" />
    </clipPath>
    <clipPath
       clipPathUnits="userSpaceOnUse"
       id="clipPath22">
      <path
         d="M 0,2 V 283 H 508 V 2 Z"
         id="path22" />
    </clipPath>
    <clipPath
       clipPathUnits="userSpaceOnUse"
       id="clipPath24">
      <path
         d="M 0,2 V 283 H 508 V 2 Z"
         id="path24" />
    </clipPath>
    <clipPath
       clipPathUnits="userSpaceOnUse"
       id="clipPath26">
      <path
         d="M 0,2 V 283 H 508 V 2 Z"
         id="path26" />
    </clipPath>
    <clipPath
       clipPathUnits="userSpaceOnUse"
       id="clipPath28">
      <path
         d="M 0,2 V 283 H 508 V 2 Z"
         id="path28" />
    </clipPath>
    <clipPath
       clipPathUnits="userSpaceOnUse"
       id="clipPath30">
      <path
         d="M 0,2 V 283 H 508 V 2 Z"
         id="path30" />
    </clipPath>
    <clipPath
       clipPathUnits="userSpaceOnUse"
       id="clipPath32">
      <path
         d="M 0,2 V 283 H 508 V 2 Z"
         id="path32" />
    </clipPath>
    <clipPath
       clipPathUnits="userSpaceOnUse"
       id="clipPath34">
      <path
         d="M 0,2 V 283 H 508 V 2 Z"
         id="path34" />
    </clipPath>
    <clipPath
       clipPathUnits="userSpaceOnUse"
       id="clipPath36">
      <path
         d="M 0,2 V 283 H 508 V 2 Z"
         id="path36" />
    </clipPath>
    <clipPath
       clipPathUnits="userSpaceOnUse"
       id="clipPath38">
      <path
         d="M 0,2 V 283 H 508 V 2 Z"
         id="path38" />
    </clipPath>
  </defs>
  <sodipodi:namedview
     id="namedview1"
     pagecolor="#505050"
     bordercolor="#eeeeee"
     borderopacity="1"
     inkscape:showpageshadow="0"
     inkscape:pageopacity="0"
     inkscape:pagecheckerboard="0"
     inkscape:deskcolor="#d1d1d1">
    <inkscape:page
       x="0"
       y="0"
       inkscape:label="1"
       id="page1"
       width="67.746666"
       height="37.720001"
       margin="0"
       bleed="0" />
  </sodipodi:namedview>
  <g
     id="g1"
     inkscape:groupmode="layer"
     inkscape:label="1">
    <path
       id="path1"
       d="M 424.273,4 H 147.516 l 77.363,46.668 279.238,0.3789 z"
       style="fill:none;stroke:#026c9b;stroke-width:8;stroke-linecap:round;stroke-linejoin:round;stroke-miterlimit:4;stroke-dasharray:none;stroke-opacity:1"
       transform="matrix(0.13333333,0,0,-0.13333333,0,37.72)"
       clip-path="url(#clipPath2)" />
    <path
       id="path3"
       d="M 224.879,50.668 147.516,4 l -0.039,229.297 77.421,44.879 z"
       style="fill:none;stroke:#026c9b;stroke-width:8;stroke-linecap:round;stroke-linejoin:round;stroke-miterlimit:4;stroke-dasharray:none;stroke-opacity:1"
       transform="matrix(0.13333333,0,0,-0.13333333,0,37.72)"
       clip-path="url(#clipPath4)" />
    <path
       id="path5"
       d="m 456.637,167.652 c 0,-28.636 -59.688,-51.855 -133.301,-51.855 -73.633,0 -133.34,23.219 -133.34,51.855 V 91.7031 c 0,-28.6367 59.707,-51.8437 133.34,-51.8437 73.613,0 133.301,23.207 133.301,51.8437 v 75.9489"
       style="fill:#000000;fill-opacity:1;fill-rule:nonzero;stroke:none"
       transform="matrix(0.13333333,0,0,-0.13333333,0,37.72)"
       clip-path="url(#clipPath6)" />
    <path
       id="path7"
       d="m 456.637,167.652 c 0,-28.636 -59.688,-51.855 -133.301,-51.855 -73.633,0 -133.34,23.219 -133.34,51.855 V 91.7031 c 0,-28.6367 59.707,-51.8437 133.34,-51.8437 73.613,0 133.301,23.207 133.301,51.8437 z"
       style="fill:none;stroke:#ffffff;stroke-width:4.2;stroke-linecap:butt;stroke-linejoin:miter;stroke-miterlimit:4;stroke-dasharray:none;stroke-opacity:1"
       transform="matrix(0.13333333,0,0,-0.13333333,0,37.72)"
       clip-path="url(#clipPath8)" />
    <path
       id="path9"
       d="m 456.637,167.652 c 0,-28.636 -59.688,-51.855 -133.301,-51.855 -73.633,0 -133.34,23.219 -133.34,51.855 V 91.7031 c 0,-28.6367 59.707,-51.8437 133.34,-51.8437 73.613,0 133.301,23.207 133.301,51.8437 v 75.9489"
       style="fill:#026c9b;fill-opacity:1;fill-rule:nonzero;stroke:none"
       transform="matrix(0.13333333,0,0,-0.13333333,0,37.72)"
       clip-path="url(#clipPath10)" />
    <path
       id="path11"
       d="m 456.637,167.652 c 0,-28.636 -59.688,-51.855 -133.301,-51.855 -73.633,0 -133.34,23.219 -133.34,51.855 V 91.7031 c 0,-28.6367 59.707,-51.8437 133.34,-51.8437 73.613,0 133.301,23.207 133.301,51.8437 z"
       style="fill:none;stroke:#ffffff;stroke-width:4;stroke-linecap:butt;stroke-linejoin:miter;stroke-miterlimit:4;stroke-dasharray:none;stroke-opacity:1"
       transform="matrix(0.13333333,0,0,-0.13333333,0,37.72)"
       clip-path="url(#clipPath12)" />
    <path
       id="path13"
       d="m 323.336,115.797 c 73.613,0 133.301,23.219 133.301,51.855 0,28.633 -59.688,51.84 -133.301,51.84 -73.633,0 -133.34,-23.207 -133.34,-51.84 0,-28.636 59.707,-51.855 133.34,-51.855"
       style="fill:#026c9b;fill-opacity:1;fill-rule:nonzero;stroke:none"
       transform="matrix(0.13333333,0,0,-0.13333333,0,37.72)"
       clip-path="url(#clipPath14)" />
    <path
       id="path15"
       d="m 323.336,115.797 c 73.613,0 133.301,23.219 133.301,51.855 0,28.633 -59.688,51.84 -133.301,51.84 -73.633,0 -133.34,-23.207 -133.34,-51.84 0,-28.636 59.707,-51.855 133.34,-51.855 z"
       style="fill:none;stroke:#ffffff;stroke-width:4;stroke-linecap:butt;stroke-linejoin:miter;stroke-miterlimit:4;stroke-dasharray:none;stroke-opacity:1"
       transform="matrix(0.13333333,0,0,-0.13333333,0,37.72)"
       clip-path="url(#clipPath16)" />
    <path
       id="path17"
       d="m 294.137,188.414 11.172,-16.75 -42.207,-9.762 9.218,7.692 -65.254,11.148 16.368,12.27 62.949,-10.657 7.754,6.059"
       style="fill:#ffffff;fill-opacity:1;fill-rule:nonzero;stroke:none"
       transform="matrix(0.13333333,0,0,-0.13333333,0,37.72)"
       clip-path="url(#clipPath18)" />
    <path
       id="path19"
       d="m 353.531,147.805 -7.617,17.261 38.086,7.622 -6.602,-5.93 63.457,-10.828 -15.234,-12.18 -63.066,11.836 -9.024,-7.781"
       style="fill:#ffffff;fill-opacity:1;fill-rule:nonzero;stroke:none"
       transform="matrix(0.13333333,0,0,-0.13333333,0,37.72)"
       clip-path="url(#clipPath20)" />
    <path
       id="path21"
       d="m 332.73,197.555 42.637,11.675 0.508,-18.281 -10.664,2.035 -20.82,-17.261 -19.864,2.894 21.485,16.895 -13.282,2.043"
       style="fill:#ffffff;fill-opacity:1;fill-rule:nonzero;stroke:none"
       transform="matrix(0.13333333,0,0,-0.13333333,0,37.72)"
       clip-path="url(#clipPath22)" />
    <path
       id="path23"
       d="m 314.449,132.066 -40.625,-7.617 -1.504,18.781 11.66,-2.539 22.364,19.098 19.765,-3.348 -23.847,-20.828 12.187,-3.547"
       style="fill:#ffffff;fill-opacity:1;fill-rule:nonzero;stroke:none"
       transform="matrix(0.13333333,0,0,-0.13333333,0,37.72)"
       clip-path="url(#clipPath24)" />
    <path
       id="path25"
       d="M 424.273,4 H 147.516 l -0.039,229.297 h 276.757 z"
       style="fill:none;stroke:#026c9b;stroke-width:8;stroke-linecap:round;stroke-linejoin:round;stroke-miterlimit:4;stroke-dasharray:none;stroke-opacity:1"
       transform="matrix(0.13333333,0,0,-0.13333333,0,37.72)"
       clip-path="url(#clipPath26)" />
    <path
       id="path27"
       d="M 504.117,51.0469 424.273,4 l -0.039,229.297 79.786,45.625 z"
       style="fill:none;stroke:#026c9b;stroke-width:8;stroke-linecap:round;stroke-linejoin:round;stroke-miterlimit:4;stroke-dasharray:none;stroke-opacity:1"
       transform="matrix(0.13333333,0,0,-0.13333333,0,37.72)"
       clip-path="url(#clipPath28)" />
    <path
       id="path29"
       d="M 424.234,233.297 H 147.477 l 77.421,44.879 279.122,0.746 z"
       style="fill:none;stroke:#026c9b;stroke-width:8;stroke-linecap:round;stroke-linejoin:round;stroke-miterlimit:4;stroke-dasharray:none;stroke-opacity:1"
       transform="matrix(0.13333333,0,0,-0.13333333,0,37.72)"
       clip-path="url(#clipPath30)" />
    <path
       id="path31"
       d="M 4,132.773 H 134"
       style="fill:none;stroke:#026c9b;stroke-width:8;stroke-linecap:round;stroke-linejoin:round;stroke-miterlimit:4;stroke-dasharray:none;stroke-opacity:1"
       transform="matrix(0.13333333,0,0,-0.13333333,0,37.72)"
       clip-path="url(#clipPath32)" />
    <path
       id="path33"
       d="M 45.6602,94.6953 H 132.34"
       style="fill:none;stroke:#026c9b;stroke-width:8;stroke-linecap:round;stroke-linejoin:round;stroke-miterlimit:4;stroke-dasharray:none;stroke-opacity:1"
       transform="matrix(0.13333333,0,0,-0.13333333,0,37.72)"
       clip-path="url(#clipPath34)" />
    <path
       id="path35"
       d="M 134,185.824 H 62.3203"
       style="fill:none;stroke:#026c9b;stroke-width:8;stroke-linecap:round;stroke-linejoin:round;stroke-miterlimit:4;stroke-dasharray:none;stroke-opacity:1"
       transform="matrix(0.13333333,0,0,-0.13333333,0,37.72)"
       clip-path="url(#clipPath36)" />
    <path
       id="path37"
       d="M 29,151.797 H 132.34"
       style="fill:none;stroke:#026c9b;stroke-width:8;stroke-linecap:round;stroke-linejoin:round;stroke-miterlimit:4;stroke-dasharray:none;stroke-opacity:1"
       transform="matrix(0.13333333,0,0,-0.13333333,0,37.72)"
       clip-path="url(#clipPath38)" />
  </g>
</svg>
