<?xml version="1.0" encoding="UTF-8" standalone="no"?>
<!-- Created with Inkscape (http://www.inkscape.org/) -->

<svg
   version="1.1"
   id="svg1"
   width="65.066666"
   height="42.053333"
   viewBox="0 0 65.066666 42.053333"
   sodipodi:docname="mulitswitch device.eps"
   xmlns:inkscape="http://www.inkscape.org/namespaces/inkscape"
   xmlns:sodipodi="http://sodipodi.sourceforge.net/DTD/sodipodi-0.dtd"
   xmlns="http://www.w3.org/2000/svg"
   xmlns:svg="http://www.w3.org/2000/svg">
  <defs
     id="defs1" />
  <sodipodi:namedview
     id="namedview1"
     pagecolor="#505050"
     bordercolor="#eeeeee"
     borderopacity="1"
     inkscape:showpageshadow="0"
     inkscape:pageopacity="0"
     inkscape:pagecheckerboard="0"
     inkscape:deskcolor="#d1d1d1">
    <inkscape:page
       x="0"
       y="0"
       inkscape:label="1"
       id="page1"
       width="65.066666"
       height="42.053333"
       margin="0"
       bleed="0" />
  </sodipodi:namedview>
  <g
     id="g1"
     inkscape:groupmode="layer"
     inkscape:label="1">
    <path
       id="path1"
       d="M 5.65625,194.191 149.941,310.859 H 483.043 L 363.648,194.191 H 5.65625"
       style="fill:#026c9b;fill-opacity:1;fill-rule:nonzero;stroke:none"
       transform="matrix(0.13333333,0,0,-0.13333333,0,42.053333)" />
    <path
       id="path2"
       d="M 5.65625,194.191 149.941,310.859 H 483.043 L 363.648,194.191 Z"
       style="fill:none;stroke:#ffffff;stroke-width:4;stroke-linecap:butt;stroke-linejoin:miter;stroke-miterlimit:4;stroke-dasharray:none;stroke-opacity:1"
       transform="matrix(0.13333333,0,0,-0.13333333,0,42.053333)" />
    <path
       id="path3"
       d="m 271.578,270.547 -3.496,-3.496 h -98.016 l -9.761,-9.77 -26.567,11.571 53.41,15.273 -13.585,-13.578 h 98.015"
       style="fill:#ffffff;fill-opacity:1;fill-rule:nonzero;stroke:none"
       transform="matrix(0.13333333,0,0,-0.13333333,0,42.053333)" />
    <path
       id="path4"
       d="M 363.648,4.89453 483.043,126.566 V 310.648 L 363.648,194.191 V 4.89453"
       style="fill:#026c9b;fill-opacity:1;fill-rule:nonzero;stroke:none"
       transform="matrix(0.13333333,0,0,-0.13333333,0,42.053333)" />
    <path
       id="path5"
       d="M 363.648,4.89453 483.043,126.566 V 310.648 L 363.648,194.191 Z"
       style="fill:none;stroke:#ffffff;stroke-width:4;stroke-linecap:butt;stroke-linejoin:miter;stroke-miterlimit:4;stroke-dasharray:none;stroke-opacity:1"
       transform="matrix(0.13333333,0,0,-0.13333333,0,42.053333)" />
    <path
       id="path6"
       d="m 384.82,289.023 9.766,9.766 26.68,-12.187 -53.516,-15.379 13.574,14.304 h -100.39 l 5.879,3.496 h 98.007"
       style="fill:#ffffff;fill-opacity:1;fill-rule:nonzero;stroke:none"
       transform="matrix(0.13333333,0,0,-0.13333333,0,42.053333)" />
    <path
       id="path7"
       d="m 219.078,215.547 -3.496,-3.496 h -98.016 l -9.761,-9.77 -26.5667,11.571 53.4097,15.273 -13.585,-13.578 h 98.015"
       style="fill:#ffffff;fill-opacity:1;fill-rule:nonzero;stroke:none"
       transform="matrix(0.13333333,0,0,-0.13333333,0,42.053333)" />
    <path
       id="path8"
       d="m 332.32,234.023 9.766,9.766 26.68,-12.187 -53.516,-15.379 13.574,14.304 h -100.39 l 5.879,3.496 h 98.007"
       style="fill:#ffffff;fill-opacity:1;fill-rule:nonzero;stroke:none"
       transform="matrix(0.13333333,0,0,-0.13333333,0,42.053333)" />
    <path
       id="path9"
       d="m 6.14453,4.78516 h 357.504 v 189.406 H 6.14453 Z"
       style="fill:#026c9b;fill-opacity:1;fill-rule:nonzero;stroke:none"
       transform="matrix(0.13333333,0,0,-0.13333333,0,42.053333)" />
    <path
       id="path10"
       d="M 363.648,4.78516 V 194.191 H 6.14453 V 4.78516 Z"
       style="fill:none;stroke:#ffffff;stroke-width:4;stroke-linecap:butt;stroke-linejoin:miter;stroke-miterlimit:4;stroke-dasharray:none;stroke-opacity:1"
       transform="matrix(0.13333333,0,0,-0.13333333,0,42.053333)" />
    <path
       id="path11"
       d="m 63.3477,113.121 h 54.0859 v 28.1445 H 63.3477 Z"
       style="fill:#ffffff;fill-opacity:1;fill-rule:nonzero;stroke:none"
       transform="matrix(0.13333333,0,0,-0.13333333,0,42.053333)" />
    <path
       id="path12"
       d="m 241.051,113.121 h 54.082 v 28.1445 h -54.082 z"
       style="fill:#ffffff;fill-opacity:1;fill-rule:nonzero;stroke:none"
       transform="matrix(0.13333333,0,0,-0.13333333,0,42.053333)" />
    <path
       id="path13"
       d="m 63.3477,42.7461 h 54.0859 V 70.8945 H 63.3477 Z"
       style="fill:#ffffff;fill-opacity:1;fill-rule:nonzero;stroke:none"
       transform="matrix(0.13333333,0,0,-0.13333333,0,42.053333)" />
    <path
       id="path14"
       d="m 241.051,42.7461 h 54.082 v 28.1484 h -54.082 z"
       style="fill:#ffffff;fill-opacity:1;fill-rule:nonzero;stroke:none"
       transform="matrix(0.13333333,0,0,-0.13333333,0,42.053333)" />
    <path
       id="path15"
       d="M 100.051,127.191 H 266.148"
       style="fill:none;stroke:#ffffff;stroke-width:4;stroke-linecap:butt;stroke-linejoin:miter;stroke-miterlimit:4;stroke-dasharray:none;stroke-opacity:1"
       transform="matrix(0.13333333,0,0,-0.13333333,0,42.053333)" />
    <path
       id="path16"
       d="M 100.051,56.8164 H 266.148"
       style="fill:none;stroke:#ffffff;stroke-width:4;stroke-linecap:butt;stroke-linejoin:miter;stroke-miterlimit:4;stroke-dasharray:none;stroke-opacity:1"
       transform="matrix(0.13333333,0,0,-0.13333333,0,42.053333)" />
    <path
       id="path17"
       d="M 90.3906,56.8164 266.148,127.191"
       style="fill:none;stroke:#ffffff;stroke-width:4;stroke-linecap:butt;stroke-linejoin:miter;stroke-miterlimit:4;stroke-dasharray:none;stroke-opacity:1"
       transform="matrix(0.13333333,0,0,-0.13333333,0,42.053333)" />
    <path
       id="path18"
       d="M 90.3906,127.191 266.148,56.8164"
       style="fill:none;stroke:#ffffff;stroke-width:4;stroke-linecap:butt;stroke-linejoin:miter;stroke-miterlimit:4;stroke-dasharray:none;stroke-opacity:1"
       transform="matrix(0.13333333,0,0,-0.13333333,0,42.053333)" />
    <path
       id="path19"
       d="m 420.738,169.414 13.184,67.121 12.812,13.938 0.059,13.875 22.129,0.754 -20.078,-42.211 0.371,20.082 -9.082,-12.543 -11.953,-63.688 -2.91,-13.504 -15.997,-72.8435 -13.769,-15.8086 0.019,-13.4336 -20.878,-6.7539 19.179,49.3868 0.117,-19.2774 8.653,10.4766 15.254,70.9256 2.89,13.504"
       style="fill:#ffffff;fill-opacity:1;fill-rule:nonzero;stroke:none"
       transform="matrix(0.13333333,0,0,-0.13333333,0,42.053333)" />
    <path
       id="path20"
       d="m 392.281,182.281 -0.117,0.086 8.477,7.75 16.132,-30.824 6.153,-10.18 17.09,-29.215 14.922,10.551 -0.606,-17.656 20.43,39.086 -20.938,-1.68 -0.156,-11.867 -12.031,-9.59 -18.418,32.176 -4.785,9.184 -16.993,29.472 -8.984,-8.015 -0.059,19.023 -21.543,-44.727 21.27,4.375 0.156,12.051"
       style="fill:#ffffff;fill-opacity:1;fill-rule:nonzero;stroke:none"
       transform="matrix(0.13333333,0,0,-0.13333333,0,42.053333)" />
  </g>
</svg>
