<?xml version="1.0" encoding="UTF-8" standalone="no"?>
<!-- Created with Inkscape (http://www.inkscape.org/) -->

<svg
   version="1.1"
   id="svg1"
   width="41.799999"
   height="55.973331"
   viewBox="0 0 41.799999 55.973331"
   sodipodi:docname="multilayer remote switch.eps"
   xmlns:inkscape="http://www.inkscape.org/namespaces/inkscape"
   xmlns:sodipodi="http://sodipodi.sourceforge.net/DTD/sodipodi-0.dtd"
   xmlns="http://www.w3.org/2000/svg"
   xmlns:svg="http://www.w3.org/2000/svg">
  <defs
     id="defs1" />
  <sodipodi:namedview
     id="namedview1"
     pagecolor="#505050"
     bordercolor="#eeeeee"
     borderopacity="1"
     inkscape:showpageshadow="0"
     inkscape:pageopacity="0"
     inkscape:pagecheckerboard="0"
     inkscape:deskcolor="#d1d1d1">
    <inkscape:page
       x="0"
       y="0"
       inkscape:label="1"
       id="page1"
       width="41.799999"
       height="55.973331"
       margin="0"
       bleed="0" />
  </sodipodi:namedview>
  <g
     id="g1"
     inkscape:groupmode="layer"
     inkscape:label="1">
    <path
       id="path1"
       d="M 6.46484,4.79688 V 272.82 H 274.727 V 4.79688 H 6.46484"
       style="fill:#087bbb;fill-opacity:1;fill-rule:nonzero;stroke:none"
       transform="matrix(0.13333333,0,0,-0.13333333,0,55.973333)" />
    <path
       id="path2"
       d="M 6.46484,4.79688 V 272.82 H 274.727 V 4.79688 Z"
       style="fill:none;stroke:#ffffff;stroke-width:4;stroke-linecap:butt;stroke-linejoin:miter;stroke-miterlimit:4;stroke-dasharray:none;stroke-opacity:1"
       transform="matrix(0.13333333,0,0,-0.13333333,0,55.973333)" />
    <path
       id="path3"
       d="M 308.613,38.3516 V 306.371 L 274.727,272.82 V 4.79688 l 33.886,33.55472"
       style="fill:#087bbb;fill-opacity:1;fill-rule:nonzero;stroke:none"
       transform="matrix(0.13333333,0,0,-0.13333333,0,55.973333)" />
    <path
       id="path4"
       d="M 308.613,38.3516 V 306.371 L 274.727,272.82 V 4.79688 Z"
       style="fill:none;stroke:#ffffff;stroke-width:4;stroke-linecap:butt;stroke-linejoin:miter;stroke-miterlimit:4;stroke-dasharray:none;stroke-opacity:1"
       transform="matrix(0.13333333,0,0,-0.13333333,0,55.973333)" />
    <path
       id="path5"
       d="M 55.5078,415.02 6.46484,381.469 H 274.727 l 33.886,33.551 H 55.5078"
       style="fill:#087bbb;fill-opacity:1;fill-rule:nonzero;stroke:none"
       transform="matrix(0.13333333,0,0,-0.13333333,0,55.973333)" />
    <path
       id="path6"
       d="M 55.5078,415.02 6.46484,381.469 H 274.727 l 33.886,33.551 z"
       style="fill:none;stroke:#ffffff;stroke-width:4;stroke-linecap:butt;stroke-linejoin:miter;stroke-miterlimit:4;stroke-dasharray:none;stroke-opacity:1"
       transform="matrix(0.13333333,0,0,-0.13333333,0,55.973333)" />
    <path
       id="path7"
       d="M 6.46484,272.82 V 381.469 H 274.727 V 272.82 H 6.46484"
       style="fill:#087bbb;fill-opacity:1;fill-rule:nonzero;stroke:none"
       transform="matrix(0.13333333,0,0,-0.13333333,0,55.973333)" />
    <path
       id="path8"
       d="M 6.46484,272.82 V 381.469 H 274.727 V 272.82 Z"
       style="fill:none;stroke:#ffffff;stroke-width:4;stroke-linecap:butt;stroke-linejoin:miter;stroke-miterlimit:4;stroke-dasharray:none;stroke-opacity:1"
       transform="matrix(0.13333333,0,0,-0.13333333,0,55.973333)" />
    <path
       id="path9"
       d="M 308.613,306.371 V 415.02 L 274.727,381.469 V 272.82 l 33.886,33.551"
       style="fill:#087bbb;fill-opacity:1;fill-rule:nonzero;stroke:none"
       transform="matrix(0.13333333,0,0,-0.13333333,0,55.973333)" />
    <path
       id="path10"
       d="M 308.613,306.371 V 415.02 L 274.727,381.469 V 272.82 Z"
       style="fill:none;stroke:#ffffff;stroke-width:4;stroke-linecap:butt;stroke-linejoin:miter;stroke-miterlimit:4;stroke-dasharray:none;stroke-opacity:1"
       transform="matrix(0.13333333,0,0,-0.13333333,0,55.973333)" />
    <path
       id="path11"
       d="M 274.727,272.82 H 6.46484"
       style="fill:#087bbb;fill-opacity:1;fill-rule:nonzero;stroke:#ffffff;stroke-width:4;stroke-linecap:butt;stroke-linejoin:miter;stroke-miterlimit:4;stroke-dasharray:none;stroke-opacity:1"
       transform="matrix(0.13333333,0,0,-0.13333333,0,55.973333)" />
    <path
       id="path12"
       d="m 274.727,272.82 33.886,33.551"
       style="fill:#087bbb;fill-opacity:1;fill-rule:nonzero;stroke:#ffffff;stroke-width:4;stroke-linecap:butt;stroke-linejoin:miter;stroke-miterlimit:4;stroke-dasharray:none;stroke-opacity:1"
       transform="matrix(0.13333333,0,0,-0.13333333,0,55.973333)" />
    <path
       id="path13"
       d="m 93.4961,344.352 v 22.519 H 50.2344 v -22.519 h 43.2617"
       style="fill:#ffffff;fill-opacity:1;fill-rule:nonzero;stroke:none"
       transform="matrix(0.13333333,0,0,-0.13333333,0,55.973333)" />
    <path
       id="path14"
       d="m 192.402,344.352 v 22.519 h 43.262 v -22.519 h -43.262"
       style="fill:#ffffff;fill-opacity:1;fill-rule:nonzero;stroke:none"
       transform="matrix(0.13333333,0,0,-0.13333333,0,55.973333)" />
    <path
       id="path15"
       d="M 93.4961,288.059 V 310.57 H 50.2344 v -22.511 h 43.2617"
       style="fill:#ffffff;fill-opacity:1;fill-rule:nonzero;stroke:none"
       transform="matrix(0.13333333,0,0,-0.13333333,0,55.973333)" />
    <path
       id="path16"
       d="m 192.402,288.059 v 22.511 h 43.262 v -22.511 h -43.262"
       style="fill:#ffffff;fill-opacity:1;fill-rule:nonzero;stroke:none"
       transform="matrix(0.13333333,0,0,-0.13333333,0,55.973333)" />
    <path
       id="path17"
       d="M 79.5898,355.609 H 212.48"
       style="fill:#000000;fill-opacity:1;fill-rule:nonzero;stroke:#ffffff;stroke-width:4;stroke-linecap:butt;stroke-linejoin:miter;stroke-miterlimit:4;stroke-dasharray:none;stroke-opacity:1"
       transform="matrix(0.13333333,0,0,-0.13333333,0,55.973333)" />
    <path
       id="path18"
       d="M 79.5898,299.309 H 212.48"
       style="fill:#000000;fill-opacity:1;fill-rule:nonzero;stroke:#ffffff;stroke-width:4;stroke-linecap:butt;stroke-linejoin:miter;stroke-miterlimit:4;stroke-dasharray:none;stroke-opacity:1"
       transform="matrix(0.13333333,0,0,-0.13333333,0,55.973333)" />
    <path
       id="path19"
       d="m 71.875,299.309 140.605,56.3"
       style="fill:#000000;fill-opacity:1;fill-rule:nonzero;stroke:#ffffff;stroke-width:4;stroke-linecap:butt;stroke-linejoin:miter;stroke-miterlimit:4;stroke-dasharray:none;stroke-opacity:1"
       transform="matrix(0.13333333,0,0,-0.13333333,0,55.973333)" />
    <path
       id="path20"
       d="m 71.875,355.609 140.605,-56.3"
       style="fill:#000000;fill-opacity:1;fill-rule:nonzero;stroke:#ffffff;stroke-width:4;stroke-linecap:butt;stroke-linejoin:miter;stroke-miterlimit:4;stroke-dasharray:none;stroke-opacity:1"
       transform="matrix(0.13333333,0,0,-0.13333333,0,55.973333)" />
    <path
       id="path21"
       d="m 154.316,199.375 h 18.555 v -3.152 l 7,4.636 -7,4.649 v -3.145 h -18.555 v -2.988"
       style="fill:#ffffff;fill-opacity:1;fill-rule:nonzero;stroke:none"
       transform="matrix(0.13333333,0,0,-0.13333333,0,55.973333)" />
    <path
       id="path22"
       d="m 151.641,208.828 13.113,13.125 2.226,-2.226 1.672,8.242 -8.242,-1.668 2.227,-2.231 -13.125,-13.125 2.129,-2.117"
       style="fill:#ffffff;fill-opacity:1;fill-rule:nonzero;stroke:none"
       transform="matrix(0.13333333,0,0,-0.13333333,0,55.973333)" />
    <path
       id="path23"
       d="m 143.047,213.633 v 18.555 h 3.144 l -4.648,7 -4.641,-7 h 3.145 v -18.555 h 3"
       style="fill:#ffffff;fill-opacity:1;fill-rule:nonzero;stroke:none"
       transform="matrix(0.13333333,0,0,-0.13333333,0,55.973333)" />
    <path
       id="path24"
       d="m 133.574,210.945 -13.125,13.125 2.227,2.231 -8.242,1.668 1.679,-8.242 2.227,2.226 13.125,-13.125 2.109,2.117"
       style="fill:#ffffff;fill-opacity:1;fill-rule:nonzero;stroke:none"
       transform="matrix(0.13333333,0,0,-0.13333333,0,55.973333)" />
    <path
       id="path25"
       d="m 128.777,202.363 h -18.562 v 3.145 l -6.992,-4.649 6.992,-4.636 v 3.152 h 18.562 v 2.988"
       style="fill:#ffffff;fill-opacity:1;fill-rule:nonzero;stroke:none"
       transform="matrix(0.13333333,0,0,-0.13333333,0,55.973333)" />
    <path
       id="path26"
       d="m 149.512,190.781 13.125,-13.125 -2.227,-2.218 8.242,-1.676 -1.672,8.242 -2.226,-2.231 -13.113,13.118 -2.129,-2.11"
       style="fill:#ffffff;fill-opacity:1;fill-rule:nonzero;stroke:none"
       transform="matrix(0.13333333,0,0,-0.13333333,0,55.973333)" />
    <path
       id="path27"
       d="m 125.996,189.512 c 6.082,-8.699 18.067,-10.813 26.758,-4.715 8.699,6.082 10.809,18.055 4.715,26.758 -6.082,8.687 -18.067,10.8 -26.746,4.715 -8.711,-6.082 -10.821,-18.079 -4.727,-26.758"
       style="fill:#ffffff;fill-opacity:1;fill-rule:nonzero;stroke:none"
       transform="matrix(0.13333333,0,0,-0.13333333,0,55.973333)" />
    <path
       id="path28"
       d="m 131.465,191.184 -13.125,-13.118 -2.227,2.215 -1.679,-8.23 8.242,1.672 -2.227,2.215 13.125,13.125 -2.109,2.121"
       style="fill:#ffffff;fill-opacity:1;fill-rule:nonzero;stroke:none"
       transform="matrix(0.13333333,0,0,-0.13333333,0,55.973333)" />
    <path
       id="path29"
       d="M 141.309,189.875 V 67.7539"
       style="fill:none;stroke:#ffffff;stroke-width:8;stroke-linecap:butt;stroke-linejoin:miter;stroke-miterlimit:4;stroke-dasharray:none;stroke-opacity:1"
       transform="matrix(0.13333333,0,0,-0.13333333,0,55.973333)" />
    <path
       id="path30"
       d="m 133.133,59.6875 h -12.988 v 2.2148 l -4.903,-3.2578 4.903,-3.2539 v 2.2071 h 12.988 v 2.0898"
       style="fill:#ffffff;fill-opacity:1;fill-rule:nonzero;stroke:none"
       transform="matrix(0.13333333,0,0,-0.13333333,0,55.973333)" />
    <path
       id="path31"
       d="m 135.008,53.0664 -9.18,-9.1875 -1.562,1.5586 -1.161,-5.7578 5.762,1.1601 -1.562,1.5547 9.187,9.1875 -1.484,1.4844"
       style="fill:#ffffff;fill-opacity:1;fill-rule:nonzero;stroke:none"
       transform="matrix(0.13333333,0,0,-0.13333333,0,55.973333)" />
    <path
       id="path32"
       d="M 141.023,49.707 V 36.7188 h -2.207 l 3.254,-4.9024 3.262,4.9024 h -2.207 V 49.707 h -2.102"
       style="fill:#ffffff;fill-opacity:1;fill-rule:nonzero;stroke:none"
       transform="matrix(0.13333333,0,0,-0.13333333,0,55.973333)" />
    <path
       id="path33"
       d="m 147.645,51.582 9.191,-9.1875 -1.555,-1.5547 5.762,-1.1601 -1.16,5.7578 -1.563,-1.5586 -9.191,9.1875 -1.484,-1.4844"
       style="fill:#ffffff;fill-opacity:1;fill-rule:nonzero;stroke:none"
       transform="matrix(0.13333333,0,0,-0.13333333,0,55.973333)" />
    <path
       id="path34"
       d="m 151.004,57.5977 h 13 v -2.2071 l 4.902,3.2539 -4.902,3.2578 v -2.2148 h -13 v -2.0898"
       style="fill:#ffffff;fill-opacity:1;fill-rule:nonzero;stroke:none"
       transform="matrix(0.13333333,0,0,-0.13333333,0,55.973333)" />
    <path
       id="path35"
       d="m 136.492,65.7031 -9.187,9.1914 1.562,1.5508 -5.762,1.1719 1.161,-5.7617 1.562,1.5508 9.18,-9.1758 1.484,1.4726"
       style="fill:#ffffff;fill-opacity:1;fill-rule:nonzero;stroke:none"
       transform="matrix(0.13333333,0,0,-0.13333333,0,55.973333)" />
    <path
       id="path36"
       d="m 152.961,66.5938 c -4.27,6.082 -12.648,7.5664 -18.734,3.3007 -6.082,-4.2578 -7.567,-12.6367 -3.309,-18.7304 4.266,-6.086 12.656,-7.5586 18.738,-3.3047 6.086,4.2578 7.559,12.6484 3.305,18.7344"
       style="fill:#ffffff;fill-opacity:1;fill-rule:nonzero;stroke:none"
       transform="matrix(0.13333333,0,0,-0.13333333,0,55.973333)" />
    <path
       id="path37"
       d="m 149.129,65.4219 9.191,9.1797 1.563,-1.5547 1.16,5.7695 -5.762,-1.168 1.555,-1.5546 -9.191,-9.1915 1.484,-1.4804"
       style="fill:#ffffff;fill-opacity:1;fill-rule:nonzero;stroke:none"
       transform="matrix(0.13333333,0,0,-0.13333333,0,55.973333)" />
  </g>
</svg>
