<?xml version="1.0" encoding="UTF-8" standalone="no"?>
<!-- Created with Inkscape (http://www.inkscape.org/) -->

<svg
   version="1.1"
   id="svg1"
   width="48.533333"
   height="32.306667"
   viewBox="0 0 48.533333 32.306667"
   sodipodi:docname="netflow router.eps"
   xmlns:inkscape="http://www.inkscape.org/namespaces/inkscape"
   xmlns:sodipodi="http://sodipodi.sourceforge.net/DTD/sodipodi-0.dtd"
   xmlns="http://www.w3.org/2000/svg"
   xmlns:svg="http://www.w3.org/2000/svg">
  <defs
     id="defs1">
    <clipPath
       clipPathUnits="userSpaceOnUse"
       id="clipPath2">
      <path
         d="M 0,2 V 242 H 360 V 2 Z"
         id="path2" />
    </clipPath>
    <clipPath
       clipPathUnits="userSpaceOnUse"
       id="clipPath4">
      <path
         d="M 0,2 V 242 H 360 V 2 Z"
         id="path4" />
    </clipPath>
    <clipPath
       clipPathUnits="userSpaceOnUse"
       id="clipPath6">
      <path
         d="M 0,2 V 242 H 360 V 2 Z"
         id="path6" />
    </clipPath>
    <clipPath
       clipPathUnits="userSpaceOnUse"
       id="clipPath8">
      <path
         d="M 0,2 V 242 H 360 V 2 Z"
         id="path8" />
    </clipPath>
    <clipPath
       clipPathUnits="userSpaceOnUse"
       id="clipPath10">
      <path
         d="M 0,2 V 242 H 360 V 2 Z"
         id="path10" />
    </clipPath>
    <clipPath
       clipPathUnits="userSpaceOnUse"
       id="clipPath12">
      <path
         d="M 0,2 V 242 H 360 V 2 Z"
         id="path12" />
    </clipPath>
    <clipPath
       clipPathUnits="userSpaceOnUse"
       id="clipPath14">
      <path
         d="M 0,2 V 242 H 360 V 2 Z"
         id="path14" />
    </clipPath>
    <clipPath
       clipPathUnits="userSpaceOnUse"
       id="clipPath16">
      <path
         d="M 0,2 V 242 H 360 V 2 Z"
         id="path16" />
    </clipPath>
    <clipPath
       clipPathUnits="userSpaceOnUse"
       id="clipPath18">
      <path
         d="M 0,2 V 242 H 360 V 2 Z"
         id="path18" />
    </clipPath>
    <clipPath
       clipPathUnits="userSpaceOnUse"
       id="clipPath20">
      <path
         d="m 230.059,218.801 64.558,-0.25 -8.758,-28.781 -12.91,7.16 -61.738,-30.52 -26.934,15.254 61.453,29.445 -15.671,7.692"
         id="path20" />
    </clipPath>
    <clipPath
       clipPathUnits="userSpaceOnUse"
       id="clipPath22">
      <path
         d="M 0,2 H 360 V 242 H 0 Z"
         id="path22" />
    </clipPath>
    <clipPath
       clipPathUnits="userSpaceOnUse"
       id="clipPath24">
      <path
         d="m 205.332,132.406 -8.684,28.055 66.555,-0.481 -15.848,-7.097 63.282,-25.656 -27.805,-13.922 -62.742,25.508 -14.758,-6.407"
         id="path24" />
    </clipPath>
    <clipPath
       clipPathUnits="userSpaceOnUse"
       id="clipPath26">
      <path
         d="m 205.332,132.406 -8.684,28.055 66.555,-0.481 -15.848,-7.097 63.282,-25.656 -27.805,-13.922 -62.742,25.508 -14.758,-6.407"
         id="path26" />
    </clipPath>
    <clipPath
       clipPathUnits="userSpaceOnUse"
       id="clipPath28">
      <path
         d="M 0,2 H 360 V 242 H 0 Z"
         id="path28" />
    </clipPath>
    <clipPath
       clipPathUnits="userSpaceOnUse"
       id="clipPath30">
      <path
         d="M 0,2 H 360 V 242 H 0 Z"
         id="path30" />
    </clipPath>
  </defs>
  <sodipodi:namedview
     id="namedview1"
     pagecolor="#505050"
     bordercolor="#eeeeee"
     borderopacity="1"
     inkscape:showpageshadow="0"
     inkscape:pageopacity="0"
     inkscape:pagecheckerboard="0"
     inkscape:deskcolor="#d1d1d1">
    <inkscape:page
       x="0"
       y="0"
       inkscape:label="1"
       id="page1"
       width="48.533333"
       height="32.306667"
       margin="0"
       bleed="0" />
  </sodipodi:namedview>
  <g
     id="g1"
     inkscape:groupmode="layer"
     inkscape:label="1">
    <path
       id="path1"
       d="m 182.102,100.273 c 99.468,0 180.093,31.36 180.093,70.04 0,38.683 -80.625,70.039 -180.093,70.039 C 82.6289,240.352 2,208.996 2,170.313 c 0,-38.68 80.6289,-70.04 180.102,-70.04"
       style="fill:#026c9b;fill-opacity:1;fill-rule:nonzero;stroke:none"
       transform="matrix(0.13333333,0,0,-0.13333333,0,32.306667)"
       clip-path="url(#clipPath2)" />
    <path
       id="path3"
       d="m 182.102,100.273 c 99.468,0 180.093,31.36 180.093,70.04 0,38.683 -80.625,70.039 -180.093,70.039 C 82.6289,240.352 2,208.996 2,170.313 c 0,-38.68 80.6289,-70.04 180.102,-70.04 z"
       style="fill:none;stroke:#ffffff;stroke-width:4;stroke-linecap:butt;stroke-linejoin:miter;stroke-miterlimit:4;stroke-dasharray:none;stroke-opacity:1"
       transform="matrix(0.13333333,0,0,-0.13333333,0,32.306667)"
       clip-path="url(#clipPath4)" />
    <path
       id="path5"
       d="m 358.113,184.902 c -54.05,15.45 -70.23,-15.375 -101.636,-15.375 -41.567,0 -26.289,18.555 -74.067,18.719 -56.648,0.203 -33.633,-18.152 -74.707,-18.328 C 77.9414,169.785 66.2969,194.219 5.97656,184.902 2.85156,178.652 1.75,174.789 2.29297,165.23 58.3906,177.914 74.0234,149.191 107.617,150.645 c 46.477,2.011 22.156,19.796 74.719,18.335 49.148,-1.367 24.527,-18.726 74.059,-18.726 42.882,0 48.031,30.055 105.043,16.445 0,0 2.578,8.645 -3.325,18.203"
       style="fill:#026c9b;fill-opacity:1;fill-rule:nonzero;stroke:none"
       transform="matrix(0.13333333,0,0,-0.13333333,0,32.306667)"
       clip-path="url(#clipPath6)" />
    <path
       id="path7"
       d="m 358.113,184.902 c -54.05,15.45 -70.23,-15.375 -101.636,-15.375 -41.567,0 -26.289,18.555 -74.067,18.719 -56.648,0.203 -33.633,-18.152 -74.707,-18.328 C 77.9414,169.785 66.2969,194.219 5.97656,184.902 2.85156,178.652 1.75,174.789 2.29297,165.23 58.3906,177.914 74.0234,149.191 107.617,150.645 c 46.477,2.011 22.156,19.796 74.719,18.335 49.148,-1.367 24.527,-18.726 74.059,-18.726 42.882,0 48.031,30.055 105.043,16.445 0,0 2.578,8.645 -3.325,18.203 z"
       style="fill:none;stroke:#ffffff;stroke-width:3.5;stroke-linecap:butt;stroke-linejoin:miter;stroke-miterlimit:4;stroke-dasharray:none;stroke-opacity:1"
       transform="matrix(0.13333333,0,0,-0.13333333,0,32.306667)"
       clip-path="url(#clipPath8)" />
    <path
       id="path9"
       d="m 313.137,218.492 c -29.551,5.395 -21.953,-13.664 -56.66,-13.664 -41.567,0 -24.829,18.563 -72.598,18.727 -56.645,0.199 -37.695,-20.399 -78.789,-20.629 -27.1877,-0.153 -35.297,12.871 -60.3127,12.504 -7.3554,-2.575 -19.496,-10.297 -27.207,-16.547 43.0235,10.293 59.4531,-12.75 88.5747,-12.93 46.519,-0.289 25.093,19.789 77.656,18.328 49.16,-1.359 23.062,-18.718 72.594,-18.718 34.789,0 35.414,28.886 84.804,17.363 0,0 -12.613,9.316 -28.062,15.566"
       style="fill:#026c9b;fill-opacity:1;fill-rule:nonzero;stroke:none"
       transform="matrix(0.13333333,0,0,-0.13333333,0,32.306667)"
       clip-path="url(#clipPath10)" />
    <path
       id="path11"
       d="m 313.137,218.492 c -29.551,5.395 -21.953,-13.664 -56.66,-13.664 -41.567,0 -24.829,18.563 -72.598,18.727 -56.645,0.199 -37.695,-20.399 -78.789,-20.629 -27.1877,-0.153 -35.297,12.871 -60.3127,12.504 -7.3554,-2.575 -19.496,-10.297 -27.207,-16.547 43.0235,10.293 59.4531,-12.75 88.5747,-12.93 46.519,-0.289 25.093,19.789 77.656,18.328 49.16,-1.359 23.062,-18.718 72.594,-18.718 34.789,0 35.414,28.886 84.804,17.363 0,0 -12.613,9.316 -28.062,15.566 z"
       style="fill:none;stroke:#ffffff;stroke-width:3.5;stroke-linecap:butt;stroke-linejoin:miter;stroke-miterlimit:4;stroke-dasharray:none;stroke-opacity:1"
       transform="matrix(0.13333333,0,0,-0.13333333,0,32.306667)"
       clip-path="url(#clipPath12)" />
    <path
       id="path13"
       d="m 354.695,150.09 c -54.8,13.242 -55.047,-15.871 -93.804,-15.871 -41.567,0 -24.828,19.293 -72.602,19.457 -56.641,0.203 -36.559,-18.106 -77.644,-18.332 -27.1958,-0.149 -61.8247,27.492 -100.0669,13.886 5.6407,-8.828 24.4532,-19.308 24.4532,-19.308 22.2539,7.168 39.1796,-13.848 75.5277,-13.848 46.519,0 25.093,19.789 77.656,18.336 49.156,-1.367 23.086,-17.594 72.598,-18.726 36.152,-0.829 45.261,26.058 76.714,19.203 0,0 10.434,5.886 17.168,15.203"
       style="fill:#026c9b;fill-opacity:1;fill-rule:nonzero;stroke:none"
       transform="matrix(0.13333333,0,0,-0.13333333,0,32.306667)"
       clip-path="url(#clipPath14)" />
    <path
       id="path15"
       d="m 354.695,150.09 c -54.8,13.242 -55.047,-15.871 -93.804,-15.871 -41.567,0 -24.828,19.293 -72.602,19.457 -56.641,0.203 -36.559,-18.106 -77.644,-18.332 -27.1958,-0.149 -61.8247,27.492 -100.0669,13.886 5.6407,-8.828 24.4532,-19.308 24.4532,-19.308 22.2539,7.168 39.1796,-13.848 75.5277,-13.848 46.519,0 25.093,19.789 77.656,18.336 49.156,-1.367 23.086,-17.594 72.598,-18.726 36.152,-0.829 45.261,26.058 76.714,19.203 0,0 10.434,5.886 17.168,15.203 z"
       style="fill:none;stroke:#ffffff;stroke-width:3.5;stroke-linecap:butt;stroke-linejoin:miter;stroke-miterlimit:4;stroke-dasharray:none;stroke-opacity:1"
       transform="matrix(0.13333333,0,0,-0.13333333,0,32.306667)"
       clip-path="url(#clipPath16)" />
    <path
       id="path17"
       d="m 143.762,116.133 -64.8753,-2.672 9.0742,31.699 12.9061,-7.156 61.821,30.133 26.929,-15.254 -61.519,-29.055 15.664,-7.695"
       style="fill:#ffffff;fill-opacity:1;fill-rule:nonzero;stroke:none"
       transform="matrix(0.13333333,0,0,-0.13333333,0,32.306667)"
       clip-path="url(#clipPath18)" />
    <path
       id="path19"
       d="m 230.305,221.195 64.566,-0.246 -8.766,-28.781 -12.914,7.16 -61.738,-30.519 -26.933,16.703 61.457,29.445 -15.672,6.238"
       style="fill:#ffffff;fill-opacity:1;fill-rule:nonzero;stroke:none"
       transform="matrix(0.13333333,0,0,-0.13333333,0,32.306667)"
       clip-path="url(#clipPath20)" />
    <path
       id="path21"
       d="m 156.965,199.809 18.164,-23.055 -81.5157,-4.16 15.8517,7.097 -59.0822,25.051 30.7383,16.696 61.1759,-27.965 14.668,6.336"
       style="fill:#ffffff;fill-opacity:1;fill-rule:nonzero;stroke:none"
       transform="matrix(0.13333333,0,0,-0.13333333,0,32.306667)"
       clip-path="url(#clipPath22)" />
    <path
       id="path23"
       d="m 206.023,132.695 -8.687,28.051 66.551,-0.476 -15.852,-7.094 63.281,-25.66 -27.793,-13.922 -62.753,25.508 -14.747,-6.407"
       style="fill:#ffffff;fill-opacity:1;fill-rule:nonzero;stroke:none"
       transform="matrix(0.13333333,0,0,-0.13333333,0,32.306667)"
       clip-path="url(#clipPath24)" />
    <path
       id="path25"
       d="m 150.43,116.133 -64.8753,-2.672 9.0742,31.699 12.9101,-7.156 61.816,30.133 26.922,-15.254 -61.519,-29.055 15.672,-7.695"
       style="fill:#ffffff;fill-opacity:1;fill-rule:nonzero;stroke:none"
       transform="matrix(0.13333333,0,0,-0.13333333,0,32.306667)"
       clip-path="url(#clipPath26)" />
    <path
       id="path27"
       d="m 362.195,174.621 c 0,-38.683 -80.625,-70.043 -180.093,-70.043 C 82.6289,104.578 2,135.938 2,174.621 V 72.0313 C 2,33.3516 82.6289,1.99219 182.102,1.99219 c 99.468,0 180.093,31.35941 180.093,70.03911 V 174.621"
       style="fill:#026c9b;fill-opacity:1;fill-rule:nonzero;stroke:none"
       transform="matrix(0.13333333,0,0,-0.13333333,0,32.306667)"
       clip-path="url(#clipPath28)" />
    <path
       id="path29"
       d="m 362.195,174.621 c 0,-38.683 -80.625,-70.043 -180.093,-70.043 C 82.6289,104.578 2,135.938 2,174.621 V 72.0313 C 2,33.3516 82.6289,1.99219 182.102,1.99219 c 99.468,0 180.093,31.35941 180.093,70.03911 z"
       style="fill:none;stroke:#ffffff;stroke-width:4;stroke-linecap:butt;stroke-linejoin:miter;stroke-miterlimit:4;stroke-dasharray:none;stroke-opacity:1"
       transform="matrix(0.13333333,0,0,-0.13333333,0,32.306667)"
       clip-path="url(#clipPath30)" />
  </g>
</svg>
