<?xml version="1.0" encoding="UTF-8" standalone="no"?>
<!-- Created with Inkscape (http://www.inkscape.org/) -->

<svg
   version="1.1"
   id="svg1"
   width="46.959999"
   height="40.733334"
   viewBox="0 0 46.959999 40.733334"
   sodipodi:docname="optical services router.eps"
   xmlns:inkscape="http://www.inkscape.org/namespaces/inkscape"
   xmlns:sodipodi="http://sodipodi.sourceforge.net/DTD/sodipodi-0.dtd"
   xmlns="http://www.w3.org/2000/svg"
   xmlns:svg="http://www.w3.org/2000/svg">
  <defs
     id="defs1">
    <clipPath
       clipPathUnits="userSpaceOnUse"
       id="clipPath2">
      <path
         d="M 0,306 H 350 V 0 H 0 Z"
         id="path2" />
    </clipPath>
    <clipPath
       clipPathUnits="userSpaceOnUse"
       id="clipPath4">
      <path
         d="M 0,306 H 350 V 0 H 0 Z"
         id="path4" />
    </clipPath>
    <clipPath
       clipPathUnits="userSpaceOnUse"
       id="clipPath6">
      <path
         d="M 0,306 H 350 V 0 H 0 Z"
         id="path6" />
    </clipPath>
    <clipPath
       clipPathUnits="userSpaceOnUse"
       id="clipPath8">
      <path
         d="M 0,306 H 350 V 0 H 0 Z"
         id="path8" />
    </clipPath>
    <clipPath
       clipPathUnits="userSpaceOnUse"
       id="clipPath10">
      <path
         d="M 0,306 H 350 V 0 H 0 Z"
         id="path10" />
    </clipPath>
    <clipPath
       clipPathUnits="userSpaceOnUse"
       id="clipPath12">
      <path
         d="M 0,306 H 350 V 0 H 0 Z"
         id="path12" />
    </clipPath>
    <clipPath
       clipPathUnits="userSpaceOnUse"
       id="clipPath14">
      <path
         d="M 0,306 H 350 V 0 H 0 Z"
         id="path14" />
    </clipPath>
    <clipPath
       clipPathUnits="userSpaceOnUse"
       id="clipPath16">
      <path
         d="M 0,306 H 350 V 0 H 0 Z"
         id="path16" />
    </clipPath>
    <clipPath
       clipPathUnits="userSpaceOnUse"
       id="clipPath18">
      <path
         d="M 0,306 H 350 V 0 H 0 Z"
         id="path18" />
    </clipPath>
    <clipPath
       clipPathUnits="userSpaceOnUse"
       id="clipPath20">
      <path
         d="M 0,306 H 350 V 0 H 0 Z"
         id="path20" />
    </clipPath>
    <clipPath
       clipPathUnits="userSpaceOnUse"
       id="clipPath22">
      <path
         d="M 0,306 H 350 V 0 H 0 Z"
         id="path22" />
    </clipPath>
    <clipPath
       clipPathUnits="userSpaceOnUse"
       id="clipPath24">
      <path
         d="M 0,306 H 350 V 0 H 0 Z"
         id="path24" />
    </clipPath>
    <clipPath
       clipPathUnits="userSpaceOnUse"
       id="clipPath26">
      <path
         d="M 0,306 H 350 V 0 H 0 Z"
         id="path26" />
    </clipPath>
    <clipPath
       clipPathUnits="userSpaceOnUse"
       id="clipPath28">
      <path
         d="M 0,306 H 350 V 0 H 0 Z"
         id="path28" />
    </clipPath>
    <clipPath
       clipPathUnits="userSpaceOnUse"
       id="clipPath30">
      <path
         d="M 0,306 H 350 V 0 H 0 Z"
         id="path30" />
    </clipPath>
    <clipPath
       clipPathUnits="userSpaceOnUse"
       id="clipPath32">
      <path
         d="M 0,306 H 350 V 0 H 0 Z"
         id="path32" />
    </clipPath>
    <clipPath
       clipPathUnits="userSpaceOnUse"
       id="clipPath34">
      <path
         d="M 0,306 H 350 V 0 H 0 Z"
         id="path34" />
    </clipPath>
    <clipPath
       clipPathUnits="userSpaceOnUse"
       id="clipPath36">
      <path
         d="M 0,306 H 350 V 0 H 0 Z"
         id="path36" />
    </clipPath>
    <clipPath
       clipPathUnits="userSpaceOnUse"
       id="clipPath38">
      <path
         d="M 0,306 H 350 V 0 H 0 Z"
         id="path38" />
    </clipPath>
    <clipPath
       clipPathUnits="userSpaceOnUse"
       id="clipPath40">
      <path
         d="M 0,306 H 350 V 0 H 0 Z"
         id="path40" />
    </clipPath>
    <clipPath
       clipPathUnits="userSpaceOnUse"
       id="clipPath42">
      <path
         d="M 0,306 H 350 V 0 H 0 Z"
         id="path42" />
    </clipPath>
    <clipPath
       clipPathUnits="userSpaceOnUse"
       id="clipPath44">
      <path
         d="M 0,306 H 350 V 0 H 0 Z"
         id="path44" />
    </clipPath>
    <clipPath
       clipPathUnits="userSpaceOnUse"
       id="clipPath46">
      <path
         d="M 0,306 H 350 V 0 H 0 Z"
         id="path46" />
    </clipPath>
    <clipPath
       clipPathUnits="userSpaceOnUse"
       id="clipPath48">
      <path
         d="M 0,306 H 350 V 0 H 0 Z"
         id="path48" />
    </clipPath>
    <clipPath
       clipPathUnits="userSpaceOnUse"
       id="clipPath50">
      <path
         d="M 0,306 H 350 V 0 H 0 Z"
         id="path50" />
    </clipPath>
    <clipPath
       clipPathUnits="userSpaceOnUse"
       id="clipPath52">
      <path
         d="M 0,306 H 350 V 0 H 0 Z"
         id="path52" />
    </clipPath>
    <clipPath
       clipPathUnits="userSpaceOnUse"
       id="clipPath54">
      <path
         d="M 0,306 H 350 V 0 H 0 Z"
         id="path54" />
    </clipPath>
    <clipPath
       clipPathUnits="userSpaceOnUse"
       id="clipPath56">
      <path
         d="M 0,306 H 350 V 0 H 0 Z"
         id="path56" />
    </clipPath>
    <clipPath
       clipPathUnits="userSpaceOnUse"
       id="clipPath58">
      <path
         d="M 0,306 H 350 V 0 H 0 Z"
         id="path58" />
    </clipPath>
    <clipPath
       clipPathUnits="userSpaceOnUse"
       id="clipPath60">
      <path
         d="M 0,306 H 350 V 0 H 0 Z"
         id="path60" />
    </clipPath>
    <clipPath
       clipPathUnits="userSpaceOnUse"
       id="clipPath62">
      <path
         d="M 0,306 H 350 V 0 H 0 Z"
         id="path62" />
    </clipPath>
    <clipPath
       clipPathUnits="userSpaceOnUse"
       id="clipPath64">
      <path
         d="M 0,306 H 350 V 0 H 0 Z"
         id="path64" />
    </clipPath>
    <clipPath
       clipPathUnits="userSpaceOnUse"
       id="clipPath66">
      <path
         d="M 0,306 H 350 V 0 H 0 Z"
         id="path66" />
    </clipPath>
    <clipPath
       clipPathUnits="userSpaceOnUse"
       id="clipPath68">
      <path
         d="M 0,306 H 350 V 0 H 0 Z"
         id="path68" />
    </clipPath>
  </defs>
  <sodipodi:namedview
     id="namedview1"
     pagecolor="#505050"
     bordercolor="#eeeeee"
     borderopacity="1"
     inkscape:showpageshadow="0"
     inkscape:pageopacity="0"
     inkscape:pagecheckerboard="0"
     inkscape:deskcolor="#d1d1d1">
    <inkscape:page
       x="0"
       y="0"
       inkscape:label="1"
       id="page1"
       width="46.959999"
       height="40.733334"
       margin="0"
       bleed="0" />
  </sodipodi:namedview>
  <g
     id="g1"
     inkscape:groupmode="layer"
     inkscape:label="1">
    <path
       id="path1"
       d="M 349,237.609 V 69.1719 L 265.035,2.00391 H 90.5508 L 3.31641,69.1719 V 237.609"
       style="fill:#026c9b;fill-opacity:1;fill-rule:nonzero;stroke:#ffffff;stroke-width:4;stroke-linecap:butt;stroke-linejoin:miter;stroke-miterlimit:4;stroke-dasharray:none;stroke-opacity:1"
       transform="matrix(0.13333333,0,0,-0.13333333,0,40.733333)"
       clip-path="url(#clipPath2)" />
    <path
       id="path3"
       d="M 263.395,303.508 H 92.2031 L 3.31641,237.609 90.5508,170.441 H 265.035 L 349,237.609 263.395,303.508"
       style="fill:#026c9b;fill-opacity:1;fill-rule:nonzero;stroke:none"
       transform="matrix(0.13333333,0,0,-0.13333333,0,40.733333)"
       clip-path="url(#clipPath4)" />
    <path
       id="path5"
       d="M 263.395,303.508 H 92.2031 L 3.31641,237.609 90.5508,170.441 H 265.035 L 349,237.609 Z"
       style="fill:none;stroke:#ffffff;stroke-width:4;stroke-linecap:butt;stroke-linejoin:miter;stroke-miterlimit:4;stroke-dasharray:none;stroke-opacity:1"
       transform="matrix(0.13333333,0,0,-0.13333333,0,40.733333)"
       clip-path="url(#clipPath6)" />
    <path
       id="path7"
       d="M 89.0391,3.07422 V 170.441"
       style="fill:none;stroke:#ffffff;stroke-width:3.85;stroke-linecap:butt;stroke-linejoin:miter;stroke-miterlimit:4;stroke-dasharray:none;stroke-opacity:1"
       transform="matrix(0.13333333,0,0,-0.13333333,0,40.733333)"
       clip-path="url(#clipPath8)" />
    <path
       id="path9"
       d="M 264.703,3.07422 V 170.441"
       style="fill:none;stroke:#ffffff;stroke-width:3.85;stroke-linecap:butt;stroke-linejoin:miter;stroke-miterlimit:4;stroke-dasharray:none;stroke-opacity:1"
       transform="matrix(0.13333333,0,0,-0.13333333,0,40.733333)"
       clip-path="url(#clipPath10)" />
    <path
       id="path11"
       d="M 178.492,286.75 V 189.539"
       style="fill:none;stroke:#ffffff;stroke-width:5.775;stroke-linecap:butt;stroke-linejoin:miter;stroke-miterlimit:1;stroke-dasharray:none;stroke-opacity:1"
       transform="matrix(0.13333333,0,0,-0.13333333,0,40.733333)"
       clip-path="url(#clipPath12)" />
    <path
       id="path13"
       d="M 270.121,238.145 H 91.6758"
       style="fill:none;stroke:#ffffff;stroke-width:5.775;stroke-linecap:butt;stroke-linejoin:miter;stroke-miterlimit:1;stroke-dasharray:none;stroke-opacity:1"
       transform="matrix(0.13333333,0,0,-0.13333333,0,40.733333)"
       clip-path="url(#clipPath14)" />
    <path
       id="path15"
       d="m 91.6758,281.887 h 43.4062 l 91.652,-92.348 h 38.575"
       style="fill:none;stroke:#ffffff;stroke-width:5.775;stroke-linecap:butt;stroke-linejoin:miter;stroke-miterlimit:1;stroke-dasharray:none;stroke-opacity:1"
       transform="matrix(0.13333333,0,0,-0.13333333,0,40.733333)"
       clip-path="url(#clipPath16)" />
    <path
       id="path17"
       d="M 265.309,281.887 H 226.734 L 135.082,189.539 H 91.6758"
       style="fill:none;stroke:#ffffff;stroke-width:5.775;stroke-linecap:butt;stroke-linejoin:miter;stroke-miterlimit:1;stroke-dasharray:none;stroke-opacity:1"
       transform="matrix(0.13333333,0,0,-0.13333333,0,40.733333)"
       clip-path="url(#clipPath18)" />
    <path
       id="path19"
       d="M 270.121,238.145 H 91.6758"
       style="fill:none;stroke:#ffffff;stroke-width:5.775;stroke-linecap:butt;stroke-linejoin:miter;stroke-miterlimit:1;stroke-dasharray:none;stroke-opacity:1"
       transform="matrix(0.13333333,0,0,-0.13333333,0,40.733333)"
       clip-path="url(#clipPath20)" />
    <path
       id="path21"
       d="m 91.6758,281.887 h 43.4062 l 91.652,-92.348 h 38.575"
       style="fill:none;stroke:#ffffff;stroke-width:5.775;stroke-linecap:butt;stroke-linejoin:miter;stroke-miterlimit:1;stroke-dasharray:none;stroke-opacity:1"
       transform="matrix(0.13333333,0,0,-0.13333333,0,40.733333)"
       clip-path="url(#clipPath22)" />
    <path
       id="path23"
       d="M 265.309,281.887 H 226.734 L 135.082,189.539 H 91.6758"
       style="fill:none;stroke:#ffffff;stroke-width:5.775;stroke-linecap:butt;stroke-linejoin:miter;stroke-miterlimit:1;stroke-dasharray:none;stroke-opacity:1"
       transform="matrix(0.13333333,0,0,-0.13333333,0,40.733333)"
       clip-path="url(#clipPath24)" />
    <path
       id="path25"
       d="M 178.492,286.75 V 184.68"
       style="fill:none;stroke:#ffffff;stroke-width:5.775;stroke-linecap:butt;stroke-linejoin:miter;stroke-miterlimit:1;stroke-dasharray:none;stroke-opacity:1"
       transform="matrix(0.13333333,0,0,-0.13333333,0,40.733333)"
       clip-path="url(#clipPath26)" />
    <path
       id="path27"
       d="M 178.492,286.75 V 189.539"
       style="fill:none;stroke:#ffffff;stroke-width:5.775;stroke-linecap:butt;stroke-linejoin:miter;stroke-miterlimit:1;stroke-dasharray:none;stroke-opacity:1"
       transform="matrix(0.13333333,0,0,-0.13333333,0,40.733333)"
       clip-path="url(#clipPath28)" />
    <path
       id="path29"
       d="M 270.121,238.145 H 91.6758"
       style="fill:none;stroke:#ffffff;stroke-width:5.775;stroke-linecap:butt;stroke-linejoin:miter;stroke-miterlimit:1;stroke-dasharray:none;stroke-opacity:1"
       transform="matrix(0.13333333,0,0,-0.13333333,0,40.733333)"
       clip-path="url(#clipPath30)" />
    <path
       id="path31"
       d="m 91.6758,281.887 h 43.4062 l 91.652,-92.348 h 38.575"
       style="fill:none;stroke:#ffffff;stroke-width:5.775;stroke-linecap:butt;stroke-linejoin:miter;stroke-miterlimit:1;stroke-dasharray:none;stroke-opacity:1"
       transform="matrix(0.13333333,0,0,-0.13333333,0,40.733333)"
       clip-path="url(#clipPath32)" />
    <path
       id="path33"
       d="M 265.309,281.887 H 226.734 L 135.082,189.539 H 91.6758"
       style="fill:none;stroke:#ffffff;stroke-width:5.775;stroke-linecap:butt;stroke-linejoin:miter;stroke-miterlimit:1;stroke-dasharray:none;stroke-opacity:1"
       transform="matrix(0.13333333,0,0,-0.13333333,0,40.733333)"
       clip-path="url(#clipPath34)" />
    <path
       id="path35"
       d="m 91.6758,281.887 h 43.4062 l 91.652,-92.348 h 38.575"
       style="fill:none;stroke:#ffffff;stroke-width:5.775;stroke-linecap:butt;stroke-linejoin:miter;stroke-miterlimit:1;stroke-dasharray:none;stroke-opacity:1"
       transform="matrix(0.13333333,0,0,-0.13333333,0,40.733333)"
       clip-path="url(#clipPath36)" />
    <path
       id="path37"
       d="M 265.309,281.887 H 226.734 L 135.082,189.539 H 91.6758"
       style="fill:none;stroke:#ffffff;stroke-width:5.775;stroke-linecap:butt;stroke-linejoin:miter;stroke-miterlimit:1;stroke-dasharray:none;stroke-opacity:1"
       transform="matrix(0.13333333,0,0,-0.13333333,0,40.733333)"
       clip-path="url(#clipPath38)" />
    <path
       id="path39"
       d="M 270.121,238.145 H 91.6758"
       style="fill:none;stroke:#ffffff;stroke-width:5.775;stroke-linecap:butt;stroke-linejoin:miter;stroke-miterlimit:1;stroke-dasharray:none;stroke-opacity:1"
       transform="matrix(0.13333333,0,0,-0.13333333,0,40.733333)"
       clip-path="url(#clipPath40)" />
    <path
       id="path41"
       d="m 91.6758,281.887 h 43.4062 l 91.652,-92.348 h 38.575"
       style="fill:none;stroke:#ffffff;stroke-width:5.775;stroke-linecap:butt;stroke-linejoin:miter;stroke-miterlimit:1;stroke-dasharray:none;stroke-opacity:1"
       transform="matrix(0.13333333,0,0,-0.13333333,0,40.733333)"
       clip-path="url(#clipPath42)" />
    <path
       id="path43"
       d="M 265.309,281.887 H 226.734 L 135.082,189.539 H 91.6758"
       style="fill:none;stroke:#ffffff;stroke-width:5.775;stroke-linecap:butt;stroke-linejoin:miter;stroke-miterlimit:1;stroke-dasharray:none;stroke-opacity:1"
       transform="matrix(0.13333333,0,0,-0.13333333,0,40.733333)"
       clip-path="url(#clipPath44)" />
    <path
       id="path45"
       d="m 91.6758,281.887 h 43.4062 l 91.652,-92.348 h 38.575"
       style="fill:none;stroke:#ffffff;stroke-width:5.775;stroke-linecap:butt;stroke-linejoin:miter;stroke-miterlimit:1;stroke-dasharray:none;stroke-opacity:1"
       transform="matrix(0.13333333,0,0,-0.13333333,0,40.733333)"
       clip-path="url(#clipPath46)" />
    <path
       id="path47"
       d="M 265.309,281.887 H 226.734 L 135.082,189.539 H 91.6758"
       style="fill:none;stroke:#ffffff;stroke-width:5.775;stroke-linecap:butt;stroke-linejoin:miter;stroke-miterlimit:1;stroke-dasharray:none;stroke-opacity:1"
       transform="matrix(0.13333333,0,0,-0.13333333,0,40.733333)"
       clip-path="url(#clipPath48)" />
    <path
       id="path49"
       d="M 178.492,286.75 V 184.68"
       style="fill:none;stroke:#ffffff;stroke-width:5.775;stroke-linecap:butt;stroke-linejoin:miter;stroke-miterlimit:1;stroke-dasharray:none;stroke-opacity:1"
       transform="matrix(0.13333333,0,0,-0.13333333,0,40.733333)"
       clip-path="url(#clipPath50)" />
    <path
       id="path51"
       d="m 156.586,73.1641 h 34.7188 v 30.1484 H 156.586 Z"
       style="fill:#ffffff;fill-opacity:1;fill-rule:nonzero;stroke:none"
       transform="matrix(0.13333333,0,0,-0.13333333,0,40.733333)"
       clip-path="url(#clipPath52)" />
    <path
       id="path53"
       d="M 228.824,90.8125 H 182.719"
       style="fill:none;stroke:#ffffff;stroke-width:10;stroke-linecap:butt;stroke-linejoin:miter;stroke-miterlimit:4;stroke-dasharray:none;stroke-opacity:1"
       transform="matrix(0.13333333,0,0,-0.13333333,0,40.733333)"
       clip-path="url(#clipPath54)" />
    <path
       id="path55"
       d="M 253.004,90.4609 210.57,73.1133 220.641,90.4609 210.57,107.781 253.004,90.4609"
       style="fill:#ffffff;fill-opacity:1;fill-rule:nonzero;stroke:none"
       transform="matrix(0.13333333,0,0,-0.13333333,0,40.733333)"
       clip-path="url(#clipPath56)" />
    <path
       id="path57"
       d="m 122.184,90.8125 h 38.035"
       style="fill:none;stroke:#ffffff;stroke-width:10;stroke-linecap:butt;stroke-linejoin:miter;stroke-miterlimit:4;stroke-dasharray:none;stroke-opacity:1"
       transform="matrix(0.13333333,0,0,-0.13333333,0,40.733333)"
       clip-path="url(#clipPath58)" />
    <path
       id="path59"
       d="M 139.723,108.789 129.645,91.4531 139.723,74.1133 97.2891,91.4531 139.723,108.789"
       style="fill:#ffffff;fill-opacity:1;fill-rule:nonzero;stroke:none"
       transform="matrix(0.13333333,0,0,-0.13333333,0,40.733333)"
       clip-path="url(#clipPath60)" />
    <path
       id="path61"
       d="M 174.117,137.617 V 94.3359"
       style="fill:none;stroke:#ffffff;stroke-width:10;stroke-linecap:butt;stroke-linejoin:miter;stroke-miterlimit:4;stroke-dasharray:none;stroke-opacity:1"
       transform="matrix(0.13333333,0,0,-0.13333333,0,40.733333)"
       clip-path="url(#clipPath62)" />
    <path
       id="path63"
       d="m 174.398,161.289 17.336,-42.43 -17.336,10.079 -17.332,-10.079 17.332,42.43"
       style="fill:#ffffff;fill-opacity:1;fill-rule:nonzero;stroke:none"
       transform="matrix(0.13333333,0,0,-0.13333333,0,40.733333)"
       clip-path="url(#clipPath64)" />
    <path
       id="path65"
       d="M 174.117,35.4883 V 78.0859"
       style="fill:none;stroke:#ffffff;stroke-width:10;stroke-linecap:butt;stroke-linejoin:miter;stroke-miterlimit:4;stroke-dasharray:none;stroke-opacity:1"
       transform="matrix(0.13333333,0,0,-0.13333333,0,40.733333)"
       clip-path="url(#clipPath66)" />
    <path
       id="path67"
       d="M 156.734,53.3984 174.066,43.3203 191.402,53.3984 174.066,10.957 156.734,53.3984"
       style="fill:#ffffff;fill-opacity:1;fill-rule:nonzero;stroke:none"
       transform="matrix(0.13333333,0,0,-0.13333333,0,40.733333)"
       clip-path="url(#clipPath68)" />
  </g>
</svg>
