<?xml version="1.0" encoding="UTF-8" standalone="no"?>
<!-- Created with Inkscape (http://www.inkscape.org/) -->

<svg
   version="1.1"
   id="svg1"
   width="35.693333"
   height="36.040001"
   viewBox="0 0 35.693333 36.040001"
   sodipodi:docname="programmable switch.eps"
   xmlns:inkscape="http://www.inkscape.org/namespaces/inkscape"
   xmlns:sodipodi="http://sodipodi.sourceforge.net/DTD/sodipodi-0.dtd"
   xmlns="http://www.w3.org/2000/svg"
   xmlns:svg="http://www.w3.org/2000/svg">
  <defs
     id="defs1" />
  <sodipodi:namedview
     id="namedview1"
     pagecolor="#505050"
     bordercolor="#eeeeee"
     borderopacity="1"
     inkscape:showpageshadow="0"
     inkscape:pageopacity="0"
     inkscape:pagecheckerboard="0"
     inkscape:deskcolor="#d1d1d1">
    <inkscape:page
       x="0"
       y="0"
       inkscape:label="1"
       id="page1"
       width="35.693333"
       height="36.040001"
       margin="0"
       bleed="0" />
  </sodipodi:namedview>
  <g
     id="g1"
     inkscape:groupmode="layer"
     inkscape:label="1">
    <path
       id="path1"
       d="m 5.46875,4.74219 h 215.996 v 219.75 H 5.46875 Z"
       style="fill:#026c9b;fill-opacity:1;fill-rule:nonzero;stroke:none"
       transform="matrix(0.13333333,0,0,-0.13333333,0,36.04)" />
    <path
       id="path2"
       d="M 221.465,4.74219 V 224.492 H 5.46875 V 4.74219 Z"
       style="fill:none;stroke:#ffffff;stroke-width:4;stroke-linecap:butt;stroke-linejoin:miter;stroke-miterlimit:4;stroke-dasharray:none;stroke-opacity:1"
       transform="matrix(0.13333333,0,0,-0.13333333,0,36.04)" />
    <path
       id="path3"
       d="m 113.457,153.477 h 66.414"
       style="fill:none;stroke:#ffffff;stroke-width:13;stroke-linecap:butt;stroke-linejoin:miter;stroke-miterlimit:4;stroke-dasharray:none;stroke-opacity:1"
       transform="matrix(0.13333333,0,0,-0.13333333,0,36.04)" />
    <path
       id="path4"
       d="m 182.344,173.426 v -38.453 l 23.176,18.472 -23.176,19.981"
       style="fill:#ffffff;fill-opacity:1;fill-rule:nonzero;stroke:none"
       transform="matrix(0.13333333,0,0,-0.13333333,0,36.04)" />
    <path
       id="path5"
       d="m 182.344,173.426 v -38.453 l 23.176,18.472 z"
       style="fill:none;stroke:#ffffff;stroke-width:2;stroke-linecap:butt;stroke-linejoin:miter;stroke-miterlimit:4;stroke-dasharray:none;stroke-opacity:1"
       transform="matrix(0.13333333,0,0,-0.13333333,0,36.04)" />
    <path
       id="path6"
       d="m 113.457,77.0273 h 66.414"
       style="fill:none;stroke:#ffffff;stroke-width:13;stroke-linecap:butt;stroke-linejoin:miter;stroke-miterlimit:4;stroke-dasharray:none;stroke-opacity:1"
       transform="matrix(0.13333333,0,0,-0.13333333,0,36.04)" />
    <path
       id="path7"
       d="M 182.344,97.2695 V 58.8125 L 205.52,77.2852 182.344,97.2695"
       style="fill:#ffffff;fill-opacity:1;fill-rule:nonzero;stroke:none"
       transform="matrix(0.13333333,0,0,-0.13333333,0,36.04)" />
    <path
       id="path8"
       d="M 182.344,97.2695 V 58.8125 L 205.52,77.2852 Z"
       style="fill:none;stroke:#ffffff;stroke-width:2;stroke-linecap:butt;stroke-linejoin:miter;stroke-miterlimit:4;stroke-dasharray:none;stroke-opacity:1"
       transform="matrix(0.13333333,0,0,-0.13333333,0,36.04)" />
    <path
       id="path9"
       d="m 75.2734,114.973 v 66.41"
       style="fill:none;stroke:#ffffff;stroke-width:13;stroke-linecap:butt;stroke-linejoin:miter;stroke-miterlimit:4;stroke-dasharray:none;stroke-opacity:1"
       transform="matrix(0.13333333,0,0,-0.13333333,0,36.04)" />
    <path
       id="path10"
       d="M 55.8398,183.563 H 94.2969 L 75.8203,206.727 55.8398,183.563"
       style="fill:#ffffff;fill-opacity:1;fill-rule:nonzero;stroke:none"
       transform="matrix(0.13333333,0,0,-0.13333333,0,36.04)" />
    <path
       id="path11"
       d="M 55.8398,183.563 H 94.2969 L 75.8203,206.727 Z"
       style="fill:none;stroke:#ffffff;stroke-width:2;stroke-linecap:butt;stroke-linejoin:miter;stroke-miterlimit:4;stroke-dasharray:none;stroke-opacity:1"
       transform="matrix(0.13333333,0,0,-0.13333333,0,36.04)" />
    <path
       id="path12"
       d="m 151.523,114.973 v 66.41"
       style="fill:none;stroke:#ffffff;stroke-width:13;stroke-linecap:butt;stroke-linejoin:miter;stroke-miterlimit:4;stroke-dasharray:none;stroke-opacity:1"
       transform="matrix(0.13333333,0,0,-0.13333333,0,36.04)" />
    <path
       id="path13"
       d="m 131.836,183.309 h 38.457 l -18.469,23.171 -19.988,-23.171"
       style="fill:#ffffff;fill-opacity:1;fill-rule:nonzero;stroke:none"
       transform="matrix(0.13333333,0,0,-0.13333333,0,36.04)" />
    <path
       id="path14"
       d="m 131.836,183.309 h 38.457 l -18.469,23.171 z"
       style="fill:none;stroke:#ffffff;stroke-width:2;stroke-linecap:butt;stroke-linejoin:miter;stroke-miterlimit:4;stroke-dasharray:none;stroke-opacity:1"
       transform="matrix(0.13333333,0,0,-0.13333333,0,36.04)" />
    <path
       id="path15"
       d="M 151.777,115.461 V 49.0469"
       style="fill:none;stroke:#ffffff;stroke-width:13;stroke-linecap:butt;stroke-linejoin:miter;stroke-miterlimit:4;stroke-dasharray:none;stroke-opacity:1"
       transform="matrix(0.13333333,0,0,-0.13333333,0,36.04)" />
    <path
       id="path16"
       d="m 171.094,46.8867 h -38.457 l 18.652,-23.1719 19.805,23.1719"
       style="fill:#ffffff;fill-opacity:1;fill-rule:nonzero;stroke:none"
       transform="matrix(0.13333333,0,0,-0.13333333,0,36.04)" />
    <path
       id="path17"
       d="M 171.094,46.8867 H 132.637 L 151.289,23.7148 Z"
       style="fill:none;stroke:#ffffff;stroke-width:2;stroke-linecap:butt;stroke-linejoin:miter;stroke-miterlimit:4;stroke-dasharray:none;stroke-opacity:1"
       transform="matrix(0.13333333,0,0,-0.13333333,0,36.04)" />
    <path
       id="path18"
       d="M 76.0547,115.461 V 49.0469"
       style="fill:none;stroke:#ffffff;stroke-width:13;stroke-linecap:butt;stroke-linejoin:miter;stroke-miterlimit:4;stroke-dasharray:none;stroke-opacity:1"
       transform="matrix(0.13333333,0,0,-0.13333333,0,36.04)" />
    <path
       id="path19"
       d="M 95.7617,46.8867 H 57.3047 L 75.957,23.7148 95.7617,46.8867"
       style="fill:#ffffff;fill-opacity:1;fill-rule:nonzero;stroke:none"
       transform="matrix(0.13333333,0,0,-0.13333333,0,36.04)" />
    <path
       id="path20"
       d="M 95.7617,46.8867 H 57.3047 L 75.957,23.7148 Z"
       style="fill:none;stroke:#ffffff;stroke-width:2;stroke-linecap:butt;stroke-linejoin:miter;stroke-miterlimit:4;stroke-dasharray:none;stroke-opacity:1"
       transform="matrix(0.13333333,0,0,-0.13333333,0,36.04)" />
    <path
       id="path21"
       d="M 114.414,77.0508 H 47.9883"
       style="fill:none;stroke:#ffffff;stroke-width:13;stroke-linecap:butt;stroke-linejoin:miter;stroke-miterlimit:4;stroke-dasharray:none;stroke-opacity:1"
       transform="matrix(0.13333333,0,0,-0.13333333,0,36.04)" />
    <path
       id="path22"
       d="M 45.293,56.8359 V 95.293 L 22.1289,76.8242 45.293,56.8359"
       style="fill:#ffffff;fill-opacity:1;fill-rule:nonzero;stroke:#ffffff;stroke-width:2;stroke-linecap:butt;stroke-linejoin:miter;stroke-miterlimit:4;stroke-dasharray:none;stroke-opacity:1"
       transform="matrix(0.13333333,0,0,-0.13333333,0,36.04)" />
    <path
       id="path23"
       d="M 114.414,153.301 H 47.9883"
       style="fill:none;stroke:#ffffff;stroke-width:13;stroke-linecap:butt;stroke-linejoin:miter;stroke-miterlimit:4;stroke-dasharray:none;stroke-opacity:1"
       transform="matrix(0.13333333,0,0,-0.13333333,0,36.04)" />
    <path
       id="path24"
       d="m 45.293,133.086 v 38.457 L 22.1289,153.074 45.293,133.086"
       style="fill:#ffffff;fill-opacity:1;fill-rule:nonzero;stroke:none"
       transform="matrix(0.13333333,0,0,-0.13333333,0,36.04)" />
    <path
       id="path25"
       d="m 45.293,133.086 v 38.457 L 22.1289,153.074 Z"
       style="fill:none;stroke:#ffffff;stroke-width:2;stroke-linecap:butt;stroke-linejoin:miter;stroke-miterlimit:4;stroke-dasharray:none;stroke-opacity:1"
       transform="matrix(0.13333333,0,0,-0.13333333,0,36.04)" />
    <path
       id="path26"
       d="M 220.715,224.734 H 5.71094 L 60.2148,268.238 H 265.715 V 267.988 49.8672 L 221.211,4.86719 V 223.484 l -0.496,1.25"
       style="fill:#026c9b;fill-opacity:1;fill-rule:nonzero;stroke:none"
       transform="matrix(0.13333333,0,0,-0.13333333,0,36.04)" />
    <path
       id="path27"
       d="M 220.715,224.734 H 5.71094 L 60.2148,268.238 H 265.715 V 267.988 49.8672 L 221.211,4.86719 V 223.484 Z"
       style="fill:none;stroke:#ffffff;stroke-width:4;stroke-linecap:butt;stroke-linejoin:miter;stroke-miterlimit:4;stroke-dasharray:none;stroke-opacity:1"
       transform="matrix(0.13333333,0,0,-0.13333333,0,36.04)" />
    <path
       id="path28"
       d="m 221.094,225.102 45,43.75"
       style="fill:#026c9b;fill-opacity:1;fill-rule:nonzero;stroke:#ffffff;stroke-width:4;stroke-linecap:butt;stroke-linejoin:miter;stroke-miterlimit:4;stroke-dasharray:none;stroke-opacity:1"
       transform="matrix(0.13333333,0,0,-0.13333333,0,36.04)" />
    <path
       id="path29"
       d="m 113.496,68.9297 c 25.344,0 45.891,20.5469 45.891,45.8833 0,25.343 -20.547,45.886 -45.891,45.886 -25.3319,0 -45.8788,-20.543 -45.8788,-45.886 0,-25.3364 20.5469,-45.8833 45.8788,-45.8833"
       style="fill:#026c9b;fill-opacity:1;fill-rule:nonzero;stroke:none"
       transform="matrix(0.13333333,0,0,-0.13333333,0,36.04)" />
    <path
       id="path30"
       d="m 113.496,68.9297 c 25.344,0 45.891,20.5469 45.891,45.8833 0,25.343 -20.547,45.886 -45.891,45.886 -25.3319,0 -45.8788,-20.543 -45.8788,-45.886 0,-25.3364 20.5469,-45.8833 45.8788,-45.8833 z"
       style="fill:none;stroke:#ffffff;stroke-width:4;stroke-linecap:butt;stroke-linejoin:miter;stroke-miterlimit:4;stroke-dasharray:none;stroke-opacity:1"
       transform="matrix(0.13333333,0,0,-0.13333333,0,36.04)" />
  </g>
</svg>
