<?xml version="1.0" encoding="UTF-8" standalone="no"?>
<!-- Created with Inkscape (http://www.inkscape.org/) -->

<svg
   version="1.1"
   id="svg1"
   width="45.959999"
   height="31.16"
   viewBox="0 0 45.959999 31.16"
   sodipodi:docname="router with silicon switch.eps"
   xmlns:inkscape="http://www.inkscape.org/namespaces/inkscape"
   xmlns:sodipodi="http://sodipodi.sourceforge.net/DTD/sodipodi-0.dtd"
   xmlns="http://www.w3.org/2000/svg"
   xmlns:svg="http://www.w3.org/2000/svg">
  <defs
     id="defs1">
    <clipPath
       clipPathUnits="userSpaceOnUse"
       id="clipPath2">
      <path
         d="M 0,3 V 234 H 340 V 3 Z"
         id="path2" />
    </clipPath>
    <clipPath
       clipPathUnits="userSpaceOnUse"
       id="clipPath4">
      <path
         d="M 0,3 V 234 H 340 V 3 Z"
         id="path4" />
    </clipPath>
    <clipPath
       clipPathUnits="userSpaceOnUse"
       id="clipPath6">
      <path
         d="M 0,3 V 234 H 340 V 3 Z"
         id="path6" />
    </clipPath>
    <clipPath
       clipPathUnits="userSpaceOnUse"
       id="clipPath8">
      <path
         d="M 0,3 V 234 H 340 V 3 Z"
         id="path8" />
    </clipPath>
    <clipPath
       clipPathUnits="userSpaceOnUse"
       id="clipPath10">
      <path
         d="M 0,3 V 234 H 340 V 3 Z"
         id="path10" />
    </clipPath>
    <clipPath
       clipPathUnits="userSpaceOnUse"
       id="clipPath12">
      <path
         d="M 0,3 V 234 H 340 V 3 Z"
         id="path12" />
    </clipPath>
    <clipPath
       clipPathUnits="userSpaceOnUse"
       id="clipPath14">
      <path
         d="M 0,3 V 234 H 340 V 3 Z"
         id="path14" />
    </clipPath>
    <clipPath
       clipPathUnits="userSpaceOnUse"
       id="clipPath16">
      <path
         d="M 0,3 V 234 H 340 V 3 Z"
         id="path16" />
    </clipPath>
    <clipPath
       clipPathUnits="userSpaceOnUse"
       id="clipPath18">
      <path
         d="M 0,3 V 234 H 340 V 3 Z"
         id="path18" />
    </clipPath>
    <clipPath
       clipPathUnits="userSpaceOnUse"
       id="clipPath20">
      <path
         d="M 0,3 V 234 H 340 V 3 Z"
         transform="matrix(0.1,0,0,-0.1,-14.4984,3.0195301)"
         id="path20" />
    </clipPath>
  </defs>
  <sodipodi:namedview
     id="namedview1"
     pagecolor="#505050"
     bordercolor="#eeeeee"
     borderopacity="1"
     inkscape:showpageshadow="0"
     inkscape:pageopacity="0"
     inkscape:pagecheckerboard="0"
     inkscape:deskcolor="#d1d1d1">
    <inkscape:page
       x="0"
       y="0"
       inkscape:label="1"
       id="page1"
       width="45.959999"
       height="31.16"
       margin="0"
       bleed="0" />
  </sodipodi:namedview>
  <g
     id="g1"
     inkscape:groupmode="layer"
     inkscape:label="1">
    <path
       id="path1"
       d="m 342.922,165.383 c 0,-36.613 -76.32,-66.2892 -170.461,-66.2892 C 78.3203,99.0938 2,128.77 2,165.383 V 68.2813 C 2,31.6797 78.3203,1.99219 172.461,1.99219 c 94.141,0 170.461,29.68751 170.461,66.28911 v 97.1017"
       style="fill:#026c9b;fill-opacity:1;fill-rule:nonzero;stroke:none"
       transform="matrix(0.13333333,0,0,-0.13333333,0,31.16)"
       clip-path="url(#clipPath2)" />
    <path
       id="path3"
       d="m 342.922,165.383 c 0,-36.613 -76.32,-66.2892 -170.461,-66.2892 C 78.3203,99.0938 2,128.77 2,165.383 V 68.2813 C 2,31.6797 78.3203,1.99219 172.461,1.99219 c 94.141,0 170.461,29.68751 170.461,66.28911 z"
       style="fill:none;stroke:#ffffff;stroke-width:4;stroke-linecap:butt;stroke-linejoin:miter;stroke-miterlimit:4;stroke-dasharray:none;stroke-opacity:1"
       transform="matrix(0.13333333,0,0,-0.13333333,0,31.16)"
       clip-path="url(#clipPath4)" />
    <path
       id="path5"
       d="m 172.461,99.0938 c 94.141,0 170.461,29.6762 170.461,66.2892 0,36.609 -76.32,66.297 -170.461,66.297 C 78.3203,231.68 2,201.992 2,165.383 2,128.77 78.3203,99.0938 172.461,99.0938"
       style="fill:#026c9b;fill-opacity:1;fill-rule:nonzero;stroke:#ffffff;stroke-width:4;stroke-linecap:butt;stroke-linejoin:miter;stroke-miterlimit:4;stroke-dasharray:none;stroke-opacity:1"
       transform="matrix(0.13333333,0,0,-0.13333333,0,31.16)"
       clip-path="url(#clipPath6)" />
    <path
       id="path7"
       d="m 120.789,182.891 19.914,-10.586 -43.621,-8.047 10.164,8.476 -75.8124,12.286 6.3594,5.078 75.383,-12.285 7.613,5.078"
       style="fill:#ffffff;fill-opacity:1;fill-rule:nonzero;stroke:none"
       transform="matrix(0.13333333,0,0,-0.13333333,0,31.16)"
       clip-path="url(#clipPath8)" />
    <path
       id="path9"
       d="m 224.641,149.531 -19.828,10.742 43.683,7.715 -10.226,-8.398 75.707,-12.86 -6.387,-5.031 -75.293,12.852 -7.656,-5.02"
       style="fill:#ffffff;fill-opacity:1;fill-rule:nonzero;stroke:none"
       transform="matrix(0.13333333,0,0,-0.13333333,0,31.16)"
       clip-path="url(#clipPath10)" />
    <path
       id="path11"
       d="m 202.109,204.922 38.106,15.664 -5.078,-19.473 -11.438,0.84 -28.797,-24.14 -9.738,2.121 28.801,23.289 -11.856,1.699"
       style="fill:#ffffff;fill-opacity:1;fill-rule:nonzero;stroke:none"
       transform="matrix(0.13333333,0,0,-0.13333333,0,31.16)"
       clip-path="url(#clipPath12)" />
    <path
       id="path13"
       d="m 148.855,128.184 -37.878,-16.2 4.804,19.539 11.446,-0.683 27.597,23.281 9.778,-1.973 -27.622,-22.441 11.875,-1.523"
       style="fill:#ffffff;fill-opacity:1;fill-rule:nonzero;stroke:none"
       transform="matrix(0.13333333,0,0,-0.13333333,0,31.16)"
       clip-path="url(#clipPath14)" />
    <path
       id="path15"
       d="m 170.879,11.6211 c 21.726,0 39.348,17.6172 39.348,39.3359 0,21.7383 -17.622,39.3555 -39.348,39.3555 -21.731,0 -39.348,-17.6172 -39.348,-39.3555 0,-21.7187 17.617,-39.3359 39.348,-39.3359"
       style="fill:#000000;fill-opacity:1;fill-rule:nonzero;stroke:none"
       transform="matrix(0.13333333,0,0,-0.13333333,0,31.16)"
       clip-path="url(#clipPath16)" />
    <path
       id="path17"
       d="m 170.879,11.6211 c 21.726,0 39.348,17.6172 39.348,39.3359 0,21.7383 -17.622,39.3555 -39.348,39.3555 -21.731,0 -39.348,-17.6172 -39.348,-39.3555 0,-21.7187 17.617,-39.3359 39.348,-39.3359 z"
       style="fill:none;stroke:#ffffff;stroke-width:4;stroke-linecap:butt;stroke-linejoin:miter;stroke-miterlimit:4;stroke-dasharray:none;stroke-opacity:1"
       transform="matrix(0.13333333,0,0,-0.13333333,0,31.16)"
       clip-path="url(#clipPath18)" />
    <path
       id="path19"
       d="m 3.5045297,-2.9188294 c -0.011719,-0.8789062 -0.5976563,-1.359375 -1.6523438,-1.359375 -1.00781246,0 -1.59374996,0.4804688 -1.59374996,1.3007813 0,0.6445312 0.328125,0.9609375 1.18359376,1.125 l 0.5859375,0.1171875 c 0.5742187,0.1054687 0.796875,0.2695312 0.796875,0.609375 0,0.35156247 -0.328125,0.56249997 -0.8554688,0.56249997 -0.5859375,0 -0.9140625,-0.24609375 -0.9375,-0.69140627 H 0.18812344 c 0.046875,0.89062502 0.66796875,1.38281252 1.73437496,1.38281252 1.0898438,0 1.7226563,-0.4921875 1.7226563,-1.35937502 0,-0.65625 -0.328125,-1.0078125 -1.1132813,-1.1601562 l -0.65625,-0.1289063 c -0.609375,-0.1171875 -0.796875,-0.234375 -0.796875,-0.5390625 0,-0.3164062 0.28125,-0.5273437 0.7265625,-0.5273437 0.5507813,0 0.8554688,0.234375 0.890625,0.6679687 z M 4.6646859,-3.1180481 H 3.8560922 v 3.117187475 h 0.8085937 z m 0,-1.0898438 H 3.8560922 v 0.7265625 h 0.8085937 z m 0,0"
       style="fill:#ffffff;fill-opacity:1;fill-rule:nonzero;stroke:none"
       aria-label="Si"
       transform="matrix(1.3333333,0,0,1.3333333,19.3312,27.13396)"
       clip-path="url(#clipPath20)" />
  </g>
</svg>
