<?xml version="1.0" encoding="UTF-8" standalone="no"?>
<!-- Created with Inkscape (http://www.inkscape.org/) -->

<svg
   version="1.1"
   id="svg1"
   width="41.799999"
   height="55.973331"
   viewBox="0 0 41.799999 55.973331"
   sodipodi:docname="route switch processor.eps"
   xmlns:inkscape="http://www.inkscape.org/namespaces/inkscape"
   xmlns:sodipodi="http://sodipodi.sourceforge.net/DTD/sodipodi-0.dtd"
   xmlns="http://www.w3.org/2000/svg"
   xmlns:svg="http://www.w3.org/2000/svg">
  <defs
     id="defs1">
    <clipPath
       clipPathUnits="userSpaceOnUse"
       id="clipPath2">
      <path
         d="M 0,420 H 310 V 0 H 0 Z"
         id="path2" />
    </clipPath>
    <clipPath
       clipPathUnits="userSpaceOnUse"
       id="clipPath4">
      <path
         d="M 0,420 H 310 V 0 H 0 Z"
         id="path4" />
    </clipPath>
    <clipPath
       clipPathUnits="userSpaceOnUse"
       id="clipPath6">
      <path
         d="M 0,420 H 310 V 0 H 0 Z"
         id="path6" />
    </clipPath>
    <clipPath
       clipPathUnits="userSpaceOnUse"
       id="clipPath8">
      <path
         d="M 0,420 H 310 V 0 H 0 Z"
         id="path8" />
    </clipPath>
    <clipPath
       clipPathUnits="userSpaceOnUse"
       id="clipPath10">
      <path
         d="M 0,420 H 310 V 0 H 0 Z"
         id="path10" />
    </clipPath>
    <clipPath
       clipPathUnits="userSpaceOnUse"
       id="clipPath12">
      <path
         d="M 0,420 H 310 V 0 H 0 Z"
         id="path12" />
    </clipPath>
    <clipPath
       clipPathUnits="userSpaceOnUse"
       id="clipPath14">
      <path
         d="M 0,420 H 310 V 0 H 0 Z"
         id="path14" />
    </clipPath>
    <clipPath
       clipPathUnits="userSpaceOnUse"
       id="clipPath16">
      <path
         d="M 0,420 H 310 V 0 H 0 Z"
         id="path16" />
    </clipPath>
    <clipPath
       clipPathUnits="userSpaceOnUse"
       id="clipPath18">
      <path
         d="M 0,420 H 310 V 0 H 0 Z"
         id="path18" />
    </clipPath>
    <clipPath
       clipPathUnits="userSpaceOnUse"
       id="clipPath20">
      <path
         d="M 0,420 H 310 V 0 H 0 Z"
         id="path20" />
    </clipPath>
    <clipPath
       clipPathUnits="userSpaceOnUse"
       id="clipPath22">
      <path
         d="M 0,420 H 310 V 0 H 0 Z"
         id="path22" />
    </clipPath>
    <clipPath
       clipPathUnits="userSpaceOnUse"
       id="clipPath24">
      <path
         d="M 0,420 H 310 V 0 H 0 Z"
         id="path24" />
    </clipPath>
    <clipPath
       clipPathUnits="userSpaceOnUse"
       id="clipPath26">
      <path
         d="M 0,420 H 310 V 0 H 0 Z"
         id="path26" />
    </clipPath>
    <clipPath
       clipPathUnits="userSpaceOnUse"
       id="clipPath28">
      <path
         d="M 0,420 H 310 V 0 H 0 Z"
         id="path28" />
    </clipPath>
    <clipPath
       clipPathUnits="userSpaceOnUse"
       id="clipPath30">
      <path
         d="M 0,420 H 310 V 0 H 0 Z"
         id="path30" />
    </clipPath>
    <clipPath
       clipPathUnits="userSpaceOnUse"
       id="clipPath32">
      <path
         d="M 0,420 H 310 V 0 H 0 Z"
         id="path32" />
    </clipPath>
    <clipPath
       clipPathUnits="userSpaceOnUse"
       id="clipPath34">
      <path
         d="M 0,420 H 310 V 0 H 0 Z"
         id="path34" />
    </clipPath>
    <clipPath
       clipPathUnits="userSpaceOnUse"
       id="clipPath36">
      <path
         d="M 0,420 H 310 V 0 H 0 Z"
         id="path36" />
    </clipPath>
    <clipPath
       clipPathUnits="userSpaceOnUse"
       id="clipPath38">
      <path
         d="M 0,420 H 310 V 0 H 0 Z"
         id="path38" />
    </clipPath>
    <clipPath
       clipPathUnits="userSpaceOnUse"
       id="clipPath40">
      <path
         d="M 0,420 H 310 V 0 H 0 Z"
         id="path40" />
    </clipPath>
    <clipPath
       clipPathUnits="userSpaceOnUse"
       id="clipPath42">
      <path
         d="M 0,420 H 310 V 0 H 0 Z"
         id="path42" />
    </clipPath>
    <clipPath
       clipPathUnits="userSpaceOnUse"
       id="clipPath44">
      <path
         d="M 0,420 H 310 V 0 H 0 Z"
         id="path44" />
    </clipPath>
    <clipPath
       clipPathUnits="userSpaceOnUse"
       id="clipPath46">
      <path
         d="M 0,420 H 310 V 0 H 0 Z"
         id="path46" />
    </clipPath>
    <clipPath
       clipPathUnits="userSpaceOnUse"
       id="clipPath48">
      <path
         d="M 0,420 H 310 V 0 H 0 Z"
         id="path48" />
    </clipPath>
    <clipPath
       clipPathUnits="userSpaceOnUse"
       id="clipPath50">
      <path
         d="M 0,420 H 310 V 0 H 0 Z"
         id="path50" />
    </clipPath>
    <clipPath
       clipPathUnits="userSpaceOnUse"
       id="clipPath52">
      <path
         d="M 0,420 H 310 V 0 H 0 Z"
         id="path52" />
    </clipPath>
    <clipPath
       clipPathUnits="userSpaceOnUse"
       id="clipPath54">
      <path
         d="M 0,420 H 310 V 0 H 0 Z"
         id="path54" />
    </clipPath>
    <clipPath
       clipPathUnits="userSpaceOnUse"
       id="clipPath56">
      <path
         d="M 0,420 H 310 V 0 H 0 Z"
         id="path56" />
    </clipPath>
    <clipPath
       clipPathUnits="userSpaceOnUse"
       id="clipPath58">
      <path
         d="M 0,420 H 310 V 0 H 0 Z"
         id="path58" />
    </clipPath>
  </defs>
  <sodipodi:namedview
     id="namedview1"
     pagecolor="#505050"
     bordercolor="#eeeeee"
     borderopacity="1"
     inkscape:showpageshadow="0"
     inkscape:pageopacity="0"
     inkscape:pagecheckerboard="0"
     inkscape:deskcolor="#d1d1d1">
    <inkscape:page
       x="0"
       y="0"
       inkscape:label="1"
       id="page1"
       width="41.799999"
       height="55.973331"
       margin="0"
       bleed="0" />
  </sodipodi:namedview>
  <g
     id="g1"
     inkscape:groupmode="layer"
     inkscape:label="1">
    <path
       id="path1"
       d="m 6.46484,4.79688 h 268.262 v 268.008 H 6.46484 Z"
       style="fill:#026c9b;fill-opacity:1;fill-rule:nonzero;stroke:none"
       transform="matrix(0.13333333,0,0,-0.13333333,0,55.973333)"
       clip-path="url(#clipPath2)" />
    <path
       id="path3"
       d="M 6.46484,4.79688 V 272.805 H 274.727 V 4.79688 Z"
       style="fill:none;stroke:#ffffff;stroke-width:4;stroke-linecap:butt;stroke-linejoin:miter;stroke-miterlimit:4;stroke-dasharray:none;stroke-opacity:1"
       transform="matrix(0.13333333,0,0,-0.13333333,0,55.973333)"
       clip-path="url(#clipPath4)" />
    <path
       id="path5"
       d="M 308.613,38.3398 V 306.359 L 274.727,272.805 V 4.79688 l 33.886,33.54292"
       style="fill:#026c9b;fill-opacity:1;fill-rule:nonzero;stroke:none"
       transform="matrix(0.13333333,0,0,-0.13333333,0,55.973333)"
       clip-path="url(#clipPath6)" />
    <path
       id="path7"
       d="M 308.613,38.3398 V 306.359 L 274.727,272.805 V 4.79688 Z"
       style="fill:none;stroke:#ffffff;stroke-width:4;stroke-linecap:butt;stroke-linejoin:miter;stroke-miterlimit:4;stroke-dasharray:none;stroke-opacity:1"
       transform="matrix(0.13333333,0,0,-0.13333333,0,55.973333)"
       clip-path="url(#clipPath8)" />
    <path
       id="path9"
       d="M 55.5195,415.012 6.46484,381.457 H 274.727 l 33.886,33.555 H 55.5195"
       style="fill:#026c9b;fill-opacity:1;fill-rule:nonzero;stroke:none"
       transform="matrix(0.13333333,0,0,-0.13333333,0,55.973333)"
       clip-path="url(#clipPath10)" />
    <path
       id="path11"
       d="M 55.5195,415.012 6.46484,381.457 H 274.727 l 33.886,33.555 z"
       style="fill:none;stroke:#ffffff;stroke-width:4;stroke-linecap:butt;stroke-linejoin:miter;stroke-miterlimit:4;stroke-dasharray:none;stroke-opacity:1"
       transform="matrix(0.13333333,0,0,-0.13333333,0,55.973333)"
       clip-path="url(#clipPath12)" />
    <path
       id="path13"
       d="m 6.46484,272.805 h 268.262 V 381.457 H 6.46484 Z"
       style="fill:#026c9b;fill-opacity:1;fill-rule:nonzero;stroke:none"
       transform="matrix(0.13333333,0,0,-0.13333333,0,55.973333)"
       clip-path="url(#clipPath14)" />
    <path
       id="path15"
       d="M 6.46484,272.805 V 381.457 H 274.727 V 272.805 Z"
       style="fill:none;stroke:#ffffff;stroke-width:4;stroke-linecap:butt;stroke-linejoin:miter;stroke-miterlimit:4;stroke-dasharray:none;stroke-opacity:1"
       transform="matrix(0.13333333,0,0,-0.13333333,0,55.973333)"
       clip-path="url(#clipPath16)" />
    <path
       id="path17"
       d="M 308.613,306.359 V 415.012 L 274.727,381.457 V 272.805 l 33.886,33.554"
       style="fill:#026c9b;fill-opacity:1;fill-rule:nonzero;stroke:none"
       transform="matrix(0.13333333,0,0,-0.13333333,0,55.973333)"
       clip-path="url(#clipPath18)" />
    <path
       id="path19"
       d="M 308.613,306.359 V 415.012 L 274.727,381.457 V 272.805 Z"
       style="fill:none;stroke:#ffffff;stroke-width:4;stroke-linecap:butt;stroke-linejoin:miter;stroke-miterlimit:4;stroke-dasharray:none;stroke-opacity:1"
       transform="matrix(0.13333333,0,0,-0.13333333,0,55.973333)"
       clip-path="url(#clipPath20)" />
    <path
       id="path21"
       d="M 274.727,272.805 H 6.46484"
       style="fill:#026c9b;fill-opacity:1;fill-rule:nonzero;stroke:#ffffff;stroke-width:4;stroke-linecap:butt;stroke-linejoin:miter;stroke-miterlimit:4;stroke-dasharray:none;stroke-opacity:1"
       transform="matrix(0.13333333,0,0,-0.13333333,0,55.973333)"
       clip-path="url(#clipPath22)" />
    <path
       id="path23"
       d="m 274.727,272.805 33.886,33.554"
       style="fill:#026c9b;fill-opacity:1;fill-rule:nonzero;stroke:#ffffff;stroke-width:4;stroke-linecap:butt;stroke-linejoin:miter;stroke-miterlimit:4;stroke-dasharray:none;stroke-opacity:1"
       transform="matrix(0.13333333,0,0,-0.13333333,0,55.973333)"
       clip-path="url(#clipPath24)" />
    <path
       id="path25"
       d="m 50.2344,344.348 h 43.2734 v 22.5195 H 50.2344 Z"
       style="fill:#ffffff;fill-opacity:1;fill-rule:nonzero;stroke:none"
       transform="matrix(0.13333333,0,0,-0.13333333,0,55.973333)"
       clip-path="url(#clipPath26)" />
    <path
       id="path27"
       d="m 192.402,344.348 h 43.2617 v 22.5195 H 192.402 Z"
       style="fill:#ffffff;fill-opacity:1;fill-rule:nonzero;stroke:none"
       transform="matrix(0.13333333,0,0,-0.13333333,0,55.973333)"
       clip-path="url(#clipPath28)" />
    <path
       id="path29"
       d="m 50.2344,288.047 h 43.2734 v 22.5195 H 50.2344 Z"
       style="fill:#ffffff;fill-opacity:1;fill-rule:nonzero;stroke:none"
       transform="matrix(0.13333333,0,0,-0.13333333,0,55.973333)"
       clip-path="url(#clipPath30)" />
    <path
       id="path31"
       d="m 192.402,288.047 h 43.2617 v 22.5195 H 192.402 Z"
       style="fill:#ffffff;fill-opacity:1;fill-rule:nonzero;stroke:none"
       transform="matrix(0.13333333,0,0,-0.13333333,0,55.973333)"
       clip-path="url(#clipPath32)" />
    <path
       id="path33"
       d="M 79.5977,355.605 H 212.48"
       style="fill:#000000;fill-opacity:1;fill-rule:nonzero;stroke:#ffffff;stroke-width:4;stroke-linecap:butt;stroke-linejoin:miter;stroke-miterlimit:4;stroke-dasharray:none;stroke-opacity:1"
       transform="matrix(0.13333333,0,0,-0.13333333,0,55.973333)"
       clip-path="url(#clipPath34)" />
    <path
       id="path35"
       d="M 79.5977,299.309 H 212.48"
       style="fill:#000000;fill-opacity:1;fill-rule:nonzero;stroke:#ffffff;stroke-width:4;stroke-linecap:butt;stroke-linejoin:miter;stroke-miterlimit:4;stroke-dasharray:none;stroke-opacity:1"
       transform="matrix(0.13333333,0,0,-0.13333333,0,55.973333)"
       clip-path="url(#clipPath36)" />
    <path
       id="path37"
       d="M 71.875,299.309 212.48,355.605"
       style="fill:#000000;fill-opacity:1;fill-rule:nonzero;stroke:#ffffff;stroke-width:4;stroke-linecap:butt;stroke-linejoin:miter;stroke-miterlimit:4;stroke-dasharray:none;stroke-opacity:1"
       transform="matrix(0.13333333,0,0,-0.13333333,0,55.973333)"
       clip-path="url(#clipPath38)" />
    <path
       id="path39"
       d="M 71.875,355.605 212.48,299.309"
       style="fill:#000000;fill-opacity:1;fill-rule:nonzero;stroke:#ffffff;stroke-width:4;stroke-linecap:butt;stroke-linejoin:miter;stroke-miterlimit:4;stroke-dasharray:none;stroke-opacity:1"
       transform="matrix(0.13333333,0,0,-0.13333333,0,55.973333)"
       clip-path="url(#clipPath40)" />
    <path
       id="path41"
       d="m 146.406,177.773 v 57.989 h 9.844 l -14.52,21.886 -14.523,-21.886 h 9.844 v -57.989 h 9.355"
       style="fill:#ffffff;fill-opacity:1;fill-rule:nonzero;stroke:none"
       transform="matrix(0.13333333,0,0,-0.13333333,0,55.973333)"
       clip-path="url(#clipPath42)" />
    <path
       id="path43"
       d="m 116.816,169.395 -40.9957,41.007 6.9531,6.953 -25.7421,5.215 5.2148,-25.746 6.9531,6.957 40.9958,-41.008 6.621,6.622"
       style="fill:#ffffff;fill-opacity:1;fill-rule:nonzero;stroke:none"
       transform="matrix(0.13333333,0,0,-0.13333333,0,55.973333)"
       clip-path="url(#clipPath44)" />
    <path
       id="path45"
       d="M 101.824,142.551 H 43.8281 v 9.832 l -21.875,-14.512 21.875,-14.519 v 9.843 h 57.9959 v 9.356"
       style="fill:#ffffff;fill-opacity:1;fill-rule:nonzero;stroke:none"
       transform="matrix(0.13333333,0,0,-0.13333333,0,55.973333)"
       clip-path="url(#clipPath46)" />
    <path
       id="path47"
       d="m 110.195,112.969 -40.9958,-41.0042 -6.9531,6.9493 -5.2148,-25.7383 25.7421,5.2148 -6.9531,6.9532 40.9957,41.0042 -6.621,6.621"
       style="fill:#ffffff;fill-opacity:1;fill-rule:nonzero;stroke:none"
       transform="matrix(0.13333333,0,0,-0.13333333,0,55.973333)"
       clip-path="url(#clipPath48)" />
    <path
       id="path49"
       d="M 137.051,97.9688 V 39.9805 h -9.844 l 14.523,-21.8946 14.52,21.8946 h -9.844 v 57.9883 h -9.355"
       style="fill:#ffffff;fill-opacity:1;fill-rule:nonzero;stroke:none"
       transform="matrix(0.13333333,0,0,-0.13333333,0,55.973333)"
       clip-path="url(#clipPath50)" />
    <path
       id="path51"
       d="m 166.633,106.348 41.004,-41.0042 -6.953,-6.9532 25.742,-5.2148 -5.215,25.7383 -6.953,-6.9493 -41.016,41.0042 -6.609,-6.621"
       style="fill:#ffffff;fill-opacity:1;fill-rule:nonzero;stroke:none"
       transform="matrix(0.13333333,0,0,-0.13333333,0,55.973333)"
       clip-path="url(#clipPath52)" />
    <path
       id="path53"
       d="m 181.633,133.195 h 57.984 v -9.843 l 21.887,14.519 -21.887,14.512 v -9.832 h -57.984 v -9.356"
       style="fill:#ffffff;fill-opacity:1;fill-rule:nonzero;stroke:none"
       transform="matrix(0.13333333,0,0,-0.13333333,0,55.973333)"
       clip-path="url(#clipPath54)" />
    <path
       id="path55"
       d="m 173.242,162.773 41.016,41.008 6.953,-6.957 5.215,25.746 -25.742,-5.215 6.953,-6.953 -41.004,-41.007 6.609,-6.622"
       style="fill:#ffffff;fill-opacity:1;fill-rule:nonzero;stroke:none"
       transform="matrix(0.13333333,0,0,-0.13333333,0,55.973333)"
       clip-path="url(#clipPath56)" />
    <path
       id="path57"
       d="m 177.207,89.2695 c 27.168,19.0195 33.77,56.4645 14.746,83.6215 C 172.93,200.059 135.488,206.66 108.32,187.637 81.1602,168.613 74.5703,131.172 93.5859,104.016 112.598,76.8477 150.039,70.2539 177.207,89.2695"
       style="fill:#ffffff;fill-opacity:1;fill-rule:nonzero;stroke:none"
       transform="matrix(0.13333333,0,0,-0.13333333,0,55.973333)"
       clip-path="url(#clipPath58)" />
  </g>
</svg>
