<?xml version="1.0" encoding="UTF-8" standalone="no"?>
<!-- Created with Inkscape (http://www.inkscape.org/) -->

<svg
   version="1.1"
   id="svg1"
   width="26.293333"
   height="42.32"
   viewBox="0 0 26.293333 42.32"
   sodipodi:docname="server with router.eps"
   xmlns:inkscape="http://www.inkscape.org/namespaces/inkscape"
   xmlns:sodipodi="http://sodipodi.sourceforge.net/DTD/sodipodi-0.dtd"
   xmlns="http://www.w3.org/2000/svg"
   xmlns:svg="http://www.w3.org/2000/svg">
  <defs
     id="defs1" />
  <sodipodi:namedview
     id="namedview1"
     pagecolor="#505050"
     bordercolor="#eeeeee"
     borderopacity="1"
     inkscape:showpageshadow="0"
     inkscape:pageopacity="0"
     inkscape:pagecheckerboard="0"
     inkscape:deskcolor="#d1d1d1">
    <inkscape:page
       x="0"
       y="0"
       inkscape:label="1"
       id="page1"
       width="26.293333"
       height="42.32"
       margin="0"
       bleed="0" />
  </sodipodi:namedview>
  <g
     id="g1"
     inkscape:groupmode="layer"
     inkscape:label="1">
    <path
       id="path1"
       d="m 5.62891,5.63672 h 161.621 v 281.852 H 5.62891 Z"
       style="fill:#026c9b;fill-opacity:1;fill-rule:nonzero;stroke:none"
       transform="matrix(0.13333333,0,0,-0.13333333,0,42.32)" />
    <path
       id="path2"
       d="M 167.25,5.63672 V 287.488 H 5.62891 V 5.63672 Z"
       style="fill:none;stroke:#ffffff;stroke-width:4;stroke-linecap:butt;stroke-linejoin:miter;stroke-miterlimit:4;stroke-dasharray:none;stroke-opacity:1"
       transform="matrix(0.13333333,0,0,-0.13333333,0,42.32)" />
    <path
       id="path3"
       d="M 5.62891,287.488 36.5078,312.59 H 192.348 L 167.25,287.488 H 5.62891"
       style="fill:#026c9b;fill-opacity:1;fill-rule:nonzero;stroke:none"
       transform="matrix(0.13333333,0,0,-0.13333333,0,42.32)" />
    <path
       id="path4"
       d="M 5.62891,287.488 36.5078,312.59 H 192.348 L 167.25,287.488 Z"
       style="fill:none;stroke:#ffffff;stroke-width:4;stroke-linecap:butt;stroke-linejoin:miter;stroke-miterlimit:4;stroke-dasharray:none;stroke-opacity:1"
       transform="matrix(0.13333333,0,0,-0.13333333,0,42.32)" />
    <path
       id="path5"
       d="M 167.25,5.63672 192.348,36.5234 V 312.59 L 167.25,287.488 V 5.63672"
       style="fill:#026c9b;fill-opacity:1;fill-rule:nonzero;stroke:none"
       transform="matrix(0.13333333,0,0,-0.13333333,0,42.32)" />
    <path
       id="path6"
       d="M 167.25,5.63672 192.348,36.5234 V 312.59 L 167.25,287.488 Z"
       style="fill:none;stroke:#ffffff;stroke-width:4;stroke-linecap:butt;stroke-linejoin:miter;stroke-miterlimit:4;stroke-dasharray:none;stroke-opacity:1"
       transform="matrix(0.13333333,0,0,-0.13333333,0,42.32)" />
    <path
       id="path7"
       d="M 5.57031,176.746 H 166.469"
       style="fill:#026c9b;fill-opacity:1;fill-rule:nonzero;stroke:#ffffff;stroke-width:4;stroke-linecap:butt;stroke-linejoin:miter;stroke-miterlimit:4;stroke-dasharray:none;stroke-opacity:1"
       transform="matrix(0.13333333,0,0,-0.13333333,0,42.32)" />
    <path
       id="path8"
       d="M 5.57031,24.8711 H 166.469"
       style="fill:none;stroke:#ffffff;stroke-width:3;stroke-linecap:butt;stroke-linejoin:miter;stroke-miterlimit:4;stroke-dasharray:none;stroke-opacity:1"
       transform="matrix(0.13333333,0,0,-0.13333333,0,42.32)" />
    <path
       id="path9"
       d="m 74.1836,87.1172 v -23.125 h -9.043 L 83.2461,40.8789 101.84,63.9922 h -9.0431 v 23.125 H 74.1836"
       style="fill:#ffffff;fill-opacity:1;fill-rule:nonzero;stroke:none"
       transform="matrix(0.13333333,0,0,-0.13333333,0,42.32)" />
    <path
       id="path10"
       d="m 74.1836,105.48 v 23.125 h -9.043 L 83.2461,151.73 101.84,128.605 H 92.7969 V 105.48 H 74.1836"
       style="fill:#ffffff;fill-opacity:1;fill-rule:nonzero;stroke:none"
       transform="matrix(0.13333333,0,0,-0.13333333,0,42.32)" />
    <path
       id="path11"
       d="m 27.0547,104.402 h 23.1367 v 9.043 L 73.3164,95.3438 50.1914,76.7461 v 9.043 H 27.0547 v 18.6129"
       style="fill:#ffffff;fill-opacity:1;fill-rule:nonzero;stroke:none"
       transform="matrix(0.13333333,0,0,-0.13333333,0,42.32)" />
    <path
       id="path12"
       d="m 139.301,104.402 h -23.125 v 9.043 L 93.0508,95.3438 116.176,76.7461 v 9.043 h 23.125 v 18.6129"
       style="fill:#ffffff;fill-opacity:1;fill-rule:nonzero;stroke:none"
       transform="matrix(0.13333333,0,0,-0.13333333,0,42.32)" />
    <path
       id="path13"
       d="m 18.4609,236.711 h 75 v 30.8203 h -75 z"
       style="fill:#026c9b;fill-opacity:1;fill-rule:nonzero;stroke:none"
       transform="matrix(0.13333333,0,0,-0.13333333,0,42.32)" />
    <path
       id="path14"
       d="m 93.4609,236.711 v 30.82 h -75 v -30.82 z"
       style="fill:none;stroke:#ffffff;stroke-width:4;stroke-linecap:butt;stroke-linejoin:miter;stroke-miterlimit:4;stroke-dasharray:none;stroke-opacity:1"
       transform="matrix(0.13333333,0,0,-0.13333333,0,42.32)" />
    <path
       id="path15"
       d="M 25.9609,251.066 H 86.8008"
       style="fill:none;stroke:#ffffff;stroke-width:4;stroke-linecap:butt;stroke-linejoin:miter;stroke-miterlimit:4;stroke-dasharray:none;stroke-opacity:1"
       transform="matrix(0.13333333,0,0,-0.13333333,0,42.32)" />
  </g>
</svg>
