<?xml version="1.0" encoding="UTF-8" standalone="no"?>
<!-- Created with Inkscape (http://www.inkscape.org/) -->

<svg
   version="1.1"
   id="svg1"
   width="37.720001"
   height="38.119999"
   viewBox="0 0 37.720001 38.119999"
   sodipodi:docname="simulitlayer switch.eps"
   xmlns:inkscape="http://www.inkscape.org/namespaces/inkscape"
   xmlns:sodipodi="http://sodipodi.sourceforge.net/DTD/sodipodi-0.dtd"
   xmlns="http://www.w3.org/2000/svg"
   xmlns:svg="http://www.w3.org/2000/svg">
  <defs
     id="defs1">
    <clipPath
       clipPathUnits="userSpaceOnUse"
       id="clipPath2">
      <path
         d="M 0,286 H 280 V 0 H 0 Z"
         id="path2" />
    </clipPath>
    <clipPath
       clipPathUnits="userSpaceOnUse"
       id="clipPath4">
      <path
         d="M 0,286 H 280 V 0 H 0 Z"
         id="path4" />
    </clipPath>
    <clipPath
       clipPathUnits="userSpaceOnUse"
       id="clipPath6">
      <path
         d="M 0,286 H 280 V 0 H 0 Z"
         id="path6" />
    </clipPath>
    <clipPath
       clipPathUnits="userSpaceOnUse"
       id="clipPath8">
      <path
         d="M 0,286 H 280 V 0 H 0 Z"
         id="path8" />
    </clipPath>
    <clipPath
       clipPathUnits="userSpaceOnUse"
       id="clipPath10">
      <path
         d="M 0,286 H 280 V 0 H 0 Z"
         id="path10" />
    </clipPath>
    <clipPath
       clipPathUnits="userSpaceOnUse"
       id="clipPath12">
      <path
         d="M 0,286 H 280 V 0 H 0 Z"
         id="path12" />
    </clipPath>
    <clipPath
       clipPathUnits="userSpaceOnUse"
       id="clipPath14">
      <path
         d="M 0,286 H 280 V 0 H 0 Z"
         id="path14" />
    </clipPath>
    <clipPath
       clipPathUnits="userSpaceOnUse"
       id="clipPath16">
      <path
         d="M 0,286 H 280 V 0 H 0 Z"
         id="path16" />
    </clipPath>
    <clipPath
       clipPathUnits="userSpaceOnUse"
       id="clipPath18">
      <path
         d="M 0,286 H 280 V 0 H 0 Z"
         id="path18" />
    </clipPath>
    <clipPath
       clipPathUnits="userSpaceOnUse"
       id="clipPath20">
      <path
         d="M 0,286 H 280 V 0 H 0 Z"
         id="path20" />
    </clipPath>
    <clipPath
       clipPathUnits="userSpaceOnUse"
       id="clipPath22">
      <path
         d="M 0,286 H 280 V 0 H 0 Z"
         id="path22" />
    </clipPath>
    <clipPath
       clipPathUnits="userSpaceOnUse"
       id="clipPath24">
      <path
         d="M 0,286 H 280 V 0 H 0 Z"
         id="path24" />
    </clipPath>
    <clipPath
       clipPathUnits="userSpaceOnUse"
       id="clipPath26">
      <path
         d="M 0,286 H 280 V 0 H 0 Z"
         id="path26" />
    </clipPath>
    <clipPath
       clipPathUnits="userSpaceOnUse"
       id="clipPath28">
      <path
         d="M 0,286 H 280 V 0 H 0 Z"
         id="path28" />
    </clipPath>
    <clipPath
       clipPathUnits="userSpaceOnUse"
       id="clipPath30">
      <path
         d="M 0,286 H 280 V 0 H 0 Z"
         id="path30" />
    </clipPath>
    <clipPath
       clipPathUnits="userSpaceOnUse"
       id="clipPath32">
      <path
         d="M 0,286 H 280 V 0 H 0 Z"
         id="path32" />
    </clipPath>
    <clipPath
       clipPathUnits="userSpaceOnUse"
       id="clipPath34">
      <path
         d="M 0,286 H 280 V 0 H 0 Z"
         id="path34" />
    </clipPath>
    <clipPath
       clipPathUnits="userSpaceOnUse"
       id="clipPath36">
      <path
         d="M 0,286 H 280 V 0 H 0 Z"
         id="path36" />
    </clipPath>
    <clipPath
       clipPathUnits="userSpaceOnUse"
       id="clipPath38">
      <path
         d="M 0,286 H 280 V 0 H 0 Z"
         id="path38" />
    </clipPath>
    <clipPath
       clipPathUnits="userSpaceOnUse"
       id="clipPath40">
      <path
         d="M 0,286 H 280 V 0 H 0 Z"
         id="path40" />
    </clipPath>
    <clipPath
       clipPathUnits="userSpaceOnUse"
       id="clipPath42">
      <path
         d="M 0,286 H 280 V 0 H 0 Z"
         id="path42" />
    </clipPath>
    <clipPath
       clipPathUnits="userSpaceOnUse"
       id="clipPath44">
      <path
         d="M 0,286 H 280 V 0 H 0 Z"
         id="path44" />
    </clipPath>
    <clipPath
       clipPathUnits="userSpaceOnUse"
       id="clipPath46">
      <path
         d="M 0,286 H 280 V 0 H 0 Z"
         id="path46" />
    </clipPath>
    <clipPath
       clipPathUnits="userSpaceOnUse"
       id="clipPath48">
      <path
         d="M 0,286 H 280 V 0 H 0 Z"
         id="path48" />
    </clipPath>
    <clipPath
       clipPathUnits="userSpaceOnUse"
       id="clipPath50">
      <path
         d="M 0,286 H 280 V 0 H 0 Z"
         id="path50" />
    </clipPath>
    <clipPath
       clipPathUnits="userSpaceOnUse"
       id="clipPath52">
      <path
         d="M 0,286 H 280 V 0 H 0 Z"
         id="path52" />
    </clipPath>
    <clipPath
       clipPathUnits="userSpaceOnUse"
       id="clipPath54">
      <path
         d="M 0,286 H 280 V 0 H 0 Z"
         id="path54" />
    </clipPath>
    <clipPath
       clipPathUnits="userSpaceOnUse"
       id="clipPath56">
      <path
         d="M 0,286 H 280 V 0 H 0 Z"
         id="path56" />
    </clipPath>
    <clipPath
       clipPathUnits="userSpaceOnUse"
       id="clipPath58">
      <path
         d="M 0,286 H 280 V 0 H 0 Z"
         id="path58" />
    </clipPath>
    <clipPath
       clipPathUnits="userSpaceOnUse"
       id="clipPath60">
      <path
         d="M 0,286 H 280 V 0 H 0 Z"
         transform="matrix(0.1,0,0,-0.1,-8.6734405,9.7289102)"
         id="path60" />
    </clipPath>
  </defs>
  <sodipodi:namedview
     id="namedview1"
     pagecolor="#505050"
     bordercolor="#eeeeee"
     borderopacity="1"
     inkscape:showpageshadow="0"
     inkscape:pageopacity="0"
     inkscape:pagecheckerboard="0"
     inkscape:deskcolor="#d1d1d1">
    <inkscape:page
       x="0"
       y="0"
       inkscape:label="1"
       id="page1"
       width="37.720001"
       height="38.119999"
       margin="0"
       bleed="0" />
  </sodipodi:namedview>
  <g
     id="g1"
     inkscape:groupmode="layer"
     inkscape:label="1">
    <path
       id="path1"
       d="m 5.32813,4.57813 h 226.801 v 230.738 H 5.32813 Z"
       style="fill:#026c9b;fill-opacity:1;fill-rule:nonzero;stroke:none"
       transform="matrix(0.13333333,0,0,-0.13333333,0,38.12)"
       clip-path="url(#clipPath2)" />
    <path
       id="path3"
       d="M 232.129,4.57813 V 235.316 H 5.32813 V 4.57813 Z"
       style="fill:none;stroke:#ffffff;stroke-width:4;stroke-linecap:butt;stroke-linejoin:miter;stroke-miterlimit:4;stroke-dasharray:none;stroke-opacity:1"
       transform="matrix(0.13333333,0,0,-0.13333333,0,38.12)"
       clip-path="url(#clipPath4)" />
    <path
       id="path5"
       d="M 278.008,281.27 231.465,235.395 H 5.0625 L 54.0977,281.27 H 278.008"
       style="fill:#026c9b;fill-opacity:1;fill-rule:nonzero;stroke:none"
       transform="matrix(0.13333333,0,0,-0.13333333,0,38.12)"
       clip-path="url(#clipPath6)" />
    <path
       id="path7"
       d="M 278.008,281.27 231.465,235.395 H 5.0625 l 49.0352,45.875 z"
       style="fill:none;stroke:#ffffff;stroke-width:4;stroke-linecap:butt;stroke-linejoin:miter;stroke-miterlimit:4;stroke-dasharray:none;stroke-opacity:1"
       transform="matrix(0.13333333,0,0,-0.13333333,0,38.12)"
       clip-path="url(#clipPath8)" />
    <path
       id="path9"
       d="M 278.281,60.1758 V 281.113 L 232.344,235.176 V 5.48828 l 45.937,54.68752"
       style="fill:#026c9b;fill-opacity:1;fill-rule:nonzero;stroke:none"
       transform="matrix(0.13333333,0,0,-0.13333333,0,38.12)"
       clip-path="url(#clipPath10)" />
    <path
       id="path11"
       d="M 278.281,60.1758 V 281.113 L 232.344,235.176 V 5.48828 Z"
       style="fill:none;stroke:#ffffff;stroke-width:4;stroke-linecap:butt;stroke-linejoin:miter;stroke-miterlimit:4;stroke-dasharray:none;stroke-opacity:1"
       transform="matrix(0.13333333,0,0,-0.13333333,0,38.12)"
       clip-path="url(#clipPath12)" />
    <path
       id="path13"
       d="m 119.234,167.004 c 25.391,0 45.961,-20.582 45.961,-45.965 0,-25.3867 -20.57,-45.9648 -45.961,-45.9648 -25.3824,0 -45.9567,20.5781 -45.9567,45.9648 0,25.383 20.5743,45.965 45.9567,45.965"
       style="fill:#ffffff;fill-opacity:1;fill-rule:nonzero;stroke:none"
       transform="matrix(0.13333333,0,0,-0.13333333,0,38.12)"
       clip-path="url(#clipPath14)" />
    <path
       id="path15"
       d="m 119.234,167.004 v 46.535"
       style="fill:#ffffff;fill-opacity:1;fill-rule:nonzero;stroke:#ffffff;stroke-width:4;stroke-linecap:butt;stroke-linejoin:miter;stroke-miterlimit:4;stroke-dasharray:none;stroke-opacity:1"
       transform="matrix(0.13333333,0,0,-0.13333333,0,38.12)"
       clip-path="url(#clipPath16)" />
    <path
       id="path17"
       d="m 119.859,224.949 16.629,-33.797 h -33.25 l 16.621,33.797"
       style="fill:#ffffff;fill-opacity:1;fill-rule:nonzero;stroke:none"
       transform="matrix(0.13333333,0,0,-0.13333333,0,38.12)"
       clip-path="url(#clipPath18)" />
    <path
       id="path19"
       d="m 119.859,224.949 16.629,-33.797 h -33.25 z"
       style="fill:none;stroke:#ffffff;stroke-width:4;stroke-linecap:butt;stroke-linejoin:miter;stroke-miterlimit:4;stroke-dasharray:none;stroke-opacity:1"
       transform="matrix(0.13333333,0,0,-0.13333333,0,38.12)"
       clip-path="url(#clipPath20)" />
    <path
       id="path21"
       d="M 86.7344,153.539 53.8242,186.445"
       style="fill:#ffffff;fill-opacity:1;fill-rule:nonzero;stroke:#ffffff;stroke-width:4;stroke-linecap:butt;stroke-linejoin:miter;stroke-miterlimit:4;stroke-dasharray:none;stroke-opacity:1"
       transform="matrix(0.13333333,0,0,-0.13333333,0,38.12)"
       clip-path="url(#clipPath22)" />
    <path
       id="path23"
       d="M 46.207,194.957 81.8516,182.816 58.3438,159.301 46.207,194.957"
       style="fill:#ffffff;fill-opacity:1;fill-rule:nonzero;stroke:#ffffff;stroke-width:4;stroke-linecap:butt;stroke-linejoin:miter;stroke-miterlimit:4;stroke-dasharray:none;stroke-opacity:1"
       transform="matrix(0.13333333,0,0,-0.13333333,0,38.12)"
       clip-path="url(#clipPath24)" />
    <path
       id="path25"
       d="M 73.2773,121.039 H 26.7344"
       style="fill:#ffffff;fill-opacity:1;fill-rule:nonzero;stroke:#ffffff;stroke-width:4;stroke-linecap:butt;stroke-linejoin:miter;stroke-miterlimit:4;stroke-dasharray:none;stroke-opacity:1"
       transform="matrix(0.13333333,0,0,-0.13333333,0,38.12)"
       clip-path="url(#clipPath26)" />
    <path
       id="path27"
       d="M 15.3281,121.664 49.125,138.293 V 105.039 L 15.3281,121.664"
       style="fill:#ffffff;fill-opacity:1;fill-rule:nonzero;stroke:none"
       transform="matrix(0.13333333,0,0,-0.13333333,0,38.12)"
       clip-path="url(#clipPath28)" />
    <path
       id="path29"
       d="M 15.3281,121.664 49.125,138.293 V 105.039 Z"
       style="fill:none;stroke:#ffffff;stroke-width:4;stroke-linecap:butt;stroke-linejoin:miter;stroke-miterlimit:4;stroke-dasharray:none;stroke-opacity:1"
       transform="matrix(0.13333333,0,0,-0.13333333,0,38.12)"
       clip-path="url(#clipPath30)" />
    <path
       id="path31"
       d="M 86.7344,88.5391 53.8242,55.6289"
       style="fill:#ffffff;fill-opacity:1;fill-rule:nonzero;stroke:#ffffff;stroke-width:4;stroke-linecap:butt;stroke-linejoin:miter;stroke-miterlimit:4;stroke-dasharray:none;stroke-opacity:1"
       transform="matrix(0.13333333,0,0,-0.13333333,0,38.12)"
       clip-path="url(#clipPath32)" />
    <path
       id="path33"
       d="M 45.3164,48.0039 57.457,83.6563 80.9727,60.1445 45.3164,48.0039"
       style="fill:#ffffff;fill-opacity:1;fill-rule:nonzero;stroke:#ffffff;stroke-width:4;stroke-linecap:butt;stroke-linejoin:miter;stroke-miterlimit:4;stroke-dasharray:none;stroke-opacity:1"
       transform="matrix(0.13333333,0,0,-0.13333333,0,38.12)"
       clip-path="url(#clipPath34)" />
    <path
       id="path35"
       d="M 119.234,75.0742 V 28.5391"
       style="fill:#ffffff;fill-opacity:1;fill-rule:nonzero;stroke:#ffffff;stroke-width:4;stroke-linecap:butt;stroke-linejoin:miter;stroke-miterlimit:4;stroke-dasharray:none;stroke-opacity:1"
       transform="matrix(0.13333333,0,0,-0.13333333,0,38.12)"
       clip-path="url(#clipPath36)" />
    <path
       id="path37"
       d="m 118.609,17.125 -16.621,33.7969 h 33.25 L 118.609,17.125"
       style="fill:#ffffff;fill-opacity:1;fill-rule:nonzero;stroke:none"
       transform="matrix(0.13333333,0,0,-0.13333333,0,38.12)"
       clip-path="url(#clipPath38)" />
    <path
       id="path39"
       d="m 118.609,17.125 -16.621,33.7969 h 33.25 z"
       style="fill:none;stroke:#ffffff;stroke-width:4;stroke-linecap:butt;stroke-linejoin:miter;stroke-miterlimit:4;stroke-dasharray:none;stroke-opacity:1"
       transform="matrix(0.13333333,0,0,-0.13333333,0,38.12)"
       clip-path="url(#clipPath40)" />
    <path
       id="path41"
       d="M 151.734,88.5391 184.648,55.6289"
       style="fill:#ffffff;fill-opacity:1;fill-rule:nonzero;stroke:#ffffff;stroke-width:4;stroke-linecap:butt;stroke-linejoin:miter;stroke-miterlimit:4;stroke-dasharray:none;stroke-opacity:1"
       transform="matrix(0.13333333,0,0,-0.13333333,0,38.12)"
       clip-path="url(#clipPath42)" />
    <path
       id="path43"
       d="m 192.266,47.1172 -35.649,12.1445 23.52,23.5156 12.129,-35.6601"
       style="fill:#ffffff;fill-opacity:1;fill-rule:nonzero;stroke:none"
       transform="matrix(0.13333333,0,0,-0.13333333,0,38.12)"
       clip-path="url(#clipPath44)" />
    <path
       id="path45"
       d="m 192.266,47.1172 -35.649,12.1445 23.52,23.5156 z"
       style="fill:none;stroke:#ffffff;stroke-width:4;stroke-linecap:butt;stroke-linejoin:miter;stroke-miterlimit:4;stroke-dasharray:none;stroke-opacity:1"
       transform="matrix(0.13333333,0,0,-0.13333333,0,38.12)"
       clip-path="url(#clipPath46)" />
    <path
       id="path47"
       d="m 165.195,121.039 h 46.543"
       style="fill:#ffffff;fill-opacity:1;fill-rule:nonzero;stroke:#ffffff;stroke-width:4;stroke-linecap:butt;stroke-linejoin:miter;stroke-miterlimit:4;stroke-dasharray:none;stroke-opacity:1"
       transform="matrix(0.13333333,0,0,-0.13333333,0,38.12)"
       clip-path="url(#clipPath48)" />
    <path
       id="path49"
       d="m 223.145,120.414 -33.79,-16.625 v 33.254 l 33.79,-16.629"
       style="fill:#ffffff;fill-opacity:1;fill-rule:nonzero;stroke:none"
       transform="matrix(0.13333333,0,0,-0.13333333,0,38.12)"
       clip-path="url(#clipPath50)" />
    <path
       id="path51"
       d="m 223.145,120.414 -33.79,-16.625 v 33.254 z"
       style="fill:none;stroke:#ffffff;stroke-width:4;stroke-linecap:butt;stroke-linejoin:miter;stroke-miterlimit:4;stroke-dasharray:none;stroke-opacity:1"
       transform="matrix(0.13333333,0,0,-0.13333333,0,38.12)"
       clip-path="url(#clipPath52)" />
    <path
       id="path53"
       d="m 151.734,153.539 32.914,32.906"
       style="fill:#ffffff;fill-opacity:1;fill-rule:nonzero;stroke:#ffffff;stroke-width:4;stroke-linecap:butt;stroke-linejoin:miter;stroke-miterlimit:4;stroke-dasharray:none;stroke-opacity:1"
       transform="matrix(0.13333333,0,0,-0.13333333,0,38.12)"
       clip-path="url(#clipPath54)" />
    <path
       id="path55"
       d="m 193.164,194.078 -12.148,-35.66 -23.52,23.512 35.668,12.148"
       style="fill:#ffffff;fill-opacity:1;fill-rule:nonzero;stroke:none"
       transform="matrix(0.13333333,0,0,-0.13333333,0,38.12)"
       clip-path="url(#clipPath56)" />
    <path
       id="path57"
       d="m 193.164,194.078 -12.148,-35.66 -23.52,23.512 z"
       style="fill:none;stroke:#ffffff;stroke-width:4;stroke-linecap:butt;stroke-linejoin:miter;stroke-miterlimit:4;stroke-dasharray:none;stroke-opacity:1"
       transform="matrix(0.13333333,0,0,-0.13333333,0,38.12)"
       clip-path="url(#clipPath58)" />
    <path
       id="path59"
       d="m 4.1732397,-3.5974181 c 0,-0.3515625 -0.023437,-0.4570313 -0.140625,-0.6914063 -0.2695313,-0.5859375 -0.8671875,-0.890625 -1.734375,-0.890625 -1.1132813,0 -1.80468751,0.5742188 -1.80468751,1.4882813 0,0.6328125 0.328125,1.0195312 0.99609371,1.1953125 l 1.265625,0.3398437 c 0.65625,0.1640625 0.9375,0.421875 0.9375,0.8203125 0,0.2695313 -0.140625,0.55078127 -0.3632812,0.70312502 -0.1992188,0.15234375 -0.5273438,0.22265625 -0.9375,0.22265625 -0.5625,0 -0.9257813,-0.140625 -1.171875,-0.43359375 C 1.0326147,-1.0661681 0.95058344,-1.3122619 0.95058344,-1.6286681 h -0.609375 c 0,0.46875 0.09375,0.78515622 0.29296875,1.06640622 0.3515625,0.48046875 0.93750001,0.7265625 1.72265621,0.7265625 0.609375,0 1.1015625,-0.140625 1.4296875,-0.3984375 0.3398438,-0.26953125 0.5625,-0.7265625 0.5625,-1.16015622 0,-0.6328125 -0.3984375,-1.1015625 -1.0898437,-1.2890625 L 1.9818334,-3.0231994 c -0.6210937,-0.1640625 -0.84375,-0.3632812 -0.84375,-0.75 0,-0.5273437 0.4570313,-0.8671875 1.1484375,-0.8671875 0.8085938,0 1.265625,0.3632813 1.265625,1.0429688 z m 1.5498047,-0.070312 H 5.1371069 V 2.38125e-4 h 0.5859375 z m 0,-1.4296875 H 5.1253881 v 0.7265625 h 0.5976563 z m 0,0"
       style="fill:#026c9b;fill-opacity:1;fill-rule:nonzero;stroke:none"
       aria-label="Si"
       transform="matrix(1.3333333,0,0,1.3333333,11.564587,25.14812)"
       clip-path="url(#clipPath60)" />
  </g>
</svg>
