<?xml version="1.0" encoding="UTF-8" standalone="no"?>
<!-- Created with Inkscape (http://www.inkscape.org/) -->

<svg
   version="1.1"
   id="svg1"
   width="57.16"
   height="28.76"
   viewBox="0 0 57.16 28.76"
   sodipodi:docname="small hub.eps"
   xmlns:inkscape="http://www.inkscape.org/namespaces/inkscape"
   xmlns:sodipodi="http://sodipodi.sourceforge.net/DTD/sodipodi-0.dtd"
   xmlns="http://www.w3.org/2000/svg"
   xmlns:svg="http://www.w3.org/2000/svg">
  <defs
     id="defs1" />
  <sodipodi:namedview
     id="namedview1"
     pagecolor="#505050"
     bordercolor="#eeeeee"
     borderopacity="1"
     inkscape:showpageshadow="0"
     inkscape:pageopacity="0"
     inkscape:pagecheckerboard="0"
     inkscape:deskcolor="#d1d1d1">
    <inkscape:page
       x="0"
       y="0"
       inkscape:label="1"
       id="page1"
       width="57.16"
       height="28.76"
       margin="0"
       bleed="0" />
  </sodipodi:namedview>
  <g
     id="g1"
     inkscape:groupmode="layer"
     inkscape:label="1">
    <path
       id="path1"
       d="M 375.805,111.863 425.504,213.73 H 81.3906 L 4.02734,111.863 H 375.805"
       style="fill:#026c9b;fill-opacity:1;fill-rule:nonzero;stroke:none"
       transform="matrix(0.13333333,0,0,-0.13333333,0,28.76)" />
    <path
       id="path2"
       d="M 375.805,111.863 425.504,213.73 H 81.3906 L 4.02734,111.863 Z"
       style="fill:none;stroke:#ffffff;stroke-width:4;stroke-linecap:butt;stroke-linejoin:miter;stroke-miterlimit:4;stroke-dasharray:none;stroke-opacity:1"
       transform="matrix(0.13333333,0,0,-0.13333333,0,28.76)" />
    <path
       id="path3"
       d="M 425.523,121.277 425.504,213.73 375.805,111.863 V 2.00391 L 425.523,121.277"
       style="fill:#026c9b;fill-opacity:1;fill-rule:nonzero;stroke:none"
       transform="matrix(0.13333333,0,0,-0.13333333,0,28.76)" />
    <path
       id="path4"
       d="M 425.523,121.277 425.504,213.73 375.805,111.863 V 2.00391 Z"
       style="fill:none;stroke:#ffffff;stroke-width:4;stroke-linecap:butt;stroke-linejoin:miter;stroke-miterlimit:4;stroke-dasharray:none;stroke-opacity:1"
       transform="matrix(0.13333333,0,0,-0.13333333,0,28.76)" />
    <path
       id="path5"
       d="M 375.805,2.00391 V 111.863 H 3.98047 L 4.11719,2.00391 H 375.805"
       style="fill:#026c9b;fill-opacity:1;fill-rule:nonzero;stroke:none"
       transform="matrix(0.13333333,0,0,-0.13333333,0,28.76)" />
    <path
       id="path6"
       d="M 375.805,2.00391 V 111.863 H 3.98047 L 4.11719,2.00391 Z"
       style="fill:none;stroke:#ffffff;stroke-width:4;stroke-linecap:butt;stroke-linejoin:miter;stroke-miterlimit:4;stroke-dasharray:none;stroke-opacity:1"
       transform="matrix(0.13333333,0,0,-0.13333333,0,28.76)" />
    <path
       id="path7"
       d="m 43.1875,18.9648 h 22.5 v 22.5 h -22.5 z"
       style="fill:#026c9b;fill-opacity:1;fill-rule:nonzero;stroke:none"
       transform="matrix(0.13333333,0,0,-0.13333333,0,28.76)" />
    <path
       id="path8"
       d="m 65.6875,18.9648 v 22.5 h -22.5 v -22.5 z"
       style="fill:none;stroke:#ffffff;stroke-width:4;stroke-linecap:butt;stroke-linejoin:miter;stroke-miterlimit:4;stroke-dasharray:none;stroke-opacity:1"
       transform="matrix(0.13333333,0,0,-0.13333333,0,28.76)" />
    <path
       id="path9"
       d="m 75.6875,18.9648 h 22.5 v 22.5 h -22.5 z"
       style="fill:#026c9b;fill-opacity:1;fill-rule:nonzero;stroke:none"
       transform="matrix(0.13333333,0,0,-0.13333333,0,28.76)" />
    <path
       id="path10"
       d="m 98.1875,18.9648 v 22.5 h -22.5 v -22.5 z"
       style="fill:none;stroke:#ffffff;stroke-width:4;stroke-linecap:butt;stroke-linejoin:miter;stroke-miterlimit:4;stroke-dasharray:none;stroke-opacity:1"
       transform="matrix(0.13333333,0,0,-0.13333333,0,28.76)" />
    <path
       id="path11"
       d="m 108.188,18.9648 h 22.5 v 22.5 h -22.5 z"
       style="fill:#026c9b;fill-opacity:1;fill-rule:nonzero;stroke:none"
       transform="matrix(0.13333333,0,0,-0.13333333,0,28.76)" />
    <path
       id="path12"
       d="m 130.688,18.9648 v 22.5 h -22.5 v -22.5 z"
       style="fill:none;stroke:#ffffff;stroke-width:4;stroke-linecap:butt;stroke-linejoin:miter;stroke-miterlimit:4;stroke-dasharray:none;stroke-opacity:1"
       transform="matrix(0.13333333,0,0,-0.13333333,0,28.76)" />
    <path
       id="path13"
       d="m 140.688,18.9648 h 22.5 v 22.5 h -22.5 z"
       style="fill:#026c9b;fill-opacity:1;fill-rule:nonzero;stroke:none"
       transform="matrix(0.13333333,0,0,-0.13333333,0,28.76)" />
    <path
       id="path14"
       d="m 163.188,18.9648 v 22.5 h -22.5 v -22.5 z"
       style="fill:none;stroke:#ffffff;stroke-width:4;stroke-linecap:butt;stroke-linejoin:miter;stroke-miterlimit:4;stroke-dasharray:none;stroke-opacity:1"
       transform="matrix(0.13333333,0,0,-0.13333333,0,28.76)" />
    <path
       id="path15"
       d="m 173.188,18.9648 h 22.5 v 22.5 h -22.5 z"
       style="fill:#026c9b;fill-opacity:1;fill-rule:nonzero;stroke:none"
       transform="matrix(0.13333333,0,0,-0.13333333,0,28.76)" />
    <path
       id="path16"
       d="m 195.688,18.9648 v 22.5 h -22.5 v -22.5 z"
       style="fill:none;stroke:#ffffff;stroke-width:4;stroke-linecap:butt;stroke-linejoin:miter;stroke-miterlimit:4;stroke-dasharray:none;stroke-opacity:1"
       transform="matrix(0.13333333,0,0,-0.13333333,0,28.76)" />
    <path
       id="path17"
       d="m 205.688,18.9648 h 22.5 v 22.5 h -22.5 z"
       style="fill:#026c9b;fill-opacity:1;fill-rule:nonzero;stroke:none"
       transform="matrix(0.13333333,0,0,-0.13333333,0,28.76)" />
    <path
       id="path18"
       d="m 228.188,18.9648 v 22.5 h -22.5 v -22.5 z"
       style="fill:none;stroke:#ffffff;stroke-width:4;stroke-linecap:butt;stroke-linejoin:miter;stroke-miterlimit:4;stroke-dasharray:none;stroke-opacity:1"
       transform="matrix(0.13333333,0,0,-0.13333333,0,28.76)" />
    <path
       id="path19"
       d="m 238.188,18.9648 h 22.5 v 22.5 h -22.5 z"
       style="fill:#026c9b;fill-opacity:1;fill-rule:nonzero;stroke:none"
       transform="matrix(0.13333333,0,0,-0.13333333,0,28.76)" />
    <path
       id="path20"
       d="m 260.688,18.9648 v 22.5 h -22.5 v -22.5 z"
       style="fill:none;stroke:#ffffff;stroke-width:4;stroke-linecap:butt;stroke-linejoin:miter;stroke-miterlimit:4;stroke-dasharray:none;stroke-opacity:1"
       transform="matrix(0.13333333,0,0,-0.13333333,0,28.76)" />
    <path
       id="path21"
       d="m 270.688,18.9648 h 22.5 v 22.5 h -22.5 z"
       style="fill:#026c9b;fill-opacity:1;fill-rule:nonzero;stroke:none"
       transform="matrix(0.13333333,0,0,-0.13333333,0,28.76)" />
    <path
       id="path22"
       d="m 293.188,18.9648 v 22.5 h -22.5 v -22.5 z"
       style="fill:none;stroke:#ffffff;stroke-width:4;stroke-linecap:butt;stroke-linejoin:miter;stroke-miterlimit:4;stroke-dasharray:none;stroke-opacity:1"
       transform="matrix(0.13333333,0,0,-0.13333333,0,28.76)" />
    <path
       id="path23"
       d="m 303.188,18.9648 h 22.5 v 22.5 h -22.5 z"
       style="fill:#026c9b;fill-opacity:1;fill-rule:nonzero;stroke:none"
       transform="matrix(0.13333333,0,0,-0.13333333,0,28.76)" />
    <path
       id="path24"
       d="m 325.688,18.9648 v 22.5 h -22.5 v -22.5 z"
       style="fill:none;stroke:#ffffff;stroke-width:4;stroke-linecap:butt;stroke-linejoin:miter;stroke-miterlimit:4;stroke-dasharray:none;stroke-opacity:1"
       transform="matrix(0.13333333,0,0,-0.13333333,0,28.76)" />
    <path
       id="path25"
       d="m 316.332,167.352 11.641,13.867 24.797,-15.731 -49.465,-13.8 10.254,11.191 h -98.731 l 3.496,4.473 h 98.008"
       style="fill:#ffffff;fill-opacity:1;fill-rule:nonzero;stroke:none"
       transform="matrix(0.13333333,0,0,-0.13333333,0,28.76)" />
    <path
       id="path26"
       d="m 224.234,167.43 -2.871,-4.571 h -98 L 112.965,152.84 86.3906,165.574 139.809,182.371 126.234,167.43 h 98"
       style="fill:#ffffff;fill-opacity:1;fill-rule:nonzero;stroke:none"
       transform="matrix(0.13333333,0,0,-0.13333333,0,28.76)" />
  </g>
</svg>
