<?xml version="1.0" encoding="UTF-8" standalone="no"?>
<!-- Created with Inkscape (http://www.inkscape.org/) -->

<svg
   version="1.1"
   id="svg1"
   width="36.333332"
   height="42.853333"
   viewBox="0 0 36.333332 42.853333"
   sodipodi:docname="softswitch pgw mgc.eps"
   xmlns:inkscape="http://www.inkscape.org/namespaces/inkscape"
   xmlns:sodipodi="http://sodipodi.sourceforge.net/DTD/sodipodi-0.dtd"
   xmlns="http://www.w3.org/2000/svg"
   xmlns:svg="http://www.w3.org/2000/svg">
  <defs
     id="defs1">
    <clipPath
       clipPathUnits="userSpaceOnUse"
       id="clipPath2">
      <path
         d="M 0,1 V 321 H 270 V 1 Z"
         id="path2" />
    </clipPath>
    <clipPath
       clipPathUnits="userSpaceOnUse"
       id="clipPath4">
      <path
         d="M 0,1 V 321 H 270 V 1 Z"
         id="path4" />
    </clipPath>
    <clipPath
       clipPathUnits="userSpaceOnUse"
       id="clipPath6">
      <path
         d="M 0,1 V 321 H 270 V 1 Z"
         id="path6" />
    </clipPath>
    <clipPath
       clipPathUnits="userSpaceOnUse"
       id="clipPath8">
      <path
         d="M 0,1 V 321 H 270 V 1 Z"
         id="path8" />
    </clipPath>
    <clipPath
       clipPathUnits="userSpaceOnUse"
       id="clipPath10">
      <path
         d="M 0,1 V 321 H 270 V 1 Z"
         id="path10" />
    </clipPath>
    <clipPath
       clipPathUnits="userSpaceOnUse"
       id="clipPath12">
      <path
         d="M 0,1 V 321 H 270 V 1 Z"
         id="path12" />
    </clipPath>
    <clipPath
       clipPathUnits="userSpaceOnUse"
       id="clipPath14">
      <path
         d="M 0,1 V 321 H 270 V 1 Z"
         id="path14" />
    </clipPath>
    <clipPath
       clipPathUnits="userSpaceOnUse"
       id="clipPath16">
      <path
         d="M 0,1 V 321 H 270 V 1 Z"
         id="path16" />
    </clipPath>
    <clipPath
       clipPathUnits="userSpaceOnUse"
       id="clipPath18">
      <path
         d="M 0,1 V 321 H 270 V 1 Z"
         id="path18" />
    </clipPath>
    <clipPath
       clipPathUnits="userSpaceOnUse"
       id="clipPath20">
      <path
         d="M 0,1 V 321 H 270 V 1 Z"
         id="path20" />
    </clipPath>
    <clipPath
       clipPathUnits="userSpaceOnUse"
       id="clipPath22">
      <path
         d="M 0,1 V 321 H 270 V 1 Z"
         id="path22" />
    </clipPath>
    <clipPath
       clipPathUnits="userSpaceOnUse"
       id="clipPath24">
      <path
         d="M 0,1 V 321 H 270 V 1 Z"
         id="path24" />
    </clipPath>
    <clipPath
       clipPathUnits="userSpaceOnUse"
       id="clipPath26">
      <path
         d="M 0,1 V 321 H 270 V 1 Z"
         id="path26" />
    </clipPath>
    <clipPath
       clipPathUnits="userSpaceOnUse"
       id="clipPath28">
      <path
         d="M 0,1 V 321 H 270 V 1 Z"
         id="path28" />
    </clipPath>
    <clipPath
       clipPathUnits="userSpaceOnUse"
       id="clipPath30">
      <path
         d="M 0,1 V 321 H 270 V 1 Z"
         id="path30" />
    </clipPath>
    <clipPath
       clipPathUnits="userSpaceOnUse"
       id="clipPath32">
      <path
         d="M 0,1 V 321 H 270 V 1 Z"
         id="path32" />
    </clipPath>
    <clipPath
       clipPathUnits="userSpaceOnUse"
       id="clipPath34">
      <path
         d="M 0,1 V 321 H 270 V 1 Z"
         id="path34" />
    </clipPath>
    <clipPath
       clipPathUnits="userSpaceOnUse"
       id="clipPath36">
      <path
         d="M 0,1 V 321 H 270 V 1 Z"
         id="path36" />
    </clipPath>
  </defs>
  <sodipodi:namedview
     id="namedview1"
     pagecolor="#505050"
     bordercolor="#eeeeee"
     borderopacity="1"
     inkscape:showpageshadow="0"
     inkscape:pageopacity="0"
     inkscape:pagecheckerboard="0"
     inkscape:deskcolor="#d1d1d1">
    <inkscape:page
       x="0"
       y="0"
       inkscape:label="1"
       id="page1"
       width="36.333332"
       height="42.853333"
       margin="0"
       bleed="0" />
  </sodipodi:namedview>
  <g
     id="g1"
     inkscape:groupmode="layer"
     inkscape:label="1">
    <path
       id="path1"
       d="M 50.6641,84.7734 H 43.4375 C 7.28516,84.7734 2,117.273 2,117.273 V 83.5234 c 0,0 5.28516,-32.5 41.4375,-32.5 h 6.6016"
       style="fill:#ffffff;fill-opacity:1;fill-rule:nonzero;stroke:#026c9b;stroke-width:4;stroke-linecap:butt;stroke-linejoin:miter;stroke-miterlimit:4;stroke-dasharray:none;stroke-opacity:1"
       transform="matrix(0.13333333,0,0,-0.13333333,0,42.853333)"
       clip-path="url(#clipPath2)" />
    <path
       id="path3"
       d="m 42.9609,7.63672 h 161.629 v 281.855 H 42.9609 Z"
       style="fill:#026c9b;fill-opacity:1;fill-rule:nonzero;stroke:none"
       transform="matrix(0.13333333,0,0,-0.13333333,0,42.853333)"
       clip-path="url(#clipPath4)" />
    <path
       id="path5"
       d="M 42.9609,289.492 73.8398,314.59 H 229.68 L 204.59,289.492 H 42.9609"
       style="fill:#026c9b;fill-opacity:1;fill-rule:nonzero;stroke:none"
       transform="matrix(0.13333333,0,0,-0.13333333,0,42.853333)"
       clip-path="url(#clipPath6)" />
    <path
       id="path7"
       d="M 204.59,7.63672 229.68,38.5234 V 314.59 L 204.59,289.492 V 7.63672"
       style="fill:#026c9b;fill-opacity:1;fill-rule:nonzero;stroke:none"
       transform="matrix(0.13333333,0,0,-0.13333333,0,42.853333)"
       clip-path="url(#clipPath8)" />
    <path
       id="path9"
       d="m 42.9609,7.63672 h 161.629 v 281.855 H 42.9609 Z"
       style="fill:#026c9b;fill-opacity:1;fill-rule:nonzero;stroke:none"
       transform="matrix(0.13333333,0,0,-0.13333333,0,42.853333)"
       clip-path="url(#clipPath10)" />
    <path
       id="path11"
       d="M 204.59,7.63672 V 289.492 H 42.9609 V 7.63672 Z"
       style="fill:none;stroke:#ffffff;stroke-width:4;stroke-linecap:butt;stroke-linejoin:miter;stroke-miterlimit:4;stroke-dasharray:none;stroke-opacity:1"
       transform="matrix(0.13333333,0,0,-0.13333333,0,42.853333)"
       clip-path="url(#clipPath12)" />
    <path
       id="path13"
       d="M 42.9609,289.492 73.8398,314.59 H 229.68 L 204.59,289.492 H 42.9609"
       style="fill:#026c9b;fill-opacity:1;fill-rule:nonzero;stroke:none"
       transform="matrix(0.13333333,0,0,-0.13333333,0,42.853333)"
       clip-path="url(#clipPath14)" />
    <path
       id="path15"
       d="M 42.9609,289.492 73.8398,314.59 H 229.68 l -25.09,-25.098 z"
       style="fill:none;stroke:#ffffff;stroke-width:4;stroke-linecap:butt;stroke-linejoin:miter;stroke-miterlimit:4;stroke-dasharray:none;stroke-opacity:1"
       transform="matrix(0.13333333,0,0,-0.13333333,0,42.853333)"
       clip-path="url(#clipPath16)" />
    <path
       id="path17"
       d="M 204.59,7.63672 229.68,38.5234 V 314.59 L 204.59,289.492 V 7.63672"
       style="fill:#026c9b;fill-opacity:1;fill-rule:nonzero;stroke:none"
       transform="matrix(0.13333333,0,0,-0.13333333,0,42.853333)"
       clip-path="url(#clipPath18)" />
    <path
       id="path19"
       d="M 204.59,7.63672 229.68,38.5234 V 314.59 l -25.09,-25.098 z"
       style="fill:none;stroke:#ffffff;stroke-width:4;stroke-linecap:butt;stroke-linejoin:miter;stroke-miterlimit:4;stroke-dasharray:none;stroke-opacity:1"
       transform="matrix(0.13333333,0,0,-0.13333333,0,42.853333)"
       clip-path="url(#clipPath20)" />
    <path
       id="path21"
       d="M 204.59,7.63672 V 289.492 H 42.9609 V 7.63672 Z"
       style="fill:none;stroke:#ffffff;stroke-width:4;stroke-linecap:butt;stroke-linejoin:miter;stroke-miterlimit:4;stroke-dasharray:none;stroke-opacity:1"
       transform="matrix(0.13333333,0,0,-0.13333333,0,42.853333)"
       clip-path="url(#clipPath22)" />
    <path
       id="path23"
       d="M 42.9609,289.492 73.8398,314.59 H 229.68 l -25.09,-25.098 z"
       style="fill:none;stroke:#ffffff;stroke-width:4;stroke-linecap:butt;stroke-linejoin:miter;stroke-miterlimit:4;stroke-dasharray:none;stroke-opacity:1"
       transform="matrix(0.13333333,0,0,-0.13333333,0,42.853333)"
       clip-path="url(#clipPath24)" />
    <path
       id="path25"
       d="M 204.59,7.63672 229.68,38.5234 V 314.59 l -25.09,-25.098 z"
       style="fill:none;stroke:#ffffff;stroke-width:4;stroke-linecap:butt;stroke-linejoin:miter;stroke-miterlimit:4;stroke-dasharray:none;stroke-opacity:1"
       transform="matrix(0.13333333,0,0,-0.13333333,0,42.853333)"
       clip-path="url(#clipPath26)" />
    <path
       id="path27"
       d="m 227.539,51.7383 h 36.074 v 33.8359 l -36.074,-0.0859"
       style="fill:#ffffff;fill-opacity:1;fill-rule:nonzero;stroke:#026c9b;stroke-width:4;stroke-linecap:butt;stroke-linejoin:miter;stroke-miterlimit:4;stroke-dasharray:none;stroke-opacity:1"
       transform="matrix(0.13333333,0,0,-0.13333333,0,42.853333)"
       clip-path="url(#clipPath28)" />
    <path
       id="path29"
       d="M 49.4141,241.738 H 8.4375 v -33.84 l 36.0664,0.09 h 4.2852"
       style="fill:#ffffff;fill-opacity:1;fill-rule:nonzero;stroke:#026c9b;stroke-width:4;stroke-linecap:butt;stroke-linejoin:miter;stroke-miterlimit:4;stroke-dasharray:none;stroke-opacity:1"
       transform="matrix(0.13333333,0,0,-0.13333333,0,42.853333)"
       clip-path="url(#clipPath30)" />
    <path
       id="path31"
       d="m 223.789,207.988 h 4.824 c 36.133,0 41.895,-32.5 41.895,-32.5 v 33.75 c 0,0 -5.742,32.5 -41.895,32.5 h -7.949"
       style="fill:#ffffff;fill-opacity:1;fill-rule:nonzero;stroke:#026c9b;stroke-width:4;stroke-linecap:butt;stroke-linejoin:miter;stroke-miterlimit:4;stroke-dasharray:none;stroke-opacity:1"
       transform="matrix(0.13333333,0,0,-0.13333333,0,42.853333)"
       clip-path="url(#clipPath32)" />
    <path
       id="path33"
       d="m 270.508,211.113 v -40 c -3.926,-47.5 -88.145,-45 -88.145,-45 v -2.5 -32.4997 l -55,54.9997 55,55 v -35 c 0,0 85.645,-2.5 88.145,45"
       style="fill:#ffffff;fill-opacity:1;fill-rule:nonzero;stroke:#026c9b;stroke-width:4;stroke-linecap:butt;stroke-linejoin:miter;stroke-miterlimit:4;stroke-dasharray:none;stroke-opacity:1"
       transform="matrix(0.13333333,0,0,-0.13333333,0,42.853333)"
       clip-path="url(#clipPath34)" />
    <path
       id="path35"
       d="m 2.1875,81.6484 v 39.9996 c 2.5,47.5 60,45 60,45 v 2.5 32.5 l 55.0005,-55 -55.0005,-54.9996 v 34.9996 c 0,0 -57.5,2.5 -60,-44.9996"
       style="fill:#ffffff;fill-opacity:1;fill-rule:nonzero;stroke:#026c9b;stroke-width:4;stroke-linecap:butt;stroke-linejoin:miter;stroke-miterlimit:4;stroke-dasharray:none;stroke-opacity:1"
       transform="matrix(0.13333333,0,0,-0.13333333,0,42.853333)"
       clip-path="url(#clipPath36)" />
  </g>
</svg>
