<?xml version="1.0" encoding="UTF-8" standalone="no"?>
<!-- Created with Inkscape (http://www.inkscape.org/) -->

<svg
   version="1.1"
   id="svg1"
   width="49.546665"
   height="33.573334"
   viewBox="0 0 49.546665 33.573334"
   sodipodi:docname="tdm router.eps"
   xmlns:inkscape="http://www.inkscape.org/namespaces/inkscape"
   xmlns:sodipodi="http://sodipodi.sourceforge.net/DTD/sodipodi-0.dtd"
   xmlns="http://www.w3.org/2000/svg"
   xmlns:svg="http://www.w3.org/2000/svg">
  <defs
     id="defs1">
    <clipPath
       clipPathUnits="userSpaceOnUse"
       id="clipPath2">
      <path
         d="M 0,1 V 252 H 370 V 1 Z"
         id="path2" />
    </clipPath>
    <clipPath
       clipPathUnits="userSpaceOnUse"
       id="clipPath4">
      <path
         d="M 0,1 V 252 H 370 V 1 Z"
         id="path4" />
    </clipPath>
    <clipPath
       clipPathUnits="userSpaceOnUse"
       id="clipPath6">
      <path
         d="M 0,1 V 252 H 370 V 1 Z"
         id="path6" />
    </clipPath>
    <clipPath
       clipPathUnits="userSpaceOnUse"
       id="clipPath8">
      <path
         d="M 0,1 V 252 H 370 V 1 Z"
         id="path8" />
    </clipPath>
    <clipPath
       clipPathUnits="userSpaceOnUse"
       id="clipPath10">
      <path
         d="M 0,1 V 252 H 370 V 1 Z"
         id="path10" />
    </clipPath>
    <clipPath
       clipPathUnits="userSpaceOnUse"
       id="clipPath12">
      <path
         d="M 0,1 V 252 H 370 V 1 Z"
         id="path12" />
    </clipPath>
    <clipPath
       clipPathUnits="userSpaceOnUse"
       id="clipPath14">
      <path
         d="M 0,1 V 252 H 370 V 1 Z"
         id="path14" />
    </clipPath>
    <clipPath
       clipPathUnits="userSpaceOnUse"
       id="clipPath16">
      <path
         d="M 0,1 V 252 H 370 V 1 Z"
         id="path16" />
    </clipPath>
    <clipPath
       clipPathUnits="userSpaceOnUse"
       id="clipPath18">
      <path
         d="M 0,1 V 252 H 370 V 1 Z"
         id="path18" />
    </clipPath>
    <clipPath
       clipPathUnits="userSpaceOnUse"
       id="clipPath20">
      <path
         d="M 0,1 V 252 H 370 V 1 Z"
         id="path20" />
    </clipPath>
    <clipPath
       clipPathUnits="userSpaceOnUse"
       id="clipPath22">
      <path
         d="M 0,1 V 252 H 370 V 1 Z"
         id="path22" />
    </clipPath>
    <clipPath
       clipPathUnits="userSpaceOnUse"
       id="clipPath24">
      <path
         d="M 0,1 V 252 H 370 V 1 Z"
         transform="matrix(0.1,0,0,-0.1,-14.0691,7.2050802)"
         id="path24" />
    </clipPath>
  </defs>
  <sodipodi:namedview
     id="namedview1"
     pagecolor="#505050"
     bordercolor="#eeeeee"
     borderopacity="1"
     inkscape:showpageshadow="0"
     inkscape:pageopacity="0"
     inkscape:pagecheckerboard="0"
     inkscape:deskcolor="#d1d1d1">
    <inkscape:page
       x="0"
       y="0"
       inkscape:label="1"
       id="page1"
       width="49.546665"
       height="33.573334"
       margin="0"
       bleed="0" />
  </sodipodi:namedview>
  <g
     id="g1"
     inkscape:groupmode="layer"
     inkscape:label="1">
    <path
       id="path1"
       d="m 369.855,178.281 c 0,-39.504 -82.343,-71.523 -183.925,-71.523 C 84.3477,106.758 2,138.777 2,178.281 V 73.5156 c 0,-39.5 82.3477,-71.52341 183.93,-71.52341 101.582,0 183.925,32.02341 183.925,71.52341 V 178.281"
       style="fill:#026c9b;fill-opacity:1;fill-rule:nonzero;stroke:none"
       transform="matrix(0.13333333,0,0,-0.13333333,0,33.573333)"
       clip-path="url(#clipPath2)" />
    <path
       id="path3"
       d="m 369.855,178.281 c 0,-39.504 -82.343,-71.523 -183.925,-71.523 C 84.3477,106.758 2,138.777 2,178.281 V 73.5156 c 0,-39.5 82.3477,-71.52341 183.93,-71.52341 101.582,0 183.925,32.02341 183.925,71.52341 z"
       style="fill:none;stroke:#ffffff;stroke-width:4;stroke-linecap:butt;stroke-linejoin:miter;stroke-miterlimit:4;stroke-dasharray:none;stroke-opacity:1"
       transform="matrix(0.13333333,0,0,-0.13333333,0,33.573333)"
       clip-path="url(#clipPath4)" />
    <path
       id="path5"
       d="m 185.93,106.758 c 101.582,0 183.925,32.019 183.925,71.523 0,39.512 -82.343,71.524 -183.925,71.524 C 84.3477,249.805 2,217.793 2,178.281 2,138.777 84.3477,106.758 185.93,106.758"
       style="fill:#026c9b;fill-opacity:1;fill-rule:nonzero;stroke:#ffffff;stroke-width:4;stroke-linecap:butt;stroke-linejoin:miter;stroke-miterlimit:4;stroke-dasharray:none;stroke-opacity:1"
       transform="matrix(0.13333333,0,0,-0.13333333,0,33.573333)"
       clip-path="url(#clipPath6)" />
    <path
       id="path7"
       d="m 143.926,206.25 15.183,-22.781 -57.421,-13.274 12.55,10.45 -88.7497,15.168 22.2656,16.687 85.6371,-14.5 10.535,8.25"
       style="fill:#ffffff;fill-opacity:1;fill-rule:nonzero;stroke:none"
       transform="matrix(0.13333333,0,0,-0.13333333,0,33.573333)"
       clip-path="url(#clipPath8)" />
    <path
       id="path9"
       d="m 224.727,151.008 -10.364,23.484 51.797,10.352 -8.98,-8.055 86.328,-14.738 -20.715,-16.571 -85.813,16.114 -12.253,-10.586"
       style="fill:#ffffff;fill-opacity:1;fill-rule:nonzero;stroke:none"
       transform="matrix(0.13333333,0,0,-0.13333333,0,33.573333)"
       clip-path="url(#clipPath10)" />
    <path
       id="path11"
       d="m 196.406,218.691 58.02,15.879 0.679,-24.863 -14.5,2.766 -28.308,-23.489 -27.024,3.938 29.231,22.976 -18.098,2.793"
       style="fill:#ffffff;fill-opacity:1;fill-rule:nonzero;stroke:none"
       transform="matrix(0.13333333,0,0,-0.13333333,0,33.573333)"
       clip-path="url(#clipPath12)" />
    <path
       id="path13"
       d="m 171.543,129.59 -55.242,-10.352 -2.071,25.547 15.875,-3.445 30.415,25.965 26.914,-4.559 -32.461,-28.312 16.57,-4.844"
       style="fill:#ffffff;fill-opacity:1;fill-rule:nonzero;stroke:none"
       transform="matrix(0.13333333,0,0,-0.13333333,0,33.573333)"
       clip-path="url(#clipPath14)" />
    <path
       id="path15"
       d="M 178.496,48.1133 V 35.293 l -17.351,0.2929 24.48,-30.41012 25.996,30.41012 -18.125,-0.2929 v 12.8203"
       style="fill:#ffffff;fill-opacity:1;fill-rule:nonzero;stroke:none"
       transform="matrix(0.13333333,0,0,-0.13333333,0,33.573333)"
       clip-path="url(#clipPath16)" />
    <path
       id="path17"
       d="m 217.395,63.7109 h -71.704 l -0.476,16.6993 -30.41,-24.2579 30.41,-26.2304 0.476,18.789 h 71.704"
       style="fill:#ffffff;fill-opacity:1;fill-rule:nonzero;stroke:none"
       transform="matrix(0.13333333,0,0,-0.13333333,0,33.573333)"
       clip-path="url(#clipPath18)" />
    <path
       id="path19"
       d="m 155.867,48.7695 h 71.699 l 0.469,-16.6797 30.41,24.2383 -30.41,25.5078 -0.469,-18.0664 h -71.699"
       style="fill:#ffffff;fill-opacity:1;fill-rule:nonzero;stroke:none"
       transform="matrix(0.13333333,0,0,-0.13333333,0,33.573333)"
       clip-path="url(#clipPath20)" />
    <path
       id="path21"
       d="m 179.441,47.0508 h 12.5 v 11.25 h -12.5 z"
       style="fill:#ffffff;fill-opacity:1;fill-rule:nonzero;stroke:none"
       transform="matrix(0.13333333,0,0,-0.13333333,0,33.573333)"
       clip-path="url(#clipPath22)" />
    <path
       id="path23"
       d="M 1.5344156,-2.4153497 H 2.3898844 V -2.9192559 H 0.05785312 v 0.5039062 h 0.87890625 v 2.41406251 H 1.5344156 Z m 1.2128906,2.41406251 H 3.884025 c 0.4453125,0 0.7265625,-0.10546875 0.9257812,-0.33984375 0.234375,-0.26953125 0.3515625,-0.66796876 0.3515625,-1.11328126 0,-0.4570312 -0.1171875,-0.84375 -0.3515625,-1.125 -0.1992187,-0.234375 -0.46875,-0.3398437 -0.9257812,-0.3398437 H 2.7473062 Z M 3.3449625,-0.50519344 V -2.4153497 H 3.884025 c 0.4570312,0 0.6796875,0.3164063 0.6796875,0.9609375 0,0.63281251 -0.2226563,0.94921876 -0.6796875,0.94921876 z m 2.8535156,-1.76953126 0.515625,2.27343751 h 0.5976563 l 0.515625,-2.27343751 v 2.27343751 h 0.609375 V -2.9192559 H 7.5344156 L 7.0187906,-0.59894344 6.4914469,-2.9192559 h -0.890625 v 2.91796871 h 0.5976562 z m 0,0"
       style="fill:#ffffff;fill-opacity:1;fill-rule:nonzero;stroke:none"
       aria-label="TDM"
       transform="matrix(1.3333333,0,0,1.3333333,18.7588,23.96656)"
       clip-path="url(#clipPath24)" />
  </g>
</svg>
