<?xml version="1.0" encoding="UTF-8" standalone="no"?>
<!-- Created with Inkscape (http://www.inkscape.org/) -->

<svg
   version="1.1"
   id="svg1"
   width="49.546665"
   height="34"
   viewBox="0 0 49.546665 34"
   sodipodi:docname="voice router.eps"
   xmlns:inkscape="http://www.inkscape.org/namespaces/inkscape"
   xmlns:sodipodi="http://sodipodi.sourceforge.net/DTD/sodipodi-0.dtd"
   xmlns="http://www.w3.org/2000/svg"
   xmlns:svg="http://www.w3.org/2000/svg">
  <defs
     id="defs1">
    <clipPath
       clipPathUnits="userSpaceOnUse"
       id="clipPath2">
      <path
         d="M 0,4 V 255 H 370 V 4 Z"
         id="path2" />
    </clipPath>
    <clipPath
       clipPathUnits="userSpaceOnUse"
       id="clipPath4">
      <path
         d="M 0,4 V 255 H 370 V 4 Z"
         id="path4" />
    </clipPath>
    <clipPath
       clipPathUnits="userSpaceOnUse"
       id="clipPath6">
      <path
         d="M 0,4 V 255 H 370 V 4 Z"
         id="path6" />
    </clipPath>
    <clipPath
       clipPathUnits="userSpaceOnUse"
       id="clipPath8">
      <path
         d="M 0,4 V 255 H 370 V 4 Z"
         id="path8" />
    </clipPath>
    <clipPath
       clipPathUnits="userSpaceOnUse"
       id="clipPath10">
      <path
         d="M 0,4 V 255 H 370 V 4 Z"
         id="path10" />
    </clipPath>
    <clipPath
       clipPathUnits="userSpaceOnUse"
       id="clipPath12">
      <path
         d="M 0,4 V 255 H 370 V 4 Z"
         id="path12" />
    </clipPath>
    <clipPath
       clipPathUnits="userSpaceOnUse"
       id="clipPath14">
      <path
         d="M 0,4 V 255 H 370 V 4 Z"
         id="path14" />
    </clipPath>
    <clipPath
       clipPathUnits="userSpaceOnUse"
       id="clipPath16">
      <path
         d="M 0,4 V 255 H 370 V 4 Z"
         id="path16" />
    </clipPath>
    <clipPath
       clipPathUnits="userSpaceOnUse"
       id="clipPath18">
      <path
         d="M 0,4 V 255 H 370 V 4 Z"
         id="path18" />
    </clipPath>
    <clipPath
       clipPathUnits="userSpaceOnUse"
       id="clipPath20">
      <path
         d="M 0,4 V 255 H 370 V 4 Z"
         transform="matrix(0.1,0,0,-0.1,-15.4641,2.2804703)"
         id="path20" />
    </clipPath>
  </defs>
  <sodipodi:namedview
     id="namedview1"
     pagecolor="#505050"
     bordercolor="#eeeeee"
     borderopacity="1"
     inkscape:showpageshadow="0"
     inkscape:pageopacity="0"
     inkscape:pagecheckerboard="0"
     inkscape:deskcolor="#d1d1d1">
    <inkscape:page
       x="0"
       y="0"
       inkscape:label="1"
       id="page1"
       width="49.546665"
       height="34"
       margin="0"
       bleed="0" />
  </sodipodi:namedview>
  <g
     id="g1"
     inkscape:groupmode="layer"
     inkscape:label="1">
    <path
       id="path1"
       d="m 369.855,181.457 c 0,-39.504 -82.343,-71.523 -183.925,-71.523 C 84.3477,109.934 2,141.953 2,181.457 V 76.6914 C 2,37.1875 84.3477,5.15625 185.93,5.15625 c 101.582,0 183.925,32.03125 183.925,71.53515 V 181.457"
       style="fill:#026c9b;fill-opacity:1;fill-rule:nonzero;stroke:none"
       transform="matrix(0.13333333,0,0,-0.13333333,0,34)"
       clip-path="url(#clipPath2)" />
    <path
       id="path3"
       d="m 369.855,181.457 c 0,-39.504 -82.343,-71.523 -183.925,-71.523 C 84.3477,109.934 2,141.953 2,181.457 V 76.6914 C 2,37.1875 84.3477,5.15625 185.93,5.15625 c 101.582,0 183.925,32.03125 183.925,71.53515 z"
       style="fill:none;stroke:#ffffff;stroke-width:4;stroke-linecap:butt;stroke-linejoin:miter;stroke-miterlimit:4;stroke-dasharray:none;stroke-opacity:1"
       transform="matrix(0.13333333,0,0,-0.13333333,0,34)"
       clip-path="url(#clipPath4)" />
    <path
       id="path5"
       d="m 185.93,109.934 c 101.582,0 183.925,32.019 183.925,71.523 0,39.5 -82.343,71.523 -183.925,71.523 C 84.3477,252.98 2,220.957 2,181.457 2,141.953 84.3477,109.934 185.93,109.934"
       style="fill:#026c9b;fill-opacity:1;fill-rule:nonzero;stroke:#ffffff;stroke-width:4;stroke-linecap:butt;stroke-linejoin:miter;stroke-miterlimit:4;stroke-dasharray:none;stroke-opacity:1"
       transform="matrix(0.13333333,0,0,-0.13333333,0,34)"
       clip-path="url(#clipPath6)" />
    <path
       id="path7"
       d="m 143.926,209.426 15.183,-22.785 -57.421,-13.27 12.55,10.449 -88.7497,15.164 22.2656,16.692 85.6371,-14.504 10.535,8.254"
       style="fill:#ffffff;fill-opacity:1;fill-rule:nonzero;stroke:none"
       transform="matrix(0.13333333,0,0,-0.13333333,0,34)"
       clip-path="url(#clipPath8)" />
    <path
       id="path9"
       d="m 224.727,154.18 -10.364,23.476 51.797,10.364 -8.98,-8.059 86.328,-14.734 -20.715,-16.575 -85.813,16.114 -12.253,-10.586"
       style="fill:#ffffff;fill-opacity:1;fill-rule:nonzero;stroke:none"
       transform="matrix(0.13333333,0,0,-0.13333333,0,34)"
       clip-path="url(#clipPath10)" />
    <path
       id="path11"
       d="m 196.406,221.855 58.02,15.891 0.679,-24.863 -14.5,2.762 -28.308,-23.485 -27.024,3.934 29.231,22.98 -18.098,2.781"
       style="fill:#ffffff;fill-opacity:1;fill-rule:nonzero;stroke:none"
       transform="matrix(0.13333333,0,0,-0.13333333,0,34)"
       clip-path="url(#clipPath12)" />
    <path
       id="path13"
       d="m 171.543,132.766 -55.242,-10.356 -2.071,25.551 15.875,-3.449 30.415,25.968 26.914,-4.562 -32.461,-28.309 16.57,-4.843"
       style="fill:#ffffff;fill-opacity:1;fill-rule:nonzero;stroke:none"
       transform="matrix(0.13333333,0,0,-0.13333333,0,34)"
       clip-path="url(#clipPath14)" />
    <path
       id="path15"
       d="m 145.195,17.0508 h 84.0039 v 84.0039 H 145.195 Z"
       style="fill:#000000;fill-opacity:1;fill-rule:nonzero;stroke:none"
       transform="matrix(0.13333333,0,0,-0.13333333,0,34)"
       clip-path="url(#clipPath16)" />
    <path
       id="path17"
       d="M 229.199,17.0508 V 101.055 H 145.195 V 17.0508 Z"
       style="fill:none;stroke:#ffffff;stroke-width:4;stroke-linecap:butt;stroke-linejoin:miter;stroke-miterlimit:4;stroke-dasharray:none;stroke-opacity:1"
       transform="matrix(0.13333333,0,0,-0.13333333,0,34)"
       clip-path="url(#clipPath18)" />
    <path
       id="path19"
       d="M 3.9714469,0.00117313 6.4675406,-7.2878894 H 4.9558219 l -1.59375,5.484375 -1.6171875,-5.484375 H 0.23316562 L 2.6941031,0.00117313 Z m 0,0"
       style="fill:#ffffff;fill-opacity:1;fill-rule:nonzero;stroke:none"
       aria-label="V"
       transform="matrix(1.3333333,0,0,1.3333333,20.6188,30.959373)"
       clip-path="url(#clipPath20)" />
  </g>
</svg>
