<?xml version="1.0" encoding="UTF-8" standalone="no"?>
<!-- Created with Inkscape (http://www.inkscape.org/) -->

<svg
   version="1.1"
   id="svg1"
   width="59.080002"
   height="31.559999"
   viewBox="0 0 59.080002 31.559999"
   sodipodi:docname="vpn gateway.eps"
   xmlns:inkscape="http://www.inkscape.org/namespaces/inkscape"
   xmlns:sodipodi="http://sodipodi.sourceforge.net/DTD/sodipodi-0.dtd"
   xmlns="http://www.w3.org/2000/svg"
   xmlns:svg="http://www.w3.org/2000/svg">
  <defs
     id="defs1">
    <clipPath
       clipPathUnits="userSpaceOnUse"
       id="clipPath2">
      <path
         d="M 0,237 H 440 V 0 H 0 Z"
         id="path2" />
    </clipPath>
    <clipPath
       clipPathUnits="userSpaceOnUse"
       id="clipPath4">
      <path
         d="M 0,237 H 440 V 0 H 0 Z"
         id="path4" />
    </clipPath>
    <clipPath
       clipPathUnits="userSpaceOnUse"
       id="clipPath6">
      <path
         d="M 0,237 H 440 V 0 H 0 Z"
         id="path6" />
    </clipPath>
    <clipPath
       clipPathUnits="userSpaceOnUse"
       id="clipPath8">
      <path
         d="M 0,237 H 440 V 0 H 0 Z"
         id="path8" />
    </clipPath>
    <clipPath
       clipPathUnits="userSpaceOnUse"
       id="clipPath10">
      <path
         d="M 0,237 H 440 V 0 H 0 Z"
         id="path10" />
    </clipPath>
    <clipPath
       clipPathUnits="userSpaceOnUse"
       id="clipPath12">
      <path
         d="M 0,237 H 440 V 0 H 0 Z"
         id="path12" />
    </clipPath>
    <clipPath
       clipPathUnits="userSpaceOnUse"
       id="clipPath14">
      <path
         d="M 0,237 H 440 V 0 H 0 Z"
         id="path14" />
    </clipPath>
    <clipPath
       clipPathUnits="userSpaceOnUse"
       id="clipPath16">
      <path
         d="M 0,237 H 440 V 0 H 0 Z"
         id="path16" />
    </clipPath>
    <clipPath
       clipPathUnits="userSpaceOnUse"
       id="clipPath18">
      <path
         d="M 0,237 H 440 V 0 H 0 Z"
         id="path18" />
    </clipPath>
    <clipPath
       clipPathUnits="userSpaceOnUse"
       id="clipPath20">
      <path
         d="M 0,237 H 440 V 0 H 0 Z"
         id="path20" />
    </clipPath>
    <clipPath
       clipPathUnits="userSpaceOnUse"
       id="clipPath22">
      <path
         d="M 0,237 H 440 V 0 H 0 Z"
         id="path22" />
    </clipPath>
    <clipPath
       clipPathUnits="userSpaceOnUse"
       id="clipPath24">
      <path
         d="M 0,237 H 440 V 0 H 0 Z"
         id="path24" />
    </clipPath>
    <clipPath
       clipPathUnits="userSpaceOnUse"
       id="clipPath26">
      <path
         d="M 0,237 H 440 V 0 H 0 Z"
         id="path26" />
    </clipPath>
  </defs>
  <sodipodi:namedview
     id="namedview1"
     pagecolor="#505050"
     bordercolor="#eeeeee"
     borderopacity="1"
     inkscape:showpageshadow="0"
     inkscape:pageopacity="0"
     inkscape:pagecheckerboard="0"
     inkscape:deskcolor="#d1d1d1">
    <inkscape:page
       x="0"
       y="0"
       inkscape:label="1"
       id="page1"
       width="59.080002"
       height="31.559999"
       margin="0"
       bleed="0" />
  </sodipodi:namedview>
  <g
     id="g1"
     inkscape:groupmode="layer"
     inkscape:label="1">
    <path
       id="path1"
       d="m 6.09766,5.21094 h 357.324 v 159.336 H 6.09766 Z"
       style="fill:#036998;fill-opacity:1;fill-rule:nonzero;stroke:none"
       transform="matrix(0.13333333,0,0,-0.13333333,0,31.56)"
       clip-path="url(#clipPath2)" />
    <path
       id="path3"
       d="M 6.09766,5.21094 V 164.547 H 363.422 V 5.21094 Z"
       style="fill:none;stroke:#ffffff;stroke-width:3.99994;stroke-linecap:butt;stroke-linejoin:miter;stroke-miterlimit:4;stroke-dasharray:none;stroke-opacity:1"
       transform="matrix(0.13333333,0,0,-0.13333333,0,31.56)"
       clip-path="url(#clipPath4)" />
    <path
       id="path5"
       d="M 363.422,164.547 H 5.92188 l 88.37892,67.383 343.6522,0.254 -74.531,-67.637"
       style="fill:#036998;fill-opacity:1;fill-rule:nonzero;stroke:none"
       transform="matrix(0.13333333,0,0,-0.13333333,0,31.56)"
       clip-path="url(#clipPath6)" />
    <path
       id="path7"
       d="M 363.422,164.547 H 5.92188 l 88.37892,67.383 343.6522,0.254 z"
       style="fill:none;stroke:#ffffff;stroke-width:3.99994;stroke-linecap:butt;stroke-linejoin:miter;stroke-miterlimit:4;stroke-dasharray:none;stroke-opacity:1"
       transform="matrix(0.13333333,0,0,-0.13333333,0,31.56)"
       clip-path="url(#clipPath8)" />
    <path
       id="path9"
       d="M 437.953,232.184 436.813,77.1133 363.422,4.78125 V 164.547 l 74.531,67.637"
       style="fill:#036998;fill-opacity:1;fill-rule:nonzero;stroke:none"
       transform="matrix(0.13333333,0,0,-0.13333333,0,31.56)"
       clip-path="url(#clipPath10)" />
    <path
       id="path11"
       d="M 437.953,232.184 436.813,77.1133 363.422,4.78125 V 164.547 Z"
       style="fill:none;stroke:#ffffff;stroke-width:3.99994;stroke-linecap:butt;stroke-linejoin:miter;stroke-miterlimit:4;stroke-dasharray:none;stroke-opacity:1"
       transform="matrix(0.13333333,0,0,-0.13333333,0,31.56)"
       clip-path="url(#clipPath12)" />
    <path
       id="path13"
       d="m 194.566,102.855 12.129,0.02 2.813,-2.812 h 9.394 l 10.43,7.628 11.297,0.028 9.641,-10.6838 10.683,0.0312 11.641,10.7226 9.773,0.008 8.43,-9.1603 h 9.687 l 3.614,6.9723 28.25,-17.1871 -19.785,-16.6875 -117.95,-0.2149 v -3.8281 l -18.425,-0.0391 c -4.602,-0.0117 -8.575,-2.7343 -10.43,-6.6914 -8.723,-13.7695 -24.016,-22.9375 -41.445,-22.957 -27.188,-0.0508 -49.2192,22.0977 -49.2192,49.4727 0,27.3324 22.0312,49.5504 49.2192,49.6094 17.214,0.039 32.343,-8.859 41.121,-22.316 1.699,-4.278 5.871,-7.293 10.734,-7.293 l 18.398,0.019 v -4.641"
       style="fill:#ffffff;fill-opacity:1;fill-rule:nonzero;stroke:#036998;stroke-width:3.50006;stroke-linecap:butt;stroke-linejoin:miter;stroke-miterlimit:4;stroke-dasharray:none;stroke-opacity:1"
       transform="matrix(0.13333333,0,0,-0.13333333,0,31.56)"
       clip-path="url(#clipPath14)" />
    <path
       id="path15"
       d="M 321.352,79.75 194.613,79.5547 c -4.988,-0.0195 -11.941,-1.3359 -18.367,-4.0625 6.426,-2.6758 13.379,-3.9727 18.367,-3.9727"
       style="fill:none;stroke:#036998;stroke-width:3.50006;stroke-linecap:butt;stroke-linejoin:round;stroke-miterlimit:4;stroke-dasharray:none;stroke-opacity:1"
       transform="matrix(0.13333333,0,0,-0.13333333,0,31.56)"
       clip-path="url(#clipPath16)" />
    <path
       id="path17"
       d="M 326.832,91.3047 200.074,91.1172 c -5.636,-0.0274 -17.402,1.1055 -20.09,2.1875"
       style="fill:none;stroke:#036998;stroke-width:3.50006;stroke-linecap:butt;stroke-linejoin:round;stroke-miterlimit:4;stroke-dasharray:none;stroke-opacity:1"
       transform="matrix(0.13333333,0,0,-0.13333333,0,31.56)"
       clip-path="url(#clipPath18)" />
    <path
       id="path19"
       d="m 124.313,43.3242 c 24.265,0.0313 43.925,19.875 43.925,44.2969 0,24.4339 -19.66,44.1799 -43.925,44.1519 -24.27,-0.058 -43.938,-19.863 -43.938,-44.2886 0,-24.4336 19.668,-44.1992 43.938,-44.1602"
       style="fill:#ffffff;fill-opacity:1;fill-rule:nonzero;stroke:none"
       transform="matrix(0.13333333,0,0,-0.13333333,0,31.56)"
       clip-path="url(#clipPath20)" />
    <path
       id="path21"
       d="m 124.313,43.3242 c 24.265,0.0313 43.925,19.875 43.925,44.2969 0,24.4339 -19.66,44.1799 -43.925,44.1519 -24.27,-0.058 -43.938,-19.863 -43.938,-44.2886 0,-24.4336 19.668,-44.1992 43.938,-44.1602 z"
       style="fill:none;stroke:#036998;stroke-width:3.50006;stroke-linecap:butt;stroke-linejoin:round;stroke-miterlimit:4;stroke-dasharray:none;stroke-opacity:1"
       transform="matrix(0.13333333,0,0,-0.13333333,0,31.56)"
       clip-path="url(#clipPath22)" />
    <path
       id="path23"
       d="m 99.1445,75.9023 c 6.3475,0 11.5355,5.1954 11.5355,11.6133 0,6.4063 -5.188,11.5899 -11.5355,11.5899 -6.3867,-0.0196 -11.5312,-5.2227 -11.5312,-11.6211 0,-6.4063 5.1445,-11.5821 11.5312,-11.5821"
       style="fill:#ffffff;fill-opacity:1;fill-rule:nonzero;stroke:none"
       transform="matrix(0.13333333,0,0,-0.13333333,0,31.56)"
       clip-path="url(#clipPath24)" />
    <path
       id="path25"
       d="m 99.1445,75.9023 c 6.3475,0 11.5355,5.1954 11.5355,11.6133 0,6.4063 -5.188,11.5899 -11.5355,11.5899 -6.3867,-0.0196 -11.5312,-5.2227 -11.5312,-11.6211 0,-6.4063 5.1445,-11.5821 11.5312,-11.5821 z"
       style="fill:none;stroke:#036998;stroke-width:3.50006;stroke-linecap:butt;stroke-linejoin:round;stroke-miterlimit:4;stroke-dasharray:none;stroke-opacity:1"
       transform="matrix(0.13333333,0,0,-0.13333333,0,31.56)"
       clip-path="url(#clipPath26)" />
  </g>
</svg>
