<?xml version="1.0" encoding="UTF-8" standalone="no"?>
<!-- Created with Inkscape (http://www.inkscape.org/) -->

<svg
   version="1.1"
   id="svg1"
   width="48.186668"
   height="39.439999"
   viewBox="0 0 48.186668 39.439999"
   sodipodi:docname="wireless bridge.eps"
   xmlns:inkscape="http://www.inkscape.org/namespaces/inkscape"
   xmlns:sodipodi="http://sodipodi.sourceforge.net/DTD/sodipodi-0.dtd"
   xmlns="http://www.w3.org/2000/svg"
   xmlns:svg="http://www.w3.org/2000/svg">
  <defs
     id="defs1">
    <clipPath
       clipPathUnits="userSpaceOnUse"
       id="clipPath2">
      <path
         d="M 0,296 H 360 V 0 H 0 Z"
         id="path2" />
    </clipPath>
    <clipPath
       clipPathUnits="userSpaceOnUse"
       id="clipPath4">
      <path
         d="M 0,296 H 360 V 0 H 0 Z"
         id="path4" />
    </clipPath>
    <clipPath
       clipPathUnits="userSpaceOnUse"
       id="clipPath6">
      <path
         d="M 0,296 H 360 V 0 H 0 Z"
         id="path6" />
    </clipPath>
    <clipPath
       clipPathUnits="userSpaceOnUse"
       id="clipPath8">
      <path
         d="M 0,296 H 360 V 0 H 0 Z"
         id="path8" />
    </clipPath>
    <clipPath
       clipPathUnits="userSpaceOnUse"
       id="clipPath10">
      <path
         d="M 0,296 H 360 V 0 H 0 Z"
         id="path10" />
    </clipPath>
    <clipPath
       clipPathUnits="userSpaceOnUse"
       id="clipPath12">
      <path
         d="M 0,296 H 360 V 0 H 0 Z"
         id="path12" />
    </clipPath>
    <clipPath
       clipPathUnits="userSpaceOnUse"
       id="clipPath14">
      <path
         d="M 0,296 H 360 V 0 H 0 Z"
         id="path14" />
    </clipPath>
    <clipPath
       clipPathUnits="userSpaceOnUse"
       id="clipPath16">
      <path
         d="M 0,296 H 360 V 0 H 0 Z"
         id="path16" />
    </clipPath>
    <clipPath
       clipPathUnits="userSpaceOnUse"
       id="clipPath18">
      <path
         d="M 0,296 H 360 V 0 H 0 Z"
         id="path18" />
    </clipPath>
  </defs>
  <sodipodi:namedview
     id="namedview1"
     pagecolor="#505050"
     bordercolor="#eeeeee"
     borderopacity="1"
     inkscape:showpageshadow="0"
     inkscape:pageopacity="0"
     inkscape:pagecheckerboard="0"
     inkscape:deskcolor="#d1d1d1">
    <inkscape:page
       x="0"
       y="0"
       inkscape:label="1"
       id="page1"
       width="48.186668"
       height="39.439999"
       margin="0"
       bleed="0" />
  </sodipodi:namedview>
  <g
     id="g1"
     inkscape:groupmode="layer"
     inkscape:label="1">
    <path
       id="path1"
       d="M 82.8281,281.855 4.00781,241.121 C 196.656,118.762 309.879,248.926 309.879,248.926 195.367,179.949 82.8281,281.855 82.8281,281.855"
       style="fill:#036998;fill-opacity:1;fill-rule:nonzero;stroke:#ffffff;stroke-width:3.99994;stroke-linecap:butt;stroke-linejoin:miter;stroke-miterlimit:4;stroke-dasharray:none;stroke-opacity:1"
       transform="matrix(0.13333333,0,0,-0.13333333,0,39.44)"
       clip-path="url(#clipPath2)" />
    <path
       id="path3"
       d="M 359.352,294.48 C 346.344,268.445 308.59,247.637 308.59,247.637 V 4.22656 L 359.352,45.8789 V 294.48"
       style="fill:#036998;fill-opacity:1;fill-rule:nonzero;stroke:none"
       transform="matrix(0.13333333,0,0,-0.13333333,0,39.44)"
       clip-path="url(#clipPath4)" />
    <path
       id="path5"
       d="M 359.352,294.48 C 346.344,268.445 308.59,247.637 308.59,247.637 V 4.22656 l 50.762,41.65234 z"
       style="fill:none;stroke:#ffffff;stroke-width:3.99994;stroke-linecap:butt;stroke-linejoin:miter;stroke-miterlimit:4;stroke-dasharray:none;stroke-opacity:1"
       transform="matrix(0.13333333,0,0,-0.13333333,0,39.44)"
       clip-path="url(#clipPath6)" />
    <path
       id="path7"
       d="m 308.59,247.637 c 0,0 -111.934,-128.875 -304.58219,-6.516 V 4.22656 H 308.59 V 247.637"
       style="fill:#036998;fill-opacity:1;fill-rule:nonzero;stroke:none"
       transform="matrix(0.13333333,0,0,-0.13333333,0,39.44)"
       clip-path="url(#clipPath8)" />
    <path
       id="path9"
       d="m 308.59,247.637 c 0,0 -111.934,-128.875 -304.58219,-6.516 V 4.22656 H 308.59 Z"
       style="fill:none;stroke:#ffffff;stroke-width:3.99994;stroke-linecap:butt;stroke-linejoin:miter;stroke-miterlimit:4;stroke-dasharray:none;stroke-opacity:1"
       transform="matrix(0.13333333,0,0,-0.13333333,0,39.44)"
       clip-path="url(#clipPath10)" />
    <path
       id="path11"
       d="m 286.949,99.8242 c 0,0 -19.57,-50.3047 -43.105,0.1563 -23.496,50.4295 -43.106,0.1095 -43.106,0.1095 0,0 -19.55,-50.3556 -43.058,0.086 -23.504,50.449 -42.996,-0.3127 -42.996,-0.3127 0,0 -19.5121,-50.3438 -43.0473,0.1172 -23.4961,50.4295 -43.0078,0.1365 -43.0078,0.1365"
       style="fill:none;stroke:#000000;stroke-width:4.49997;stroke-linecap:round;stroke-linejoin:miter;stroke-miterlimit:1;stroke-dasharray:none;stroke-opacity:1"
       transform="matrix(0.13333333,0,0,-0.13333333,0,39.44)"
       clip-path="url(#clipPath12)" />
    <path
       id="path13"
       d="m 28.6289,99.8242 c 0,0 19.5703,-50.3047 43.1055,0.1563 23.4961,50.4295 43.1056,0.1095 43.1056,0.1095 0,0 19.551,-50.3556 43.055,0.086 23.507,50.449 43,-0.3127 43,-0.3127 0,0 19.531,-50.3438 43.046,0.1172 23.516,50.4295 43.008,0.1365 43.008,0.1365"
       style="fill:none;stroke:#000000;stroke-width:8.99994;stroke-linecap:round;stroke-linejoin:miter;stroke-miterlimit:1;stroke-dasharray:none;stroke-opacity:1"
       transform="matrix(0.13333333,0,0,-0.13333333,0,39.44)"
       clip-path="url(#clipPath14)" />
    <path
       id="path15"
       d="m 282.418,99.8242 c 0,0 -19.57,-50.3047 -43.086,0.1563 -23.516,50.4295 -43.125,0.1095 -43.125,0.1095 0,0 -19.551,-50.3556 -43.059,0.086 -23.503,50.449 -42.996,-0.3049 -42.996,-0.3049 0,0 -19.5114,-50.3516 -43.0465,0.1094 -23.4961,50.4295 -43.0078,0.1365 -43.0078,0.1365"
       style="fill:none;stroke:#ffffff;stroke-width:4.49997;stroke-linecap:round;stroke-linejoin:miter;stroke-miterlimit:1;stroke-dasharray:none;stroke-opacity:1"
       transform="matrix(0.13333333,0,0,-0.13333333,0,39.44)"
       clip-path="url(#clipPath16)" />
    <path
       id="path17"
       d="m 24.0977,99.8242 c 0,0 19.5781,-50.3047 43.1054,0.1563 23.4961,50.4295 43.1059,0.1095 43.1059,0.1095 0,0 19.55,-50.3556 43.054,0.086 23.508,50.449 43,-0.3049 43,-0.3049 0,0 19.512,-50.3516 43.047,0.1094 23.516,50.4295 43.008,0.1365 43.008,0.1365"
       style="fill:none;stroke:#ffffff;stroke-width:8.99994;stroke-linecap:round;stroke-linejoin:miter;stroke-miterlimit:1;stroke-dasharray:none;stroke-opacity:1"
       transform="matrix(0.13333333,0,0,-0.13333333,0,39.44)"
       clip-path="url(#clipPath18)" />
  </g>
</svg>
