<?xml version="1.0" encoding="UTF-8" standalone="no"?>
<!-- Created with Inkscape (http://www.inkscape.org/) -->

<svg
   version="1.1"
   id="svg1"
   width="47.119999"
   height="41.173332"
   viewBox="0 0 47.119999 41.173332"
   sodipodi:docname="wi-fi tag.eps"
   xmlns:inkscape="http://www.inkscape.org/namespaces/inkscape"
   xmlns:sodipodi="http://sodipodi.sourceforge.net/DTD/sodipodi-0.dtd"
   xmlns="http://www.w3.org/2000/svg"
   xmlns:svg="http://www.w3.org/2000/svg">
  <defs
     id="defs1" />
  <sodipodi:namedview
     id="namedview1"
     pagecolor="#505050"
     bordercolor="#eeeeee"
     borderopacity="1"
     inkscape:showpageshadow="0"
     inkscape:pageopacity="0"
     inkscape:pagecheckerboard="0"
     inkscape:deskcolor="#d1d1d1">
    <inkscape:page
       x="0"
       y="0"
       inkscape:label="1"
       id="page1"
       width="47.119999"
       height="41.173332"
       margin="0"
       bleed="0" />
  </sodipodi:namedview>
  <g
     id="g1"
     inkscape:groupmode="layer"
     inkscape:label="1">
    <path
       id="path1"
       d="M 101.449,206.641 C 65.4336,199.297 39.6055,113.047 39.6055,113.047 26.6172,75.5352 3.96875,44.9805 3.96875,44.9805 H 242.555 c 0,0 27.656,34.7383 47.656,68.0665 0,0 25.996,86.25 62.012,93.594 H 101.449"
       style="fill:#036897;fill-opacity:1;fill-rule:nonzero;stroke:none"
       transform="matrix(0.13333333,0,0,-0.13333333,0,41.173333)" />
    <path
       id="path2"
       d="M 101.449,206.641 C 65.4336,199.297 39.6055,113.047 39.6055,113.047 26.6172,75.5352 3.96875,44.9805 3.96875,44.9805 H 242.555 c 0,0 27.656,34.7383 47.656,68.0665 0,0 25.996,86.25 62.012,93.594 z"
       style="fill:none;stroke:#ffffff;stroke-width:4;stroke-linecap:butt;stroke-linejoin:miter;stroke-miterlimit:4;stroke-dasharray:none;stroke-opacity:1"
       transform="matrix(0.13333333,0,0,-0.13333333,0,41.173333)" />
    <path
       id="path3"
       d="M 242.152,45.625 V 4.94922 l 105.754,109.65978 -0.176,90.45 c -16.71,-3.411 -41.21,-32.207 -60.195,-59.329 -10.832,-15.457 -18.43,-29.148 -26.105,-39.714"
       style="fill:#036897;fill-opacity:1;fill-rule:nonzero;stroke:#ffffff;stroke-width:4;stroke-linecap:butt;stroke-linejoin:miter;stroke-miterlimit:4;stroke-dasharray:none;stroke-opacity:1"
       transform="matrix(0.13333333,0,0,-0.13333333,0,41.173333)" />
    <path
       id="path4"
       d="m 168.902,256.492 c 17.774,16.106 41.922,26.457 64.754,25.938 24.024,-0.543 40.5,-12.989 44.992,-31.063"
       style="fill:none;stroke:#036897;stroke-width:4;stroke-linecap:butt;stroke-linejoin:miter;stroke-miterlimit:4;stroke-dasharray:none;stroke-opacity:1"
       transform="matrix(0.13333333,0,0,-0.13333333,0,41.173333)" />
    <path
       id="path5"
       d="m 159.613,231.863 c 17.774,16.106 41.926,26.446 64.746,25.93 24.024,-0.547 40.489,-12.988 44.993,-31.066"
       style="fill:none;stroke:#036897;stroke-width:4;stroke-linecap:butt;stroke-linejoin:miter;stroke-miterlimit:4;stroke-dasharray:none;stroke-opacity:1"
       transform="matrix(0.13333333,0,0,-0.13333333,0,41.173333)" />
    <path
       id="path6"
       d="m 150.328,207.219 c 17.754,16.101 41.902,26.441 64.735,25.926 24.023,-0.547 40.5,-13 45,-31.047"
       style="fill:none;stroke:#036897;stroke-width:4;stroke-linecap:butt;stroke-linejoin:miter;stroke-miterlimit:4;stroke-dasharray:none;stroke-opacity:1"
       transform="matrix(0.13333333,0,0,-0.13333333,0,41.173333)" />
    <path
       id="path7"
       d="m 141.031,182.578 c 17.754,16.102 41.914,26.453 64.746,25.938 24.024,-0.547 40.496,-13.008 44.989,-31.055"
       style="fill:#036897;fill-opacity:1;fill-rule:nonzero;stroke:#ffffff;stroke-width:4;stroke-linecap:butt;stroke-linejoin:miter;stroke-miterlimit:4;stroke-dasharray:none;stroke-opacity:1"
       transform="matrix(0.13333333,0,0,-0.13333333,0,41.173333)" />
    <path
       id="path8"
       d="m 168.902,256.492 c 17.774,16.106 41.922,26.457 64.754,25.938 24.024,-0.543 40.5,-12.989 44.992,-31.063"
       style="fill:none;stroke:#036897;stroke-width:4;stroke-linecap:butt;stroke-linejoin:miter;stroke-miterlimit:4;stroke-dasharray:none;stroke-opacity:1"
       transform="matrix(0.13333333,0,0,-0.13333333,0,41.173333)" />
    <path
       id="path9"
       d="m 178.102,280.859 c 17.753,16.094 41.914,26.454 64.746,25.938 24.023,-0.535 40.496,-12.988 44.988,-31.067"
       style="fill:none;stroke:#036897;stroke-width:4;stroke-linecap:butt;stroke-linejoin:miter;stroke-miterlimit:4;stroke-dasharray:none;stroke-opacity:1"
       transform="matrix(0.13333333,0,0,-0.13333333,0,41.173333)" />
    <path
       id="path10"
       d="m 159.613,231.863 c 17.774,16.106 41.926,26.446 64.746,25.93 24.024,-0.547 40.489,-12.988 44.993,-31.066"
       style="fill:none;stroke:#036897;stroke-width:4;stroke-linecap:butt;stroke-linejoin:miter;stroke-miterlimit:4;stroke-dasharray:none;stroke-opacity:1"
       transform="matrix(0.13333333,0,0,-0.13333333,0,41.173333)" />
    <path
       id="path11"
       d="m 150.328,207.219 c 17.754,16.101 41.902,26.441 64.735,25.926 24.023,-0.547 40.5,-13 45,-31.047"
       style="fill:none;stroke:#036897;stroke-width:4;stroke-linecap:butt;stroke-linejoin:miter;stroke-miterlimit:4;stroke-dasharray:none;stroke-opacity:1"
       transform="matrix(0.13333333,0,0,-0.13333333,0,41.173333)" />
    <path
       id="path12"
       d="m 141.031,182.578 c 17.754,16.102 41.914,26.453 64.746,25.938 24.024,-0.547 40.496,-13.008 44.989,-31.055"
       style="fill:none;stroke:#ffffff;stroke-width:4;stroke-linecap:butt;stroke-linejoin:miter;stroke-miterlimit:4;stroke-dasharray:none;stroke-opacity:1"
       transform="matrix(0.13333333,0,0,-0.13333333,0,41.173333)" />
    <path
       id="path13"
       d="M 270.309,129.355 C 272.672,101.035 224.645,73.9336 163.031,68.8086 101.449,63.6797 49.5859,82.4492 47.2305,110.762 c -2.3633,28.301 45.6758,55.398 107.2775,60.547 61.59,5.117 113.445,-13.664 115.801,-41.954"
       style="fill:#036897;fill-opacity:1;fill-rule:nonzero;stroke:none"
       transform="matrix(0.13333333,0,0,-0.13333333,0,41.173333)" />
    <path
       id="path14"
       d="M 270.309,129.355 C 272.672,101.035 224.645,73.9336 163.031,68.8086 101.449,63.6797 49.5859,82.4492 47.2305,110.762 c -2.3633,28.301 45.6758,55.398 107.2775,60.547 61.59,5.117 113.445,-13.664 115.801,-41.954 z"
       style="fill:none;stroke:#ffffff;stroke-width:4;stroke-linecap:butt;stroke-linejoin:miter;stroke-miterlimit:4;stroke-dasharray:none;stroke-opacity:1"
       transform="matrix(0.13333333,0,0,-0.13333333,0,41.173333)" />
    <path
       id="path15"
       d="m 259.977,136.16 c 2.148,-25.738 -41.516,-50.3787 -97.52,-55.0389 -55.988,-4.668 -103.1367,12.4023 -105.2734,38.1369 -2.1484,25.73 41.5234,50.359 97.5194,55.039 55.996,4.656 103.133,-12.41 105.274,-38.137"
       style="fill:#036897;fill-opacity:1;fill-rule:nonzero;stroke:none"
       transform="matrix(0.13333333,0,0,-0.13333333,0,41.173333)" />
    <path
       id="path16"
       d="m 259.977,136.16 c 2.148,-25.738 -41.516,-50.3787 -97.52,-55.0389 -55.988,-4.668 -103.1367,12.4023 -105.2734,38.1369 -2.1484,25.73 41.5234,50.359 97.5194,55.039 55.996,4.656 103.133,-12.41 105.274,-38.137 z"
       style="fill:none;stroke:#ffffff;stroke-width:4;stroke-linecap:butt;stroke-linejoin:miter;stroke-miterlimit:4;stroke-dasharray:none;stroke-opacity:1"
       transform="matrix(0.13333333,0,0,-0.13333333,0,41.173333)" />
    <path
       id="path17"
       d="M 3.83203,3.67969 242.895,4.03125 V 47.0781 H 3.96875 L 3.83203,3.67969"
       style="fill:#036897;fill-opacity:1;fill-rule:nonzero;stroke:#ffffff;stroke-width:4;stroke-linecap:butt;stroke-linejoin:miter;stroke-miterlimit:4;stroke-dasharray:none;stroke-opacity:1"
       transform="matrix(0.13333333,0,0,-0.13333333,0,41.173333)" />
  </g>
</svg>
